<svg width="127" height="150" viewBox="0 0 127 150" fill="none" xmlns="http://www.w3.org/2000/svg">
<path d="M63.1497 150C98.0263 150 126.299 116.421 126.299 75C126.299 33.5786 98.0263 0 63.1497 0C28.2731 0 0 33.5786 0 75C0 116.421 28.2731 150 63.1497 150Z" fill="#FFEA52"/>
<path d="M51.0872 56.8931C59.7312 48.7434 86.5674 39.1671 97.5279 18.0654C97.5279 18.0654 107.019 53.3762 108.008 66.9072C109.421 86.9213 105.07 117.19 57.0194 121.724C57.0194 121.724 17.5985 88.4891 51.0872 56.8931Z" fill="#6CAF2C" stroke="black" stroke-width="0.25" stroke-miterlimit="10"/>
<path d="M55.9038 121.568C59.0253 100.382 64.6609 78.8562 77.3304 61.1867C81.4829 55.1556 86.6948 49.2093 90.4236 42.9099C93.1965 38.3171 95.1109 33.2583 96.0733 27.9805C95.2113 33.2923 93.403 38.4063 90.7343 43.0793C84.8021 53.1923 76.6948 61.9918 71.5818 72.7403C66.8527 82.3124 63.4049 92.4656 61.3275 102.938C59.9999 108.983 59.0394 115.791 58.1919 121.879C58.1855 122.031 58.1491 122.18 58.0849 122.318C58.0207 122.456 57.9299 122.58 57.8178 122.683C57.7056 122.786 57.5743 122.866 57.4313 122.918C57.2883 122.97 57.1364 122.994 56.9843 122.988C56.8322 122.981 56.6829 122.945 56.5449 122.88C56.4068 122.816 56.2828 122.725 56.1798 122.613C56.0769 122.501 55.997 122.37 55.9448 122.227C55.8926 122.084 55.8691 121.932 55.8756 121.78V121.582L55.9038 121.568Z" fill="#6CAF2C" stroke="black" stroke-width="0.25" stroke-miterlimit="10"/>
<path d="M101.003 47.373C94.6611 50.4098 88.7713 54.1245 82.7402 57.7403C88.139 53.1917 94.33 49.6772 101.003 47.373Z" fill="black"/>
<path d="M103.545 68.8138C92.712 68.3477 82.3589 72.5567 72.938 77.5144C81.8645 71.7093 92.712 67.3025 103.545 68.8138Z" fill="black"/>
<path d="M102.966 91.3137C91.7513 89.2939 80.3671 91.5679 69.5761 94.8165C68.0225 95.2826 66.4829 95.7911 64.9575 96.3561C76.7372 91.3137 90.2824 88.0933 102.966 91.3137Z" fill="black"/>
<path d="M82.5423 110.904C75.2118 109.831 67.8954 111.596 60.9321 113.729C67.5423 110.65 75.3672 108.814 82.5423 110.904Z" fill="black"/>
<path d="M72.853 44.958C75.1082 49.4904 76.7697 54.2946 77.7965 59.2518C75.8486 54.5963 74.1974 49.8222 72.853 44.958Z" fill="black"/>
<path d="M56.3984 55.6782C62.147 61.0172 65.8617 68.3053 68.3193 75.6782C64.9577 68.6161 61.4408 61.6528 56.3984 55.6782Z" fill="black"/>
<path d="M42.5566 70.9888C50.6357 76.4549 56.4408 84.8023 60.777 93.404C55.6075 85.2684 50.0284 77.1893 42.5566 70.9888Z" fill="black"/>
<path d="M41.2427 93.9829C47.1184 97.9518 51.3839 103.997 54.4913 110.296C50.5365 104.477 46.4969 98.7004 41.2427 93.9829Z" fill="black"/>
<path d="M24.1099 109.845C23.7897 109.855 23.4853 109.986 23.2574 110.211C23.0296 110.436 22.8952 110.739 22.8811 111.059C22.8792 111.217 22.9085 111.373 22.9671 111.52C23.0257 111.666 23.1126 111.8 23.2228 111.912C23.3329 112.025 23.4642 112.115 23.6092 112.177C23.7541 112.239 23.9099 112.272 24.0676 112.274C24.3812 112.278 24.6839 112.159 24.9109 111.942C25.1379 111.726 25.2712 111.429 25.2823 111.116C25.2866 110.794 25.1675 110.483 24.9494 110.247C24.7313 110.01 24.4309 109.866 24.1099 109.845ZM25.9602 111.031C25.9736 111.261 25.9414 111.492 25.8655 111.709C25.7896 111.927 25.6715 112.127 25.518 112.299C25.3645 112.471 25.1786 112.611 24.9709 112.711C24.7632 112.811 24.5378 112.869 24.3077 112.881H24.0958C23.8537 112.903 23.6099 112.876 23.3781 112.803C23.1463 112.73 22.9311 112.612 22.7449 112.456C22.3688 112.141 22.1332 111.689 22.0902 111.201C22.0471 110.712 22.2 110.226 22.5152 109.85C22.8304 109.473 23.2821 109.238 23.771 109.195H24.0958C24.5597 109.164 25.0172 109.317 25.3689 109.621C25.7206 109.925 25.9382 110.356 25.9743 110.819V111.088L25.9602 111.031Z" fill="white"/>
<path d="M22.8955 111.088C22.8955 110.847 22.9667 110.613 23.1002 110.413C23.2337 110.213 23.4234 110.057 23.6453 109.966C23.8673 109.874 24.1115 109.85 24.3472 109.896C24.5828 109.943 24.7992 110.059 24.9691 110.229C25.139 110.399 25.2547 110.615 25.3015 110.851C25.3484 111.086 25.3243 111.331 25.2324 111.553C25.1405 111.775 24.9848 111.964 24.785 112.098C24.5853 112.231 24.3504 112.302 24.1102 112.302C23.7903 112.295 23.4855 112.165 23.2592 111.939C23.033 111.712 22.9027 111.408 22.8955 111.088Z" fill="black"/>
<path d="M25.9607 111.088C26.0037 110.599 25.8508 110.113 25.5356 109.737C25.2204 109.361 24.7687 109.125 24.2799 109.082C23.791 109.039 23.3051 109.192 22.929 109.507C22.5528 109.822 22.3173 110.274 22.2742 110.763C22.2602 110.871 22.2602 110.98 22.2742 111.088C22.2724 111.331 22.3184 111.572 22.4096 111.797C22.5009 112.022 22.6356 112.227 22.8061 112.4C22.9767 112.573 23.1796 112.711 23.4034 112.806C23.6272 112.901 23.8674 112.95 24.1104 112.952C24.3405 112.966 24.5709 112.933 24.7885 112.857C25.0062 112.782 25.2067 112.664 25.3785 112.51C25.5504 112.356 25.6903 112.171 25.7902 111.963C25.8901 111.755 25.948 111.53 25.9607 111.3C25.9747 111.23 25.9747 111.158 25.9607 111.088ZM26.2008 111.088C26.2008 111.642 25.9805 112.174 25.5885 112.566C25.1965 112.958 24.6648 113.178 24.1104 113.178C23.5547 113.178 23.0215 112.958 22.6272 112.567C22.233 112.175 22.0096 111.643 22.0059 111.088C22.0204 110.537 22.2477 110.013 22.64 109.626C23.0323 109.239 23.5593 109.019 24.1104 109.012C24.3812 109.002 24.6513 109.046 24.9051 109.141C25.1589 109.236 25.3915 109.38 25.5896 109.565C25.7876 109.75 25.9473 109.972 26.0595 110.219C26.1716 110.466 26.234 110.732 26.2431 111.003V111.088H26.2008Z" fill="black"/>
<path d="M122.796 121.878C122.669 121.215 122.528 120.579 122.373 119.915C122.062 118.63 121.681 117.345 121.384 116.045C121.224 115.414 121.097 114.765 121.003 114.096C121 113.756 120.977 113.416 120.932 113.079C120.92 112.739 120.944 112.398 121.003 112.062C121.083 111.4 121.206 110.745 121.37 110.099L121.78 108.164C122.076 106.85 122.302 105.551 122.472 104.223C122.542 103.573 122.571 102.91 122.585 102.246C122.604 101.585 122.537 100.926 122.387 100.282C122.304 99.9643 122.175 99.6599 122.006 99.3785C121.821 99.1263 121.565 98.9346 121.271 98.8276C120.957 98.7853 120.639 98.7853 120.325 98.8276C120 98.8823 119.683 98.9723 119.378 99.096C118.744 99.3449 118.134 99.6523 117.556 100.014C117.02 100.381 116.483 100.777 115.946 101.186C113.884 102.825 111.963 104.717 109.929 106.441C108.935 107.32 107.873 108.118 106.751 108.828C106.187 109.208 105.58 109.52 104.943 109.76L104.548 109.873C104.363 109.963 104.16 110.011 103.955 110.014C103.627 110.099 103.29 110.142 102.952 110.141L100.932 110.014C100.263 110 99.5972 109.929 98.9406 109.802L97.2033 109.52C97.3548 109.17 97.5293 108.83 97.7259 108.503C97.8812 108.249 98.0648 107.994 98.2343 107.74C98.4205 107.511 98.5466 107.239 98.6016 106.949C98.6307 106.824 98.6306 106.694 98.6012 106.569C98.5718 106.444 98.5139 106.328 98.4321 106.229C98.3364 106.14 98.2216 106.075 98.0966 106.039C97.9717 106.002 97.84 105.994 97.7118 106.017C97.1128 106.091 96.5186 106.199 95.9321 106.342C94.7599 106.677 93.6168 107.107 92.514 107.627C91.9972 107.883 91.464 108.105 90.918 108.291L87.1609 107.472C83.2626 106.596 79.3502 105.749 75.4377 105.042C75.4519 104.892 75.4519 104.741 75.4377 104.59C75.5088 104.26 75.4792 103.915 75.353 103.602C75.284 103.446 75.1829 103.306 75.0564 103.192C74.93 103.077 74.7872 102.982 74.6326 102.91L74.2654 102.613L73.7852 102.387L72.8389 101.949L71.8784 101.539C71.231 101.26 70.6115 100.919 70.0281 100.523C69.4299 100.099 68.8677 99.6264 68.3473 99.1101C67.301 98.1746 66.3544 97.1332 65.5225 96.0028C65.0988 95.4519 64.6892 94.8728 64.2937 94.2937C64.0959 94.0112 63.9123 93.7287 63.7005 93.4463L63.3615 93.0367C63.2626 92.9095 63.1496 92.7965 63.0366 92.6694C62.9221 92.5816 62.793 92.5147 62.6553 92.4717H62.2457C61.9343 92.5965 61.6438 92.7679 61.3841 92.9802C60.8481 93.4102 60.3474 93.8825 59.8869 94.3926C59.4183 94.9295 58.9843 95.4956 58.5874 96.0875C57.7824 97.1892 57.0479 98.4039 56.2005 99.4632C55.4963 100.408 54.659 101.245 53.7146 101.949C51.7089 101.836 49.6892 101.723 47.6694 101.765H45.7344C43.7229 101.796 41.7144 101.933 39.7174 102.175C37.0757 102.469 34.4568 102.941 31.8784 103.588C29.3108 104.263 26.8099 105.171 24.4067 106.299C22.0107 107.465 19.7472 108.886 17.6553 110.537L16.8784 111.186L16.4971 111.497L16.1157 111.822C15.8615 112.034 15.6214 112.274 15.3812 112.5C15.2567 112.611 15.1388 112.728 15.0281 112.853L14.8445 113.008L14.675 113.178C14.5868 113.294 14.5391 113.435 14.5391 113.58C14.5391 113.726 14.5868 113.867 14.675 113.983C14.7435 114.112 14.8603 114.208 14.9999 114.251H15.4801C16.1458 114.322 16.8063 114.435 17.4575 114.59C18.7674 114.859 20.0524 115.237 21.2993 115.72L21.4406 115.946C19.8445 115.946 18.2485 115.946 16.6807 116.045H16.3558L16.1298 116.172L16.0027 116.384V116.525C16.0898 116.911 16.2691 117.27 16.5253 117.571C16.7664 117.896 17.0747 118.166 17.4293 118.362L17.9801 118.63L18.531 118.813C19.3078 119.039 20.1411 119.138 20.9462 119.322C21.751 119.545 22.5317 119.848 23.2767 120.226C23.9999 120.617 24.745 120.966 25.5084 121.271C26.2695 121.555 27.0611 121.749 27.8671 121.85L32.7259 122.133C35.0961 123.106 37.5314 123.913 40.014 124.548C42.5832 125.222 45.1918 125.737 47.8247 126.087C52.9296 126.739 58.0859 126.891 63.2202 126.539C62.7824 125.96 62.3586 125.353 61.9632 124.717C62.5705 125.551 63.2343 126.356 63.9264 127.133C64.6136 127.909 65.3597 128.632 66.1581 129.294C66.933 129.984 67.7542 130.621 68.6157 131.2C68.8276 131.356 69.0536 131.469 69.2513 131.624L69.9151 132.006C70.1109 132.157 70.3375 132.263 70.579 132.316C70.7995 132.387 71.0364 132.387 71.2569 132.316C71.3654 132.293 71.4669 132.244 71.5536 132.175L71.8219 131.949C72.003 131.78 72.1515 131.579 72.2598 131.356C72.4005 131.145 72.5144 130.917 72.5988 130.678C72.7134 130.451 72.808 130.215 72.8812 129.972C73.2342 129.006 73.4344 127.991 73.4745 126.963C73.5738 126.479 73.4881 125.975 73.2344 125.551C73.0804 125.358 72.888 125.199 72.6694 125.085L71.9632 124.774C71.0027 124.421 70.014 124.068 69.0394 123.672L72.0197 124.619L72.7682 124.915C73.0146 125.03 73.2318 125.199 73.4038 125.41C75.4377 125.099 77.4858 124.732 79.5197 124.322C81.9067 123.842 84.2937 123.319 86.5818 122.74C87.1765 122.853 87.7552 123.038 88.305 123.291C89.1484 123.676 89.9485 124.149 90.692 124.703C91.4102 125.286 92.1599 125.828 92.9377 126.328C93.3332 126.582 93.7287 126.822 94.1383 127.034L94.4349 127.189L94.7456 127.316C94.9338 127.415 95.1408 127.473 95.353 127.486C95.5605 127.486 95.7655 127.441 95.9535 127.353C96.1414 127.265 96.3078 127.137 96.4406 126.977C96.7683 126.663 97.0533 126.307 97.288 125.918C97.5423 125.523 97.7682 125.127 98.0083 124.746L98.7287 123.531C98.9547 123.15 99.2089 122.754 99.4349 122.345C99.6639 121.954 99.8128 121.522 99.8728 121.073C99.915 120.859 99.915 120.638 99.8728 120.424C99.8475 120.322 99.7876 120.232 99.7033 120.169C99.6217 120.091 99.5258 120.028 99.4208 119.986L98.6439 119.689H98.7852C100.085 119.378 101.384 119.082 102.712 118.856C103.38 118.743 104.044 118.658 104.703 118.602L106.709 118.729C107.37 118.886 108.013 119.108 108.63 119.393C109.209 119.675 109.788 119.972 110.325 120.297C112.641 121.624 114.788 123.249 117.02 124.675C117.566 125.042 118.131 125.381 118.715 125.692C119.011 125.844 119.318 125.976 119.633 126.087C120.076 126.414 120.608 126.596 121.158 126.61C121.311 126.652 121.472 126.652 121.624 126.61L122.048 126.398C122.184 126.307 122.304 126.192 122.401 126.059C122.511 125.948 122.602 125.819 122.669 125.678C122.827 125.39 122.923 125.073 122.952 124.746C122.98 124.412 122.98 124.077 122.952 123.743C122.949 123.118 122.897 122.495 122.796 121.878ZM24.1242 113.107C23.578 113.111 23.0516 112.903 22.6562 112.526C22.2608 112.149 22.0275 111.633 22.0055 111.087C22.0201 110.537 22.2474 110.013 22.6397 109.626C23.032 109.238 23.559 109.018 24.1101 109.011C24.3809 109.002 24.6509 109.046 24.9048 109.141C25.1586 109.236 25.3912 109.38 25.5892 109.565C25.7873 109.75 25.947 109.972 26.0591 110.219C26.1713 110.465 26.2337 110.732 26.2428 111.003V111.087C26.2466 111.356 26.1973 111.624 26.0978 111.873C25.9983 112.123 25.8506 112.351 25.663 112.544C25.4755 112.737 25.2518 112.891 25.0047 112.997C24.7576 113.103 24.492 113.16 24.2231 113.164L24.1242 113.107Z" fill="#7C8390" stroke="black" stroke-width="0.25" stroke-linejoin="round"/>
<path d="M24.7177 111.059C25.1545 111.059 25.5087 110.705 25.5087 110.268C25.5087 109.832 25.1545 109.478 24.7177 109.478C24.2809 109.478 23.9268 109.832 23.9268 110.268C23.9268 110.705 24.2809 111.059 24.7177 111.059Z" fill="white"/>
<path d="M35.8195 113.701L36.4833 110.353C36.5308 110.639 36.6369 110.912 36.7949 111.155C36.9528 111.399 37.1593 111.606 37.4014 111.766C37.5142 111.247 37.8228 110.792 38.263 110.495C38.1217 111.06 38.7008 111.596 39.2799 111.667C39.889 111.68 40.4943 111.569 41.0596 111.342C43.8844 110.537 46.907 111.427 49.8025 112.161C54.6764 113.409 59.6552 114.204 64.6754 114.534C66.8273 114.454 68.9564 114.998 70.8053 116.102L71.0596 115.368L73.4183 115.495C72.278 114.07 71.0566 112.711 69.7601 111.427C69.9711 111.928 70.001 112.488 69.8449 113.009C68.842 112.416 67.8675 111.78 66.9212 111.088C66.7708 111.543 66.7038 112.021 66.7234 112.5L63.7149 111.766L59.8308 110.989C53.5126 109.63 47.0531 109.042 40.5935 109.238C40.2359 109.322 39.8635 109.322 39.5059 109.238C39.2625 109.1 39.043 108.923 38.8562 108.715L36.8505 106.851L36.6104 108.983C36.0465 108.451 35.371 108.05 34.633 107.811C34.6447 108.198 34.621 108.586 34.5624 108.969C34.2654 108.578 33.9294 108.219 33.5596 107.896C33.3194 108.63 34.294 109.69 34.6613 110.396C35.1664 111.452 35.5547 112.56 35.8195 113.701Z" fill="#A8B0BE"/>
<path d="M63.2629 94.8589C61.8024 97.5333 60.0853 100.059 58.1357 102.401C59.6011 99.7299 61.3179 97.2043 63.2629 94.8589Z" fill="black"/>
<path d="M64.6469 97.373C63.8177 99.3045 62.7089 101.103 61.356 102.712C62.2077 100.792 63.3147 98.9965 64.6469 97.373Z" fill="black"/>
<path d="M66.8219 99.4492C66.3239 100.796 65.5493 102.022 64.5479 103.051C65.0667 101.708 65.8496 100.484 66.8501 99.4492H66.8219Z" fill="black"/>
<path d="M68.9547 101.003C68.7135 102.063 68.1914 103.039 67.4434 103.828C67.6846 102.768 68.2066 101.792 68.9547 101.003Z" fill="black"/>
<path d="M71.6241 102.429C71.4295 103.142 70.963 103.751 70.3247 104.124C70.5194 103.411 70.9859 102.802 71.6241 102.429Z" fill="black"/>
<path d="M121.116 101.667C116.706 105.174 112.103 108.432 107.331 111.427C111.756 107.941 116.357 104.683 121.116 101.667Z" fill="black"/>
<path d="M120.409 107.627C116.813 109.368 113.093 110.841 109.279 112.034C112.876 110.297 116.596 108.829 120.409 107.641V107.627Z" fill="black"/>
</svg>
