<svg width="130" height="150" viewBox="0 0 130 150" fill="none" xmlns="http://www.w3.org/2000/svg">
<path d="M64.8022 150C100.592 150 129.604 116.421 129.604 75C129.604 33.5786 100.592 0 64.8022 0C29.0129 0 0 33.5786 0 75C0 116.421 29.0129 150 64.8022 150Z" fill="#B6E3FF"/>
<path d="M40.593 37.2456L14.9292 41.6806L21.9913 52.0761C22.6838 53.0641 23.1647 54.1845 23.4038 55.3671L34.9574 114.548L60.9038 109.491L49.4631 50.932C49.2232 49.6699 48.7124 48.4748 47.9659 47.4292L40.593 37.2456Z" fill="white"/>
<path d="M39.5764 104.817C41.7091 106.046 43.3899 106.385 45.4662 104.817C46.6517 103.754 47.8966 102.758 49.195 101.837C50.5713 101.11 52.1181 100.768 53.6724 100.848C54.8278 100.978 55.9975 100.887 57.1187 100.579C57.8228 100.311 58.4732 99.9184 59.0396 99.4213L54.3362 75.2688C53.2187 76.2481 51.8294 76.8639 50.3532 77.0343C49.7852 76.9905 49.2323 76.8299 48.7292 76.5626C48.2261 76.2952 47.7836 75.9269 47.4295 75.4806C46.9644 74.8677 46.3523 74.3819 45.6498 74.0682C44.6046 73.8563 43.6724 74.9439 43.2346 75.7914C41.7515 78.6162 44.421 81.893 46.0594 84.0399C47.6978 86.1868 49.2939 88.2772 48.8843 91.1021C48.7399 92.1606 48.185 93.1199 47.3393 93.7726C46.4936 94.4254 45.4251 94.7193 44.3645 94.5908C43.9686 94.5342 43.5832 94.42 43.2204 94.2518C40.3956 93.1642 38.8984 90.1558 38.3475 87.345C38.0645 85.2529 38.1361 83.128 38.5594 81.0597C38.7995 79.2942 39.5764 75.297 37.5566 74.2518C34.3645 72.6699 33.5453 78.0654 31.582 79.2942C31.104 79.6085 30.5641 79.8165 29.9988 79.9042C29.4335 79.992 28.8559 79.9573 28.3052 79.8027L33.0792 104.294C34.1245 103.853 35.2607 103.67 36.3917 103.761C37.5226 103.852 38.615 104.214 39.5764 104.817Z" fill="#7D99D5"/>
<path d="M40.593 37.2456L14.9292 41.6806L21.9913 52.0761C22.6838 53.0641 23.1647 54.1845 23.4038 55.3671L34.9574 114.548L60.9038 109.491L49.4631 50.932C49.2232 49.6699 48.7124 48.4748 47.9659 47.4292L40.593 37.2456Z" stroke="black" stroke-width="0.25" stroke-linejoin="round"/>
<path d="M14.9294 41.6812L12.3306 54.5908C12.1047 55.7712 12.1047 56.9838 12.3306 58.1642L23.8277 116.738L35.0283 114.548L23.4464 55.2263C23.2513 54.144 22.8223 53.1173 22.1893 52.2179L14.9294 41.6812Z" fill="white" stroke="black" stroke-width="0.25" stroke-linejoin="round"/>
<path d="M30.5788 38.1499L38.9404 45.5087C38.4571 46.3602 37.8943 47.1642 37.2596 47.9098C35.7483 49.6471 32.6834 49.3222 30.367 47.3024C28.0506 45.2827 27.5421 42.3872 28.9545 40.551C30.028 39.0539 30.5788 38.1499 30.5788 38.1499Z" fill="#5E7398" stroke="black" stroke-width="0.25" stroke-linejoin="round"/>
<path d="M38.5569 45.5628C40.0442 43.8687 39.3823 40.8557 37.0784 38.8332C34.7746 36.8107 31.7013 36.5445 30.214 38.2386C28.7267 39.9328 29.3886 42.9457 31.6924 44.9683C33.9962 46.9908 37.0696 47.257 38.5569 45.5628Z" fill="#7D99D5"/>
<path d="M38.5569 45.5628C40.0442 43.8687 39.3823 40.8557 37.0784 38.8332C34.7746 36.8107 31.7013 36.5445 30.214 38.2386C28.7267 39.9328 29.3886 42.9457 31.6924 44.9683C33.9962 46.9908 37.0696 47.257 38.5569 45.5628Z" stroke="black" stroke-width="0.25" stroke-linejoin="round"/>
<path d="M13.1357 55.0139L17.8815 46.0732L18.1781 46.2427L13.1357 55.0139Z" fill="black"/>
<path d="M13.3193 56.1016L23.0792 53.418L23.164 53.7428L13.3193 56.1016Z" fill="black"/>
<path d="M24.9297 53.1782C32.4626 51.6151 40.0662 50.2686 47.7404 49.1387C40.198 50.6453 32.5945 51.9918 24.9297 53.1782Z" fill="black"/>
<path d="M37.1471 69.4353C37.2044 69.7059 37.1747 69.9876 37.0624 70.2403C37.0325 70.3506 36.9734 70.4508 36.8914 70.5303C36.8094 70.6099 36.7074 70.6658 36.5963 70.6923C36.5151 70.7013 36.4329 70.6906 36.3566 70.6611C36.2804 70.6316 36.2124 70.5842 36.1585 70.5228C36.0329 70.3556 35.9461 70.1627 35.9042 69.9579C35.7347 69.0398 35.7065 68.5454 35.6641 68.2629L34.9155 64.4776C34.7884 65.0991 34.6613 65.9748 34.52 67.3025C34.3788 68.6302 34.2658 69.5765 34.181 70.1273L34.0116 71.0454C33.9127 71.455 33.7856 71.6669 33.6443 71.6951C33.5523 71.7235 33.4539 71.7235 33.3618 71.6951C33.1671 71.6122 33.0004 71.4749 32.8816 71.2997C32.7535 71.0788 32.6448 70.8472 32.5568 70.6076C32.4577 70.3155 32.3349 70.0321 32.1895 69.7601C32.0059 69.3505 31.6104 68.4324 31.1161 67.246C30.7908 66.4257 30.3838 65.6402 29.9014 64.9014C29.9974 66.8601 30.2002 68.8122 30.5087 70.7488C30.6046 71.0377 30.6046 71.3498 30.5087 71.6386C30.4823 71.7559 30.4231 71.8633 30.3381 71.9483C30.2531 72.0333 30.1458 72.0924 30.0285 72.1189C29.9649 72.1331 29.8987 72.1301 29.8366 72.1102C29.7746 72.0903 29.719 72.0543 29.6754 72.0059C29.5576 71.8766 29.4835 71.7135 29.4635 71.5398C29.4353 71.1589 29.4353 70.7765 29.4635 70.3957V69.181C29.4635 68.3053 29.3223 67.2177 29.181 65.8901C29.0398 64.5624 28.9833 63.9974 28.8986 63.5596C28.9127 63.4565 28.9127 63.3519 28.8986 63.2488V62.924C28.8414 62.6019 28.8707 62.2705 28.9833 61.9635C29.019 61.8399 29.0838 61.7267 29.1723 61.6333C29.2608 61.5399 29.3703 61.4691 29.4918 61.4268C29.746 61.4268 29.9155 61.568 30.0144 62.02C30.7404 63.1658 31.3688 64.3706 31.8929 65.6217L33.5596 69.4211L34.4212 61.6951C34.3364 61.3998 34.3364 61.0865 34.4212 60.7912C34.4463 60.6725 34.5027 60.5627 34.5847 60.4732C34.6667 60.3838 34.7712 60.318 34.8873 60.2827C35.2404 60.2827 35.4664 60.4663 35.5794 61.0454L36.0172 63.2629C36.3744 65.2517 36.846 67.2183 37.4296 69.1528L37.1471 69.4353Z" fill="#7D99D5"/>
<path d="M39.195 67.7826L39.3221 68.4323C39.378 68.6412 39.4205 68.8535 39.4492 69.0679C39.5201 69.3376 39.4899 69.6239 39.3645 69.873C39.3333 69.9826 39.2738 70.082 39.1919 70.1614C39.1101 70.2407 39.0089 70.2971 38.8984 70.325C38.828 70.3381 38.7553 70.332 38.6882 70.3071C38.621 70.2822 38.5619 70.2396 38.517 70.1837C38.3879 70.0533 38.3038 69.885 38.2769 69.7035C38.2628 69.4636 38.2628 69.2231 38.2769 68.9831C38.2346 67.9175 38.1214 66.8558 37.9379 65.8052C37.6696 64.3928 37.5707 63.3899 37.4153 62.5425C37.3828 62.2314 37.3214 61.924 37.2317 61.6244C37.1511 61.4415 37.085 61.2526 37.034 61.0594C36.9773 60.7654 37.0067 60.4613 37.1187 60.1837C37.1596 60.0715 37.2252 59.9701 37.3109 59.8869C37.3965 59.8038 37.4998 59.741 37.6131 59.7035C37.9238 59.6329 38.1216 59.873 38.2346 60.3956V60.7911C38.406 63.1396 38.7268 65.4748 39.195 67.7826Z" fill="#7D99D5"/>
<path d="M45.1415 68.7148L44.633 68.8137L44.1387 68.9126C43.2157 69.141 42.3057 69.4192 41.4127 69.7459C41.3773 69.8195 41.326 69.8843 41.2625 69.9355C41.199 69.9868 41.1248 70.0234 41.0455 70.0425C40.7065 70.0425 40.5088 69.9013 40.424 69.4493C40.4099 69.2094 40.4099 68.9689 40.424 68.729C40.2875 66.5473 39.9806 64.3797 39.5059 62.2459C39.4781 61.9538 39.4213 61.6652 39.3364 61.3843C39.2853 61.2037 39.2475 61.0196 39.2234 60.8335C39.1667 60.5395 39.1962 60.2354 39.3082 59.9578C39.4071 59.6612 39.5483 59.5058 39.746 59.4634C39.9438 59.421 40.2686 59.6047 40.3675 60.0849C40.4106 60.2324 40.439 60.3838 40.4523 60.5369C40.5394 61.7586 40.6902 62.975 40.9042 64.1809C41.1585 65.9324 41.2997 66.8081 41.3845 67.26L41.5681 68.1922L43.0653 67.825C43.5658 67.7372 44.0451 67.555 44.4777 67.2883C44.5592 67.2275 44.6498 67.1798 44.746 67.147C44.849 67.1403 44.9521 67.1572 45.0476 67.1963C45.1431 67.2355 45.2283 67.2959 45.2969 67.373C45.4776 67.5567 45.6045 67.7862 45.6641 68.0369C45.6783 68.3335 45.6218 68.5877 45.1415 68.7148Z" fill="#7D99D5"/>
<path d="M50.6073 66.5396C50.6779 66.8081 50.6779 67.0903 50.6073 67.3588C50.6073 67.6695 50.4519 67.8531 50.2683 67.8814C50.0847 67.9096 49.9293 67.7966 49.6751 67.5142C48.6837 66.6522 47.5758 65.9342 46.3841 65.3814L46.8078 67.5283C46.8922 67.8189 46.8922 68.1275 46.8078 68.4181C46.7852 68.5295 46.7302 68.6317 46.6499 68.7121C46.5695 68.7925 46.4672 68.8474 46.3559 68.8701C46.2841 68.8853 46.2093 68.8786 46.1414 68.8509C46.0734 68.8232 46.0153 68.7758 45.9745 68.7147C45.8454 68.5843 45.7612 68.4161 45.7344 68.2345V67.5424C45.7344 67.3164 45.6355 66.3983 45.4519 65.0848C45.2259 63.4181 45.0141 62.0763 44.8304 61.0876C44.7979 60.7904 44.7364 60.4971 44.6468 60.2119C44.6002 60.031 44.5672 59.8469 44.548 59.661C44.4908 59.3531 44.5202 59.0353 44.6327 58.743C44.6682 58.6302 44.7304 58.5276 44.814 58.444C44.8976 58.3604 45.0001 58.2982 45.1129 58.2627C45.3813 58.2627 45.5932 58.4605 45.692 58.9972C45.7606 59.2984 45.7938 59.6065 45.7909 59.9153C45.7909 60.4096 45.9463 60.6921 45.8898 60.8757L46.2287 63.2486C46.9028 61.836 47.4191 60.3534 47.7683 58.8277C47.7402 58.6353 47.7694 58.439 47.8523 58.2631C47.9352 58.0872 48.0681 57.9397 48.2344 57.839H48.4039C48.5718 57.8255 48.7398 57.865 48.8841 57.952C48.9675 58.0068 49.0375 58.0797 49.0889 58.1653C49.1402 58.2509 49.1716 58.347 49.1807 58.4464C49.2114 58.5971 49.2109 58.7526 49.1793 58.9032C49.1477 59.0537 49.0857 59.1963 48.9971 59.3221C48.2047 60.8533 47.5111 62.4338 46.9208 64.0537L48.4463 64.9718C48.9121 65.2615 49.416 65.485 49.9434 65.6356C50.1295 65.7062 50.2912 65.8291 50.409 65.9895C50.5268 66.1499 50.5957 66.3409 50.6073 66.5396Z" fill="#7D99D5"/>
<path d="M55.9885 57.2599C64.2654 49.4351 89.9998 40.3108 100.522 20.0142C100.522 20.0142 109.618 53.9125 110.565 66.8644C111.977 86.0594 107.74 115.071 61.6665 119.421C61.6665 119.421 23.8699 87.5565 55.9885 57.2599Z" fill="#6CAF2C" stroke="black" stroke-width="0.25" stroke-miterlimit="10"/>
<path d="M60.5788 119.279C63.559 98.9263 68.9686 78.319 81.1155 61.3698C85.0986 55.593 90.0986 49.8868 93.6861 43.8416C96.342 39.4346 98.175 34.5818 99.0957 29.5195C98.2815 34.6194 96.5492 39.5294 93.9827 44.0111C88.333 53.7003 80.5223 62.1466 75.6212 72.4433C71.0758 81.6219 67.7519 91.3563 65.7342 101.398C64.463 107.189 63.5308 113.714 62.7257 119.562C62.7071 119.706 62.6605 119.844 62.5883 119.97C62.5162 120.096 62.42 120.206 62.3052 120.295C62.1904 120.383 62.0594 120.448 61.9195 120.486C61.7795 120.524 61.6336 120.534 61.4898 120.515C61.3461 120.497 61.2074 120.45 61.0817 120.378C60.956 120.306 60.8457 120.21 60.7572 120.095C60.6686 119.98 60.6036 119.849 60.5657 119.709C60.5278 119.569 60.5179 119.423 60.5364 119.279H60.5788Z" fill="#6CAF2C" stroke="black" stroke-width="0.25" stroke-miterlimit="10"/>
<path d="M103.856 48.1216C98.5593 50.6216 91.4265 55.0425 86.3418 58.0086C91.515 53.6537 97.4545 50.3008 103.856 48.1216Z" fill="black"/>
<path d="M106.285 68.7145C95.904 68.2766 85.9887 72.3303 76.9351 77.0478C85.4944 71.4546 95.9887 67.302 106.285 68.7145Z" fill="black"/>
<path d="M105.735 90.2543C94.986 88.3334 84.0255 90.5227 73.7148 93.63C72.2176 94.0679 70.7487 94.5481 69.2798 95.0424C80.5792 90.1554 93.5736 87.0905 105.735 90.1978V90.2543Z" fill="black"/>
<path d="M86.1017 109.054C79.0395 108.037 72.0621 109.732 65.3813 111.794C71.709 108.828 79.2232 107.077 86.1017 109.054Z" fill="black"/>
<path d="M76.7798 45.8052C78.9688 50.1436 80.565 54.7564 81.5255 59.5199C79.6414 55.0585 78.056 50.4769 76.7798 45.8052Z" fill="black"/>
<path d="M61.0737 56.0874C66.6105 61.1863 70.1557 68.1919 72.5003 75.2682C69.2658 68.545 65.8901 61.8219 61.0737 56.0874Z" fill="black"/>
<path d="M47.7964 70.7769C55.5506 76.0028 61.1297 84.0113 65.2681 92.274C60.2964 84.4774 54.9433 76.7373 47.7964 70.7769Z" fill="black"/>
<path d="M46.5537 92.8252C52.2034 96.6105 56.2995 102.416 59.2656 108.461C55.4379 102.896 51.582 97.3591 46.5537 92.8252Z" fill="black"/>
<path d="M110.508 117.726C107.09 129.774 97.4011 135.325 88.1638 132.754C78.9265 130.184 73.5593 120.325 76.9773 108.277C80.3954 96.2288 93.2203 86.1299 100.763 88.2627C108.828 90.5649 113.856 105.636 110.508 117.726Z" fill="#EAC18B" stroke="black" stroke-width="0.25" stroke-miterlimit="10"/>
</svg>
