<svg width="198" height="152" viewBox="0 0 198 152" fill="none" xmlns="http://www.w3.org/2000/svg">
<path d="M193.001 135.693L181.178 111.606C180.86 110.97 177.661 113.532 177.979 114.168L188.75 135.856C188.986 136.362 193.311 136.313 193.001 135.693Z" fill="black"/>
<path d="M141.432 136.9L153.272 112.757C153.582 112.12 156.78 114.682 156.47 115.319L145.684 137.006C145.422 137.537 141.122 137.504 141.432 136.9Z" fill="black"/>
<path d="M197.334 97.9632C197.334 125.053 182.288 134.803 163.725 134.803C145.162 134.803 130.124 125.012 130.124 97.9632C130.124 70.9145 145.17 49.8223 163.692 49.8223C182.214 49.8223 197.334 70.8574 197.334 97.9632Z" fill="#BAE3FD" stroke="black" stroke-width="0.25" stroke-miterlimit="10"/>
<path d="M162.517 121.895C151.094 121.895 140.633 119.831 132.678 114.984C137.753 129.255 149.731 134.779 163.684 134.779C178.306 134.779 190.741 128.717 195.367 112.912C187.15 119.252 175.474 121.895 162.517 121.895Z" fill="#7E7797" stroke="black" stroke-width="0.25" stroke-miterlimit="10"/>
<path d="M58.3369 106.661V135.366C58.3369 135.766 59.1529 136.084 60.0667 136.084C60.9806 136.084 61.7965 135.766 61.7965 135.366V106.661H58.3369Z" fill="#686868"/>
<path d="M58.3369 106.661V135.366C58.3369 135.766 59.1529 136.084 60.0667 136.084C60.9806 136.084 61.7965 135.766 61.7965 135.366V106.661H58.3369Z" fill="black"/>
<path d="M5.39795 121.569V150.274C5.39795 150.673 6.2139 151 7.12776 151C8.04162 151 8.85757 150.673 8.85757 150.274V121.569H5.39795Z" fill="#8C6F5A" stroke="black" stroke-width="0.25" stroke-miterlimit="10"/>
<path d="M45.665 121.569V150.274C45.665 150.673 46.481 151 47.3949 151C48.3087 151 49.1247 150.673 49.1247 150.274V121.569H45.665Z" fill="#8C6F5A" stroke="black" stroke-width="0.25" stroke-miterlimit="10"/>
<path d="M16.7723 64.7136L10.7587 106.694L1 130.242H51.4256L63.4771 102.255V64.7136H16.7723Z" fill="#8C6F5A" stroke="black" stroke-width="0.25" stroke-miterlimit="10"/>
<path d="M51.4256 76.3817H1L16.7723 64.7136H63.4771L51.4256 76.3817Z" fill="#8C6F5A" stroke="black" stroke-width="0.25" stroke-miterlimit="10"/>
<path d="M51.4256 76.3816H1V130.242H51.4256V76.3816Z" fill="#8C6F5A" stroke="black" stroke-width="0.25" stroke-miterlimit="10"/>
<path d="M75.3739 135.897L85.8017 108.865C86.0791 108.146 88.9023 111.019 88.6249 111.729L79.1191 136.085C78.8906 136.648 75.0964 136.607 75.3739 135.897Z" fill="#686868"/>
<path d="M75.3739 135.897L85.8017 108.865C86.0791 108.146 88.9023 111.019 88.6249 111.729L79.1191 136.085C78.8906 136.648 75.0964 136.607 75.3739 135.897Z" fill="black"/>
<path d="M118.374 135.897L107.946 108.865C107.669 108.146 104.846 111.019 105.123 111.729L114.629 136.085C114.857 136.648 118.652 136.607 118.374 135.897Z" fill="#686868"/>
<path d="M118.374 135.897L107.946 108.865C107.669 108.146 104.846 111.019 105.123 111.729L114.629 136.085C114.857 136.648 118.652 136.607 118.374 135.897Z" fill="black"/>
<path d="M57.3333 80.6001C56.5174 80.6001 55.9136 86.736 55.9136 94.308C55.9136 101.88 56.55 108.024 57.3333 108.024H88.7473V80.6001H57.3333Z" fill="#686868"/>
<path d="M57.3333 80.6001C56.5174 80.6001 55.9136 86.736 55.9136 94.308C55.9136 101.88 56.55 108.024 57.3333 108.024H88.7473V80.6001H57.3333Z" fill="#8C6F5A" stroke="black" stroke-width="0.25" stroke-miterlimit="10"/>
<path d="M69.8579 49.9448H115.249V112.487C115.249 117.194 113.379 121.708 110.051 125.036C106.723 128.364 102.209 130.234 97.5022 130.234H87.6456C82.9388 130.234 78.4248 128.364 75.0966 125.036C71.7685 121.708 69.8987 117.194 69.8987 112.487V49.9448H69.8579Z" fill="#EF6060" stroke="black" stroke-width="0.25" stroke-miterlimit="10"/>
<path d="M64.0646 150.347L75.8877 119.692C76.1978 118.876 79.3963 122.14 79.0862 122.956L68.3157 150.535C68.0546 151.204 63.7464 151.155 64.0646 150.347Z" fill="#EF6060" stroke="black" stroke-width="0.25" stroke-miterlimit="10"/>
<path d="M118.554 150.347L106.763 119.692C106.453 118.876 103.255 122.14 103.565 122.956L114.335 150.535C114.564 151.204 118.872 151.155 118.554 150.347Z" fill="#EF6060" stroke="black" stroke-width="0.25" stroke-miterlimit="10"/>
<path d="M92.5903 54.204C105.127 54.204 115.29 52.2971 115.29 49.9448C115.29 47.5925 105.127 45.6855 92.5903 45.6855C80.0536 45.6855 69.8906 47.5925 69.8906 49.9448C69.8906 52.2971 80.0536 54.204 92.5903 54.204Z" fill="#EF6060" stroke="black" stroke-width="0.25" stroke-miterlimit="10"/>
<path d="M110.982 58.8795C111.802 58.8795 112.467 58.2146 112.467 57.3944C112.467 56.5743 111.802 55.9094 110.982 55.9094C110.161 55.9094 109.497 56.5743 109.497 57.3944C109.497 58.2146 110.161 58.8795 110.982 58.8795Z" fill="#C4C4C4" stroke="black" stroke-width="0.25" stroke-miterlimit="10"/>
<path d="M110.982 63.2611C111.802 63.2611 112.467 62.5962 112.467 61.776C112.467 60.9559 111.802 60.291 110.982 60.291C110.161 60.291 109.497 60.9559 109.497 61.776C109.497 62.5962 110.161 63.2611 110.982 63.2611Z" fill="#8FFF3C" stroke="black" stroke-width="0.25" stroke-miterlimit="10"/>
<path d="M110.982 67.6429C111.802 67.6429 112.467 66.978 112.467 66.1579C112.467 65.3377 111.802 64.6729 110.982 64.6729C110.161 64.6729 109.497 65.3377 109.497 66.1579C109.497 66.978 110.161 67.6429 110.982 67.6429Z" fill="#F2D131" stroke="black" stroke-width="0.25" stroke-miterlimit="10"/>
<path d="M173.026 51.6582L168.22 41.6629V18.9061C168.22 17.1164 167.51 15.4001 166.244 14.1346C164.979 12.8691 163.262 12.1582 161.473 12.1582H94.679C92.8894 12.1582 91.173 12.8691 89.9076 14.1346C88.6421 15.4001 87.9312 17.1164 87.9312 18.9061V47.0645C87.9312 47.4806 90.1097 47.8233 92.8268 47.8233C95.5439 47.8233 97.7225 47.4806 97.7225 47.0645V23.1245C97.7135 22.8024 97.8302 22.4893 98.048 22.2517C98.2658 22.0141 98.5676 21.8706 98.8893 21.8517H157.262C157.425 21.8517 157.586 21.8837 157.737 21.9461C157.887 22.0084 158.024 22.0998 158.139 22.2149C158.254 22.3301 158.346 22.4668 158.408 22.6173C158.47 22.7678 158.503 22.929 158.503 23.0919V41.7118L153.754 51.6582V51.7235C153.876 52.1152 156.202 54.0163 163.398 54.0163C170.595 54.0163 172.928 52.1152 173.043 51.7235L173.026 51.6582Z" fill="#FF8724" stroke="black" stroke-width="0.25" stroke-miterlimit="10"/>
<path d="M159.294 41.1406C159.917 41.4036 160.573 41.5794 161.244 41.6628C161.918 41.7443 162.597 41.777 163.276 41.7607C163.956 41.7541 164.634 41.7023 165.307 41.6057C165.981 41.5078 166.644 41.3522 167.29 41.1406C166.032 41.7221 164.662 42.0201 163.276 42.0137C161.893 42.0947 160.516 41.7926 159.294 41.1406Z" fill="black"/>
<path d="M158.984 21.1254C159.624 20.9225 160.248 20.6744 160.852 20.3828C161.456 20.0891 162.052 19.7954 162.639 19.4608C163.227 19.1263 163.806 18.8081 164.377 18.4572C164.946 18.1214 165.491 17.748 166.009 17.3394C165.028 18.2592 163.931 19.0465 162.745 19.6811C161.576 20.3596 160.307 20.8471 158.984 21.1254Z" fill="black"/>
<path d="M158.617 20.4484C159.206 20.1448 159.776 19.8042 160.322 19.4285C160.869 19.045 161.407 18.6125 161.954 18.229C162.501 17.8455 162.99 17.4131 163.496 16.9398C164.002 16.4666 164.508 16.0423 164.957 15.5527C164.138 16.6293 163.181 17.5924 162.109 18.4167C161.061 19.2762 159.882 19.9622 158.617 20.4484Z" fill="black"/>
<path d="M159.261 21.7783C159.934 21.6561 160.597 21.4843 161.244 21.2643C161.872 21.0522 162.509 20.8237 163.121 20.5544C163.733 20.2852 164.361 20.0322 164.965 19.7385C165.574 19.4537 166.158 19.118 166.711 18.7349C165.675 19.6157 164.493 20.3088 163.219 20.7829C161.967 21.3406 160.628 21.6774 159.261 21.7783Z" fill="black"/>
<path d="M97.1271 21.1909C95.8511 20.732 94.6558 20.0738 93.5858 19.2408C92.4938 18.4435 91.5068 17.5113 90.6484 16.4666C91.1298 16.9398 91.6439 17.3723 92.1579 17.7965C92.672 18.2208 93.1942 18.6125 93.7409 19.0368C94.2622 19.4514 94.8071 19.8355 95.3728 20.1873C95.9332 20.5627 96.5194 20.8981 97.1271 21.1909Z" fill="black"/>
<path d="M97.6 20.538C96.4153 19.8676 95.3463 19.0108 94.4342 18.0004C93.4776 17.0254 92.6545 15.9279 91.9863 14.7366C92.378 15.2833 92.8023 15.7973 93.2429 16.3114C93.6835 16.8254 94.1241 17.315 94.5974 17.7964C95.0706 18.2778 95.5275 18.751 96.0171 19.208C96.5065 19.6949 97.036 20.1398 97.6 20.538Z" fill="black"/>
<path d="M96.7838 21.7946C94.1382 21.1422 91.7345 19.7464 89.8564 17.772C90.3625 18.2306 90.9086 18.643 91.4883 19.0041C92.0513 19.3794 92.6143 19.7384 93.2018 20.0648C93.7893 20.3912 94.3686 20.7257 94.9724 21.0276C95.5562 21.3283 96.1617 21.5847 96.7838 21.7946Z" fill="black"/>
<path d="M125.816 12.7539C125.615 14.1465 125.495 15.5496 125.457 16.956C125.486 18.3684 125.606 19.7774 125.816 21.1745C125.433 19.8002 125.227 18.3825 125.204 16.956C125.236 15.5356 125.441 14.1244 125.816 12.7539Z" fill="black"/>
<path d="M87.4418 45.8078C87.3153 45.7917 87.1874 45.8264 87.0864 45.9044C86.9855 45.9825 86.9196 46.0974 86.9033 46.224V49.0064C86.9033 49.5122 89.498 49.9202 92.6884 49.9202C95.8788 49.9202 98.4816 49.5122 98.4816 49.0064V46.4198C98.4861 46.3544 98.4775 46.2888 98.4565 46.2267C98.4355 46.1646 98.4025 46.1073 98.3593 46.058C98.316 46.0087 98.2635 45.9685 98.2047 45.9395C98.1459 45.9106 98.0819 45.8936 98.0165 45.8894C97.99 45.8813 97.9615 45.8813 97.9349 45.8894C96.2691 46.1748 94.5825 46.3221 92.8924 46.33C91.0661 46.2746 89.2454 46.1001 87.4418 45.8078Z" fill="#EF6060" stroke="black" stroke-width="0.25" stroke-miterlimit="10"/>
<path d="M24.2788 114.633H28.0811V92.0804C27.4692 92.0233 26.8409 92.0233 26.2126 92.0233C25.5665 92.0071 24.92 92.0398 24.2788 92.1212V114.633Z" fill="#E9A627" stroke="black" stroke-width="0.25" stroke-linecap="round" stroke-linejoin="round"/>
<path d="M31.2715 114.633H35.0738V93.8834C33.8493 93.3361 32.5763 92.9045 31.2715 92.5942V114.633Z" fill="#E9A627" stroke="black" stroke-width="0.25" stroke-linecap="round" stroke-linejoin="round"/>
<path d="M38.2642 114.633H42.0665V98.9098C40.9277 97.6804 39.652 96.5853 38.2642 95.646V114.633Z" fill="#E9A627" stroke="black" stroke-width="0.25" stroke-linecap="round" stroke-linejoin="round"/>
<path d="M17.2861 114.633H21.0885V92.6025C19.7821 92.9147 18.5087 93.3519 17.2861 93.9081V114.633Z" fill="#E9A627" stroke="black" stroke-width="0.25" stroke-linecap="round" stroke-linejoin="round"/>
<path d="M10.2939 114.633H14.1044V95.6787C12.7125 96.6158 11.4338 97.711 10.2939 98.9425V114.633Z" fill="#E9A627" stroke="black" stroke-width="0.25" stroke-linecap="round" stroke-linejoin="round"/>
<path d="M45.2573 103.3V114.633H47.8928V113.67C47.9009 110.047 46.9944 106.48 45.2573 103.3Z" fill="#E9A627" stroke="black" stroke-width="0.25" stroke-linecap="round" stroke-linejoin="round"/>
<path d="M7.11146 103.447C5.41356 106.587 4.52461 110.1 4.5249 113.67V114.633H7.11146V103.447Z" fill="#E9A627" stroke="black" stroke-width="0.25" stroke-linecap="round" stroke-linejoin="round"/>
<path d="M8.40897 80.0044H7.62566C6.83705 80.0044 6.19775 80.6437 6.19775 81.4323V82.2156C6.19775 83.0042 6.83705 83.6435 7.62566 83.6435H8.40897C9.19759 83.6435 9.83688 83.0042 9.83688 82.2156V81.4323C9.83688 80.6437 9.19759 80.0044 8.40897 80.0044Z" fill="#C4C4C4" stroke="black" stroke-width="0.25" stroke-miterlimit="10"/>
<path d="M13.4676 80.0044H12.6843C11.8956 80.0044 11.2563 80.6437 11.2563 81.4323V82.2156C11.2563 83.0042 11.8956 83.6435 12.6843 83.6435H13.4676C14.2562 83.6435 14.8955 83.0042 14.8955 82.2156V81.4323C14.8955 80.6437 14.2562 80.0044 13.4676 80.0044Z" fill="#8FFF3C" stroke="black" stroke-width="0.25" stroke-miterlimit="10"/>
<path d="M18.5266 80.0044H17.7433C16.9547 80.0044 16.3154 80.6437 16.3154 81.4323V82.2156C16.3154 83.0042 16.9547 83.6435 17.7433 83.6435H18.5266C19.3153 83.6435 19.9546 83.0042 19.9546 82.2156V81.4323C19.9546 80.6437 19.3153 80.0044 18.5266 80.0044Z" fill="#C4C4C4" stroke="black" stroke-width="0.25" stroke-miterlimit="10"/>
<path d="M23.5857 80.0044H22.8024C22.0138 80.0044 21.3745 80.6437 21.3745 81.4323V82.2156C21.3745 83.0042 22.0138 83.6435 22.8024 83.6435H23.5857C24.3743 83.6435 25.0136 83.0042 25.0136 82.2156V81.4323C25.0136 80.6437 24.3743 80.0044 23.5857 80.0044Z" fill="#F2D131" stroke="black" stroke-width="0.25" stroke-miterlimit="10"/>
<path d="M28.6443 80.0044H27.861C27.0724 80.0044 26.4331 80.6437 26.4331 81.4323V82.2156C26.4331 83.0042 27.0724 83.6435 27.861 83.6435H28.6443C29.4329 83.6435 30.0722 83.0042 30.0722 82.2156V81.4323C30.0722 80.6437 29.4329 80.0044 28.6443 80.0044Z" fill="#C4C4C4" stroke="black" stroke-width="0.25" stroke-miterlimit="10"/>
<path d="M33.7029 80.0044H32.9196C32.131 80.0044 31.4917 80.6437 31.4917 81.4323V82.2156C31.4917 83.0042 32.131 83.6435 32.9196 83.6435H33.7029C34.4915 83.6435 35.1308 83.0042 35.1308 82.2156V81.4323C35.1308 80.6437 34.4915 80.0044 33.7029 80.0044Z" fill="#F2D131" stroke="black" stroke-width="0.25" stroke-miterlimit="10"/>
<path d="M38.762 80.0044H37.9787C37.1901 80.0044 36.5508 80.6437 36.5508 81.4323V82.2156C36.5508 83.0042 37.1901 83.6435 37.9787 83.6435H38.762C39.5506 83.6435 40.1899 83.0042 40.1899 82.2156V81.4323C40.1899 80.6437 39.5506 80.0044 38.762 80.0044Z" fill="#C4C4C4" stroke="black" stroke-width="0.25" stroke-miterlimit="10"/>
<path d="M43.8211 80.0044H43.0378C42.2492 80.0044 41.6099 80.6437 41.6099 81.4323V82.2156C41.6099 83.0042 42.2492 83.6435 43.0378 83.6435H43.8211C44.6097 83.6435 45.249 83.0042 45.249 82.2156V81.4323C45.249 80.6437 44.6097 80.0044 43.8211 80.0044Z" fill="#C4C4C4" stroke="black" stroke-width="0.25" stroke-miterlimit="10"/>
<path d="M8.40897 85.0635H7.62566C6.83705 85.0635 6.19775 85.7028 6.19775 86.4914V87.2747C6.19775 88.0633 6.83705 88.7026 7.62566 88.7026H8.40897C9.19759 88.7026 9.83688 88.0633 9.83688 87.2747V86.4914C9.83688 85.7028 9.19759 85.0635 8.40897 85.0635Z" fill="#C4C4C4" stroke="black" stroke-width="0.25" stroke-miterlimit="10"/>
<path d="M13.4676 85.0635H12.6843C11.8956 85.0635 11.2563 85.7028 11.2563 86.4914V87.2747C11.2563 88.0633 11.8956 88.7026 12.6843 88.7026H13.4676C14.2562 88.7026 14.8955 88.0633 14.8955 87.2747V86.4914C14.8955 85.7028 14.2562 85.0635 13.4676 85.0635Z" fill="#F2D131" stroke="black" stroke-width="0.25" stroke-miterlimit="10"/>
<path d="M18.5266 85.0635H17.7433C16.9547 85.0635 16.3154 85.7028 16.3154 86.4914V87.2747C16.3154 88.0633 16.9547 88.7026 17.7433 88.7026H18.5266C19.3153 88.7026 19.9546 88.0633 19.9546 87.2747V86.4914C19.9546 85.7028 19.3153 85.0635 18.5266 85.0635Z" fill="#F2D131" stroke="black" stroke-width="0.25" stroke-miterlimit="10"/>
<path d="M23.5857 85.0635H22.8024C22.0138 85.0635 21.3745 85.7028 21.3745 86.4914V87.2747C21.3745 88.0633 22.0138 88.7026 22.8024 88.7026H23.5857C24.3743 88.7026 25.0136 88.0633 25.0136 87.2747V86.4914C25.0136 85.7028 24.3743 85.0635 23.5857 85.0635Z" fill="#DA0000" stroke="black" stroke-width="0.25" stroke-miterlimit="10"/>
<path d="M28.6443 85.0635H27.861C27.0724 85.0635 26.4331 85.7028 26.4331 86.4914V87.2747C26.4331 88.0633 27.0724 88.7026 27.861 88.7026H28.6443C29.4329 88.7026 30.0722 88.0633 30.0722 87.2747V86.4914C30.0722 85.7028 29.4329 85.0635 28.6443 85.0635Z" fill="#C4C4C4" stroke="black" stroke-width="0.25" stroke-miterlimit="10"/>
<path d="M33.7029 85.0635H32.9196C32.131 85.0635 31.4917 85.7028 31.4917 86.4914V87.2747C31.4917 88.0633 32.131 88.7026 32.9196 88.7026H33.7029C34.4915 88.7026 35.1308 88.0633 35.1308 87.2747V86.4914C35.1308 85.7028 34.4915 85.0635 33.7029 85.0635Z" fill="#8FFF3C" stroke="black" stroke-width="0.25" stroke-miterlimit="10"/>
<path d="M38.762 85.0635H37.9787C37.1901 85.0635 36.5508 85.7028 36.5508 86.4914V87.2747C36.5508 88.0633 37.1901 88.7026 37.9787 88.7026H38.762C39.5506 88.7026 40.1899 88.0633 40.1899 87.2747V86.4914C40.1899 85.7028 39.5506 85.0635 38.762 85.0635Z" fill="#C4C4C4" stroke="black" stroke-width="0.25" stroke-miterlimit="10"/>
<path d="M43.8211 85.0635H43.0378C42.2492 85.0635 41.6099 85.7028 41.6099 86.4914V87.2747C41.6099 88.0633 42.2492 88.7026 43.0378 88.7026H43.8211C44.6097 88.7026 45.249 88.0633 45.249 87.2747V86.4914C45.249 85.7028 44.6097 85.0635 43.8211 85.0635Z" fill="#C4C4C4" stroke="black" stroke-width="0.25" stroke-miterlimit="10"/>
<path d="M95.1442 86.2219H88.0617C81.0453 86.2219 75.3574 91.9098 75.3574 98.9262V106.612C75.3574 113.629 81.0453 119.317 88.0617 119.317H95.1442C102.161 119.317 107.848 113.629 107.848 106.612V98.9262C107.848 91.9098 102.161 86.2219 95.1442 86.2219Z" fill="#BAE3FD" stroke="black" stroke-width="0.25" stroke-miterlimit="10"/>
<path d="M100.595 114.486C100.595 115.151 100.368 115.797 99.95 116.314C99.7277 116.58 99.4474 116.792 99.1307 116.934C98.8139 117.075 98.469 117.142 98.1223 117.13C97.449 117.076 96.8179 116.78 96.3455 116.297C95.8731 115.814 95.5913 115.177 95.5521 114.503C95.532 114.159 95.5833 113.815 95.7027 113.492C95.822 113.169 96.0069 112.874 96.2456 112.626C96.4844 112.367 96.7746 112.16 97.0978 112.02C97.421 111.879 97.7699 111.808 98.1223 111.81C98.4694 111.804 98.8136 111.873 99.1308 112.014C99.448 112.155 99.7304 112.364 99.9582 112.626C100.385 113.151 100.61 113.81 100.595 114.486ZM100.595 114.486C100.585 114.171 100.507 113.862 100.366 113.58C100.226 113.299 100.025 113.051 99.7787 112.854C99.3214 112.471 98.7438 112.26 98.1468 112.259C97.5408 112.251 96.9556 112.479 96.5149 112.895C96.0699 113.326 95.8046 113.909 95.7724 114.527C95.7522 114.838 95.8001 115.149 95.9129 115.44C96.0256 115.73 96.2005 115.992 96.4251 116.208C96.6512 116.414 96.9167 116.573 97.2055 116.673C97.4944 116.774 97.8007 116.816 98.106 116.795C98.7041 116.763 99.276 116.54 99.7379 116.159C99.9921 115.961 100.198 115.707 100.339 115.417C100.48 115.127 100.554 114.809 100.554 114.486H100.595Z" fill="#445965"/>
<path d="M95.6743 107.869C95.6826 108.309 95.5449 108.739 95.2827 109.093C95.1371 109.276 94.9502 109.421 94.7375 109.518C94.5247 109.614 94.2921 109.659 94.0587 109.648C93.605 109.602 93.1855 109.386 92.8838 109.044C92.5754 108.725 92.3853 108.311 92.3452 107.869C92.3298 107.641 92.36 107.413 92.4341 107.197C92.5082 106.981 92.6246 106.782 92.7766 106.612C92.9287 106.442 93.1132 106.303 93.3193 106.205C93.5255 106.107 93.7491 106.052 93.9771 106.041H94.1403C94.3783 106.041 94.6132 106.095 94.8268 106.199C95.0405 106.304 95.2271 106.457 95.3724 106.645C95.6069 107.008 95.7132 107.439 95.6743 107.869ZM95.6743 107.869C95.6696 107.667 95.6177 107.469 95.5228 107.29C95.4279 107.112 95.2926 106.958 95.1276 106.841C94.8292 106.623 94.4691 106.506 94.0995 106.506C93.7285 106.511 93.3722 106.653 93.0995 106.904C92.8268 107.156 92.6569 107.5 92.6227 107.869C92.6028 108.067 92.6284 108.267 92.6977 108.454C92.767 108.641 92.8781 108.809 93.0225 108.946C93.1677 109.075 93.339 109.172 93.5248 109.23C93.7105 109.288 93.9065 109.305 94.0995 109.281C94.4736 109.256 94.833 109.126 95.1358 108.905C95.2914 108.781 95.417 108.623 95.5032 108.444C95.5894 108.265 95.6339 108.068 95.6335 107.869H95.6743Z" fill="#445965"/>
<path d="M87.6783 108.709C87.6807 109.209 87.5203 109.696 87.2214 110.097C87.0569 110.303 86.8448 110.467 86.6032 110.573C86.3616 110.68 86.0978 110.726 85.8343 110.708C85.3199 110.668 84.8406 110.432 84.4961 110.048C84.1461 109.685 83.9327 109.212 83.8923 108.709C83.8609 108.198 84.0329 107.695 84.3706 107.31C84.7083 106.925 85.1846 106.689 85.6956 106.653H85.8343C86.1007 106.65 86.3643 106.707 86.6048 106.822C86.8454 106.937 87.0563 107.105 87.2214 107.314C87.5253 107.715 87.6861 108.206 87.6783 108.709ZM87.6783 108.709C87.6719 108.478 87.6135 108.25 87.5076 108.044C87.4017 107.838 87.2509 107.658 87.0664 107.518C86.7247 107.255 86.3062 107.112 85.8751 107.11C85.4364 107.114 85.0157 107.285 84.6987 107.588C84.3818 107.891 84.1926 108.304 84.1697 108.742C84.1491 108.97 84.1802 109.201 84.2607 109.415C84.3412 109.63 84.4691 109.824 84.6348 109.982C84.803 110.131 84.9999 110.243 85.2133 110.311C85.4267 110.38 85.652 110.404 85.8751 110.382C86.308 110.354 86.7228 110.198 87.0664 109.933C87.2477 109.786 87.3933 109.599 87.4922 109.387C87.5912 109.175 87.6408 108.943 87.6375 108.709H87.6783Z" fill="#445965"/>
<path d="M84.3569 101.815C84.3652 102.255 84.2275 102.685 83.9653 103.038C83.8197 103.221 83.6328 103.367 83.4201 103.463C83.2073 103.56 82.9747 103.604 82.7413 103.593C82.2876 103.547 81.8681 103.332 81.5664 102.99C81.258 102.671 81.0679 102.256 81.0279 101.815C81.0124 101.587 81.0426 101.358 81.1167 101.142C81.1908 100.927 81.3072 100.728 81.4593 100.557C81.6113 100.387 81.7958 100.249 82.0019 100.151C82.2081 100.053 82.4317 99.9972 82.6598 99.9868H82.8229C83.0592 99.991 83.2917 100.046 83.5044 100.149C83.7172 100.252 83.905 100.4 84.055 100.582C84.2873 100.949 84.3933 101.382 84.3569 101.815ZM84.3569 101.815C84.3503 101.613 84.2976 101.415 84.2029 101.237C84.1081 101.059 83.9738 100.905 83.8102 100.786C83.5118 100.568 83.1517 100.451 82.7821 100.452C82.4111 100.456 82.0549 100.598 81.7821 100.85C81.5094 101.101 81.3395 101.445 81.3053 101.815C81.2854 102.013 81.311 102.213 81.3803 102.399C81.4496 102.586 81.5607 102.754 81.7051 102.892C81.8527 103.017 82.0243 103.112 82.2094 103.169C82.3945 103.227 82.5893 103.246 82.7821 103.226C83.1569 103.199 83.5163 103.066 83.8184 102.843C83.973 102.719 84.0979 102.563 84.184 102.385C84.2702 102.207 84.3153 102.012 84.3161 101.815H84.3569Z" fill="#445965"/>
<path d="M86.9926 96.103C86.9974 96.4204 86.9095 96.7323 86.7397 97.0005C86.6361 97.1387 86.4999 97.249 86.3433 97.3216C86.1867 97.3942 86.0145 97.4269 85.8421 97.4166C85.5229 97.3653 85.233 97.2001 85.0262 96.9516C84.8066 96.7311 84.6661 96.4442 84.6264 96.1356C84.6106 95.9722 84.6273 95.8072 84.6754 95.6502C84.7235 95.4932 84.8021 95.3473 84.9067 95.2207C85.0113 95.0941 85.1398 94.9894 85.2849 94.9126C85.43 94.8358 85.5889 94.7883 85.7524 94.773H85.8748C86.0509 94.7718 86.2246 94.8136 86.381 94.8946C86.5374 94.9757 86.6717 95.0935 86.7723 95.2381C86.9294 95.4984 87.006 95.7993 86.9926 96.103ZM86.9926 96.103C86.9858 95.9619 86.9452 95.8245 86.8742 95.7023C86.8032 95.5802 86.7039 95.477 86.5846 95.4013C86.3733 95.2723 86.1304 95.2045 85.8829 95.2054C85.6347 95.2091 85.3961 95.3017 85.2104 95.4664C85.0247 95.6311 84.9043 95.857 84.8711 96.103C84.8471 96.24 84.8584 96.3809 84.9041 96.5123C84.9498 96.6436 85.0283 96.7611 85.1322 96.8536C85.2356 96.9389 85.3563 97.0005 85.486 97.0343C85.6156 97.0682 85.7511 97.0733 85.8829 97.0495C86.1325 97.0229 86.3727 96.9392 86.5846 96.8047C86.6989 96.7276 86.7917 96.6228 86.8545 96.5001C86.9173 96.3773 86.948 96.2407 86.9437 96.103H86.9926Z" fill="#445965"/>
<path d="M97.4041 88.4576C97.1333 88.3921 96.8491 88.4091 96.5881 88.5065C96.308 88.6786 96.1076 88.9549 96.0311 89.2747C95.9546 89.5945 96.0082 89.9316 96.1802 90.2119C96.5784 90.7519 97.0805 91.2068 97.657 91.55C100.007 93.3043 101.312 96.1601 101.867 99.0323C102.295 101.92 102.505 104.836 102.496 107.755C102.496 108.456 102.757 109.387 103.45 109.387C104.348 109.444 104.07 98.5101 103.336 95.5155C102.406 91.8438 100.113 89.0859 97.4041 88.4576Z" fill="white"/>
<path d="M98.8972 101.815C98.9068 102.134 98.8154 102.448 98.6361 102.712C98.5336 102.852 98.3976 102.963 98.2407 103.036C98.0838 103.108 97.9111 103.14 97.7386 103.129C97.4194 103.077 97.1295 102.912 96.9227 102.663C96.7121 102.437 96.573 102.153 96.5228 101.847C96.5071 101.684 96.5238 101.519 96.5719 101.362C96.62 101.205 96.6985 101.059 96.8031 100.933C96.9077 100.806 97.0363 100.701 97.1814 100.624C97.3265 100.548 97.4854 100.5 97.6488 100.485H97.7712C97.9484 100.484 98.123 100.527 98.2806 100.607C98.4381 100.688 98.5741 100.806 98.6769 100.95C98.834 101.21 98.9107 101.511 98.8972 101.815ZM98.8483 101.815C98.8474 101.672 98.8093 101.533 98.7378 101.41C98.6662 101.287 98.5636 101.184 98.4403 101.113C98.2305 100.981 97.9866 100.913 97.7386 100.917C97.4904 100.921 97.2518 101.014 97.0661 101.178C96.8804 101.343 96.76 101.569 96.7268 101.815C96.7072 101.952 96.7206 102.091 96.766 102.222C96.8115 102.353 96.8876 102.47 96.9879 102.566C97.092 102.65 97.2125 102.712 97.3418 102.747C97.471 102.782 97.6062 102.79 97.7386 102.77C97.9901 102.735 98.2317 102.649 98.4485 102.517C98.5703 102.444 98.6712 102.342 98.7413 102.219C98.8114 102.096 98.8483 101.956 98.8483 101.815Z" fill="#445965"/>
<path d="M107.342 82.5584C107.345 82.8038 107.255 83.0412 107.09 83.2228C106.925 83.4045 106.698 83.5169 106.453 83.5375C104.617 83.6926 100.154 84.0353 94.8502 84.1985C80.514 84.6391 74.8432 83.4804 73.04 82.9501C72.8366 82.8905 72.6578 82.7672 72.53 82.5982C72.4021 82.4292 72.3321 82.2236 72.3301 82.0117V63.0164C72.3322 62.8889 72.3594 62.7631 72.4102 62.6461C72.461 62.5291 72.5343 62.4233 72.626 62.3346C72.7177 62.2459 72.8259 62.1762 72.9445 62.1294C73.0632 62.0826 73.1899 62.0596 73.3174 62.0618C73.3769 62.0536 73.4373 62.0536 73.4969 62.0618C75.6673 62.4942 81.4116 63.2612 95.144 63.2612C101.264 63.2612 104.74 63.1062 106.314 63.0164C106.442 63.0087 106.57 63.0263 106.69 63.068C106.811 63.1098 106.923 63.175 107.018 63.2599C107.114 63.3448 107.191 63.4478 107.247 63.5628C107.303 63.6778 107.335 63.8027 107.342 63.9303V82.5584Z" fill="white" stroke="black" stroke-width="0.25" stroke-miterlimit="10"/>
<path d="M81.4688 72.2529C81.3382 72.2529 81.2403 72.1713 81.1832 71.9917C81.1446 71.8495 81.1147 71.7051 81.0934 71.5593L80.9955 71.1595L79.1433 71.3064L78.9801 71.8286C78.937 71.9089 78.8719 71.9753 78.7924 72.0201C78.713 72.0649 78.6224 72.0862 78.5313 72.0815C78.4864 72.0831 78.4417 72.0744 78.4007 72.056C78.3597 72.0376 78.3234 72.01 78.2947 71.9754C78.263 71.9431 78.2381 71.9048 78.2213 71.8628C78.2045 71.8208 78.1962 71.7759 78.1968 71.7306C78.2147 71.57 78.2768 71.4175 78.3763 71.29C78.6606 70.7612 78.9139 70.2163 79.1352 69.6581C79.3894 69.1183 79.5916 68.5555 79.739 67.9773C79.7472 67.8287 79.7803 67.6825 79.8369 67.5448C79.8684 67.4782 79.9164 67.4207 79.9764 67.3779C80.0364 67.3351 80.1063 67.3083 80.1796 67.3H80.3264C80.4016 67.3011 80.474 67.3287 80.5307 67.378C80.5875 67.4273 80.6249 67.495 80.6365 67.5693C80.6511 67.6821 80.6729 67.7938 80.7018 67.9039C80.735 68.1515 80.7841 68.3968 80.8486 68.6382C81.0118 69.2746 81.224 69.9682 81.4851 70.727C81.5422 70.8902 81.6156 71.0616 81.7054 71.2574C81.8025 71.3916 81.8617 71.5494 81.8767 71.7143C81.8772 71.8381 81.8433 71.9595 81.7788 72.0652C81.7491 72.1217 81.7045 72.1691 81.6499 72.2022C81.5953 72.2352 81.5326 72.2528 81.4688 72.2529ZM80.816 70.5067C80.5875 69.6908 80.3836 69.0543 80.2122 68.5566C79.9031 69.2267 79.6307 69.9131 79.3963 70.6128L80.816 70.5067Z" fill="black"/>
<path d="M86.2424 71.1514C86.2342 71.2328 86.2342 71.3148 86.2424 71.3962V71.641C86.2393 71.7722 86.1869 71.8975 86.0955 71.9918C86.0546 72.0407 86.0034 72.08 85.9456 72.1068C85.8878 72.1336 85.8247 72.1473 85.761 72.1469C85.717 72.1507 85.6727 72.1429 85.6326 72.1243C85.5925 72.1057 85.558 72.0769 85.5325 72.0408C85.4822 71.9606 85.462 71.8652 85.4754 71.7715C84.7967 70.7113 84.0002 69.7314 83.101 68.8504C83.0031 69.7969 82.9541 70.5476 82.9541 71.0943C82.9458 71.1893 82.9458 71.2849 82.9541 71.3799C82.9623 71.4776 82.9623 71.5759 82.9541 71.6736C82.9522 71.8066 82.8996 71.9337 82.8071 72.0293C82.7147 72.1248 82.5892 72.1814 82.4564 72.1877C82.4129 72.1875 82.37 72.1779 82.3306 72.1596C82.2911 72.1413 82.2561 72.1147 82.2279 72.0816C82.1703 72.0162 82.1384 71.9321 82.1382 71.845C82.1445 71.7397 82.1637 71.6355 82.1953 71.5349C82.2634 71.1738 82.307 70.8085 82.3258 70.4415C82.383 69.6827 82.4156 69.0789 82.4156 68.622C82.4238 68.4915 82.4238 68.3607 82.4156 68.2303C82.4074 68.1489 82.4074 68.0669 82.4156 67.9855C82.4164 67.9121 82.432 67.8395 82.4614 67.7722C82.4908 67.705 82.5335 67.6443 82.587 67.5939C82.6317 67.5373 82.6888 67.4918 82.7538 67.4607C82.8189 67.4295 82.8902 67.4137 82.9623 67.4144C82.9955 67.4121 83.0289 67.4165 83.0604 67.4272C83.0919 67.4379 83.1211 67.4548 83.1461 67.4767C83.1711 67.4987 83.1915 67.5254 83.2062 67.5553C83.2209 67.5852 83.2295 67.6177 83.2316 67.651C84.139 68.5972 84.9583 69.6241 85.6794 70.7189C85.7447 69.8377 85.7773 69.0871 85.7773 68.5567C85.7855 68.4344 85.7855 68.3118 85.7773 68.1895C85.7691 68.1027 85.7691 68.0153 85.7773 67.9284C85.7805 67.7899 85.8325 67.657 85.9242 67.5531C85.962 67.4971 86.0131 67.4514 86.0729 67.4201C86.1327 67.3888 86.1994 67.3728 86.2669 67.3736C86.4709 67.3736 86.5769 67.4878 86.5769 67.7163C86.5687 67.8612 86.5523 68.0056 86.528 68.1487C86.5188 68.3079 86.497 68.4662 86.4627 68.622C86.3199 69.4576 86.2462 70.3036 86.2424 71.1514Z" fill="black"/>
<path d="M88.0537 71.1104C88.0454 71.2055 88.0454 71.301 88.0537 71.396V71.6816C88.0493 71.8142 87.9937 71.9399 87.8987 72.0325C87.854 72.081 87.7997 72.1198 87.7394 72.1464C87.679 72.1731 87.6138 72.1871 87.5478 72.1875C87.4631 72.1876 87.3814 72.1555 87.3194 72.0977C87.2859 72.0703 87.2595 72.0353 87.2425 71.9955C87.2254 71.9557 87.2182 71.9124 87.2215 71.8693C87.2294 71.76 87.2541 71.6527 87.2949 71.5511C87.3958 71.0839 87.4558 70.6089 87.4744 70.1313C87.4744 69.5275 87.5397 69.0379 87.5397 68.6544C87.556 68.5162 87.556 68.3765 87.5397 68.2383C87.5155 68.1502 87.4991 68.0601 87.4907 67.969C87.4928 67.8261 87.5499 67.6894 87.6502 67.5876C87.7506 67.4857 87.8863 67.4266 88.0292 67.4224C88.2251 67.4224 88.3311 67.5366 88.3311 67.7814C88.3393 67.8382 88.3393 67.8959 88.3311 67.9527C88.137 68.9939 88.0441 70.0514 88.0537 71.1104Z" fill="black"/>
<path d="M94.2059 71.6246C94.1978 71.7539 94.1427 71.8758 94.0508 71.9673C94.0061 72.0158 93.9519 72.0546 93.8915 72.0812C93.8312 72.1079 93.766 72.1219 93.7 72.1223C93.6524 72.1258 93.6047 72.1181 93.5608 72.0996C93.5168 72.0812 93.4778 72.0526 93.447 72.0162C93.3824 71.9384 93.3476 71.84 93.3491 71.7388C93.3491 71.4858 93.3491 71.2329 93.4062 70.98C93.4062 70.4578 93.4063 69.8784 93.3573 69.2338C93.2104 69.4868 93.0146 69.8866 92.7698 70.4251C92.525 70.9636 92.321 71.3961 92.1905 71.6246L91.9783 72.0081C91.8641 72.1794 91.758 72.261 91.6601 72.261C91.6014 72.2774 91.5393 72.2774 91.4806 72.261C91.3737 72.219 91.2825 72.1449 91.2195 72.0489C91.1694 71.9447 91.1311 71.8352 91.1053 71.7225C91.0741 71.5828 91.0304 71.4463 90.9747 71.3145C90.9094 71.1187 90.7789 70.6536 90.6157 70.1232C90.4848 69.7294 90.321 69.3473 90.1261 68.9809C89.9375 69.8506 89.8256 70.7352 89.7916 71.6246C89.7897 71.7673 89.7343 71.9041 89.6366 72.0081C89.5911 72.0612 89.5349 72.1039 89.4715 72.1335C89.4082 72.1631 89.3393 72.1787 89.2694 72.1794C89.2314 72.1826 89.1931 72.1769 89.1577 72.1628C89.1223 72.1486 89.0907 72.1264 89.0654 72.0978C89.0367 72.0709 89.0144 72.0378 89.0003 72.0011C88.9862 71.9643 88.9805 71.9249 88.9838 71.8857C89.0054 71.7164 89.0437 71.5497 89.098 71.3879C89.1796 71.0697 89.2286 70.8902 89.2368 70.8413C89.3102 70.4659 89.3918 69.9763 89.4734 69.3807C89.5293 69.035 89.5647 68.6862 89.5795 68.3363V68.1894C89.5712 68.1408 89.5712 68.0912 89.5795 68.0425C89.5779 67.9651 89.5923 67.8882 89.6217 67.8166C89.6512 67.745 89.6952 67.6803 89.7508 67.6264C89.7984 67.5684 89.8582 67.5216 89.9258 67.4892C89.9935 67.4568 90.0674 67.4395 90.1425 67.4387C90.3056 67.4387 90.3954 67.5367 90.3954 67.7406C90.7047 68.2937 90.9588 68.8758 91.1542 69.4786C91.2766 69.8866 91.4725 70.4904 91.7336 71.2982L93.2186 67.9773C93.2157 67.9055 93.2272 67.8339 93.2524 67.7666C93.2777 67.6993 93.3161 67.6378 93.3654 67.5856C93.4059 67.5279 93.4596 67.4807 93.5221 67.4481C93.5846 67.4154 93.654 67.3982 93.7245 67.3979C93.9611 67.3979 94.0753 67.5285 94.0753 67.7978V68.8095C94.0438 69.7129 94.0984 70.6173 94.2385 71.5103C94.2385 71.5103 94.214 71.5838 94.2059 71.6246Z" fill="black"/>
<path d="M97.9264 72.2527C97.7958 72.2527 97.7061 72.1712 97.649 71.9916C97.6077 71.8496 97.575 71.7052 97.5511 71.5592L97.4613 71.1594L95.6091 71.3063L95.4377 71.8285C95.396 71.9081 95.3323 71.9743 95.2543 72.0191C95.1762 72.0639 95.087 72.0855 94.9971 72.0814C94.9048 72.0797 94.8168 72.0415 94.7524 71.9753C94.6941 71.9071 94.6623 71.8202 94.6626 71.7305C94.6777 71.5706 94.737 71.418 94.8339 71.2899C95.1208 70.7612 95.3769 70.2163 95.6009 69.658C95.8526 69.118 96.052 68.5552 96.1966 67.9772C96.2116 67.8314 96.2473 67.6886 96.3027 67.5529C96.3342 67.4863 96.3822 67.4288 96.4422 67.386C96.5022 67.3431 96.5721 67.3163 96.6454 67.3081H96.7841C96.8592 67.3091 96.9316 67.3367 96.9883 67.386C97.0451 67.4353 97.0826 67.5031 97.0941 67.5774C97.1245 67.687 97.1463 67.7989 97.1594 67.9119C97.1926 68.1596 97.2417 68.4049 97.3063 68.6463C97.4695 69.2827 97.6898 69.9763 97.9509 70.7351C98.0095 70.9165 98.0804 71.0936 98.163 71.2655C98.2601 71.3996 98.3193 71.5574 98.3344 71.7224C98.3335 71.8449 98.3027 71.9654 98.2446 72.0732C98.2132 72.1295 98.1668 72.176 98.1107 72.2077C98.0546 72.2393 97.9908 72.2549 97.9264 72.2527ZM97.2818 70.5066C97.0533 69.6907 96.8493 69.0542 96.678 68.5565C96.3689 69.2266 96.0965 69.913 95.862 70.6127L97.2818 70.5066Z" fill="black"/>
<path d="M101.492 72.0081H100.864C100.537 72.0081 99.9418 72.0489 99.0769 72.1305C98.9964 72.1904 98.8997 72.2245 98.7995 72.2284C98.7273 72.2381 98.6541 72.2198 98.595 72.1774C98.5358 72.1349 98.4952 72.0714 98.4812 72C98.4731 71.9734 98.4731 71.945 98.4812 71.9184C98.4815 71.8104 98.498 71.7032 98.5302 71.6002C98.7163 70.6354 98.793 69.6528 98.7587 68.6709C98.7668 68.5432 98.7668 68.4151 98.7587 68.2874C98.7424 68.2039 98.7424 68.118 98.7587 68.0345C98.7576 67.8927 98.81 67.7557 98.9055 67.651C98.9469 67.5948 99.001 67.5492 99.0634 67.518C99.1258 67.4867 99.1948 67.4708 99.2645 67.4715C99.4685 67.4715 99.5746 67.5857 99.5746 67.806C99.5825 67.871 99.5825 67.9368 99.5746 68.0018C99.4848 68.5419 99.4276 69.0868 99.4033 69.6337C99.3489 70.417 99.3244 70.8821 99.3298 71.029C99.3217 71.1703 99.3217 71.312 99.3298 71.4533H100.325C100.652 71.4477 100.977 71.4094 101.296 71.3391C101.359 71.3309 101.422 71.3309 101.484 71.3391C101.604 71.3484 101.717 71.4004 101.802 71.4857C101.888 71.571 101.94 71.6839 101.949 71.8041C101.9 71.8782 101.831 71.9367 101.75 71.9728C101.669 72.009 101.58 72.0212 101.492 72.0081Z" fill="black"/>
<path d="M78.8334 77.8993C78.8169 78.1679 78.7235 78.4261 78.5644 78.6431C78.4052 78.8601 78.1871 79.0268 77.9359 79.1233C77.453 79.3785 76.9154 79.5129 76.3693 79.5149C75.5533 79.5149 75.1616 79.3028 75.1616 78.8621C75.1583 78.8087 75.1685 78.7552 75.1913 78.7067C75.2141 78.6582 75.2488 78.6162 75.2922 78.5847C75.3807 78.5165 75.4906 78.4818 75.6023 78.4868C75.6873 78.4853 75.7714 78.5049 75.847 78.5439L76.0837 78.6582C76.2418 78.7084 76.4075 78.7304 76.5732 78.7234C76.8884 78.7223 77.2017 78.6756 77.5034 78.5847C77.9277 78.4623 78.1317 78.2747 78.1317 78.038C78.1399 77.9949 78.1399 77.9506 78.1317 77.9075C78.0746 77.7117 77.7482 77.524 77.1607 77.3282L75.9613 76.9528C75.7403 76.8892 75.5289 76.7958 75.333 76.6754C75.2367 76.6161 75.157 76.5334 75.1013 76.4349C75.0457 76.3365 75.0159 76.2255 75.0148 76.1124C75.0112 75.8861 75.083 75.6651 75.2188 75.4841C75.3458 75.2943 75.524 75.1443 75.7328 75.0517C76.3923 74.7175 77.1156 74.5283 77.8543 74.4968C77.9381 74.4969 78.0209 74.5152 78.097 74.5504C78.1731 74.5856 78.2406 74.637 78.2949 74.7008C78.4179 74.8213 78.4883 74.9856 78.4907 75.1577C78.4913 75.2212 78.4794 75.2841 78.4556 75.3429C78.4318 75.4018 78.3966 75.4553 78.352 75.5004C78.3136 75.5481 78.2652 75.5867 78.2102 75.6135C78.1552 75.6403 78.095 75.6546 78.0338 75.6555C77.8972 75.6475 77.7676 75.5928 77.6666 75.5004C77.5511 75.4057 77.4079 75.3513 77.2586 75.3454C76.9968 75.3548 76.7369 75.3931 76.4835 75.4596C76.0755 75.5576 75.8797 75.68 75.8797 75.8268C75.8797 75.9737 76.0755 76.1287 76.4753 76.2511C78.0664 76.7488 78.8334 77.2547 78.8334 77.8993Z" fill="black"/>
<path d="M83.8187 76.7486C83.8282 77.4283 83.5871 78.0876 83.1415 78.6008C82.9285 78.8591 82.6604 79.0664 82.3568 79.2076C82.0533 79.3488 81.722 79.4203 81.3872 79.4168C81.1193 79.4202 80.8541 79.3632 80.6111 79.2503C80.3682 79.1373 80.1538 78.9711 79.9838 78.764C79.6331 78.3495 79.4447 77.8219 79.4534 77.279C79.4457 76.5972 79.6864 75.9359 80.1306 75.4186C80.3437 75.1604 80.6118 74.9531 80.9153 74.8119C81.2189 74.6707 81.5502 74.5992 81.8849 74.6027C82.1549 74.5991 82.4221 74.6567 82.6666 74.7711C82.9111 74.8856 83.1264 75.054 83.2965 75.2636C83.6436 75.6797 83.829 76.2069 83.8187 76.7486ZM83.2149 76.6834C83.2228 76.3523 83.103 76.0309 82.8804 75.7858C82.7726 75.6642 82.639 75.5681 82.4894 75.5046C82.3398 75.4411 82.1779 75.4117 82.0155 75.4186C81.755 75.4192 81.4975 75.4747 81.2599 75.5816C81.0222 75.6884 80.8098 75.8442 80.6365 76.0388C80.4478 76.217 80.2976 76.4321 80.1951 76.6707C80.0927 76.9092 80.0402 77.1663 80.0409 77.4259C80.0333 77.5915 80.0589 77.7571 80.1164 77.9126C80.1739 78.0682 80.2619 78.2107 80.3754 78.3316C80.486 78.4491 80.6203 78.5419 80.7694 78.6038C80.9185 78.6657 81.079 78.6953 81.2403 78.6906C81.4995 78.6862 81.7551 78.6298 81.992 78.5246C82.2288 78.4195 82.4422 78.2678 82.6193 78.0786C82.8079 77.8934 82.9576 77.6724 83.0599 77.4287C83.1622 77.1849 83.2149 76.9232 83.2149 76.6589V76.6834Z" fill="black"/>
<path d="M87.8089 78.3808V78.8622C87.7991 78.9959 87.7445 79.1224 87.6539 79.2212C87.6076 79.2699 87.552 79.3088 87.4903 79.3354C87.4286 79.3621 87.3621 79.3759 87.2949 79.3762C87.2494 79.3762 87.2045 79.366 87.1635 79.3462C87.1225 79.3264 87.0865 79.2976 87.0583 79.262C87.008 79.1818 86.9877 79.0864 87.0011 78.9927L85.9404 79.3028C85.6013 79.4106 85.2508 79.4791 84.896 79.5068C84.8179 79.515 84.7391 79.5 84.6695 79.4637C84.5998 79.4275 84.5424 79.3715 84.5043 79.3028C84.4472 79.1604 84.4221 79.0072 84.4309 78.854C84.4309 78.3481 84.488 77.4914 84.5941 76.2838C84.5956 76.0538 84.6175 75.8245 84.6594 75.5984V75.4352C84.6512 75.3811 84.6512 75.3261 84.6594 75.272C84.6569 75.1127 84.7087 74.9573 84.8062 74.8314C84.844 74.7643 84.8983 74.7081 84.964 74.6681C85.0298 74.6281 85.1047 74.6056 85.1816 74.6029C85.3611 74.6029 85.4508 74.7008 85.4508 74.8967C85.459 74.978 85.459 75.06 85.4508 75.1414C85.3557 75.5805 85.2849 76.0245 85.2387 76.4714C85.1897 76.961 85.1653 77.4098 85.1653 77.8177C85.1653 78.2665 85.2142 78.5113 85.304 78.5603C85.3499 78.5683 85.3968 78.5683 85.4427 78.5603C85.7356 78.5439 86.0257 78.4946 86.3076 78.4134L87.1807 78.1768C87.2623 77.2874 87.3112 76.4878 87.3112 75.7779C87.3194 75.6502 87.3194 75.5221 87.3112 75.3944C87.303 75.3075 87.303 75.2201 87.3112 75.1333C87.3089 74.9937 87.3616 74.8589 87.4581 74.7579C87.5009 74.7053 87.5542 74.6622 87.6146 74.6313C87.675 74.6004 87.7412 74.5824 87.8089 74.5784C87.8836 74.5667 87.9598 74.585 88.021 74.6293C88.0822 74.6737 88.1233 74.7405 88.1353 74.8151V74.913C88.1271 75.066 88.1107 75.2186 88.0864 75.3699C88.0812 75.5214 88.0593 75.6719 88.0211 75.8187C87.8813 76.6656 87.8103 77.5224 87.8089 78.3808Z" fill="black"/>
<path d="M91.6026 79.2865C91.475 79.2703 91.3583 79.2062 91.2763 79.107C90.7065 78.6347 90.0752 78.2422 89.3996 77.9402V78.6827C89.4077 78.7614 89.4077 78.8407 89.3996 78.9193C89.3999 79.0595 89.3508 79.1953 89.2609 79.3028C89.2199 79.3543 89.1678 79.3957 89.1084 79.424C89.049 79.4523 88.984 79.4667 88.9182 79.466C88.8744 79.4709 88.8302 79.4653 88.789 79.4497C88.7479 79.4341 88.7111 79.4089 88.6816 79.3763C88.6233 79.308 88.5915 79.2212 88.5918 79.1315C88.5969 78.9638 88.6188 78.7971 88.6571 78.6337C88.706 78.389 88.7387 78.2258 88.7468 78.136C88.8203 77.3201 88.8611 76.5041 88.8611 75.7779C88.8692 75.6911 88.8692 75.6037 88.8611 75.5168C88.8529 75.43 88.8529 75.3426 88.8611 75.2557C88.8611 75.1853 88.8756 75.1157 88.9037 75.0511C88.9318 74.9865 88.9728 74.9284 89.0243 74.8804C89.0697 74.8273 89.1259 74.7845 89.1893 74.7549C89.2526 74.7254 89.3215 74.7097 89.3914 74.709H89.4893C89.8165 74.6033 90.1574 74.5456 90.5011 74.5377C90.9247 74.53 91.3395 74.6587 91.6842 74.9049C91.8609 75.0161 92.0066 75.1702 92.1079 75.3527C92.2092 75.5353 92.2627 75.7405 92.2636 75.9493C92.2481 76.2429 92.149 76.526 91.978 76.7652C91.5868 77.2392 91.035 77.5528 90.4277 77.6464L91.0396 77.9728C91.2353 78.0821 91.4435 78.167 91.6598 78.2258C91.8964 78.2258 92.0188 78.4216 92.0188 78.7072C92.018 78.8271 91.9871 78.9449 91.929 79.0499C91.9133 79.1226 91.8714 79.187 91.8111 79.2306C91.7509 79.2743 91.6766 79.2942 91.6026 79.2865ZM89.6281 75.4107C89.5628 75.8432 89.5138 76.3817 89.4812 77.0426C89.8463 77.0416 90.2092 76.9866 90.5582 76.8795C90.9097 76.7814 91.2264 76.5862 91.4721 76.3164C91.5717 76.2025 91.6318 76.0594 91.6434 75.9085C91.6434 75.6882 91.4966 75.525 91.2028 75.4271C90.9764 75.3541 90.7389 75.3209 90.5011 75.3291C90.2081 75.3276 89.9157 75.3549 89.6281 75.4107Z" fill="black"/>
<path d="M96.3353 75.8349C96.3337 75.9394 96.2962 76.0402 96.2292 76.1205C96.2006 76.1608 96.1626 76.1938 96.1186 76.2165C96.0746 76.2392 96.0258 76.251 95.9763 76.251C95.8827 76.2528 95.7911 76.2242 95.7152 76.1694C95.6755 76.1466 95.6429 76.1131 95.6213 76.0727C95.5996 76.0323 95.5898 75.9867 95.5928 75.941V75.6717C95.4061 75.5271 95.1762 75.4495 94.94 75.4514C94.7003 75.4501 94.4636 75.5056 94.2495 75.6134C94.0353 75.7212 93.8497 75.8782 93.708 76.0715C93.3916 76.4392 93.2179 76.9083 93.2184 77.3933C93.2095 77.7139 93.3167 78.0268 93.5203 78.2746C93.6194 78.3949 93.744 78.4918 93.8851 78.5581C94.0262 78.6244 94.1803 78.6586 94.3362 78.6581C94.5154 78.656 94.6926 78.62 94.8584 78.552C95.0252 78.4945 95.178 78.4028 95.3072 78.2827L95.5765 77.989C95.6736 77.8908 95.8056 77.8351 95.9437 77.834C95.9848 77.8343 96.0253 77.844 96.062 77.8624C96.0988 77.8808 96.1309 77.9073 96.1558 77.94C96.2123 77.9971 96.2469 78.0722 96.2537 78.1522C96.2188 78.3057 96.1426 78.4467 96.0334 78.5601C95.8539 78.8049 95.621 79.0056 95.3524 79.147C95.0838 79.2884 94.7865 79.3667 94.4831 79.3761C94.22 79.3757 93.9609 79.3116 93.7279 79.1894C93.4949 79.0673 93.2949 78.8905 93.145 78.6744C92.8246 78.2498 92.6578 77.7292 92.6717 77.1975C92.664 76.5785 92.8589 75.9739 93.2265 75.4759C93.3963 75.2231 93.6259 75.0163 93.895 74.874C94.1641 74.7316 94.4643 74.6581 94.7687 74.6599C95.0549 74.645 95.3391 74.716 95.5846 74.8639C95.8064 75.019 96.0091 75.1998 96.1884 75.4024C96.2885 75.5238 96.3408 75.6776 96.3353 75.8349Z" fill="black"/>
<path d="M100.284 76.9119C100.284 77.1485 100.154 77.2628 99.8845 77.2628C99.7895 77.2711 99.6939 77.2711 99.5989 77.2628H99.3133C99.1094 77.2628 98.4974 77.3117 97.5917 77.4096V78.7723H98.5872C98.9149 78.756 99.2402 78.7068 99.5581 78.6254H99.7376C99.8 78.6262 99.8615 78.6404 99.9178 78.6672C99.9741 78.694 100.024 78.7326 100.064 78.7804C100.155 78.866 100.21 78.9824 100.219 79.1068C100.219 79.3353 100.097 79.4414 99.8519 79.4414H99.2318C98.8564 79.4414 98.2608 79.4903 97.4285 79.5801C97.3503 79.6373 97.2562 79.6687 97.1592 79.6698C96.9389 79.6698 96.8247 79.5638 96.8247 79.3516C96.8299 79.1812 96.8517 79.0118 96.89 78.8457C96.9389 78.5928 96.9716 78.4296 96.9797 78.3398C97.0532 77.5239 97.094 76.7569 97.094 76.1286C97.1021 75.9955 97.1021 75.8619 97.094 75.7288C97.0815 75.6367 97.0815 75.5434 97.094 75.4514C97.1019 75.3098 97.1624 75.1762 97.2634 75.0766C97.3645 74.9771 97.4989 74.9187 97.6407 74.9128C97.6911 74.8966 97.7453 74.8966 97.7957 74.9128H98.6116C98.8883 74.8896 99.1617 74.8377 99.4276 74.7578H99.6071C99.6695 74.7586 99.7309 74.7728 99.7872 74.7996C99.8436 74.8264 99.8935 74.865 99.9335 74.9128C99.9789 74.9561 100.015 75.0079 100.04 75.0654C100.066 75.1228 100.079 75.1847 100.08 75.2474C100.08 75.4677 99.9579 75.5738 99.7213 75.5738H99.4521C99.3625 75.5656 99.2724 75.5656 99.1828 75.5738C98.7236 75.5753 98.2652 75.6135 97.812 75.688C97.763 76.0144 97.7304 76.3979 97.7059 76.8303H98.6769C98.9996 76.8119 99.3196 76.76 99.6316 76.6753H99.8274C99.895 76.6756 99.9617 76.6911 100.022 76.7208C100.083 76.7505 100.136 76.7935 100.178 76.8466C100.217 76.8632 100.252 76.8852 100.284 76.9119Z" fill="black"/>
<path d="M104.642 77.8993C104.625 78.1679 104.532 78.4261 104.373 78.6431C104.214 78.8601 103.996 79.0268 103.744 79.1233C103.258 79.3777 102.718 79.512 102.17 79.5149C101.354 79.5149 100.97 79.3028 100.97 78.8621C100.967 78.8087 100.977 78.7552 101 78.7067C101.023 78.6582 101.057 78.6162 101.101 78.5847C101.189 78.5165 101.299 78.4818 101.411 78.4868C101.496 78.4853 101.58 78.5049 101.656 78.5439L101.892 78.6582C102.05 78.7084 102.216 78.7304 102.382 78.7234C102.697 78.7223 103.01 78.6756 103.312 78.5847C103.728 78.4623 103.94 78.2747 103.94 78.038V77.9075C103.883 77.7117 103.557 77.524 102.969 77.3282L101.77 76.9528C101.549 76.8892 101.337 76.7958 101.142 76.6754C101.045 76.6161 100.966 76.5334 100.91 76.4349C100.854 76.3365 100.824 76.2255 100.823 76.1124C100.82 75.8875 100.889 75.6675 101.019 75.4841C101.152 75.296 101.332 75.1466 101.541 75.0517C102.198 74.7177 102.919 74.5285 103.655 74.4968C103.74 74.4968 103.824 74.515 103.901 74.5502C103.979 74.5854 104.048 74.6368 104.103 74.7008C104.226 74.8213 104.297 74.9856 104.299 75.1577C104.29 75.2837 104.241 75.4035 104.161 75.5004C104.122 75.5481 104.074 75.5867 104.019 75.6135C103.964 75.6403 103.904 75.6546 103.842 75.6555C103.706 75.6475 103.576 75.5928 103.475 75.5004C103.36 75.4057 103.216 75.3513 103.067 75.3454C102.791 75.3467 102.517 75.3852 102.251 75.4596C101.843 75.5576 101.647 75.68 101.647 75.8268C101.647 75.9737 101.843 76.1287 102.243 76.2511C103.851 76.7488 104.642 77.2547 104.642 77.8993Z" fill="black"/>
<path d="M130.76 150.486L142.583 126.383C142.901 125.747 146.1 128.309 145.782 128.937L135.011 150.625C134.75 151.155 130.426 151.123 130.76 150.486Z" fill="#7E7797" stroke="black" stroke-width="0.25" stroke-miterlimit="10"/>
<path d="M196.583 150.486L184.76 126.383C184.45 125.747 181.251 128.309 181.561 128.937L192.332 150.625C192.593 151.155 196.901 151.123 196.583 150.486Z" fill="#7E7797" stroke="black" stroke-width="0.25" stroke-miterlimit="10"/>
<path d="M175.972 102.239C175.98 103.15 175.671 104.035 175.099 104.744C174.79 105.102 174.404 105.386 173.971 105.575C173.537 105.764 173.067 105.854 172.594 105.837C171.672 105.764 170.808 105.359 170.161 104.697C169.515 104.036 169.13 103.162 169.077 102.239C169.049 101.77 169.119 101.299 169.282 100.858C169.445 100.417 169.697 100.015 170.024 99.6768C170.352 99.3251 170.751 99.0461 171.193 98.8578C171.636 98.6695 172.113 98.576 172.594 98.5834C173.07 98.5808 173.541 98.6825 173.974 98.8812C174.407 99.08 174.791 99.371 175.099 99.7339C175.68 100.438 175.989 101.326 175.972 102.239ZM175.915 102.239C175.91 101.811 175.81 101.389 175.622 101.004C175.434 100.618 175.164 100.28 174.83 100.011C174.202 99.4872 173.412 99.1986 172.594 99.1954C171.778 99.2119 170.998 99.5336 170.407 100.097C169.817 100.66 169.459 101.425 169.404 102.239C169.375 102.665 169.44 103.092 169.595 103.49C169.75 103.888 169.991 104.246 170.301 104.54C170.607 104.825 170.969 105.045 171.363 105.186C171.758 105.326 172.177 105.384 172.594 105.356C173.414 105.311 174.197 105.005 174.83 104.483C175.167 104.213 175.441 103.872 175.631 103.484C175.822 103.096 175.924 102.671 175.931 102.239H175.915Z" fill="#445965"/>
<path d="M169.248 93.1981C169.252 93.7849 169.066 94.3573 168.718 94.83C168.521 95.0713 168.272 95.2645 167.989 95.3946C167.706 95.5247 167.397 95.5883 167.086 95.5806C166.457 95.5291 165.873 95.2368 165.454 94.7647C165.029 94.3215 164.769 93.7451 164.72 93.1328C164.699 92.8258 164.738 92.5176 164.837 92.2259C164.935 91.9342 165.089 91.6647 165.292 91.4328C165.494 91.2009 165.74 91.0112 166.016 90.8745C166.291 90.7377 166.591 90.6567 166.898 90.636H167.07C167.385 90.6426 167.695 90.7192 167.978 90.8603C168.26 91.0015 168.507 91.2035 168.702 91.4519C169.078 91.9545 169.271 92.5707 169.248 93.1981ZM169.191 93.1981C169.186 92.9224 169.116 92.6517 168.987 92.408C168.858 92.1643 168.674 91.9542 168.449 91.7946C168.043 91.4932 167.551 91.3301 167.045 91.3295C166.537 91.3355 166.048 91.5298 165.674 91.8749C165.301 92.22 165.068 92.6915 165.022 93.1981C164.994 93.4684 165.029 93.7415 165.124 93.9962C165.219 94.2509 165.371 94.4803 165.568 94.6668C165.77 94.8414 166.004 94.9729 166.259 95.0529C166.513 95.1329 166.78 95.1598 167.045 95.1319C167.551 95.0831 168.034 94.903 168.449 94.6096C168.674 94.4488 168.859 94.2374 168.988 93.9922C169.117 93.747 169.187 93.475 169.191 93.1981Z" fill="#445965"/>
<path d="M158.315 94.3406C158.324 95.0241 158.102 95.6908 157.687 96.2336C157.456 96.5074 157.165 96.7237 156.837 96.8654C156.508 97.007 156.151 97.0701 155.794 97.0495C155.089 96.9911 154.433 96.6674 153.958 96.1438C153.482 95.6445 153.194 94.9958 153.142 94.3079C153.122 93.9581 153.171 93.6077 153.287 93.2769C153.402 92.9461 153.582 92.6413 153.815 92.3799C154.049 92.1185 154.331 91.9056 154.647 91.7534C154.963 91.6012 155.305 91.5127 155.655 91.4929H155.802C156.167 91.4939 156.527 91.5764 156.856 91.7346C157.185 91.8927 157.474 92.1224 157.703 92.4068C158.125 92.9612 158.341 93.6446 158.315 94.3406ZM158.258 94.3406C158.253 94.0248 158.177 93.7141 158.036 93.4316C157.895 93.1491 157.692 92.9021 157.442 92.7087C156.974 92.3494 156.4 92.1544 155.81 92.1538C155.219 92.1583 154.651 92.3847 154.219 92.7882C153.786 93.1917 153.522 93.7428 153.477 94.3324C153.449 94.6449 153.492 94.9596 153.602 95.2533C153.712 95.547 153.887 95.8123 154.113 96.0296C154.343 96.2325 154.613 96.3863 154.904 96.4817C155.196 96.5771 155.504 96.6121 155.81 96.5844C156.402 96.5378 156.968 96.3226 157.442 95.9643C157.692 95.7709 157.895 95.5238 158.036 95.2414C158.177 94.9589 158.253 94.6482 158.258 94.3324V94.3406Z" fill="#445965"/>
<path d="M153.778 84.8592C153.779 85.447 153.59 86.0192 153.24 86.4911C153.044 86.7447 152.79 86.9465 152.498 87.0788C152.206 87.2111 151.887 87.2699 151.567 87.25C150.938 87.1984 150.354 86.9061 149.935 86.434C149.51 85.9908 149.251 85.4144 149.201 84.8021C149.158 84.1855 149.362 83.5772 149.767 83.1106C150.173 82.6441 150.747 82.3574 151.363 82.3135H151.543C151.866 82.3146 152.185 82.3885 152.476 82.5297C152.767 82.671 153.023 82.8759 153.223 83.1294C153.598 83.6268 153.794 84.2365 153.778 84.8592ZM153.713 84.8592C153.708 84.5834 153.639 84.3126 153.51 84.0687C153.381 83.8249 153.196 83.6149 152.971 83.4558C152.566 83.153 152.073 82.9923 151.567 82.9989C151.061 83.0048 150.574 83.1983 150.202 83.5419C149.83 83.8855 149.598 84.3548 149.552 84.8592C149.527 85.1262 149.562 85.3954 149.655 85.6468C149.749 85.8982 149.897 86.1255 150.09 86.3116C150.292 86.4844 150.528 86.6141 150.781 86.6927C151.035 86.7713 151.303 86.7971 151.567 86.7686C152.077 86.7271 152.565 86.5464 152.979 86.2463C153.199 86.0871 153.381 85.8792 153.508 85.6386C153.635 85.398 153.706 85.1313 153.713 84.8592Z" fill="#445965"/>
<path d="M157.352 77.1406C157.36 77.5744 157.238 78.0006 157.001 78.3645C156.863 78.5567 156.678 78.7102 156.464 78.8102C156.25 78.9102 156.013 78.9534 155.777 78.9357C155.322 78.879 154.905 78.6515 154.611 78.2992C154.311 77.9804 154.119 77.5748 154.064 77.1406C154.041 76.9198 154.063 76.6968 154.126 76.4842C154.19 76.2716 154.295 76.0737 154.435 75.9017C154.575 75.7297 154.748 75.587 154.943 75.4817C155.139 75.3765 155.353 75.3108 155.573 75.2884H155.777C156.018 75.2867 156.256 75.3428 156.47 75.4522C156.685 75.5615 156.87 75.7208 157.01 75.9167C157.247 76.2798 157.366 76.7071 157.352 77.1406ZM157.295 77.1406C157.287 76.9474 157.231 76.7592 157.133 76.5927C157.035 76.4262 156.897 76.2864 156.732 76.1859C156.446 76.0058 156.115 75.9097 155.777 75.9085C155.436 75.9116 155.108 76.0381 154.853 76.2646C154.598 76.4911 154.434 76.8023 154.39 77.1406C154.361 77.3283 154.378 77.5204 154.44 77.6998C154.503 77.8792 154.609 78.0403 154.749 78.1687C154.893 78.2818 155.058 78.3641 155.235 78.4104C155.412 78.4568 155.597 78.4661 155.777 78.4379C156.119 78.3972 156.447 78.2831 156.74 78.1034C156.916 78.0087 157.065 77.8705 157.172 77.7019C157.279 77.5333 157.341 77.34 157.352 77.1406H157.295Z" fill="#445965"/>
<path d="M178.33 58.1205C178.17 58.0192 177.989 57.9556 177.801 57.9344C177.613 57.9132 177.423 57.935 177.245 57.9981C176.842 58.1564 176.519 58.4679 176.347 58.8641C176.174 59.2603 176.165 59.7089 176.323 60.1115L176.363 60.2012C176.788 61.0413 177.369 61.792 178.077 62.4124C180.778 65.4478 182.459 69.299 184.237 72.8484C186.016 76.3978 187.844 80.5999 189.419 83.8637C189.794 84.6796 190.406 87.2988 191.385 85.3406C192.642 82.803 187.648 72.2854 186.032 68.8176C184.001 64.5094 182.459 60.4297 178.33 58.1205Z" fill="white"/>
<path d="M173.671 84.8592C173.681 85.2944 173.555 85.7221 173.312 86.0831C173.175 86.2764 172.99 86.4308 172.776 86.531C172.561 86.6311 172.324 86.6736 172.088 86.6542C171.638 86.5947 171.225 86.371 170.929 86.026C170.625 85.707 170.433 85.2973 170.383 84.8592C170.36 84.6384 170.381 84.4154 170.445 84.2028C170.509 83.9902 170.614 83.7923 170.754 83.6203C170.894 83.4483 171.067 83.3056 171.262 83.2003C171.457 83.0951 171.672 83.0294 171.892 83.007H172.039C172.28 83.0039 172.518 83.0595 172.733 83.1689C172.947 83.2784 173.132 83.4384 173.271 83.6352C173.524 83.9938 173.664 84.4203 173.671 84.8592ZM173.606 84.8592C173.602 84.665 173.549 84.475 173.45 84.3078C173.351 84.1405 173.211 84.0016 173.043 83.9045C172.757 83.7244 172.426 83.6283 172.088 83.6271C171.749 83.6339 171.423 83.7618 171.171 83.9878C170.918 84.2138 170.754 84.5229 170.709 84.8592C170.679 85.0469 170.697 85.239 170.759 85.4184C170.822 85.5978 170.928 85.7589 171.068 85.8873C171.209 86.0034 171.372 86.0882 171.548 86.1361C171.724 86.1839 171.908 86.1937 172.088 86.1647C172.431 86.1249 172.76 86.0077 173.051 85.822C173.213 85.7178 173.346 85.5756 173.44 85.4077C173.534 85.2398 173.585 85.0515 173.589 84.8592H173.606Z" fill="#445965"/>
<path d="M82.0189 38.9178C81.5861 38.9178 81.171 38.7459 80.865 38.4399C80.5589 38.1338 80.387 37.7187 80.387 37.2859C80.4849 33.8263 79.8322 31.2806 78.5511 29.9832V30.179C77.9636 33.8916 75.5158 35.4256 73.4107 35.6296C72.3525 35.7696 71.2776 35.56 70.3497 35.0326C69.4217 34.5053 68.6915 33.6892 68.2702 32.7085C67.7398 31.2316 68.3273 29.5589 69.9021 28.131C71.2056 26.966 72.8024 26.1788 74.5203 25.8545C74.3103 25.5629 74.0756 25.2899 73.8186 25.0386C72.4406 26.5144 70.5401 27.3929 68.5231 27.4864C67.693 27.5476 66.8601 27.4126 66.0918 27.0923C65.3235 26.7719 64.6414 26.2752 64.1007 25.6424C63.7671 25.2176 63.5229 24.7297 63.3826 24.2081C63.2424 23.6864 63.2091 23.1419 63.2847 22.607C63.3387 22.1399 63.4892 21.6891 63.7265 21.2832C63.9639 20.8772 64.283 20.525 64.6637 20.2489C65.2251 19.8659 65.8673 19.6174 66.5404 19.5228C68.657 19.1189 70.8466 19.3723 72.815 20.2489C72.9645 19.6936 73.0061 19.1147 72.9374 18.5436C72.6192 15.8591 69.9266 13.5011 67.0463 13.395H66.4098C66.4098 13.7703 66.4098 14.1457 66.3527 14.5373C66.1406 17.0749 63.3582 18.7639 60.7798 18.9924C58.5522 19.1882 56.8877 18.2254 56.4226 16.4711C56.251 15.8753 56.229 15.2464 56.3585 14.6401C56.488 14.0338 56.7651 13.4688 57.1651 12.9952C58.3891 11.4612 60.7145 10.735 62.8278 10.3923C61.7344 6.47574 58.3401 4.68066 55.2232 4.30532C52.2776 3.97894 48.9812 4.90096 47.3166 7.50384C48.3369 8.19223 49.2591 9.01567 50.0582 9.95168C51.5025 11.5836 51.9839 13.3542 51.4127 14.8474C51.1942 15.4239 50.8282 15.9329 50.3515 16.3238C49.8747 16.7147 49.3037 16.9737 48.6956 17.0749C47.9673 17.219 47.2149 17.1828 46.5038 16.9694C45.7927 16.7561 45.1446 16.3721 44.6159 15.851C43.2777 14.4557 42.731 12.3424 43.0819 9.8864C43.0819 9.65794 43.1471 9.43764 43.1961 9.22549C42.589 9.03106 41.9568 8.92659 41.3194 8.91543C39.0429 8.91543 36.8643 10.4494 36.3585 12.3669C36.0158 13.6642 36.5298 15.5572 37.0765 17.5563C37.7419 19.6727 38.1259 21.8674 38.2188 24.0839C38.2188 24.5167 38.0469 24.9318 37.7409 25.2378C37.4348 25.5439 37.0197 25.7158 36.5869 25.7158C36.1541 25.7158 35.739 25.5439 35.433 25.2378C35.127 24.9318 34.955 24.5167 34.955 24.0839C34.8637 22.1432 34.5181 20.223 33.9269 18.3723C33.266 15.9244 32.6377 13.6316 33.2007 11.502C33.7427 9.78528 34.8237 8.28902 36.2832 7.23517C37.7427 6.18131 39.5031 5.62601 41.3031 5.65163C42.3245 5.65255 43.3399 5.80938 44.314 6.11672C46.5578 2.22465 51.2332 0.600916 55.5332 1.08232C58.0181 1.29231 60.3738 2.27945 62.2661 3.90369C64.1584 5.52794 65.4911 7.70681 66.0753 10.1312C66.622 10.1312 67.0136 10.1312 67.1687 10.1312C69.3636 10.2212 71.459 11.0713 73.0963 12.5359C74.7336 14.0006 75.811 15.9887 76.1441 18.1601C76.2934 19.5284 76.0941 20.9122 75.5648 22.1827C76.7376 23.215 77.6326 24.5252 78.1676 25.9932C78.4061 26.0736 78.6404 26.1662 78.8694 26.2706C81.1458 27.3069 83.765 30.0566 83.61 37.3267C83.5997 37.7455 83.4287 38.1442 83.1325 38.4404C82.8364 38.7365 82.4376 38.9075 82.0189 38.9178ZM75.3689 28.9714C74.4623 29.1006 73.594 29.4234 72.8232 29.9179C71.6482 30.6686 71.3055 31.4111 71.3218 31.5498C71.5131 31.8279 71.7798 32.0456 72.0906 32.1771C72.4014 32.3087 72.7434 32.3486 73.0761 32.2923C74.2511 32.1863 75.0426 31.2234 75.2955 29.5916C75.3334 29.3867 75.3579 29.1795 75.3689 28.9714ZM68.5884 22.6152C68.0959 22.6148 67.6044 22.6585 67.1197 22.7457C66.9179 22.7626 66.7213 22.818 66.5404 22.9089C66.5016 23.0206 66.491 23.1401 66.5095 23.2568C66.5281 23.3735 66.5751 23.4838 66.6465 23.578C66.8789 23.7968 67.1563 23.962 67.4594 24.062C67.7625 24.1621 68.0838 24.1946 68.4007 24.1573C69.3778 24.0955 70.3058 23.7076 71.0363 23.0558C70.2544 22.7594 69.4245 22.6101 68.5884 22.6152ZM63.1542 13.6398C61.5223 13.9335 60.176 14.4557 59.6946 15.035C59.6273 15.1137 59.5827 15.2091 59.5654 15.3111C59.5482 15.4132 59.559 15.518 59.5967 15.6144C60.2839 15.8256 61.026 15.7642 61.6692 15.443C62.6238 15.0595 63.0808 14.5128 63.1052 14.2517C63.1297 13.9906 63.1297 13.8601 63.1379 13.6642L63.1542 13.6398ZM46.2314 10.8084C46.0978 11.7776 46.353 12.7602 46.9413 13.5419C47.0901 13.672 47.2668 13.7662 47.4578 13.8171C47.6488 13.868 47.849 13.8744 48.0428 13.8356C48.0428 13.8356 48.2958 13.7866 48.3284 13.6887C48.4182 13.4521 48.2223 12.8728 47.5696 12.0568C47.1611 11.6022 46.7133 11.1844 46.2314 10.8084Z" fill="#79C983" stroke="black" stroke-width="0.25" stroke-linecap="round" stroke-linejoin="round"/>
<path d="M36.1872 22.1665H37.0032C37.3311 22.1665 37.6557 22.2311 37.9587 22.3566C38.2616 22.482 38.5368 22.6659 38.7687 22.8978C39.0005 23.1296 39.1844 23.4049 39.3099 23.7078C39.4354 24.0107 39.5 24.3354 39.5 24.6633V33.4592H33.6904V24.6551C33.6926 23.9944 33.9566 23.3614 34.4246 22.8949C34.8926 22.4284 35.5265 22.1665 36.1872 22.1665Z" fill="#79C983" stroke="black" stroke-width="0.25" stroke-linecap="round" stroke-linejoin="round"/>
<path d="M38.7577 25.5934C38.7577 24.3902 37.7841 23.4148 36.5832 23.4148C35.3822 23.4148 34.4087 24.3902 34.4087 25.5934V29.8118C34.4087 31.015 35.3822 31.9904 36.5832 31.9904C37.7841 31.9904 38.7577 31.015 38.7577 29.8118V25.5934Z" fill="#FFDB8A" stroke="black" stroke-width="0.25" stroke-linecap="round" stroke-linejoin="round"/>
<path d="M49.7156 50.9776C45.7335 45.6795 43.9319 39.0573 44.6812 32.4719V32.3414C44.6812 30.2933 41.0503 28.637 36.5626 28.637C32.0749 28.637 28.4031 30.2689 28.4031 32.3414C28.4031 32.3414 28.4031 32.423 28.4031 32.4638C28.4517 39.3649 26.4805 46.1295 22.7322 51.9241C20.4476 55.3756 19.085 59.3085 19.085 62.662C19.085 70.6828 26.8936 72.2983 36.5218 72.2983C46.15 72.2983 53.9504 70.6665 53.9504 62.662C54.0157 58.9984 52.392 54.6086 49.7156 50.9776Z" fill="#79C983" stroke="black" stroke-width="0.25" stroke-linecap="round" stroke-linejoin="round"/>
<path d="M47.7816 49.7128C44.3872 45.1911 42.8515 39.542 43.4897 33.9242V33.8181C43.4897 32.072 40.3891 30.6604 36.5623 30.6604C32.7355 30.6604 29.6349 32.072 29.6349 33.8181C29.631 33.8506 29.631 33.8835 29.6349 33.916C29.6872 39.8038 28.0167 45.5783 24.829 50.5287C22.953 53.2215 21.8754 56.3892 21.7202 59.6674C21.7202 66.5132 28.3783 67.8839 36.5868 67.8839C44.7952 67.8839 51.4534 66.5132 51.4534 59.6674C51.4534 56.5504 50.0663 52.8297 47.7816 49.7128Z" fill="#FFDB8A" stroke="black" stroke-width="0.25" stroke-linecap="round" stroke-linejoin="round"/>
<path d="M80.4769 33.9243C79.9876 33.9233 79.5029 34.0187 79.0506 34.2052C78.5982 34.3917 78.1871 34.6656 77.8407 35.0112C77.4943 35.3568 77.2195 35.7674 77.032 36.2193C76.8446 36.6713 76.748 37.1557 76.748 37.645V47.5425C76.748 47.7791 78.9266 47.975 81.6437 47.975C84.3608 47.975 86.5394 47.7791 86.5394 47.5425V37.645C86.5394 36.6597 86.1485 35.7145 85.4525 35.017C84.7565 34.3194 83.8122 33.9265 82.8269 33.9243H80.4769Z" fill="#FF8724" stroke="black" stroke-width="0.25" stroke-miterlimit="10"/>
<path d="M76.2666 45.9595C76.14 45.9433 76.0121 45.978 75.9111 46.056C75.8102 46.1341 75.7443 46.249 75.728 46.3756V49.158C75.728 49.6639 78.3227 50.0718 81.5131 50.0718C84.7035 50.0718 87.3063 49.6639 87.3063 49.158V46.5714C87.3108 46.506 87.3022 46.4404 87.2812 46.3783C87.2602 46.3162 87.2272 46.2589 87.184 46.2096C87.1407 46.1603 87.0882 46.1201 87.0294 46.0911C86.9706 46.0622 86.9067 46.0452 86.8412 46.041C86.8147 46.0329 86.7862 46.0329 86.7596 46.041C85.0938 46.3264 83.4072 46.4738 81.7171 46.4817C79.8908 46.4262 78.0701 46.2517 76.2666 45.9595Z" fill="#EF6060" stroke="black" stroke-width="0.25" stroke-miterlimit="10"/>
<path d="M72.8153 20.2571L71.061 23.0558" stroke="black" stroke-width="0.25" stroke-miterlimit="10"/>
<path d="M75.6056 22.1912L73.7778 24.9654" stroke="black" stroke-width="0.25" stroke-miterlimit="10"/>
<path d="M78.2085 26.0015L78.5512 29.9425" stroke="black" stroke-width="0.25" stroke-miterlimit="10"/>
<path d="M74.4795 25.8137L75.3689 28.9714" stroke="black" stroke-width="0.25" stroke-miterlimit="10"/>
<path d="M32.0261 53.8742C32.7516 53.8742 33.3398 53.286 33.3398 52.5605C33.3398 51.835 32.7516 51.2468 32.0261 51.2468C31.3006 51.2468 30.7124 51.835 30.7124 52.5605C30.7124 53.286 31.3006 53.8742 32.0261 53.8742Z" fill="#EF6060"/>
<path d="M31.2833 49.2725C31.8556 49.2725 32.3196 48.8085 32.3196 48.2362C32.3196 47.6639 31.8556 47.2 31.2833 47.2C30.711 47.2 30.2471 47.6639 30.2471 48.2362C30.2471 48.8085 30.711 49.2725 31.2833 49.2725Z" fill="#EF6060"/>
<path d="M32.6867 45.7802C33.241 45.7802 33.6903 45.3308 33.6903 44.7766C33.6903 44.2223 33.241 43.7729 32.6867 43.7729C32.1324 43.7729 31.6831 44.2223 31.6831 44.7766C31.6831 45.3308 32.1324 45.7802 32.6867 45.7802Z" fill="#EF6060"/>
<path d="M41.7437 61.6502C42.5053 61.6502 43.1227 61.0329 43.1227 60.2713C43.1227 59.5097 42.5053 58.8923 41.7437 58.8923C40.9821 58.8923 40.3647 59.5097 40.3647 60.2713C40.3647 61.0329 40.9821 61.6502 41.7437 61.6502Z" fill="#EF6060"/>
<path d="M44.0363 56.877C44.5455 56.877 44.9583 56.4642 44.9583 55.955C44.9583 55.4458 44.5455 55.033 44.0363 55.033C43.5271 55.033 43.1143 55.4458 43.1143 55.955C43.1143 56.4642 43.5271 56.877 44.0363 56.877Z" fill="#EF6060"/>
<path d="M40.2912 52.1065C40.7373 52.1065 41.099 51.7449 41.099 51.2988C41.099 50.8526 40.7373 50.491 40.2912 50.491C39.8451 50.491 39.4834 50.8526 39.4834 51.2988C39.4834 51.7449 39.8451 52.1065 40.2912 52.1065Z" fill="#EF6060"/>
</svg>
