<svg width="133" height="150" viewBox="0 0 133 150" fill="none" xmlns="http://www.w3.org/2000/svg">
<path d="M66.1723 150C102.718 150 132.345 116.421 132.345 75C132.345 33.5786 102.718 0 66.1723 0C29.6264 0 0 33.5786 0 75C0 116.421 29.6264 150 66.1723 150Z" fill="#8EFF5F"/>
<path d="M31.2851 58.9268C39.9291 50.7912 66.7512 41.2008 77.6834 20.0991C77.6834 20.0991 87.1749 55.4098 88.1495 68.955C89.5619 88.9692 85.2258 119.223 37.1749 123.757C37.2173 123.8 -2.20361 90.5228 31.2851 58.9268Z" fill="#6CAF2C" stroke="black" stroke-width="0.25" stroke-miterlimit="10"/>
<path d="M36.0736 123.602C39.1809 102.415 44.8165 80.8899 57.486 63.2345C61.6386 57.2034 66.8646 51.243 70.5934 44.8729C73.3602 40.2998 75.2834 35.267 76.2713 30.0142C75.4082 35.3343 73.5899 40.4544 70.9041 45.1272C64.9719 55.2402 56.8646 64.0255 51.7516 74.7882C47.0224 84.3602 43.5747 94.5134 41.4973 104.986C40.1696 111.017 39.1951 117.825 38.3476 123.912C38.3083 124.214 38.1508 124.488 37.9097 124.673C37.6687 124.858 37.3639 124.94 37.0623 124.901C36.7607 124.862 36.4872 124.704 36.3018 124.463C36.1163 124.222 36.0343 123.917 36.0736 123.616V123.602Z" fill="#6CAF2C" stroke="black" stroke-width="0.25" stroke-miterlimit="10"/>
<path d="M81.2007 49.4067C74.8589 52.4576 68.9691 56.1723 62.938 59.774C68.3368 55.2254 74.5278 51.7109 81.2007 49.4067Z" fill="black"/>
<path d="M83.7431 70.8475C72.9098 70.3814 62.5566 74.6045 53.1357 79.548C62.0623 73.7571 72.9098 69.3927 83.7431 70.8475Z" fill="black"/>
<path d="M83.1637 93.3477C71.9491 91.3279 60.5649 93.6019 49.7598 96.8647C48.2061 97.3166 46.6666 97.8251 45.1553 98.3901C56.9349 93.3195 70.4801 90.1274 83.1637 93.3477Z" fill="black"/>
<path d="M62.7259 112.938C55.4095 111.864 48.0932 113.644 41.1299 115.763C47.7401 112.684 55.5649 110.862 62.7259 112.938Z" fill="black"/>
<path d="M52.9658 47.0059C55.221 51.5383 56.8825 56.3424 57.9093 61.2996C55.9738 56.6394 54.323 51.8661 52.9658 47.0059Z" fill="black"/>
<path d="M36.5957 57.7119C42.3725 63.065 46.0449 70.339 48.5025 77.7119C45.1974 70.6498 41.624 63.6865 36.5957 57.7119Z" fill="black"/>
<path d="M22.7544 73.0366C30.8194 78.5027 36.6386 86.8361 40.9747 95.4519C35.7911 87.3163 30.212 79.2513 22.7544 73.0366Z" fill="black"/>
<path d="M21.4268 96.0171C27.3166 99.986 31.5821 106.045 34.6895 112.331C30.7205 106.526 26.6951 100.735 21.4268 96.0171Z" fill="black"/>
</svg>
