<svg width="300" height="300" viewBox="0 0 300 300" fill="none" xmlns="http://www.w3.org/2000/svg">
<path d="M68.3072 161.381C85.4455 174.152 61.1344 207.616 80.2166 259.043C88.2752 280.758 130.524 293.578 172.49 293.369C219.784 293.123 260.901 284.757 277.067 260.151C300 225.259 289.887 108.268 288.718 94.8332C281.742 14.3336 226.144 6.70569 178.396 7.1363C135.335 7.5177 82.9356 19.8701 73.5237 77.7441C69.8328 100.64 70.3618 125.726 65.6128 125.997L68.3072 161.381Z" fill="#FDFAB0"/>
<path d="M129.65 235.863C124.299 234.633 117.95 238.324 119.193 247.121C114.887 236.318 106.816 237.61 103.58 239.739C97.3424 243.996 99.4708 252.792 106.557 256.742C118.27 263.25 122.552 268.147 123.117 267.285C124.274 265.514 128.494 256.778 131.988 250.898C137.401 241.806 132.505 236.491 129.65 235.863Z" fill="#DB3480" stroke="#7E2453" stroke-width="0.25" stroke-miterlimit="10"/>
<path d="M86.1216 211.86H128.075C128.069 217.114 125.981 222.151 122.268 225.868C118.555 229.585 113.521 231.68 108.267 231.693H106.065C103.452 231.699 100.864 231.191 98.4481 230.197C96.0319 229.203 93.8352 227.743 91.9832 225.901C90.1313 224.058 88.6605 221.868 87.6548 219.457C86.649 217.046 86.128 214.46 86.1216 211.848V211.86Z" fill="#3D3D3D" stroke="black" stroke-width="0.25" stroke-miterlimit="10"/>
<path d="M107.173 218.49C118.493 218.49 127.67 215.521 127.67 211.859C127.67 208.197 118.493 205.228 107.173 205.228C95.8526 205.228 86.6758 208.197 86.6758 211.859C86.6758 215.521 95.8526 218.49 107.173 218.49Z" fill="#3D3D3D"/>
<path d="M92.5936 216.72C96.7068 217.617 100.881 218.21 105.081 218.492C107.685 218.551 110.289 218.457 112.881 218.209C116.957 218.033 120.96 217.068 124.668 215.367V215.207C124.668 212.094 116.868 209.597 107.173 209.597C97.4779 209.597 89.6777 212.057 89.6777 215.207V215.305C90.5228 216.003 91.5226 216.488 92.5936 216.72Z" fill="#E4D78D"/>
<path d="M107.173 219.094C95.3741 219.094 86.1714 215.981 86.1714 211.958C86.1714 207.935 95.3741 204.847 107.173 204.847C118.972 204.847 128.088 207.972 128.088 211.958C128.088 215.944 118.922 219.094 107.173 219.094ZM107.173 205.843C95.2019 205.843 87.1802 208.968 87.1802 211.995C87.1802 215.021 95.2019 218.146 107.173 218.146C119.144 218.146 127.104 214.775 127.104 211.909C127.104 209.042 119.107 205.757 107.173 205.757V205.843Z" fill="#5E5E5E" stroke="black" stroke-width="0.25" stroke-miterlimit="10"/>
<path d="M107.518 217.507C104.356 217.497 101.242 216.742 98.4258 215.305C98.0929 215.176 97.7979 214.965 97.5679 214.692C97.3378 214.419 97.1801 214.092 97.1094 213.742C97.1094 212.869 97.7491 212.18 99.0164 211.786C101.744 211.205 104.535 210.978 107.321 211.11C109.29 211.062 111.258 211.231 113.19 211.614C114.358 211.832 115.461 212.316 116.413 213.029C116.741 213.276 116.958 213.643 117.016 214.05C117.019 214.283 116.955 214.511 116.833 214.71C116.712 214.908 116.536 215.067 116.327 215.17C115.661 215.597 114.916 215.885 114.137 216.018C110.517 216.605 106.805 216.059 103.507 214.456C103.31 214.391 103.146 214.252 103.05 214.068C102.953 213.885 102.932 213.671 102.99 213.472C103.009 213.387 103.045 213.308 103.096 213.238C103.146 213.168 103.211 213.109 103.286 213.066C103.819 212.67 104.468 212.463 105.131 212.475C106.856 212.363 108.588 212.55 110.249 213.029C110.358 213.071 110.453 213.142 110.523 213.236C110.593 213.33 110.634 213.441 110.643 213.558C110.638 213.892 110.51 214.213 110.283 214.458C110.055 214.704 109.746 214.856 109.413 214.887C109.268 214.89 109.128 214.839 109.021 214.743C108.914 214.647 108.847 214.513 108.834 214.37C108.835 214.286 108.856 214.203 108.894 214.128C108.933 214.054 108.988 213.989 109.056 213.939C107.803 213.643 106.514 213.535 105.229 213.619C105.009 213.595 104.786 213.595 104.565 213.619C107.503 214.921 110.762 215.319 113.928 214.764C114.581 214.653 115.207 214.419 115.773 214.075L115.958 213.89L115.773 213.718C114.971 213.093 114.03 212.671 113.03 212.487C111.16 212.178 109.263 212.071 107.37 212.168C104.68 212.041 101.985 212.256 99.3485 212.807C98.7949 212.955 98.2536 213.263 98.2782 213.57C98.3028 213.878 98.5365 213.964 98.9794 214.173C102.113 215.804 105.648 216.504 109.166 216.191C109.315 216.184 109.459 216.236 109.57 216.335C109.68 216.433 109.747 216.572 109.757 216.72C109.775 216.863 109.736 217.007 109.648 217.122C109.561 217.237 109.432 217.314 109.289 217.335C108.707 217.46 108.113 217.518 107.518 217.507Z" fill="#E4D78D" stroke="black" stroke-width="0.25" stroke-miterlimit="10"/>
<path d="M112.759 216.757C111.59 216.768 110.43 216.559 109.338 216.141C108.826 215.995 108.386 215.661 108.108 215.206C107.185 215.241 106.264 215.331 105.352 215.477C104.429 215.588 103.605 215.698 102.744 215.735C102.477 215.943 102.183 216.112 101.87 216.24C99.2783 216.928 96.5514 216.928 93.9594 216.24C93.4098 216.179 92.8783 216.007 92.3969 215.735C92.0971 215.609 91.8451 215.391 91.6771 215.112C91.5091 214.834 91.4337 214.509 91.4618 214.185C91.5286 213.901 91.6525 213.633 91.8259 213.399C91.9994 213.164 92.2187 212.967 92.4707 212.82C93.766 212.057 95.2172 211.599 96.7153 211.478C98.0508 211.392 99.3905 211.392 100.726 211.478H101.157C105.481 211.602 109.808 211.306 114.075 210.593C114.207 210.571 114.342 210.601 114.452 210.677C114.562 210.752 114.639 210.868 114.666 210.999C114.706 211.114 114.703 211.239 114.658 211.352C114.612 211.465 114.528 211.558 114.419 211.614L114.346 211.688C109.991 212.306 105.589 212.533 101.194 212.364H100.886C99.5956 212.278 98.3009 212.278 97.0105 212.364C95.7075 212.451 94.443 212.843 93.3196 213.508C92.8521 213.816 92.7906 214.013 92.7906 214.074C92.8628 214.281 93.0011 214.459 93.1843 214.579C93.5736 214.763 93.9883 214.887 94.4146 214.948C96.0958 215.341 97.8187 215.526 99.545 215.502L98.4254 215.305C97.1951 214.923 96.9859 214.271 96.9859 213.915C97.0028 213.633 97.1065 213.363 97.2827 213.143C97.459 212.923 97.6991 212.762 97.9702 212.684C98.3744 212.586 98.7963 212.586 99.2005 212.684C100.263 212.781 101.289 213.117 102.202 213.668C102.585 213.865 102.889 214.186 103.064 214.579C103.794 214.554 104.521 214.48 105.241 214.357C106.029 214.357 107.148 214.136 108.12 214.111H108.268C108.39 213.904 108.548 213.721 108.735 213.57C109.195 213.236 109.733 213.028 110.298 212.967C111.738 212.673 113.208 212.549 114.678 212.598H115.822C115.823 212.201 115.957 211.815 116.203 211.503C116.406 211.232 116.663 211.006 116.957 210.839C117.251 210.672 117.577 210.567 117.914 210.531C118.52 210.506 119.127 210.581 119.71 210.753C120.049 210.837 120.37 210.983 120.657 211.183C120.845 211.35 120.978 211.57 121.037 211.814C121.097 212.058 121.08 212.315 120.989 212.549C120.759 212.88 120.412 213.113 120.017 213.201C119.296 213.419 118.554 213.56 117.803 213.619H118.11C118.467 213.742 119.07 213.964 119.119 214.603C119.169 215.243 118.812 215.539 117.889 215.625L116.154 215.76C116.052 215.772 115.948 215.756 115.855 215.712C115.761 215.669 115.682 215.6 115.625 215.514C115.502 216.117 114.825 216.523 113.817 216.621L112.759 216.757ZM109.757 215.194C110.935 215.629 112.197 215.793 113.448 215.674C112.261 215.379 111.051 215.193 109.83 215.12L109.757 215.194ZM110.04 214.087C111.711 214.162 113.366 214.455 114.961 214.96C115.103 215.003 115.222 215.101 115.293 215.231C115.336 215.136 115.403 215.055 115.487 214.994C115.571 214.934 115.67 214.897 115.773 214.886L117.188 214.739C116.754 214.528 116.384 214.205 116.117 213.804H114.579C113.115 213.726 111.646 213.808 110.2 214.05L110.04 214.087ZM98.6346 213.755C98.4879 213.73 98.3383 213.73 98.1916 213.755C98.1446 213.751 98.098 213.766 98.0614 213.795C98.0248 213.825 98.0009 213.868 97.9948 213.915C98.1678 214.052 98.3696 214.149 98.5853 214.197C99.5654 214.476 100.581 214.608 101.6 214.591C100.818 214.138 99.9508 213.853 99.0529 213.755H98.6346ZM118.11 211.761H117.877C117.7 211.76 117.525 211.796 117.364 211.869C117.202 211.941 117.058 212.047 116.942 212.18C116.88 212.33 116.88 212.498 116.942 212.647C117.855 212.627 118.762 212.482 119.636 212.217H119.796L119.39 211.872C118.962 211.75 118.519 211.688 118.074 211.688L118.11 211.761Z" fill="#E4D78D" stroke="black" stroke-width="0.25" stroke-miterlimit="10"/>
<path d="M105.327 210.678C105.243 210.69 105.157 210.676 105.08 210.639C105.004 210.601 104.94 210.542 104.897 210.469C103.908 209.221 103.363 207.68 103.347 206.089C103.409 204.909 103.628 203.742 103.999 202.619C104.134 202.066 104.294 201.487 104.417 200.946C104.896 198.657 104.725 196.279 103.925 194.081V193.589C103.677 193.056 103.484 192.499 103.347 191.928C103.199 191.205 103.199 190.461 103.347 189.738C103.593 187.501 104.084 185.298 104.811 183.168V182.996C105.07 182.333 105.204 181.628 105.204 180.917C105.191 180.625 105.082 180.345 104.892 180.122C104.703 179.9 104.445 179.746 104.159 179.686C103.916 179.703 103.683 179.791 103.49 179.94C103.297 180.089 103.153 180.292 103.076 180.523C102.851 181.103 102.746 181.722 102.768 182.344L102.535 188.914C102.574 190.59 102.298 192.26 101.723 193.835C101.661 193.966 101.551 194.069 101.416 194.121C101.281 194.174 101.131 194.173 100.997 194.118C100.87 194.061 100.771 193.957 100.721 193.829C100.67 193.7 100.672 193.556 100.726 193.429C101.237 191.967 101.482 190.425 101.452 188.877L101.71 182.319C101.675 181.57 101.806 180.822 102.092 180.129C102.262 179.648 102.598 179.243 103.04 178.988C103.482 178.733 104.001 178.644 104.502 178.737C105.004 178.831 105.456 179.101 105.777 179.498C106.097 179.895 106.265 180.394 106.25 180.904C106.283 181.771 106.132 182.635 105.807 183.439V183.599C105.101 185.687 104.619 187.844 104.368 190.033C104.306 190.618 104.306 191.208 104.368 191.793C104.438 192.334 104.592 192.861 104.823 193.355L105.02 193.86C105.892 196.246 106.076 198.83 105.549 201.315C105.413 201.906 105.254 202.472 105.118 203.05C104.758 204.056 104.543 205.108 104.478 206.175C104.45 207.51 104.885 208.815 105.709 209.866C105.805 209.965 105.859 210.097 105.859 210.235C105.859 210.373 105.805 210.505 105.709 210.604C105.591 210.665 105.459 210.69 105.327 210.678Z" fill="#E4D78D" stroke="black" stroke-width="0.25" stroke-miterlimit="10"/>
<path d="M99.5328 209.67H99.3359C99.2712 209.644 99.2122 209.606 99.1623 209.557C99.1124 209.509 99.0726 209.451 99.0452 209.387C99.0178 209.323 99.0033 209.254 99.0025 209.184C99.0017 209.115 99.0147 209.045 99.0407 208.981C101.825 201.42 102.543 193.253 101.12 185.322L100.972 184.682C100.443 182.632 100.443 180.482 100.972 178.432C101.072 178.076 101.3 177.769 101.612 177.571C101.75 177.489 101.903 177.437 102.063 177.42C102.222 177.403 102.383 177.421 102.535 177.472C103.089 177.707 103.531 178.148 103.765 178.703C104.978 182.549 105.307 186.621 104.725 190.612C104.335 193.733 104.426 196.894 104.995 199.987C105.131 200.529 105.278 201.058 105.438 201.537C106.004 203.147 106.226 204.857 106.09 206.557C106.069 206.687 106.002 206.806 105.9 206.889C105.798 206.973 105.669 207.017 105.537 207.012C105.395 206.991 105.267 206.917 105.178 206.805C105.089 206.693 105.046 206.552 105.057 206.409C105.18 204.874 104.97 203.329 104.442 201.882C104.282 201.341 104.122 200.799 103.999 200.332C103.395 197.119 103.287 193.833 103.679 190.588C104.235 186.773 103.898 182.882 102.695 179.219C102.603 178.949 102.421 178.718 102.178 178.567C102.101 178.651 102.046 178.753 102.018 178.863C101.538 180.731 101.538 182.691 102.018 184.559V185.187C103.466 193.3 102.71 201.653 99.8281 209.374C99.8028 209.442 99.7633 209.503 99.7124 209.554C99.6615 209.605 99.6002 209.644 99.5328 209.67Z" fill="#E4D78D" stroke="black" stroke-width="0.25" stroke-miterlimit="10"/>
<path d="M105.217 212.708C105.12 212.711 105.024 212.688 104.939 212.64C104.854 212.592 104.785 212.522 104.737 212.437C103.89 210.469 103.654 208.291 104.061 206.187C104.033 205.561 104.075 204.934 104.184 204.317C104.145 201.935 103.853 199.563 103.31 197.243C103.162 196.468 103.002 195.681 102.867 194.905V195.053L102.03 206.692C102.006 206.829 101.93 206.952 101.818 207.034C101.706 207.117 101.566 207.153 101.428 207.135C101.32 207.118 101.22 207.067 101.142 206.99C101.065 206.912 101.014 206.812 100.997 206.704L101.797 195.053C101.871 193.951 101.871 192.845 101.797 191.744C101.663 190.223 101.366 188.722 100.911 187.265C100.372 185.672 100.025 184.02 99.8774 182.344C99.8774 180.88 100.345 179.219 101.735 179.071H102.117L102.289 179.391C103.495 182.139 103.95 185.158 103.605 188.139V191.62C103.743 193.466 104.01 195.3 104.405 197.108C104.958 199.489 105.255 201.922 105.291 204.367C105.305 205.021 105.264 205.675 105.168 206.323C104.802 208.196 104.981 210.134 105.685 211.908C105.759 212.028 105.784 212.172 105.755 212.31C105.725 212.448 105.642 212.569 105.525 212.647C105.484 212.683 105.433 212.709 105.379 212.719C105.325 212.73 105.269 212.726 105.217 212.708ZM101.526 180.179C101.278 180.447 101.093 180.768 100.985 181.117C100.876 181.466 100.847 181.834 100.899 182.196C101.035 183.796 101.378 185.372 101.92 186.884L102.461 188.877V187.991C102.732 185.347 102.4 182.676 101.489 180.179H101.526Z" fill="#E4D78D" stroke="black" stroke-width="0.25" stroke-miterlimit="10"/>
<path d="M156.951 175.356C147.791 177.545 138.444 178.863 129.035 179.293C122.047 179.908 106.89 181.483 99.9261 182.012C99.9261 182.012 98.6958 182.012 98.6958 181.545C98.6958 181.077 99.9261 180.868 99.9261 180.868C106.865 179.834 121.912 178.247 128.912 177.325C138.185 175.715 147.59 174.985 157 175.147V175.356H156.951Z" fill="#9E885C" stroke="black" stroke-width="0.25" stroke-miterlimit="10"/>
<path d="M156.951 181.435C147.641 182.691 138.233 183.07 128.851 182.567C121.838 182.468 106.607 182.567 99.5941 182.382C99.5941 182.382 98.3638 182.382 98.3638 181.792C98.3638 181.201 99.5941 181.213 99.5941 181.213C106.619 180.881 121.74 180.807 128.802 180.586C138.167 179.917 147.575 180.123 156.902 181.201L156.951 181.435Z" fill="#9E885C" stroke="black" stroke-width="0.25" stroke-miterlimit="10"/>
<path d="M155.524 200.086C155.686 200.679 155.931 201.246 156.25 201.771C156.864 203.112 157.247 204.547 157.382 206.016C157.382 206.779 157.382 207.246 156.791 207.702C156.199 208.107 155.707 208.641 155.352 209.264C154.702 210.961 153.925 212.606 153.027 214.185C146.321 222.281 140.834 221.124 139.272 221.124C136.296 221.187 133.349 221.714 130.536 222.687C129.434 223.42 128.506 224.386 127.817 225.516C127.62 226.684 127.806 227.884 128.346 228.937C128.974 229.724 133.44 233.452 141.745 233.452C151.341 233.883 162.303 224.581 163.89 220.349C164.568 218.838 164.933 217.207 164.965 215.551C164.996 213.896 164.694 212.251 164.075 210.716C163.868 210.281 163.616 209.869 163.324 209.485C162.351 208.289 161.478 207.013 160.716 205.671C160.208 204.339 160.068 202.894 160.31 201.488C160.31 201.316 160.691 200.455 160.31 200.098C159.929 199.741 155.844 199.311 155.524 200.086Z" fill="#E0D93E"/>
<path d="M160.261 200.038C159.99 199.743 155.868 199.349 155.573 200.038C155.731 200.641 155.958 201.223 156.25 201.773C156.811 202.987 157.176 204.283 157.333 205.611C158.671 207.327 159.441 209.417 159.535 211.591C159.387 219.785 150.787 230.046 134.732 226.896C133.913 226.834 133.09 226.834 132.271 226.896C131.362 226.834 130.449 226.834 129.54 226.896C128.973 227.102 128.366 227.17 127.768 227.093C127.842 227.743 128.038 228.373 128.346 228.951C128.986 229.713 133.44 233.453 141.744 233.453C151.341 233.859 162.303 224.571 163.89 220.326C164.578 218.819 164.951 217.186 164.985 215.53C165.019 213.873 164.713 212.227 164.087 210.693C163.876 210.258 163.62 209.845 163.324 209.462C162.376 208.243 161.513 206.961 160.741 205.624C160.239 204.294 160.099 202.855 160.335 201.453C160.335 201.453 160.581 200.444 160.261 200.038Z" fill="#C3A12B"/>
<path d="M129.651 228.358C129.737 228.026 129.835 227.694 129.897 227.35C129.972 227.101 130.084 226.864 130.229 226.648C129.31 226.475 128.458 226.049 127.768 225.418C127.572 226.588 127.767 227.79 128.322 228.838C128.566 228.904 128.824 228.894 129.062 228.808C129.3 228.722 129.505 228.565 129.651 228.358Z" fill="#4D3D19"/>
<path d="M160.261 200.038C159.99 199.743 155.868 199.349 155.573 200.038C155.731 200.641 155.958 201.223 156.25 201.773C156.875 203.111 157.262 204.547 157.394 206.017C157.394 206.743 157.394 207.248 156.803 207.691C156.214 208.094 155.723 208.624 155.364 209.241C155.364 209.438 155.179 209.635 155.093 209.844C155.417 209.562 155.798 209.355 156.211 209.236C156.623 209.117 157.056 209.089 157.48 209.155C159.043 209.462 159.51 211.345 159.941 212.846C160.519 211.283 161.626 209.893 163.422 210.459C163.659 210.536 163.886 210.639 164.099 210.766C163.878 210.36 163.656 209.979 163.41 209.61C162.436 208.407 161.568 207.123 160.814 205.771C160.304 204.443 160.168 203.001 160.421 201.601C160.261 201.367 160.58 200.444 160.261 200.038Z" fill="#A6822E"/>
<path d="M160.26 200.037C159.2 199.74 158.099 199.62 157 199.68L157.258 199.914C159.719 200.997 159.276 204.281 159.19 206.471C159.19 208.157 159.817 209.842 159.707 211.479C159.731 211.724 159.731 211.972 159.707 212.217V212.623C160.285 211.06 161.38 209.658 163.201 210.162C163.434 210.248 163.657 210.36 163.865 210.495C163.644 210.089 163.41 209.683 163.164 209.264C162.181 208.084 161.315 206.811 160.58 205.463C160.056 204.134 159.911 202.686 160.162 201.279C160.162 201.279 160.58 200.443 160.26 200.037Z" fill="#8F6F28"/>
<path d="M157.063 200.541C157.558 200.872 158.157 201.012 158.748 200.935C159.287 200.74 159.81 200.501 160.311 200.221V200.074C160.04 199.828 156.164 199.409 155.623 200.074C156.113 200.198 156.593 200.354 157.063 200.541Z" fill="#4D3D19"/>
<path d="M164.088 210.827C163.867 210.394 163.608 209.982 163.312 209.597V209.474C162.842 208.936 162.43 208.351 162.082 207.727C161.676 207.136 161.233 206.496 160.852 205.82C160.32 204.493 160.179 203.041 160.446 201.637C160.446 201.464 160.815 200.615 160.446 200.246C159.944 200.061 159.417 199.953 158.883 199.926H158.711C157.481 199.816 155.967 199.926 155.758 200.246C155.872 200.841 156.088 201.412 156.398 201.932C156.684 202.571 156.926 203.229 157.124 203.9C157.088 204.191 157.148 204.485 157.296 204.737C157.433 205.197 157.516 205.672 157.542 206.152C157.585 206.46 157.553 206.773 157.451 207.066C157.348 207.359 157.177 207.624 156.952 207.837C156.365 208.252 155.87 208.784 155.5 209.4C155.5 209.597 155.303 209.831 155.242 209.99C154.713 211.085 154.011 212.931 153.187 214.358C146.469 222.466 140.884 221.26 139.469 221.334C136.49 221.403 133.54 221.93 130.721 222.896C129.623 223.562 128.693 224.471 128.002 225.554V225.726C127.817 226.897 128.016 228.097 128.568 229.146C131.568 231.568 135.196 233.083 139.026 233.514C139.949 233.514 140.933 233.674 141.979 233.674C151.575 234.08 162.537 224.791 164.124 220.547C164.779 219.009 165.113 217.354 165.107 215.683C165.1 214.012 164.753 212.36 164.088 210.827Z" stroke="black" stroke-width="0.25" stroke-miterlimit="10"/>
<path d="M171.469 219.709L171.678 217.249C171.148 218.157 170.735 219.128 170.448 220.14C169.632 218.703 168.728 217.318 167.741 215.994L167.901 218.319C166.795 217.036 165.315 216.133 163.669 215.735C165.54 217.64 166.954 219.946 167.803 222.477C168.184 224.062 168.785 225.586 169.587 227.005C170.817 228.752 172.958 229.736 173.954 231.582C173.804 230.451 173.527 229.341 173.13 228.272C173.995 228.382 174.831 228.657 175.591 229.084C174.632 227.15 173.387 225.371 171.9 223.806L174.262 222.871L171.924 222.047C171.248 221.739 171.469 220.423 171.469 219.709Z" fill="#43771C" stroke="black" stroke-width="0.25" stroke-miterlimit="10"/>
<path d="M161.319 218.479C159.536 219.086 158.002 220.262 156.952 221.825C156.287 222.822 155.844 224.015 155.266 224.95C154.44 226.157 153.704 227.424 153.064 228.739C152.725 229.372 152.521 230.068 152.464 230.784C152.407 231.499 152.498 232.219 152.732 232.898C153.654 234.903 156.336 235.543 158.723 235.629C161.895 235.745 165.064 235.329 168.098 234.399C169.025 234.164 169.895 233.746 170.657 233.169C173.77 230.56 172.466 225.86 170.903 223.326C168.738 220.226 166.191 216.978 161.319 218.479Z" fill="#DA0000" stroke="black" stroke-width="0.25" stroke-miterlimit="10"/>
<path d="M160.551 223.204C161.078 222.292 161.166 221.357 160.748 221.116C160.331 220.875 159.565 221.419 159.038 222.331C158.512 223.243 158.424 224.178 158.841 224.419C159.259 224.66 160.025 224.117 160.551 223.204Z" fill="#E0D93E" stroke="black" stroke-width="0.25" stroke-miterlimit="10"/>
<path d="M167.982 232.744C168.95 232.329 169.581 231.633 169.391 231.19C169.201 230.746 168.263 230.723 167.294 231.138C166.326 231.552 165.696 232.248 165.885 232.692C166.075 233.135 167.014 233.158 167.982 232.744Z" fill="#E0D93E" stroke="black" stroke-width="0.25" stroke-miterlimit="10"/>
<path d="M165.967 226.348C166.836 225.753 167.32 224.947 167.047 224.549C166.775 224.151 165.849 224.311 164.98 224.906C164.111 225.501 163.628 226.306 163.9 226.704C164.173 227.102 165.098 226.943 165.967 226.348Z" fill="#E0D93E" stroke="black" stroke-width="0.25" stroke-miterlimit="10"/>
<path d="M161.114 232.118C162.11 231.775 162.789 231.127 162.632 230.671C162.475 230.215 161.54 230.123 160.545 230.466C159.549 230.81 158.869 231.458 159.026 231.914C159.184 232.37 160.118 232.461 161.114 232.118Z" fill="#E0D93E" stroke="black" stroke-width="0.25" stroke-miterlimit="10"/>
<path d="M156.731 229.66C157.6 229.065 158.084 228.26 157.811 227.862C157.539 227.464 156.613 227.623 155.744 228.219C154.875 228.814 154.392 229.619 154.664 230.017C154.937 230.415 155.862 230.255 156.731 229.66Z" fill="#E0D93E" stroke="black" stroke-width="0.25" stroke-miterlimit="10"/>
<path d="M157.087 231.029L157.616 229.171C157.072 229.82 156.613 230.535 156.25 231.3C155.811 230.036 155.289 228.803 154.688 227.609L154.467 229.466C153.778 228.297 152.741 227.372 151.501 226.821C152.704 228.593 153.483 230.618 153.778 232.739C153.867 234.037 154.119 235.318 154.528 236.553C155.229 238.116 156.792 239.198 157.309 240.785C157.362 239.875 157.304 238.962 157.136 238.066C157.789 238.276 158.395 238.61 158.92 239.051C158.433 237.392 157.699 235.816 156.743 234.375L158.748 233.982L157.013 232.997C156.632 232.53 157.013 231.583 157.087 231.029Z" fill="#43771C" stroke="black" stroke-width="0.25" stroke-miterlimit="10"/>
<path d="M149.311 228.568C147.812 228.779 146.429 229.49 145.386 230.586C144.722 231.275 144.156 232.149 143.602 232.801C142.765 233.621 142.004 234.515 141.326 235.471C140.961 235.916 140.694 236.433 140.544 236.989C140.393 237.544 140.362 238.125 140.452 238.694C140.883 240.404 142.913 241.29 144.771 241.721C147.251 242.261 149.802 242.398 152.325 242.127C153.087 242.065 153.833 241.869 154.527 241.548C157.357 239.986 156.988 236.049 156.09 233.736C154.909 231.004 153.346 228.101 149.311 228.568Z" fill="#DA0000" stroke="black" stroke-width="0.25" stroke-miterlimit="10"/>
<path d="M147.984 232.199C148.531 231.558 148.735 230.834 148.441 230.583C148.146 230.331 147.464 230.647 146.917 231.288C146.37 231.93 146.166 232.653 146.461 232.904C146.756 233.156 147.438 232.84 147.984 232.199Z" fill="#E0D93E" stroke="black" stroke-width="0.25" stroke-miterlimit="10"/>
<path d="M152.436 240.804C153.258 240.619 153.855 240.162 153.77 239.784C153.685 239.406 152.949 239.251 152.127 239.436C151.305 239.622 150.708 240.079 150.794 240.456C150.879 240.834 151.614 240.99 152.436 240.804Z" fill="#E0D93E" stroke="black" stroke-width="0.25" stroke-miterlimit="10"/>
<path d="M151.81 235.487C152.58 235.145 153.077 234.581 152.92 234.227C152.763 233.873 152.011 233.863 151.241 234.205C150.471 234.547 149.974 235.111 150.131 235.465C150.288 235.819 151.04 235.829 151.81 235.487Z" fill="#E0D93E" stroke="black" stroke-width="0.25" stroke-miterlimit="10"/>
<path d="M147.134 239.302C147.967 239.177 148.596 238.765 148.538 238.382C148.48 237.999 147.758 237.79 146.925 237.916C146.092 238.041 145.463 238.453 145.521 238.836C145.579 239.219 146.301 239.428 147.134 239.302Z" fill="#E0D93E" stroke="black" stroke-width="0.25" stroke-miterlimit="10"/>
<path d="M144.039 236.726C144.809 236.384 145.306 235.82 145.149 235.466C144.992 235.112 144.24 235.103 143.47 235.444C142.7 235.786 142.203 236.35 142.36 236.704C142.517 237.058 143.269 237.068 144.039 236.726Z" fill="#E0D93E" stroke="black" stroke-width="0.25" stroke-miterlimit="10"/>
<path d="M176.882 231.299L177.399 229.441C176.834 230.068 176.354 230.767 175.971 231.52C175.532 230.257 175.01 229.024 174.409 227.829L174.2 229.687C173.513 228.521 172.481 227.597 171.247 227.042C172.446 228.815 173.236 230.832 173.56 232.948C173.635 234.249 173.879 235.535 174.286 236.774C174.987 238.336 176.55 239.419 177.066 241.006C177.126 240.096 177.068 239.182 176.894 238.287C177.547 238.496 178.153 238.831 178.678 239.271C178.196 237.611 177.462 236.034 176.501 234.596L178.506 234.202L176.783 233.206C176.414 232.861 176.759 231.865 176.882 231.299Z" fill="#43771C" stroke="black" stroke-width="0.25" stroke-miterlimit="10"/>
<path d="M169.082 228.937C167.581 229.143 166.194 229.849 165.145 230.943C164.493 231.632 163.915 232.505 163.361 233.157C162.524 233.978 161.763 234.871 161.085 235.827C160.716 236.27 160.448 236.787 160.3 237.344C160.151 237.901 160.125 238.483 160.224 239.051C160.642 240.761 162.684 241.659 164.554 242.077C167.021 242.624 169.561 242.761 172.072 242.483C172.842 242.437 173.595 242.236 174.286 241.893C177.104 240.33 176.747 236.405 175.849 234.08C174.705 231.3 173.117 228.384 169.082 228.937Z" fill="#DA0000" stroke="black" stroke-width="0.25" stroke-miterlimit="10"/>
<path d="M167.76 232.485C168.307 231.844 168.511 231.12 168.216 230.869C167.921 230.618 167.239 230.934 166.693 231.575C166.146 232.216 165.942 232.939 166.236 233.19C166.531 233.442 167.213 233.126 167.76 232.485Z" fill="#E0D93E" stroke="black" stroke-width="0.25" stroke-miterlimit="10"/>
<path d="M172.223 241.073C173.045 240.887 173.642 240.43 173.557 240.053C173.472 239.675 172.736 239.519 171.914 239.705C171.093 239.891 170.495 240.347 170.581 240.725C170.666 241.103 171.402 241.259 172.223 241.073Z" fill="#E0D93E" stroke="black" stroke-width="0.25" stroke-miterlimit="10"/>
<path d="M171.578 235.759C172.348 235.417 172.845 234.853 172.688 234.499C172.53 234.145 171.779 234.135 171.009 234.477C170.239 234.819 169.742 235.383 169.899 235.737C170.056 236.091 170.808 236.1 171.578 235.759Z" fill="#E0D93E" stroke="black" stroke-width="0.25" stroke-miterlimit="10"/>
<path d="M166.887 239.584C167.72 239.458 168.349 239.046 168.291 238.663C168.234 238.28 167.512 238.071 166.679 238.197C165.845 238.322 165.217 238.734 165.274 239.117C165.332 239.5 166.054 239.709 166.887 239.584Z" fill="#E0D93E" stroke="black" stroke-width="0.25" stroke-miterlimit="10"/>
<path d="M163.795 237.003C164.565 236.661 165.062 236.097 164.905 235.743C164.748 235.389 163.996 235.379 163.226 235.721C162.456 236.063 161.959 236.627 162.116 236.981C162.273 237.335 163.025 237.345 163.795 237.003Z" fill="#E0D93E" stroke="black" stroke-width="0.25" stroke-miterlimit="10"/>
<path d="M214.665 179.048H201.612V268.566H214.665V179.048Z" fill="#70C52E" stroke="black" stroke-width="0.25" stroke-miterlimit="10"/>
<path d="M231.865 193.344H218.812V268.59H231.865V193.344Z" fill="#E89F45" stroke="black" stroke-width="0.25" stroke-miterlimit="10"/>
<path d="M249.078 238.755H236.024V268.602H249.078V238.755Z" fill="#DA0000" stroke="black" stroke-width="0.25" stroke-miterlimit="10"/>
<path d="M266.252 197.97H253.199V268.602H266.252V197.97Z" fill="#70C52E" stroke="black" stroke-width="0.25" stroke-miterlimit="10"/>
<path d="M204.589 183.514C206.995 183.514 208.945 181.564 208.945 179.159C208.945 176.754 206.995 174.804 204.589 174.804C202.184 174.804 200.234 176.754 200.234 179.159C200.234 181.564 202.184 183.514 204.589 183.514Z" fill="white" stroke="black" stroke-width="0.25" stroke-miterlimit="10"/>
<path d="M200.738 181.028C201.21 182.064 202.074 182.87 203.14 183.269C204.206 183.668 205.386 183.628 206.422 183.157C207.37 182.694 208.127 181.915 208.563 180.954C205.979 180.425 203.312 180.45 200.738 181.028Z" fill="#70C52E" stroke="black" stroke-width="0.25" stroke-miterlimit="10"/>
<path d="M211.663 183.514C214.069 183.514 216.019 181.564 216.019 179.159C216.019 176.754 214.069 174.804 211.663 174.804C209.258 174.804 207.308 176.754 207.308 179.159C207.308 181.564 209.258 183.514 211.663 183.514Z" fill="white" stroke="black" stroke-width="0.25" stroke-miterlimit="10"/>
<path d="M207.591 180.623C207.77 181.155 208.052 181.646 208.421 182.069C208.79 182.491 209.239 182.837 209.742 183.086C210.244 183.335 210.791 183.483 211.351 183.52C211.911 183.558 212.473 183.485 213.004 183.305C213.963 182.984 214.778 182.335 215.305 181.472C212.785 180.834 210.189 180.548 207.591 180.623Z" fill="#70C52E" stroke="black" stroke-width="0.25" stroke-miterlimit="10"/>
<path d="M210.839 180.794C211.681 180.794 212.364 180.111 212.364 179.269C212.364 178.426 211.681 177.743 210.839 177.743C209.996 177.743 209.313 178.426 209.313 179.269C209.313 180.111 209.996 180.794 210.839 180.794Z" fill="black"/>
<path d="M203.075 180.794C203.918 180.794 204.601 180.111 204.601 179.269C204.601 178.426 203.918 177.743 203.075 177.743C202.233 177.743 201.55 178.426 201.55 179.269C201.55 180.111 202.233 180.794 203.075 180.794Z" fill="black"/>
<path d="M206.692 184.621C208.439 186.872 211.614 185.974 213.447 184.338C211.737 186.823 207.923 187.389 206.692 184.621Z" fill="black"/>
<path d="M256.188 202.756C258.594 202.756 260.544 200.806 260.544 198.4C260.544 195.995 258.594 194.045 256.188 194.045C253.783 194.045 251.833 195.995 251.833 198.4C251.833 200.806 253.783 202.756 256.188 202.756Z" fill="white" stroke="black" stroke-width="0.25" stroke-miterlimit="10"/>
<path d="M252.215 200.234C252.696 201.27 253.569 202.073 254.641 202.468C255.713 202.862 256.898 202.815 257.936 202.338C258.876 201.878 259.625 201.103 260.052 200.148C257.462 199.629 254.793 199.658 252.215 200.234Z" fill="#70C52E" stroke="black" stroke-width="0.25" stroke-miterlimit="10"/>
<path d="M263.3 202.756C265.706 202.756 267.655 200.806 267.655 198.4C267.655 195.995 265.706 194.045 263.3 194.045C260.895 194.045 258.945 195.995 258.945 198.4C258.945 200.806 260.895 202.756 263.3 202.756Z" fill="white" stroke="black" stroke-width="0.25" stroke-miterlimit="10"/>
<path d="M259.141 199.876C259.513 200.957 260.298 201.846 261.324 202.349C262.35 202.851 263.534 202.927 264.616 202.559C265.554 202.211 266.35 201.562 266.879 200.713C264.35 200.085 261.746 199.804 259.141 199.876Z" fill="#70C52E" stroke="black" stroke-width="0.25" stroke-miterlimit="10"/>
<path d="M262.463 200.038C263.306 200.038 263.989 199.354 263.989 198.512C263.989 197.669 263.306 196.986 262.463 196.986C261.621 196.986 260.938 197.669 260.938 198.512C260.938 199.354 261.621 200.038 262.463 200.038Z" fill="black"/>
<path d="M254.712 200.038C255.555 200.038 256.238 199.354 256.238 198.512C256.238 197.669 255.555 196.986 254.712 196.986C253.87 196.986 253.187 197.669 253.187 198.512C253.187 199.354 253.87 200.038 254.712 200.038Z" fill="black"/>
<path d="M258.366 203.913C260.175 206.164 263.287 205.279 265.071 203.63C263.287 206.066 259.597 206.693 258.366 203.913Z" fill="black"/>
<path d="M221.629 197.158C224.035 197.158 225.985 195.208 225.985 192.803C225.985 190.397 224.035 188.447 221.629 188.447C219.224 188.447 217.274 190.397 217.274 192.803C217.274 195.208 219.224 197.158 221.629 197.158Z" fill="white" stroke="black" stroke-width="0.25" stroke-miterlimit="10"/>
<path d="M228.74 197.158C231.145 197.158 233.095 195.208 233.095 192.803C233.095 190.397 231.145 188.447 228.74 188.447C226.335 188.447 224.385 190.397 224.385 192.803C224.385 195.208 226.335 197.158 228.74 197.158Z" fill="white" stroke="black" stroke-width="0.25" stroke-miterlimit="10"/>
<path d="M227.879 194.438C228.722 194.438 229.405 193.755 229.405 192.912C229.405 192.07 228.722 191.387 227.879 191.387C227.037 191.387 226.354 192.07 226.354 192.912C226.354 193.755 227.037 194.438 227.879 194.438Z" fill="black"/>
<path d="M220.153 194.438C220.995 194.438 221.678 193.755 221.678 192.912C221.678 192.07 220.995 191.387 220.153 191.387C219.31 191.387 218.627 192.07 218.627 192.912C218.627 193.755 219.31 194.438 220.153 194.438Z" fill="black"/>
<path d="M220.559 199.558C220.815 199.253 221.178 199.058 221.574 199.012C221.97 198.967 222.368 199.074 222.687 199.312L222.81 199.422C223.376 200.099 224.163 199.902 224.889 199.57C225.296 199.375 225.733 199.25 226.181 199.201C227.092 199.201 227.744 200.099 228.519 199.533C228.851 199.361 229.257 199.016 229.749 199.176C229.349 199.235 228.978 199.42 228.691 199.705C227.99 200.419 227.005 199.582 226.23 199.705C225.444 200.037 224.616 200.26 223.77 200.37C223.532 200.37 223.298 200.316 223.084 200.211C222.871 200.107 222.685 199.955 222.539 199.767C222.272 199.482 221.908 199.308 221.519 199.278C221.129 199.248 220.743 199.366 220.436 199.607L220.559 199.558Z" fill="black"/>
<path d="M239.026 244.046C241.431 244.046 243.381 242.096 243.381 239.69C243.381 237.285 241.431 235.335 239.026 235.335C236.62 235.335 234.67 237.285 234.67 239.69C234.67 242.096 236.62 244.046 239.026 244.046Z" fill="white" stroke="black" stroke-width="0.25" stroke-miterlimit="10"/>
<path d="M239.444 237.55C240.474 237.352 241.521 237.257 242.569 237.267C241.891 236.331 240.871 235.701 239.731 235.512C238.591 235.323 237.423 235.591 236.479 236.258C235.924 236.651 235.47 237.171 235.155 237.774C234.841 238.377 234.674 239.047 234.67 239.728C236.051 238.608 237.694 237.858 239.444 237.55Z" fill="#DA0000" stroke="black" stroke-width="0.25" stroke-miterlimit="10"/>
<path d="M246.1 244.046C248.505 244.046 250.455 242.096 250.455 239.69C250.455 237.285 248.505 235.335 246.1 235.335C243.695 235.335 241.745 237.285 241.745 239.69C241.745 242.096 243.695 244.046 246.1 244.046Z" fill="white" stroke="black" stroke-width="0.25" stroke-miterlimit="10"/>
<path d="M248.117 240.673C248.62 241.217 249.077 241.801 249.483 242.42C250.211 241.547 250.568 240.423 250.478 239.29C250.388 238.156 249.859 237.103 249.003 236.355C248.19 235.7 247.181 235.336 246.137 235.321C245.472 235.327 244.818 235.484 244.223 235.781C243.629 236.077 243.109 236.505 242.704 237.031C244.822 237.697 246.702 238.962 248.117 240.673Z" fill="#DA0000" stroke="black" stroke-width="0.25" stroke-miterlimit="10"/>
<path d="M245.263 241.327C246.105 241.327 246.788 240.644 246.788 239.801C246.788 238.958 246.105 238.275 245.263 238.275C244.42 238.275 243.737 238.958 243.737 239.801C243.737 240.644 244.42 241.327 245.263 241.327Z" fill="black"/>
<path d="M237.488 241.327C238.33 241.327 239.013 240.644 239.013 239.801C239.013 238.958 238.33 238.275 237.488 238.275C236.645 238.275 235.962 238.958 235.962 239.801C235.962 240.644 236.645 241.327 237.488 241.327Z" fill="black"/>
<path d="M241.584 248.043C242.085 247.358 242.834 246.896 243.671 246.756C244.508 246.615 245.366 246.808 246.063 247.293C246.519 247.605 246.887 248.029 247.133 248.523C246.478 247.721 245.533 247.209 244.503 247.101C243.472 246.993 242.441 247.296 241.634 247.945L241.584 248.043Z" fill="black"/>
<path d="M180.906 125.947C200.577 125.947 216.523 110.001 216.523 90.3295C216.523 70.6585 200.577 54.7119 180.906 54.7119C161.235 54.7119 145.288 70.6585 145.288 90.3295C145.288 110.001 161.235 125.947 180.906 125.947Z" fill="#95C0D5"/>
<path d="M213.816 103.347C212.584 103.815 211.222 103.815 209.99 103.347C209.215 103.03 208.518 102.547 207.949 101.933C207.379 101.319 206.951 100.588 206.693 99.7913C205.967 98.0074 205.905 95.9158 205.13 94.1319C204.281 92.3545 202.764 90.984 200.91 90.3179C199.973 90.0298 199.059 89.6678 198.179 89.2352C197.334 88.6772 196.403 88.2616 195.423 88.0049C194.634 87.8938 193.874 87.6279 193.188 87.2225C192.502 86.8172 191.903 86.2803 191.425 85.6427C191.252 85.4582 191.154 85.1629 190.908 85.0029C190.602 84.892 190.266 84.892 189.96 85.0029C189.384 85.2779 188.829 85.5945 188.3 85.9503C186.737 86.7869 185.962 84.3017 184.744 83.7972C184.35 83.6496 183.883 83.7972 183.514 83.5512C183.113 83.4238 182.732 83.2417 182.382 83.0098C181.697 82.444 181.117 81.7608 180.672 80.9921C179.657 79.4298 178.231 78.1781 176.55 77.375C175.014 76.649 173.326 76.303 171.629 76.3661C170.583 76.3661 168.897 76.3661 168.504 75.3081C168.291 74.0705 168.56 72.7985 169.254 71.7525C169.857 70.5221 170.817 69.5502 171.407 68.3322C171.609 67.9778 171.747 67.5904 171.813 67.188C171.813 66.7082 171.37 66.5851 171.1 66.2037C170.996 65.9584 170.943 65.6949 170.943 65.4286C170.943 65.1624 170.996 64.8988 171.1 64.6535C171.776 63.2612 172.868 62.1133 174.225 61.3686C175.996 60.3228 177.78 59.5723 179.564 58.4158C181.026 57.4013 182.279 56.1148 183.255 54.6265C174.801 54.0715 166.425 56.5432 159.626 61.5993C152.828 66.6554 148.05 73.9659 146.149 82.2224L146.432 82.5054C146.83 83.2269 147.053 84.0318 147.084 84.8553C147.022 85.2053 147.022 85.5634 147.084 85.9134C147.098 86.05 147.154 86.1789 147.244 86.2825C147.428 86.5162 147.613 86.2825 147.724 86.061C148.351 85.3105 147.957 84.2894 148.191 83.3297C148.465 82.411 149.009 81.5963 149.754 80.9921C150.708 80.2172 151.759 79.568 152.879 79.0605C153.547 78.7443 154.182 78.3609 154.773 77.9163L156.09 76.686C156.713 76.1695 157.475 75.8485 158.28 75.7633C159.013 75.8267 159.72 76.0719 160.334 76.4769C162.5 77.5631 164.588 78.7963 166.584 80.1678C167.59 80.8527 168.522 81.6402 169.365 82.5177C169.725 82.8027 170.02 83.1604 170.232 83.5675C170.444 83.9745 170.568 84.4218 170.595 84.8799C170.595 86.6393 168.688 87.3405 168.135 88.8415C167.839 89.6904 168.393 90.2318 168.787 90.8839C169.322 91.8719 169.735 92.9212 170.017 94.0089C170.232 94.8816 170.319 95.7809 170.275 96.6786C170.202 97.2745 170.079 97.863 169.906 98.438C169.685 99.1147 169.488 99.8036 169.316 100.493C169.122 101.067 169.03 101.671 169.045 102.277C169.328 104.061 172.17 101.981 173.007 101.6C173.864 101.115 174.827 100.849 175.812 100.825C176.778 100.85 177.734 101.033 178.642 101.366C179.562 101.715 180.4 102.251 181.101 102.942C181.802 103.633 182.351 104.462 182.714 105.377C183.373 107.177 183.899 109.024 184.289 110.901C184.639 113.002 185.746 114.901 187.401 116.241C188.668 116.929 190.144 117.126 191.548 116.794C192.833 116.499 194.176 116.572 195.423 117.003C196.42 117.483 197.527 118.406 197.342 119.624C197.006 120.744 196.282 121.708 195.3 122.343C194.65 122.901 193.945 123.392 193.196 123.807C197.898 122.094 202.184 119.405 205.772 115.917C209.36 112.429 212.169 108.22 214.013 103.568L213.816 103.347Z" fill="#79A2B2"/>
<path d="M207.037 105.573C203.347 104.564 202.005 100.885 200.615 97.7726C200.208 96.825 199.718 95.9151 199.151 95.0536C198.482 94.2988 197.75 93.6031 196.961 92.9744C195.414 91.6075 193.683 90.4644 191.818 89.5787C190.885 89.2218 189.89 89.0505 188.89 89.0743C187.971 89.185 187.042 89.185 186.122 89.0743C184.365 88.4337 182.799 87.3587 181.57 85.9493C180.708 85.2106 179.887 84.4262 179.109 83.5994C178.381 82.748 177.596 81.9465 176.759 81.2003C175.319 80.0525 173.636 79.2488 171.838 78.8504C171.36 78.8012 170.877 78.8012 170.399 78.8504C170.186 78.8076 169.967 78.8096 169.755 78.8562C169.543 78.9028 169.343 78.993 169.168 79.121C168.885 79.3917 169.587 80.5974 169.907 80.8927C170.549 81.5223 171.141 82.2011 171.678 82.9227C172.177 83.7646 172.503 84.6972 172.638 85.6663C173.019 87.8317 173.118 90.0709 173.634 92.187C173.964 93.2585 174.376 94.3032 174.865 95.312C175.195 96.4938 175.832 97.5675 176.71 98.4247C178.359 99.655 180.61 99.655 182.308 100.799C183.887 101.986 185.223 103.465 186.245 105.155C188.386 108.55 190.071 113.262 194.144 114.751C195.706 115.342 197.699 115.723 198.671 117.212C198.998 117.764 199.193 118.384 199.242 119.024C199.291 119.664 199.193 120.307 198.954 120.903C205.079 117.312 209.974 111.95 212.992 105.524C211.036 105.982 209.001 105.999 207.037 105.573Z" fill="#658A96"/>
<path d="M151.526 75.7021C153.863 74.4718 156.201 72.1219 159.19 72.8478C160.647 73.3143 161.952 74.1642 162.968 75.3084C164.013 76.2312 165.305 77.6706 166.917 77.5107C166.408 76.7557 165.96 75.9617 165.576 75.1362C165.472 74.6704 165.472 74.1874 165.577 73.7217C165.681 73.256 165.886 72.819 166.179 72.4418C167.097 71.4618 167.83 70.3239 168.344 69.083C168.526 67.9604 168.617 66.8247 168.615 65.6874C168.802 64.56 169.212 63.4812 169.82 62.5138C170.428 61.5464 171.223 60.7097 172.158 60.0525C173.407 59.2436 174.558 58.2942 175.591 57.2228C176.158 56.669 176.511 55.9325 176.587 55.1436C170.547 55.8796 164.796 58.1481 159.879 61.7336C154.963 65.319 151.046 70.1021 148.499 75.6283C149.114 76.7602 150.603 76.1573 151.526 75.7021Z" fill="#658A96"/>
<path d="M213.262 81.5943C212.994 82.986 213.286 84.4275 214.074 85.6051C214.742 86.4921 215.529 87.2828 216.412 87.955C216.19 84.544 215.49 81.1811 214.333 77.9648C213.854 79.1352 213.495 80.3513 213.262 81.5943Z" fill="#79A2B2"/>
<path d="M183.477 58.6125C182.405 59.4845 181.206 60.1859 179.921 60.6917C177.801 61.4571 175.823 62.567 174.065 63.9766C173.462 64.4688 172.502 65.5268 173.462 66.2035C174.421 66.8802 174.84 66.6095 175.406 67.1263C175.972 67.643 175.406 68.9225 174.84 69.4762C173.88 70.5711 172.674 71.4447 171.727 72.6012C170.78 73.7576 169.586 74.4589 170.165 75.4801C170.743 76.5013 172.108 75.4801 172.847 75.4801C173.446 75.3225 174.084 75.3972 174.631 75.6892C175.193 75.9853 175.787 76.2164 176.402 76.3782L177.965 76.5874C178.416 76.5987 178.86 76.7054 179.267 76.9004C179.674 77.0955 180.035 77.3746 180.327 77.7193C180.622 78.2506 180.977 78.746 181.385 79.1956C181.767 79.4248 182.119 79.7018 182.431 80.02C183.009 80.6474 182.763 81.4225 182.726 82.3699C182.707 82.6409 182.765 82.9119 182.893 83.1514C183.022 83.3909 183.216 83.5892 183.452 83.7232C183.799 83.8092 184.163 83.8092 184.51 83.7232C185.204 83.3533 185.928 83.0446 186.675 82.8005M186.675 82.8005C186.909 83.391 187.057 84.363 187.733 84.5967C188.193 84.6219 188.652 84.5287 189.065 84.3263C189.479 84.1238 189.834 83.8188 190.096 83.4402C191.011 82.2911 191.704 80.9808 192.138 79.577C192.704 78.3097 193.345 77.0773 194.057 75.8861C194.316 75.4021 194.687 74.9867 195.138 74.6744C195.59 74.362 196.109 74.1616 196.653 74.0898C196.524 74.5147 196.355 74.9265 196.149 75.3202C194.586 78.8881 190.391 84.9904 194.734 87.8078C196.217 88.7338 197.91 89.2711 199.655 89.3703C200.882 89.247 202.119 89.247 203.346 89.3703C203.904 89.5605 204.413 89.8706 204.838 90.2787C205.263 90.6868 205.594 91.183 205.807 91.7325C206.474 92.999 207.01 94.3306 207.406 95.7065C207.763 96.8138 208.181 97.921 208.501 99.0775C208.712 100.343 209.176 101.552 209.867 102.633C210.056 102.89 210.331 103.072 210.642 103.146C210.952 103.221 211.279 103.183 211.565 103.039C212.134 102.628 212.563 102.053 212.795 101.391C213.34 100.21 213.753 98.9716 214.025 97.6996C214.47 96.1793 214.64 94.5921 214.53 93.0121C214.2 91.291 213.606 89.6311 212.77 88.0908C211.878 86.723 211.194 85.2304 210.74 83.6617C210.717 83.1297 210.801 82.5984 210.986 82.0992C211.297 81.2714 211.54 80.4196 211.712 79.5524C212.071 77.935 212.277 76.2873 212.327 74.6312C212.413 73.6518 212.166 72.6722 211.626 71.8507C209.004 67.4901 205.449 63.7645 201.216 60.9417C196.982 58.1188 192.176 56.2687 187.143 55.5244C186.758 55.4599 186.362 55.5192 186.013 55.6939C185.663 55.8685 185.378 56.1495 185.199 56.4963C184.766 57.4067 184.184 58.2384 183.477 58.957L186.675 82.8005Z" fill="#719724"/>
<path d="M187.008 57.8864C186.367 58.9324 185.58 59.8812 184.67 60.7039C183.932 61.3067 183.034 61.6758 182.32 62.2664C181.862 62.5634 181.476 62.9584 181.188 63.4229C181.093 63.5349 181.024 63.6676 180.988 63.8106C180.951 63.9535 180.949 64.1029 180.979 64.2472C181.024 64.5231 181.116 64.7894 181.25 65.0346C181.339 66.1329 181.248 67.2384 180.979 68.3072C180.876 68.753 180.867 69.2157 180.954 69.6651C181.041 70.1144 181.221 70.5405 181.484 70.9155C182.27 71.6908 183.141 72.3758 184.08 72.9578C185.002 73.7353 185.731 74.7167 186.208 75.8244C186.577 76.5995 186.946 77.8052 188.004 77.8914C189.062 77.9775 190.207 76.661 190.908 75.8244C191.609 74.9878 192.692 73.2285 193.639 71.9489C194.292 70.8722 195.229 69.9956 196.346 69.4145C196.815 69.2246 197.332 69.1842 197.825 69.2987C198.318 69.4132 198.764 69.677 199.102 70.0543C199.704 71.068 199.922 72.2642 199.717 73.4253C199.508 74.9357 199.188 76.4285 198.757 77.8914C198.313 79.074 198.059 80.3199 198.007 81.5823C198.007 83.5631 201.132 84.0429 202.571 84.695C204.86 85.5937 206.8 87.202 208.108 89.2841C208.725 90.2426 209.174 91.2994 209.437 92.4091C209.719 93.4918 209.818 94.599 210.015 95.7063C210.212 96.8136 210.593 97.8225 211.577 97.6748C212.082 97.6748 212.119 96.8136 212.143 96.4445C212.105 95.0064 211.898 93.5778 211.528 92.1876C211.073 90.416 210.298 88.8535 209.732 87.1433C208.661 83.4798 208.661 79.5864 209.732 75.9229C210.125 74.6187 210.433 73.3023 210.704 71.9735V70.4357C208.188 66.6183 204.932 63.3446 201.128 60.8086C197.324 58.2726 193.049 56.5259 188.558 55.6719C187.938 56.332 187.416 57.0778 187.008 57.8864Z" fill="#80A52A"/>
<path d="M189.678 57.2219C189.198 58.5717 188.583 59.87 187.845 61.0974C187.087 61.9967 186.556 63.0639 186.294 64.2101C186.313 64.8189 186.461 65.4168 186.728 65.964C186.995 66.5113 187.376 66.9955 187.845 67.3843C188.297 67.8749 188.824 68.2902 189.407 68.6147C189.997 68.7626 190.614 68.7626 191.203 68.6147C193.16 68.2333 194.747 66.6831 196.531 66.2524C197.579 66.1246 198.642 66.2863 199.605 66.7201C200.568 67.1539 201.394 67.8432 201.993 68.7131C202.628 69.5497 203.039 70.5351 203.185 71.5754C203.332 72.6156 203.209 73.676 202.83 74.6555C202.129 76.218 200.246 78.3464 201.833 79.8843C202.605 80.6082 203.513 81.1726 204.503 81.5453C204.736 81.6549 204.99 81.7118 205.247 81.7118C205.505 81.7118 205.759 81.6549 205.992 81.5453C206.245 81.3859 206.463 81.1776 206.634 80.9325C206.806 80.6874 206.926 80.4105 206.988 80.1181C207.173 79.0185 207.173 77.8958 206.988 76.7962C206.771 75.5774 206.652 74.3432 206.632 73.1053C206.631 71.8182 206.851 70.5406 207.284 69.3282C207.505 68.5531 207.8 67.7657 208.022 66.9783C207.508 66.344 206.944 65.7516 206.336 65.2067C201.933 60.7776 196.402 57.6377 190.342 56.127C190.066 56.4559 189.842 56.8252 189.678 57.2219Z" fill="#9EC236"/>
<path d="M193.763 120.239C193.029 120.403 192.285 120.518 191.536 120.583C189.821 120.837 188.071 120.698 186.418 120.177C185.174 119.488 184.216 118.381 183.711 117.052C183.424 116.252 183.095 115.468 182.727 114.702C182.23 113.902 181.63 113.17 180.943 112.525C179.926 111.219 179.128 109.756 178.58 108.194C178.392 107.376 178.099 106.586 177.707 105.844C177.486 105.398 177.151 105.019 176.736 104.745C176.321 104.47 175.841 104.31 175.345 104.282C174.426 104.3 173.524 104.532 172.71 104.959C171.897 105.386 171.194 105.996 170.657 106.742C169.784 107.85 169.095 109.105 168.295 110.286C167.906 110.836 167.392 111.286 166.796 111.598C166.199 111.911 165.536 112.076 164.862 112.082C164.078 112.107 163.297 111.962 162.573 111.659C161.849 111.355 161.199 110.899 160.667 110.323C160.335 109.72 159.757 108.76 160.076 108.096C160.396 107.431 161.122 107.37 161.639 107.222C162.777 107.014 163.846 106.528 164.752 105.807C165.738 104.932 166.54 103.87 167.114 102.682C168.206 100.671 168.938 98.4857 169.279 96.2231C169.431 95.0306 169.165 93.8224 168.529 92.8029C168.246 92.2984 167.889 91.8309 167.631 91.3388L166.732 89.7394C166.13 88.6338 165.146 87.7854 163.964 87.3526C163.294 87.0944 162.603 86.8967 161.897 86.762H160.507C159.905 86.8122 159.299 86.7238 158.735 86.5037C158.247 86.2641 157.716 86.126 157.173 86.0977C156.79 86.1931 156.433 86.373 156.129 86.6242C155.824 86.8754 155.58 87.1915 155.414 87.5494C154.405 89.0996 154.023 91.105 153.051 92.8644C152.535 93.824 151.267 95.485 149.926 94.9313C148.585 94.3777 148.462 92.5691 148.167 91.6218C147.976 90.8324 147.665 90.0771 147.244 89.3826C146.974 88.9766 146.42 88.5337 145.866 88.8413C145.612 89.0367 145.445 89.3237 145.399 89.641C145.197 96.6493 147.026 103.567 150.665 109.56C150.989 110.216 151.464 110.787 152.049 111.228C152.634 111.668 153.315 111.964 154.036 112.094C154.89 112.4 155.8 112.521 156.705 112.451C157.296 112.302 157.919 112.354 158.477 112.599C159.314 113.115 159.092 114.383 158.994 115.305C158.945 115.891 158.945 116.479 158.994 117.065C159.068 117.449 159.233 117.811 159.474 118.119C159.716 118.427 160.028 118.673 160.384 118.836C161.396 119.286 162.44 119.656 163.509 119.944C164.506 120.313 165.453 120.842 166.634 121.174C168.752 121.655 170.938 121.763 173.093 121.494C174.147 121.532 175.194 121.676 176.218 121.924C177.419 122.076 178.608 122.314 179.774 122.638C180.78 123.132 181.825 123.544 182.899 123.868C183.93 124.028 184.98 124.028 186.012 123.868C187.045 123.716 188.054 123.431 189.013 123.019C189.789 122.736 190.576 122.355 191.351 122.121C192.126 121.888 193.123 121.715 193.972 121.445C194.797 121.271 195.547 120.841 196.112 120.214C195.337 120.05 194.535 120.059 193.763 120.239Z" fill="#719724"/>
<path d="M153.396 110.212C154.611 110.668 155.881 110.962 157.173 111.086C157.85 111.086 158.945 111.086 159.031 110.274C159.032 109.628 158.88 108.992 158.588 108.416C158.244 107.565 158.044 106.663 157.997 105.746C158.023 104.93 158.211 104.127 158.551 103.384C159.452 101.975 160.583 100.727 161.897 99.6932C162.591 99.1615 163.167 98.4928 163.59 97.7287C164.013 96.9645 164.275 96.1214 164.358 95.2518C164.244 94.3626 163.858 93.5305 163.252 92.8696C162.646 92.2088 161.851 91.7516 160.975 91.5608C158.612 91.0441 157.481 92.8896 156.25 94.735C155.402 96.0963 154.237 97.2318 152.855 98.0446C152.251 98.4116 151.55 98.5838 150.845 98.5376C150.141 98.4913 149.468 98.229 148.918 97.7862C147.503 96.5559 146.9 94.6612 145.596 93.4186C145.914 98.9126 147.515 104.256 150.271 109.019C151.26 109.542 152.31 109.943 153.396 110.212Z" fill="#80A52A"/>
<path d="M161.381 114.641C161.465 115.176 161.656 115.688 161.941 116.149C162.226 116.61 162.6 117.009 163.041 117.323C163.821 117.837 164.741 118.099 165.674 118.073M165.674 118.073C168.099 118.651 170.569 119.021 173.056 119.18C175.391 119.291 177.687 119.821 179.835 120.743C180.719 121.268 181.641 121.729 182.591 122.121C183.094 122.29 183.623 122.369 184.154 122.355H184.634C184.634 122.355 184.633 122.035 184.461 121.949C183.952 121.487 183.4 121.075 182.813 120.718C182.062 120.115 181.403 119.407 180.856 118.615C179.737 117.052 179.085 115.182 178.002 113.472C176.919 111.762 175.652 109.781 173.708 109.904C171.764 110.027 171.088 111.466 170.017 112.278C168.554 113.491 166.746 114.214 164.85 114.345C164.059 114.32 163.27 114.246 162.488 114.124C161.946 113.939 161.098 113.853 161.258 114.628L165.674 118.073Z" fill="#80A52A"/>
<path d="M150.972 106.779C151.519 107.051 152.15 107.101 152.733 106.917C153.315 106.734 153.804 106.331 154.097 105.795C154.578 104.612 155.229 103.506 156.028 102.51C156.818 101.87 157.555 101.166 158.231 100.406C158.409 100.212 158.545 99.9825 158.63 99.7325C158.715 99.4825 158.746 99.2175 158.723 98.9546C158.72 98.7749 158.648 98.6033 158.522 98.4751C158.396 98.3469 158.226 98.2719 158.046 98.2656H157.849C157.098 98.5194 156.389 98.8843 155.745 99.3483C155.012 99.9653 154.122 100.366 153.174 100.505C152.117 100.578 151.055 100.444 150.049 100.111C148.961 99.8273 147.838 99.707 146.715 99.7543C147.219 101.79 147.941 103.766 148.868 105.648C149.458 106.202 150.184 106.592 150.972 106.779Z" fill="#9EC236"/>
<path d="M173.474 112.992C172.736 113.659 171.908 114.218 171.014 114.653C170.485 114.936 169.894 115.084 169.23 115.379C168.565 115.674 167.667 116.253 168.541 116.609C169.124 116.745 169.73 116.745 170.312 116.609C171.682 116.471 173.066 116.661 174.348 117.163C174.89 117.388 175.455 117.553 176.033 117.655H176.87C177.042 117.655 176.87 117.028 176.87 116.782C176.459 116.075 175.972 115.415 175.418 114.813C174.899 114.216 174.303 113.691 173.647 113.251L173.474 112.992Z" fill="#9EC236"/>
<path d="M158.317 80.5C157.612 80.6506 156.957 80.9764 156.41 81.4473C155.731 82.0604 154.936 82.5329 154.073 82.8376C153.458 83.0344 152.843 83.0467 152.289 83.2313C151.594 83.3919 150.972 83.7767 150.517 84.3262C150.001 85.1629 151.059 85.7411 151.748 85.9995C152.132 86.1386 152.543 86.193 152.95 86.1591C153.358 86.1251 153.753 86.0035 154.11 85.8026C154.714 85.4069 155.352 85.0652 156.017 84.7815H156.398C157.702 85.7165 159.523 84.7815 160.864 84.966C162.205 85.1506 163.473 85.8395 164.863 86.0364C166.253 86.2332 167.631 86.307 167.988 84.966C168.345 83.625 167.422 83.1821 166.671 82.6038C164.601 81.26 162.229 80.4525 159.769 80.2539C159.277 80.2798 158.79 80.3623 158.317 80.5Z" fill="#719724"/>
<path d="M180.906 125.947C200.577 125.947 216.523 110.001 216.523 90.3295C216.523 70.6585 200.577 54.7119 180.906 54.7119C161.235 54.7119 145.288 70.6585 145.288 90.3295C145.288 110.001 161.235 125.947 180.906 125.947Z" stroke="black" stroke-width="0.25" stroke-miterlimit="10"/>
<path d="M138.952 48.9053L144.094 54.2079L151.403 52.9653L147.933 59.5229L151.403 66.0559L144.094 64.8379L138.927 70.1159L137.857 62.7955L131.188 59.4737L137.857 56.2379L138.952 48.9053Z" fill="#FFFF3C" stroke="#7E6217" stroke-width="0.5" stroke-miterlimit="10"/>
<path d="M209.559 119.145L212.574 127.363L221.112 129.491L214.235 134.929L214.825 143.702L207.505 138.817L199.397 142.09L201.759 133.65L196.137 126.908L204.909 126.576L209.559 119.145Z" fill="#FFFF3C" stroke="#7E6217" stroke-width="0.5" stroke-miterlimit="10"/>
<path d="M136.467 70.1277C133.048 73.8212 130.24 78.0368 128.15 82.6154C126.943 85.7182 126.145 88.9647 125.775 92.2734C125.093 99.1281 125.903 106.049 128.15 112.561C130.081 118.291 133.219 123.54 137.353 127.953C142.788 133.429 149.848 137.002 157.481 138.14C149.536 137.713 141.939 134.741 135.815 129.663C130.845 125.361 126.859 120.04 124.127 114.062C121.312 107.955 119.719 101.355 119.439 94.6356C119.104 87.9956 120.265 81.3651 122.835 75.2335C124.524 70.7456 127.383 66.7909 131.115 63.7793C131.499 64.5032 131.641 65.3309 131.521 66.1415C131.435 66.5844 131.435 67.0397 131.521 67.4825C131.534 67.7062 131.615 67.9205 131.754 68.0965C131.892 68.2725 132.082 68.4017 132.296 68.4668C132.572 68.4958 132.849 68.4307 133.083 68.2822C133.814 67.8896 134.628 67.6786 135.458 67.6671C135.489 68.0111 135.439 68.3577 135.31 68.6784C135.182 68.9991 134.98 69.285 134.72 69.5126C134.465 69.7451 134.268 70.0346 134.146 70.3574C134.025 70.6802 133.981 71.0273 134.018 71.3703C134.87 71.0306 135.69 70.6147 136.467 70.1277Z" fill="#FFFF3C" stroke="#7E6217" stroke-width="0.5" stroke-linejoin="round"/>
<path d="M220.288 116.117C219.958 116.166 219.622 116.166 219.292 116.117C219.322 115.803 219.471 115.512 219.71 115.305C221.946 113.229 224.03 110.997 225.948 108.624C226.544 107.622 227.066 106.578 227.51 105.499C228.45 103.284 229.168 100.98 229.651 98.6219C230.57 93.7494 230.641 88.7547 229.86 83.8581C229.16 78.8829 227.656 74.0545 225.406 69.5619C223.268 65.2194 220.348 61.3075 216.794 58.0215C211.059 52.8775 203.821 49.7156 196.149 49.0033C204.106 48.9672 211.866 51.4762 218.295 56.1637C221.703 58.7367 224.727 61.7815 227.276 65.2066C233.127 73.2856 236.508 82.8891 237.008 92.8517C237.499 100.314 235.951 107.769 232.53 114.419C230.804 117.298 228.828 120.02 226.624 122.552H226.44C226.132 121.727 226.907 120.854 226.907 119.931C225.886 120.189 224.836 120.313 223.782 120.3C223.429 120.349 223.07 120.266 222.773 120.066C222.22 119.648 222.318 118.836 222.441 118.135L223.007 115.293C222.161 115.736 221.238 116.016 220.288 116.117Z" fill="#FFFF3C" stroke="#7E6217" stroke-width="0.5" stroke-miterlimit="10"/>
<path d="M188.459 61.9465C191.408 61.9465 193.799 60.2885 193.799 58.2433C193.799 56.198 191.408 54.54 188.459 54.54C185.51 54.54 183.12 56.198 183.12 58.2433C183.12 60.2885 185.51 61.9465 188.459 61.9465Z" fill="#E06FA2"/>
<path d="M167.602 65.3991C170.401 64.515 172.173 62.2225 171.559 60.2787C170.945 58.3349 168.178 57.4759 165.379 58.36C162.58 59.2442 160.808 61.5367 161.422 63.4805C162.036 65.4243 164.803 66.2833 167.602 65.3991Z" fill="#E06FA2"/>
<path d="M174.139 60.6554C174.816 63.5958 177.658 66.9054 179.737 62.9561C180.124 61.9932 180.385 60.9841 180.512 59.9541C180.683 61.0371 180.599 62.1452 180.266 63.1898C180.167 63.7894 179.875 64.3403 179.434 64.7588C178.993 65.1774 178.428 65.4407 177.824 65.5089C177.22 65.5771 176.611 65.4464 176.088 65.1367C175.565 64.8269 175.157 64.3551 174.927 63.7927C174.411 62.8362 174.14 61.7667 174.139 60.68V60.6554Z" fill="black"/>
<path d="M188.681 50.1592H178.838C177.288 50.1592 177.079 51.3895 177.054 52.8536H176.304C176.304 51.2911 175.91 50.1592 174.409 50.1592H164.862C164.401 50.1624 163.959 50.3479 163.634 50.6752C163.309 51.0025 163.127 51.445 163.127 51.9062V54.1331C163.125 54.9022 163.275 55.664 163.568 56.3751C163.861 57.0863 164.291 57.7328 164.834 58.2777C165.376 58.8227 166.021 59.2554 166.731 59.5512C167.441 59.847 168.202 60.0001 168.971 60.0017H171.567C172.849 60.0017 174.079 59.4923 174.986 58.5855C175.893 57.6788 176.402 56.4489 176.402 55.1666V54.2192H177.14V55.1666C177.137 55.7983 177.258 56.4245 177.497 57.0094C177.736 57.5942 178.087 58.1264 178.532 58.5753C178.976 59.0243 179.505 59.3814 180.087 59.6261C180.67 59.8709 181.294 59.9985 181.926 60.0017H184.547C185.316 60.0001 186.077 59.847 186.787 59.5512C187.497 59.2554 188.142 58.8227 188.684 58.2777C189.227 57.7328 189.657 57.0863 189.95 56.3751C190.242 55.664 190.392 54.9022 190.391 54.1331V51.9062C190.394 51.4482 190.216 51.0076 189.896 50.6803C189.575 50.353 189.139 50.1657 188.681 50.1592Z" fill="black"/>
<path d="M64.7149 142.446C65.0212 142.63 65.3592 142.756 65.7114 142.815H75.9231C76.1239 142.826 76.3248 142.793 76.5117 142.719C76.6986 142.645 76.8672 142.531 77.0057 142.385C77.1399 142.227 77.2389 142.042 77.2961 141.842C77.3534 141.643 77.3676 141.434 77.3379 141.228C74.8035 126.465 64.7272 116.339 49.9142 113.805C49.7165 113.767 49.5128 113.775 49.3187 113.828C49.1246 113.882 48.9453 113.979 48.7946 114.112C48.6303 114.229 48.4996 114.388 48.4154 114.571C48.3312 114.755 48.2966 114.957 48.3148 115.158V125.32C48.388 125.673 48.5123 126.013 48.6839 126.329C48.7678 126.504 48.8918 126.656 49.0458 126.774C49.1997 126.891 49.3792 126.971 49.5697 127.006C59.117 129.22 61.8729 132.038 64.1366 141.597C64.1662 141.772 64.2331 141.939 64.3329 142.085C64.4327 142.232 64.563 142.355 64.7149 142.446Z" fill="#F6E135" stroke="#984911" stroke-width="0.25" stroke-linejoin="round"/>
<path d="M7.38178 142.237C7.46619 142.436 7.60893 142.605 7.79122 142.721C7.97351 142.837 8.18678 142.896 8.40294 142.889H19.0821C19.4154 142.81 19.7321 142.672 20.0171 142.483C20.1289 142.41 20.2239 142.314 20.296 142.201C20.3681 142.089 20.4156 141.963 20.4354 141.831C22.5885 132.111 25.5166 129.171 35.1992 126.956C35.474 126.895 35.7156 126.732 35.8759 126.501C36.0477 126.187 36.1878 125.858 36.2942 125.517V114.96C36.2853 114.777 36.2354 114.597 36.1481 114.436C36.0608 114.274 35.9384 114.134 35.7898 114.025H35.679C35.4189 113.874 35.1172 113.809 34.8178 113.841C19.8941 116.351 9.75629 126.538 7.23414 141.486C7.20599 141.615 7.20456 141.748 7.22996 141.877C7.25536 142.006 7.30704 142.128 7.38178 142.237Z" fill="#F6E135" stroke="#984911" stroke-width="0.25" stroke-linejoin="round"/>
<path d="M64.1363 156.004C61.9463 165.589 59.1166 168.467 49.557 170.682C49.1874 170.781 48.8675 171.013 48.6589 171.334C48.4872 171.655 48.3629 171.999 48.2898 172.355V182.641C48.2827 182.844 48.3262 183.046 48.4164 183.229C48.5066 183.411 48.6406 183.568 48.8065 183.686C48.9526 183.802 49.1209 183.885 49.301 183.932C49.481 183.978 49.6688 183.987 49.8523 183.957C64.6161 181.496 74.7662 171.506 77.3129 156.607C77.3556 156.383 77.3395 156.152 77.2662 155.937C77.1929 155.721 77.0648 155.528 76.8946 155.377L76.747 155.242C76.4891 155.021 76.1635 154.895 75.8243 154.885H65.7111C65.3642 154.97 65.0294 155.098 64.7145 155.266C64.4414 155.437 64.2368 155.698 64.1363 156.004Z" fill="#F6E135" stroke="#984911" stroke-width="0.25" stroke-linejoin="round"/>
<path d="M19.8208 155.131C19.5136 154.971 19.1869 154.851 18.8488 154.774H8.85867C8.49356 154.777 8.14097 154.908 7.86212 155.144C7.68403 155.315 7.54723 155.525 7.46199 155.757C7.37675 155.99 7.34529 156.238 7.36999 156.485C10.0398 171.162 19.9684 181.152 34.683 183.711C34.8946 183.759 35.114 183.761 35.3262 183.716C35.5385 183.671 35.7387 183.582 35.9133 183.453C36.1906 183.199 36.3692 182.854 36.4177 182.481V172.306C36.3356 171.97 36.216 171.644 36.0609 171.334C35.8497 171.013 35.5242 170.785 35.1505 170.695C25.554 168.492 22.6751 165.712 20.4605 156.128C20.4264 155.927 20.3521 155.736 20.2422 155.564C20.1323 155.393 19.9889 155.246 19.8208 155.131Z" fill="#F6E135" stroke="#984911" stroke-width="0.25" stroke-linejoin="round"/>
<path d="M16.4986 156.902L16.2894 156.804C16.108 156.73 15.9178 156.681 15.7235 156.656H10.8761C10.6196 156.66 10.372 156.751 10.1748 156.915C10.0296 157.028 9.92077 157.182 9.86175 157.357C9.80274 157.532 9.79608 157.72 9.8426 157.899C10.9219 163.194 13.5489 168.049 17.3907 171.849C21.2325 175.649 26.116 178.223 31.4223 179.245C31.5816 179.286 31.7493 179.281 31.906 179.231C32.0627 179.181 32.2021 179.088 32.3081 178.962C32.4226 178.872 32.5129 178.756 32.5709 178.623C32.6289 178.489 32.6528 178.344 32.6403 178.199V173.13C32.6412 172.93 32.5764 172.736 32.4558 172.577V172.453C32.3859 172.335 32.2916 172.234 32.1791 172.155C32.0666 172.077 31.9386 172.023 31.8037 171.998C28.2919 171.118 25.0728 169.331 22.4689 166.815C19.8649 164.3 17.9673 161.144 16.9661 157.665C16.947 157.512 16.8955 157.365 16.8148 157.233C16.7342 157.102 16.6264 156.989 16.4986 156.902Z" fill="#F9EB87"/>
<path d="M65.5018 157.985C64.5407 161.492 62.6686 164.683 60.0756 167.232C57.4826 169.782 54.261 171.6 50.738 172.502C50.6066 172.528 50.4825 172.582 50.3741 172.661C50.2658 172.74 50.1758 172.841 50.1105 172.958L50.0244 173.093C49.8929 173.261 49.8273 173.471 49.8398 173.683V178.666C49.8223 178.809 49.8413 178.954 49.8951 179.087C49.9489 179.221 50.0357 179.338 50.1474 179.429C50.2625 179.554 50.4086 179.645 50.5706 179.695C50.7327 179.745 50.9051 179.751 51.0702 179.712C56.3744 178.671 61.255 176.092 65.1033 172.296C68.9517 168.5 71.5977 163.656 72.7114 158.366C72.7261 158.188 72.7018 158.009 72.6402 157.841C72.5786 157.673 72.4811 157.52 72.3546 157.394C72.1499 157.235 71.9002 157.145 71.641 157.136H66.7198C66.5371 157.135 66.358 157.187 66.203 157.283L66.0185 157.382C65.8924 157.437 65.7804 157.52 65.6909 157.624C65.6014 157.728 65.5368 157.852 65.5018 157.985Z" fill="#F9EB87"/>
<path d="M16.8308 139.973C17.79 136.464 19.6613 133.27 22.2544 130.718C24.8476 128.166 28.0701 126.346 31.5946 125.443C31.8502 125.369 32.0747 125.213 32.2344 125V124.853C32.3558 124.688 32.4244 124.491 32.4312 124.287V119.341C32.4158 119.057 32.3028 118.788 32.1113 118.578C31.9961 118.465 31.8559 118.38 31.7021 118.331C31.5482 118.282 31.385 118.27 31.2255 118.295C25.9345 119.337 21.0659 121.91 17.2233 125.693C13.3807 129.477 10.7331 134.305 9.60889 139.579C9.57219 139.759 9.58613 139.944 9.64915 140.116C9.71218 140.288 9.82178 140.439 9.96568 140.551C10.0575 140.638 10.1657 140.706 10.2841 140.75C10.4024 140.795 10.5284 140.815 10.6547 140.81H15.5759C15.7761 140.812 15.9727 140.757 16.1419 140.65L16.2772 140.515C16.5222 140.408 16.7193 140.216 16.8308 139.973Z" fill="#F9EB87"/>
<path d="M65.81 140.257L65.9945 140.355C66.1526 140.454 66.3375 140.502 66.5236 140.491H71.4448C71.5741 140.497 71.7032 140.476 71.8239 140.429C71.9446 140.382 72.0543 140.311 72.1461 140.22C72.2794 140.102 72.38 139.952 72.4382 139.784C72.4964 139.616 72.5102 139.435 72.4783 139.26C71.4087 133.956 68.782 129.091 64.9337 125.286C61.0855 121.482 56.1904 118.911 50.874 117.902C50.7106 117.87 50.5418 117.878 50.3827 117.928C50.2237 117.977 50.0796 118.066 49.9635 118.185C49.854 118.275 49.7677 118.391 49.7121 118.521C49.6564 118.652 49.6329 118.794 49.6436 118.936V123.943C49.6316 124.15 49.6926 124.355 49.8159 124.521L49.9143 124.657C49.9636 124.79 50.0459 124.908 50.1535 125.001C50.2611 125.093 50.3905 125.157 50.5295 125.186C54.0482 126.092 57.2658 127.911 59.8578 130.457C62.4497 133.004 64.3246 136.189 65.2933 139.691C65.3365 139.815 65.4047 139.93 65.4935 140.027C65.5823 140.124 65.69 140.203 65.81 140.257Z" fill="#F9EB87"/>
<path d="M44.2296 107.246H40.3787C39.3255 107.246 38.4717 108.1 38.4717 109.153V130.782C38.4717 131.835 39.3255 132.689 40.3787 132.689H44.2296C45.2828 132.689 46.1365 131.835 46.1365 130.782V109.153C46.1365 108.1 45.2828 107.246 44.2296 107.246Z" fill="#F6E135" stroke="#984911" stroke-width="0.25" stroke-miterlimit="10"/>
<path d="M44.2789 164.665H40.428C39.3748 164.665 38.521 165.519 38.521 166.572V188.201C38.521 189.254 39.3748 190.108 40.428 190.108H44.2789C45.3321 190.108 46.1859 189.254 46.1859 188.201V166.572C46.1859 165.519 45.3321 164.665 44.2789 164.665Z" fill="#F6E135" stroke="#984911" stroke-width="0.25" stroke-miterlimit="10"/>
<path d="M81.8523 144.98H60.2234C59.1702 144.98 58.3164 145.834 58.3164 146.887V150.738C58.3164 151.792 59.1702 152.645 60.2234 152.645H81.8523C82.9055 152.645 83.7593 151.792 83.7593 150.738V146.887C83.7593 145.834 82.9055 144.98 81.8523 144.98Z" fill="#F6E135" stroke="#984911" stroke-width="0.25" stroke-miterlimit="10"/>
<path d="M24.4466 145.017H2.81763C1.76443 145.017 0.910645 145.87 0.910645 146.924V150.774C0.910645 151.828 1.76443 152.681 2.81763 152.681H24.4466C25.4998 152.681 26.3536 151.828 26.3536 150.774V146.924C26.3536 145.87 25.4998 145.017 24.4466 145.017Z" fill="#F6E135" stroke="#984911" stroke-width="0.25" stroke-miterlimit="10"/>
<path d="M3.97332 146.161H23.3754C24.3227 146.161 25.0978 146.727 25.0978 147.391V150.516C25.0978 151.193 24.335 151.747 23.3754 151.747H3.97332C3.56937 151.792 3.16378 151.677 2.84391 151.426C2.52404 151.175 2.31549 150.809 2.26318 150.406V147.281C2.27549 146.776 3.08749 146.161 3.97332 146.161Z" fill="#F9EB87"/>
<path d="M61.4301 146.076H80.7461C81.6934 146.076 82.4439 146.618 82.4439 147.306V150.456C82.4439 151.145 81.6811 151.686 80.7461 151.686H61.4301C60.4705 151.686 59.72 151.145 59.72 150.456V147.343C59.6339 146.618 60.4705 146.076 61.4301 146.076Z" fill="#F9EB87"/>
<path d="M45.0541 110.31V129.639C45.0541 130.598 44.5005 131.361 43.8238 131.361H40.7972C40.1082 131.361 39.5669 130.598 39.5669 129.639V110.31C39.5669 109.363 40.1328 108.6 40.7972 108.6H43.8238C44.4512 108.576 45.0541 109.412 45.0541 110.31Z" fill="#F9EB87"/>
<path d="M45.0912 167.704V187.094C45.0912 188.029 44.5253 188.816 43.8609 188.816H40.8343C40.133 188.816 39.604 188.029 39.604 187.094V167.704C39.604 166.769 40.1576 165.981 40.8343 165.981H43.8609C44.4514 165.981 45.0912 166.769 45.0912 167.704Z" fill="#F9EB87"/>
<path d="M60.7196 113.606C62.5919 108.049 59.9545 102.144 54.829 100.417C49.7034 98.6903 44.0305 101.795 42.1582 107.352C40.2859 112.909 42.9232 118.814 48.0488 120.541C53.1743 122.268 58.8473 119.163 60.7196 113.606Z" fill="white" stroke="black" stroke-width="0.25" stroke-miterlimit="10.04"/>
<path d="M36.6872 118.884C41.9462 117.405 44.9611 111.767 43.4211 106.293C41.8812 100.818 36.3696 97.5787 31.1106 99.058C25.8516 100.537 22.8367 106.175 24.3767 111.649C25.9166 117.124 31.4282 120.363 36.6872 118.884Z" fill="white" stroke="black" stroke-width="0.25" stroke-miterlimit="9.94"/>
<path d="M56.1881 116.265C58.1654 116.265 59.7683 114.662 59.7683 112.685C59.7683 110.707 58.1654 109.104 56.1881 109.104C54.2108 109.104 52.6079 110.707 52.6079 112.685C52.6079 114.662 54.2108 116.265 56.1881 116.265Z" fill="black"/>
<path d="M40.0963 115.415C42.0736 115.415 43.6765 113.812 43.6765 111.835C43.6765 109.858 42.0736 108.255 40.0963 108.255C38.119 108.255 36.5161 109.858 36.5161 111.835C36.5161 113.812 38.119 115.415 40.0963 115.415Z" fill="black"/>
<path d="M40.8961 120.571C40.5885 122.134 40.0471 124.373 40.9699 125.997C41.7696 127.338 42.9876 127.436 43.6397 126.378C43.7589 126.21 43.8503 126.023 43.9103 125.825C44.2193 124.618 44.3885 123.379 44.4148 122.134C44.5669 123.472 44.5088 124.825 44.2425 126.145C43.8119 128.371 41.7081 128.162 40.6254 126.452C39.5427 124.742 40.2932 122.134 40.8961 120.571Z" fill="black"/>
</svg>
