<svg width="180" height="41" viewBox="0 0 180 41" fill="none" xmlns="http://www.w3.org/2000/svg">
<path d="M0.292969 10.6211V5.5625H22.6562V10.6211H14.7656V34H8.22266V10.6211H0.292969ZM23.7594 34V14.8594H29.9703L30.0289 17.2422H30.0875C30.5562 16.4349 31.1747 15.7643 31.943 15.2305C32.7242 14.6966 33.6096 14.4297 34.5992 14.4297C34.9378 14.4297 35.2633 14.4557 35.5758 14.5078C35.8883 14.5599 36.1096 14.612 36.2398 14.6641V19.6055C36.0055 19.5273 35.732 19.4688 35.4195 19.4297C35.107 19.3906 34.7685 19.3711 34.4039 19.3711C33.5315 19.3711 32.7047 19.638 31.9234 20.1719C31.1552 20.7057 30.5628 21.4023 30.1461 22.2617V34H23.7594ZM38.8859 27.0469V14.8594H45.175V26.5781C45.175 27.776 45.4224 28.6094 45.9172 29.0781C46.412 29.5469 47.0891 29.7812 47.9484 29.7812C48.7167 29.7812 49.3937 29.5534 49.9797 29.0977C50.5786 28.6289 51.0409 28.043 51.3664 27.3398V14.8594H57.6555V34H51.5617L51.4836 31.5781H51.425C50.8911 32.4505 50.1099 33.1471 49.0812 33.668C48.0526 34.1888 46.8417 34.4492 45.4484 34.4492C43.5083 34.4492 41.9263 33.8763 40.7023 32.7305C39.4914 31.5846 38.8859 29.6901 38.8859 27.0469ZM62.0984 34V14.8594H68.1727L68.2313 17.3594H68.3094C68.9344 16.4349 69.7482 15.7122 70.7508 15.1914C71.7664 14.6706 72.9122 14.4102 74.1883 14.4102C75.5555 14.4102 76.7339 14.6966 77.7234 15.2695C78.726 15.8424 79.4357 16.6823 79.8523 17.7891H79.9109C80.601 16.7083 81.532 15.875 82.7039 15.2891C83.8758 14.7031 85.1583 14.4102 86.5516 14.4102C88.4656 14.4102 90.0021 14.9766 91.1609 16.1094C92.3328 17.2422 92.9188 19.1367 92.9188 21.793V34H86.6102V22.2617C86.6102 21.1419 86.3823 20.3411 85.9266 19.8594C85.4839 19.3776 84.8328 19.1302 83.9734 19.1172C83.2052 19.1172 82.5411 19.3451 81.9813 19.8008C81.4344 20.2435 80.9917 20.8359 80.6531 21.5781V34H74.3445V22.2812C74.3445 21.1615 74.1167 20.3542 73.6609 19.8594C73.2052 19.3646 72.5411 19.1172 71.6688 19.1172C70.9135 19.1172 70.256 19.3385 69.6961 19.7812C69.1492 20.224 68.713 20.8229 68.3875 21.5781V34H62.0984Z" fill="#00B800"/>
<path d="M97.4984 34V5.5625H108.963C112.036 5.5625 114.386 6.41536 116.014 8.12109C117.655 9.82682 118.475 12.138 118.475 15.0547C118.475 17.9844 117.668 20.3086 116.053 22.0273C114.439 23.7331 112.049 24.5859 108.885 24.5859H103.983V34H97.4984ZM103.983 20.0156H107.752C109.341 20.0156 110.448 19.5664 111.073 18.668C111.698 17.7565 112.01 16.5846 112.01 15.1523C112.01 13.7331 111.698 12.5807 111.073 11.6953C110.448 10.7969 109.341 10.3411 107.752 10.3281H103.983V20.0156ZM121.727 34V14.8594H128.074V34H121.727ZM121.316 8.80469C121.316 7.88021 121.622 7.10547 122.234 6.48047C122.859 5.85547 123.751 5.54297 124.91 5.54297C126.069 5.54297 126.954 5.85547 127.566 6.48047C128.178 7.09245 128.484 7.86719 128.484 8.80469C128.484 9.72917 128.172 10.5104 127.547 11.1484C126.922 11.7865 126.03 12.1055 124.871 12.1055C123.725 12.1055 122.846 11.7865 122.234 11.1484C121.622 10.4974 121.316 9.71615 121.316 8.80469ZM131.619 24.7031V24.0781C131.619 21.0312 132.537 18.6354 134.373 16.8906C136.209 15.1458 138.67 14.2734 141.755 14.2734C144.75 14.2734 147.048 14.957 148.65 16.3242C150.252 17.6914 151.104 19.5013 151.209 21.7539L151.228 22.1445H145.134V21.8906C145.134 20.9661 144.861 20.2174 144.314 19.6445C143.767 19.0716 142.947 18.7852 141.853 18.7852C140.603 18.7852 139.646 19.2279 138.982 20.1133C138.331 20.9987 138.005 22.2292 138.005 23.8047V24.957C138.005 26.5195 138.324 27.7565 138.962 28.668C139.601 29.5794 140.558 30.0352 141.834 30.0352C142.992 30.0352 143.832 29.7422 144.353 29.1562C144.887 28.5703 145.154 27.8346 145.154 26.9492V26.7148H151.228V27.0664C151.202 29.2799 150.369 31.0768 148.728 32.457C147.101 33.8372 144.783 34.5273 141.775 34.5273C138.702 34.5273 136.241 33.6484 134.392 31.8906C132.543 30.1328 131.619 27.737 131.619 24.7031ZM154.48 34V4.85938H160.769V21.5L166.804 14.8398H173.874L160.769 28.5703V34H154.48ZM167.429 34L161.062 24.9766L164.988 20.6406L174.812 34H167.429Z" fill="black" fill-opacity="0.74"/>
</svg>
