<svg width="407" height="376" viewBox="0 0 407 376" fill="none" xmlns="http://www.w3.org/2000/svg">
<g opacity="0.8">
<path d="M39.5516 186.892C39.1392 188.617 38.9267 190.384 38.9184 192.158C38.9184 208.188 55.8479 221.201 76.71 221.201C81.3529 221.206 85.972 220.538 90.4236 219.218C98.3551 233.282 116.401 243.03 137.496 243.03C146.08 243.069 154.583 241.369 162.491 238.031C172.355 249.312 189.152 256.743 208.147 256.743C230.326 256.743 249.421 246.646 258.136 232.099C265.127 235.81 272.933 237.717 280.848 237.648C293.712 237.648 305.126 232.915 312.324 225.584C317.166 226.615 322.103 227.134 327.054 227.133C357.314 227.133 381.842 208.288 381.842 185.026C381.822 179.628 380.508 174.314 378.009 169.53C388.69 163.997 395.706 154.533 395.706 143.969C395.706 126.956 377.759 113.159 355.614 113.159C345.713 113.019 336.021 116.011 327.921 121.707C318.173 110.043 301.077 102.178 281.598 102.178C259.436 102.178 240.357 112.176 231.609 126.789C221.994 122.863 211.701 120.869 201.316 120.924C188.855 120.828 176.554 123.737 165.457 129.405C157.309 113.309 136.98 101.878 113.152 101.878C88.7406 101.878 67.9786 113.892 60.3136 130.638C56.4548 129.678 52.4926 129.197 48.5163 129.205C27.4876 129.205 10.4414 142.302 10.4414 158.465C10.4414 172.246 22.8553 183.793 39.5516 186.892Z" fill="#B7B7B7"/>
<path d="M350.632 66.6518C350.999 65.0109 351.183 63.3344 351.182 61.6529C351.182 46.373 336.418 33.9758 318.206 33.9758C314.138 33.9661 310.094 34.6016 306.225 35.8587C299.36 22.5283 283.547 13.1637 265.117 13.1637C257.597 13.106 250.156 14.7046 243.322 17.846C234.708 7.08175 219.994 0 203.464 0C184.085 0 167.423 9.63119 159.841 23.4948C153.826 19.9833 146.977 18.1531 140.012 18.1959C134.881 18.0991 129.785 19.073 125.052 21.0555C120.318 23.038 116.049 25.9855 112.518 29.71C108.302 28.7185 103.985 28.2208 99.6543 28.227C73.3601 28.227 51.8649 46.2064 51.8649 68.3181C51.8702 73.4251 53.0084 78.4674 55.1975 83.0815C45.8829 88.3636 39.751 97.3116 39.751 107.459C39.751 123.689 55.4142 136.836 74.7432 136.836C83.4985 136.941 92.0296 134.068 98.9378 128.688C107.453 139.885 122.383 147.317 139.379 147.317C158.724 147.317 175.387 137.686 182.969 123.839C192.137 127.912 202.123 129.808 212.146 129.377C222.168 128.946 231.955 126.201 240.74 121.356C247.805 136.72 265.551 147.634 286.363 147.634C307.675 147.634 325.804 136.17 332.486 120.207C335.848 121.117 339.317 121.576 342.8 121.573C361.129 121.573 376.043 109.092 376.043 93.6791C376.059 80.582 365.228 69.5678 350.632 66.6518Z" fill="#C4C4C4"/>
<path d="M214.995 112.159C216.455 108.453 217.076 104.469 216.812 100.494C215.712 83.5149 199.032 70.5012 179.587 71.5009C170.662 71.8646 162.162 75.4111 155.625 81.4987C148.777 65.8022 130.931 54.9879 110.752 56.0544C94.089 56.8875 80.0754 65.5523 73.077 77.7162C67.9348 75.8587 62.4744 75.043 57.0139 75.3167C36.7017 76.3165 21.2885 91.4798 22.4383 109.159C22.6119 111.611 23.0991 114.03 23.8879 116.358C9.62445 118.774 -0.75657 130.071 0.0432514 143.102C0.976377 157.315 14.9233 168.179 31.203 167.363C37.3743 167.114 43.3389 165.07 48.3658 161.481C52.2327 166.024 57.1114 169.597 62.61 171.912C68.1085 174.227 74.0734 175.22 80.0254 174.811C93.839 174.111 105.386 166.73 110.802 156.482C114.07 157.594 117.519 158.074 120.966 157.898C123.522 157.783 126.047 157.3 128.465 156.465C134.797 169.429 149.893 178.127 166.939 177.344C181.669 176.628 194.017 168.829 199.999 157.965C204.63 160.132 209.722 161.128 214.829 160.864C230.225 160.098 241.989 148.567 241.106 135.12C240.34 122.623 228.892 112.875 214.995 112.159Z" fill="#999999"/>
<path d="M380.775 102.644C382.155 98.8261 382.722 94.7625 382.441 90.713C381.341 73.3168 365.128 59.8698 346.282 60.8196C337.553 61.179 329.276 64.8001 323.088 70.9674C316.422 54.821 299.143 43.7234 279.581 44.6899C272.119 44.9459 264.849 47.1156 258.467 50.9906C252.086 54.8656 246.807 60.3159 243.139 66.8183C238.185 64.8985 232.881 64.0468 227.576 64.3188C207.947 65.3019 193 80.8152 194.25 98.9944C194.424 101.504 194.906 103.983 195.683 106.376C181.869 108.842 171.855 120.406 172.721 133.787C173.688 148.4 187.251 159.598 203.014 158.781C209.012 158.512 214.784 156.419 219.561 152.782C223.167 157.385 227.832 161.048 233.159 163.459C238.485 165.87 244.316 166.958 250.154 166.629C256.345 166.437 262.372 164.597 267.615 161.299C272.858 158.001 277.127 153.364 279.981 147.867C283.137 149.015 286.491 149.52 289.845 149.35C292.328 149.237 294.778 148.743 297.11 147.884C303.292 161.214 317.955 170.279 334.485 169.545C341.099 169.326 347.541 167.382 353.173 163.907C358.805 160.432 363.432 155.546 366.595 149.733C371.05 151.956 376.002 152.994 380.975 152.749C395.971 151.999 407.269 140.185 406.352 126.372C405.453 113.458 394.305 103.41 380.775 102.644Z" fill="#8E8E8E"/>
</g>
<path d="M204.248 375C263.899 375 312.257 326.643 312.257 266.991C312.257 207.339 263.899 158.981 204.248 158.981C144.596 158.981 96.2383 207.339 96.2383 266.991C96.2383 326.643 144.596 375 204.248 375Z" fill="#94CAFF" stroke="black" stroke-width="0.5" stroke-miterlimit="10"/>
<path d="M171.972 165.53C171.239 164.601 170.239 163.92 169.107 163.577C167.975 163.234 166.765 163.247 165.64 163.614C150.941 168.472 137.503 176.528 126.291 187.203C115.08 197.879 106.376 210.907 100.804 225.35C99.7396 228.087 99.502 231.077 100.121 233.948C101.168 238.931 102.657 243.81 104.57 248.528C105.605 251.012 106.808 253.423 108.169 255.743C109.034 257.141 109.559 258.722 109.702 260.359C109.969 265.258 106.986 269.707 105.903 274.339C104.703 279.521 102.754 285.02 103.071 290.419C103.583 295.346 104.954 300.145 107.12 304.599C108.486 308.048 127.115 286.27 128.315 282.171C129.381 278.938 130.764 275.422 134.28 273.839C137.796 272.256 141.862 272.806 145.494 272.006C150.671 270.917 155.48 268.513 159.458 265.025C170.922 254.11 155.242 237.697 148.71 228.216C147.927 227.143 147.198 226.031 146.528 224.884C146.52 224.851 146.52 224.817 146.528 224.784C146.52 224.744 146.521 224.704 146.53 224.665C146.539 224.625 146.555 224.588 146.579 224.556C146.602 224.523 146.631 224.496 146.666 224.475C146.7 224.454 146.738 224.44 146.777 224.434C150.11 223.9 153.076 225.833 155.359 228.133C158.228 231.184 160.759 234.536 162.907 238.131C165.093 242.009 167.864 245.527 171.122 248.562C173.155 250.228 176.404 251.894 179.037 250.644C181.02 249.695 180.887 246.662 181.236 244.712C181.249 244.649 181.285 244.593 181.338 244.555C181.391 244.518 181.456 244.503 181.52 244.513C183.835 244.9 186.118 245.457 188.352 246.179C189.447 246.516 190.627 246.457 191.684 246.012C192.336 245.5 192.82 244.803 193.072 244.013C193.325 243.223 193.334 242.376 193.1 241.58C192.634 239.197 191.434 237.048 192.9 234.781C193.695 233.675 194.576 232.634 195.533 231.665C196.615 230.145 197.437 228.456 197.966 226.666C199.032 224.117 201.782 222.984 204.348 222.134C205.898 221.634 207.481 221.218 208.997 220.635C210.722 219.89 212.341 218.921 213.812 217.752C215.261 216.62 217.078 216.067 218.911 216.202C221.194 216.202 225.926 217.419 226.943 214.786C228.209 211.57 223.044 208.554 220.894 207.038C217.228 204.638 213.263 202.639 209.797 199.906C207.764 198.24 205.148 195.757 206.864 193.241C208.097 191.308 210.63 190.874 212.263 189.391C214.846 187.059 211.346 184.176 209.247 182.96C203.515 179.394 196.55 177.644 190.084 176.144C185.892 175.4 181.853 173.958 178.137 171.879C175.729 170.137 173.642 167.988 171.972 165.53Z" fill="#069511" stroke="black" stroke-width="0.5" stroke-miterlimit="10"/>
<path d="M299.493 317.679C303.163 315.575 306.007 312.284 307.558 308.348C315.481 288.666 317.479 267.097 313.306 246.295C313.224 245.807 313.012 245.35 312.692 244.972C312.373 244.594 311.958 244.308 311.49 244.145C309.824 243.579 308.391 245.112 307.708 246.528C306.841 248.805 306.357 251.209 306.275 253.643C305.791 256.976 305.625 262.391 302.526 264.491C299.01 266.824 294.194 262.525 292.161 259.975C288.479 255.443 286.279 249.977 282.413 245.495C280.864 243.662 278.731 241.813 276.165 242.163C274.669 242.486 273.256 243.116 272.016 244.012C270.493 244.93 268.786 245.499 267.017 245.678C265.627 245.729 264.247 245.93 262.901 246.278C260.786 247.015 258.749 247.958 256.819 249.094C253.571 250.908 251.078 253.821 249.787 257.309C249.154 258.975 248.721 260.892 248.121 262.508C247.521 264.124 246.788 265.691 246.155 267.29C244.734 270.659 244.61 274.433 245.805 277.888C247.918 284.498 251.234 290.662 255.586 296.067C257.971 299.215 260.913 301.898 264.267 303.982C267.407 305.562 270.853 306.437 274.365 306.548C276.031 306.715 278.348 306.798 279.364 308.331C280.664 310.231 279.547 313.197 278.847 315.213C278.868 315.251 278.879 315.294 278.879 315.338C278.879 315.381 278.868 315.424 278.847 315.463C277.606 317.599 275.905 319.432 273.867 320.83C271.83 322.228 269.507 323.155 267.067 323.544C265.072 323.865 263.031 323.721 261.101 323.126C259.171 322.531 257.404 321.5 255.936 320.112C252.603 317.296 250.037 313.747 246.771 310.864C242.589 307.148 236.973 304.532 231.391 305.865C229.957 306.194 228.63 306.885 227.536 307.87C226.443 308.856 225.619 310.104 225.143 311.497C224.426 314.019 223.941 316.602 223.693 319.212C222.95 324.362 221.255 329.329 218.694 333.859C217.05 336.202 215.665 338.716 214.562 341.357C213.745 343.74 213.312 346.256 212.729 348.722C211.679 353.154 209.946 357.237 206.064 359.82C201.698 362.636 196.199 363.152 191.067 363.702C188.795 363.899 186.512 363.938 184.235 363.819C181.74 363.568 179.219 363.869 176.854 364.702C178.924 366.185 181.389 367.02 183.935 367.101C186.635 367.451 189.434 367.518 192.083 367.768C194.733 368.018 197.282 368.718 199.882 369.218C202.939 369.853 206.057 370.149 209.18 370.101C212.455 370.012 215.691 369.358 218.744 368.168C221.843 366.968 224.243 364.585 227.076 362.936C230.317 361.375 233.656 360.028 237.073 358.903C240.005 357.604 243.074 356.637 246.221 356.021C252.77 354.821 259.552 354.987 265.417 351.655C268.283 349.989 270.849 347.922 273.665 346.223C276.62 344.785 279.486 343.172 282.247 341.39C283.231 340.722 284.029 339.815 284.568 338.754C285.107 337.694 285.369 336.514 285.329 335.325C285.216 333.462 284.892 331.617 284.363 329.826C283.73 327.36 282.397 323.628 284.463 321.578C286.023 320.436 287.957 319.924 289.878 320.145C293.227 320.092 296.516 319.247 299.476 317.679H299.493Z" fill="#069511" stroke="black" stroke-width="0.5" stroke-miterlimit="10"/>
<path d="M262.435 226.283C255.195 228.131 248.526 231.743 243.023 236.797C241.056 238.63 239.023 241.613 240.373 244.412C242.189 248.228 247.038 247.161 250.254 246.078C254.253 244.679 257.769 242.279 261.702 240.763C265.634 239.247 271.533 241.313 274.849 237.78C274.809 237.772 274.771 237.756 274.737 237.734C274.704 237.711 274.675 237.681 274.654 237.647C274.632 237.613 274.617 237.574 274.611 237.534C274.604 237.494 274.606 237.453 274.616 237.414C274.632 237.337 274.677 237.269 274.743 237.225C274.808 237.182 274.888 237.166 274.965 237.18H275.299C275.375 237.135 275.465 237.12 275.552 237.138C275.638 237.157 275.715 237.208 275.765 237.28C277.892 237.738 279.964 238.42 281.947 239.313C283.109 239.742 284.353 239.906 285.586 239.794C286.82 239.681 288.013 239.295 289.079 238.663C291.045 237.614 293.911 235.331 291.862 233.065C290.158 231.652 288.026 230.859 285.813 230.815C283.897 230.615 282.031 230.732 280.114 230.532C277.413 230.038 274.829 229.037 272.499 227.582C270.65 226.392 268.5 225.756 266.301 225.75C264.998 225.798 263.703 225.977 262.435 226.283Z" fill="#069511" stroke="black" stroke-width="0.5" stroke-miterlimit="10"/>
<path d="M334.435 274.929C341.416 256.308 328.724 234.333 306.087 225.847C283.45 217.36 259.44 225.577 252.459 244.198C245.478 262.82 258.17 284.795 280.807 293.281C303.444 301.767 327.454 293.551 334.435 274.929Z" fill="#FF6C6C" stroke="black" stroke-width="0.5" stroke-linecap="round" stroke-linejoin="round"/>
<path d="M322.221 268.538C326.527 257.051 317.402 243.01 301.839 237.176C286.277 231.342 270.17 235.924 265.864 247.411C261.558 258.897 270.683 272.938 286.246 278.772C301.808 284.607 317.915 280.024 322.221 268.538Z" fill="#DD4B4B" stroke="black" stroke-width="0.25" stroke-linecap="round" stroke-linejoin="round"/>
<path d="M299.977 241.98C314.44 247.412 323.305 259.909 321.055 270.873C321.485 270.133 321.853 269.358 322.155 268.557C326.471 257.076 317.339 243.029 301.776 237.197C286.213 231.365 270.117 235.931 265.784 247.412C265.493 248.22 265.264 249.05 265.101 249.894C270.65 240.147 285.58 236.614 299.977 241.98Z" fill="#BC2424" stroke="black" stroke-width="0.25" stroke-linecap="round" stroke-linejoin="round"/>
<path d="M354.964 233.881C354.964 233.748 354.781 233.648 354.714 233.781C351.148 239.26 348.224 245.131 345.999 251.277C342.583 261.058 343.033 269.357 346.466 271.273C346.466 271.273 331.986 301.183 330.003 312.43C329.186 317.529 335.502 320.762 338.334 314.563C342.45 305.699 351.098 272.906 351.098 272.906C356.447 273.206 361.096 266.107 364.012 257.493C365.928 251.91 367.961 244.729 368.011 239.163C368.013 239.1 367.992 239.038 367.953 238.989C367.913 238.94 367.857 238.906 367.795 238.894C367.733 238.882 367.669 238.893 367.614 238.924C367.559 238.955 367.516 239.004 367.495 239.063C365.645 243.496 359.163 259.209 359.163 259.209C358.813 260.159 356.38 259.459 356.647 258.459C356.647 258.459 361.646 237.897 360.596 237.53C359.546 237.164 351.631 256.493 351.631 256.493C351.298 257.459 348.765 256.493 348.999 255.526C348.999 255.526 353.831 237.897 354.964 233.881Z" fill="#FF6C6C" stroke="black" stroke-width="0.5" stroke-linecap="round" stroke-linejoin="round"/>
<path d="M238.123 213.486C234.791 223.3 237.757 227.433 242.156 229.682C242.156 229.682 225.793 262.275 224.326 273.706C223.777 278.921 231.875 282.787 234.857 276.672C239.157 267.874 248.055 231.682 248.055 231.682C254.72 232.482 258.052 230.015 260.985 221.384C262.868 215.785 264.601 198.956 256.603 195.973C249.388 193.29 240.29 207.404 238.123 213.486Z" fill="#FF6C6C" stroke="black" stroke-width="0.5" stroke-linecap="round" stroke-linejoin="round"/>
<path d="M258.319 218.685C255.736 226.25 251.304 227.233 246.772 225.616C242.239 224 239.29 220.501 241.873 212.936C244.456 205.371 251.604 196.623 256.12 198.222C260.635 199.822 260.852 211.12 258.319 218.685Z" fill="#DD4B4B" stroke="black" stroke-width="0.25" stroke-linecap="round" stroke-linejoin="round"/>
<path d="M252.221 154.666C249.521 148.784 239.774 150.8 236.591 148.484C255.287 134.47 263.252 122.173 268.8 101.827C271.4 92.3962 271.167 84.8146 268.084 79.2658C265.151 74.067 260.086 71.3676 253.087 71.2676C247.56 71.4033 242.102 72.5322 236.974 74.6002C231.425 76.6497 217.679 84.2647 214.046 96.6453C212.38 102.244 217.379 118.424 229.509 108.826C235.958 103.71 237.591 89.9301 246.555 92.4129C261.919 96.6619 238.84 125.489 210.63 141.269C205.631 144.101 202.499 150.55 200.816 156.665C200.366 158.331 199.016 163.164 203.365 166.196C203.456 166.271 203.557 166.332 203.665 166.38C203.665 166.38 205.881 167.546 210.547 169.712L215.246 171.828C221.244 174.511 226.427 176.827 230.859 179.16C232.219 179.934 233.537 180.78 234.808 181.693C236.285 182.748 237.832 183.7 239.44 184.542C239.978 184.789 240.535 184.99 241.107 185.142C242.17 185.436 243.282 185.512 244.376 185.366C245.47 185.22 246.523 184.855 247.472 184.292C248.801 183.42 249.944 182.294 250.836 180.979C251.728 179.663 252.352 178.185 252.671 176.627C253.554 173.128 254.754 160.248 252.221 154.666Z" fill="#FF0000"/>
<path d="M249.605 178.594C247.391 179.628 244.87 179.794 242.54 179.06C240.403 178.349 238.431 177.215 236.741 175.728C234.831 174.098 232.834 172.574 230.759 171.162C226.759 168.666 222.569 166.488 218.228 164.647C214.796 163.13 211.463 161.064 210.547 157.165C209.464 152.616 212.063 148.834 215.229 145.801C218.395 142.768 222.627 140.802 226.427 138.569C230.567 135.93 234.445 132.901 238.007 129.521C241.632 126.228 244.976 122.639 248.005 118.79C250.723 115.423 253.101 111.795 255.104 107.959C256.97 104.244 258.336 99.9112 257.32 95.7621C256.836 93.7794 255.93 91.9242 254.665 90.3227C253.4 88.7211 251.805 87.4108 249.988 86.4809C248.416 85.7372 246.673 85.4284 244.941 85.5866C243.209 85.7449 241.551 86.3644 240.14 87.3807C235.691 90.1801 228.943 96.462 223.561 92.0463C221.261 90.1634 221.094 87.2807 221.894 84.3813C218.268 87.7275 215.565 91.9512 214.046 96.6453C212.38 102.244 217.379 118.424 229.509 108.826C235.958 103.71 237.591 89.9301 246.555 92.4129C261.919 96.6619 238.84 125.489 210.63 141.269C205.631 144.101 202.499 150.55 200.816 156.665C200.366 158.332 199.016 163.164 203.365 166.196C203.456 166.271 203.557 166.333 203.665 166.38C203.665 166.38 205.881 167.546 210.547 169.712L215.246 171.829C221.244 174.511 226.427 176.827 230.859 179.16C232.219 179.934 233.537 180.78 234.808 181.693C236.285 182.748 237.832 183.701 239.44 184.542C239.978 184.789 240.535 184.99 241.107 185.142C242.17 185.436 243.282 185.513 244.376 185.366C245.47 185.22 246.523 184.855 247.472 184.292C248.801 183.42 249.944 182.294 250.836 180.979C251.728 179.663 252.352 178.185 252.671 176.627C252.671 176.461 252.754 176.278 252.787 176.078C251.914 177.129 250.83 177.986 249.605 178.594Z" fill="#8E1010"/>
<path d="M322.105 154.965C320.088 140.918 304.825 135.586 299.027 133.987H298.91C291.74 131.913 284.173 131.621 276.865 133.137C280.128 126.257 284.459 119.936 289.695 114.408C296.544 107.043 302.459 103.743 306.791 104.86C307.853 105.246 308.817 105.859 309.617 106.656C310.417 107.453 311.034 108.415 311.424 109.475C311.29 110.109 311.14 110.758 310.974 111.408L309.974 114.974C309.213 117.457 309.319 120.124 310.274 122.539C310.66 123.687 311.316 124.726 312.185 125.57C313.055 126.413 314.113 127.037 315.273 127.388C317.072 127.938 319.789 127.855 322.838 124.855C324.897 122.793 326.374 120.224 327.12 117.407C328.251 113.23 328.377 108.845 327.487 104.61C326.695 99.5018 325.069 94.559 322.671 89.9797C321.555 87.9582 320.033 86.1893 318.201 84.7842C316.369 83.3791 314.265 82.3681 312.024 81.8148C301.859 79.3154 291.262 84.7642 280.481 97.9779C271.108 109.567 264.294 123.009 260.485 137.419C256.869 150.549 245.405 189.824 274.315 199.072C316.273 212.652 325.271 177.01 322.105 154.965ZM291.212 162.18C266.317 156.931 291.078 147.184 298.427 150.666C311.924 156.881 308.874 165.863 291.212 162.13V162.18Z" fill="#FF0000"/>
<path d="M307.358 152.766C305.644 150.393 303.41 148.444 300.826 147.068C299.094 146.233 297.211 145.756 295.29 145.664C293.369 145.573 291.45 145.869 289.646 146.534C287.601 147.242 285.791 148.499 284.413 150.167C283.803 150.966 283.371 151.886 283.147 152.866C287.246 150.384 294.811 148.967 298.427 150.617C306.175 154.216 308.425 158.682 305.659 161.165C306.523 160.886 307.319 160.426 307.991 159.815C310.141 157.749 308.825 154.799 307.358 152.766Z" fill="#8E1010"/>
<path d="M310.257 122.523C310.643 123.671 311.299 124.71 312.168 125.554C313.038 126.397 314.097 127.02 315.256 127.372C317.056 127.921 319.772 127.838 322.821 124.839C323.754 123.879 324.561 122.804 325.22 121.64C323.628 122.592 321.724 122.879 319.922 122.439C316.689 121.656 316.139 118.057 316.122 115.224C316.122 111.892 316.939 108.359 316.422 105.01C315.739 100.628 310.574 100.378 307.241 101.511C304.524 102.478 302.046 104.018 299.976 106.026C302.049 104.791 304.5 104.347 306.875 104.777C307.936 105.163 308.9 105.776 309.7 106.573C310.5 107.37 311.117 108.332 311.507 109.392C311.374 110.025 311.224 110.675 311.057 111.325L309.974 114.974C309.212 117.45 309.311 120.111 310.257 122.523Z" fill="#8E1010"/>
<path d="M309.841 190.774C304.729 194.533 298.379 196.207 292.078 195.456C285.923 194.47 280.176 191.748 275.515 187.608C270.769 183.67 267.138 178.557 264.984 172.778C262.556 165.434 261.644 157.674 262.301 149.967C263.458 133.729 269.337 118.183 279.214 105.243C281.53 102.227 284.08 99.3945 286.579 96.5452C288.795 94.0124 291.045 91.5463 293.444 89.1302C296.23 86.2899 299.366 83.8151 302.776 81.7651C295.494 83.4314 288.029 88.7636 280.481 98.0282C271.108 109.618 264.294 123.059 260.485 137.469C256.869 150.6 245.405 189.874 274.315 199.122C302.392 208.154 315.689 195.14 320.455 178.927C317.798 183.585 314.18 187.623 309.841 190.774Z" fill="#8E1010"/>
<path d="M394.072 167.896C391.004 162.885 386.2 159.178 380.575 157.481C378.614 156.905 376.586 156.591 374.543 156.548C385.174 142.968 391.206 136.853 393.988 134.337C396.53 132.324 398.429 129.614 399.454 126.538C400.156 124.04 400.069 121.386 399.204 118.94C398.474 116.632 396.974 114.644 394.955 113.308C393.139 112.175 389.439 110.875 385.207 114.808C384.19 115.737 383.279 116.777 382.491 117.907C381.646 114.12 379.957 110.573 377.551 107.529C375.145 104.486 372.083 102.024 368.594 100.328C365.324 98.7174 361.696 97.9716 358.055 98.1612C354.415 98.3508 350.884 99.4695 347.799 101.411C340.084 105.91 334.685 113.625 331.719 124.356C329.219 133.42 329.636 141.502 332.952 148.35C334.167 151.276 336.037 153.885 338.417 155.976C340.797 158.067 343.624 159.585 346.682 160.414C348.521 160.898 350.413 161.15 352.314 161.164C349.582 164.913 346.949 168.579 344.466 172.095C344.266 172.362 343.433 173.378 341.933 175.161C340.117 177.344 337.351 180.66 333.602 185.159C325.837 194.623 324.404 197.673 324.004 199.139C323.196 201.761 323.196 204.565 324.004 207.187C324.304 208.283 324.88 209.284 325.676 210.095C326.472 210.905 327.463 211.499 328.553 211.819C328.896 211.918 329.247 211.985 329.603 212.019C333.735 212.503 337.634 210.17 341.267 205.071L341.367 204.921L344.299 200.039C345.115 202.814 346.597 205.348 348.615 207.42C350.281 209.152 352.286 210.521 354.505 211.441C356.725 212.362 359.11 212.814 361.512 212.769C368.294 212.852 375.343 210.47 382.441 205.671C390.123 200.355 394.872 194.007 396.971 186.475C397.89 183.356 398.106 180.073 397.605 176.86C397.104 173.648 395.897 170.586 394.072 167.896ZM366.861 130.304C365.943 134.262 363.562 137.727 360.196 140.002C356.947 142.135 354.147 142.835 351.631 142.018C350.737 141.734 349.932 141.222 349.295 140.532C348.658 139.843 348.211 139 347.999 138.086C347.165 135.087 347.247 131.907 348.232 128.955C349.143 124.913 351.517 121.352 354.897 118.957C355.799 118.248 356.846 117.749 357.965 117.495C359.083 117.242 360.243 117.24 361.362 117.49C361.662 117.49 361.962 117.69 362.262 117.807C364.134 118.699 365.594 120.273 366.345 122.206C367.511 124.749 367.695 127.634 366.861 130.304ZM380.475 183.092C379.405 186.762 377.089 189.944 373.926 192.09C370.477 194.607 367.361 195.79 364.678 195.59C363.929 195.585 363.197 195.362 362.572 194.948C361.948 194.534 361.458 193.946 361.162 193.257C360.285 190.926 360.285 188.356 361.162 186.025C362.139 182.093 364.507 178.648 367.828 176.327C368.92 175.435 370.195 174.793 371.563 174.447C372.93 174.102 374.357 174.061 375.742 174.328H376.092C377.635 174.749 378.959 175.745 379.792 177.11C380.367 177.984 380.728 178.981 380.847 180.02C380.966 181.059 380.838 182.112 380.475 183.092Z" fill="#FF0000"/>
<path d="M360.213 205.505C352.965 200.139 350.999 191.358 351.599 182.843C350.039 185.161 348.191 187.272 346.1 189.125C345.016 190.182 343.565 190.779 342.051 190.791C341.363 190.744 340.713 190.462 340.209 189.991C339.705 189.521 339.379 188.891 339.285 188.208C339.299 186.642 339.832 185.124 340.801 183.893C341.846 182.378 342.993 180.936 344.234 179.577C347.825 175.285 351.032 170.685 353.815 165.83C355.481 163.114 357.031 160.365 358.664 157.649C359.964 155.643 361.021 153.489 361.813 151.233C357.318 152.674 352.509 152.824 347.933 151.667C343.866 150.561 340.403 147.889 338.302 144.235C335.436 139.069 335.319 132.571 336.069 126.855C336.927 120.33 339.555 114.164 343.667 109.026C346.5 105.527 349.899 102.511 352.815 99.0283C351.077 99.6004 349.402 100.349 347.816 101.261C340.101 105.76 334.703 113.475 331.736 124.206C329.237 133.271 329.654 141.352 332.97 148.201C334.185 151.127 336.054 153.735 338.435 155.826C340.815 157.917 343.642 159.436 346.7 160.265C348.539 160.748 350.431 161 352.332 161.014C349.599 164.764 346.966 168.43 344.484 171.945C344.284 172.212 343.451 173.228 341.951 175.011C340.135 177.194 337.369 180.51 333.619 185.009C325.854 194.474 324.421 197.523 324.022 198.989C323.214 201.611 323.214 204.416 324.022 207.038C324.322 208.133 324.898 209.134 325.694 209.945C326.49 210.756 327.48 211.35 328.571 211.67C328.914 211.769 329.265 211.835 329.62 211.87C333.753 212.353 337.652 210.02 341.284 204.921L341.384 204.771L344.317 199.889C345.133 202.664 346.615 205.198 348.633 207.271C350.298 209.002 352.304 210.371 354.523 211.292C356.742 212.212 359.128 212.664 361.53 212.62C366.158 212.613 370.731 211.619 374.944 209.704C369.696 210.042 364.493 208.559 360.213 205.505Z" fill="#8E1010"/>
<path d="M369.827 117.807C367.461 114.657 363.162 112.258 359.179 113.574C357.97 114.052 356.898 114.823 356.061 115.818C355.223 116.813 354.646 118 354.38 119.273C354.512 119.164 354.651 119.064 354.797 118.973C355.698 118.265 356.746 117.765 357.864 117.512C358.983 117.258 360.143 117.257 361.262 117.507C361.562 117.507 361.862 117.707 362.162 117.823C364.034 118.716 365.494 120.289 366.244 122.222C367.439 124.748 367.659 127.626 366.861 130.304C366.318 132.386 365.41 134.355 364.178 136.119C365.09 135.666 365.946 135.106 366.728 134.453C371.277 130.371 373.776 123.056 369.827 117.807Z" fill="#8E1010"/>
<path d="M381.825 119.19C380.692 121.39 378.825 123.739 378.492 126.305L380.958 124.339C384.493 121.456 388.345 118.985 392.439 116.974C393.994 116.226 395.65 115.709 397.355 115.441C396.683 114.598 395.871 113.877 394.955 113.308C393.139 112.175 389.44 110.875 385.207 114.808C384.204 115.734 383.3 116.761 382.508 117.874C382.258 118.307 382.058 118.74 381.825 119.19Z" fill="#8E1010"/>
<path d="M375.509 171.461C373.79 171.809 372.206 172.642 370.944 173.861C370.617 174.212 370.322 174.592 370.061 174.994C371.798 174.148 373.771 173.913 375.659 174.327H376.009C377.552 174.749 378.876 175.744 379.708 177.11C380.284 177.967 380.653 178.946 380.786 179.969C380.919 180.993 380.813 182.033 380.475 183.009C379.405 186.679 377.089 189.861 373.926 192.007C373.195 192.546 372.433 193.041 371.644 193.49C373.306 193.75 375.003 193.688 376.642 193.307C378.395 192.731 379.995 191.767 381.323 190.486C382.65 189.205 383.67 187.64 384.307 185.908C385.74 182.576 386.557 178.393 384.757 175.077C383.842 173.527 382.434 172.329 380.757 171.673C379.081 171.018 377.233 170.943 375.509 171.461Z" fill="#8E1010"/>
<path d="M252.221 154.666C249.521 148.784 239.774 150.8 236.591 148.484C255.287 134.47 263.252 122.173 268.8 101.827C271.4 92.3962 271.167 84.8146 268.084 79.2658C265.151 74.067 260.086 71.3676 253.087 71.2676C247.56 71.4033 242.102 72.5322 236.974 74.6002C231.425 76.6497 217.679 84.2647 214.046 96.6453C212.38 102.244 217.379 118.424 229.509 108.826C235.958 103.71 237.591 89.9301 246.555 92.4129C261.919 96.6619 238.84 125.489 210.63 141.269C205.631 144.101 202.499 150.55 200.816 156.665C200.366 158.331 199.016 163.164 203.365 166.196C203.456 166.271 203.557 166.332 203.665 166.38C203.665 166.38 205.881 167.546 210.547 169.712L215.246 171.828C221.244 174.511 226.427 176.827 230.859 179.16C232.219 179.934 233.537 180.78 234.808 181.693C236.285 182.748 237.832 183.7 239.44 184.542C239.978 184.789 240.535 184.99 241.107 185.142C242.17 185.436 243.282 185.512 244.376 185.366C245.47 185.22 246.523 184.855 247.472 184.292C248.801 183.42 249.944 182.294 250.836 180.979C251.728 179.663 252.352 178.185 252.671 176.627C253.554 173.128 254.754 160.248 252.221 154.666Z" stroke="black" stroke-width="0.5" stroke-linecap="round" stroke-linejoin="round"/>
<path d="M322.105 154.965C320.088 140.918 304.825 135.586 299.027 133.987H298.91C291.74 131.913 284.173 131.621 276.865 133.137C280.128 126.257 284.459 119.936 289.695 114.408C296.544 107.043 302.459 103.743 306.791 104.86C307.853 105.246 308.817 105.859 309.617 106.656C310.417 107.453 311.034 108.415 311.424 109.475C311.29 110.109 311.14 110.758 310.974 111.408L309.974 114.974C309.213 117.457 309.319 120.124 310.274 122.539C310.66 123.687 311.316 124.726 312.185 125.57C313.055 126.413 314.113 127.037 315.273 127.388C317.072 127.938 319.789 127.855 322.838 124.855C324.897 122.793 326.374 120.224 327.12 117.407C328.251 113.23 328.377 108.845 327.487 104.61C326.695 99.5018 325.069 94.559 322.671 89.9797C321.555 87.9582 320.033 86.1893 318.201 84.7842C316.369 83.3791 314.265 82.3681 312.024 81.8148C301.859 79.3154 291.262 84.7642 280.481 97.9779C271.108 109.567 264.294 123.009 260.485 137.419C256.869 150.55 245.405 189.824 274.315 199.072C316.273 212.652 325.271 177.01 322.105 154.965ZM291.212 162.18C266.317 156.931 291.078 147.184 298.427 150.666C311.924 156.881 308.874 165.863 291.212 162.13V162.18Z" stroke="black" stroke-width="0.5" stroke-linecap="round" stroke-linejoin="round"/>
<path d="M394.072 167.896C391.004 162.885 386.2 159.178 380.575 157.481C378.614 156.905 376.586 156.591 374.543 156.548C385.174 142.968 391.206 136.853 393.988 134.337C396.53 132.324 398.429 129.614 399.454 126.538C400.156 124.04 400.069 121.386 399.204 118.94C398.474 116.632 396.974 114.644 394.955 113.308C393.139 112.175 389.439 110.875 385.207 114.808C384.19 115.737 383.279 116.777 382.491 117.907C381.646 114.12 379.957 110.573 377.551 107.529C375.145 104.486 372.083 102.024 368.594 100.328C365.324 98.7174 361.696 97.9716 358.055 98.1612C354.415 98.3508 350.884 99.4695 347.799 101.411C340.084 105.91 334.685 113.625 331.719 124.356C329.219 133.42 329.636 141.502 332.952 148.35C334.167 151.276 336.037 153.885 338.417 155.976C340.797 158.067 343.624 159.585 346.682 160.414C348.521 160.898 350.413 161.15 352.314 161.164C349.582 164.913 346.949 168.579 344.466 172.095C344.266 172.362 343.433 173.378 341.933 175.161C340.117 177.344 337.351 180.66 333.602 185.159C325.837 194.623 324.404 197.673 324.004 199.139C323.196 201.761 323.196 204.565 324.004 207.187C324.304 208.283 324.88 209.284 325.676 210.095C326.472 210.905 327.463 211.499 328.553 211.819C328.896 211.918 329.247 211.985 329.603 212.019C333.735 212.503 337.634 210.17 341.267 205.071L341.367 204.921L344.299 200.039C345.115 202.814 346.597 205.348 348.615 207.42C350.281 209.152 352.286 210.521 354.505 211.441C356.725 212.362 359.11 212.814 361.512 212.769C368.294 212.852 375.343 210.47 382.441 205.671C390.123 200.355 394.872 194.007 396.971 186.475C397.89 183.356 398.106 180.073 397.605 176.86C397.104 173.648 395.897 170.586 394.072 167.896ZM366.861 130.304C365.943 134.262 363.562 137.727 360.196 140.002C356.947 142.135 354.147 142.835 351.631 142.018C350.737 141.734 349.932 141.222 349.295 140.532C348.658 139.843 348.211 139 347.999 138.086C347.165 135.087 347.247 131.907 348.232 128.955C349.143 124.913 351.517 121.352 354.897 118.957C355.799 118.248 356.846 117.749 357.965 117.495C359.083 117.242 360.243 117.24 361.362 117.49C361.662 117.49 361.962 117.69 362.262 117.807C364.134 118.699 365.594 120.273 366.345 122.206C367.511 124.749 367.695 127.634 366.861 130.304ZM380.475 183.092C379.405 186.762 377.089 189.944 373.926 192.09C370.477 194.607 367.361 195.79 364.678 195.59C363.929 195.585 363.197 195.362 362.572 194.948C361.948 194.534 361.458 193.946 361.162 193.257C360.285 190.926 360.285 188.356 361.162 186.025C362.139 182.093 364.507 178.648 367.828 176.327C368.92 175.435 370.195 174.793 371.563 174.447C372.93 174.102 374.357 174.061 375.742 174.328H376.092C377.635 174.749 378.959 175.745 379.792 177.11C380.367 177.984 380.728 178.981 380.847 180.02C380.966 181.059 380.838 182.112 380.475 183.092Z" stroke="black" stroke-width="0.5" stroke-linecap="round" stroke-linejoin="round"/>
<g opacity="0.38">
<path d="M246.388 75.7168C239.206 80.0659 265.667 77.5664 262.051 94.8959C261.779 96.5473 261.689 98.2237 261.785 99.8948C261.822 100.301 261.97 100.69 262.213 101.018C262.456 101.347 262.785 101.602 263.163 101.757C263.541 101.911 263.954 101.959 264.357 101.895C264.761 101.832 265.139 101.658 265.451 101.394C268.233 98.7783 269.666 90.4969 267.683 83.8317C265.217 75.6002 253.703 71.2845 246.388 75.7168Z" fill="white"/>
<path d="M244.039 153.832C245.004 153.948 245.941 154.236 246.805 154.682C247.412 155.092 247.938 155.612 248.355 156.215C249.475 157.744 250.222 159.512 250.537 161.381C250.832 163.733 250.759 166.116 250.321 168.446C250.251 169.145 250.077 169.831 249.804 170.479C249.663 170.8 249.452 171.086 249.187 171.317C248.922 171.547 248.609 171.716 248.271 171.812C247.707 171.839 247.146 171.707 246.654 171.43C246.162 171.153 245.758 170.742 245.489 170.245C244.38 168.11 243.466 165.879 242.756 163.58C241.39 160.622 239.204 158.118 236.457 156.365C235.356 155.806 234.403 154.996 233.675 153.999C233.404 153.572 233.273 153.072 233.3 152.567C233.327 152.062 233.51 151.579 233.824 151.183C234.541 150.566 235.491 151.183 236.241 151.516C238.769 152.511 241.378 153.286 244.039 153.832Z" fill="white"/>
<path d="M300.659 84.8146C293.478 89.1636 305.975 81.482 317.856 94.6624C321.488 98.6615 321.188 104.177 322.488 108.709C322.594 109.056 322.821 109.352 323.127 109.546C323.433 109.74 323.798 109.818 324.157 109.765C324.515 109.713 324.843 109.534 325.081 109.261C325.319 108.988 325.451 108.638 325.454 108.276C325.356 103.001 324.165 97.8036 321.955 93.0127C318.306 85.1645 307.958 80.3822 300.659 84.8146Z" fill="white"/>
<path d="M292.663 137.403C292.513 139.753 301.144 135.571 311.092 150.217C315.524 156.749 316.091 162.281 317.457 166.88C317.974 168.547 319.49 166.88 319.507 165.047C319.507 160.765 320.023 153.75 315.624 146.818C309.742 137.47 292.896 134.221 292.663 137.403Z" fill="white"/>
<path d="M279.981 162.014C281.454 163.23 283.153 164.141 284.98 164.697C288.559 165.873 292.311 166.436 296.078 166.363C297.358 166.271 298.646 166.338 299.91 166.563C300.539 166.676 301.132 166.936 301.641 167.321C302.151 167.706 302.562 168.205 302.843 168.779C303.101 169.661 303.043 170.605 302.677 171.449C302.312 172.292 301.663 172.98 300.843 173.395C299.171 174.161 297.317 174.438 295.494 174.195C293.21 174.02 290.943 173.669 288.712 173.145C285.34 172.472 282.117 171.197 279.198 169.379C276.271 167.546 274.087 164.736 273.033 161.448C272.544 159.8 272.488 158.054 272.87 156.379C273.253 154.704 274.06 153.155 275.215 151.883C278.231 148.867 276.882 153.549 276.882 154.949C276.859 156.28 277.125 157.601 277.659 158.82C278.194 160.04 278.986 161.129 279.981 162.014Z" fill="white"/>
<path d="M355.148 100.928C354.881 103.244 358.73 99.7452 370.328 110.393C375.426 115.092 373.86 125.39 375.66 124.906C377.459 124.423 379.209 116.375 376.11 109.793C371.944 100.995 355.514 97.779 355.148 100.928Z" fill="white"/>
<path d="M371.628 161.631C371.378 163.947 375.211 160.431 386.808 171.096C391.924 175.778 390.341 186.092 392.157 185.609C393.973 185.126 395.689 177.078 392.59 170.496C388.408 161.631 371.978 158.415 371.628 161.631Z" fill="white"/>
<path d="M345.933 139.836C349.499 145.851 358.813 146.201 356.681 146.968C352.165 147.818 347.283 147.651 343.583 142.652C341.017 139.22 338.968 134.204 342.65 131.305C345.483 128.972 344.133 136.837 345.933 139.836Z" fill="white"/>
<path d="M359.497 194.006C363.079 200.022 372.394 200.372 370.261 201.138C365.729 201.988 360.863 201.838 357.147 196.823C354.598 193.39 352.532 188.374 356.231 185.475C359.064 183.142 357.714 191.007 359.497 194.006Z" fill="white"/>
</g>
<path d="M17.5897 158.199C15.9363 159.384 14.6767 161.038 13.9738 162.948C13.3494 164.882 13.1671 166.932 13.4406 168.946C13.8572 172.662 13.8738 173.362 13.8905 173.412C13.5413 175.35 12.9826 177.244 12.2242 179.061C11.0411 182.393 10.7245 184.493 11.2744 185.909C11.5696 186.7 12.0775 187.394 12.742 187.914C13.4065 188.435 14.2018 188.761 15.0402 188.858C16.4721 189.127 17.952 188.94 19.2726 188.325C20.4821 187.814 21.5261 186.978 22.2886 185.909C27.2875 200.139 30.1036 209.937 30.6201 215.003C30.7065 216.54 30.9979 218.058 31.4866 219.518C32.0267 221.055 33.0497 222.376 34.4026 223.284C35.7757 224.216 37.4352 224.629 39.0849 224.45C40.0654 224.358 41.0018 223.999 41.7922 223.411C42.5825 222.824 43.1965 222.03 43.5672 221.118C43.9969 220.126 44.2186 219.057 44.2186 217.977C44.2186 216.896 43.9969 215.827 43.5672 214.836C43.234 213.953 42.6674 212.67 41.9009 210.937C41.1344 209.204 40.6179 208.137 40.3179 207.354C39.0516 204.022 37.052 198.062 34.3193 189.475C30.5368 177.644 28.104 169.079 27.1209 164.114C26.9458 163.162 26.695 162.226 26.3711 161.315C26.0927 160.37 25.5895 159.506 24.9047 158.798C24.2198 158.09 23.3737 157.559 22.4386 157.249C21.6103 157.04 20.7461 157.017 19.9079 157.181C19.0697 157.346 18.2781 157.693 17.5897 158.199Z" fill="#FF4800"/>
<path d="M141.128 149.133C138.172 148.213 135.047 147.974 131.985 148.433C128.923 148.891 126.005 150.037 123.449 151.783C123.934 144.951 124.971 138.169 126.548 131.504C127.344 129.363 127.402 127.017 126.715 124.839C126.005 123.024 124.669 121.522 122.949 120.606C121.364 119.668 119.512 119.281 117.683 119.507C116.493 119.656 115.382 120.186 114.518 121.018C113.653 121.849 113.08 122.938 112.885 124.122C112.544 125.489 112.415 126.899 112.501 128.305C110.084 126.427 107.264 125.134 104.264 124.527C101.263 123.92 98.1627 124.015 95.2052 124.805C92.5888 125.424 90.1384 126.605 88.0237 128.265C85.9089 129.925 84.1804 132.025 82.9579 134.42C81.4329 137.426 80.5887 140.732 80.485 144.101C80.3813 147.47 81.0208 150.821 82.358 153.916C83.2776 156.643 84.7662 159.144 86.7254 161.252C88.6846 163.361 91.0695 165.029 93.7221 166.146C95.8414 167.081 98.1275 167.58 100.444 167.611C102.76 167.643 105.059 167.207 107.202 166.329C108.707 165.731 110.133 164.953 111.452 164.013C111.252 167.596 111.118 170.462 111.035 172.545C111.035 172.845 110.752 174.628 109.502 184.042C108.419 192.374 108.735 194.707 109.219 195.94C109.864 197.859 111.153 199.496 112.868 200.572C113.593 201.034 114.424 201.301 115.282 201.347C116.14 201.394 116.996 201.219 117.767 200.838C119.716 199.855 122.032 197.506 122.249 192.207C122.257 192.135 122.257 192.062 122.249 191.99C122.249 190.474 122.132 188.958 122.066 187.458C124.056 189.008 126.44 189.971 128.948 190.241C132.473 190.61 136.015 189.719 138.945 187.725C143.681 184.554 147.383 180.064 149.593 174.811C152.376 168.479 152.926 162.93 150.859 157.781C150.057 155.661 148.752 153.766 147.058 152.26C145.363 150.754 143.328 149.681 141.128 149.133ZM94.472 141.635C94.9177 140.562 95.5981 139.603 96.4631 138.827C97.3281 138.051 98.3559 137.479 99.4709 137.153C101.085 136.673 102.819 136.791 104.353 137.486C105.15 137.781 105.874 138.245 106.475 138.846C107.076 139.447 107.54 140.171 107.836 140.968C108.35 142.212 108.593 143.551 108.547 144.896C108.501 146.242 108.167 147.561 107.569 148.767C107.102 149.948 106.398 151.021 105.501 151.921C104.604 152.821 103.533 153.528 102.354 153.999C101.607 154.285 100.807 154.399 100.01 154.332C99.2141 154.266 98.4431 154.021 97.7546 153.616C96.1646 152.621 94.9827 151.09 94.422 149.3C93.8973 148.089 93.6308 146.782 93.6394 145.462C93.648 144.142 93.9316 142.839 94.472 141.635ZM127.448 165.596C127.861 164.493 128.489 163.483 129.295 162.625C130.102 161.767 131.071 161.077 132.147 160.597C133.533 159.947 135.108 159.823 136.579 160.248C137.327 160.431 138.013 160.811 138.566 161.346C139.12 161.882 139.521 162.555 139.729 163.297C140.165 164.489 140.357 165.757 140.294 167.025C140.231 168.293 139.914 169.535 139.362 170.679C138.492 173.14 136.804 175.228 134.58 176.594C133.948 176.982 133.233 177.213 132.494 177.268C131.754 177.323 131.013 177.2 130.331 176.91C129.588 176.562 128.927 176.059 128.393 175.435C127.858 174.812 127.463 174.082 127.231 173.295C126.734 172.078 126.496 170.77 126.533 169.456C126.57 168.142 126.882 166.85 127.448 165.663V165.596Z" fill="#FF4800"/>
<path d="M74.5592 168.996C81.2244 153.649 65.9778 131.071 48.9983 139.586C33.1185 147.118 31.0356 175.795 48.8316 182.076C38.0507 199.956 56.9965 223.9 76.6921 217.719C98.5206 211.07 96.3377 174.795 74.5592 168.996ZM58.0962 165.33C57.713 169.813 54.497 173.195 50.9145 172.878C47.332 172.562 44.7659 168.696 45.1491 164.214C45.5324 159.731 48.7483 156.366 52.3309 156.665C55.9134 156.965 58.4795 160.848 58.0962 165.33ZM80.3579 192.507C77.0254 195.64 71.2766 194.874 67.3442 190.841C63.4117 186.809 62.8785 180.843 66.1278 177.777C69.3771 174.711 75.2091 175.395 79.1249 179.444C83.0407 183.493 83.6072 189.358 80.3579 192.507Z" fill="#FF4800"/>
<path d="M36.5686 218.184C34.5524 216.018 26.1209 184.375 24.6046 182.192C23.6548 180.809 22.4051 180.759 20.8554 180.743C20.1601 180.781 19.4659 180.65 18.8329 180.359C18.1999 180.069 17.6473 179.629 17.2229 179.076C15.6566 176.96 15.7232 173.678 15.5566 171.162C15.2719 166.812 15.8379 162.448 17.2229 158.314C15.7093 159.504 14.5556 161.09 13.8903 162.897C13.2659 164.831 13.0837 166.881 13.3571 168.895C13.7737 172.611 13.7903 173.311 13.807 173.361C13.4578 175.299 12.8991 177.193 12.1407 179.01C10.9576 182.342 10.641 184.442 11.1909 185.858C11.4848 186.67 12.002 187.382 12.683 187.913C13.364 188.444 14.1811 188.771 15.0401 188.858C16.4719 189.126 17.9518 188.939 19.2725 188.324C20.4819 187.813 21.5259 186.977 22.2884 185.908C27.2873 200.138 30.1034 209.936 30.6199 215.002C30.7063 216.539 30.9977 218.058 31.4864 219.517C32.0265 221.055 33.0495 222.376 34.4024 223.283C35.7755 224.215 37.435 224.628 39.0847 224.45C40.0652 224.357 41.0017 223.998 41.792 223.41C42.5824 222.823 43.1963 222.03 43.567 221.117C43.8831 220.41 44.0801 219.656 44.1502 218.884C41.7008 220.101 38.6515 220.434 36.5686 218.184Z" fill="#963306"/>
<path d="M113.451 131.371C113.524 131.531 113.641 131.666 113.789 131.761C113.937 131.855 114.109 131.906 114.284 131.906C114.46 131.906 114.631 131.855 114.779 131.761C114.927 131.666 115.044 131.531 115.117 131.371C116.184 127.622 117.933 120.674 118.583 119.574C118.256 119.549 117.927 119.549 117.6 119.574C116.409 119.723 115.299 120.253 114.434 121.085C113.569 121.917 112.996 123.006 112.801 124.189C112.496 125.539 112.394 126.926 112.501 128.305C112.753 129.346 113.07 130.37 113.451 131.371Z" fill="#963306"/>
<path d="M105.636 133.787C104.62 133.33 103.518 133.094 102.404 133.094C101.289 133.094 100.187 133.33 99.171 133.787C97.2133 134.614 95.6455 136.158 94.7887 138.103C94.3742 139.164 94.2871 140.325 94.5387 141.435C94.9832 140.392 95.6528 139.459 96.4997 138.705C97.3466 137.95 98.3499 137.392 99.4376 137.07C101.052 136.59 102.786 136.708 104.32 137.403C105.117 137.698 105.841 138.162 106.442 138.763C107.043 139.365 107.507 140.088 107.802 140.886C108.324 142.181 108.568 143.572 108.519 144.968C109.34 143.798 109.907 142.47 110.185 141.069C110.31 139.528 109.935 137.987 109.115 136.676C108.296 135.364 107.076 134.351 105.636 133.787Z" fill="#963306"/>
<path d="M135.014 157.998C132.616 158.162 130.354 159.172 128.632 160.848C127.994 161.504 127.635 162.382 127.632 163.297C127.661 163.767 127.786 164.226 127.998 164.647C128.906 162.909 130.374 161.53 132.164 160.731C133.55 160.081 135.125 159.957 136.596 160.381C137.326 160.556 137.997 160.916 138.546 161.427C139.095 161.938 139.503 162.582 139.729 163.297C140.41 165.053 140.503 166.982 139.996 168.796C140.417 168.447 140.807 168.062 141.162 167.646C142.133 166.633 142.772 165.349 142.995 163.964C143.064 163.275 142.983 162.58 142.755 161.927C142.528 161.273 142.16 160.678 141.679 160.181C140.836 159.293 139.785 158.629 138.622 158.247C137.458 157.866 136.218 157.781 135.014 157.998Z" fill="#963306"/>
<path d="M137.396 184.26C133.683 185.205 129.747 184.641 126.448 182.693C124.782 181.57 123.388 180.09 122.366 178.361C122.244 178.149 122.066 177.975 121.851 177.859C121.636 177.743 121.394 177.689 121.15 177.703C120.906 177.716 120.671 177.798 120.471 177.937C120.271 178.077 120.113 178.27 120.016 178.494C119.688 179.269 119.269 180.002 118.767 180.677C118.528 181.08 118.186 181.412 117.776 181.637C117.365 181.863 116.902 181.975 116.434 181.96C115.968 181.838 115.542 181.597 115.198 181.261C114.853 180.925 114.602 180.506 114.468 180.044C113.968 177.959 113.883 175.796 114.218 173.679C114.401 170.579 114.567 167.447 114.518 164.347C114.545 162.438 114.355 160.532 113.951 158.665C113.887 158.387 113.752 158.129 113.56 157.918C113.368 157.706 113.125 157.548 112.854 157.457C112.583 157.367 112.293 157.348 112.012 157.402C111.732 157.456 111.47 157.581 111.252 157.765C108.269 160.132 104.02 160.598 100.137 160.431C98.0943 160.414 96.0849 159.909 94.2763 158.959C92.4678 158.008 90.9125 156.639 89.7397 154.966C87.4561 151.557 85.9069 147.709 85.1907 143.669C84.2272 139.368 84.3532 134.894 85.5573 130.655C84.5539 131.81 83.682 133.073 82.9579 134.421C81.4329 137.427 80.5887 140.732 80.485 144.102C80.3813 147.471 81.0208 150.822 82.358 153.916C83.2776 156.644 84.7662 159.145 86.7254 161.253C88.6846 163.362 91.0695 165.03 93.7221 166.147C95.8414 167.082 98.1275 167.58 100.444 167.612C102.76 167.643 105.059 167.207 107.202 166.33C108.707 165.731 110.133 164.954 111.452 164.014C111.252 167.597 111.118 170.463 111.035 172.545C111.035 172.845 110.752 174.628 109.502 184.043C108.419 192.374 108.735 194.707 109.219 195.94C109.864 197.859 111.153 199.496 112.868 200.573C113.593 201.034 114.424 201.301 115.282 201.348C116.14 201.395 116.996 201.22 117.767 200.839C119.716 199.856 122.032 197.507 122.249 192.208C122.257 192.136 122.257 192.063 122.249 191.991C122.249 190.475 122.132 188.958 122.066 187.459C124.056 189.008 126.44 189.972 128.948 190.242C132.473 190.611 136.015 189.719 138.945 187.725C142.021 185.742 144.654 183.144 146.677 180.094C143.882 182.07 140.73 183.485 137.396 184.26Z" fill="#963306"/>
<path d="M50.3989 154.298C49.647 154.762 49.0073 155.386 48.5261 156.127C48.0449 156.867 47.7341 157.705 47.6162 158.581C48.2061 157.923 48.9361 157.407 49.7523 157.07C50.5685 156.732 51.45 156.582 52.3318 156.631C55.8977 156.948 58.4805 160.813 58.0972 165.296C58.0099 166.31 57.7682 167.304 57.3807 168.245C58.2351 168.05 59.0192 167.624 59.6469 167.012C60.3456 166.277 60.8876 165.408 61.2399 164.457C61.5923 163.506 61.7476 162.493 61.6964 161.48C61.6628 160.31 61.365 159.163 60.8254 158.124C60.2858 157.085 59.5184 156.182 58.5804 155.481C56.3809 153.798 52.9817 152.799 50.3989 154.298Z" fill="#963306"/>
<path d="M79.1254 179.444C80.9413 181.237 82.113 183.58 82.458 186.109C82.9747 185.192 83.2936 184.177 83.394 183.13C83.4945 182.082 83.3743 181.025 83.0412 180.027C82.2653 177.649 80.6605 175.628 78.5194 174.335C76.3783 173.041 73.8435 172.559 71.3771 172.978C69.5028 173.299 67.8249 174.332 66.6948 175.861C66.2509 176.542 65.9766 177.319 65.895 178.127C66.0117 178.011 66.095 177.861 66.2116 177.744C69.3776 174.611 75.2096 175.361 79.1254 179.444Z" fill="#963306"/>
<path d="M89.9068 202.405C72.1775 219.467 51.0988 203.121 54.2148 181.942C54.3521 181.126 54.1662 180.289 53.6964 179.608C53.2267 178.927 52.5102 178.455 51.6987 178.293C37.1019 175.677 36.4188 159.847 41.7009 148.3C43.4626 144.56 46.2769 141.416 49.7991 139.252C33.1362 146.167 30.7034 175.727 48.816 182.109C32.153 212.252 83.6749 236.297 91.3898 200.572C90.9312 201.211 90.4361 201.823 89.9068 202.405Z" fill="#963306"/>
<path d="M17.5897 158.199C15.9363 159.384 14.6767 161.038 13.9738 162.948C13.3494 164.882 13.1671 166.932 13.4406 168.946C13.8572 172.662 13.8738 173.362 13.8905 173.412C13.5413 175.35 12.9826 177.244 12.2242 179.061C11.0411 182.393 10.7245 184.493 11.2744 185.909C11.5696 186.7 12.0775 187.394 12.742 187.914C13.4065 188.435 14.2018 188.761 15.0402 188.858C16.4721 189.127 17.952 188.94 19.2726 188.325C20.4821 187.814 21.5261 186.978 22.2886 185.909C27.2875 200.139 30.1036 209.937 30.6201 215.003C30.7065 216.54 30.9979 218.058 31.4866 219.518C32.0267 221.055 33.0497 222.376 34.4026 223.284C35.7757 224.216 37.4352 224.629 39.0849 224.45C40.0654 224.358 41.0018 223.999 41.7922 223.411C42.5825 222.824 43.1965 222.03 43.5672 221.118C43.9969 220.126 44.2186 219.057 44.2186 217.977C44.2186 216.896 43.9969 215.827 43.5672 214.836C43.234 213.953 42.6674 212.67 41.9009 210.937C41.1344 209.204 40.6179 208.137 40.3179 207.354C39.0516 204.022 37.052 198.062 34.3193 189.475C30.5368 177.644 28.104 169.079 27.1209 164.114C26.9458 163.162 26.695 162.226 26.3711 161.315C26.0927 160.37 25.5895 159.506 24.9047 158.798C24.2199 158.09 23.3737 157.559 22.4386 157.249C21.6103 157.04 20.7461 157.017 19.9079 157.181C19.0697 157.346 18.2781 157.693 17.5897 158.199Z" stroke="black" stroke-width="0.5" stroke-linecap="round" stroke-linejoin="round"/>
<path d="M141.128 149.133C138.172 148.213 135.047 147.974 131.985 148.433C128.923 148.891 126.005 150.037 123.449 151.783C123.934 144.951 124.971 138.169 126.548 131.504C127.344 129.363 127.402 127.017 126.715 124.839C126.005 123.024 124.669 121.522 122.949 120.606C121.364 119.668 119.512 119.281 117.683 119.507C116.493 119.656 115.382 120.186 114.518 121.018C113.653 121.849 113.08 122.938 112.885 124.122C112.544 125.489 112.415 126.899 112.501 128.305C110.084 126.427 107.264 125.134 104.264 124.527C101.263 123.92 98.1627 124.015 95.2052 124.805C92.5888 125.424 90.1384 126.605 88.0237 128.265C85.9089 129.925 84.1804 132.025 82.9579 134.42C81.4329 137.426 80.5887 140.732 80.485 144.101C80.3813 147.47 81.0208 150.821 82.358 153.916C83.2776 156.643 84.7662 159.144 86.7254 161.252C88.6846 163.361 91.0695 165.029 93.7221 166.146C95.8414 167.081 98.1275 167.58 100.444 167.611C102.76 167.643 105.059 167.207 107.202 166.329C108.707 165.731 110.133 164.953 111.452 164.013C111.252 167.596 111.118 170.462 111.035 172.545C111.035 172.845 110.752 174.628 109.502 184.042C108.419 192.374 108.735 194.707 109.219 195.94C109.864 197.859 111.153 199.496 112.868 200.572C113.593 201.034 114.424 201.301 115.282 201.347C116.14 201.394 116.996 201.219 117.767 200.838C119.716 199.855 122.032 197.506 122.249 192.207C122.257 192.135 122.257 192.062 122.249 191.99C122.249 190.474 122.132 188.958 122.066 187.458C124.056 189.008 126.44 189.971 128.948 190.241C132.473 190.61 136.015 189.719 138.945 187.725C143.681 184.554 147.383 180.064 149.593 174.811C152.376 168.479 152.926 162.93 150.859 157.781C150.057 155.661 148.752 153.766 147.058 152.26C145.363 150.754 143.328 149.681 141.128 149.133ZM94.472 141.635C94.9177 140.562 95.5981 139.603 96.4631 138.827C97.3281 138.051 98.3559 137.479 99.4709 137.153C101.085 136.673 102.819 136.791 104.353 137.486C105.15 137.781 105.874 138.245 106.475 138.846C107.076 139.447 107.54 140.171 107.836 140.968C108.35 142.212 108.593 143.551 108.547 144.896C108.501 146.242 108.167 147.561 107.569 148.767C107.102 149.948 106.398 151.021 105.501 151.921C104.604 152.821 103.533 153.528 102.354 153.999C101.607 154.285 100.807 154.399 100.01 154.332C99.2141 154.266 98.4431 154.021 97.7546 153.616C96.1646 152.621 94.9827 151.09 94.422 149.3C93.8973 148.089 93.6308 146.782 93.6394 145.462C93.648 144.142 93.9316 142.839 94.472 141.635ZM127.448 165.596C127.861 164.493 128.489 163.483 129.295 162.625C130.102 161.767 131.071 161.077 132.147 160.597C133.533 159.947 135.108 159.823 136.579 160.248C137.327 160.431 138.013 160.811 138.566 161.346C139.12 161.882 139.521 162.555 139.729 163.297C140.165 164.489 140.357 165.757 140.294 167.025C140.231 168.293 139.914 169.535 139.362 170.679C138.492 173.14 136.804 175.228 134.58 176.594C133.948 176.982 133.233 177.213 132.494 177.268C131.754 177.323 131.013 177.2 130.331 176.91C129.588 176.562 128.927 176.059 128.393 175.435C127.858 174.812 127.463 174.082 127.231 173.295C126.734 172.078 126.496 170.77 126.533 169.456C126.57 168.142 126.882 166.85 127.448 165.663V165.596Z" stroke="black" stroke-width="0.5" stroke-linecap="round" stroke-linejoin="round"/>
<path d="M74.5592 168.996C81.2244 153.649 65.9778 131.071 48.9983 139.586C33.1185 147.118 31.0356 175.795 48.8316 182.076C38.0507 199.956 56.9965 223.9 76.6921 217.719C98.5206 211.07 96.3377 174.795 74.5592 168.996ZM58.0962 165.33C57.713 169.813 54.497 173.195 50.9145 172.878C47.332 172.562 44.7659 168.696 45.1491 164.214C45.5324 159.731 48.7483 156.366 52.3309 156.665C55.9134 156.965 58.4795 160.848 58.0962 165.33ZM80.3579 192.507C77.0254 195.64 71.2766 194.874 67.3442 190.841C63.4117 186.809 62.8785 180.843 66.1278 177.777C69.3771 174.711 75.2091 175.395 79.1249 179.444C83.0407 183.493 83.6072 189.358 80.3579 192.507Z" stroke="black" stroke-width="0.5" stroke-linecap="round" stroke-linejoin="round"/>
<g opacity="0.31">
<path d="M18.8056 163.297C21.9382 165.98 24.6376 168.912 25.2875 173.295C25.351 173.881 25.5312 174.448 25.8174 174.963C26.1036 175.478 26.4899 175.931 26.9538 176.294C27.6703 171.295 25.6207 165.447 23.7211 160.781C23.5865 160.41 23.3744 160.072 23.099 159.789C22.8237 159.506 22.4913 159.285 22.124 159.141C21.7567 158.996 21.3629 158.932 20.9687 158.951C20.5745 158.971 20.1889 159.074 19.8375 159.253C19.4862 159.433 19.1771 159.686 18.9309 159.994C18.6846 160.303 18.5068 160.66 18.4092 161.042C18.3116 161.425 18.2964 161.824 18.3648 162.212C18.4331 162.601 18.5834 162.971 18.8056 163.297Z" fill="white"/>
<path d="M51.3148 140.185C46.6158 142.018 50.6649 146.184 54.2474 145.184C59.8462 144.501 63.6787 148.517 67.8277 151.416C70.9937 143.901 57.73 136.986 51.3148 140.185Z" fill="white"/>
<path d="M46.3495 172.129C49.6821 175.462 53.8978 173.112 54.0478 174.162C54.1977 175.212 52.0815 176.745 49.5488 176.295C48.2734 176.055 47.0632 175.548 45.9977 174.807C44.9323 174.066 44.0356 173.108 43.3668 171.996C42.8669 171.163 40.2842 164.947 42.717 165.33C44.8498 166.447 44.5166 170.329 46.3495 172.129Z" fill="white"/>
<path d="M70.8604 195.223C74.5596 196.439 78.3754 195.056 81.7747 193.89C82.5745 200.555 67.5778 200.205 64.3619 196.106C62.8289 195.356 60.2295 186.675 63.4788 189.291C65.0755 192.152 67.7228 194.279 70.8604 195.223Z" fill="white"/>
<path d="M76.326 170.828C78.4755 171.328 84.2243 174.061 82.258 176.511C80.2652 174.552 77.7573 173.199 75.0259 172.609C72.2945 172.019 69.4518 172.216 66.8281 173.178C66.5782 169.362 73.7599 170.212 76.326 170.828Z" fill="white"/>
<path d="M104.703 125.955C108.035 126.072 115.517 133.854 109.252 134.17C107.177 132.755 104.841 131.768 102.381 131.267C99.9199 130.766 97.3839 130.762 94.9215 131.254C93.2552 131.388 91.039 131.254 90.5225 129.321C91.089 124.089 100.87 125.222 104.703 125.955Z" fill="white"/>
<path d="M138.995 149.967C142.994 150.417 149.593 154.516 147.327 158.982C145.977 160.048 144.344 158.798 143.261 157.898C139.901 155.42 135.759 154.237 131.597 154.566C130.247 154.683 128.464 154.799 127.681 153.466C125.682 149.8 137.246 149.717 138.995 149.967Z" fill="white"/>
<path d="M95.8051 153.982C98.8877 156.348 102.704 155.365 105.969 154.082C104.203 163.03 88.9733 158.615 90.7562 149.917C91.6893 143.401 93.139 153.299 95.8051 153.982Z" fill="white"/>
<path d="M127.948 176.86C130.381 179.56 134.064 176.86 136.78 177.344C138.079 182.859 126.982 182.109 124.566 179.226C122.899 177.693 121.866 170.895 124.932 171.028C126.032 172.745 126.165 175.444 127.948 176.86Z" fill="white"/>
</g>
<path d="M183.819 22.7782C185.137 22.767 186.421 23.195 187.469 23.9946C187.469 24.1612 187.469 24.3445 187.469 24.5111V25.5276C187.446 26.0033 187.546 26.4767 187.759 26.9027C187.972 27.3286 188.291 27.6928 188.685 27.9603C189.334 28.4584 190.133 28.7226 190.951 28.7102C191.437 28.7033 191.915 28.5802 192.344 28.3512C192.773 28.1222 193.141 27.794 193.417 27.3938C194.008 26.6312 194.325 25.6922 194.317 24.7277C194.291 23.3541 193.784 22.0332 192.884 20.9952C191.654 19.3908 190.194 17.976 188.552 16.7962C186.815 15.6893 184.795 15.1104 182.736 15.1299C178.254 15.1299 174.405 17.3794 171.505 21.795C168.859 25.7319 167.476 30.3821 167.54 35.1254C167.439 39.189 168.604 43.1833 170.872 46.5562C171.893 48.2536 173.333 49.6591 175.056 50.6369C176.778 51.6147 178.723 52.1319 180.703 52.1383C184.936 52.1383 188.735 49.9221 192.001 45.4731C192.892 44.485 193.471 43.2563 193.667 41.9406C193.644 41.1275 193.324 40.3511 192.767 39.7577C192.516 39.433 192.196 39.1676 191.83 38.9804C191.464 38.7932 191.062 38.6888 190.651 38.6746C190.053 38.6865 189.464 38.823 188.922 39.0755C188.38 39.328 187.896 39.6909 187.502 40.141C186.635 41.1074 186.002 41.8073 185.636 42.3071C184.875 43.0967 183.947 43.7059 182.92 44.0901C179.42 45.5398 176.671 44.8232 174.721 42.2738C173.43 40.5521 172.76 38.4433 172.822 36.2918C172.801 32.9505 173.905 29.6992 175.954 27.0605C176.812 25.755 177.979 24.6812 179.351 23.9342C180.722 23.1873 182.257 22.7902 183.819 22.7782Z" fill="black" stroke="black" stroke-miterlimit="10"/>
<path d="M223.594 19.7786C222.419 18.158 220.875 16.84 219.091 15.9332C217.306 15.0264 215.331 14.5568 213.33 14.5631C210.843 14.588 208.399 15.2057 206.199 16.3649C204 17.5241 202.108 19.1914 200.682 21.2282C197.507 25.3177 195.815 30.3646 195.883 35.5417C195.796 39.7166 197.136 43.7964 199.683 47.1058C200.86 48.7244 202.408 50.0379 204.196 50.9365C205.985 51.8351 207.962 52.2928 209.964 52.2713C212.451 52.2505 214.897 51.6345 217.097 50.475C219.297 49.3154 221.188 47.6459 222.611 45.6061C225.806 41.5448 227.512 36.51 227.443 31.3426C227.517 27.1617 226.159 23.0813 223.594 19.7786ZM221.461 30.8594C221.454 34.4698 220.085 37.9446 217.629 40.5906C216.58 41.8986 215.255 42.958 213.748 43.6927C212.241 44.4274 210.59 44.8191 208.914 44.8396C207.914 44.8738 206.919 44.6782 206.006 44.2681C205.094 43.8579 204.287 43.244 203.648 42.4735C202.232 40.7636 201.491 38.594 201.566 36.3749C201.576 32.7638 202.958 29.2916 205.431 26.6604C206.481 25.348 207.808 24.2848 209.318 23.5471C210.828 22.8095 212.482 22.4159 214.163 22.3946C215.16 22.3547 216.152 22.5461 217.063 22.9537C217.973 23.3613 218.777 23.9741 219.412 24.7441C220.823 26.4616 221.552 28.6384 221.461 30.8594Z" fill="black" stroke="black" stroke-miterlimit="10"/>
<path d="M242.406 52.6885C242.142 52.4087 241.825 52.1849 241.473 52.0303C241.12 51.8757 240.741 51.7935 240.356 51.7887C239.855 51.8227 239.358 51.9064 238.873 52.0387L234.841 52.8718C239.523 49.5392 242.206 44.8903 242.206 41.5577C242.249 40.7349 242.105 39.9131 241.785 39.154C241.464 38.3949 240.976 37.7184 240.356 37.1753C238.573 35.6923 235.824 35.3757 232.291 36.5421C231.04 36.9377 229.846 37.498 228.742 38.2084C228.369 38.4464 228.068 38.7816 227.871 39.178C227.675 39.5744 227.59 40.0169 227.626 40.4579C227.613 41.0016 227.751 41.5381 228.026 42.0076C228.179 42.3221 228.415 42.5889 228.709 42.7797C229.002 42.9704 229.342 43.0779 229.692 43.0907C230.312 43.0315 230.896 42.7744 231.358 42.3575C232.117 41.9869 232.917 41.7072 233.741 41.5243C234.548 41.2785 235.382 41.133 236.224 41.0911C236.674 41.0658 237.121 41.1761 237.507 41.4077C237.648 41.5081 237.76 41.6446 237.83 41.8029C237.9 41.9612 237.927 42.1354 237.907 42.3075C237.907 43.9738 236.607 47.0898 230.375 52.072C229.781 52.5236 229.303 53.1093 228.979 53.7811C228.654 54.4529 228.493 55.1919 228.509 55.9378C228.508 56.1633 228.557 56.3863 228.652 56.5907C228.747 56.7952 228.886 56.9763 229.059 57.1209C229.776 57.6303 230.647 57.8774 231.525 57.8207C231.808 57.8383 232.092 57.8383 232.375 57.8207C234.231 57.572 236.101 57.4329 237.973 57.4041C238.207 57.4041 238.59 57.4041 239.09 57.4041C239.59 57.4041 240.123 57.5041 240.406 57.5041C241.114 57.5135 241.802 57.278 242.356 56.8376C242.656 56.5928 242.894 56.2818 243.053 55.929C243.212 55.5763 243.287 55.1914 243.272 54.8047C243.277 54.4119 243.203 54.0222 243.054 53.6587C242.905 53.2952 242.685 52.9653 242.406 52.6885Z" fill="black" stroke="black" stroke-miterlimit="10"/>
<path d="M154.676 190.141C157.119 187.875 160.204 186.42 163.507 185.975C164.665 185.939 165.824 185.995 166.973 186.142C167.839 186.142 168.639 186.308 169.556 186.392C169.688 186.375 169.823 186.375 169.955 186.392C171.018 186.872 171.847 187.753 172.262 188.842C172.677 189.932 172.645 191.141 172.172 192.207C171.528 193.05 170.838 193.857 170.105 194.623C169.4 193.63 168.443 192.842 167.334 192.339C166.225 191.835 165.002 191.635 163.79 191.757C162.216 191.935 160.757 192.667 159.674 193.823C157.208 196.339 157.358 199.739 160.141 203.488L138.346 223.283C137.669 222.204 136.716 221.326 135.585 220.74C134.453 220.153 133.186 219.881 131.914 219.951C130.256 220.061 128.699 220.786 127.548 221.984C125.149 224.383 125.015 227.949 127.265 231.232C126.79 231.674 126.22 232.001 125.599 232.189C124.978 232.376 124.323 232.42 123.682 232.315C122.522 231.888 121.514 231.129 120.783 230.132C120.482 229.782 120.283 229.356 120.207 228.901C120.13 228.446 120.18 227.978 120.35 227.549C120.515 226.534 120.621 225.51 120.666 224.483C120.883 222.967 121.4 221.15 121.533 219.901C121.916 216.368 123.083 209.17 126.782 205.937C127.352 204.792 128.063 203.723 128.898 202.755C132.992 197.383 138.743 193.511 145.261 191.74C147.967 191.229 150.698 190.862 153.442 190.641C153.887 190.574 154.31 190.402 154.676 190.141Z" fill="#9500BE" stroke="black" stroke-width="0.25" stroke-linecap="round" stroke-linejoin="round"/>
<path d="M153.542 191.174C153.58 191.271 153.624 191.366 153.675 191.457C153.167 191.79 152.602 192.027 152.009 192.157C148.741 192.194 145.487 192.602 142.311 193.373C142.311 193.373 142.178 193.373 142.128 193.373C143.211 192.14 150.493 190.891 153.542 191.174Z" fill="#A9E0FF" stroke="black" stroke-width="0.25" stroke-linecap="round" stroke-linejoin="round"/>
<path d="M149.71 193.54C150.11 193.54 150.759 193.84 150.826 194.106C150.834 194.332 150.791 194.557 150.702 194.764C150.613 194.971 150.479 195.156 150.31 195.306C148.31 197.106 146.244 198.855 144.194 200.605C142.411 202.138 140.612 203.671 138.845 205.237C138.379 205.654 137.912 205.837 137.396 205.47C136.503 204.867 135.651 204.204 134.846 203.488C134.08 202.771 133.43 201.938 132.68 201.105C134.476 198.905 136.707 197.101 139.233 195.805C141.759 194.509 144.526 193.749 147.36 193.573C148.142 193.512 148.927 193.501 149.71 193.54Z" fill="#A9E0FF" stroke="black" stroke-width="0.25" stroke-linecap="round" stroke-linejoin="round"/>
<path d="M130.781 203.438L135.18 208.287C134.08 209.27 132.964 210.303 131.848 211.32C130.731 212.336 129.865 213.086 128.798 213.902C128.348 214.132 127.864 214.289 127.365 214.369C127.155 213.906 127.025 213.41 126.982 212.903C127.361 209.46 128.675 206.187 130.781 203.438Z" fill="#A9E0FF" stroke="black" stroke-width="0.25" stroke-linecap="round" stroke-linejoin="round"/>
<path d="M123.35 213.469C123.909 211.225 124.906 209.113 126.282 207.254C125.113 210.365 124.188 213.563 123.516 216.818C123.26 217.462 122.899 218.058 122.45 218.585L122.05 218.385C122.466 216.735 122.833 215.085 123.35 213.469Z" fill="#A9E0FF" stroke="black" stroke-width="0.25" stroke-linecap="round" stroke-linejoin="round"/>
<path d="M139.346 198.472C138.996 199.589 138.646 200.688 138.313 201.805C137.979 202.921 137.746 203.588 137.479 204.488L136.846 204.021C137.096 203.021 137.329 202.005 137.546 200.988C137.763 199.972 137.963 198.855 138.146 197.789C138.146 197.472 138.229 197.173 138.263 196.856C138.796 196.523 139.346 196.223 139.929 195.939C139.817 196.801 139.622 197.649 139.346 198.472Z" fill="white"/>
<path d="M144.561 199.655L143.694 200.405L142.794 201.172C142.794 200.772 142.911 200.372 142.978 199.972C143.144 198.722 143.278 197.472 143.394 196.206C143.394 195.69 143.394 195.173 143.394 194.656L144.277 194.473C144.471 196.194 144.566 197.924 144.561 199.655Z" fill="white"/>
<path d="M131.913 210.803V210.886L130.747 211.919C130.423 209.584 130.272 207.228 130.297 204.871L130.997 203.854L131.547 204.454C131.68 206.621 131.68 208.703 131.913 210.803Z" fill="white"/>
<path d="M134.23 208.72L133.513 209.37C133.533 208.395 133.477 207.42 133.347 206.454L134.213 207.421C134.253 207.853 134.258 208.287 134.23 208.72Z" fill="white"/>
<path d="M171.672 189.008C171.834 189.148 171.964 189.32 172.053 189.514C172.142 189.708 172.188 189.919 172.188 190.133C172.188 190.347 172.142 190.558 172.053 190.752C171.964 190.946 171.834 191.119 171.672 191.258C170.955 190.475 170.938 189.958 171.672 189.008Z" fill="#EAC000" stroke="black" stroke-width="0.25" stroke-linecap="round" stroke-linejoin="round"/>
<path d="M170.638 187.658L168.339 189.791C168.465 189.247 168.752 188.752 169.162 188.372C169.572 187.992 170.086 187.744 170.638 187.658Z" fill="#EAC000" stroke="black" stroke-width="0.25" stroke-linecap="round" stroke-linejoin="round"/>
<path d="M167.389 187.025C167.839 187.475 167.739 187.842 167.156 188.125C166.485 188.314 165.78 188.347 165.096 188.22C164.411 188.093 163.764 187.809 163.207 187.392C162.907 187.025 162.923 186.642 163.507 186.375C164.163 186.205 164.848 186.175 165.517 186.287C166.186 186.399 166.824 186.65 167.389 187.025Z" fill="#EAC000" stroke="black" stroke-width="0.25" stroke-linecap="round" stroke-linejoin="round"/>
<path d="M123.349 228.1C123.41 228.165 123.453 228.246 123.474 228.334C123.494 228.422 123.491 228.513 123.465 228.599C123.267 228.937 122.956 229.193 122.588 229.324C122.219 229.455 121.816 229.452 121.449 229.316C121.949 228.866 122.366 228.466 122.816 228.116C122.896 228.068 122.987 228.042 123.08 228.039C123.173 228.036 123.266 228.057 123.349 228.1Z" fill="#EAB300" stroke="black" stroke-width="0.25" stroke-linecap="round" stroke-linejoin="round"/>
<path d="M121.866 222.334C122.348 223.042 122.588 223.886 122.552 224.742C122.516 225.597 122.206 226.418 121.666 227.083C121.471 226.304 121.37 225.504 121.366 224.7C121.439 223.895 121.607 223.1 121.866 222.334Z" fill="#EAB300" stroke="black" stroke-width="0.25" stroke-linecap="round" stroke-linejoin="round"/>
<path d="M135.163 223.417C135.742 224.046 136.121 224.834 136.252 225.679C136.383 226.525 136.259 227.39 135.898 228.165C135.536 228.94 134.952 229.59 134.219 230.033C133.487 230.475 132.64 230.69 131.786 230.65C130.931 230.61 130.108 230.317 129.42 229.809C128.732 229.3 128.212 228.598 127.923 227.793C127.635 226.987 127.593 226.114 127.802 225.285C128.011 224.455 128.462 223.706 129.098 223.134C129.944 222.377 131.054 221.982 132.188 222.035C133.322 222.088 134.391 222.584 135.163 223.417Z" fill="#999999"/>
<path d="M128.348 222.184C129.453 221.196 130.905 220.688 132.384 220.771C133.864 220.854 135.25 221.521 136.238 222.626C137.226 223.731 137.734 225.183 137.651 226.662C137.568 228.142 136.901 229.528 135.796 230.516C135.249 231.005 134.611 231.381 133.919 231.624C133.226 231.866 132.493 231.97 131.76 231.929C131.027 231.888 130.31 231.703 129.649 231.385C128.987 231.067 128.395 230.621 127.906 230.074C127.417 229.527 127.041 228.889 126.798 228.196C126.556 227.504 126.452 226.77 126.493 226.038C126.534 225.305 126.719 224.588 127.037 223.926C127.356 223.265 127.801 222.673 128.348 222.184ZM135.013 229.549C135.645 228.974 136.091 228.224 136.296 227.394C136.501 226.564 136.455 225.693 136.164 224.889C135.873 224.086 135.35 223.387 134.661 222.881C133.972 222.375 133.149 222.085 132.295 222.048C131.441 222.01 130.596 222.227 129.866 222.671C129.135 223.115 128.553 223.765 128.193 224.54C127.832 225.315 127.71 226.179 127.842 227.023C127.973 227.868 128.352 228.654 128.931 229.283C129.701 230.084 130.75 230.558 131.861 230.608C132.971 230.657 134.058 230.278 134.896 229.549H135.013Z" fill="black"/>
<path d="M131.414 229.949L129.548 229.066V228.649C130.014 228.649 130.581 228.249 130.898 228.416C131.214 228.583 131.481 229.233 131.764 229.649L131.414 229.949Z" fill="black"/>
<path d="M129.631 223.867C129.631 224.35 129.981 224.9 129.814 225.266C129.648 225.633 129.065 225.816 128.665 226.083L128.348 225.766L129.198 223.867H129.631Z" fill="black"/>
<path d="M129.865 223.284L131.747 222.65L132.031 222.917C131.781 223.3 131.597 223.917 131.248 224.05C130.898 224.183 130.298 223.883 129.798 223.783L129.865 223.284Z" fill="black"/>
<path d="M135.013 224.183L135.68 226.133L135.396 226.416C134.996 226.133 134.413 225.933 134.263 225.566C134.113 225.2 134.413 224.633 134.53 224.167L135.013 224.183Z" fill="black"/>
<path d="M128.665 226.233C129.048 226.55 129.581 226.799 129.748 227.199C129.914 227.599 129.565 228.066 129.448 228.516H129.048L128.348 226.616L128.665 226.233Z" fill="black"/>
<path d="M134.329 228.766C134.329 228.299 133.996 227.733 134.163 227.383C134.329 227.033 134.963 226.866 135.379 226.616L135.629 226.899L134.813 228.782L134.329 228.766Z" fill="black"/>
<path d="M131.93 229.715C132.213 229.332 132.43 228.749 132.813 228.616C133.197 228.482 133.73 228.799 134.196 228.916V229.332L132.23 230.049L131.93 229.715Z" fill="black"/>
<path d="M132.597 222.684L134.446 223.567V223.983C133.98 224.067 133.413 224.35 133.063 224.183C132.713 224.017 132.513 223.433 132.247 223.017L132.597 222.684Z" fill="black"/>
<path d="M131.397 225.683C131.897 225.8 132.314 225.783 132.431 225.95C132.547 226.116 132.431 226.533 132.431 226.833C132.131 226.833 131.731 226.833 131.564 226.733C131.397 226.633 131.447 226.183 131.397 225.683Z" fill="black"/>
<path d="M167.089 194.957C167.639 195.57 167.996 196.332 168.115 197.147C168.233 197.962 168.109 198.794 167.756 199.539C167.404 200.283 166.839 200.907 166.133 201.332C165.428 201.757 164.612 201.964 163.789 201.928C162.966 201.891 162.172 201.612 161.507 201.126C160.842 200.639 160.336 199.968 160.051 199.195C159.766 198.422 159.716 197.582 159.907 196.78C160.098 195.979 160.521 195.252 161.124 194.69C161.531 194.311 162.009 194.017 162.531 193.825C163.052 193.632 163.607 193.546 164.163 193.571C164.718 193.596 165.263 193.731 165.765 193.969C166.268 194.207 166.718 194.543 167.089 194.957Z" fill="#999999"/>
<path d="M160.324 193.724C161.114 193.004 162.099 192.535 163.156 192.377C164.213 192.218 165.293 192.376 166.259 192.831C167.226 193.286 168.036 194.018 168.586 194.933C169.137 195.849 169.403 196.908 169.352 197.975C169.301 199.042 168.934 200.07 168.298 200.929C167.662 201.787 166.785 202.438 165.779 202.798C164.774 203.158 163.683 203.212 162.647 202.952C161.611 202.692 160.675 202.131 159.957 201.339C159.002 200.278 158.505 198.882 158.574 197.456C158.642 196.03 159.271 194.689 160.324 193.724ZM166.773 200.789C167.386 200.231 167.819 199.504 168.018 198.699C168.217 197.894 168.172 197.049 167.889 196.27C167.607 195.49 167.099 194.813 166.431 194.323C165.762 193.833 164.963 193.552 164.135 193.517C163.307 193.482 162.487 193.693 161.78 194.125C161.072 194.557 160.509 195.189 160.161 195.941C159.813 196.694 159.697 197.532 159.827 198.351C159.957 199.17 160.327 199.931 160.89 200.539C161.64 201.348 162.679 201.827 163.78 201.874C164.882 201.921 165.957 201.531 166.773 200.789Z" fill="black"/>
<path d="M161.091 199.805L160.375 197.922L160.674 197.639C161.074 197.906 161.658 198.106 161.791 198.472C161.924 198.839 161.624 199.372 161.508 199.839L161.091 199.805Z" fill="black"/>
<path d="M161.674 199.955C162.14 199.955 162.707 199.639 163.057 199.805C163.407 199.972 163.557 200.588 163.773 201.005L163.49 201.255L161.707 200.422L161.674 199.955Z" fill="black"/>
<path d="M163.89 200.839C164.207 200.505 164.473 199.989 164.857 199.872C165.24 199.756 165.673 200.122 166.106 200.272V200.672L164.173 201.272L163.89 200.839Z" fill="black"/>
<path d="M164.557 194.157L166.357 195.09V195.506C165.874 195.506 165.307 195.773 164.94 195.506C164.574 195.24 164.49 194.757 164.291 194.34L164.557 194.157Z" fill="black"/>
<path d="M166.856 195.624L167.556 197.507L167.306 197.773C166.906 197.523 166.306 197.34 166.156 196.973C166.006 196.607 166.323 196.073 166.44 195.607L166.856 195.624Z" fill="black"/>
<path d="M164.04 194.49C163.757 194.856 163.54 195.406 163.174 195.523C162.807 195.639 162.307 195.339 161.874 195.206V194.806L163.74 194.14L164.04 194.49Z" fill="black"/>
<path d="M166.206 199.956C166.206 199.506 165.906 198.973 166.073 198.639C166.239 198.306 166.823 198.14 167.206 197.906L167.489 198.173L166.689 200.006L166.206 199.956Z" fill="black"/>
<path d="M160.458 197.089L161.274 195.34H161.674C161.674 195.79 162.024 196.306 161.891 196.656C161.757 197.006 161.191 197.173 160.807 197.423L160.458 197.089Z" fill="black"/>
<path d="M164.607 198.289C164.09 198.206 163.674 198.289 163.54 198.073C163.469 197.946 163.431 197.802 163.431 197.656C163.431 197.51 163.469 197.367 163.54 197.24C163.54 197.106 164.157 197.106 164.29 197.24C164.423 197.373 164.49 197.84 164.607 198.289Z" fill="black"/>
<path d="M92.5394 249.328C95.0555 250.894 96.1053 253.727 94.9056 255.659C93.7058 257.592 86.3742 269.373 81.8252 266.54C77.2762 263.708 84.6079 251.944 85.8076 249.994C87.0073 248.045 90.0233 247.761 92.5394 249.328Z" fill="#1054FF" stroke="black" stroke-width="0.25" stroke-linecap="round" stroke-linejoin="round"/>
<path d="M69.7279 230.748C72.244 232.314 73.3105 235.147 72.0941 237.08C70.8777 239.013 63.5626 250.794 59.0136 247.961C54.4647 245.128 61.7964 233.347 62.9961 231.415C64.1958 229.482 67.2285 229.182 69.7279 230.748Z" fill="#1054FF" stroke="black" stroke-width="0.25" stroke-linecap="round" stroke-linejoin="round"/>
<path d="M55.3477 231.615C57.8471 233.165 58.9135 236.014 57.7138 237.947C56.5141 239.88 49.1824 251.644 44.6334 248.811C40.0844 245.979 47.3994 234.215 48.6158 232.282C49.8322 230.349 52.8316 230.049 55.3477 231.615Z" fill="#1054FF" stroke="black" stroke-width="0.25" stroke-linecap="round" stroke-linejoin="round"/>
<path d="M90.573 264.041C93.0724 265.591 94.1389 268.44 92.9391 270.373C91.7394 272.306 84.391 284.07 79.842 281.237C75.2931 278.404 82.6248 266.64 83.8412 264.708C85.0576 262.775 88.0569 262.475 90.573 264.041Z" fill="#1054FF" stroke="black" stroke-width="0.25" stroke-linecap="round" stroke-linejoin="round"/>
<path d="M61.1465 256.009L25.0879 249.228L35.219 239.396L82.0752 233.031L61.1465 256.009Z" fill="#1054FF" stroke="black" stroke-width="0.25" stroke-linecap="round" stroke-linejoin="round"/>
<path d="M94.7888 217.452L40.0344 270.524L18.0393 278.455L11.624 284.67H25.4543L19.339 290.602C18.9863 290.946 18.7424 291.386 18.6374 291.868C18.5325 292.349 18.5711 292.85 18.7486 293.31C18.926 293.769 19.2344 294.167 19.6356 294.453C20.0367 294.739 20.513 294.9 21.0053 294.918L26.804 294.152C30.8431 293.633 34.7977 292.591 38.568 291.052L39.4345 290.702C44.156 288.763 48.4609 285.935 52.115 282.371L108.769 227.383C111.518 224.734 117.25 216.652 114.601 213.92C110.852 209.954 98.7713 213.603 94.7888 217.452Z" fill="#1054FF" stroke="black" stroke-width="0.25" stroke-linecap="round" stroke-linejoin="round"/>
<path d="M105.82 226.616C102.737 228.749 49.0492 282.754 49.0492 282.754C49.0492 282.754 36.6519 290.819 35.4355 292.152C36.502 291.802 37.5684 291.418 38.6015 291.002L39.468 290.652C44.1895 288.713 48.4944 285.884 52.1485 282.32L108.803 227.333C110.099 226.015 111.265 224.575 112.285 223.034C109.962 223.896 107.782 225.103 105.82 226.616Z" fill="#F24C4C" stroke="black" stroke-width="0.25" stroke-linecap="round" stroke-linejoin="round"/>
<path d="M69.2944 260.908L71.6939 297.384L81.8416 287.553L91.6894 242.929C90.6397 242.113 89.7565 240.896 77.176 253.243" fill="#1054FF"/>
<path d="M69.2944 260.908L71.6939 297.384L81.8416 287.553L91.6894 242.929C90.6397 242.113 89.7565 240.896 77.176 253.243" stroke="black" stroke-width="0.25" stroke-linecap="round" stroke-linejoin="round"/>
<path d="M104.387 222.533C100.721 224.033 100.954 222.783 101.921 221.217C105.953 214.685 101.454 214.352 105.253 213.402C109.053 212.452 108.053 221.033 104.387 222.533Z" fill="#00C3F7" stroke="black" stroke-width="0.25" stroke-linecap="round" stroke-linejoin="round"/>
<path d="M92.1894 235.797C93.2753 235.797 94.1556 234.917 94.1556 233.831C94.1556 232.745 93.2753 231.865 92.1894 231.865C91.1035 231.865 90.2231 232.745 90.2231 233.831C90.2231 234.917 91.1035 235.797 92.1894 235.797Z" fill="#00C3F7" stroke="black" stroke-width="0.25" stroke-linecap="round" stroke-linejoin="round"/>
<path d="M85.9076 241.896C86.9936 241.896 87.8739 241.016 87.8739 239.93C87.8739 238.844 86.9936 237.964 85.9076 237.964C84.8217 237.964 83.9414 238.844 83.9414 239.93C83.9414 241.016 84.8217 241.896 85.9076 241.896Z" fill="#00C3F7" stroke="black" stroke-width="0.25" stroke-linecap="round" stroke-linejoin="round"/>
<path d="M79.6093 247.995C80.6952 247.995 81.5755 247.115 81.5755 246.029C81.5755 244.943 80.6952 244.062 79.6093 244.062C78.5234 244.062 77.6431 244.943 77.6431 246.029C77.6431 247.115 78.5234 247.995 79.6093 247.995Z" fill="#00C3F7" stroke="black" stroke-width="0.25" stroke-linecap="round" stroke-linejoin="round"/>
<path d="M73.3271 254.077C74.413 254.077 75.2933 253.197 75.2933 252.111C75.2933 251.025 74.413 250.145 73.3271 250.145C72.2412 250.145 71.3608 251.025 71.3608 252.111C71.3608 253.197 72.2412 254.077 73.3271 254.077Z" fill="#00C3F7" stroke="black" stroke-width="0.25" stroke-linecap="round" stroke-linejoin="round"/>
<path d="M67.0453 260.175C68.1312 260.175 69.0116 259.294 69.0116 258.208C69.0116 257.123 68.1312 256.242 67.0453 256.242C65.9594 256.242 65.0791 257.123 65.0791 258.208C65.0791 259.294 65.9594 260.175 67.0453 260.175Z" fill="#00C3F7" stroke="black" stroke-width="0.25" stroke-linecap="round" stroke-linejoin="round"/>
<path d="M60.7636 266.258C61.8495 266.258 62.7298 265.377 62.7298 264.291C62.7298 263.206 61.8495 262.325 60.7636 262.325C59.6777 262.325 58.7974 263.206 58.7974 264.291C58.7974 265.377 59.6777 266.258 60.7636 266.258Z" fill="#00C3F7" stroke="black" stroke-width="0.25" stroke-linecap="round" stroke-linejoin="round"/>
<path d="M54.4643 272.355C55.5502 272.355 56.4305 271.475 56.4305 270.389C56.4305 269.303 55.5502 268.423 54.4643 268.423C53.3784 268.423 52.498 269.303 52.498 270.389C52.498 271.475 53.3784 272.355 54.4643 272.355Z" fill="#00C3F7" stroke="black" stroke-width="0.25" stroke-linecap="round" stroke-linejoin="round"/>
<path d="M40.1845 270.406C41.6009 273.839 33.7526 279.554 31.2532 281.454C29.9354 282.413 28.5359 283.255 27.0708 283.97C28.5196 283.222 29.9021 282.353 31.2032 281.37C34.5461 279.079 37.4053 276.151 39.618 272.756C39.9513 272.072 40.2512 271.206 39.8346 270.623C39.6847 270.406 40.0512 270.156 40.1845 270.406Z" fill="black"/>
<path d="M113.051 259.175C111.685 265.241 111.502 280.92 115.751 288.086C129.981 273.405 146.644 253.093 160.274 237.913C157.091 235.081 148.493 236.864 141.945 239.046L136.479 244.162C134.476 243.386 132.315 243.106 130.181 243.345C129.359 243.45 128.593 243.819 127.998 244.395L125.465 246.778C123.831 246.375 122.145 246.229 120.466 246.345C117.5 246.578 112.268 250.794 107.636 255.026C107.253 255.376 107.436 255.876 107.902 255.743C113.435 254.076 115.334 256.259 115.334 256.259L114.118 257.392C113.599 257.873 113.229 258.491 113.051 259.175Z" fill="#FFE780" stroke="black" stroke-width="0.25" stroke-linecap="round" stroke-linejoin="round"/>
<path d="M111.568 307.415C112.36 305.314 113.33 303.285 114.468 301.349C115.251 299.995 115.568 298.42 115.367 296.867L114.634 291.352C114.413 289.64 114.703 287.9 115.467 286.353C117.634 282.054 122.283 274.605 136.929 256.843C148.153 243.221 160.248 230.341 173.138 218.285C173.138 218.285 170.339 248.428 165.373 262.491L110.252 316.596C110.411 313.502 110.852 310.429 111.568 307.415Z" fill="#FFE780" stroke="black" stroke-width="0.25" stroke-linecap="round" stroke-linejoin="round"/>
<path d="M113.468 309.348C114.28 307.251 115.249 305.217 116.367 303.266C117.158 301.92 117.475 300.348 117.267 298.8L116.534 293.268C116.306 291.554 116.602 289.812 117.384 288.269C119.533 283.954 124.199 276.522 138.846 258.759C149.402 245.954 160.714 233.79 172.721 222.334C172.988 219.768 173.138 218.218 173.138 218.218C160.246 230.285 148.152 243.176 136.929 256.81C122.283 274.572 117.634 282.021 115.467 286.32C114.703 287.867 114.413 289.607 114.634 291.319L115.367 296.834C115.568 298.386 115.251 299.962 114.468 301.316C113.33 303.252 112.36 305.281 111.568 307.382C110.852 310.396 110.411 313.469 110.252 316.563L112.535 314.314C112.685 312.632 112.997 310.969 113.468 309.348Z" fill="white" stroke="black" stroke-width="0.25" stroke-linecap="round" stroke-linejoin="round"/>
<path d="M110.702 311.864C110.402 314.263 110.252 316.596 110.252 316.596L165.373 262.475C166.006 260.675 166.606 258.642 167.156 256.426L110.702 311.864Z" fill="#E80000" stroke="black" stroke-width="0.25" stroke-linecap="round" stroke-linejoin="round"/>
<path d="M128.148 285.419C129.869 285.419 131.264 284.024 131.264 282.303C131.264 280.583 129.869 279.188 128.148 279.188C126.427 279.188 125.032 280.583 125.032 282.303C125.032 284.024 126.427 285.419 128.148 285.419Z" fill="#00C3F7" stroke="black" stroke-width="0.25" stroke-linecap="round" stroke-linejoin="round"/>
<path d="M141.428 272.373C143.149 272.373 144.544 270.978 144.544 269.257C144.544 267.536 143.149 266.141 141.428 266.141C139.707 266.141 138.312 267.536 138.312 269.257C138.312 270.978 139.707 272.373 141.428 272.373Z" fill="#00C3F7" stroke="black" stroke-width="0.25" stroke-linecap="round" stroke-linejoin="round"/>
<path d="M154.725 259.326C156.446 259.326 157.841 257.931 157.841 256.21C157.841 254.489 156.446 253.094 154.725 253.094C153.004 253.094 151.609 254.489 151.609 256.21C151.609 257.931 153.004 259.326 154.725 259.326Z" fill="#00C3F7" stroke="black" stroke-width="0.25" stroke-linecap="round" stroke-linejoin="round"/>
<path d="M117.334 264.292C122.95 258.36 128.632 252.328 134.414 246.529C133.607 246.07 132.863 245.51 132.197 244.863C126.24 250.241 120.806 256.172 115.968 262.576C116.353 263.2 116.812 263.776 117.334 264.292Z" fill="#00C3F7" stroke="black" stroke-width="0.25" stroke-linecap="round" stroke-linejoin="round"/>
<path d="M120.383 269.94C125.998 264.008 140.778 248.428 146.56 242.646C145.754 242.195 145.014 241.634 144.361 240.979C138.546 246.478 123.566 261.608 119.017 268.14C119.408 268.786 119.866 269.389 120.383 269.94Z" fill="#00C3F7" stroke="black" stroke-width="0.25" stroke-linecap="round" stroke-linejoin="round"/>
<path d="M115.201 256.109L121.549 250.444L115.484 256.409C115.284 256.609 114.984 256.293 115.201 256.109Z" fill="black"/>
<path d="M112.719 319.929C112.369 313.264 117.918 303.899 127.565 298.067C133.292 294.704 138.091 289.969 141.529 284.287C145.511 277.472 147.728 272.39 157.675 268.374C161.187 266.981 164.091 264.39 165.874 261.059L166.04 260.742C167.207 258.576 171.739 253.394 178.154 254.277" fill="#94CAFF"/>
<path d="M112.719 319.929C112.369 313.264 117.918 303.899 127.565 298.067C133.292 294.704 138.091 289.969 141.529 284.287C145.511 277.472 147.728 272.39 157.675 268.374C161.187 266.981 164.091 264.39 165.874 261.059L166.04 260.742C167.207 258.576 171.739 253.394 178.154 254.277" stroke="black" stroke-width="0.5" stroke-miterlimit="10"/>
</svg>
