<svg width="79" height="75" viewBox="0 0 79 75" fill="none" xmlns="http://www.w3.org/2000/svg">
<path d="M71.1762 36.5249C71.0566 36.4659 70.9238 36.4351 70.789 36.4351C70.6542 36.4351 70.5214 36.4659 70.4018 36.5249L42.1797 49.6124C42.0517 49.674 41.9473 49.7721 41.8811 49.8929C41.8148 50.0137 41.7901 50.1512 41.8103 50.286C41.8375 50.4216 41.906 50.5467 42.0073 50.6457C42.1087 50.7447 42.2385 50.8132 42.3806 50.8427L53.5288 52.5344C50.0719 57.2096 28.9806 67.2305 18.9857 43.4424C18.4868 42.2582 17.8129 40.7787 16.3939 40.5234C11.1713 39.6007 4.97348 40.9233 8.66364 50.1168C13.5234 62.2231 22.7375 68.8638 38.3437 69.3497C51.0536 69.7434 58.3302 64.4285 63.7051 58.2215L70.3241 66.5661C70.4378 66.6621 70.5773 66.7264 70.7271 66.7519C70.8768 66.7774 71.0311 66.7632 71.1729 66.7107C71.3077 66.6651 71.4249 66.582 71.5092 66.4723C71.5936 66.3626 71.6412 66.2313 71.6459 66.0955L71.5779 37.1247C71.5772 36.9989 71.5392 36.8759 71.4681 36.7698C71.397 36.6637 71.2958 36.5788 71.1762 36.5249Z" fill="#80E365" stroke="black" stroke-miterlimit="10"/>
<path d="M7.82445 38.475C7.94402 38.534 8.07682 38.5649 8.21161 38.5649C8.34639 38.5649 8.47919 38.534 8.59877 38.475L36.8209 25.3875C36.9489 25.3259 37.0533 25.2278 37.1195 25.107C37.1858 24.9862 37.2105 24.8488 37.1903 24.7139C37.1625 24.5771 37.0925 24.4511 36.9893 24.352C36.8861 24.2529 36.7542 24.1851 36.6103 24.1572L25.4718 22.4532C28.9287 17.778 50.02 7.76942 60.0149 31.5576C60.5138 32.7417 61.1877 34.2212 62.6067 34.4765C67.8293 35.3992 74.0271 34.0766 70.337 24.8831C65.4772 12.7768 56.2664 6.15156 40.6601 5.6502C27.9503 5.2565 20.6736 10.5715 15.2987 16.7784L8.67976 8.43379C8.56439 8.34038 8.42416 8.27891 8.27444 8.25613C8.12471 8.23334 7.97127 8.25011 7.83093 8.30461C7.69615 8.35023 7.57896 8.4333 7.4946 8.54301C7.41024 8.65272 7.36261 8.784 7.35791 8.91977L7.42595 37.8906C7.4293 38.0134 7.46827 38.1329 7.53858 38.236C7.60889 38.3391 7.70781 38.4218 7.82445 38.475Z" fill="#CB6CE6" stroke="black" stroke-miterlimit="10"/>
</svg>
