<svg width="85" height="101" viewBox="0 0 85 101" fill="none" xmlns="http://www.w3.org/2000/svg">
<path d="M29.0704 11.3029C27.3922 12.5578 26.0324 14.1894 25.1005 16.0662C24.1685 17.9431 23.6907 20.0126 23.7053 22.1081C23.7491 25.2346 24.7933 28.6862 22.9299 31.1687C22.0983 32.2817 20.7539 33.0446 20.2662 34.3327C19.472 36.4524 21.3167 38.9912 20.2662 40.9984C19.4908 42.4866 17.3648 43.0806 16.9896 44.7502C16.727 45.932 17.5211 47.0575 17.9463 48.1956C18.0852 48.576 18.1837 48.9701 18.2402 49.3711C18.3973 50.5323 18.9735 51.596 19.8603 52.3619C20.7471 53.1278 21.8833 53.543 23.055 53.5294L51.8751 53.2355C52.5425 53.2283 53.2011 53.0823 53.8092 52.807C54.4172 52.5317 54.9613 52.1329 55.407 51.636C55.8527 51.1392 56.1903 50.5551 56.3982 49.9208C56.6061 49.2866 56.6799 48.616 56.6148 47.9517C56.4846 46.7663 56.4387 45.5732 56.4773 44.3812C56.5956 43.3645 56.5598 42.3358 56.371 41.3298C55.8395 39.3601 53.8698 37.8781 53.8135 35.8334C53.776 34.2764 54.9078 32.8945 54.9891 31.3375C55.0829 29.6054 53.901 28.1047 53.3133 26.4789C52.7818 24.9907 52.7567 23.3837 52.5254 21.8204C51.9565 18.701 50.6723 15.7559 48.7736 13.2163C44.8967 7.6699 40.9136 10.9465 40.9136 10.9465C40.9136 10.9465 37.7245 4.96235 29.0704 11.3029Z" fill="#775026"/>
<path d="M55.5207 50.4907C53.6073 50.9784 53.2759 47.8081 52.8695 46.1136C52.2879 47.2141 51.8127 48.3396 50.7309 49.09C50.69 49.1116 50.6451 49.1249 50.5989 49.1291C50.5527 49.1333 50.5062 49.1282 50.462 49.1143C50.4178 49.1003 50.3768 49.0777 50.3414 49.0478C50.306 49.0178 50.2768 48.9812 50.2557 48.9399C49.873 47.931 49.7048 46.8534 49.7617 45.7759C49.5832 44.2416 49.2672 42.7265 48.8175 41.2487C48.4486 41.874 48.1297 42.5744 47.7545 43.2247C47.5669 43.5436 47.1292 43.3372 47.1292 43.0121C47.0855 39.9669 48.6174 37.4469 49.4616 34.6143C49.9889 32.7831 50.2789 30.8917 50.3245 28.9866C50.4144 28.3645 50.4144 27.7328 50.3245 27.1107C50.4746 26.4854 50.3245 26.3353 49.8743 26.723C49.7938 26.9444 49.7249 27.1698 49.6679 27.3983C49.1052 29.4181 49.0426 31.5878 48.2673 33.545C47.3504 35.6837 45.7343 37.4475 43.6838 38.5474C41.7579 39.5041 40.8637 38.5474 39.7882 36.9779C37.9907 34.4065 36.5204 31.6212 35.4111 28.6865C34.4982 26.1853 34.1605 23.4027 35.2173 20.8827C35.7826 19.742 36.4861 18.6751 37.312 17.7062C38.0683 16.6854 38.7696 15.6251 39.413 14.5297C38.2124 15.3551 36.9681 16.0241 35.6612 16.7495C34.5232 17.3748 33.2601 18.2002 31.9094 18.0001C31.7093 17.9688 31.4905 17.7625 31.5905 17.5311C31.7656 17.1372 31.9845 16.762 32.1846 16.3806C31.3989 16.8438 30.5076 17.0978 29.5958 17.1184C29.5332 17.1153 29.4725 17.0958 29.4199 17.0618C29.3672 17.0278 29.3245 16.9805 29.2959 16.9247C29.2674 16.8689 29.2541 16.8065 29.2573 16.7439C29.2606 16.6813 29.2803 16.6207 29.3144 16.5682C29.9835 15.4301 31.1215 14.586 31.7468 13.4417C31.0278 13.548 30.3274 13.7355 29.6083 13.8418C29.5474 13.8546 29.4842 13.8511 29.425 13.8319C29.3659 13.8126 29.3128 13.7782 29.271 13.732C29.2293 13.6858 29.2004 13.6295 29.1872 13.5687C29.1739 13.5079 29.1768 13.4447 29.1956 13.3854C29.7392 11.9084 30.652 10.5953 31.8469 9.57104C30.8907 10.0617 29.9767 10.6305 29.1143 11.2719C27.4362 12.5267 26.0763 14.1584 25.1444 16.0352C24.2125 17.9121 23.7346 19.9816 23.7493 22.077C23.793 25.2035 24.8373 28.6552 22.9739 31.1376C22.1422 32.2507 20.7979 33.0135 20.3101 34.3016C19.516 36.4214 21.3606 38.9601 20.3101 40.9673C19.5347 42.4556 17.4087 43.0496 17.0335 44.7191C16.7709 45.901 17.5651 47.0265 17.9903 48.1645C18.1292 48.545 18.2277 48.939 18.2841 49.3401C18.4412 50.5013 19.0174 51.565 19.9042 52.3309C20.791 53.0968 21.9273 53.512 23.099 53.4984L51.919 53.2045C52.8982 53.1934 53.8508 52.884 54.6496 52.3176C55.4484 51.7511 56.0555 50.9546 56.3899 50.0342C56.1402 50.2527 55.8424 50.4091 55.5207 50.4907Z" fill="#442D15"/>
<path d="M23.0053 53.8546C21.7566 53.8525 20.5509 53.3987 19.6107 52.5769C18.6705 51.7551 18.0595 50.6209 17.8904 49.3837C17.8393 49.0106 17.7491 48.6438 17.6215 48.2895C17.5152 48.0018 17.3839 47.7204 17.2526 47.4328C16.8461 46.5511 16.4272 45.6319 16.6273 44.6377C16.8274 43.6435 17.6715 42.9682 18.4531 42.3491C19.0462 41.9544 19.5491 41.4387 19.9288 40.8359C20.4166 39.8979 20.1977 38.7974 19.9601 37.6343C19.7225 36.4713 19.4911 35.3207 19.9038 34.2077C20.2859 33.3831 20.8504 32.6561 21.5546 32.0817C21.95 31.7376 22.316 31.3611 22.6489 30.9561C23.9495 29.2116 23.7369 26.9542 23.5118 24.5656C23.4368 23.7527 23.3617 22.9148 23.3492 22.1082C23.3336 19.9561 23.8246 17.8305 24.7828 15.9035C25.7409 13.9764 27.1391 12.3018 28.8644 11.0153C32.1972 8.57041 35.1174 7.61996 37.6186 8.18273C38.9861 8.48468 40.1946 9.27928 41.0139 10.415C42.0209 9.77535 43.2197 9.50771 44.4031 9.65843C46.0976 9.88979 47.6546 11.0091 49.0365 12.9788C51.1938 16.0553 52.4507 18.9191 52.8696 21.733C52.9322 22.1832 52.9822 22.6397 53.0322 23.0961C53.1154 24.1922 53.3252 25.2749 53.6575 26.3227C53.8542 26.8372 54.0797 27.3403 54.3328 27.8296C54.8643 28.9239 55.4208 30.0495 55.3521 31.3126C55.2631 32.0891 55.0521 32.8467 54.7268 33.5574C54.3926 34.2545 54.2013 35.0113 54.164 35.7835C54.164 36.834 54.7893 37.7469 55.4146 38.7099C55.964 39.4705 56.3864 40.3152 56.6652 41.2111C56.855 42.0856 56.9056 42.9845 56.8153 43.8748V44.3688C56.775 45.5439 56.8189 46.7204 56.9466 47.8893C57.0179 48.6028 56.9396 49.3233 56.7169 50.0049C56.4941 50.6865 56.1316 51.3141 55.6527 51.8478C55.1738 52.3815 54.5888 52.8094 53.9352 53.1044C53.2816 53.3993 52.5737 53.5547 51.8566 53.5607L23.0366 53.8609L23.0053 53.8546ZM29.2833 11.5719C27.6475 12.7897 26.3221 14.3763 25.4149 16.2027C24.5077 18.0291 24.0442 20.0439 24.0621 22.0831C24.0621 22.8585 24.1496 23.6839 24.2246 24.478C24.4498 26.8979 24.6811 29.3991 23.2179 31.3563C22.8703 31.7933 22.4853 32.1992 22.0674 32.5694C21.4427 33.0762 20.9404 33.7174 20.5979 34.4453C20.254 35.3645 20.4603 36.39 20.6792 37.478C20.9293 38.7286 21.1919 39.9792 20.5854 41.1485C20.1622 41.8424 19.595 42.4373 18.9221 42.8931C18.203 43.4621 17.5214 43.9999 17.3464 44.769C17.1713 45.5381 17.5214 46.301 17.8966 47.1139C18.0342 47.414 18.1717 47.7392 18.2843 48.0143C18.4331 48.4188 18.5379 48.838 18.597 49.2649C18.7443 50.34 19.2782 51.3245 20.0987 52.0346C20.9192 52.7446 21.9703 53.1316 23.0553 53.123L51.8754 52.8416C52.4958 52.8346 53.1081 52.6987 53.6732 52.4425C54.2383 52.1863 54.744 51.8154 55.1582 51.3534C55.5718 50.8963 55.8842 50.357 56.075 49.7708C56.2657 49.1846 56.3305 48.5648 56.265 47.9518C56.1373 46.7495 56.0934 45.5397 56.1337 44.3313V43.8248C56.2193 43.0104 56.1771 42.1876 56.0086 41.3861C55.7311 40.5713 55.3304 39.8037 54.8206 39.1101C54.1515 38.1033 53.4699 37.0591 53.4386 35.8085C53.4777 34.9413 53.6904 34.0908 54.0639 33.3073C54.357 32.668 54.547 31.9863 54.6267 31.2876C54.6892 30.2058 54.1953 29.2116 53.6825 28.1611C53.4223 27.6468 53.1906 27.1187 52.9884 26.579C52.6458 25.4783 52.4359 24.3405 52.3631 23.1899C52.3131 22.746 52.2631 22.2957 52.1943 21.8518C51.7941 19.1505 50.581 16.3804 48.4863 13.3977C47.2357 11.5969 45.8288 10.5776 44.3405 10.3713C43.2165 10.2359 42.0831 10.5332 41.1703 11.2029C41.1292 11.2352 41.0819 11.2585 41.0312 11.2715C40.9806 11.2844 40.9279 11.2866 40.8764 11.278C40.8257 11.2654 40.7781 11.2429 40.7363 11.2118C40.6944 11.1806 40.6591 11.1415 40.6325 11.0966C40.2824 10.5403 39.826 10.0585 39.2895 9.67871C38.7531 9.29889 38.147 9.02853 37.506 8.88306C35.2424 8.37657 32.5036 9.28951 29.3333 11.6031L29.2833 11.5719Z" fill="black"/>
<path d="M58.922 76.847C58.1666 76.7692 57.4481 76.4814 56.848 76.0161C56.2479 75.5508 55.7901 74.9267 55.5266 74.2145L44.8965 43.5748C44.8965 43.5748 51.1495 43.1246 53.3881 47.4392C56.5145 53.4358 63.1427 71.4007 63.1427 71.4007C63.3815 72.0493 63.4515 72.748 63.3461 73.4312C63.2406 74.1143 62.9632 74.7594 62.5399 75.3058C62.1167 75.8523 61.5614 76.2822 60.9263 76.555C60.2912 76.8279 59.5972 76.9348 58.9094 76.8658L58.922 76.847Z" fill="#FF6464"/>
<path d="M59.3474 77.2284C59.1933 77.2378 59.0388 77.2378 58.8847 77.2284C58.0617 77.1497 57.2779 76.8396 56.6238 76.3338C55.9698 75.8281 55.4724 75.1475 55.1892 74.3708L44.5591 43.7311C44.5414 43.6795 44.5356 43.6246 44.5421 43.5705C44.5486 43.5164 44.5672 43.4644 44.5966 43.4185C44.6277 43.3728 44.6684 43.3345 44.716 43.3064C44.7635 43.2783 44.8167 43.2611 44.8717 43.2559C45.1344 43.2559 51.3936 42.8432 53.7072 47.3078C56.7837 53.2607 63.4056 71.1318 63.4744 71.3131C63.7206 71.9816 63.802 72.6995 63.7119 73.4062C63.6217 74.1128 63.3626 74.7874 62.9565 75.3726C62.5504 75.9579 62.0092 76.4367 61.3788 76.7684C60.7484 77.1002 60.0473 77.2751 59.3349 77.2785L59.3474 77.2284ZM45.4032 43.9L55.8582 74.1019C56.1002 74.7549 56.5224 75.326 57.0758 75.7487C57.6292 76.1715 58.2911 76.4288 58.9847 76.4906C59.5523 76.5514 60.1262 76.4786 60.6605 76.278C61.118 76.1082 61.5374 75.8499 61.8948 75.5177C62.2522 75.1855 62.5406 74.7861 62.7433 74.3423C62.946 73.8985 63.0592 73.419 63.0763 72.9314C63.0933 72.4438 63.014 71.9576 62.8428 71.5007C62.7803 71.3256 56.1709 53.4921 53.1132 47.583C51.3311 44.1938 46.8602 43.9 45.4032 43.9Z" fill="black"/>
<path d="M61.7549 70.2188C61.8745 69.7517 62.0872 69.3136 62.3802 68.9307C62.5326 68.7443 62.7335 68.6036 62.9608 68.5241C63.1881 68.4447 63.433 68.4296 63.6683 68.4805C63.8091 68.5166 63.9329 68.6006 64.0185 68.7181C64.0906 68.8415 64.1293 68.9816 64.131 69.1245C64.1347 69.7027 63.9928 70.2726 63.7183 70.7816C63.4745 71.3068 63.1743 71.8008 62.9742 72.3448C62.9523 72.4224 62.9115 72.4933 62.8554 72.5512C62.5365 72.8388 61.6861 72.3073 61.5173 71.9884C61.2672 71.5007 61.6048 70.6878 61.7549 70.2188Z" fill="#EFC9AF"/>
<path d="M62.6115 72.9889H62.4177C61.9241 72.8794 61.4906 72.5866 61.2046 72.1697C60.917 71.6132 61.1671 70.8753 61.3484 70.3313L61.4172 70.1312C61.5479 69.6159 61.7866 69.1342 62.1175 68.7181C62.3108 68.4771 62.5687 68.2962 62.8611 68.1966C63.1534 68.0969 63.4681 68.0826 63.7683 68.1553C63.9876 68.2172 64.1794 68.3517 64.3123 68.5367C64.4193 68.7121 64.4775 68.9129 64.4812 69.1183C64.4879 69.7576 64.3376 70.3889 64.0435 70.9566C63.9559 71.1442 63.8559 71.3256 63.7621 71.5069C63.5933 71.824 63.4409 72.1496 63.3056 72.4824C63.267 72.6177 63.1938 72.7406 63.093 72.8388C62.9559 72.9453 62.7849 72.9986 62.6115 72.9889ZM62.0925 70.3251L62.0238 70.5377C61.8987 70.9129 61.6861 71.5382 61.8362 71.8258C62.0347 72.0706 62.3183 72.2314 62.6303 72.276C62.6303 72.276 62.6303 72.2448 62.6303 72.226C62.7741 71.8508 62.9554 71.5006 63.1243 71.163C63.2181 70.9879 63.3119 70.8128 63.3932 70.6315C63.6419 70.1751 63.771 69.6631 63.7683 69.1433C63.7679 69.0655 63.7509 68.9888 63.7183 68.9182C63.6751 68.8696 63.6186 68.8348 63.5557 68.8181C63.3861 68.7883 63.2116 68.8051 63.0508 68.8668C62.89 68.9285 62.749 69.0327 62.6428 69.1683C62.3802 69.5118 62.1908 69.9055 62.0863 70.3251H62.0925Z" fill="black"/>
<path d="M67.439 73.3078C65.0816 71.2944 63.6872 72.3386 62.2865 72.3261C62.0614 72.3261 61.8425 71.3256 61.6612 71.4569C61.5683 71.534 61.4922 71.6292 61.4373 71.7367C61.3825 71.8443 61.3502 71.9618 61.3423 72.0822C61.3681 72.6667 61.6085 73.2211 62.0176 73.6392C62.933 74.8681 63.9586 76.0108 65.0816 77.0534C66.2196 78.0914 67.6953 73.5267 67.439 73.3078Z" fill="#EFC9AF"/>
<path d="M65.4256 77.5724C65.207 77.5688 64.9975 77.4841 64.8378 77.3348C63.6932 76.2745 62.6468 75.113 61.7113 73.8644C61.2451 73.3789 60.9774 72.7364 60.9609 72.0635C60.9708 71.8905 61.0178 71.7217 61.0987 71.5685C61.1796 71.4152 61.2926 71.2813 61.4299 71.1756C61.5338 71.1093 61.6589 71.0847 61.7801 71.1068C62.0177 71.1693 62.1303 71.407 62.2678 71.7321C62.2678 71.8071 62.3554 71.9197 62.3929 71.9947C62.6825 71.9741 62.9706 71.9365 63.2558 71.8822C64.3626 71.6821 65.757 71.4382 67.6329 73.064C67.8142 73.2203 67.808 73.4704 67.7392 73.8269C67.6079 74.5397 66.7762 77.1785 65.6694 77.5474C65.5897 77.567 65.5076 77.5754 65.4256 77.5724ZM61.6738 72.1135C61.7229 72.6107 61.9441 73.0751 62.2991 73.4267C63.1982 74.6421 64.2094 75.7705 65.3193 76.797C65.344 76.8284 65.3798 76.8492 65.4194 76.855C65.4589 76.8608 65.4992 76.8513 65.5319 76.8283C66.2197 76.4781 67.0764 74.1082 67.1201 73.4892C66.6366 73.0224 66.0397 72.6898 65.3883 72.5242C64.7369 72.3586 64.0536 72.3658 63.4059 72.545C63.0403 72.6264 62.6673 72.6704 62.2928 72.6763C61.9864 72.6763 61.8301 72.4074 61.6925 72.1135H61.6738Z" fill="black"/>
<path d="M52.4948 99.908C55.2962 99.8705 58.1976 98.9763 60.9489 98.4386C63.7576 97.8849 66.4877 96.9882 69.0778 95.7686C69.0778 91.3352 68.9902 87.0144 68.7088 85.2823C67.527 77.9163 62.3058 69.1495 55.2712 64.2347C55.2712 64.2347 53.8642 49.8966 50.1249 46.1573C44.8974 40.9298 30.8282 43.4122 29.34 44.9067C25.0754 49.2212 26.1572 55.7619 25.8195 66.7171C25.8195 66.7171 21.7363 72.7138 21.999 93.7739C24.6315 94.9056 27.0764 96.3814 29.7902 97.3568C32.5116 98.2414 35.2848 98.9576 38.0942 99.5016C42.0379 99.9551 46.0051 100.174 49.9749 100.158C50.7252 100.158 51.4818 100.158 52.2385 100.114C52.2564 100.059 52.2903 100.01 52.3358 99.9729C52.3814 99.9363 52.4366 99.9137 52.4948 99.908Z" fill="#FF6464"/>
<path d="M61.5927 75.24C60.8173 76.4343 61.4927 77.1159 62.218 78.1102C63.0247 79.2544 63.8063 80.9177 65.2757 81.2867C66.0696 81.4355 66.8898 81.3463 67.6331 81.0303C66.4954 77.756 64.8815 74.6672 62.8433 71.8634C63.0343 72.4592 63.0343 73.0998 62.8433 73.6955C62.5807 74.3396 61.9616 74.671 61.5927 75.24Z" fill="#A03333"/>
<path d="M52.4946 99.9081C55.296 99.8706 58.1974 98.9764 60.9487 98.4387C61.2988 98.3636 61.6428 98.2761 61.9929 98.1948C58.2411 97.7508 54.4143 96.5253 51.6442 93.8865C47.5423 89.9784 48.4114 83.569 44.3095 79.6922C42.0209 77.5287 34.2046 71.7071 38.5504 68.1742C40.2325 66.811 42.9275 66.2983 44.9848 65.673C47.7048 64.8726 50.5625 64.141 52.9573 62.5465C48.1175 62.4964 43.2527 63.4469 38.4316 62.8904C37.0247 62.7278 35.5115 62.3651 34.4922 61.3084C33.3042 60.0578 33.2416 58.3445 33.2979 56.7249C33.3542 54.3238 33.5543 51.9727 33.473 49.559C33.4105 48.4647 33.3229 46.5888 34.6611 46.0761C36.143 45.4508 37.4812 47.0766 38.7255 47.5268C41.852 48.6711 43.9718 46.1511 43.7905 43.331C37.7376 42.3055 30.409 43.85 29.3585 44.913C25.094 49.2276 26.1758 55.7682 25.8381 66.7235C25.8381 66.7235 21.7549 72.7201 22.0175 93.7802C24.65 94.912 27.095 96.3877 29.8088 97.3632C32.5301 98.2477 35.3034 98.964 38.1127 99.5079C42.0565 99.9614 46.0237 100.181 49.9934 100.165C50.7438 100.165 51.5004 100.165 52.257 100.114C52.2736 100.061 52.3047 100.014 52.3466 99.9777C52.3886 99.9412 52.4398 99.9172 52.4946 99.9081Z" fill="#A03333"/>
<path d="M55.0648 64.5223C61.6617 69.137 67.1268 77.6974 68.3524 85.3386C68.626 88.081 68.745 90.8367 68.7088 93.5925C68.7148 94.436 68.6119 95.2767 68.4024 96.0937C68.6651 95.9812 68.9277 95.8749 69.1841 95.7498H69.2466C69.3633 95.1313 69.4219 94.5033 69.4217 93.8739C69.461 90.9929 69.3379 88.1119 69.0527 85.2448C67.8021 77.5411 62.3745 68.9244 55.7589 64.1659C55.7099 64.1313 55.669 64.0866 55.6388 64.0348C55.6085 63.9831 55.5898 63.9254 55.5838 63.8658C55.2005 60.2839 54.5738 56.7323 53.7079 53.2357C53.4514 53.165 53.1902 53.1127 52.9263 53.0793C53.8585 56.7607 54.5313 60.5029 54.9397 64.2785C54.9416 64.3258 54.9537 64.3721 54.9753 64.4142C54.9969 64.4563 55.0275 64.4932 55.0648 64.5223Z" fill="black"/>
<path d="M39.4695 42.6369H39.3757C34.6172 42.6369 29.9962 43.7186 29.0833 44.6628C25.6004 48.1895 25.5754 53.0669 25.5441 60.4579C25.5441 62.3026 25.5441 64.3848 25.4566 66.6171C24.9251 67.4675 21.3984 73.9456 21.636 93.6238L22.3488 93.9365C22.0799 73.1703 26.0569 66.9861 26.1006 66.9235C26.1372 66.8678 26.1567 66.8026 26.1569 66.7359C26.2319 64.4598 26.2382 62.3588 26.2507 60.4829C26.2507 53.267 26.3007 48.4959 29.5835 45.1818C30.2088 44.5565 34.3984 43.381 39.3695 43.3685C40.8932 43.3645 42.4144 43.4943 43.9154 43.7562C44.8861 43.9374 45.8736 44.0128 46.8606 43.9813H47.3671C44.8442 43.0344 42.1636 42.578 39.4695 42.6369Z" fill="black"/>
<path d="M57.7155 58.8508C57.5842 62.1086 54.7579 64.8849 46.185 65.4227C37.9686 65.9354 33.679 65.9479 32.3971 61.9085C30.7964 56.9624 35.8425 51.1221 43.0272 50.4155C53.3322 49.4025 57.8343 55.7305 57.7155 58.8508Z" fill="#FF6464"/>
<path d="M52.7945 63.8469C49.4491 64.8411 46.5415 64.7911 43.0836 64.3221C40.5198 63.9782 37.4559 63.528 35.58 61.6458C33.8979 60.0013 33.4539 57.9628 33.3914 55.8055C32.8007 56.6934 32.4112 57.6997 32.2503 58.7539C32.0894 59.8081 32.1608 60.8848 32.4597 61.9085C33.7603 65.9479 38.0311 65.9354 46.2476 65.4227C50.7935 65.135 53.7137 64.2221 55.4833 62.9215C54.5391 63.2779 53.6511 63.578 52.7945 63.8469Z" fill="#A03333"/>
<path d="M55.3706 53.5419C54.7415 52.9592 54.0518 52.4456 53.3133 52.0099C52.688 51.9224 52.0627 51.8724 51.3999 51.8348C52.683 52.3658 53.8621 53.1194 54.8828 54.0609C56.7587 55.8493 57.384 57.7502 57.384 58.8382C57.3195 59.8075 57.017 60.746 56.5033 61.5706C55.9896 62.3951 55.2805 63.0803 54.4389 63.5655C55.3644 63.2955 56.2059 62.7941 56.8838 62.1085C57.6383 61.1949 58.0633 60.054 58.0906 58.8695C58.1219 57.5751 57.434 55.4928 55.3706 53.5419Z" fill="black"/>
<path d="M40.5135 65.7292C40.9882 65.6113 41.4541 65.4609 41.908 65.279C36.2803 65.4353 33.6978 64.7912 32.7348 61.8023C32.3184 60.457 32.3735 59.01 32.8911 57.7003C32.5428 57.9582 32.2592 58.2936 32.0628 58.6799C31.8664 59.0663 31.7625 59.493 31.7593 59.9264C31.7501 60.6328 31.8557 61.3361 32.072 62.0086C32.8161 64.316 34.4857 65.3727 37.0744 65.7604C38.2154 65.9296 39.3758 65.919 40.5135 65.7292Z" fill="black"/>
<path d="M39.5758 47.2139C34.1232 44.9628 34.0356 34.5891 34.0356 34.5891H42.7898C42.7898 34.5891 44.2593 49.1961 39.5758 47.2139Z" fill="#EFC9AF"/>
<path d="M40.3885 47.7767C40.0608 47.7688 39.7378 47.6965 39.438 47.5641C33.8103 45.2254 33.704 35.0205 33.6978 34.5891V34.2327H43.1523V34.5516C43.2648 35.6584 44.134 45.4255 41.4515 47.4077C41.1456 47.6411 40.7731 47.7704 40.3885 47.7767ZM39.7131 46.9075C39.922 47.0204 40.1579 47.0738 40.395 47.0616C40.6321 47.0495 40.8613 46.9724 41.0575 46.8387C42.9897 45.413 42.7771 38.0845 42.5082 34.958H34.4231C34.4981 36.7776 35.0984 45.0003 39.7131 46.9263V46.9075Z" fill="black"/>
<path d="M27.8321 30.6026C28.7938 30.4724 29.357 28.7689 29.0901 26.7977C28.8233 24.8265 27.8274 23.334 26.8657 23.4642C25.9041 23.5944 25.3408 25.2979 25.6077 27.2691C25.8746 29.2403 26.8705 30.7327 27.8321 30.6026Z" fill="#BF9E88"/>
<path d="M27.7134 30.9561C27.3894 30.9243 27.0785 30.8121 26.8088 30.6297C26.5391 30.4474 26.3191 30.2007 26.1689 29.9119C25.6922 29.114 25.3821 28.2278 25.2575 27.3067C25.1328 26.3857 25.1961 25.449 25.4435 24.5531C25.7249 23.7027 26.2126 23.1837 26.8192 23.1024C27.9885 22.946 29.1515 24.5406 29.4454 26.7416C29.5905 27.6608 29.5285 28.6007 29.2641 29.4929C28.9827 30.3496 28.4887 30.8686 27.8822 30.9499L27.7134 30.9561ZM26.9818 23.809H26.913C26.5941 23.8527 26.2877 24.2092 26.1126 24.7844C25.8859 25.5703 25.8347 26.3964 25.9625 27.2043C26.0502 28.0234 26.3216 28.8122 26.7566 29.5117C27.0943 30.0182 27.4695 30.2808 27.7884 30.237C28.1073 30.1933 28.4137 29.8431 28.5888 29.2678C28.8189 28.4762 28.8722 27.6437 28.7451 26.8292C28.495 25.0095 27.6383 23.809 26.9818 23.809Z" fill="black"/>
<path d="M40.5261 13.2478C37.6122 18.2877 30.6151 21.3267 28.3077 21.8957C27.8618 23.4012 27.5973 24.9546 27.5198 26.5229C27.0696 35.1208 33.8416 43.1121 39.4443 43.406C44.4905 43.6686 51.2187 36.3839 51.6627 27.7735C51.809 25.245 51.4476 22.7128 50.5997 20.3262C46.5921 19.0621 43.0735 16.5897 40.5261 13.2478Z" fill="#EFC9AF"/>
<path d="M38.4874 43.2371C35.511 41.7114 34.448 38.1222 34.0665 35.0207C33.6277 31.3904 33.9492 27.7085 35.0107 24.2093C36.1613 20.4575 39.4879 17.7124 40.1444 13.8418C37.0179 18.519 30.5211 21.3454 28.3075 21.8957C27.8616 23.4012 27.5971 24.9546 27.5196 26.5229C27.0882 34.708 33.2036 42.3305 38.625 43.2997L38.4874 43.2371Z" fill="#BF9E88"/>
<path d="M39.7006 43.7624H39.4254C33.6414 43.4622 26.7068 35.2708 27.1571 26.5041C27.237 24.908 27.5078 23.3272 27.9637 21.7956L28.02 21.6017L28.2201 21.5517C30.4274 21.0014 37.3745 17.975 40.2133 13.0726L40.4822 12.5974L40.8074 13.0351C43.3006 16.3357 46.7639 18.7736 50.7121 20.0072L50.8747 20.0572L50.9372 20.2198C51.7953 22.6605 52.1629 25.2466 52.019 27.8297C51.5438 36.4151 44.8405 43.7624 39.7006 43.7624ZM28.5953 22.202C28.1901 23.6292 27.9468 25.0975 27.8699 26.5791C27.4322 34.9706 33.9916 42.7994 39.463 43.087C44.3278 43.3371 50.8747 36.2087 51.3124 27.8047C51.4431 25.3831 51.1077 22.9589 50.3244 20.6638C46.4734 19.4098 43.0766 17.0503 40.5572 13.8793C37.5996 18.5002 31.3153 21.4454 28.5953 22.202Z" fill="black"/>
<path d="M45.2722 30.6371C48.2214 30.6371 50.6122 28.2463 50.6122 25.2971C50.6122 22.3479 48.2214 19.957 45.2722 19.957C42.323 19.957 39.9321 22.3479 39.9321 25.2971C39.9321 28.2463 42.323 30.6371 45.2722 30.6371Z" fill="#EFC9AF"/>
<path d="M41.9644 28.58C41.9644 28.0797 42.3584 27.7921 42.4334 27.3294C42.5335 26.6665 42.1145 25.8912 42.0832 25.2033C42.0207 23.365 43.0587 20.8262 44.8221 19.9758C43.7133 20.0655 42.6602 20.4992 41.8099 21.2164C40.9595 21.9336 40.3544 22.8984 40.0789 23.9761C39.8035 25.0539 39.8714 26.1907 40.2734 27.228C40.6753 28.2652 41.3911 29.151 42.3209 29.7618C42.0721 29.4193 41.9465 29.0028 41.9644 28.58Z" fill="#BF9E88"/>
<path d="M45.2908 30.9874C44.1618 30.9911 43.0571 30.6592 42.117 30.0339C41.177 29.4085 40.444 28.5179 40.0111 27.4752C39.5782 26.4324 39.4649 25.2845 39.6856 24.1773C39.9063 23.07 40.4511 22.0533 41.2508 21.2563C42.0505 20.4593 43.069 19.9178 44.177 19.7008C45.285 19.4837 46.4325 19.6008 47.4738 20.0371C48.5151 20.4735 49.4032 21.2094 50.0255 22.1516C50.6477 23.0937 50.976 24.1994 50.9685 25.3285C50.957 26.829 50.3545 28.2645 49.2917 29.3238C48.2289 30.3832 46.7914 30.9809 45.2908 30.9874ZM45.2908 20.3261C44.3014 20.3261 43.3343 20.6194 42.5116 21.1691C41.689 21.7188 41.0478 22.5 40.6692 23.4141C40.2906 24.3282 40.1915 25.334 40.3845 26.3044C40.5775 27.2747 41.054 28.1661 41.7536 28.8657C42.4532 29.5653 43.3445 30.0417 44.3149 30.2347C45.2853 30.4277 46.2911 30.3287 47.2051 29.9501C48.1192 29.5714 48.9005 28.9303 49.4501 28.1076C49.9998 27.285 50.2932 26.3178 50.2932 25.3285C50.2932 24.0017 49.7662 22.7294 48.828 21.7912C47.8899 20.8531 46.6175 20.3261 45.2908 20.3261Z" fill="black"/>
<path d="M36.011 30.6374C38.9602 30.6374 41.351 28.2466 41.351 25.2973C41.351 22.3481 38.9602 19.9573 36.011 19.9573C33.0617 19.9573 30.6709 22.3481 30.6709 25.2973C30.6709 28.2466 33.0617 30.6374 36.011 30.6374Z" fill="#EFC9AF"/>
<path d="M34.3793 30.331C33.6852 29.1867 34.2417 28.5551 35.0984 27.9674C33.779 26.5354 32.9536 25.0222 33.5101 23.0025C33.824 21.7938 34.5437 20.7298 35.5486 19.9885C34.3145 20.0961 33.1563 20.6294 32.2721 21.4971C31.388 22.3647 30.833 23.5127 30.7022 24.7446C30.5714 25.9764 30.873 27.2154 31.5552 28.2493C32.2374 29.2833 33.2579 30.0479 34.4418 30.4123C34.4418 30.4123 34.3981 30.331 34.3793 30.331Z" fill="#BF9E88"/>
<path d="M36.0113 30.9874C34.8831 30.9874 33.7802 30.6524 32.8426 30.0247C31.9051 29.3971 31.175 28.5052 30.7449 27.4622C30.3149 26.4191 30.2043 25.2718 30.4272 24.1658C30.65 23.0597 31.1963 22.0448 31.9967 21.2497C32.7972 20.4545 33.8157 19.915 34.9231 19.6994C36.0306 19.4839 37.1772 19.602 38.2174 20.0389C39.2576 20.4759 40.1446 21.2118 40.766 22.1535C41.3874 23.0952 41.7152 24.2003 41.7078 25.3285C41.6979 26.8328 41.0933 28.2721 40.0261 29.3323C38.9589 30.3925 37.5156 30.9875 36.0113 30.9874ZM36.0113 20.3073C35.0219 20.3073 34.0548 20.6007 33.2321 21.1504C32.4095 21.7001 31.7683 22.4813 31.3897 23.3954C31.0111 24.3095 30.912 25.3153 31.105 26.2856C31.298 27.256 31.7745 28.1474 32.4741 28.847C33.1737 29.5466 34.065 30.023 35.0354 30.216C36.0057 30.409 37.0116 30.31 37.9256 29.9313C38.8397 29.5527 39.621 28.9115 40.1706 28.0889C40.7203 27.2663 41.0137 26.2991 41.0137 25.3097C41.0087 23.9863 40.4795 22.7187 39.5419 21.7846C38.6043 20.8505 37.3348 20.3261 36.0113 20.3261V20.3073Z" fill="black"/>
<path d="M40.8011 29.9746C41.1013 30.4686 41.614 30.5436 42.1393 30.75C42.4447 30.8575 42.7194 31.0378 42.9396 31.2752C43.053 31.4151 43.1373 31.5762 43.1878 31.7491C43.2382 31.9219 43.2538 32.1031 43.2335 32.282C43.2172 32.4581 43.1751 32.6309 43.1085 32.7947C43.0259 32.9829 42.8886 33.1419 42.7145 33.2512C42.4318 33.3985 42.1201 33.4818 41.8016 33.495C41.2249 33.5582 40.6418 33.4654 40.1133 33.2262C40.6504 33.186 41.1823 33.0939 41.7015 32.951C41.9215 32.8941 42.1322 32.8056 42.3268 32.6884C42.4394 32.6134 42.4894 32.4633 42.5082 32.2257C42.5433 32.0386 42.5028 31.8452 42.3956 31.6879C42.2519 31.5064 42.0733 31.3555 41.8704 31.244C41.6237 31.1013 41.3894 30.9381 41.17 30.7562C41.0572 30.6591 40.9661 30.5393 40.9025 30.4046C40.839 30.27 40.8044 30.1235 40.8011 29.9746Z" fill="black"/>
<path d="M34.5602 34.1953C35.8415 35.488 37.4939 36.3492 39.2874 36.659C40.1663 36.759 41.0536 36.759 41.9325 36.659C42.831 36.5875 43.722 36.4411 44.5962 36.2213V36.2838C43.8265 36.8485 42.9321 37.2195 41.9887 37.3656C41.0498 37.5036 40.0927 37.4505 39.1749 37.2093C37.3314 36.7651 35.688 35.7202 34.5039 34.2391L34.5602 34.1953Z" fill="black"/>
<path d="M46.5413 28.5301C44.6838 28.4684 42.8514 28.0833 41.1262 27.392C40.2383 27.8923 35.9487 29.9683 30.6274 26.723L30.9964 26.0977C36.5365 29.4993 40.7073 26.8168 40.9136 26.6979C40.965 26.6721 41.0218 26.6586 41.0793 26.6586C41.1369 26.6586 41.1936 26.6721 41.245 26.6979C41.3076 26.6979 47.498 29.3305 50.1681 26.6041L50.6746 27.0981C50.118 27.6036 49.4649 27.9911 48.7545 28.2372C48.0441 28.4833 47.2913 28.5829 46.5413 28.5301Z" fill="black"/>
<path d="M31.5341 27.0357C31.2346 27.1736 30.9226 27.2825 30.6024 27.3609C30.2887 27.4375 29.9683 27.4836 29.6457 27.4985C29.3226 27.5064 29.0002 27.4664 28.689 27.3797C28.3926 27.2793 28.1186 27.1221 27.8823 26.9169C28.1398 27.0663 28.4244 27.1631 28.7196 27.2017C29.0147 27.2404 29.3146 27.2201 29.6019 27.142C29.8872 27.0783 30.1642 26.9817 30.4273 26.8544C30.6862 26.7365 30.9333 26.5942 31.1651 26.4292L31.5341 27.0357Z" fill="black"/>
<path d="M32.5221 27.2481C32.2987 27.4793 32.0537 27.6886 31.7905 27.8734C31.533 28.0708 31.254 28.2386 30.9589 28.3736C30.6673 28.5065 30.3575 28.595 30.0397 28.6362C29.7267 28.6658 29.411 28.6274 29.1143 28.5237C29.4089 28.5626 29.7084 28.5422 29.9951 28.4638C30.2818 28.3855 30.5499 28.2506 30.7838 28.0672C31.0121 27.8935 31.2217 27.6966 31.4091 27.4794C31.6006 27.2685 31.7723 27.0403 31.9219 26.7979L32.5221 27.2481Z" fill="black"/>
<path d="M33.5227 27.6047C33.3758 27.9059 33.1976 28.191 32.9912 28.4551C32.7927 28.7108 32.5685 28.9454 32.3221 29.1554C32.0721 29.3587 31.7941 29.5251 31.4967 29.6494C31.2001 29.7545 30.8854 29.7991 30.5713 29.7807C31.1686 29.6972 31.7083 29.3801 32.072 28.899C32.2528 28.6717 32.4099 28.4266 32.541 28.1674C32.674 27.9142 32.7808 27.6481 32.8599 27.3733L33.5227 27.6047Z" fill="black"/>
<path d="M50.3619 27.0605C50.8048 27.4321 51.314 27.7164 51.8626 27.8984C52.1424 28.0032 52.4402 28.0511 52.7387 28.0393C53.0372 28.0275 53.3304 27.9562 53.601 27.8297C53.3501 28.0197 53.0627 28.1559 52.7568 28.2299C52.44 28.2941 52.1152 28.3089 51.7939 28.2736C51.473 28.2334 51.1568 28.1622 50.8497 28.061C50.5386 27.9562 50.2373 27.8244 49.9492 27.6671L50.3619 27.0605Z" fill="black"/>
<path d="M49.5363 27.3982C49.6675 27.652 49.8224 27.8928 49.999 28.1173C50.1829 28.349 50.3927 28.5588 50.6243 28.7426C50.8432 28.9448 51.1004 29.101 51.3807 29.202C51.6611 29.303 51.9588 29.3466 52.2564 29.3304C51.9498 29.4086 51.6302 29.4214 51.3184 29.3679C50.9982 29.3237 50.6876 29.2265 50.3992 29.0802C50.1166 28.9224 49.8524 28.7336 49.6114 28.5175C49.3645 28.3015 49.1384 28.0628 48.936 27.8046L49.5363 27.3982Z" fill="black"/>
<path d="M48.5862 27.8298C48.6467 28.108 48.7326 28.3801 48.8425 28.6427C48.9526 28.9149 49.0909 29.1748 49.2552 29.4181C49.416 29.6686 49.6247 29.8849 49.8694 30.0545C50.1141 30.224 50.3899 30.3435 50.6809 30.4061C50.3663 30.401 50.0559 30.3329 49.768 30.206C49.4816 30.0597 49.2183 29.8722 48.9864 29.6495C48.7525 29.4216 48.543 29.1702 48.3611 28.8991C48.18 28.6234 48.0231 28.3326 47.8921 28.0299L48.5862 27.8298Z" fill="black"/>
<path d="M32.272 19.2881C32.6304 18.8365 33.0515 18.4386 33.5226 18.1063C34.0158 17.7796 34.5681 17.5523 35.1484 17.4372C35.7338 17.2941 36.345 17.2941 36.9305 17.4372C37.5033 17.5937 38.0292 17.8878 38.4624 18.2938V18.3564C37.8371 18.3001 37.3369 18.1938 36.8117 18.1313C36.2983 18.0355 35.7769 17.9894 35.2547 17.9937C34.1678 18.106 33.1492 18.5768 32.3595 19.3318L32.272 19.2881Z" fill="black"/>
<path d="M49.1425 20.2761C48.5215 19.5047 47.665 18.9578 46.7038 18.7191C46.2355 18.6576 45.7626 18.6367 45.2907 18.6566C44.8154 18.6566 44.3277 18.6566 43.7837 18.619V18.5503C44.2178 18.2215 44.7272 18.0065 45.2657 17.925C45.8143 17.8669 46.3687 17.9464 46.8789 18.1563C47.3893 18.3381 47.8588 18.6186 48.2608 18.9817C48.6401 19.3487 48.9626 19.7702 49.2175 20.2323L49.1425 20.2761Z" fill="black"/>
<path d="M36.3614 79.6234C35.2288 80.9221 34.1643 82.2788 33.1724 83.6879L39.8943 89.9846L44.3652 93.1799C44.3652 93.1799 44.9905 93.6426 45.3595 93.4363C45.7284 93.2299 45.6221 92.4483 45.6221 92.4483L41.37 88.9404L46.585 92.6922C46.585 92.6922 47.2979 93.0736 47.6168 92.8297C47.9357 92.5859 47.6168 91.9043 47.6168 91.9043L43.0083 87.9024L48.7361 91.3916C48.7361 91.3916 49.4802 91.5979 49.724 91.2978C49.9804 90.9914 49.649 90.2785 49.649 90.2785L44.1026 86.5267L49.7303 88.9029C49.7303 88.9029 50.4932 88.9404 50.6745 88.5965C50.8621 88.2338 50.3744 87.6085 50.3744 87.6085C50.3744 87.6085 46.46 86.0077 44.5403 84.482C44.1151 84.1381 43.4335 82.3872 44.1276 82.2247C45.0531 82.0058 46.9102 83.0813 48.2046 82.2872C48.2904 82.234 48.3644 82.1638 48.4222 82.0811C48.4801 81.9983 48.5204 81.9047 48.5409 81.8058C48.5614 81.707 48.5615 81.605 48.5413 81.506C48.5211 81.4071 48.481 81.3134 48.4234 81.2304C48.3297 81.0859 48.1881 80.9791 48.0233 80.9288C47.8586 80.8784 47.6815 80.8878 47.523 80.9553C46.6288 81.3555 42.8833 79.0794 40.6447 79.5859C39.6707 79.8199 38.722 80.1487 37.8121 80.5676L36.3614 79.6234Z" fill="#EFC9AF"/>
<path d="M45.1533 93.8426C44.7937 93.811 44.4498 93.6812 44.159 93.4674L39.6631 90.2722L32.9287 83.9504C32.8684 83.8907 32.8306 83.8122 32.8215 83.7279C32.8124 83.6436 32.8325 83.5588 32.8786 83.4877C33.879 82.0681 34.9517 80.7011 36.0927 79.3919C36.1471 79.3287 36.2219 79.2866 36.3042 79.2729C36.3865 79.2592 36.4709 79.2748 36.5429 79.3169L37.8873 80.1235C38.7659 79.7308 39.6784 79.419 40.6136 79.1918C41.983 78.8792 43.8214 79.5295 45.3033 80.0485C46.1225 80.3424 47.1792 80.6738 47.4043 80.5863C47.6384 80.486 47.9001 80.4705 48.1443 80.5424C48.3886 80.6143 48.6001 80.7691 48.7425 80.9802C48.8265 81.1057 48.8846 81.2466 48.9136 81.3947C48.9426 81.5428 48.9418 81.6953 48.9113 81.8431C48.8814 81.9891 48.8215 82.1273 48.7354 82.249C48.6493 82.3706 48.5389 82.473 48.4111 82.5497C47.4919 83.1062 46.3726 82.8624 45.4722 82.6685C45.0677 82.544 44.6437 82.4953 44.2216 82.5247C44.0652 82.7248 44.4654 83.9066 44.7781 84.1567C46.654 85.6449 50.4808 87.2269 50.5246 87.2394C50.5813 87.2641 50.6309 87.3028 50.6684 87.352C50.7747 87.4896 51.2937 88.1899 51.0061 88.7214C50.7184 89.2529 49.8868 89.2404 49.718 89.2342C49.6786 89.2398 49.6385 89.2398 49.5991 89.2342L47.2168 88.2337L49.8305 90.0158C49.8877 90.0477 49.9319 90.0986 49.9556 90.1596C50.0244 90.3097 50.362 91.1038 49.9556 91.554C49.5491 92.0042 48.7425 91.8229 48.5862 91.7791L48.4924 91.7416L46.3726 90.4472L47.792 91.6978C47.8279 91.7296 47.8576 91.7678 47.8796 91.8104C47.9546 91.9667 48.311 92.7796 47.792 93.1735C47.273 93.5675 46.5414 93.1735 46.3789 93.0672L45.9474 92.7546C45.964 92.9513 45.9316 93.1491 45.853 93.3303C45.7744 93.5114 45.6522 93.6703 45.4972 93.7926C45.3886 93.8379 45.2703 93.8551 45.1533 93.8426ZM33.6415 83.6377L40.1384 89.7344L44.5717 92.8609C44.7481 93.008 44.9676 93.0936 45.197 93.1048C45.2723 92.9471 45.3046 92.7724 45.2908 92.5983L41.1576 89.1904C41.0934 89.1298 41.054 89.0476 41.0469 88.9597C41.0398 88.8717 41.0656 88.7843 41.1193 88.7143C41.173 88.6442 41.2507 88.5966 41.3375 88.5806C41.4243 88.5646 41.5139 88.5813 41.5891 88.6276L46.8103 92.3794C47.0002 92.4873 47.2176 92.5373 47.4356 92.5232C47.4282 92.3746 47.3943 92.2285 47.3356 92.0918L42.7896 88.1774C42.7142 88.1227 42.6635 88.0402 42.6489 87.9482C42.6342 87.8561 42.6567 87.762 42.7115 87.6865C42.7662 87.6111 42.8487 87.5605 42.9407 87.5458C43.0328 87.5311 43.1269 87.5537 43.2023 87.6084L48.8863 91.0725C49.0757 91.1313 49.2784 91.1313 49.4678 91.0725C49.5075 90.8798 49.481 90.6794 49.3928 90.5035L43.9277 86.7892C43.8552 86.7396 43.8036 86.6648 43.7828 86.5794C43.762 86.494 43.7735 86.404 43.8151 86.3265C43.8566 86.2484 43.926 86.1889 44.0095 86.1599C44.093 86.1309 44.1844 86.1346 44.2653 86.1702L49.8555 88.5213C50.0473 88.5359 50.2391 88.4923 50.4058 88.3963C50.3982 88.1973 50.3257 88.0062 50.1994 87.8523C49.5741 87.5959 46.16 86.1452 44.3716 84.7258C44.0877 84.4168 43.8688 84.0538 43.7281 83.6585C43.5873 83.2632 43.5276 82.8435 43.5525 82.4246C43.5769 82.286 43.6415 82.1577 43.7382 82.0554C43.8349 81.9531 43.9595 81.8815 44.0965 81.8494C44.6174 81.7863 45.1456 81.8332 45.6473 81.9869C46.4664 82.162 47.3918 82.3684 48.0672 81.9557C48.1119 81.9272 48.1504 81.89 48.1804 81.8463C48.2105 81.8026 48.2314 81.7533 48.2419 81.7014C48.2524 81.6494 48.2523 81.5959 48.2416 81.5439C48.2309 81.492 48.2099 81.4428 48.1797 81.3992C48.1313 81.3251 48.059 81.2698 47.9748 81.2425C47.8907 81.2152 47.7997 81.2175 47.717 81.2491C47.2293 81.4679 46.4664 81.2053 45.0907 80.7301C43.7151 80.2549 41.9642 79.6296 40.7949 79.8984C39.8459 80.1264 38.9221 80.449 38.0374 80.8614C37.9856 80.8859 37.929 80.8986 37.8717 80.8986C37.8143 80.8986 37.7578 80.8859 37.7059 80.8614L36.4554 80.1173C35.4986 81.1991 34.5169 82.3809 33.6415 83.6377Z" fill="black"/>
<path d="M32.6599 85.1132C29.3521 81.1926 12.1751 72.0257 12.6503 67.6799C12.8504 65.8978 20.7792 50.6405 27.3261 45.9319C33.873 41.2234 32.7224 52.729 31.3155 54.4798C27.9701 58.6255 24.0683 62.9964 21.5983 67.4735C23.9245 69.3494 28.5204 74.0079 37.9437 79.1604C39.9384 80.2421 33.7792 86.4451 32.6599 85.1132Z" fill="#FF6464"/>
<path d="M34.4359 84.244C32.6038 84.1315 33.0415 82.1805 33.4167 80.7861C30.7779 81.7929 28.7894 79.2541 26.901 77.5221C25.2127 75.9776 23.3994 74.6582 21.8424 72.9511C21.1822 72.2302 20.5742 71.4633 20.0227 70.6563C19.2536 69.512 19.0535 69.3681 17.5778 69.0242C17.1901 68.9367 16.8337 68.9117 16.4398 68.8054C16.3759 68.788 16.3181 68.7531 16.2729 68.7047C16.2277 68.6563 16.1969 68.5963 16.1839 68.5314C16.171 68.4665 16.1763 68.3992 16.1994 68.3371C16.2225 68.2751 16.2624 68.2207 16.3147 68.1801C16.5802 67.9326 16.86 67.7008 17.1526 67.486C16.2647 67.2859 15.3142 67.4172 14.4263 67.1296C14.3624 67.1122 14.3046 67.0773 14.2595 67.0289C14.2143 66.9805 14.1835 66.9205 14.1705 66.8556C14.1575 66.7907 14.1628 66.7234 14.1859 66.6613C14.209 66.5993 14.249 66.5449 14.3012 66.5043C15.7519 65.0411 18.2344 65.7477 19.0223 63.5529C19.2974 62.7712 19.3974 61.9458 19.7288 61.183C20.0603 60.4201 20.9794 59.4759 20.8356 58.6005C20.7793 58.2816 20.3666 58.2316 20.5105 57.7938C20.5918 57.525 20.8856 57.4124 21.1358 57.3124C22.0737 56.9184 23.3306 57.3124 24.3748 57.4249C24.1342 56.6373 23.787 55.8862 23.3431 55.1926C23.3047 55.1157 23.2953 55.0275 23.3168 54.9443C23.3383 54.8611 23.3891 54.7884 23.4599 54.7397C23.5307 54.691 23.6167 54.6695 23.7021 54.6792C23.7875 54.6888 23.8665 54.7291 23.9246 54.7924C25.2065 56.3119 26.8885 57.1498 27.6764 58.9006C28.927 57.3937 30.1776 55.9117 31.3219 54.4547C32.7288 52.7039 33.8231 41.2297 27.3325 45.9069C20.8419 50.5841 12.8568 65.8727 12.6567 67.6548C12.1565 72.0319 29.3334 81.1676 32.6663 85.0882C33.0665 85.5697 34.1232 85.0882 35.2113 84.194C34.9544 84.2297 34.6952 84.2464 34.4359 84.244Z" fill="#A03333"/>
<path d="M38.1374 78.8541C32.7766 75.9623 27.7751 72.4489 23.2365 68.3866L22.0797 67.3861C23.3091 65.2736 24.6927 63.2546 26.2192 61.3457C26.9958 60.3434 27.5963 59.2164 27.9951 58.0129C25.4908 60.9123 23.2516 64.0304 21.3044 67.3298C21.2657 67.4016 21.2534 67.4845 21.2693 67.5644C21.2853 67.6443 21.3287 67.7162 21.3919 67.7675C21.7796 68.0864 22.2361 68.4804 22.7613 68.9431C27.3343 73.0337 32.3711 76.5741 37.7685 79.4919C37.8811 79.5544 37.9936 79.6607 37.9623 79.9734C37.8123 81.4679 34.8734 84.4505 33.3851 84.907C33.2726 84.9445 32.9912 85.0196 32.8974 84.907C31.6468 83.4188 28.5828 81.299 25.0437 78.8354C19.5473 75.021 12.7065 70.2687 12.9941 67.7425C13.1817 66.1293 21.0355 50.9407 27.5261 46.2447C27.9561 45.9248 28.4219 45.6561 28.9143 45.4443C29.4019 45.2639 29.8626 45.0178 30.2837 44.7127L30.5025 44.5502C29.7209 44.3751 28.6266 44.5877 27.1384 45.6694C20.5978 50.3967 12.5502 65.5852 12.3125 67.6612C11.9811 70.6064 18.428 75.0898 24.6685 79.4231C28.0201 81.7492 31.1841 83.9503 32.3847 85.3697C32.4726 85.4734 32.5832 85.5555 32.7078 85.6097C32.8325 85.6639 32.968 85.6888 33.1038 85.6824C33.2782 85.6798 33.4511 85.6502 33.6165 85.5948C35.3486 85.0571 38.5189 81.843 38.6939 80.0484C38.7414 79.816 38.713 79.5745 38.6128 79.3594C38.5126 79.1444 38.3459 78.9673 38.1374 78.8541Z" fill="black"/>
<path d="M66.1507 80.8363C65.8875 80.7143 65.6689 80.5132 65.5254 80.261C65.3441 79.8984 65.5942 79.6357 66.0819 79.6795C66.7948 79.7295 68.5831 78.3226 68.7019 77.8411C68.8327 77.6476 69.0253 77.5043 69.2481 77.4344C69.471 77.3646 69.711 77.3724 69.9288 77.4566C70.1466 77.5409 70.3294 77.6965 70.4473 77.8981C70.5652 78.0997 70.6112 78.3353 70.5778 78.5665C70.4903 79.148 68.4143 81.149 66.7322 80.9989C66.5298 80.9822 66.3324 80.927 66.1507 80.8363Z" fill="#EFC9AF"/>
<path d="M66.8951 81.3615H66.6887C66.4471 81.3379 66.2118 81.2701 65.9946 81.1614C65.6544 81.0072 65.3719 80.7488 65.188 80.4236C65.1184 80.3097 65.0815 80.1788 65.0815 80.0453C65.0815 79.9118 65.1184 79.7809 65.188 79.667C65.2915 79.5358 65.429 79.4355 65.5856 79.377C65.7422 79.3186 65.9118 79.3042 66.0759 79.3356C66.5699 79.3793 68.1957 78.085 68.327 77.7473C68.4806 77.4583 68.7323 77.2335 69.0367 77.1134C69.3412 76.9932 69.6785 76.9856 69.9881 77.0918C70.2977 77.198 70.5593 77.4111 70.7259 77.6929C70.8925 77.9746 70.9531 78.3065 70.897 78.629C70.8032 79.3793 68.7022 81.3615 66.8951 81.3615ZM66.3073 80.5174C66.4471 80.5851 66.5971 80.6294 66.7513 80.6487C68.2332 80.7738 70.1279 78.9291 70.2154 78.5102C70.2402 78.3601 70.2136 78.206 70.1399 78.0729C70.0662 77.9398 69.9497 77.8354 69.8093 77.7768C69.6689 77.7182 69.5128 77.7087 69.3664 77.7499C69.2199 77.7911 69.0916 77.8805 69.0023 78.0037C68.8335 78.579 66.9388 80.0984 66.0384 80.0359C65.9577 80.0063 65.869 80.0063 65.7883 80.0359C65.9159 80.2315 66.0957 80.3875 66.3073 80.4861V80.5174Z" fill="black"/>
<path d="M64.9875 79.8547C64.8374 79.7874 64.7016 79.6919 64.5874 79.5734C64.2309 79.2232 64.2434 78.8105 64.5874 78.6604C67.2324 77.5912 68.0953 76.4906 68.1891 76.0092C68.1891 75.065 69.0958 75.1337 69.7336 75.5777C70.2713 75.9591 70.1025 76.278 70.0212 76.6845C69.8649 77.5161 68.6893 78.8105 65.8692 79.9485C65.7234 79.992 65.5703 80.0061 65.419 79.99C65.2676 79.9739 65.121 79.9279 64.9875 79.8547Z" fill="#EFC9AF"/>
<path d="M65.5879 80.355C65.3246 80.3516 65.0657 80.2874 64.8313 80.1674C64.648 80.0822 64.4808 79.9658 64.3373 79.8235C64.2074 79.7085 64.1075 79.5635 64.0465 79.4011C63.9854 79.2387 63.9651 79.0638 63.9872 78.8918C64.0147 78.7646 64.0738 78.6463 64.159 78.548C64.2443 78.4496 64.3529 78.3743 64.4749 78.329C66.9761 77.3035 67.764 76.303 67.8578 75.9654C67.8432 75.776 67.8832 75.5865 67.9729 75.4192C68.0627 75.2519 68.1985 75.1137 68.3643 75.0212C68.6308 74.9216 68.9188 74.8934 69.1996 74.9395C69.4804 74.9856 69.7443 75.1043 69.965 75.2838C70.1863 75.4113 70.3545 75.6139 70.4394 75.8547C70.5243 76.0956 70.5201 76.3588 70.4278 76.5969V76.7407C70.1964 77.9413 68.5519 79.2419 66.0507 80.2737C65.9037 80.3325 65.7461 80.3602 65.5879 80.355ZM68.8708 75.6089C68.8101 75.6058 68.7497 75.6187 68.6957 75.6465C68.6081 75.6965 68.5644 75.809 68.5706 75.9966C68.5706 75.9966 68.5706 76.0466 68.5706 76.0717C68.4331 76.7907 67.3575 77.9476 64.75 78.9856C64.75 78.9856 64.6938 78.9856 64.6875 79.0293C64.6926 79.0854 64.709 79.1398 64.7359 79.1893C64.7628 79.2388 64.7995 79.2822 64.8438 79.317C64.9321 79.4031 65.0334 79.4749 65.144 79.5296C65.3339 79.6367 65.5573 79.668 65.7693 79.6171C68.4581 78.5291 69.5711 77.316 69.7087 76.6094L69.7462 76.4343C69.815 76.1279 69.8337 76.0529 69.5586 75.8653C69.3594 75.7152 69.1199 75.6281 68.8708 75.6152V75.6089Z" fill="black"/>
<path d="M64.0499 78.7415C63.8292 78.6716 63.6322 78.5417 63.4809 78.3664C63.4101 78.2925 63.3586 78.2024 63.3307 78.1039C63.3029 78.0055 63.2996 77.9017 63.3212 77.8017C63.3428 77.7017 63.3886 77.6086 63.4546 77.5304C63.5206 77.4522 63.6048 77.3914 63.6998 77.3534C64.4626 77.0532 65.4256 75.8339 66.0697 74.9772C67.2265 73.8392 67.858 73.4578 68.5708 73.9893C68.6904 74.0647 68.7903 74.1676 68.862 74.2894C68.9338 74.4112 68.9755 74.5484 68.9835 74.6896C68.946 76.1403 65.857 78.3413 64.8378 78.7478C64.5814 78.8306 64.305 78.8285 64.0499 78.7415Z" fill="#EFC9AF"/>
<path d="M64.4502 79.1668C64.2652 79.1688 64.0812 79.1392 63.9062 79.0793C63.6256 78.9868 63.375 78.8205 63.1809 78.5978C63.0688 78.4757 62.9876 78.3285 62.9441 78.1686C62.9006 78.0087 62.896 77.8406 62.9307 77.6786C62.9765 77.5315 63.0573 77.3977 63.1662 77.2888C63.2752 77.1799 63.4089 77.099 63.556 77.0533C64.2876 76.7594 65.3694 75.3275 65.7759 74.7897C66.8639 73.7079 67.7581 72.9763 68.7961 73.7267C68.9621 73.8358 69.0997 73.9829 69.1976 74.1558C69.2955 74.3287 69.3507 74.5224 69.3588 74.7209C69.3151 76.4155 66.026 78.6853 64.9817 79.098C64.8105 79.1545 64.6302 79.1778 64.4502 79.1668ZM67.9206 74.1081C67.5767 74.1081 67.1328 74.402 66.2886 75.2274C65.5257 76.2467 64.6066 77.3659 63.7874 77.6848C63.7469 77.6984 63.7098 77.7206 63.6785 77.7497C63.6472 77.7788 63.6225 77.8142 63.6061 77.8537C63.6008 77.9065 63.6076 77.9599 63.6261 78.0097C63.6445 78.0596 63.674 78.1046 63.7124 78.1413C63.8214 78.2643 63.9619 78.3551 64.1188 78.4039C64.305 78.4692 64.5079 78.4692 64.6941 78.4039C65.7508 77.9787 68.5835 75.8652 68.6147 74.6521C68.6044 74.5698 68.5753 74.491 68.5298 74.4216C68.4843 74.3522 68.4235 74.2942 68.3521 74.2519C68.2268 74.1594 68.0763 74.107 67.9206 74.1019V74.1081Z" fill="black"/>
<path d="M62.587 76.6031C62.3835 76.506 62.2057 76.3625 62.068 76.1841C61.7803 75.7902 61.9054 75.4088 62.3431 75.3275C63.106 75.1899 64.1315 74.2832 64.8443 73.6391C66.0449 72.8325 66.7202 72.6012 67.3455 73.1952C67.4534 73.2722 67.5419 73.3733 67.6038 73.4906C67.6657 73.6079 67.6993 73.738 67.7019 73.8705C67.5644 75.1211 64.4066 76.553 63.3874 76.7406C63.1128 76.7764 62.8338 76.7284 62.587 76.6031Z" fill="#EFC9AF"/>
<path d="M67.5767 72.9513C67.3552 72.7417 67.0762 72.603 66.7755 72.5528C66.4747 72.5027 66.1658 72.5435 65.8883 72.6699C66.1447 72.82 66.9389 73.339 67.1389 73.489C67.339 73.6391 67.3828 73.7954 67.3703 73.858C67.2703 74.8334 64.4189 76.2216 63.3496 76.4154C63.1495 76.4382 62.9472 76.4013 62.7681 76.3091C62.6159 76.2344 62.4815 76.1278 62.3742 75.9965C62.3462 75.9663 62.3246 75.9309 62.3106 75.8922C62.2967 75.8535 62.2906 75.8124 62.2929 75.7714C62.3298 75.7338 62.3782 75.7096 62.4304 75.7026C63.2496 75.5525 64.2313 74.7209 65.0379 73.958C65.2568 73.8142 65.4444 73.7016 65.6132 73.6016L64.0687 73.9017C63.5734 74.3962 62.9758 74.7761 62.3179 75.0148C62.1717 75.0329 62.0328 75.0893 61.9154 75.1782C61.7979 75.2672 61.706 75.3855 61.6488 75.5213C61.5964 75.6731 61.5844 75.836 61.614 75.9938C61.6436 76.1517 61.7138 76.2992 61.8176 76.4217C61.9807 76.6462 62.1951 76.8285 62.4429 76.9532C62.684 77.0733 62.949 77.1374 63.2183 77.1408C63.2974 77.1472 63.3769 77.1472 63.4559 77.1408C64.5064 76.947 67.8956 75.4712 68.0581 73.958C68.0681 73.7634 68.0293 73.5693 67.9452 73.3935C67.8612 73.2177 67.7345 73.0657 67.5767 72.9513Z" fill="black"/>
<path d="M84.4402 56.1683C83.8837 55.2929 82.4393 55.543 82.4393 55.543C82.4393 55.543 83.3022 54.3924 82.6644 53.4045C82.0266 52.4165 80.6947 51.9288 79.0939 53.1794C77.4932 54.43 78.0059 58.3756 78.0059 58.3756C78.0059 58.3756 81.4576 60.1702 83.1896 59.5262C83.5171 59.4194 83.8163 59.2401 84.0649 59.0017C84.3134 58.7632 84.5049 58.4718 84.6251 58.149C84.7454 57.8262 84.7912 57.4804 84.7592 57.1375C84.7271 56.7945 84.6181 56.4633 84.4402 56.1683Z" fill="#FF0000"/>
<path d="M79.4881 59.2447C78.949 59.0485 78.4227 58.8188 77.9123 58.5569C77.8829 58.5412 77.8574 58.5189 77.8379 58.4918C77.8184 58.4647 77.8053 58.4335 77.7998 58.4006C77.7998 58.2317 77.3433 54.2861 78.9691 53.0167C79.286 52.7299 79.6595 52.5127 80.0655 52.3792C80.4716 52.2456 80.9011 52.1987 81.3264 52.2414C81.638 52.3014 81.9335 52.4258 82.1941 52.6067C82.4547 52.7876 82.6746 53.021 82.8397 53.2919C83.017 53.5978 83.1104 53.945 83.1104 54.2986C83.1104 54.6522 83.017 54.9995 82.8397 55.3053C83.1777 55.2698 83.5193 55.3199 83.8329 55.4511C84.1465 55.5822 84.4221 55.7901 84.6343 56.0557C84.8235 56.3621 84.9428 56.7063 84.9839 57.0641C85.025 57.4218 84.9867 57.7842 84.8719 58.1254C84.744 58.4945 84.534 58.8297 84.2579 59.1059C83.9817 59.3821 83.6464 59.5921 83.2774 59.72C82.2269 60.1076 80.6574 59.72 79.4881 59.2447ZM78.1999 58.2443C78.7627 58.5194 81.6516 59.8825 83.1148 59.3323C83.4263 59.2274 83.7098 59.053 83.9439 58.8222C84.1779 58.5915 84.3563 58.3104 84.4654 58.0004C84.5613 57.7161 84.5937 57.4141 84.5602 57.1159C84.5267 56.8177 84.4282 56.5305 84.2716 56.2746C83.7901 55.5242 82.4832 55.7431 82.4707 55.7431C82.4308 55.7521 82.3891 55.7478 82.3518 55.7308C82.3145 55.7139 82.2838 55.6853 82.2644 55.6493C82.2413 55.6151 82.2289 55.5748 82.2289 55.5336C82.2289 55.4923 82.2413 55.452 82.2644 55.4179C82.2644 55.4179 83.0398 54.3674 82.4832 53.5107C82.3486 53.2858 82.1674 53.0924 81.9516 52.9435C81.7359 52.7947 81.4907 52.6938 81.2326 52.6478C80.8642 52.6146 80.4928 52.6592 80.1427 52.7788C79.7926 52.8984 79.4716 53.0902 79.2004 53.3419C77.9123 54.3611 78.1374 57.6064 78.1999 58.2443Z" fill="black"/>
<path d="M69.709 39.2603C68.4271 39.304 67.8018 40.9611 67.8018 40.9611C67.8018 40.9611 67.1327 39.3228 65.6883 39.3791C64.2438 39.4353 62.8995 40.5296 63.1871 42.9995C63.4747 45.4695 67.9831 47.3766 67.9831 47.3766C67.9831 47.3766 72.0413 44.8754 72.4415 42.6306C72.5259 42.224 72.5188 41.8037 72.4207 41.4002C72.3227 40.9966 72.1361 40.6199 71.8746 40.2974C71.6131 39.9748 71.2831 39.7144 70.9085 39.535C70.534 39.3556 70.1242 39.2618 69.709 39.2603Z" fill="#FF0000"/>
<path d="M67.9328 47.6267C67.7452 47.5454 63.3369 45.5444 63.018 43.062C62.914 42.5555 62.9159 42.0329 63.0235 41.5272C63.1312 41.0215 63.3421 40.5434 63.6433 40.1231C63.8971 39.8374 64.208 39.6081 64.5559 39.4498C64.9037 39.2915 65.2808 39.2077 65.663 39.2039C66.1056 39.209 66.5385 39.3345 66.9152 39.5669C67.292 39.7994 67.5984 40.13 67.8015 40.5233C68.0891 39.9855 68.7207 39.0851 69.7149 39.0538C70.1509 39.0451 70.5833 39.1331 70.9812 39.3115C71.3791 39.4899 71.7325 39.7543 72.016 40.0856C72.3193 40.4465 72.537 40.8713 72.6528 41.3283C72.7687 41.7853 72.7797 42.2625 72.6851 42.7243C72.2724 45.0129 68.308 47.5016 68.1267 47.6079C68.0984 47.6268 68.0659 47.6383 68.0321 47.6416C67.9983 47.6449 67.9642 47.6397 67.9328 47.6267ZM66.3008 39.7104C66.101 39.6362 65.8885 39.6022 65.6755 39.6103C65.349 39.6118 65.0265 39.6822 64.7291 39.8169C64.4317 39.9516 64.1661 40.1476 63.9496 40.3919C63.6826 40.7661 63.4959 41.1915 63.4012 41.6413C63.3065 42.0911 63.3059 42.5556 63.3994 43.0057C63.6683 45.0754 67.3263 46.8951 67.9766 47.2077C68.6019 46.82 71.9097 44.5877 72.2536 42.6618C72.3382 42.2597 72.3304 41.8437 72.2307 41.4451C72.131 41.0465 71.9422 40.6757 71.6784 40.3607C71.4373 40.0749 71.1352 39.8467 70.7943 39.6931C70.4535 39.5394 70.0825 39.4641 69.7087 39.4728C68.5894 39.5103 67.9828 41.0485 67.9766 41.061C67.9625 41.0995 67.937 41.1327 67.9034 41.1562C67.8699 41.1796 67.8299 41.1923 67.789 41.1923C67.7477 41.194 67.7069 41.1829 67.6722 41.1605C67.6375 41.1382 67.6106 41.1056 67.5951 41.0673C67.3377 40.4761 66.8791 39.9954 66.3008 39.7104Z" fill="black"/>
<path d="M80.3072 22.7336C78.8377 21.9958 77.0619 23.509 77.0619 23.509C77.0619 23.509 77.3182 21.2391 75.6424 20.3825C73.9666 19.5258 71.7593 19.9635 70.59 22.9712C69.4207 25.9789 73.2851 30.9563 73.2851 30.9563C73.2851 30.9563 79.463 30.6124 81.2952 28.33C81.6566 27.9207 81.9211 27.4351 82.0691 26.9095C82.217 26.3838 82.2445 25.8316 82.1496 25.2938C82.0546 24.756 81.8397 24.2466 81.5207 23.8033C81.2017 23.3601 80.7869 22.9945 80.3072 22.7336Z" fill="#FF0000"/>
<path d="M73.2164 31.1563C73.1797 31.1452 73.147 31.1234 73.1226 31.0937C72.9663 30.8811 69.2145 25.9037 70.3776 22.9148C70.9591 21.4266 71.8283 20.4136 72.8788 20.0134C73.336 19.8485 73.8229 19.7816 74.3077 19.8171C74.7924 19.8527 75.2643 19.9899 75.6926 20.2198C77.0245 20.8826 77.2309 22.352 77.2434 23.0899C77.8687 22.6709 79.1818 21.9581 80.3699 22.5521C80.8613 22.8079 81.29 23.1693 81.6251 23.6104C81.9603 24.0515 82.1936 24.5614 82.3083 25.1034C82.4275 25.69 82.413 26.296 82.2657 26.8762C82.1185 27.4565 81.8424 27.9961 81.4579 28.455C79.582 30.7811 73.5541 31.1437 73.2977 31.1563C73.2714 31.1653 73.2428 31.1653 73.2164 31.1563ZM75.1549 20.4199C74.4747 20.1578 73.7215 20.1578 73.0413 20.4199C72.0846 20.7888 71.2968 21.7142 70.759 23.0899C69.7585 25.6599 72.8913 30.0995 73.3853 30.7811C74.2169 30.7185 79.5132 30.2558 81.139 28.2361C81.4901 27.8251 81.743 27.3396 81.8785 26.8162C82.0139 26.2929 82.0283 25.7456 81.9206 25.2159C81.8203 24.7337 81.6139 24.2799 81.3165 23.8873C81.0191 23.4947 80.6381 23.1732 80.201 22.9461L80.0385 22.871C78.7378 22.3895 77.1933 23.6777 77.1808 23.6902C77.1467 23.7133 77.1064 23.7256 77.0651 23.7256C77.0239 23.7256 76.9836 23.7133 76.9495 23.6902C76.913 23.6722 76.8831 23.6432 76.864 23.6073C76.845 23.5714 76.8377 23.5304 76.8432 23.4901C76.8432 23.4901 77.0558 21.3453 75.53 20.5887C75.405 20.5262 75.2799 20.4699 75.1549 20.4199Z" fill="black"/>
<path d="M3.6269 36.0523C2.80776 36.6776 3.18919 38.1095 3.18919 38.1095C3.18919 38.1095 1.93859 37.3529 1.03816 38.1095C0.137725 38.8661 -0.249961 40.2043 1.14446 41.68C2.53888 43.1557 6.42199 42.3053 6.42199 42.3053C6.42199 42.3053 7.89144 38.7036 7.0848 37.0403C6.95457 36.719 6.75288 36.4317 6.49504 36.2001C6.2372 35.9684 5.92999 35.7985 5.5967 35.7033C5.26342 35.6081 4.91283 35.59 4.57153 35.6505C4.23022 35.7109 3.90718 35.8484 3.6269 36.0523Z" fill="#FF0000"/>
<path d="M7.14725 40.6983C6.99602 41.2539 6.81441 41.8008 6.60324 42.3366C6.59025 42.3669 6.57057 42.3939 6.54566 42.4156C6.52076 42.4372 6.49127 42.453 6.45942 42.4616C6.29059 42.4616 2.40748 43.2995 0.994303 41.7926C0.678427 41.5053 0.42663 41.1547 0.255323 40.7636C0.0840161 40.3725 -0.00295575 39.9497 7.66524e-05 39.5227C0.0272925 39.2078 0.121079 38.9023 0.275227 38.6263C0.429376 38.3503 0.640373 38.1103 0.894255 37.922C1.1837 37.7185 1.52181 37.5951 1.8743 37.5643C2.2268 37.5336 2.58115 37.5966 2.90147 37.7469C2.83002 37.4111 2.84534 37.0626 2.946 36.7344C3.04666 36.4061 3.22932 36.109 3.47674 35.871C3.76562 35.6547 4.09849 35.5045 4.45182 35.431C4.80515 35.3575 5.17031 35.3626 5.52147 35.4458C5.9004 35.5383 6.25328 35.7159 6.55338 35.9651C6.85347 36.2143 7.09292 36.5285 7.25355 36.884C7.77255 37.8907 7.47866 39.4915 7.14725 40.6983ZM6.27183 42.0802C6.49694 41.4549 7.58496 38.491 6.89713 37.0778C6.76652 36.7715 6.56717 36.4994 6.31452 36.2826C6.06187 36.0657 5.76271 35.9099 5.44019 35.8272C5.14953 35.755 4.84638 35.749 4.5531 35.8096C4.25981 35.8703 3.98387 35.9959 3.74562 36.1774C3.03903 36.7214 3.3767 38.0033 3.38295 38.0158C3.39404 38.0557 3.39288 38.098 3.3796 38.1372C3.36632 38.1764 3.34154 38.2108 3.30849 38.2357C3.27544 38.2607 3.23564 38.2751 3.19428 38.2771C3.15291 38.2792 3.11189 38.2687 3.07655 38.2471C3.07655 38.2471 1.95727 37.578 1.15688 38.2033C0.947524 38.3582 0.772689 38.5549 0.643504 38.7809C0.514318 39.007 0.433612 39.2575 0.406522 39.5165C0.411816 39.8866 0.492764 40.2517 0.644387 40.5893C0.796011 40.927 1.0151 41.2301 1.28819 41.4799C2.43249 42.718 5.64028 42.2115 6.27183 42.0802Z" fill="black"/>
<path d="M12.7752 20.326C12.1186 20.4761 11.9623 21.414 11.9623 21.414C11.9623 21.414 11.4433 20.6386 10.7117 20.7887C9.98007 20.9388 9.38603 21.6766 9.80498 22.921C10.2239 24.1653 12.7752 24.7343 12.7752 24.7343C12.7752 24.7343 14.6135 23.0085 14.5885 21.8142C14.5965 21.5874 14.5521 21.3618 14.4586 21.1549C14.3652 20.9481 14.2254 20.7656 14.0499 20.6216C13.8745 20.4776 13.6682 20.376 13.4471 20.3248C13.226 20.2735 12.9961 20.2739 12.7752 20.326Z" fill="#FF0000"/>
<path d="M13.6065 24.0153C13.3665 24.3014 13.1119 24.5748 12.8436 24.8345C12.8251 24.8433 12.8048 24.848 12.7842 24.848C12.7637 24.848 12.7434 24.8433 12.7248 24.8345C12.6185 24.8345 10.1173 24.2092 9.68588 22.9586C9.57911 22.7043 9.52673 22.4306 9.53212 22.1549C9.5375 21.8792 9.60053 21.6077 9.71714 21.3578C9.81996 21.1791 9.95952 21.0243 10.1266 20.9036C10.2937 20.7829 10.4845 20.699 10.6864 20.6575C10.9155 20.6103 11.1531 20.6268 11.3736 20.705C11.594 20.7833 11.7889 20.9204 11.937 21.1014C11.992 20.8941 12.0972 20.7035 12.2434 20.5465C12.3895 20.3894 12.572 20.2708 12.7749 20.201C13.0023 20.1504 13.2381 20.1511 13.4653 20.203C13.6924 20.2549 13.9051 20.3568 14.088 20.5011C14.2845 20.6587 14.4429 20.8586 14.5511 21.086C14.6594 21.3134 14.7149 21.5624 14.7133 21.8143C14.7133 22.5271 14.1255 23.3963 13.6065 24.0153ZM12.7123 24.5906C13.0062 24.303 14.4569 22.8335 14.4382 21.8205C14.4395 21.6069 14.3923 21.3957 14.3002 21.203C14.2082 21.0102 14.0736 20.8408 13.9067 20.7075C13.7552 20.5876 13.579 20.503 13.3908 20.4598C13.2026 20.4165 13.0072 20.4157 12.8186 20.4574C12.2559 20.5887 12.1058 21.4328 12.1058 21.4453C12.0996 21.4711 12.0864 21.4947 12.0676 21.5135C12.0489 21.5322 12.0253 21.5455 11.9995 21.5516C11.9736 21.5564 11.9468 21.5537 11.9225 21.5437C11.8981 21.5337 11.8771 21.5169 11.8619 21.4954C11.8619 21.4954 11.3867 20.8013 10.7426 20.9514C10.5789 20.9881 10.4241 21.0574 10.2877 21.1551C10.1513 21.2529 10.0359 21.3771 9.9485 21.5204C9.85151 21.74 9.8014 21.9775 9.8014 22.2176C9.8014 22.4577 9.85151 22.6952 9.9485 22.9148C10.2737 23.9278 12.3121 24.4906 12.7123 24.5906Z" fill="black"/>
<path d="M52.7944 0.672861C51.9752 1.29816 52.3567 2.7301 52.3567 2.7301C52.3567 2.7301 51.1061 1.97348 50.2056 2.7301C49.3052 3.48671 48.9175 4.82485 50.3119 6.30056C51.7064 7.77627 55.5895 6.92586 55.5895 6.92586C55.5895 6.92586 57.0589 3.31788 56.2523 1.65458C56.1214 1.33388 55.9192 1.04717 55.6611 0.816182C55.403 0.585196 55.0957 0.415991 54.7625 0.32139C54.4293 0.226788 54.0789 0.20927 53.7379 0.270166C53.3969 0.331061 53.0743 0.468771 52.7944 0.672861Z" fill="#FF0000"/>
<path d="M56.2898 5.3189C56.138 5.87231 55.9564 6.41711 55.7458 6.95093C55.7336 6.9818 55.7142 7.00929 55.6892 7.03106C55.6641 7.05283 55.6342 7.06824 55.602 7.07599C55.4331 7.10726 51.55 7.91389 50.1306 6.41317C49.8169 6.12317 49.5671 5.77102 49.397 5.37915C49.2269 4.98728 49.1403 4.56427 49.1426 4.13708C49.1721 3.82136 49.2682 3.51547 49.4245 3.23955C49.5807 2.96364 49.7937 2.72396 50.0493 2.53632C50.3381 2.33375 50.6755 2.21141 51.027 2.18175C51.3785 2.15209 51.7316 2.21618 52.0503 2.36749C51.9808 2.03114 51.9977 1.68267 52.0994 1.35462C52.2011 1.02658 52.3842 0.729655 52.6318 0.491587C52.9207 0.275279 53.2535 0.125077 53.6069 0.0516014C53.9602 -0.0218737 54.3254 -0.0168272 54.6765 0.0663833C55.0549 0.160223 55.4072 0.338302 55.7071 0.587331C56.007 0.836359 56.2468 1.14991 56.4086 1.50457C56.8901 2.51756 56.615 4.11832 56.2898 5.3189ZM55.4081 6.69456C55.6332 6.10053 56.7213 3.10534 56.0334 1.69216C55.899 1.39172 55.6979 1.12581 55.4455 0.914557C55.1931 0.703305 54.8959 0.55225 54.5765 0.472828C54.2856 0.403762 53.9831 0.399323 53.6903 0.459824C53.3976 0.520325 53.1216 0.644293 52.8819 0.822995C52.1753 1.37326 52.513 2.64887 52.5192 2.69889C52.5287 2.73779 52.5266 2.7786 52.5133 2.81635C52.5 2.8541 52.476 2.88716 52.4442 2.9115C52.4101 2.93462 52.3698 2.94697 52.3285 2.94697C52.2873 2.94697 52.247 2.93462 52.2128 2.9115C52.2128 2.9115 51.0936 2.24243 50.2932 2.87398C50.0845 3.0281 49.9101 3.22381 49.781 3.44876C49.6518 3.6737 49.5707 3.92298 49.5428 4.18086C49.5474 4.55108 49.628 4.91642 49.7797 5.25418C49.9313 5.59194 50.1508 5.89492 50.4245 6.1443C51.5438 7.34487 54.7766 6.81962 55.4081 6.70081V6.69456Z" fill="black"/>
</svg>
