<svg width="85" height="94" viewBox="0 0 85 94" fill="none" xmlns="http://www.w3.org/2000/svg">
<path d="M44.83 0.769946C41.6606 0.0547766 38.3771 0.00661744 35.1881 0.62853C31.9876 1.263 29.1015 2.97602 27.0117 5.48166C23.9005 9.42202 23.6113 14.9629 24.6783 19.8675C25.1101 21.3726 25.3583 22.9245 25.4175 24.4892C25.3083 28.2689 22.2035 31.4572 18.6681 32.762C16.9197 33.4048 14.7406 33.9641 14.2264 35.751C13.5836 38.0266 16.2255 39.9035 16.6562 42.224C17.2476 45.393 13.6543 47.8485 13.1915 51.0368C12.883 53.1709 14.085 55.305 15.7627 56.6549C17.4404 58.0047 19.5359 58.7182 21.6057 59.3225C30.5471 61.9451 39.9769 63.1793 49.2461 62.1765C54.4276 61.5475 59.543 60.459 64.5318 58.9239C67.4308 58.0819 70.317 57.1498 72.8882 55.5235C75.4594 53.8973 77.6064 51.4996 78.3584 48.5749C78.7621 46.9204 78.7079 45.1872 78.2018 43.5612C77.6956 41.9351 76.7565 40.4774 75.4851 39.3443C74.1224 38.1615 72.2711 37.2038 71.9112 35.4489C71.654 34.2855 72.1233 33.077 71.9819 31.8943C71.7697 30.1008 70.2206 28.7895 68.6843 27.8446C67.148 26.8997 65.4382 26.0705 64.4547 24.5599C62.642 21.7895 64.0112 18.1319 63.9212 14.8344C63.8286 13.0596 63.3365 11.3285 62.4818 9.77034C61.627 8.21215 60.4315 6.86701 58.9845 5.8352C56.5716 4.15236 53.6984 3.2545 50.7567 3.26401C49.4711 3.26401 49.0789 3.26401 48.1019 2.46051C47.1887 1.60514 46.0561 1.01991 44.83 0.769946Z" fill="#FFE292"/>
<g opacity="0.21">
<path d="M75.4658 39.3441C74.1031 38.1613 72.2519 37.2035 71.8919 35.4487C71.6348 34.2852 72.104 33.0768 71.9626 31.894C71.7505 30.1006 70.2013 28.7893 68.665 27.8444C67.1287 26.8995 65.4189 26.0703 64.4354 24.5597C62.6227 21.7892 63.9919 18.1317 63.9019 14.8341C63.8093 13.0593 63.3173 11.3283 62.4625 9.7701C61.6077 8.21191 60.4123 6.86677 58.9652 5.83496C56.9211 4.39585 54.5279 3.53227 52.0358 3.33447C55.1509 4.66456 57.8144 6.86808 59.7044 9.6789C59.923 10.0196 59.4409 10.4053 59.1323 10.1867C57.7148 9.18304 56.18 8.35628 54.562 7.72479C56.2912 9.65319 58.6824 11.0031 59.383 13.6835C59.4017 13.7892 59.3777 13.898 59.3162 13.986C59.2548 14.074 59.1609 14.134 59.0552 14.1528C58.9963 14.1689 58.9341 14.1689 58.8752 14.1528C55.9055 13.51 53.8999 10.9838 51.2066 9.78175C51.7671 10.6161 52.4135 11.3896 53.135 12.0894C53.4564 12.4172 52.9872 12.9122 52.6208 12.6808C50.3196 11.2409 48.3269 9.33821 45.91 8.08476C44.8043 7.51267 44.3801 7.61551 43.3838 8.38044C42.6893 8.97948 42.064 9.65433 41.5196 10.3924C40.676 11.4673 39.8947 12.5897 39.1799 13.7542C38.9292 14.1528 38.3764 13.8314 38.4728 13.4136C39 11.4141 39.6813 9.4584 40.5105 7.56409C37.6629 8.00119 34.9888 10.9774 33.2661 13.0279C33.0026 13.3428 32.3919 13.1372 32.559 12.6872C33.1054 11.2473 33.9282 9.92959 34.4874 8.49615C32.9511 9.6339 32.0191 11.408 31.0292 12.9957C29.84 14.9241 28.458 16.7818 27.8152 18.9545C28.7858 18.2667 29.7436 17.5596 30.6949 16.8654C30.7824 16.8039 30.8904 16.779 30.996 16.7958C31.1016 16.8126 31.1965 16.8698 31.2606 16.9554C31.3086 17.0208 31.3355 17.0993 31.3377 17.1804C31.267 19.4687 30.6306 21.68 30.4378 23.9426C30.1974 26.5337 30.3055 29.1453 30.7592 31.7076C31.0817 33.8647 32.1454 35.842 33.7675 37.3C35.0081 38.3284 36.4801 39.0227 37.7978 39.9483C42.7024 43.4065 43.0045 50.5159 41.0118 55.6904C40.9939 55.7408 40.9661 55.7871 40.9302 55.8267C40.8942 55.8663 40.8508 55.8983 40.8024 55.921C40.754 55.9437 40.7016 55.9566 40.6481 55.959C40.5947 55.9613 40.5414 55.9531 40.4912 55.9347L40.414 55.8961C36.4608 53.1514 36.088 47.5397 34.0696 43.4387C34.0696 47.0898 35.728 50.5738 35.3552 54.2827C35.3486 54.3873 35.301 54.4851 35.2228 54.5549C35.1446 54.6246 35.0421 54.6608 34.9374 54.6555C34.8677 54.6537 34.7998 54.633 34.741 54.5956C34.6821 54.5583 34.6345 54.5057 34.6031 54.4434C32.874 51.7179 32.0898 48.4397 30.5471 45.5856C29.8026 44.3216 29.2297 42.9641 28.8437 41.5489C28.6357 40.4864 28.4855 39.4135 28.3937 38.3349C28.3266 41.3587 28.6201 44.3797 29.2679 47.334C29.9878 50.7537 30.8685 53.8135 29.525 57.201C29.504 57.2501 29.4735 57.2945 29.4353 57.3317C29.3971 57.3689 29.3519 57.3982 29.3024 57.418C29.2528 57.4377 29.1998 57.4474 29.1464 57.4466C29.0931 57.4457 29.0404 57.4344 28.9915 57.4131C28.9514 57.3957 28.9145 57.3718 28.8822 57.3424C26.446 55.0541 26.1182 51.4672 24.6076 48.6004C23.9648 50.2331 23.5984 51.9751 22.7885 53.5371C21.9018 55.1401 20.5596 56.4443 18.9317 57.2846C18.5653 57.4903 18.1796 57.6702 17.7939 57.8438C19.0358 58.427 20.3263 58.9002 21.6507 59.258C30.5921 61.8806 40.0219 63.1147 49.2911 62.112C54.4727 61.4829 59.588 60.3945 64.5768 58.8594C67.4759 58.0174 70.362 57.0853 72.9332 55.459C75.5044 53.8327 77.6514 51.4351 78.4034 48.5104C78.7849 46.8596 78.7133 45.1364 78.1963 43.5229C77.6792 41.9094 76.7358 40.4656 75.4658 39.3441ZM68.6907 52.4957C68.6309 52.5825 68.5392 52.642 68.4356 52.6613C68.332 52.6805 68.225 52.658 68.1379 52.5986C68.0841 52.5611 68.0402 52.5111 68.0099 52.4528C67.9797 52.3946 67.9641 52.3299 67.9644 52.2643C68.1829 49.6931 68.5108 46.3634 67.058 44.0301C66.7495 45.9585 66.3381 47.7326 65.0139 49.301C64.9552 49.387 64.8651 49.4466 64.763 49.467C64.6609 49.4874 64.5549 49.4671 64.4676 49.4103C63.689 48.768 63.0668 47.9569 62.6484 47.0384C62.5842 48.2468 61.3628 52.0458 61.3628 52.0458C61.3628 52.0458 58.9202 48.6389 58.1488 47.4626C58.0524 47.649 57.9689 49.391 57.8853 49.5774C57.686 50.0402 56.9597 47.6104 56.9018 47.4819C56.3013 46.3811 55.8946 45.1852 55.6998 43.9465C55.5519 42.0952 56.0469 40.3533 55.6998 38.4956C55.6226 38.1292 58.271 41.0668 58.7274 42.7059C58.8977 43.3248 59.1125 43.9306 59.3702 44.5186C59.2287 43.0916 59.203 40.1154 58.8624 38.7334C58.4942 36.9429 58.4528 35.1006 58.7402 33.2953C58.7852 32.8711 61.1957 37.03 62.0828 38.9584C62.7404 40.4587 63.2652 42.0138 63.6512 43.6058C66.2224 39.6333 61.8321 34.0667 62.1278 29.7728C62.1278 29.4064 64.8404 34.6195 66.2738 36.8821C67.3794 38.6306 68.845 40.1668 69.6871 42.076C71.2234 45.4635 70.452 49.3396 68.6907 52.4957Z" fill="black"/>
</g>
<path d="M42.6833 62.7163C35.5148 62.6561 28.3916 61.5739 21.5288 59.5023C19.6004 58.9366 17.3634 58.2167 15.6214 56.8025C13.693 55.2534 12.6839 53.0293 12.9795 51.0174C13.2966 49.5809 13.9168 48.2287 14.7987 47.0513C15.8079 45.4636 16.7271 43.9659 16.4442 42.2624C16.1795 41.3111 15.7439 40.4159 15.1586 39.6205C14.3808 38.3864 13.5773 37.1136 13.9823 35.6995C14.4708 34.0153 16.3157 33.3661 17.9419 32.794L18.5847 32.5755C22.3773 31.1806 25.1027 27.8509 25.1991 24.4891C25.1795 23.2393 25.0002 21.9972 24.6656 20.793C24.5949 20.4973 24.5306 20.2016 24.4664 19.9123C23.7271 16.5312 23.0586 10.1418 26.8383 5.35937C28.9585 2.81243 31.8913 1.0736 35.1432 0.435532C38.3601 -0.189479 41.6715 -0.141328 44.8688 0.576949C46.1251 0.825788 47.2871 1.42015 48.2242 2.29322C49.0984 3.02601 49.4134 3.02601 50.5768 3.0453H50.7568C53.7449 3.03799 56.6627 3.95148 59.1132 5.66149C60.5801 6.71822 61.7919 8.08999 62.6595 9.67614C63.5271 11.2623 64.0285 13.0226 64.127 14.8278C64.126 15.9024 64.0573 16.9758 63.9213 18.0418C63.6642 20.3816 63.4264 22.5992 64.622 24.4312C65.4255 25.6525 66.7432 26.4367 68.0224 27.1888L68.8002 27.6581C70.8893 28.9437 72.0142 30.3128 72.1877 31.8491C72.2306 32.4111 72.209 32.9761 72.1234 33.5332C72.0206 34.146 72.0206 34.7717 72.1234 35.3845C72.4063 36.6701 73.5312 37.525 74.6175 38.3606C74.9582 38.6242 75.3117 38.8942 75.6331 39.1706C76.9315 40.3285 77.8907 41.8176 78.4081 43.4786C78.9256 45.1396 78.9818 46.91 78.5707 48.6004C77.8701 51.3259 75.8967 53.8328 73.0169 55.6712C70.4457 57.3296 67.431 58.2424 64.6027 59.0973C59.604 60.6377 54.4776 61.7284 49.2848 62.3563C47.0921 62.5919 44.8886 62.7121 42.6833 62.7163ZM39.3986 0.364824C37.9965 0.356852 36.5977 0.501259 35.2268 0.795501C32.0638 1.41355 29.2104 3.10246 27.1468 5.57792C24.4406 9.00404 23.6243 14.185 24.852 19.8223C24.9163 20.1116 24.9806 20.4009 25.0513 20.6965C25.3912 21.9327 25.5727 23.2071 25.5912 24.4891C25.4755 28.6223 22.0559 31.7141 18.7197 32.9419L18.0769 33.1604C16.4699 33.7261 14.7987 34.3174 14.368 35.8023C14.008 37.0493 14.7344 38.1935 15.4993 39.402C16.0976 40.2392 16.5336 41.181 16.7849 42.1789C17.132 44.043 16.0907 45.6757 15.0815 47.257C14.3166 48.4654 13.5195 49.7125 13.3267 51.0624C12.9988 53.3186 14.4001 55.3498 15.8207 56.494C17.5113 57.8567 19.6775 58.5638 21.6059 59.1295C31.2479 61.9449 40.4913 62.9027 49.1627 61.9707C54.3331 61.3579 59.4382 60.2822 64.4163 58.7567C67.2189 57.9403 70.1693 57.0082 72.7212 55.3755C75.5238 53.595 77.433 51.1652 78.1079 48.5426C78.5027 46.9234 78.4492 45.2274 77.9532 43.6363C77.4572 42.0452 76.5374 40.6192 75.2924 39.5113C74.9839 39.2413 74.6496 38.9713 74.2961 38.7142C73.1519 37.8336 71.9692 36.9272 71.6606 35.5002C71.5513 34.8426 71.5513 34.1715 71.6606 33.514C71.7397 32.9886 71.7613 32.4562 71.7249 31.9262C71.5513 30.5185 70.5036 29.2458 68.5109 28.0245L67.7974 27.5359C66.5118 26.7581 65.1169 25.9546 64.2684 24.6562C62.9828 22.7278 63.2528 20.3109 63.5035 18.0032C63.6405 16.9504 63.7071 15.8895 63.7028 14.8278C63.6101 13.0819 63.1258 11.3792 62.2857 9.84584C61.4456 8.31251 60.2712 6.98786 58.8496 5.97003C56.4768 4.29431 53.6425 3.39597 50.7375 3.39883H50.5575C49.3812 3.39883 48.9377 3.39883 47.9863 2.55677C47.1027 1.72806 46.0051 1.16259 44.8174 0.924058C43.0344 0.555921 41.2191 0.366432 39.3986 0.358397V0.364824Z" fill="black"/>
<path d="M42.3555 93.5449C43.5447 93.2814 44.8817 93.4806 46.0966 93.4549C47.6007 93.4228 49.0599 93.2749 50.5448 93.1014C50.5804 93.0684 50.6218 93.0423 50.6669 93.0242C51.6461 92.7459 52.6454 92.5439 53.6559 92.42C54.3758 92.2915 55.0701 92.1179 55.79 92.0343C55.8154 92.0135 55.8435 91.9962 55.8736 91.9829C57.217 91.5008 58.7083 91.3401 60.0967 90.948C61.3965 90.568 62.6577 90.0665 63.8635 89.4503C64.0757 83.3887 64.1014 75.5658 64.0371 68.6557L76.186 77.8992C76.186 77.8992 63.735 52.9136 63.5807 52.2644C62.8608 49.2689 23.4636 49.5389 23.3737 54.0964C23.3415 55.5876 7.14941 80.0333 7.14941 80.0333L8.37073 81.9167C8.90426 82.2959 9.42492 82.688 9.9263 83.1123C11.2039 84.1831 12.5741 85.1382 14.0209 85.9663C17.2992 81.081 24.7171 70.0763 24.7685 70.4749C25.7841 78.1435 27.1919 86.4098 28.4646 91.8029H28.5932C33.0928 92.7028 37.5924 93.5513 42.2334 93.5385L42.3555 93.5449Z" fill="#D35B5B"/>
<path opacity="0.21" d="M29.4356 83.7358C29.1528 81.0939 29.0307 78.4391 28.8442 75.7844C28.69 73.6117 28.8443 71.3298 28.2786 69.2085C26.5302 69.9606 26.0416 69.0736 24.9617 67.7687C24.7394 68.6857 24.6378 69.6279 24.6596 70.5713C24.7496 70.4749 24.801 70.4363 24.801 70.462C25.8167 78.1306 27.2244 86.397 28.4971 91.7901C28.5397 91.7836 28.5831 91.7836 28.6257 91.7901L31.1969 92.2915C30.3444 89.5007 29.7547 86.6363 29.4356 83.7358Z" fill="black"/>
<path opacity="0.21" d="M76.2119 77.8864C76.2119 77.8864 63.7609 52.9008 63.6067 52.2516C63.1117 50.2011 44.4256 49.6804 32.7073 51.0239C31.5053 54.0643 31.7881 57.3233 34.0315 59.7659C33.9351 58.7053 33.5687 57.6768 33.5687 56.5905C33.5535 56.506 33.5721 56.419 33.6204 56.348C33.6687 56.2771 33.7429 56.2279 33.8271 56.2111C33.9112 56.1942 33.9986 56.2111 34.0705 56.258C34.1424 56.3049 34.193 56.3781 34.2115 56.4619C37.3162 62.6521 46.129 65.0497 51.4513 60.2223C51.5125 60.163 51.5943 60.1298 51.6795 60.1298C51.7647 60.1298 51.8466 60.163 51.9077 60.2223C51.9401 60.2668 51.9641 60.317 51.9784 60.3702C52.15 61.4838 51.9223 62.6222 51.3356 63.5841C52.5035 63.2425 53.5139 62.5006 54.1897 61.4886C54.24 61.4203 54.314 61.3732 54.3972 61.3565C54.4804 61.3399 54.5669 61.3549 54.6396 61.3986C56.5595 62.3292 58.2315 63.7016 59.5185 65.4033C59.5698 65.4672 59.5947 65.5482 59.5883 65.6299C59.5818 65.7116 59.5443 65.7878 59.4836 65.8428C59.4228 65.8978 59.3434 65.9275 59.2614 65.9258C59.1795 65.9242 59.1013 65.8913 59.0428 65.8339C58.6314 65.4675 57.5386 64.5483 56.9858 64.6576C55.7002 64.844 58.1043 66.3225 58.4964 66.586C58.567 66.6364 58.6148 66.7127 58.6293 66.7983C58.6437 66.8838 58.6237 66.9716 58.5735 67.0424C58.5435 67.0811 58.5064 67.1138 58.4643 67.1388C55.6552 68.2701 57.4165 72.519 58.0786 74.5696C58.9674 76.9893 59.6133 79.4914 60.007 82.0389C60.3412 84.9143 60.5877 87.7962 60.7462 90.6845C61.8481 90.3368 62.9225 89.9071 63.9602 89.3989C64.1723 83.3373 64.198 75.5145 64.1338 68.6044L76.2119 77.8864Z" fill="black"/>
<path d="M28.6254 91.8157H28.6704C27.4683 86.7569 26.0992 78.8955 24.9614 70.4619C24.9551 70.4281 24.9399 70.3965 24.9173 70.3705C24.8947 70.3445 24.8655 70.325 24.8329 70.3141C24.6979 70.3141 24.3829 70.2498 13.9053 85.8891L14.156 86.0305C18.3406 79.7889 23.5537 72.1139 24.6529 70.7833C25.5592 77.5777 26.9798 86.2105 28.3168 91.8543C28.3608 91.8223 28.4122 91.8019 28.4661 91.7952C28.5201 91.7885 28.5749 91.7955 28.6254 91.8157Z" fill="black"/>
<path d="M76.3598 77.8156C72.0659 69.2085 63.9152 52.7786 63.761 52.2129C63.2082 49.8924 44.0335 49.6418 33.2216 50.8052C26.6265 51.5187 23.2646 52.6179 23.2389 54.0771C23.2389 55.1377 13.5391 70.147 7.04041 79.9304C7.02452 79.9566 7.01611 79.9866 7.01611 80.0172C7.01611 80.0478 7.02452 80.0778 7.04041 80.104L8.0496 81.6531L8.76954 82.1738L7.36823 80.0204C9.29663 77.1278 23.5282 55.5941 23.5603 54.0835C23.5603 52.8686 27.1214 51.7887 33.2602 51.1266C45.5183 49.796 63.0153 50.4838 63.4717 52.2837C63.6195 52.9265 73.8272 73.3996 75.7877 77.3528L64.2173 68.5272C64.1912 68.5128 64.1619 68.5054 64.1321 68.5057C64.1023 68.506 64.0731 68.514 64.0472 68.5288C64.0214 68.5437 63.9998 68.5649 63.9846 68.5905C63.9693 68.6161 63.961 68.6452 63.9602 68.675C64.0438 77.6742 63.9602 84.5714 63.7867 89.5467L64.1145 89.386V89.2446C64.2881 84.0122 64.3459 76.8321 64.2816 68.9964L76.167 78.047C76.1942 78.0719 76.2297 78.0856 76.2666 78.0856C76.3035 78.0856 76.339 78.0719 76.3662 78.047C76.3816 78.0326 76.3939 78.0152 76.4023 77.9958C76.4106 77.9765 76.4149 77.9556 76.4149 77.9345C76.4149 77.9135 76.4106 77.8926 76.4023 77.8732C76.3939 77.8539 76.3816 77.8365 76.3662 77.822L76.3598 77.8156Z" fill="black"/>
<path d="M50.7959 58.6925L50.4809 59.001C48.6241 60.8299 46.1225 61.8551 43.5162 61.8551C40.9099 61.8551 38.4082 60.8299 36.5515 59.001C35.7646 58.2242 35.2653 57.2029 35.1357 56.1049C35.006 55.0069 35.2537 53.8974 35.838 52.9587L38.8077 48.1698V31.2192H48.2247V48.022L51.3615 52.348C52.0443 53.2974 52.3628 54.4607 52.259 55.6255C52.1551 56.7902 51.6358 57.8788 50.7959 58.6925Z" fill="#F7C6AD"/>
<g opacity="0.21">
<path d="M51.3357 52.348L48.2245 48.022V31.2192H38.814V45.2708C40.2474 46.5564 42.5679 46.3957 44.4256 46.6143C45.1262 46.6914 46.2576 46.685 46.4697 47.5527C46.714 48.5748 45.7048 48.8383 45.0427 49.1083C44.3806 49.3783 44.0142 49.4876 44.3999 50.1111C44.5477 50.3425 45.0427 50.5418 45.2677 50.6703C45.8526 51.0174 46.4697 51.3131 47.0675 51.6345C47.9546 52.1102 49.1245 52.6501 49.5873 53.6143C50.1722 54.8292 49.523 56.3848 48.9445 57.4711C47.8581 59.6952 46.7397 61.2058 45.0363 60.7366C44.2266 60.4991 43.3626 60.5238 42.5679 60.8073C41.851 61.0165 41.1236 61.1882 40.3888 61.3215C42.1195 61.9072 43.9784 62.0035 45.7603 61.5997C47.5423 61.1959 49.178 60.3077 50.4872 59.0331L50.8022 58.7246C51.6457 57.9051 52.1643 56.8081 52.2624 55.6362C52.3604 54.4642 52.0313 53.2963 51.3357 52.348Z" fill="black"/>
</g>
<path d="M43.5384 62.0221C40.8733 62.0287 38.3134 60.9821 36.4162 59.1102C35.5958 58.3044 35.0753 57.2424 34.9409 56.1003C34.8064 54.9582 35.0661 53.8044 35.677 52.8301L38.6146 48.1055V31.0264H48.398V47.9577L51.4963 52.2323C52.2173 53.2137 52.5586 54.4231 52.457 55.6367C52.3554 56.8503 51.8177 57.986 50.9435 58.8338L50.6285 59.1424C48.7333 60.9935 46.1877 62.0275 43.5384 62.0221ZM39.0131 31.3928V48.2212L36.0113 53.0358C35.4531 53.9348 35.2165 54.9966 35.3403 56.0475C35.464 57.0985 35.9408 58.0763 36.6926 58.821C38.5189 60.6039 40.9701 61.602 43.5224 61.602C46.0747 61.602 48.5258 60.6039 50.3521 58.821L50.6671 58.5124C51.4728 57.7303 51.9682 56.683 52.0615 55.5639C52.1549 54.4449 51.8399 53.3299 51.1749 52.4251L47.9995 48.1055V31.3928H39.0131Z" fill="black"/>
<path d="M27.5971 22.8499C27.2736 23.5077 27.2138 24.2643 27.4299 24.9647C27.6035 25.6654 27.9056 26.3274 28.0727 27.0281C28.3813 28.2751 28.272 29.5993 28.767 30.8078C28.8294 30.9833 28.9437 31.1357 29.0948 31.2449C29.1986 31.2909 29.3128 31.3086 29.4257 31.2962C29.5386 31.2838 29.6462 31.2417 29.7376 31.1742C29.9229 31.0203 30.0685 30.8241 30.1618 30.6021C30.6909 29.4216 30.8608 28.1116 30.6504 26.8353C30.5286 25.5837 30.2006 24.3608 29.6797 23.2163C29.3069 22.4514 28.1434 21.905 27.5971 22.8499Z" fill="#F7C6AD"/>
<path d="M29.3585 31.5019C29.2329 31.5019 29.1093 31.471 28.9985 31.4119C28.8107 31.2811 28.6689 31.0944 28.5935 30.8784C28.3286 30.1463 28.1706 29.38 28.1243 28.6029C28.0774 28.0884 27.998 27.5774 27.8864 27.073C27.8029 26.7323 27.6872 26.3916 27.5715 26.0638C27.4408 25.7166 27.3292 25.3626 27.2372 25.0032C27.0174 24.2562 27.0838 23.454 27.4236 22.7534C27.516 22.5719 27.6567 22.4194 27.8303 22.3128C28.0038 22.2061 28.2034 22.1495 28.4071 22.1492C28.7109 22.1772 29.0032 22.2799 29.2577 22.4481C29.5123 22.6163 29.7213 22.8448 29.8663 23.1134C30.4131 24.2754 30.7525 25.5241 30.869 26.803C31.0813 28.11 30.907 29.4505 30.3676 30.6598C30.26 30.9109 30.0922 31.1317 29.8791 31.3026C29.7327 31.4254 29.5494 31.4955 29.3585 31.5019ZM28.4071 22.5477C28.2724 22.5462 28.1401 22.5837 28.0261 22.6555C27.912 22.7273 27.8212 22.8305 27.7643 22.9527C27.4762 23.5545 27.4234 24.2423 27.6165 24.8811C27.7 25.2217 27.8222 25.5689 27.9379 25.9031C28.0536 26.2374 28.1757 26.5909 28.2657 26.9444C28.3825 27.4655 28.4641 27.9938 28.51 28.5257C28.5433 29.2842 28.6884 30.0337 28.9406 30.7498C28.9859 30.8855 29.0683 31.0057 29.1785 31.0969C29.2541 31.1296 29.3373 31.1409 29.4189 31.1296C29.5005 31.1182 29.5774 31.0847 29.6413 31.0326C29.8007 30.8963 29.9262 30.7246 30.0077 30.5313C30.5142 29.3898 30.6772 28.1256 30.4769 26.893C30.3625 25.6643 30.0386 24.4642 29.5192 23.3448C29.4108 23.135 29.2517 22.9558 29.0564 22.8233C28.861 22.6908 28.6356 22.6093 28.4007 22.5863L28.4071 22.5477Z" fill="black"/>
<path d="M59.4863 22.6186C59.8132 23.2731 59.8732 24.0291 59.6534 24.7269C59.4863 25.4276 59.1778 26.0897 59.0106 26.7968C58.7021 28.0374 58.8114 29.3679 58.3164 30.57C58.2579 30.7476 58.1427 30.9012 57.9886 31.0071C57.8847 31.0531 57.7706 31.0709 57.6576 31.0585C57.5447 31.046 57.4371 31.0039 57.3458 30.9364C57.1619 30.7812 57.0166 30.5853 56.9215 30.3643C56.3925 29.1839 56.2225 27.8738 56.433 26.5975C56.5569 25.3456 56.8871 24.1227 57.4101 22.9785C57.7765 22.22 58.9399 21.6736 59.4863 22.6186Z" fill="#F7C6AD"/>
<g opacity="0.21">
<path d="M59.4863 22.6186C59.8132 23.2731 59.8732 24.0291 59.6534 24.7269C59.4863 25.4276 59.1778 26.0897 59.0106 26.7968C58.7021 28.0374 58.8114 29.3679 58.3164 30.57C58.2579 30.7476 58.1427 30.9012 57.9886 31.0071C57.8847 31.0531 57.7706 31.0709 57.6576 31.0585C57.5447 31.046 57.4371 31.0039 57.3458 30.9364C57.1619 30.7812 57.0166 30.5853 56.9215 30.3643C56.3925 29.1839 56.2225 27.8738 56.433 26.5975C56.5569 25.3456 56.8871 24.1227 57.4101 22.9785C57.7765 22.22 58.9399 21.6736 59.4863 22.6186Z" fill="black"/>
</g>
<path d="M57.7251 31.2706C57.5324 31.2702 57.3451 31.207 57.1915 31.0907C56.9799 30.9183 56.8124 30.6979 56.703 30.4479C56.1636 29.2386 55.9894 27.8981 56.2016 26.5911C56.3179 25.3036 56.664 24.0474 57.2237 22.8821C57.3686 22.6136 57.5776 22.3851 57.8322 22.2169C58.0868 22.0486 58.379 21.9459 58.6828 21.9179C58.8899 21.9139 59.0939 21.9685 59.2714 22.0754C59.4488 22.1823 59.5924 22.3372 59.6856 22.5222C60.0316 23.2211 60.0983 24.0256 59.872 24.772C59.7801 25.1313 59.6685 25.4854 59.5378 25.8326C59.4127 26.1624 59.3075 26.4994 59.2228 26.8418C59.1071 27.3451 59.0297 27.8566 58.9914 28.3716C58.9396 29.1486 58.7795 29.9145 58.5157 30.6471C58.4403 30.8632 58.2986 31.0499 58.1107 31.1807C57.993 31.2458 57.8595 31.277 57.7251 31.2706ZM58.6764 22.3165C58.4415 22.3395 58.2161 22.421 58.0207 22.5535C57.8253 22.686 57.6663 22.8652 57.5579 23.075C57.0266 24.1912 56.6959 25.3923 56.5809 26.6232C56.3742 27.8599 56.5374 29.1301 57.0501 30.2743C57.1295 30.4689 57.2553 30.641 57.4165 30.7757C57.4791 30.8279 57.5549 30.8615 57.6356 30.8729C57.7162 30.8842 57.7984 30.8728 57.8729 30.84C57.9831 30.7488 58.0655 30.6285 58.1107 30.4929C58.361 29.7956 58.5104 29.0661 58.5543 28.3266C58.6001 27.7947 58.6817 27.2664 58.7985 26.7453C58.8885 26.3918 59.0107 26.0383 59.1264 25.704C59.2421 25.3698 59.3642 25.0226 59.4478 24.682C59.6397 24.0437 59.5894 23.357 59.3063 22.7536C59.2532 22.6288 59.1659 22.5215 59.0544 22.4442C58.943 22.3668 58.8119 22.3226 58.6764 22.3165Z" fill="black"/>
<path d="M44.6957 4.56226C43.1364 5.83606 41.4052 6.88344 39.5533 7.6734C37.7132 8.45087 35.9304 9.35733 34.218 10.386C32.5333 11.4405 31.1022 12.854 30.027 14.5256C28.9418 16.2071 28.2193 18.0965 27.9058 20.073C28.0729 18.0498 28.709 16.0933 29.7634 14.3585C30.8236 12.6152 32.2709 11.1394 33.9931 10.0453C35.7301 9.01728 37.5464 8.12954 39.4247 7.39057C41.2889 6.66279 43.0586 5.71318 44.6957 4.56226Z" fill="#775B39"/>
<path d="M43.7248 2.70459C41.9865 2.98814 40.2687 3.38539 38.5824 3.89377C36.8982 4.38808 35.2844 5.09667 33.7807 6.00215C32.2775 6.90347 30.951 8.07098 29.8661 9.44755C28.766 10.8264 27.9944 12.4377 27.6099 14.1593C27.8395 12.3851 28.5188 10.699 29.5833 9.26114C30.6568 7.82769 31.9942 6.61246 33.5236 5.68075C35.0651 4.76946 36.7239 4.07308 38.4539 3.61094C40.1795 3.14854 41.9439 2.84516 43.7248 2.70459Z" fill="#775B39"/>
<path d="M30.6309 4.73589C33.7419 2.42076 37.5722 1.28212 41.4427 1.52189C37.6651 1.83218 33.9937 2.92681 30.663 4.73589H30.6309Z" fill="#775B39"/>
<path d="M46.2959 6.02148C46.3795 6.64712 46.702 7.21611 47.1958 7.6092C47.6773 8.01884 48.2113 8.36254 48.7835 8.63125C49.9277 9.20977 51.0847 9.78186 52.2161 10.4054C53.3517 11.0344 54.4144 11.7867 55.3851 12.6487C56.3593 13.5155 57.1335 14.5836 57.6541 15.7792C57.0092 14.6745 56.1709 13.6947 55.1794 12.8866C54.1974 12.0755 53.1381 11.3629 52.0168 10.7589C50.9112 10.1161 49.7606 9.54402 48.6357 8.90765C48.0619 8.59276 47.5305 8.20611 47.0544 7.75704C46.8199 7.53194 46.6322 7.26275 46.5021 6.96491C46.3719 6.66708 46.3018 6.34647 46.2959 6.02148Z" fill="#775B39"/>
<path d="M48.2246 5.53955C49.4202 6.04093 50.6415 6.46518 51.8436 6.96014C53.0721 7.43593 54.2327 8.07132 55.2954 8.84996C57.3848 10.4914 58.741 12.8919 59.0686 15.5286C58.4888 13.0154 57.0722 10.7738 55.0511 9.17136C53.0199 7.60936 50.4615 6.838 48.2246 5.53955Z" fill="#775B39"/>
<path d="M50.5962 4.81934C51.5154 5.03789 52.4475 5.1086 53.3667 5.35929C54.2898 5.60192 55.1746 5.97186 55.9957 6.45847C57.6407 7.42788 58.9778 8.84299 59.8525 10.5402C59.2991 9.78995 58.6772 9.09273 57.9948 8.45758C57.3138 7.83469 56.5707 7.28328 55.7771 6.81201C54.9855 6.33746 54.145 5.94954 53.2702 5.65497C52.4089 5.35286 51.4383 5.19859 50.5962 4.81934Z" fill="#775B39"/>
<path d="M57.6863 42.2815C56.857 43.49 48.7642 48.5359 46.6301 46.9289C42.5355 43.8306 56.1692 24.2767 58.2455 25.7937C60.1932 27.2207 58.7983 40.6552 57.6863 42.2815Z" fill="#F7C6AD"/>
<g opacity="0.21">
<path d="M58.2455 25.7938C56.4971 24.5082 46.5338 38.2127 45.9038 44.3964C46.9773 44.2871 48.1665 44.2743 48.8543 45.1742C49.0665 45.4485 49.186 45.7832 49.1952 46.13C49.2045 46.4767 49.103 46.8173 48.9057 47.1026C52.1197 46.4019 57.0499 43.2458 57.6863 42.2816C58.7984 40.6553 60.1932 27.2208 58.2455 25.7938Z" fill="black"/>
</g>
<path d="M47.7939 47.4047C47.3385 47.4368 46.8856 47.3145 46.5083 47.0576C43.725 44.8914 48.7517 35.8922 52.6084 30.6855C53.6498 29.2842 57.1402 24.7846 58.3358 25.6653C60.412 27.1823 58.85 40.8675 57.8215 42.378C57.1337 43.3808 51.8114 46.8134 48.5717 47.3404C48.3144 47.3813 48.0544 47.4027 47.7939 47.4047ZM57.963 25.871C57.2495 25.871 55.3918 27.4844 52.8656 30.8784C48.8031 36.3422 44.2135 44.8914 46.7268 46.8198C47.2741 47.1211 47.9166 47.1994 48.5202 47.0383C51.6185 46.5305 56.9088 43.1815 57.558 42.2109C58.6572 40.6039 59.9685 27.2723 58.1494 25.9417C58.0965 25.8985 58.0311 25.8737 57.963 25.871Z" fill="black"/>
<path d="M52.8654 13.9666C49.9921 11.9996 45.4861 10.9583 43.6798 7.75073C42.78 8.4635 41.8281 9.10809 40.8322 9.67913C38.5117 11.0997 35.9663 12.2053 33.9736 14.108C32.0454 15.9809 30.4749 18.1897 29.339 20.626C28.9367 22.7446 28.8608 24.9124 29.114 27.054C30.4575 38.4251 38.0232 45.438 43.2556 45.438C47.7552 45.438 57.3972 38.5215 58.04 27.054C58.2455 23.5969 57.6994 20.1364 56.4394 16.9106C55.3467 15.8154 54.1497 14.8294 52.8654 13.9666Z" fill="#F7C6AD"/>
<g opacity="0.21">
<path d="M56.4072 16.9106C55.324 15.8176 54.1379 14.8317 52.8653 13.9666C49.992 11.9996 45.486 10.9583 43.6797 7.75073L43.4805 7.91143C43.7569 10.3284 45.7624 12.0703 47.498 13.6323C49.0538 14.9466 50.4304 16.4594 51.5926 18.1319C53.8617 21.5645 53.9324 25.2027 53.206 29.1431C52.3639 33.7134 51.0462 38.8236 47.7872 42.314C46.5711 43.5917 45.1476 44.6545 43.5769 45.4573C48.1986 45.1102 57.4035 38.258 58.0077 27.0861C58.2198 23.6183 57.6736 20.1459 56.4072 16.9106Z" fill="black"/>
</g>
<path d="M43.2235 45.6373C38.2675 45.6373 30.3289 39.0293 28.9212 27.0733C28.6659 24.9127 28.7396 22.7259 29.1397 20.5875C30.2844 18.1059 31.8774 15.857 33.8386 13.9538C35.3145 12.6614 36.9472 11.56 38.6982 10.6755C39.341 10.2962 40.0673 9.91057 40.7294 9.49918L41.0829 9.28706C41.9483 8.78983 42.7755 8.22906 43.5577 7.60935L43.7377 7.45508L43.8534 7.66078C45.0297 9.7563 47.4145 10.9133 49.7157 12.0318C50.8428 12.5476 51.9318 13.1426 52.9747 13.8124C54.2683 14.6807 55.4758 15.6709 56.5808 16.7692L56.6258 16.8335C57.8902 20.0875 58.4404 23.5752 58.2392 27.0604C57.59 38.4058 48.0187 45.6373 43.2235 45.6373ZM43.6284 8.05288C42.8816 8.6254 42.1002 9.15135 41.2886 9.62774L40.9351 9.83986C40.2923 10.2513 39.5659 10.6434 38.891 11.0226C37.1689 11.89 35.5622 12.9697 34.1086 14.2366C32.1986 16.0955 30.6434 18.2868 29.519 20.7032C29.1327 22.7892 29.0634 24.9216 29.3133 27.0283C30.6953 38.7594 38.4153 45.2452 43.2235 45.2452C47.8902 45.2452 57.2043 38.1744 57.8086 27.0412C58.0124 23.6268 57.4775 20.2087 56.2401 17.0199C55.1635 15.9472 53.986 14.9807 52.724 14.1338C51.6974 13.4722 50.6232 12.8878 49.51 12.3853C47.2602 11.2733 44.9012 10.1227 43.6284 8.05288Z" fill="black"/>
<path d="M37.7339 29.7921C41.1243 29.7921 43.8727 27.0437 43.8727 23.6534C43.8727 20.2631 41.1243 17.5146 37.7339 17.5146C34.3436 17.5146 31.5952 20.2631 31.5952 23.6534C31.5952 27.0437 34.3436 29.7921 37.7339 29.7921Z" fill="white"/>
<path d="M50.0049 29.7921C53.3953 29.7921 56.1437 27.0437 56.1437 23.6534C56.1437 20.2631 53.3953 17.5146 50.0049 17.5146C46.6146 17.5146 43.8662 20.2631 43.8662 23.6534C43.8662 27.0437 46.6146 29.7921 50.0049 29.7921Z" fill="white"/>
<path d="M43.2812 27.3752C43.0596 28.2064 42.5939 28.952 41.9441 29.5158C41.6292 29.8179 41.2563 30.03 41.2178 30.3578C41.1996 30.5293 41.2305 30.7025 41.3067 30.8572C41.3829 31.0119 41.5014 31.1419 41.6485 31.232C41.9871 31.432 42.363 31.5608 42.7532 31.6105C43.1433 31.6602 43.5395 31.6299 43.9175 31.5213C44.3161 31.4405 44.6915 31.2716 45.0163 31.0269C45.3411 30.7822 45.607 30.4679 45.7945 30.1071C45.6647 30.5213 45.4322 30.8959 45.1186 31.196C44.805 31.4961 44.4206 31.712 44.0011 31.8234C43.5807 31.9748 43.132 32.0308 42.6873 31.9874C42.2426 31.9441 41.8131 31.8024 41.4299 31.5727C41.2199 31.4372 41.054 31.2435 40.9524 31.0151C40.8508 30.7868 40.8179 30.5338 40.8578 30.2871C40.9108 30.0342 41.0493 29.8072 41.2499 29.6443C41.4235 29.4901 41.597 29.3872 41.7577 29.2586C42.406 28.7588 42.9279 28.1137 43.2812 27.3752Z" fill="black"/>
<path d="M50.2624 20.7415C49.1889 20.7415 48.6296 22.1813 48.6296 22.1813C48.6296 22.1813 48.0768 20.7929 46.8555 20.825C45.6342 20.8572 44.4836 21.7507 44.7279 23.8655C44.9721 25.9803 48.7453 27.6387 48.7453 27.6387C48.7453 27.6387 52.2036 25.5496 52.5636 23.6662C52.7083 23.0525 52.6034 22.4064 52.2719 21.87C51.9404 21.3336 51.4095 20.9508 50.7959 20.8057C50.6213 20.7629 50.4421 20.7413 50.2624 20.7415Z" fill="#FF0000"/>
<path d="M38.1645 21.0117C37.1682 21.0117 36.654 22.3359 36.654 22.3359C36.654 22.3359 36.1461 21.0503 35.0148 21.0889C33.8835 21.1274 32.8293 21.9631 33.0864 23.8915C33.3435 25.8199 36.7954 27.3754 36.7954 27.3754C36.7954 27.3754 40.0094 25.447 40.3179 23.7115C40.444 23.1536 40.3463 22.5685 40.0459 22.0817C39.7454 21.595 39.2662 21.2455 38.7109 21.1081C38.5334 21.0538 38.3499 21.0214 38.1645 21.0117Z" fill="#FF0000"/>
<path d="M33.3501 16.9876C33.5732 16.4042 33.8576 15.8461 34.1986 15.3227C34.5518 14.7865 35.0033 14.322 35.5292 13.9536C36.058 13.5334 36.7057 13.2905 37.3804 13.2593C38.0494 13.2409 38.7017 13.4697 39.2124 13.9021V13.9793C38.6307 13.9406 38.0465 13.9665 37.4704 14.0564C36.9245 14.1261 36.3917 14.2755 35.8892 14.4999C35.3774 14.775 34.92 15.141 34.5393 15.5798C34.1214 16.0182 33.7528 16.501 33.4401 17.0197L33.3501 16.9876Z" fill="black"/>
<path d="M53.7653 17.0197C53.4561 16.5036 53.0942 16.0211 52.6854 15.5798C52.3046 15.141 51.8472 14.775 51.3355 14.4999C50.8329 14.2755 50.3001 14.1261 49.7542 14.0564C49.1782 13.9665 48.5939 13.9406 48.0122 13.9793V13.9021C48.523 13.4697 49.1752 13.2409 49.8442 13.2593C50.5189 13.2905 51.1666 13.5334 51.6954 13.9536C52.2044 14.3272 52.6402 14.7913 52.981 15.3227C53.3211 15.8411 53.6034 16.395 53.8231 16.9747L53.7653 17.0197Z" fill="black"/>
<path d="M38.3702 25.3953C36.3242 25.3319 34.3022 25.8513 32.54 26.893C33.1167 27.8166 33.9291 28.5698 34.8935 29.0751C35.858 29.5803 36.9397 29.8194 38.0273 29.7677C39.1149 29.7159 40.169 29.3753 41.0812 28.7808C41.9933 28.1862 42.7305 27.3594 43.2169 26.3852C41.6035 26.0317 40.0351 25.4018 38.3702 25.3953Z" fill="#F7C6AD"/>
<path d="M37.734 29.9916C36.4778 29.9916 35.2499 29.6186 34.2059 28.9201C33.1619 28.2215 32.3487 27.2287 31.8695 26.0676C31.3903 24.9064 31.2665 23.6291 31.5139 22.3976C31.7613 21.166 32.3688 20.0356 33.2593 19.1496C34.1498 18.2636 35.2833 17.6619 36.5161 17.4208C37.7489 17.1796 39.0255 17.3098 40.1843 17.795C41.343 18.2801 42.3316 19.0983 43.0248 20.1458C43.7181 21.1934 44.0848 22.4231 44.0784 23.6793C44.0699 25.3564 43.3977 26.9619 42.2089 28.1447C41.02 29.3276 39.4111 29.9916 37.734 29.9916ZM37.734 17.7141C36.5604 17.7141 35.4131 18.0618 34.4369 18.7134C33.4607 19.3649 32.6994 20.291 32.2492 21.3748C31.7989 22.4586 31.6797 23.6515 31.9068 24.8029C32.1339 25.9543 32.6971 27.0127 33.5252 27.8443C34.3532 28.676 35.4091 29.2437 36.5596 29.4758C37.71 29.7078 38.9034 29.5939 39.9892 29.1483C41.0749 28.7027 42.0043 27.9454 42.66 26.9721C43.3157 25.9987 43.6684 24.8529 43.6735 23.6793C43.6768 22.8972 43.5257 22.1221 43.2287 21.3985C42.9318 20.6749 42.4948 20.0171 41.9429 19.4628C41.3911 18.9086 40.7352 18.4688 40.0129 18.1687C39.2906 17.8686 38.5161 17.7141 37.734 17.7141Z" fill="black"/>
<path d="M32.7394 27.2018L32.4951 26.8933C36.429 23.9364 43.0113 26.1412 43.2877 26.2505L43.1527 26.6362C43.082 26.5783 36.4998 24.3671 32.7394 27.2018Z" fill="black"/>
<path d="M50.5387 25.2926C48.4843 25.3182 46.4477 25.6786 44.5093 26.3597C45.0126 27.3725 45.7862 28.2264 46.7445 28.827C47.7029 29.4276 48.8087 29.7514 49.9396 29.7627C51.0705 29.774 52.1825 29.4724 53.1527 28.8911C54.1229 28.3098 54.9134 27.4715 55.4369 26.469C53.8684 25.8519 52.3578 25.2477 50.5387 25.2926Z" fill="#F7C6AD"/>
<path d="M50.0113 29.9916C48.7552 29.9916 47.5273 29.6186 46.4832 28.9201C45.4392 28.2215 44.6261 27.2287 44.1468 26.0676C43.6676 24.9064 43.5439 23.6291 43.7913 22.3976C44.0387 21.166 44.6461 20.0356 45.5366 19.1496C46.4271 18.2636 47.5606 17.6619 48.7934 17.4208C50.0262 17.1796 51.3029 17.3098 52.4616 17.795C53.6203 18.2801 54.6089 19.0983 55.3022 20.1458C55.9954 21.1934 56.3621 22.4231 56.3558 23.6793C56.3473 25.3564 55.6751 26.9619 54.4862 28.1447C53.2973 29.3276 51.6884 29.9916 50.0113 29.9916ZM50.0113 17.7141C48.8372 17.7116 47.6886 18.0571 46.7107 18.7071C45.7329 19.3571 44.9696 20.2823 44.5173 21.3658C44.0651 22.4494 43.9441 23.6427 44.1698 24.795C44.3954 25.9473 44.9575 27.0068 45.7851 27.8398C46.6127 28.6727 47.6685 29.2417 48.8193 29.4748C49.9701 29.7079 51.1642 29.5947 52.2507 29.1495C53.3371 28.7043 54.2673 27.947 54.9236 26.9734C55.5799 25.9998 55.9329 24.8535 55.9379 23.6793C55.9413 22.8982 55.7906 22.1242 55.4945 21.4014C55.1983 20.6787 54.7625 20.0215 54.212 19.4674C53.6615 18.9133 53.0071 18.4732 52.2863 18.1724C51.5655 17.8715 50.7924 17.7158 50.0113 17.7141Z" fill="black"/>
<path d="M44.6119 26.5975L44.4448 26.2504C44.5091 26.2504 50.8728 23.4799 55.6038 26.2504L55.3981 26.5975C50.86 23.9106 44.6698 26.5718 44.6119 26.5975Z" fill="black"/>
<path d="M35.6904 33.3211C35.6904 33.3211 40.0615 32.9483 40.9164 33.1411C41.6203 33.3934 42.3452 33.5827 43.0826 33.7068C43.809 33.7068 44.4646 33.2889 45.1717 33.1154C45.8788 32.9418 51.1176 33.0125 51.1176 33.0125C51.1176 33.0125 49.2535 35.2431 48.9514 36.2265C48.8035 36.8827 48.5587 37.5131 48.225 38.0971C47.8907 38.5985 47.3958 39.8519 42.9991 39.7491C40.3122 39.6848 38.6537 38.7592 38.4095 38.2835C37.7667 37.1007 37.0789 35.9501 36.4811 34.7674C36.2429 34.2718 35.979 33.7891 35.6904 33.3211Z" fill="#FF0000"/>
<path d="M43.5003 39.8584H43.0054C40.2542 39.7941 38.5765 38.817 38.3258 38.3349C38.0751 37.8528 37.7216 37.2164 37.413 36.6765C37.1045 36.1365 36.7188 35.4423 36.4038 34.8188C36.1672 34.3058 35.9033 33.8059 35.6132 33.3211L35.5039 33.1797H35.6839C35.8574 33.1797 40.0742 32.8133 40.942 33.0061C41.1605 33.0575 41.4369 33.154 41.7262 33.2504C42.1605 33.4347 42.6198 33.5539 43.0889 33.6039C43.5341 33.5757 43.9702 33.4645 44.3745 33.2761C44.6302 33.172 44.8921 33.0839 45.1587 33.0125C45.9108 32.8261 50.9439 32.9033 51.1303 32.9033H51.3425L51.2075 33.064C51.2075 33.064 49.3498 35.2945 49.0605 36.2201C49.022 36.3422 48.9898 36.4644 48.9513 36.5865C48.8154 37.1341 48.5988 37.6583 48.3085 38.1421L48.2442 38.2385C47.9228 38.7785 47.2414 39.8584 43.5003 39.8584ZM35.8574 33.3725C35.9603 33.5525 36.1724 33.9317 36.5774 34.7224C36.8924 35.3652 37.2202 35.9694 37.5866 36.5672C37.9197 37.1081 38.2243 37.6659 38.4994 38.2385C38.705 38.6306 40.2863 39.5884 42.9989 39.6527C47.055 39.7426 47.7428 38.6627 48.0706 38.1421L48.1349 38.0457C48.4259 37.5806 48.6427 37.0732 48.7777 36.5415C48.7962 36.4147 48.833 36.2913 48.887 36.1751C49.1441 35.3459 50.5004 33.6425 50.9375 33.109C49.9669 33.109 45.8658 33.0511 45.2166 33.2118C44.9585 33.2811 44.7051 33.3669 44.4581 33.4689C44.0328 33.6633 43.575 33.7767 43.1082 33.8032C42.6169 33.7572 42.1355 33.6358 41.6812 33.4432C41.3984 33.3468 41.1284 33.2568 40.9163 33.2054C40.1578 33.0383 36.6545 33.3211 35.8574 33.3725Z" fill="black"/>
<path d="M33.4404 32.7619C42.6903 34.9538 44.278 35.0245 53.5729 32.3184C49.7161 34.6132 49.5361 37.4029 47.8777 38.3157C46.4378 39.1063 39.4763 38.6564 38.5828 38.155C37.143 37.3836 36.3009 34.5103 33.4404 32.7619Z" fill="white"/>
<g opacity="0.21">
<path d="M44.9595 34.2918C45.1178 34.3559 45.2705 34.4333 45.4159 34.5232C45.5033 34.5821 45.5644 34.6728 45.586 34.7761C45.6076 34.8793 45.5881 34.9869 45.5316 35.076C45.2796 35.3622 44.9716 35.5937 44.6267 35.7562C44.2817 35.9187 43.9072 36.0088 43.526 36.0209C43.7396 36.0655 43.9411 36.155 44.1174 36.2836C44.2936 36.4122 44.4404 36.5768 44.5481 36.7665C44.953 37.5765 44.201 38.0521 43.5453 38.3542C43.193 38.4968 42.8297 38.6107 42.459 38.6949C44.6574 38.8106 47.0936 38.7528 47.8778 38.3157C49.5362 37.4029 49.7098 34.6132 53.573 32.3184C49.7547 33.4304 47.2414 34.0732 44.9595 34.2918Z" fill="black"/>
</g>
<path d="M44.3681 38.8427C41.8997 38.8427 39.0521 38.5406 38.5057 38.2449C37.8006 37.7323 37.2132 37.0748 36.783 36.3165C35.9077 34.923 34.7465 33.7311 33.3762 32.8197L32.8491 32.4919L33.4405 32.6783C42.5104 34.8252 44.0338 34.9924 53.5151 32.2283L54.2607 32.0098L53.6179 32.4083C51.931 33.4068 50.5349 34.8296 49.5683 36.5351C49.185 37.288 48.622 37.9349 47.9292 38.4185C47.3507 38.7206 45.9429 38.8427 44.3681 38.8427ZM33.9547 32.9868C35.13 33.8766 36.1415 34.9642 36.9437 36.2008C37.3564 36.9209 37.9147 37.547 38.5829 38.0392C39.3735 38.4699 46.3543 38.997 47.8006 38.1999C48.4656 37.7323 49.0044 37.1073 49.369 36.3808C50.2435 34.8626 51.4499 33.5617 52.898 32.5754C44.1495 35.1466 42.369 34.9731 33.9483 32.9868H33.9547Z" fill="black"/>
<path d="M36.0438 35.0117C36.4733 35.2177 36.9237 35.3772 37.3872 35.4874C37.85 35.6095 38.3257 35.7059 38.8014 35.7831C39.755 35.9395 40.7163 36.0447 41.6811 36.0981C40.7117 36.0842 39.7438 36.0155 38.7821 35.8924C38.3002 35.8343 37.8217 35.7507 37.3486 35.6417C36.8644 35.5435 36.3923 35.3926 35.9409 35.1917L36.0438 35.0117Z" fill="black"/>
<path d="M50.2497 35.4616C49.2416 35.6863 48.2193 35.8409 47.1899 35.9245C46.1614 36.0144 45.133 36.0723 44.1045 36.098C45.133 36.0402 46.155 35.9502 47.1771 35.8216C48.1942 35.7114 49.2018 35.5266 50.1918 35.2688L50.2497 35.4616Z" fill="black"/>
<path d="M34.3724 35.0952C33.9953 34.1811 33.4625 33.3394 32.7975 32.6076L32.6304 32.4404H32.8682C33.4951 32.4583 34.12 32.5185 34.7387 32.6204H32.8489L32.9196 32.4661C33.6445 33.1862 34.1485 34.0983 34.3724 35.0952Z" fill="black"/>
<path d="M52.7565 34.6068C52.9834 33.6167 53.4872 32.7116 54.2092 31.9971L54.2863 32.1513H52.3965C53.0179 32.0656 53.6414 32.0078 54.267 31.9778H54.5049L54.3377 32.1449C53.67 32.8662 53.1347 33.6996 52.7565 34.6068Z" fill="black"/>
<g opacity="0.21">
<path d="M50.153 17.5212C52.2614 19.0318 53.367 22.1944 53.0906 24.6306C52.827 26.8997 51.3807 28.6095 49.5166 29.773H50.018C51.5762 29.6907 53.0445 29.0181 54.1246 27.892C55.2047 26.7659 55.8154 25.2707 55.8326 23.7104C55.8497 22.1502 55.2721 20.6419 54.2171 19.4923C53.1622 18.3426 51.709 17.6379 50.153 17.5212Z" fill="black"/>
</g>
<g opacity="0.21">
<path d="M38.7112 17.5982C40.5046 19.668 41.3917 22.2906 40.5624 25.1061C39.9847 26.9748 38.822 28.6085 37.2456 29.7664H37.7341C39.2939 29.7908 40.8045 29.2206 41.9589 28.1714C43.1134 27.1223 43.8251 25.6729 43.9495 24.118C44.0739 22.563 43.6016 21.0189 42.6287 19.7996C41.6557 18.5803 40.255 17.7771 38.7112 17.5532V17.5982Z" fill="black"/>
</g>
<path d="M47.0673 45.3093C48.9957 44.6086 51.0012 44.2358 52.9618 43.7087C53.1676 43.5084 53.3588 43.2936 53.5339 43.0659C54.016 42.4231 56.2593 38.6756 54.7423 38.2514C54.1574 38.0842 53.0968 39.2541 52.6147 39.537C51.8117 40.0658 50.9643 40.5239 50.082 40.9061C48.7322 41.4975 47.183 42.0182 46.5081 43.323C46.2831 43.7115 46.212 44.1703 46.3088 44.6086C46.4169 44.9514 46.6452 45.2436 46.9516 45.4314C46.9798 45.382 47.0195 45.3401 47.0673 45.3093Z" fill="#F7C6AD"/>
<g opacity="0.21">
<path d="M54.7428 38.245C54.5534 38.2127 54.3588 38.2516 54.1964 38.3542C53.6496 39.7506 52.7179 40.9631 51.5095 41.8511C50.2239 42.7703 48.3791 43.2524 48.5269 44.8401C49.9282 44.4415 51.5545 44.088 52.9622 43.7088C53.168 43.5084 53.3592 43.2936 53.5343 43.066C54.01 42.436 56.2598 38.6692 54.7428 38.245Z" fill="black"/>
</g>
<path d="M46.4697 45.2193C46.4069 44.6155 46.4681 44.0052 46.6497 43.4259C47.2218 42.3203 48.4688 41.7932 49.6709 41.2854L50.1465 41.0797C51.0415 40.6933 51.9017 40.2309 52.7177 39.6976C52.9033 39.5689 53.0794 39.4272 53.2448 39.2734C53.6947 38.9007 54.1238 38.5037 54.5304 38.0842C53.9597 38.2683 53.4446 38.5933 53.0327 39.0291C52.8729 39.173 52.7056 39.3082 52.5313 39.4341C51.7354 39.9542 50.8967 40.4058 50.0244 40.784L49.5552 40.9897C48.2696 41.5232 46.984 42.0696 46.3412 43.278C46.1071 43.6914 46.0338 44.1767 46.1355 44.6408C46.1997 44.8584 46.3092 45.0599 46.4569 45.2321L46.4697 45.2193Z" fill="black"/>
<path d="M82.447 77.1344C82.9969 76.7914 83.4966 76.3739 83.9319 75.8938C84.1569 75.6174 84.3754 75.3474 84.6197 75.0967C85.301 72.5769 84.4526 69.2215 80.9364 66.1361C71.8087 58.1075 54.5238 44.8145 54.5238 44.8145L47.7295 46.5886C47.595 46.6221 47.4686 46.6823 47.3578 46.7656C47.247 46.8489 47.1541 46.9536 47.0845 47.0735C47.015 47.1934 46.9702 47.3261 46.9529 47.4636C46.9356 47.6012 46.9461 47.7408 46.9838 47.8742C47.0236 48.0316 47.1008 48.1772 47.2088 48.2984C51.3484 53.0166 66.8784 68.7458 74.502 76.498C76.4304 78.465 78.4552 79.1656 80.1908 78.9985C81.0071 78.4135 81.65 77.6743 82.447 77.1344Z" fill="#D35B5B"/>
<path opacity="0.21" d="M80.9362 66.1361C71.8085 58.1075 54.5236 44.8145 54.5236 44.8145L52.5952 45.3158C55.8092 47.797 70.2722 59.0267 78.3586 66.1361C81.8747 69.2215 82.7232 72.5641 82.0418 75.0967C81.7976 75.3474 81.579 75.6174 81.354 75.8938C80.9187 76.3739 80.419 76.7914 79.8692 77.1344C79.1878 77.61 78.5836 78.2014 77.9408 78.7092C78.6574 78.9532 79.4175 79.043 80.1713 78.9728C80.9555 78.4135 81.624 77.6872 82.4275 77.1344C82.9774 76.7914 83.4771 76.3739 83.9124 75.8938C84.1373 75.6174 84.3559 75.3474 84.6002 75.0967C85.3008 72.5769 84.4523 69.2215 80.9362 66.1361Z" fill="black"/>
<path d="M80.1266 79.024C80.238 78.9461 80.3453 78.8624 80.448 78.7733C78.5196 79.069 76.4434 78.2205 74.6178 76.3628L72.3937 74.1002C64.423 66.0073 51.0914 52.4571 47.3246 48.1697C47.2252 48.0571 47.1564 47.9209 47.1249 47.7741C47.0935 47.6272 47.1003 47.4748 47.1449 47.3314C47.1895 47.188 47.2702 47.0585 47.3794 46.9554C47.4885 46.8523 47.6224 46.779 47.7681 46.7427L54.4789 44.9878C55.6295 45.8749 72.0788 58.5637 80.8337 66.2516C83.8163 68.8806 85.1661 71.9982 84.5362 74.8137C84.4912 75.0001 84.4333 75.1801 84.3755 75.3536C84.4976 75.2186 84.6198 75.0772 84.7547 74.9487C84.7808 74.9254 84.8115 74.9079 84.8447 74.8972C85.4875 71.9661 84.1184 68.7328 81.0394 66.0266C72.008 58.0881 54.7875 44.8143 54.6139 44.6986L54.5496 44.6536L47.691 46.4341C47.385 46.5169 47.1245 46.7178 46.9666 46.9926C46.8086 47.2674 46.7663 47.5937 46.8489 47.8997C46.8937 48.0707 46.9773 48.2291 47.0932 48.3625C50.86 52.6564 64.1916 66.213 72.1623 74.3059L74.3864 76.5685C76.0448 78.2527 77.9218 79.1397 79.7088 79.1397H80.0302C80.051 79.093 80.0844 79.0529 80.1266 79.024Z" fill="black"/>
<path d="M20.327 72.2746L16.9909 51.4737C9.41871 51.4737 2.25794 43.4644 0.541663 32.6461C-1.3096 21.0243 3.82637 10.5402 12.0028 9.24178C20.1792 7.94332 28.2977 16.3061 30.1683 27.9344C31.891 38.7462 27.5971 48.5682 20.372 50.9337L23.8303 71.7025C23.8689 71.9326 23.8618 72.168 23.8094 72.3953C23.7569 72.6226 23.6602 72.8373 23.5246 73.0272C23.3891 73.2171 23.2174 73.3783 23.0195 73.5018C22.8216 73.6252 22.6012 73.7084 22.3711 73.7466C21.9068 73.8209 21.4319 73.7085 21.0501 73.4339C20.6684 73.1594 20.4107 72.7449 20.3334 72.2811L20.327 72.2746Z" fill="#A8A8A8"/>
<path opacity="0.5" d="M21.4967 11.9093C21.1175 11.7293 20.8025 11.2986 20.4104 11.1572L2.8877 40.4624C2.99054 40.771 3.60763 41.748 3.71048 42.0437L21.4967 11.9093Z" fill="white"/>
<path opacity="0.5" d="M10.8714 49.7059L27.1985 18.9544C26.091 16.8385 24.6547 14.9119 22.9432 13.2463L4.51416 43.31C6.10087 45.9122 8.27892 48.1035 10.8714 49.7059Z" fill="white"/>
<path opacity="0.21" d="M30.1684 27.9343C28.2978 16.3061 20.1857 7.93683 12.0029 9.24171C11.6083 9.30738 11.2177 9.39537 10.833 9.50526C17.261 11.2344 22.8855 18.5044 24.3832 27.9343C26.1059 38.7462 21.812 48.5681 14.5869 50.9336L14.6319 51.2036C15.4066 51.3766 16.1973 51.4671 16.991 51.4736L20.3271 72.2745C20.3647 72.5046 20.4472 72.7249 20.5699 72.9231C20.6927 73.1212 20.8532 73.2933 21.0424 73.4294C21.2317 73.5654 21.4458 73.6629 21.6727 73.7163C21.8996 73.7696 22.1348 73.7777 22.3648 73.7401C22.5948 73.7026 22.8152 73.6201 23.0134 73.4973C23.2115 73.3746 23.3835 73.214 23.5196 73.0248C23.6557 72.8356 23.7532 72.6214 23.8065 72.3945C23.8598 72.1676 23.868 71.9325 23.8304 71.7025L20.3721 50.9336C27.5715 48.5681 31.8911 38.7462 30.1684 27.9343Z" fill="black"/>
<path d="M22.0754 73.933C21.6113 73.9385 21.1608 73.7764 20.8066 73.4765C20.4524 73.1766 20.2182 72.759 20.147 72.3003L16.8559 51.6279C9.14233 51.5186 2.07154 43.4001 0.380982 32.6718C-0.518936 27.0216 0.188143 21.4549 2.36723 17.0003C4.54632 12.5457 7.97243 9.71743 12.0092 9.08106C20.2627 7.79546 28.497 16.2161 30.3547 27.9086C32.0645 38.6369 27.8606 48.5489 20.5777 51.0494L24.0103 71.6832C24.096 72.1869 23.9783 72.7041 23.683 73.1211C23.3877 73.5381 22.939 73.8209 22.4354 73.9073C22.316 73.923 22.1958 73.9316 22.0754 73.933ZM13.7191 9.26747C13.1635 9.26743 12.6089 9.31258 12.0606 9.40246C8.15885 10.0453 4.82915 12.7707 2.68863 17.116C0.54811 21.4614 -0.158968 27.0087 0.728094 32.6011C2.39294 43.2587 9.39945 51.3194 16.9909 51.3194H17.1323L20.4877 72.2553C20.5213 72.4647 20.5959 72.6655 20.7072 72.8461C20.8184 73.0266 20.9642 73.1835 21.1361 73.3077C21.3081 73.4319 21.5028 73.5209 21.7092 73.5698C21.9156 73.6186 22.1296 73.6263 22.339 73.5923C22.5486 73.5607 22.7498 73.4875 22.9308 73.3771C23.1119 73.2668 23.269 73.1214 23.3932 72.9495C23.5166 72.7763 23.6046 72.5803 23.6521 72.3729C23.6995 72.1655 23.7055 71.9508 23.6696 71.7411L20.192 50.8373L20.3206 50.7923C27.5392 48.4203 31.7046 38.5791 30.014 27.9729C28.3234 17.3667 21.1884 9.26747 13.6869 9.26747H13.7191Z" fill="black"/>
<path d="M25.6307 50.3681C25.9527 50.4403 26.2424 50.6156 26.4559 50.8673C26.6693 51.119 26.7949 51.4335 26.8134 51.763C26.9099 52.5215 26.3828 53.325 27.0898 54.2764C27.2923 54.5495 27.4251 54.8679 27.4766 55.2039C27.5281 55.54 27.4969 55.8835 27.3855 56.2047C27.1236 56.644 26.9081 57.1093 26.7427 57.5932C26.717 57.8454 26.717 58.0995 26.7427 58.3517C26.7427 60.0615 25.3993 61.63 23.7858 62.6713C22.1065 63.6444 20.3771 64.5284 18.6049 65.3196L15.783 71.4969L9.58643 70.0249C9.58643 70.0249 12.3183 58.6667 12.6911 55.8833C12.7532 55.0881 13.014 54.3211 13.4496 53.6528C15.1531 51.2809 24.0494 49.9117 25.6307 50.3681Z" fill="#F7C6AD"/>
<path opacity="0.21" d="M27.0893 54.2763C26.3822 53.3249 26.9093 52.5214 26.8129 51.7629C26.7943 51.4334 26.6688 51.119 26.4554 50.8672C26.2419 50.6155 25.9522 50.4403 25.6302 50.3681C24.6281 50.2319 23.6108 50.2536 22.6154 50.4324C22.8915 50.5337 23.1318 50.7138 23.3066 50.9503C23.4814 51.1868 23.583 51.4693 23.5989 51.7629C23.6953 52.5214 23.1682 53.3249 23.8753 54.2763C24.0778 54.5494 24.2106 54.8678 24.2621 55.2039C24.3136 55.5399 24.2824 55.8835 24.171 56.2047C23.909 56.6439 23.6936 57.1092 23.5282 57.5931C23.5025 57.8453 23.5025 58.0995 23.5282 58.3516C23.5603 60.0615 22.1848 61.6299 20.5713 62.6712C18.892 63.6443 17.1626 64.5283 15.3904 65.3196L12.8706 70.8284L15.7696 71.5161L18.5915 65.3389C20.3728 64.5489 22.1108 63.6649 23.7982 62.6905C25.4116 61.6492 26.7872 60.0808 26.7551 58.3709C26.7294 58.1187 26.7294 57.8646 26.7551 57.6124C26.9205 57.1285 27.1359 56.6632 27.3979 56.224C27.5085 55.8987 27.5383 55.5513 27.4845 55.212C27.4307 54.8726 27.2951 54.5514 27.0893 54.2763Z" fill="black"/>
<path d="M15.8534 71.7026L9.37402 70.1664L9.41259 70.0057C9.41259 69.8964 12.1445 58.6217 12.5109 55.8641C12.5799 55.0434 12.8516 54.2527 13.3015 53.5629C15.0692 51.1074 23.9591 49.7061 25.6754 50.201L25.6304 50.3553L25.6947 50.2074C26.0418 50.292 26.3531 50.4844 26.5841 50.757C26.8151 51.0295 26.9538 51.3682 26.9803 51.7245C27.0006 51.9974 26.9855 52.2718 26.9353 52.5408C26.86 52.8164 26.8469 53.1052 26.897 53.3865C26.947 53.6677 27.0589 53.9344 27.2245 54.1671C27.4467 54.4641 27.5918 54.8116 27.6468 55.1784C27.7017 55.5452 27.6649 55.9199 27.5395 56.269C27.4577 56.4659 27.3588 56.6552 27.2438 56.8347C27.0847 57.0778 26.9653 57.3447 26.8903 57.6253C26.871 57.7962 26.871 57.9687 26.8903 58.1396V58.3903C26.9353 60.6144 24.7883 62.2471 23.8627 62.8449C22.1963 63.8136 20.4798 64.6933 18.7203 65.4803L15.8534 71.7026ZM9.7597 69.9607L15.6734 71.362L18.4632 65.2489H18.5146C20.2729 64.4593 21.9893 63.5797 23.657 62.6135C25.489 61.4307 26.5625 59.8687 26.5367 58.4353V58.2296C26.5175 58.0351 26.5175 57.8391 26.5367 57.6446C26.615 57.3244 26.7476 57.02 26.9289 56.7447C27.0311 56.5767 27.1234 56.4029 27.2053 56.224C27.3099 55.9254 27.3394 55.6056 27.2912 55.2928C27.243 54.98 27.1185 54.6839 26.9289 54.4306C26.738 54.1643 26.608 53.8593 26.548 53.5372C26.488 53.2151 26.4995 52.8837 26.5817 52.5665C26.6268 52.3272 26.6397 52.0829 26.6203 51.8402C26.6107 51.5416 26.5038 51.2544 26.3158 51.0223C26.1278 50.7902 25.869 50.6259 25.579 50.5546C23.9463 50.0789 15.2106 51.493 13.5522 53.7686C13.1366 54.418 12.8871 55.1597 12.8259 55.9284C12.4852 58.506 10.094 68.5465 9.7597 69.9607Z" fill="black"/>
<path d="M17.4797 66.1487L8.03694 67.9742C8.03694 67.9742 5.87071 73.2323 4.02588 78.6318C5.85143 80.3224 8.06266 81.4923 9.95891 83.0993C11.0851 84.0522 12.2868 84.912 13.5522 85.6705C16.0591 76.3435 17.8782 70.1083 18.3989 67.1707C18.438 66.9423 18.3848 66.7077 18.251 66.5184C18.1172 66.3292 17.9138 66.2008 17.6854 66.1615C17.6177 66.1475 17.5485 66.1432 17.4797 66.1487Z" fill="#D35B5B"/>
<path opacity="0.21" d="M17.4796 66.1488L13.8864 66.843C13.9057 66.9492 13.9057 67.0581 13.8864 67.1644C13.4171 69.8063 11.9001 75.1287 9.77246 82.958L9.94602 83.0994C11.0722 84.0522 12.2739 84.9121 13.5393 85.6706C16.0462 76.3436 17.8653 70.1084 18.386 67.1708C18.4251 66.9424 18.3719 66.7077 18.2381 66.5185C18.1043 66.3293 17.9009 66.2009 17.6725 66.1616C17.6092 66.1476 17.5442 66.1433 17.4796 66.1488Z" fill="black"/>
<path d="M18.3086 66.3352C18.2027 66.2155 18.0701 66.1224 17.9217 66.0632C17.7732 66.004 17.6129 65.9805 17.4537 65.9945L7.92098 67.8329V67.9101C7.92098 68.0001 5.75475 73.181 3.9292 78.5163L4.19275 78.7541C5.90259 73.7338 7.90812 68.8036 8.18453 68.1158L17.5244 66.3095C17.6324 66.304 17.7403 66.3225 17.8403 66.3636C17.9403 66.4047 18.03 66.4675 18.1029 66.5473C18.1733 66.6258 18.225 66.7192 18.254 66.8205C18.2829 66.9219 18.2884 67.0285 18.27 67.1323C17.9036 69.2342 16.843 73.0975 15.3839 78.4391C14.7989 80.5668 14.1497 82.9387 13.4555 85.5742L13.7447 85.7477C14.4582 83.093 15.1139 80.6761 15.6731 78.5227C17.1387 73.1746 18.1929 69.305 18.5657 67.1901C18.5928 67.0375 18.5837 66.8805 18.539 66.732C18.4944 66.5835 18.4154 66.4476 18.3086 66.3352Z" fill="black"/>
<path d="M41.4175 76.3179C41.4175 78.587 40.5161 80.7632 38.9116 82.3676C37.3071 83.9721 35.1309 84.8735 32.8618 84.8735C30.5927 84.8735 28.4165 83.9721 26.812 82.3676C25.2075 80.7632 24.3062 78.587 24.3062 76.3179C24.3062 71.5933 29.7378 65.2103 34.4624 65.2103C39.1869 65.2103 41.4175 71.5933 41.4175 76.3179Z" fill="#D35B5B"/>
<path opacity="0.21" d="M32.0517 82.9324C29.7561 82.7246 27.5478 81.9517 25.6237 80.6826L25.4565 80.5734C26.1311 81.7535 27.0778 82.7555 28.2179 83.496C29.3579 84.2364 30.6582 84.6939 32.0107 84.8303C33.3632 84.9668 34.7288 84.7782 35.9937 84.2804C37.2587 83.7826 38.3864 82.9899 39.2831 81.9682C36.9603 82.7655 34.5022 83.0932 32.0517 82.9324Z" fill="black"/>
<path d="M34.8223 84.4751C34.1799 84.6281 33.5222 84.7079 32.8618 84.7129C31.7577 84.7146 30.664 84.4988 29.6433 84.0778C28.6225 83.6568 27.6947 83.0389 26.9128 82.2594C26.1309 81.4799 25.5101 80.5539 25.086 79.5345C24.6619 78.5151 24.4428 77.4221 24.4411 76.3179C24.5768 74.3114 25.2765 72.3841 26.4595 70.7577C26.86 70.1442 27.2104 69.4993 27.5073 68.8293C25.4953 71.0856 24.1133 73.9717 24.1133 76.3179C24.111 77.7842 24.4791 79.2273 25.1836 80.5133C25.888 81.7993 26.9059 82.8864 28.1429 83.6738C29.3798 84.4613 30.7956 84.9234 32.2588 85.0174C33.7221 85.1114 35.1854 84.8342 36.5129 84.2115C35.9729 84.3144 35.4008 84.4044 34.8223 84.4751Z" fill="black"/>
<path d="M44.8755 76.3179C44.8755 78.587 45.7769 80.7632 47.3814 82.3676C48.9859 83.9721 51.162 84.8735 53.4311 84.8735C55.7002 84.8735 57.8764 83.9721 59.4809 82.3676C61.0854 80.7632 61.9868 78.587 61.9868 76.3179C61.9868 71.5933 56.5616 65.2103 51.837 65.2103C47.1124 65.2103 44.8755 71.5933 44.8755 76.3179Z" fill="#D35B5B"/>
<path opacity="0.21" d="M60.399 71.3362C60.8554 74.653 59.9427 78.272 57.4486 80.4832C54.9545 82.6944 51.8498 83.3308 48.668 83.4272C49.956 84.2904 51.4544 84.7874 53.003 84.865C54.5515 84.9426 56.0921 84.5979 57.4599 83.8678C58.8278 83.1376 59.9715 82.0495 60.7689 80.7197C61.5662 79.3899 61.9872 77.8684 61.9868 76.3179C61.9043 74.5467 61.3567 72.8284 60.399 71.3362Z" fill="black"/>
<path d="M58.7215 68.7908C58.9263 69.1732 59.1066 69.5683 59.2615 69.9735C60.8042 71.9983 61.8327 74.3446 61.8327 76.2858C61.8411 78.0987 61.262 79.8656 60.1821 81.3218C59.1022 82.778 57.5796 83.8451 55.8424 84.3634C54.1051 84.8817 52.2467 84.8232 50.5454 84.1967C48.8442 83.5702 47.3917 82.4095 46.4055 80.8882C46.1822 80.733 45.9676 80.5657 45.7627 80.3869C46.6782 82.1004 48.1399 83.459 49.9158 84.2468C51.6917 85.0347 53.6798 85.2067 55.5646 84.7355C57.4494 84.2643 59.1227 83.1769 60.3189 81.6461C61.515 80.1152 62.1655 78.2286 62.1669 76.2858C62.1476 73.9396 60.7528 71.047 58.7215 68.7908Z" fill="black"/>
</svg>
