<svg width="85" height="129" viewBox="0 0 85 129" fill="none" xmlns="http://www.w3.org/2000/svg">
<path d="M62.3198 57.5635C59.0611 60.7669 55.2568 63.363 51.0859 65.2296C46.9068 67.2727 42.4132 68.5965 37.794 69.1453C33.1363 69.6629 28.4402 68.5928 24.4666 66.1083C18.0212 62.0393 15.2437 54.0665 13.6691 46.6009C12.1536 39.3534 11.9 29.9476 13.0264 24.5518C14.1527 19.156 18.4104 10.3576 24.5433 6.20021C29.5558 2.79762 34.4798 -0.374993 43.4138 3.28117C45.183 4.01241 42.4408 0.739548 51.1449 1.01671C55.0622 1.11955 58.91 2.07546 62.42 3.81781C64.2056 4.67736 65.8694 5.76998 67.3676 7.06708C69.3135 8.91555 70.9589 11.0564 72.2445 13.4123C73.656 15.667 74.7494 18.1059 75.4938 20.6598C76.5435 25.0497 76.2601 29.6529 74.68 33.8809C73.143 38.0943 71.1268 42.1169 68.6709 45.8696C66.2 49.7145 65.5042 54.3024 62.3198 57.5635Z" fill="#E0C182" stroke="black" stroke-width="0.5" stroke-miterlimit="10"/>
<path d="M69.833 105.329C67.2265 104.339 64.3664 103.702 61.984 102.416C59.6016 101.131 58.4458 99.1199 57.9799 96.4662C57.6792 94.4317 57.4905 69.6524 57.5141 68.3137C57.5141 66.1849 57.8797 63.5961 57.4492 61.4967C57.2133 60.3645 56.6354 60.683 55.4914 60.683H33.8728C33.3602 60.6122 32.8404 60.6122 32.3278 60.683C31.1012 61.0957 31.514 64.3214 31.514 65.5598C31.514 67.3289 32.2216 95.2927 32.0388 96.4308C31.6635 98.232 30.7698 99.8841 29.4677 101.184C28.6068 101.998 27.1974 102.198 26.0474 102.581C25.5698 102.747 20.3037 104.84 20.1504 104.598C21.6241 106.721 23.3224 108.678 25.216 110.436C29.6152 114.346 43.0899 122.095 48.8395 122.472C54.3297 122.72 52.2008 115.985 57.461 114.346C61.701 113.072 67.9047 109.917 69.833 105.329Z" fill="#F6E1D3" stroke="black" stroke-width="0.5" stroke-miterlimit="10"/>
<path d="M78.8612 39.4478C78.4475 30.3442 75.6228 21.514 70.6761 13.8605C70.4815 13.7131 70.3046 13.5538 70.0864 13.4064C67.4032 11.3719 63.4817 8.78313 59.9317 9.40822C57.2603 9.87408 55.3555 12.2978 52.8198 13.1941C49.6826 14.3087 46.3331 13.9195 43.072 13.1941C39.7107 12.3803 36.3199 10.7056 32.8347 10.6702C29.9569 10.6891 27.192 11.7925 25.0919 13.7602C21.8426 16.6557 19.7374 20.6539 18.1924 24.7405C16.9412 30.2254 16.3062 35.8329 16.2994 41.4587C14.6718 38.9583 12.543 37.5371 10.5675 37.9204C7.31822 38.6045 13.2094 48.9479 13.2094 48.9479C13.2094 48.9479 11.8471 59.8869 15.0728 59.2088C16.0833 58.9571 16.9566 58.3228 17.5083 57.4397C17.6616 58.4422 17.8268 59.4446 18.0096 60.4707C19.5782 69.1984 40.0291 91.4715 45.0357 92.0258C52.7019 92.8396 63.5171 90.3039 66.0528 86.6064C75.2581 73.2437 79.7693 56.791 78.8612 39.4478Z" fill="#F6E1D3" stroke="black" stroke-width="0.5" stroke-miterlimit="10"/>
<path d="M64.5372 48.3817C72.1419 48.3817 78.3068 42.2169 78.3068 34.6121C78.3068 27.0074 72.1419 20.8425 64.5372 20.8425C56.9324 20.8425 50.7676 27.0074 50.7676 34.6121C50.7676 42.2169 56.9324 48.3817 64.5372 48.3817Z" fill="white" stroke="black" stroke-width="0.5" stroke-miterlimit="10"/>
<path d="M37.9649 51.183C45.5697 51.183 51.7345 45.0181 51.7345 37.4134C51.7345 29.8087 45.5697 23.6438 37.9649 23.6438C30.3602 23.6438 24.1953 29.8087 24.1953 37.4134C24.1953 45.0181 30.3602 51.183 37.9649 51.183Z" fill="white" stroke="black" stroke-width="0.5" stroke-miterlimit="10"/>
<path d="M54.5003 53.4769C56.5585 53.0539 58.5002 52.1887 60.1909 50.9411C61.8126 49.6084 62.8387 47.4029 62.2018 45.3507C62.066 44.8783 61.8123 44.4481 61.4647 44.1006C60.8586 43.6105 60.0973 43.3532 59.3182 43.3752C58.5044 43.3752 57.8144 43.5226 57.0006 43.5816C55.2707 43.7363 53.5295 43.4565 51.9351 42.7678L54.5003 53.4769Z" fill="#F6E1D3"/>
<path d="M57.7616 43.4105C58.7821 43.1738 59.8475 43.2166 60.8457 43.5344C61.366 43.719 61.8113 44.0691 62.1136 44.531C62.3856 44.979 62.5604 45.4793 62.6266 45.9993C62.7511 47.0336 62.5556 48.0812 62.0664 49.0009C61.5959 49.9142 60.9171 50.7041 60.085 51.3067C58.3949 52.4111 56.4928 53.1502 54.5005 53.4768C56.4158 53.0228 58.2323 52.2235 59.8609 51.118C60.6583 50.5481 61.2946 49.7815 61.708 48.8928C62.1213 48.0041 62.2976 47.0235 62.2197 46.0465C62.1872 45.5823 62.0305 45.1353 61.766 44.7525C61.5014 44.3697 61.1387 44.065 60.716 43.8705C59.7884 43.5822 58.8039 43.5275 57.85 43.7113C55.8181 44.0066 53.7443 43.6818 51.8999 42.7795C53.7592 43.5223 55.7868 43.7406 57.7616 43.4105Z" fill="black"/>
<path d="M46.9286 9.60283C45.8098 8.37686 44.2758 7.60984 42.6238 7.45041C40.9895 7.17853 39.3305 7.08559 37.6761 7.17325C34.3495 7.38842 31.1152 8.35629 28.2173 10.0038C29.6417 9.11935 31.1659 8.40674 32.758 7.88089C34.3399 7.36014 35.9762 7.02181 37.6349 6.8725C39.3167 6.713 41.0123 6.77844 42.6768 7.0671C43.5184 7.22707 44.3327 7.50709 45.0946 7.89858C45.8606 8.31196 46.502 8.92279 46.9522 9.6677L46.9286 9.60283Z" fill="#90794F"/>
<path d="M45.8378 6.4537C44.5629 5.33029 42.9608 4.64605 41.2676 4.50178C39.589 4.24943 37.8855 4.20586 36.1962 4.37205C34.5047 4.55489 32.8461 4.96755 31.2662 5.59863C29.6713 6.21712 28.1722 7.05897 26.814 8.09898C28.1467 7.0128 29.6256 6.11949 31.2073 5.44531C32.7949 4.769 34.4674 4.31268 36.1785 4.08899C37.8966 3.83924 39.6428 3.85516 41.3561 4.13617C43.1025 4.33064 44.7174 5.15701 45.8968 6.4596L45.8378 6.4537Z" fill="#90794F"/>
<path d="M46.3745 7.37966C46.586 6.62622 47.0171 5.95285 47.6129 5.44543C48.2113 4.93422 48.9165 4.56346 49.6769 4.36037C51.1725 3.95129 52.7421 3.89077 54.2648 4.18346C52.756 4.01272 51.2281 4.16551 49.783 4.63163C49.0818 4.88466 48.4251 5.24688 47.837 5.7049C47.2522 6.16741 46.7617 6.73797 46.3922 7.38555L46.3745 7.37966Z" fill="#90794F"/>
<path d="M45.4482 4.99122C45.6358 4.37365 46.0161 3.83227 46.5333 3.4462C47.0469 3.05491 47.6379 2.77749 48.267 2.63241C49.4843 2.37913 50.7332 2.3135 51.9704 2.4378C50.7508 2.43705 49.536 2.59162 48.3555 2.89777C47.7962 3.09633 47.2665 3.37011 46.781 3.71157C46.2797 4.03938 45.8454 4.45966 45.5013 4.94995L45.4482 4.99122Z" fill="#90794F"/>
<path d="M48.0845 10.499C48.5545 9.76095 49.1538 9.11371 49.8536 8.58837C50.5565 8.06404 51.3389 7.65588 52.1711 7.37948C53.8058 6.773 55.5724 6.61221 57.2898 6.91361C55.5884 6.72966 53.8681 6.97918 52.2891 7.63895C51.5201 7.97868 50.7855 8.3914 50.0954 8.87143C49.392 9.35468 48.7329 9.89934 48.1258 10.499H48.0845Z" fill="#90794F"/>
<path d="M47.5242 120.001L41.7805 112.689L40.0408 109.917L39.056 107.694L38.9204 104.687L39.1799 103.065L39.6811 101.968L40.5598 101.437L41.5269 101.184C41.5269 101.184 42.9009 101.561 42.9481 101.603C42.9953 101.644 44.7939 102.375 44.7939 102.375L45.8141 102.841L46.4745 102.581L47.8308 102.163L49.2225 101.998L50.9032 102.122L51.658 101.697L52.9318 101.107L54.353 100.7L55.6798 100.488L56.4936 100.647L57.4489 101.608L58.2627 103.301L58.6106 106.108C58.6106 106.108 57.8558 110.313 57.8558 110.383C57.8558 110.454 56.9359 112.512 56.9359 112.512L55.1668 115.461L52.1062 118.999L49.8653 121.193L47.5242 120.001Z" fill="#8E3838"/>
<path d="M59.6545 105.382L58.6933 112.996L57.3724 119.14L55.8568 125.544L55.674 126.818L46.2623 127.437L39.3569 116.605L36.8447 112.194L31.8676 102.941L29.5855 98.4888L27.8223 94.3904L27.9815 93.2522L28.3471 91.7898L29.096 91.3357L29.9511 91.5421L30.5585 92.6389L31.5433 94.3904L32.9881 96.0887L34.6039 97.6809L37.6173 99.4913L40.2238 100.771L41.185 101.184L39.7933 101.827L39.0915 103.513L38.8144 105.247L39.0915 107.6L39.7225 109.847L41.3737 112.152L43.1723 113.904L44.9296 115.419L46.6692 116.605L49.4408 120.626L49.8713 121.104L51.835 119.235L54.1703 116.693L56.6293 113.149L57.7498 110.189L58.369 107.877L58.5046 105.406L58.3277 103.631L57.4844 101.526L56.7945 100.93L55.6976 100.565L56.2224 100.152L58.3925 97.0912L59.513 94.414L59.9907 93.093L60.4978 96.3836L62.0487 98.4357L59.6545 105.382Z" fill="white"/>
<path d="M15.5032 45.2563C15.9072 45.7048 16.2758 46.1839 16.606 46.6892C16.7957 46.9479 16.9324 47.2416 17.0083 47.5533C17.0842 47.865 17.0978 48.1886 17.0483 48.5055C16.8444 49.0632 16.6 49.6052 16.317 50.1272C16.1742 50.372 16.1143 50.6563 16.1461 50.9379C16.178 51.2195 16.3 51.4833 16.4939 51.6899C16.7153 51.8976 16.913 52.1289 17.0836 52.3799C17.3375 52.7756 17.463 53.24 17.443 53.7097C17.4229 54.1794 17.2583 54.6315 16.9716 55.0041C17.2644 54.4976 17.351 53.8979 17.2134 53.3293C17.1598 53.0384 17.0474 52.7615 16.8831 52.5155C16.7082 52.2985 16.5105 52.1008 16.2934 51.9258C16.0414 51.6974 15.8872 51.3805 15.863 51.0413C15.8456 50.7194 15.8979 50.3976 16.0163 50.0977C16.2854 49.5734 16.5141 49.0293 16.7003 48.4702C16.752 48.1967 16.7462 47.9155 16.6832 47.6444C16.6203 47.3733 16.5016 47.1183 16.3347 46.8956C15.9986 46.4121 15.6507 45.9403 15.2674 45.4804C14.5479 44.5486 13.8403 43.6464 13.1621 42.6321C13.9523 43.4813 14.6894 44.3776 15.5032 45.2563Z" fill="black"/>
<path d="M45.9973 15.4762C45.884 15.2149 45.674 15.0076 45.4113 14.8977C45.1486 14.7878 44.8535 14.7838 44.5879 14.8865C44.1751 15.0162 43.1196 15.5293 43.5677 16.343C43.721 16.6261 44.1574 16.7971 44.2164 16.9327C44.2754 17.0684 44.3697 17.1745 44.4582 17.2748C44.5252 17.3446 44.6104 17.3944 44.7042 17.4183C44.798 17.4423 44.8966 17.4396 44.9889 17.4104C45.1762 17.3532 45.3518 17.2634 45.5079 17.145C45.7592 17.0122 45.9647 16.8067 46.0976 16.5553C46.1903 16.3231 46.2108 16.0682 46.1565 15.8241C46.1227 15.7002 46.069 15.5827 45.9973 15.4762Z" fill="#C97B57"/>
<path d="M38.3661 15.3877C38.406 15.4501 38.4587 15.5035 38.5207 15.5441C38.5827 15.5848 38.6527 15.6119 38.7259 15.6235C38.8356 15.6302 38.9456 15.6162 39.0502 15.5823C39.3275 15.5396 39.5805 15.3995 39.7638 15.1872C39.8642 14.9667 39.881 14.7173 39.8109 14.4854C39.803 14.3837 39.7639 14.2869 39.6989 14.2082C39.062 13.5655 37.9121 14.6977 38.3661 15.3877Z" fill="#C97B57"/>
<path d="M20.4981 34.223C20.4593 34.6851 20.53 35.1498 20.7045 35.5794C20.9463 35.886 21.7247 35.7504 22.0019 35.5027C22.1289 35.3598 22.209 35.1814 22.2311 34.9915C22.2533 34.8016 22.2165 34.6095 22.1257 34.4412C21.7896 33.7631 20.5512 33.0672 20.4981 34.223Z" fill="#C97B57"/>
<path d="M19.4011 37.7787C19.3356 37.8266 19.2779 37.8842 19.2301 37.9497C18.9725 38.2534 18.8459 38.6468 18.8779 39.0436C18.91 39.4405 19.0981 39.8084 19.4011 40.0668C19.5474 40.2232 19.7477 40.318 19.9613 40.3322C20.0845 40.3252 20.2037 40.2862 20.3072 40.219C20.4106 40.1517 20.4947 40.0586 20.551 39.9488C20.6531 39.7321 20.7132 39.498 20.7279 39.2589C20.7162 38.51 20.38 37.1301 19.4011 37.7787Z" fill="#C97B57"/>
<path d="M76.9332 120.178C73.0883 124.377 60.5453 128.01 60.5453 128.01L55.6743 126.241L56.6119 122.443L57.7029 117.908L58.7113 112.954L59.5251 106.969L60.0499 102.328L60.4568 97.7342L60.5276 96.1774L60.734 95.4697L61.2352 95.7233L63.0043 97.1445L65.4988 98.7662L67.3741 99.9161L68.2586 100.724L68.5358 101.278L69.3496 101.343L71.2484 102.01L73.507 102.764L76.1842 103.496L77.6172 103.861L79.4453 104.091L82.6061 104.203L84.4106 104.091L85.0003 104.138C85.0003 104.138 84.2396 112.223 76.9332 120.178Z" fill="#313131"/>
<path d="M18.9177 119.707C13.3273 116.104 0 101.019 0 101.019L7.74282 101.449L12.6197 101.231L17.013 100.777L20.2622 100.624L22.0314 100.812L23.1459 99.3029L25.7406 96.1951L27.038 94.255L27.3033 93.7419L27.5451 93.8658L27.8576 94.5616L29.5324 98.2532L32.5753 104.433L35.8246 110.254L39.0738 116.05L43.1369 122.632L46.2269 127.249C46.2269 127.249 36.4732 130.887 18.9177 119.707Z" fill="#313131"/>
<path d="M0.0768481 101.314C2.81897 101.461 5.61417 101.608 8.42706 101.608C10.1962 101.608 11.9653 101.55 13.6931 101.396L15.4976 101.207C17.5712 100.907 19.6721 100.842 21.7603 101.013C21.7085 101.206 21.671 101.404 21.6482 101.603L21.2237 105.288C21.2028 105.447 21.2274 105.609 21.2944 105.754C21.3864 105.87 21.5121 105.955 21.6541 105.996C23.4421 106.636 25.2677 107.166 27.1207 107.582C26.6489 108.573 26.1713 109.581 25.67 110.619C25.4972 110.862 25.4166 111.159 25.4425 111.456C25.4685 111.753 25.5993 112.031 25.8116 112.241C29.1552 116.746 34.3918 122.154 38.6022 126.494L39.416 127.396L39.705 127.113L38.8322 126.205C34.6453 121.883 29.397 116.504 26.0887 111.964C25.9222 111.819 25.8182 111.615 25.7984 111.395C25.7787 111.176 25.8446 110.957 25.9826 110.784C26.8671 109.015 27.7045 107.246 28.418 105.725C29.1316 104.203 29.851 102.611 30.6589 101.007C35.1461 110.132 40.2695 118.931 45.9912 127.337L46.3274 127.107C43.0761 122.311 40.0116 117.397 37.1339 112.365C37.6233 111.315 38.3428 109.929 39.0563 108.543C39.683 110.292 40.6901 111.879 42.0048 113.19C43.4075 114.562 44.9604 115.77 46.634 116.793C47.5189 118.361 48.5265 119.855 49.6474 121.263L49.7536 121.399L49.9187 121.334C51.2997 120.066 52.5959 118.709 53.7989 117.271C54.7739 116.175 55.6446 114.991 56.3995 113.733C57.626 111.821 58.4172 109.663 58.7171 107.411V107.099L58.9529 106.845L59.0178 106.78L59.3422 106.397C58.6045 113.137 57.2905 119.801 55.4147 126.317L55.8157 126.423C57.9624 118.995 59.396 111.379 60.097 103.678C61.3295 104.858 62.3968 106.037 63.6352 107.317C64.8736 108.596 66.1768 109.959 67.5508 111.333C67.6471 111.391 67.7309 111.468 67.7973 111.559C67.8637 111.651 67.9114 111.754 67.9377 111.864C67.964 111.973 67.9684 112.087 67.9505 112.198C67.9327 112.31 67.8931 112.416 67.8339 112.512C66.6504 115.993 65.1068 119.341 63.2283 122.502C62.2553 124.271 61.2528 126.111 60.3211 128.086L60.6926 128.263C61.6184 126.299 62.6209 124.471 63.588 122.696C65.4697 119.524 67.0152 116.164 68.1995 112.671C68.311 112.393 68.3416 112.088 68.288 111.793C68.1989 111.523 68.0378 111.282 67.8221 111.097C67.0083 110.283 66.1945 109.511 65.4633 108.697C67.0806 107.712 68.6346 106.627 70.1161 105.447C70.2351 105.358 70.3158 105.227 70.342 105.08C70.3683 104.934 70.3381 104.783 70.2576 104.657L68.7244 101.55C69.9356 101.856 71.1286 102.23 72.298 102.67C73.442 103.091 74.6037 103.456 75.7831 103.767C78.0224 104.261 80.3136 104.481 82.606 104.421H84.8292V104.014C81.8367 104.187 78.8344 103.977 75.8952 103.389C74.7428 103.087 73.607 102.725 72.4926 102.304C71.2053 101.814 69.8874 101.408 68.5474 101.09C68.4609 100.915 68.3582 100.749 68.2408 100.594C68.0458 100.38 67.8238 100.191 67.5803 100.034C67.0732 99.7096 66.5483 99.3912 66.0235 99.0787C64.2942 98.1122 62.6611 96.9827 61.1466 95.7055C61.0506 95.6113 60.9301 95.546 60.7987 95.5168C60.6916 95.5052 60.5841 95.5347 60.498 95.5994C60.3927 94.9592 60.3257 94.3133 60.2975 93.6652C60.2326 92.8042 60.2208 92.6686 60.0085 92.6686C59.9378 92.6686 59.8139 92.6686 59.7491 92.8809L59.6429 93.1875C59.0178 95.0628 57.803 98.7425 55.4442 100.5H55.344C55.2142 100.5 53.9405 100.742 53.6633 100.824C52.7026 101.157 51.7919 101.619 50.9566 102.198C49.9815 101.812 48.9079 101.752 47.896 102.027C47.0822 102.245 46.4276 102.617 45.6846 102.841C44.864 102.323 43.9926 101.89 43.084 101.55L42.6004 101.402L41.9636 101.261C39.0976 100.217 36.2021 98.9489 33.9377 96.8849C32.4519 95.5224 31.2721 93.8602 30.4761 92.0081C30.3986 91.7735 30.256 91.5658 30.0649 91.4092C29.8738 91.2526 29.6422 91.1535 29.397 91.1235C29.1946 91.103 28.9903 91.1326 28.8021 91.2097C28.6138 91.2868 28.4475 91.4091 28.3178 91.5658C28.0168 92.2403 27.8276 92.9593 27.7576 93.6947C27.7064 93.6377 27.6414 93.5951 27.5689 93.5708C27.5138 93.5476 27.4547 93.5357 27.3949 93.5357C27.3352 93.5357 27.276 93.5476 27.2209 93.5708C27.0979 93.6359 27.0018 93.7424 26.9497 93.8716C25.925 95.5709 24.7402 97.1684 23.4115 98.6423L22.232 100.058C22.0935 100.227 21.9711 100.408 21.8664 100.6C19.7051 100.394 17.5266 100.454 15.3797 100.777C14.79 100.842 14.2003 100.907 13.6106 100.954C9.09349 101.253 4.56077 101.227 0.0473633 100.877L0.0768481 101.314ZM60.1324 103.189C60.327 101.243 60.5216 99.1258 60.7221 96.7375V96.3837C60.6871 96.2704 60.6871 96.1491 60.7221 96.0358C60.7217 96.014 60.7258 95.9923 60.7339 95.9721C60.742 95.9518 60.754 95.9334 60.7692 95.9178C60.8255 95.9265 60.8773 95.9535 60.9167 95.9945C62.4298 97.2809 64.0607 98.4221 65.7876 99.403C66.3066 99.7214 66.8314 100.04 67.3385 100.364C67.5758 100.489 67.7894 100.655 67.9695 100.854C68.1069 101.035 68.2199 101.233 68.3057 101.443L69.9333 104.781C69.9617 104.841 69.9816 104.904 69.9922 104.97C69.9922 104.97 69.9156 105.1 69.8684 105.1C68.3691 106.285 66.7932 107.371 65.1507 108.349L63.8829 107.046C62.674 105.748 61.4474 104.445 60.0734 103.154L60.1324 103.189ZM59.4719 105.63C59.2696 105.915 59.0469 106.185 58.8055 106.438V106.379C58.8237 105.587 58.7505 104.796 58.5873 104.02C58.4214 102.864 57.8783 101.794 57.0423 100.977C56.7658 100.747 56.4383 100.585 56.087 100.506C58.1627 98.7366 59.3363 95.6289 59.9672 93.6711C60.0436 94.6837 60.1735 95.6915 60.3564 96.6904C60.0321 100.128 59.7667 103.006 59.4719 105.63ZM42.3174 112.943C40.6676 111.275 39.565 109.144 39.1566 106.833C38.9735 105.684 39.0562 104.508 39.3983 103.395C39.5455 102.845 39.8248 102.339 40.2121 101.921C40.6596 101.607 41.2117 101.48 41.7513 101.567C42.918 101.711 44.0423 102.094 45.0536 102.694C46.098 103.284 47.2138 103.738 48.3736 104.044C47.5465 103.771 46.7547 103.401 46.0148 102.941C46.7048 102.753 47.3535 102.458 48.0198 102.316C48.7719 102.15 49.5535 102.176 50.2931 102.39C51.0328 102.604 51.707 103.001 52.2539 103.543C53.3285 104.701 54.0719 106.127 54.4063 107.671C54.8123 109.218 54.9322 110.827 54.7601 112.418C55.1198 110.812 55.1198 109.147 54.7601 107.541C54.4715 105.901 53.7159 104.38 52.5841 103.159C52.1116 102.723 51.5616 102.379 50.9625 102.145C51.8461 101.621 52.799 101.224 53.793 100.966C54.3242 100.82 54.8702 100.735 55.4206 100.712C55.9431 100.711 56.4482 100.899 56.8418 101.243C57.5807 102.032 58.0549 103.032 58.1981 104.103C58.4042 105.174 58.44 106.27 58.3043 107.352C58.0378 109.547 57.3016 111.659 56.146 113.544C54.4334 116.331 52.3079 118.842 49.842 120.992C48.9692 119.889 46.9878 116.705 46.7756 116.593C45.1779 115.519 43.687 114.295 42.3233 112.937L42.3174 112.943ZM36.898 111.964C33.6428 106.275 30.6629 100.447 27.9581 94.479L28.0288 94.1074C28.1336 93.3543 28.3134 92.6135 28.5655 91.8961C28.6554 91.7882 28.7714 91.705 28.9025 91.6544C29.0335 91.6039 29.1753 91.5876 29.3144 91.6071C29.4809 91.6244 29.6389 91.6891 29.7696 91.7937C29.9003 91.8982 29.9981 92.0382 30.0515 92.1968C30.8737 94.088 32.0783 95.7886 33.5898 97.1916C35.6951 98.9681 38.1073 100.345 40.7075 101.255C40.3899 101.306 40.0923 101.442 39.8465 101.65C39.4165 102.113 39.1013 102.67 38.9266 103.277C38.5506 104.456 38.4597 105.707 38.6612 106.928C38.7261 107.354 38.8207 107.776 38.9443 108.19C38.213 109.434 37.5231 110.714 36.9157 112.029L36.898 111.964ZM22.0846 101.715C22.0947 101.489 22.1385 101.267 22.2144 101.054C22.3212 100.81 22.4666 100.585 22.6448 100.388C22.9869 99.916 23.4056 99.4443 23.8243 98.9843C25.1494 97.4865 26.3339 95.8697 27.3625 94.1546L27.4509 94.0367C27.4735 94.04 27.4949 94.0486 27.5134 94.062C27.5319 94.0753 27.5469 94.093 27.5571 94.1133C27.6204 94.2204 27.653 94.3428 27.6514 94.4672V94.5851C28.5714 96.6019 29.5188 98.6049 30.4938 100.594C29.6859 102.363 28.8721 103.991 28.135 105.618L27.3212 107.24C25.4539 106.83 23.6143 106.302 21.8134 105.66C21.7584 105.637 21.7069 105.608 21.66 105.571V105.383L22.0846 101.715Z" fill="black"/>
<path d="M55.8098 57.54C57.3072 59.2138 58.4267 61.1904 59.0922 63.3354C59.7576 65.4804 59.9535 67.7435 59.6664 69.971C59.5302 71.5392 58.8887 73.0208 57.8383 74.1933C57.4974 74.5107 57.0537 74.6949 56.5882 74.7122C56.1443 74.7116 55.7101 74.5826 55.338 74.3407C54.6881 73.8951 54.1162 73.3452 53.6455 72.7131C52.7051 71.5371 51.9531 70.2221 51.4165 68.8152C50.4295 66.0163 49.8149 63.0998 49.5884 60.1406C49.9186 61.5677 50.1781 63.0125 50.5909 64.4219C50.9447 65.8333 51.4121 67.2138 51.9885 68.5498C52.5656 69.8674 53.3238 71.098 54.2412 72.206C54.6699 72.7459 55.1767 73.2189 55.7449 73.6095C55.9686 73.789 56.2501 73.8809 56.5367 73.8678C56.8232 73.8548 57.0952 73.7378 57.3017 73.5387C57.7766 73.0579 58.1426 72.4808 58.375 71.8463C58.6187 71.1909 58.7888 70.5106 58.8821 69.8177C59.1002 68.3985 59.124 66.9562 58.9529 65.5305C58.7836 64.0926 58.4268 62.683 57.8914 61.3377C57.3557 59.9756 56.6482 58.6875 55.7862 57.5046L55.8098 57.54Z" fill="black"/>
<path d="M43.2257 19.0026C41.4356 19.5165 39.6133 19.9105 37.7709 20.182C36.0018 20.4887 34.1796 20.4238 32.3869 20.6833C30.6283 20.8746 28.9097 21.3361 27.2918 22.0514C25.6553 22.8013 24.3194 24.0811 23.5 25.684L23.2642 25.6014C23.8247 23.7249 25.027 22.1052 26.6609 21.0253C28.2843 19.9639 30.0803 19.1936 31.9682 18.749C33.7808 18.1489 35.6685 17.8055 37.5763 17.7289C39.5207 17.6945 41.4527 18.0453 43.261 18.7608L43.2257 19.0026Z" fill="black"/>
<path d="M54.1646 17.7938C54.8191 17.21 55.5514 16.7198 56.3406 16.3372C57.1194 15.9433 57.9352 15.6273 58.776 15.3937C60.4564 15.0032 62.1871 14.8758 63.9065 15.0162C65.6707 14.9862 67.4219 15.3236 69.0487 16.0069C70.6677 16.7191 71.9906 17.9691 72.7933 19.5452L72.5869 19.6749C71.5809 18.4311 70.1953 17.5508 68.6418 17.1687C67.1161 16.8311 65.5424 16.7692 63.9949 16.9859C62.3673 17.1569 60.8872 17.664 59.2773 17.7938C58.4694 17.9032 57.6566 17.9721 56.8418 18.0001C55.9917 18.0591 55.1385 18.0591 54.2884 18.0001L54.1646 17.7938Z" fill="black"/>
<path d="M50.5674 120.479L50.8799 120.267L51.0568 126.276L50.7502 126.182L50.5674 120.479Z" fill="black"/>
<path d="M37.7233 42.0483C40.0128 42.0483 41.8689 40.1923 41.8689 37.9027C41.8689 35.6131 40.0128 33.7571 37.7233 33.7571C35.4337 33.7571 33.5776 35.6131 33.5776 37.9027C33.5776 40.1923 35.4337 42.0483 37.7233 42.0483Z" fill="black"/>
<path d="M63.8824 39.6894C66.172 39.6894 68.0281 37.8334 68.0281 35.5438C68.0281 33.2543 66.172 31.3982 63.8824 31.3982C61.5929 31.3982 59.7368 33.2543 59.7368 35.5438C59.7368 37.8334 61.5929 39.6894 63.8824 39.6894Z" fill="black"/>
<path d="M33.4183 59.822C32.2094 58.3102 30.8478 56.9269 29.3553 55.6941C27.8458 54.464 25.9909 53.7344 24.0479 53.6065C23.4128 53.5384 22.7765 53.725 22.2788 54.1255C21.9671 54.4659 21.762 54.8903 21.6891 55.3462C21.3353 57.245 22.1609 59.1439 22.9806 60.8835C24.9853 65.3983 27.4663 69.6861 30.3814 73.6742C33.3044 77.6912 37.2367 80.8647 41.7804 82.8736C42.8471 83.356 44.0064 83.5995 45.1771 83.5871C45.7651 83.5822 46.3426 83.4308 46.8574 83.1466C47.3722 82.8625 47.8081 82.4545 48.1256 81.9595C48.35 81.4876 48.4718 80.9734 48.483 80.4509C48.4942 79.9285 48.3945 79.4096 48.1904 78.9284C47.777 77.9709 47.2289 77.0774 46.5629 76.2748C42.3288 70.7257 38.3424 64.752 33.4183 59.822Z" fill="#E2A58E"/>
<path d="M76.2725 51.9966C76.0384 51.5994 75.7085 51.2671 75.3129 51.0302C74.9174 50.7933 74.4688 50.6592 74.008 50.6403C73.5557 50.6327 73.1077 50.7292 72.6987 50.9225C72.2896 51.1158 71.9306 51.4006 71.6492 51.7549C71.2592 52.2976 70.9824 52.9133 70.8354 53.5652C70.0216 56.8145 70.7234 60.1817 70.1514 63.4369C69.5794 66.6921 67.7277 69.6819 66.4775 72.766C66.2391 73.2021 66.0921 73.6822 66.0454 74.177C65.9988 74.6717 66.0535 75.1709 66.2063 75.6438C66.3245 75.9056 66.5341 76.1153 66.796 76.2335C66.9883 76.2839 67.1889 76.2948 67.3855 76.2654C67.5822 76.236 67.7708 76.167 67.94 76.0625C70.7175 74.7415 72.4748 71.9345 73.6837 69.0745C74.6793 66.7262 75.4073 64.2733 75.8538 61.7621C76.2017 59.7925 75.9659 57.8878 76.3905 55.9359C76.6912 54.7506 76.9566 53.1819 76.2725 51.9966Z" fill="#DCB997"/>
</svg>
