<svg width="85" height="85" viewBox="0 0 85 85" fill="none" xmlns="http://www.w3.org/2000/svg">
<path d="M22.0132 52.6026L32.2304 57.0863C34.9683 55.6172 38.6364 53.9954 41.7368 52.6026C38.5744 54.2053 35.3833 55.8509 32.1397 57.2437C32.1397 57.2437 21.9035 52.6121 22.0037 52.5835L22.0132 52.6026Z" fill="black"/>
<path d="M65.2337 52.6219L54.0149 57.263C50.447 55.832 46.9173 54.2293 43.4209 52.6219C46.86 54.0147 50.8286 55.6221 53.9147 57.1008C53.9147 57.1008 65.2576 52.5551 65.2099 52.6409L65.2337 52.6219Z" fill="black"/>
<path d="M42.142 52.5358C42.1086 52.76 41.5457 53.0128 41.3979 52.8459C40.4916 51.8251 42.4711 52.0636 41.727 47.4034C41.727 47.2651 42.204 47.2794 42.2851 47.4034C42.7144 48.1761 42.5569 49.9458 42.142 52.5358Z" fill="black"/>
<path d="M42.896 52.5358C42.9342 52.76 43.497 53.0128 43.6401 52.8459C44.5464 51.8251 42.5669 52.0636 43.311 47.4034C43.311 47.2651 42.834 47.2794 42.7529 47.4034C42.3236 48.1761 42.481 49.9458 42.896 52.5358Z" fill="black"/>
<path d="M65.2098 64.7899C21.8035 39.8766 62.6865 11.7723 61.9806 34.4437C74.0055 19.2515 84.9668 32.2734 82.1383 41.7321C79.4385 50.7664 65.8394 58.0023 68.377 66.4546L65.2098 64.7899Z" fill="#FF0000" stroke="black" stroke-width="0.25" stroke-miterlimit="10"/>
<path d="M52.4929 44.4128C55.6436 44.4128 58.1977 41.8587 58.1977 38.708C58.1977 35.5573 55.6436 33.0032 52.4929 33.0032C49.3422 33.0032 46.7881 35.5573 46.7881 38.708C46.7881 41.8587 49.3422 44.4128 52.4929 44.4128Z" fill="white" stroke="black" stroke-width="0.25" stroke-miterlimit="10"/>
<path d="M63.8977 46.2827C67.0484 46.2827 69.6025 43.7286 69.6025 40.5779C69.6025 37.4272 67.0484 34.873 63.8977 34.873C60.747 34.873 58.1929 37.4272 58.1929 40.5779C58.1929 43.7286 60.747 46.2827 63.8977 46.2827Z" fill="white" stroke="black" stroke-width="0.25" stroke-miterlimit="10"/>
<path d="M66.1205 47.141C65.5147 49.2874 63.2109 51.992 60.8497 51.6199C60.2726 49.712 59.1373 48.1093 57.9258 46.5781C59.3854 47.5846 62.4095 49.4782 66.1205 47.141Z" fill="black" stroke="black" stroke-width="0.25" stroke-miterlimit="10"/>
<path d="M52.4932 40.5824C53.5285 40.5824 54.3678 39.7431 54.3678 38.7078C54.3678 37.6725 53.5285 36.8333 52.4932 36.8333C51.4579 36.8333 50.6187 37.6725 50.6187 38.7078C50.6187 39.7431 51.4579 40.5824 52.4932 40.5824Z" fill="black"/>
<path d="M63.898 42.4523C64.9333 42.4523 65.7726 41.613 65.7726 40.5777C65.7726 39.5424 64.9333 38.7031 63.898 38.7031C62.8627 38.7031 62.0234 39.5424 62.0234 40.5777C62.0234 41.613 62.8627 42.4523 63.898 42.4523Z" fill="black"/>
<path d="M18.7746 28.8532C18.6506 25.104 20.8257 25.1756 19.0894 24.0833C20.4059 23.2581 20.4012 21.0687 18.9988 20.3246C19.1665 20.1527 19.2987 19.9495 19.3878 19.7265C19.4769 19.5035 19.5212 19.2651 19.5181 19.025C19.515 18.7849 19.4646 18.5477 19.3698 18.3271C19.2749 18.1065 19.1375 17.9067 18.9654 17.7393L18.8652 17.6487C21.4935 17.143 22.2042 14.0808 19.6094 12.8787C20.1881 12.5453 20.6107 11.9957 20.7842 11.3508C20.9578 10.7059 20.868 10.0184 20.5347 9.43962C20.2684 8.9824 19.8667 8.61908 19.3852 8.39978C19.8622 6.63967 18.8414 3.18148 16.7474 3.28165C15.9985 0.953927 10.7993 -1.19254 11.448 2.68064C7.43652 1.15903 7.92305 7.88939 10.8995 8.84815C8.33803 9.91661 9.33018 12.7547 11.3765 13.7898C8.48113 14.6436 12.5308 18.1829 14.1764 18.1924C12.9505 19.2657 14.5819 20.73 15.8363 20.6919C15.7929 21.1868 15.934 21.6803 16.2325 22.0774C16.531 22.4746 16.9659 22.7473 17.4534 22.8431C15.4786 24.9609 18.6363 24.7463 18.7746 28.8532Z" fill="#76A931" stroke="black" stroke-width="0.25" stroke-miterlimit="10"/>
<path d="M18.8554 27.6321C17.4578 25.0229 19.0224 24.2931 17.4244 24.1453C17.6481 23.7391 17.703 23.2612 17.5771 22.8149C17.4513 22.3686 17.1548 21.9898 16.7519 21.7603C16.5358 21.6397 16.297 21.565 16.0507 21.5409C16.1105 21.3624 16.1345 21.1738 16.1212 20.9861C16.108 20.7983 16.0579 20.6149 15.9737 20.4466C15.8895 20.2782 15.7729 20.1281 15.6306 20.0048C15.4883 19.8816 15.3231 19.7876 15.1444 19.7283L15.0204 19.6949C16.6994 18.4214 16.127 16.0126 13.8804 16.0603C14.0834 15.7556 14.1984 15.4009 14.2128 15.0351C14.2272 14.6693 14.1403 14.3066 13.9617 13.9871C13.7832 13.6675 13.5199 13.4033 13.2009 13.2238C12.8819 13.0442 12.5195 12.9562 12.1537 12.9694C11.877 11.5384 9.94521 9.473 8.50469 10.2791C7.15957 8.89584 2.74263 9.20112 4.54566 11.7101C1.20671 12.0392 3.87787 16.6279 6.31053 16.2654C4.87955 17.9158 6.5681 19.5757 8.3759 19.6043C6.62534 21.2213 10.7227 22.3041 11.8913 21.7412C11.3857 22.8956 13.0457 23.3726 13.9233 22.8956C14.0671 23.2623 14.3417 23.5628 14.6941 23.739C15.0464 23.9152 15.4516 23.9546 15.8313 23.8495C15.1683 26.0342 17.3243 24.8035 18.8554 27.6321Z" fill="#76A931" stroke="black" stroke-width="0.25" stroke-miterlimit="10"/>
<path d="M22.2711 70.3517C22.2125 70.8753 22.3577 71.4014 22.6766 71.8208C23.9501 73.7526 24.4319 75.341 22.1137 76.7481L22.0469 76.667C22.4616 76.2621 22.7866 75.7746 23.0009 75.2361C23.435 73.9625 22.19 73.4092 21.7273 72.274C21.465 71.6443 21.5079 70.6617 22.1662 70.2944L22.252 70.3564L22.2711 70.3517Z" fill="#AA1531" stroke="black" stroke-width="0.25" stroke-miterlimit="10"/>
<path d="M19.557 73.0609C19.1611 73.3614 18.7175 73.5808 18.5505 74.0149C18.4359 74.2579 18.2934 74.4868 18.126 74.697C17.686 75.3062 17.0741 75.7701 16.3688 76.0293C15.6634 76.2885 14.8967 76.3312 14.167 76.1518V76.0469C14.6955 76.0469 15.2172 75.9279 15.6934 75.6987C16.377 75.3964 16.9254 74.853 17.2341 74.1723C17.3331 73.9057 17.4679 73.6538 17.6347 73.4234C17.8529 73.1582 18.1498 72.9691 18.4824 72.8834C18.815 72.7976 19.1662 72.8197 19.4855 72.9464V73.0466L19.557 73.0609Z" fill="#AA1531" stroke="black" stroke-width="0.25" stroke-miterlimit="10"/>
<path d="M20.3676 71.3198C20.0854 71.6641 19.7124 71.9225 19.2909 72.0658C18.8694 72.2091 18.4163 72.2316 17.9827 72.1307C15.5977 71.6203 15.197 67.709 12.4543 68.3148L12.4019 68.2098C14.8774 67.0698 16.2703 70.5137 18.2498 71.1338C18.9114 71.3724 19.6296 71.4056 20.3104 71.2292L20.3676 71.315V71.3198Z" fill="#AA1531" stroke="black" stroke-width="0.25" stroke-miterlimit="10"/>
<path d="M13.0125 71.2055C12.2589 72.3407 10.661 72.5363 9.49709 72.0211C8.93424 71.8351 8.48587 71.6968 8.06612 71.9448C7.84369 72.0808 7.67486 72.2893 7.588 72.5351C7.50114 72.7809 7.50154 73.0491 7.58912 73.2947L7.4985 73.3424C7.32525 73.0572 7.25712 72.7204 7.3059 72.3903C7.35468 72.0602 7.51729 71.7575 7.76561 71.5346C8.2426 71.0576 9.10119 71.0958 9.70697 71.2198C10.7971 71.2675 11.8892 71.2341 12.9744 71.1196L13.0268 71.2055H13.0125Z" fill="#AA1531" stroke="black" stroke-width="0.25" stroke-miterlimit="10"/>
<path d="M22.1657 26.4969C22.7142 29.168 16.1746 30.3128 15.7787 27.6178C15.2302 24.9466 21.7698 23.7971 22.1657 26.4969Z" fill="#76A931" stroke="black" stroke-width="0.25" stroke-miterlimit="10"/>
<path d="M23.8831 28.4287C24.0549 32.0013 15.3593 32.1778 15.3879 28.6004C15.2114 25.0325 23.9118 24.856 23.8831 28.4287Z" fill="#76A931" stroke="black" stroke-width="0.25" stroke-miterlimit="10"/>
<path d="M27.155 65.3815C27.632 64.9522 28.6671 65.2574 28.9151 64.6469C29.1059 64.1699 28.524 63.6023 28.7386 63.1253C30.5703 61.8088 28.6241 61.6084 29.85 60.7737C44.3076 50.9238 47.556 21.813 20.811 27.5464C1.86965 31.6056 4.51218 42.8722 9.00545 48.7535C12.001 52.6839 16.3797 54.63 20.2625 57.4681C21.102 57.9451 20.8539 58.8371 19.9476 58.9993C18.9937 59.0613 18.2973 60.0296 19.2179 60.6926C19.6376 61.1696 21.2117 60.6401 21.1258 61.4415C20.9923 61.6561 20.5582 61.5941 20.5248 61.8469C20.7919 62.8009 24.6889 63.2779 21.7841 64.0936C21.3357 64.146 20.7585 64.5229 20.997 64.9045C21.1687 65.1907 21.5933 65.1048 21.9129 65.1954C22.7333 65.4721 22.5616 66.5453 21.8413 66.8363C21.1974 67.361 21.5122 67.8713 21.4454 68.5248C20.3102 73.6668 16.499 70.3851 13.0408 70.2134C8.62862 69.9987 13.3985 76.109 7.41706 75.8705C8.37105 77.3015 10.756 75.9898 11.5192 74.8688C12.1774 73.9148 12.8691 71.8495 14.1951 72.4218C19.0557 74.5063 21.9033 74.4729 23.5155 69.4883C24.1643 68.1432 25.6716 67.8475 26.7925 67.1606C27.1455 66.655 26.6685 65.8251 27.155 65.3815Z" fill="#AA1531" stroke="black" stroke-width="0.25" stroke-miterlimit="10"/>
<path d="M22.6335 48.3718C25.7842 48.3718 28.3384 45.8177 28.3384 42.667C28.3384 39.5163 25.7842 36.9622 22.6335 36.9622C19.4828 36.9622 16.9287 39.5163 16.9287 42.667C16.9287 45.8177 19.4828 48.3718 22.6335 48.3718Z" fill="white" stroke="black" stroke-width="0.25" stroke-miterlimit="10"/>
<path d="M34.0095 44.1885C37.1602 44.1885 39.7143 41.6343 39.7143 38.4836C39.7143 35.3329 37.1602 32.7788 34.0095 32.7788C30.8588 32.7788 28.3047 35.3329 28.3047 38.4836C28.3047 41.6343 30.8588 44.1885 34.0095 44.1885Z" fill="white" stroke="black" stroke-width="0.25" stroke-miterlimit="10"/>
<path d="M22.6334 44.5416C23.6687 44.5416 24.5079 43.7024 24.5079 42.6671C24.5079 41.6318 23.6687 40.7925 22.6334 40.7925C21.5981 40.7925 20.7588 41.6318 20.7588 42.6671C20.7588 43.7024 21.5981 44.5416 22.6334 44.5416Z" fill="black"/>
<path d="M34.0098 40.3583C35.0451 40.3583 35.8844 39.519 35.8844 38.4837C35.8844 37.4484 35.0451 36.6091 34.0098 36.6091C32.9745 36.6091 32.1353 37.4484 32.1353 38.4837C32.1353 39.519 32.9745 40.3583 34.0098 40.3583Z" fill="black"/>
<path d="M28.8484 45.9296C28.9343 47.3605 29.769 49.7121 31.5386 49.1016C32.9696 48.2382 32.6262 46.0154 32.4163 44.5415C33.0316 46.0822 33.48 48.5292 31.7437 49.5356C29.6354 50.3608 28.5193 47.5895 28.8484 45.9296Z" fill="black"/>
<path d="M21.9414 58.8894C23.6597 60.1457 25.6953 60.8959 27.8179 61.0549C25.664 61.0544 23.5807 60.2866 21.9414 58.8894Z" fill="black"/>
<path d="M21.5933 60.4253C23.2914 61.3793 25.3281 61.3554 27.2265 61.5558C25.3186 61.5319 23.215 61.5558 21.5933 60.4253Z" fill="black"/>
<path d="M23.1533 61.8135C24.3744 62.8152 25.9628 63.0107 27.4701 63.2445C25.958 63.1824 24.2647 62.963 23.1533 61.8135Z" fill="black"/>
<path d="M23.4727 63.917C24.1929 64.6802 25.2948 64.9091 26.2631 65.2144C25.2805 65.0809 24.0641 64.7899 23.4727 63.917Z" fill="black"/>
<path d="M23.4824 66.0156C24.0834 66.2923 24.6749 66.5308 25.2998 66.7645C24.6356 66.691 24.0056 66.4314 23.4824 66.0156Z" fill="black"/>
<path d="M45.2378 53.571C45.2044 53.7904 44.6416 54.048 44.4937 53.881C43.5922 52.8603 45.567 53.094 44.8228 48.4385C44.8228 48.3002 45.2998 48.3145 45.3857 48.4385C45.7911 49.2256 45.6528 50.9761 45.2378 53.571Z" fill="black"/>
<path d="M45.9917 53.571C46.0299 53.7904 46.5927 54.048 46.7406 53.881C47.6421 52.8603 45.6626 53.094 46.4115 48.4385C46.4115 48.3002 45.9345 48.3145 45.8486 48.4385C45.4193 49.2256 45.5767 50.9761 45.9917 53.571Z" fill="black"/>
<path d="M24.875 53.5567L35.0922 58.0404C37.8301 56.5713 41.4982 54.9495 44.5986 53.5567C41.4362 55.1594 38.2451 56.805 35.0016 58.1978C35.0016 58.1978 24.7653 53.5662 24.8655 53.5376L24.875 53.5567Z" fill="black"/>
<path d="M68.0956 53.5757L56.8767 58.2168C53.3088 56.7859 49.7791 55.1832 46.2827 53.5757C49.7218 54.9685 53.6904 56.576 56.7765 58.0547C56.7765 58.0547 68.1194 53.5089 68.0717 53.5948L68.0956 53.5757Z" fill="black"/>
</svg>
