<svg width="97" height="84" viewBox="0 0 97 84" fill="none" xmlns="http://www.w3.org/2000/svg">
<path opacity="0.1" d="M49.8149 70.2393C72.1196 70.2393 90.2011 54.5157 90.2011 35.1197C90.2011 15.7236 72.1196 0 49.8149 0C27.5102 0 9.42871 15.7236 9.42871 35.1197C9.42871 54.5157 27.5102 70.2393 49.8149 70.2393Z" fill="#FFE578"/>
<path opacity="0.15" d="M49.8142 70.2345C71.6118 70.2345 89.2822 55.1627 89.2822 36.5706C89.2822 17.9786 71.6118 2.90674 49.8142 2.90674C28.0166 2.90674 10.3462 17.9786 10.3462 36.5706C10.3462 55.1627 28.0166 70.2345 49.8142 70.2345Z" fill="#FFE578"/>
<path opacity="0.19" d="M49.8148 70.2394C71.1079 70.2394 88.3694 55.8173 88.3694 38.0266C88.3694 20.2359 71.1079 5.81372 49.8148 5.81372C28.5217 5.81372 11.2603 20.2359 11.2603 38.0266C11.2603 55.8173 28.5217 70.2394 49.8148 70.2394Z" fill="#FFE578"/>
<path opacity="0.24" d="M49.8141 70.2346C70.6001 70.2346 87.4505 56.4642 87.4505 39.4775C87.4505 22.4909 70.6001 8.72046 49.8141 8.72046C29.0281 8.72046 12.1777 22.4909 12.1777 39.4775C12.1777 56.4642 29.0281 70.2346 49.8141 70.2346Z" fill="#FFE578"/>
<path opacity="0.28" d="M49.8144 70.2346C70.0933 70.2346 86.5326 57.1139 86.5326 40.9286C86.5326 24.7433 70.0933 11.6226 49.8144 11.6226C29.5355 11.6226 13.0962 24.7433 13.0962 40.9286C13.0962 57.1139 29.5355 70.2346 49.8144 70.2346Z" fill="#FFE578"/>
<path opacity="0.33" d="M49.8142 70.2344C69.5859 70.2344 85.6142 57.7655 85.6142 42.3842C85.6142 27.0029 69.5859 14.5339 49.8142 14.5339C30.0424 14.5339 14.0142 27.0029 14.0142 42.3842C14.0142 57.7655 30.0424 70.2344 49.8142 70.2344Z" fill="#FFE578"/>
<path opacity="0.37" d="M49.8144 70.2347C69.0791 70.2347 84.6962 58.4154 84.6962 43.8355C84.6962 29.2556 69.0791 17.4363 49.8144 17.4363C30.5497 17.4363 14.9326 29.2556 14.9326 43.8355C14.9326 58.4154 30.5497 70.2347 49.8144 70.2347Z" fill="#FFE578"/>
<path opacity="0.42" d="M49.8147 70.2394C68.5723 70.2394 83.7783 59.0697 83.7783 45.2912C83.7783 31.5127 68.5723 20.343 49.8147 20.343C31.0571 20.343 15.8511 31.5127 15.8511 45.2912C15.8511 59.0697 31.0571 70.2394 49.8147 70.2394Z" fill="#FFE578"/>
<path opacity="0.46" d="M49.814 70.2343C68.0644 70.2343 82.8594 59.7164 82.8594 46.7419C82.8594 33.7674 68.0644 23.2495 49.814 23.2495C31.5635 23.2495 16.7686 33.7674 16.7686 46.7419C16.7686 59.7164 31.5635 70.2343 49.814 70.2343Z" fill="#FFE578"/>
<path opacity="0.51" d="M49.8142 70.2393C67.5576 70.2393 81.9415 60.371 81.9415 48.1979C81.9415 36.0248 67.5576 26.1565 49.8142 26.1565C32.0709 26.1565 17.687 36.0248 17.687 48.1979C17.687 60.371 32.0709 70.2393 49.8142 70.2393Z" fill="#FFE578"/>
<path opacity="0.55" d="M49.8145 70.2349C67.0508 70.2349 81.0235 61.0184 81.0235 49.6493C81.0235 38.2802 67.0508 29.0637 49.8145 29.0637C32.5782 29.0637 18.6055 38.2802 18.6055 49.6493C18.6055 61.0184 32.5782 70.2349 49.8145 70.2349Z" fill="#FFE578"/>
<path opacity="0.6" d="M49.8146 70.2393C66.5464 70.2393 80.1102 61.6725 80.1102 51.1048C80.1102 40.5371 66.5464 31.9702 49.8146 31.9702C33.0828 31.9702 19.519 40.5371 19.519 51.1048C19.519 61.6725 33.0828 70.2393 49.8146 70.2393Z" fill="#FFE578"/>
<path d="M8.01533 27.0178C4.42819 26.8179 1.26923 33.5783 1.02184 38.9114C0.760177 43.6689 2.87725 47.7461 5.90301 48.688C6.56898 54.0773 6.58815 59.5268 5.9601 64.9205C5.17987 71.8236 3.86205 77.6325 5.0086 81.6383C5.70319 84.0504 8.81458 84.3643 9.24275 81.1626C9.81365 76.5716 9.20469 71.7 9.0477 65.3297C8.90022 59.6873 9.0477 49.278 9.00964 48.5311C12.6443 47.6129 13.7671 43.8878 13.9907 39.5965C14.2571 34.3014 11.612 27.2318 8.01533 27.0178Z" fill="#FFD939" stroke="#B27914" stroke-miterlimit="10"/>
<path d="M7.7169 46.7995C3.93947 46.7995 2.00794 44.8204 2.30766 38.5357C2.67874 31.1664 6.31821 28.0883 8.11178 28.6592C10.6523 29.4727 12.6694 34.2683 12.3364 39.2636C12.0272 43.7927 10.952 46.7995 7.7169 46.7995Z" fill="#AD8207"/>
<path d="M7.03489 60.1914C7.46782 63.9355 6.99683 67.7701 6.51157 71.4428C6.0867 75.0951 6.34646 78.7946 7.27752 82.3517L7.18237 82.4136C3.70942 77.0471 5.99776 71.5475 6.57817 65.7624C6.80169 63.9346 6.91132 62.0947 6.90644 60.2533L7.03489 60.1914Z" fill="white"/>
<path d="M93.4499 40.2863C93.369 40.762 91.4327 40.762 91.4517 40.2863C91.4517 40.2863 91.4898 30.424 90.9284 30.4145C90.1958 30.4145 89.1777 40.272 89.1777 40.272C89.1158 40.7478 87.308 40.6621 87.308 40.1864V29.4107C87.3069 29.3853 87.2967 29.3612 87.2792 29.3429C87.2617 29.3245 87.2381 29.3131 87.2128 29.3108C87.1994 29.3107 87.1861 29.3141 87.1744 29.3208C87.1627 29.3275 87.153 29.3372 87.1462 29.3489C85.6143 31.7942 85.1862 35.6335 85.11 38.6212C84.9959 42.9029 86.1852 46.2331 88.7495 47.5224C88.9779 53.8023 88.5735 58.6311 88.4117 65.2535C88.25 71.6095 87.641 76.4954 88.2119 81.0816C88.6068 84.2644 91.7562 83.9361 92.4461 81.5574C93.5974 77.5801 92.9884 72.0186 92.1749 65.1393C91.5374 59.5065 91.8704 53.2456 91.9941 47.256C94.6535 46.9896 95.881 43.6926 95.9999 38.8257C96.0001 35.5832 95.4433 32.3648 94.3538 29.3108C94.3401 29.3181 94.3288 29.3291 94.3212 29.3426C94.3136 29.3561 94.3101 29.3715 94.311 29.3869L93.4499 40.2863Z" fill="#FFD939" stroke="#B27914" stroke-miterlimit="10"/>
<path d="M91.0856 60.1296C91.0238 67.8463 94.2969 75.187 90.5337 82.447L90.4434 82.3851C91.3667 78.8152 91.6183 75.1048 91.1855 71.4429C90.6578 67.6961 90.5811 63.8995 90.9572 60.1344L91.0856 60.1296Z" fill="white"/>
<path d="M62.9447 76.857C61.8647 78.546 56.9312 79.4974 49.5143 79.4974C42.0974 79.4974 37.692 78.9789 36.0792 76.8713C32.6443 72.3612 24.7041 69.031 24.7041 69.031H74.3246C74.3246 69.031 65.0237 73.5839 62.9447 76.857Z" fill="#3EA8BA" stroke="#201600" stroke-width="0.5" stroke-miterlimit="10"/>
<path d="M83.0267 64.9683C82.3369 64.3356 81.1808 64.1024 80.943 63.2033C80.8955 62.8581 80.8811 62.5093 80.9001 62.1614C80.8519 61.7633 80.7088 61.3827 80.4828 61.0515C80.2567 60.7204 79.9544 60.4483 79.6013 60.2584C78.89 59.8795 78.0997 59.6725 77.294 59.6542C76.4566 59.5971 75.6336 59.4972 74.8058 59.4116C69.1301 56.8949 59.9197 55.2583 49.5151 55.2583C38.9963 55.2583 29.7002 56.9329 24.0388 59.4924C23.4727 59.5543 22.9065 59.6161 22.3356 59.6542C21.5299 59.6725 20.7396 59.8795 20.0283 60.2584C19.6751 60.4483 19.3728 60.7204 19.1468 61.0515C18.9208 61.3827 18.7777 61.7633 18.7295 62.1614C18.7485 62.5093 18.7341 62.8581 18.6866 63.2033C18.4488 64.1024 17.2927 64.3356 16.6029 64.9683C16.2078 65.3739 15.9895 65.9195 15.9957 66.4857C16.002 67.0519 16.2323 67.5925 16.6362 67.9893C16.6947 68.0469 16.7567 68.1009 16.8217 68.1511C17.5734 68.6744 18.6296 68.6649 19.3004 69.2833C19.9712 69.9018 20.0473 71.0008 20.4897 71.8429C21.2366 73.2701 23.0017 73.7934 24.5954 73.8362C26.1892 73.8791 27.8067 73.5555 29.3814 73.8362C31.4224 74.2121 33.1541 75.568 35.1523 76.1198C36.2365 76.4204 37.3742 76.4757 38.4825 76.2816C39.39 76.0477 40.3117 75.8729 41.2418 75.7583C42.4312 75.7154 43.5777 76.1484 44.7243 76.4624C46.2159 76.8704 47.7546 77.0816 49.301 77.0903H50.3286C51.875 77.0816 53.4137 76.8704 54.9053 76.4624C56.0518 76.1484 57.1984 75.7154 58.3878 75.7583C59.3179 75.8729 60.2396 76.0477 61.1471 76.2816C62.2554 76.4757 63.3931 76.4204 64.4773 76.1198C66.4755 75.568 68.2072 74.2168 70.2481 73.8362C71.8229 73.546 73.4356 73.8648 75.0342 73.8362C76.6327 73.8077 78.3929 73.2511 79.1399 71.8429C79.5823 71.0008 79.6156 69.9399 80.3292 69.2833C81.0429 68.6268 82.0562 68.6744 82.8079 68.1511C83.0297 67.9793 83.2155 67.7655 83.3547 67.5219C83.4939 67.2782 83.5837 67.0096 83.619 66.7313C83.6544 66.453 83.6345 66.1704 83.5607 65.8997C83.4868 65.6291 83.3603 65.3756 83.1885 65.1538C83.1383 65.0888 83.0843 65.0269 83.0267 64.9683Z" fill="#A4ECFF" stroke="#201600" stroke-width="0.5" stroke-miterlimit="10"/>
<path d="M83.0267 64.9683C82.3369 64.3356 81.1808 64.1024 80.943 63.2033C80.8955 62.8581 80.8811 62.5093 80.9001 62.1614C80.8519 61.7633 80.7088 61.3827 80.4828 61.0515C80.2567 60.7204 79.9544 60.4483 79.6013 60.2584C78.89 59.8795 78.0997 59.6725 77.294 59.6542C76.4566 59.5971 75.6336 59.4972 74.8058 59.4116C69.1301 56.8949 59.9197 55.2583 49.5151 55.2583C38.9963 55.2583 29.7002 56.9329 24.0388 59.4924C23.4727 59.5543 22.9065 59.6161 22.3356 59.6542C21.5299 59.6725 20.7396 59.8795 20.0283 60.2584C19.6751 60.4483 19.3728 60.7204 19.1468 61.0515C18.9208 61.3827 18.7777 61.7633 18.7295 62.1614C18.7485 62.5093 18.7341 62.8581 18.6866 63.2033C18.4488 64.1024 17.2927 64.3356 16.6029 64.9683C16.2078 65.3739 15.9895 65.9195 15.9957 66.4857C16.002 67.0519 16.2323 67.5925 16.6362 67.9893C16.6947 68.0469 16.7567 68.1009 16.8217 68.1511C17.5734 68.6744 18.6296 68.6649 19.3004 69.2833C19.9712 69.9018 20.0473 71.0008 20.4897 71.8429C21.2366 73.2701 23.0017 73.7934 24.5954 73.8362C26.1892 73.8791 27.8067 73.5555 29.3814 73.8362C31.4224 74.2121 33.1541 75.568 35.1523 76.1198C36.2365 76.4204 37.3742 76.4757 38.4825 76.2816C39.39 76.0477 40.3117 75.8729 41.2418 75.7583C42.4312 75.7154 43.5777 76.1484 44.7243 76.4624C46.2159 76.8704 47.7546 77.0816 49.301 77.0903H50.3286C51.875 77.0816 53.4137 76.8704 54.9053 76.4624C56.0518 76.1484 57.1984 75.7154 58.3878 75.7583C59.3179 75.8729 60.2396 76.0477 61.1471 76.2816C62.2554 76.4757 63.3931 76.4204 64.4773 76.1198C66.4755 75.568 68.2072 74.2168 70.2481 73.8362C71.8229 73.546 73.4356 73.8648 75.0342 73.8362C76.6327 73.8077 78.3929 73.2511 79.1399 71.8429C79.5823 71.0008 79.6156 69.9399 80.3292 69.2833C81.0429 68.6268 82.0562 68.6744 82.8079 68.1511C83.0297 67.9793 83.2155 67.7655 83.3547 67.5219C83.4939 67.2782 83.5837 67.0096 83.619 66.7313C83.6544 66.453 83.6345 66.1704 83.5607 65.8997C83.4868 65.6291 83.3603 65.3756 83.1885 65.1538C83.1383 65.0888 83.0843 65.0269 83.0267 64.9683ZM80.1722 67.5706C79.4824 68.0226 78.5119 68.0178 77.8934 68.5554C77.2749 69.093 77.2083 70.0493 76.8039 70.7772C76.1141 72.0046 74.4918 72.4756 72.998 72.5089C71.5041 72.5422 70.0436 72.271 68.5973 72.5089C66.7229 72.8372 65.1291 74.0123 63.288 74.4975C62.2859 74.7562 61.2411 74.8048 60.2194 74.6402C59.3842 74.425 58.5354 74.266 57.6789 74.1645C56.5847 74.1217 55.5285 74.5023 54.4724 74.7735C53.0989 75.1309 51.686 75.3147 50.2668 75.3206H49.3153C47.896 75.3147 46.4831 75.1309 45.1097 74.7735C44.0535 74.5023 42.9973 74.1217 41.9031 74.1645C41.0466 74.266 40.1978 74.425 39.3626 74.6402C38.3409 74.8048 37.2961 74.7562 36.2941 74.4975C34.4529 74.0218 32.8592 72.8372 30.9847 72.5089C29.5575 72.2615 28.0541 72.5374 26.584 72.5089C25.114 72.4804 23.4917 72.0046 22.7781 70.7772C22.3737 70.0493 22.3309 69.1121 21.6886 68.5554C21.0464 67.9988 20.0996 68.0226 19.4098 67.5706C19.0208 67.2949 18.7568 66.8763 18.6757 66.4064C18.5945 65.9366 18.7028 65.4537 18.9768 65.0635C19.0438 64.9687 19.1203 64.881 19.2052 64.8018C19.838 64.2547 20.9036 64.0501 21.1082 63.2699C21.1542 62.9693 21.1669 62.6646 21.1463 62.3612C21.1935 62.007 21.3271 61.6699 21.5354 61.3795C21.7436 61.0892 22.0201 60.8544 22.3404 60.6961C23.0025 60.3676 23.7282 60.1874 24.467 60.168C24.9903 60.1347 25.5136 60.0824 26.0322 60.03C31.2369 57.8035 39.7908 56.3478 49.4675 56.3478C59.0395 56.3478 67.5126 57.775 72.7315 59.9587C73.4927 60.0348 74.2539 60.1204 75.0199 60.168C75.7587 60.1874 76.4844 60.3676 77.1465 60.6961C77.4784 60.8483 77.7669 61.0814 77.9855 61.374C78.2041 61.6665 78.3458 62.0092 78.3977 62.3707C78.377 62.6741 78.3898 62.9788 78.4358 63.2794C78.6546 64.0596 79.7203 64.2642 80.3388 64.8113C80.5109 64.9743 80.6491 65.1697 80.7454 65.3863C80.8417 65.6029 80.8943 65.8365 80.9 66.0734C80.9058 66.3104 80.8646 66.5462 80.7789 66.7672C80.6932 66.9883 80.5646 67.1902 80.4006 67.3613C80.3281 67.4385 80.2485 67.5086 80.1627 67.5706H80.1722Z" fill="#54CCE8" stroke="#201600" stroke-width="0.5" stroke-miterlimit="10"/>
<path d="M49.5145 72.6133C34.2906 72.6133 22.3398 68.5076 22.3398 63.2697C22.3398 59.5017 24.8423 40.862 26.4646 37.3985C28.1677 33.7495 36.4553 30.053 49.5145 30.053C62.5738 30.053 70.4855 33.859 72.555 37.3795C74.3723 40.4718 76.6892 59.6064 76.6892 63.2697C76.6892 68.5076 64.7527 72.6133 49.5145 72.6133Z" fill="#80E165" stroke="#201600" stroke-width="0.5" stroke-miterlimit="10"/>
<path d="M49.5144 32.6886C51.8424 32.6886 53.7296 30.7439 53.7296 28.345C53.7296 25.9462 51.8424 24.0015 49.5144 24.0015C47.1865 24.0015 45.2993 25.9462 45.2993 28.345C45.2993 30.7439 47.1865 32.6886 49.5144 32.6886Z" fill="#80E165" stroke="#201600" stroke-width="0.5" stroke-miterlimit="10"/>
<path opacity="0.61" d="M49.5147 24.4773C50.8705 24.4773 52.4262 25.4954 52.5594 26.5658C52.6498 27.2604 50.8705 25.6429 49.5147 25.6143C47.5831 25.6143 46.3271 27.1938 46.3271 26.4945C46.3271 25.7951 47.5974 24.4773 49.5147 24.4773Z" fill="white"/>
<path opacity="0.61" d="M29.8716 38.0264C34.6862 39.9294 39.6625 40.5716 44.7007 41.271C52.5267 42.2843 62.5032 42.0702 69.7488 38.6211L69.8392 38.7923C69.1398 39.1634 68.2549 39.7153 67.5366 40.0102C61.937 42.4603 55.7808 43.174 49.7389 43.3405C44.5389 43.4404 39.182 43.0027 34.3246 40.8904C32.689 40.2253 31.1586 39.3262 29.7812 38.2214L29.8812 38.0502L29.8716 38.0264Z" fill="white"/>
</svg>
