<svg width="87" height="85" viewBox="0 0 87 85" fill="none" xmlns="http://www.w3.org/2000/svg">
<path d="M29.2449 15.7444C31.0312 0.403287 51.3348 3.84735 59.4161 12.6361C69.9234 24.0687 71.0917 48.145 61.9528 62.425C57.076 70.6135 42.2637 83.861 33.968 75.3974C28.5518 66.6264 34.8576 56.4336 34.0144 47.041C33.0391 36.1801 27.9587 26.691 29.2449 15.7444Z" fill="#0092FF" stroke="black" stroke-width="0.25" stroke-linecap="round" stroke-linejoin="round"/>
<path d="M53.7355 80.0276C42.3029 77.0444 31.392 62.1642 46.6616 48.0271C57.1903 38.288 68.1155 48.0271 66.0255 24.426C65.4146 17.52 72.5421 17.6058 75.7253 22.1145C84.925 35.1547 90.0947 57.2982 81.9239 72.6571C76.5649 82.7321 61.8062 82.1319 53.7355 80.0276Z" fill="#935C2E" stroke="black" stroke-width="0.25" stroke-linecap="round" stroke-linejoin="round"/>
<path d="M3.71819 35.0512C5.30089 31.3749 9.72386 30.5639 11.2744 34.6689C12.4248 38.0415 11.6317 46.5016 17.4516 44.2901C29.4843 38.9597 15.751 20.421 22.5748 20.2317C31.2278 21.1642 30.8705 32.2037 33.425 38.5345C34.2038 43.2933 38.7161 44.8582 40.7025 48.7667C44.7111 56.0013 45.59 65.7547 40.2452 72.525C35.6972 77.5875 21.4637 91.1458 7.64813 78.9844C-0.836974 71.5175 -0.075994 42.5002 3.71819 35.0512Z" fill="#FF6EBA" stroke="black" stroke-width="0.25" stroke-linecap="round" stroke-linejoin="round"/>
<path d="M9.80983 49.9851C10.3621 49.9867 10.9047 50.1305 11.3853 50.4027C11.8659 50.6749 12.2683 51.0663 12.5536 51.5392L18.1627 60.9032V52.5074C18.1627 51.8385 18.4285 51.1969 18.9015 50.7239C19.3745 50.2508 20.0161 49.9851 20.6851 49.9851C21.354 49.9851 21.9956 50.2508 22.4686 50.7239C22.9416 51.1969 23.2074 51.8385 23.2074 52.5074V66.5337C23.2074 67.3834 22.8711 68.1986 22.2719 68.8011C21.6728 69.4036 20.8595 69.7444 20.0098 69.7492H19.9598C19.4081 69.747 18.8662 69.6029 18.3863 69.3307C17.9064 69.0585 17.5046 68.6674 17.2196 68.195L11.6498 58.9061V67.2233C11.6488 67.8929 11.3824 68.5348 10.9089 69.0083C10.4354 69.4818 9.79349 69.7482 9.12387 69.7492C8.45459 69.7482 7.81304 69.4817 7.34011 69.0081C6.86719 68.5345 6.60156 67.8926 6.60156 67.2233V53.1791C6.60721 52.3313 6.94749 51.52 7.54834 50.9218C8.1492 50.3236 8.96199 49.987 9.80983 49.9851Z" fill="#722254" stroke="black" stroke-width="0.25" stroke-linecap="round" stroke-linejoin="round"/>
<path d="M28.2483 59.9205L26.6728 59.7311C26.4124 59.6996 26.1642 59.603 25.951 59.4503C25.7378 59.2976 25.5665 59.0936 25.453 58.8572C25.3394 58.6208 25.2872 58.3597 25.3012 58.0978C25.3152 57.8359 25.395 57.5818 25.5331 57.3588C25.8962 56.7976 26.3856 56.329 26.9622 55.9905C27.5259 55.6676 28.1431 55.4486 28.7842 55.3439C29.6087 55.1885 30.4461 55.1119 31.2851 55.1152C32.4524 55.0924 33.6192 55.1846 34.7685 55.3903C35.5961 55.5513 36.3578 55.9526 36.9585 56.5443C37.4168 57.0286 37.7503 57.6172 37.9303 58.2592C38.1578 58.944 38.2783 59.6598 38.2875 60.3813V66.7014C38.2946 66.931 38.3148 67.1601 38.3483 67.3874C38.3886 67.6809 38.3656 67.9796 38.2808 68.2634C38.196 68.5473 38.0515 68.8097 37.8569 69.0331C37.6623 69.2565 37.4222 69.4356 37.1526 69.5585C36.883 69.6813 36.5902 69.745 36.294 69.7453H35.8724C35.3808 69.7489 34.9044 69.5749 34.5309 69.2552C34.1574 68.9355 33.9119 68.4917 33.8396 68.0054C33.3156 68.6115 32.6801 69.1112 31.9675 69.4774C31.032 69.8903 30.0173 70.0927 28.995 70.0704C27.4945 70.0704 26.356 69.6751 25.5795 68.8843C25.1974 68.5014 24.8968 68.0451 24.696 67.5428C24.4952 67.0405 24.3983 66.5027 24.4113 65.9619C24.3714 64.9983 24.6682 64.0509 25.2508 63.2823C25.8129 62.5821 26.8478 62.0617 28.3555 61.7211C30.1633 61.3067 31.3351 61.0161 31.871 60.8494C32.4539 60.666 33.0243 60.4452 33.5788 60.1884C33.5788 59.5167 33.4573 59.0452 33.2215 58.7772C32.9857 58.5093 32.5463 58.3735 31.9318 58.3735C31.3063 58.3288 30.6824 58.4785 30.1454 58.8022C30.0038 58.9164 29.8829 59.0542 29.7881 59.2095C29.6251 59.4616 29.3938 59.6622 29.1212 59.788C28.8487 59.9139 28.546 59.9598 28.2483 59.9205ZM33.3108 65.4188C33.3831 65.1716 33.3872 64.9095 33.3227 64.6602C33.2582 64.4108 33.1275 64.1835 32.9445 64.0024C32.7615 63.8212 32.5329 63.6928 32.283 63.6308C32.033 63.5689 31.7709 63.5756 31.5245 63.6503H31.503C30.5241 63.9481 29.9037 64.2398 29.6417 64.5256C29.3826 64.8023 29.2405 65.1684 29.2451 65.5474C29.2339 65.7437 29.2633 65.9403 29.3316 66.1247C29.3998 66.3091 29.5054 66.4775 29.6417 66.6192C29.7968 66.7646 29.9804 66.8761 30.1809 66.9469C30.3814 67.0176 30.5944 67.0459 30.8064 67.0301C31.3389 67.0251 31.8583 66.8636 32.2997 66.5656C32.7257 66.312 33.0684 65.9395 33.2858 65.4938L33.3108 65.4188Z" fill="#722254" stroke="black" stroke-width="0.25" stroke-linecap="round" stroke-linejoin="round"/>
<path d="M36.1476 32.7039H36.2869C36.7947 32.6602 37.3034 32.7766 37.7417 33.0368C38.18 33.2969 38.5258 33.6878 38.7306 34.1545C38.8086 34.3477 38.9068 34.5321 39.0236 34.7046C39.283 35.0901 39.637 35.4026 40.0517 35.6122C40.4665 35.8217 40.928 35.9213 41.3923 35.9015C41.7158 35.9246 42.0406 35.8825 42.3475 35.7775C42.6544 35.6726 42.937 35.507 43.1786 35.2906C43.3727 35.1139 43.5284 34.8992 43.6359 34.6597C43.7434 34.4203 43.8004 34.1613 43.8034 33.8989C43.8064 33.6364 43.7554 33.3762 43.6534 33.1343C43.5514 32.8925 43.4008 32.6742 43.2107 32.4932C42.8142 32.0894 41.8996 31.7107 40.4634 31.3499C38.1102 30.7497 36.4322 29.9506 35.4295 28.9526C34.9223 28.4585 34.5231 27.8647 34.2568 27.2086C33.9906 26.5525 33.8631 25.8484 33.8825 25.1406C33.8823 24.1298 34.1511 23.1371 34.6613 22.2646C35.2032 21.3297 36.017 20.582 36.9943 20.121C38.0304 19.6065 39.4594 19.3481 41.2815 19.3457C43.4989 19.3457 45.19 19.8149 46.3547 20.7533C46.6177 20.9653 46.8573 21.2049 47.0692 21.4679C47.3424 21.823 47.5138 22.2458 47.565 22.691C47.6163 23.1361 47.5454 23.5868 47.3599 23.9947C47.1745 24.4026 46.8816 24.7523 46.5125 25.0065C46.1435 25.2606 45.7123 25.4094 45.265 25.4371C44.7909 25.4623 44.3192 25.3528 43.9045 25.1215C43.4899 24.8901 43.149 24.5462 42.9214 24.1295C42.814 23.9424 42.6804 23.7716 42.5248 23.6222C42.0309 23.1956 41.3899 22.9789 40.7385 23.0184C40.2275 22.9798 39.7215 23.1412 39.3272 23.4686C39.1754 23.6077 39.0546 23.7773 38.9727 23.9663C38.8908 24.1553 38.8497 24.3594 38.8521 24.5654C38.8549 24.7266 38.8914 24.8855 38.959 25.0319C39.0267 25.1783 39.1241 25.309 39.2451 25.4157C39.4975 25.6753 40.093 25.9135 41.0314 26.1302C43.3751 26.7066 45.0542 27.289 46.0689 27.8773C46.9999 28.3809 47.7682 29.1393 48.284 30.0637C48.7649 30.9794 49.0059 32.0021 48.9842 33.0362C48.9944 34.2657 48.6762 35.4756 48.0624 36.541C47.4642 37.5912 46.5643 38.4376 45.4794 38.9704C44.1691 39.5669 42.7381 39.8507 41.2994 39.7993C38.346 39.7993 36.3 39.1526 35.1615 37.8593C34.7329 37.3738 34.3712 36.8331 34.0861 36.2516C33.908 35.8872 33.8225 35.4844 33.837 35.0791C33.8516 34.6737 33.9658 34.2781 34.1696 33.9274C34.3734 33.5767 34.6605 33.2815 35.0055 33.0682C35.3505 32.8548 35.7427 32.7297 36.1476 32.7039Z" fill="#003D63" stroke="black" stroke-width="0.25" stroke-linecap="round" stroke-linejoin="round"/>
<path d="M61.449 33.6543H55.7327C55.609 33.6534 55.4867 33.6811 55.3755 33.7352C55.2642 33.7893 55.1669 33.8684 55.0912 33.9662C55.0155 34.064 54.9634 34.178 54.9389 34.2993C54.9145 34.4206 54.9184 34.5459 54.9503 34.6654C55.039 35.0089 55.1917 35.3325 55.4004 35.6193C55.6043 35.9121 55.8772 36.15 56.1951 36.312C56.5129 36.4741 56.8658 36.5552 57.2225 36.5482C57.7023 36.5479 58.1717 36.4076 58.573 36.1445C58.684 36.071 58.787 35.986 58.8802 35.8908C59.0785 35.6931 59.3182 35.5419 59.582 35.448C59.8458 35.3541 60.1271 35.3199 60.4057 35.3478L60.7416 35.3799C62.4958 35.5657 63.0638 37.8808 61.5633 38.8133H61.5347C60.5058 39.4397 59.0326 39.7517 57.1153 39.7493C55.4481 39.7493 54.1381 39.4826 53.1854 38.949C52.1646 38.3465 51.3395 37.462 50.8095 36.4017C50.1655 35.1402 49.8474 33.7376 49.8842 32.3217C49.8842 30.09 50.5142 28.281 51.7742 26.8948C53.0341 25.5086 54.7728 24.8167 56.9903 24.8191C58.7909 24.8191 60.2128 25.1299 61.256 25.7516C62.3089 26.3816 63.1402 27.3228 63.6354 28.4454C63.8824 29.1297 64.0479 29.8408 64.1285 30.564C64.1832 30.9479 64.1549 31.3391 64.0453 31.7111C63.9358 32.0831 63.7476 32.4273 63.4936 32.7203C63.2395 33.0133 62.9255 33.2483 62.5728 33.4095C62.22 33.5706 61.8368 33.6541 61.449 33.6543ZM58.1371 31.0248C58.3221 31.0238 58.504 30.9781 58.6676 30.8917C58.8312 30.8053 58.9715 30.6808 59.0767 30.5286C59.1818 30.3764 59.2488 30.2012 59.2718 30.0176C59.2948 29.8341 59.2732 29.6477 59.2089 29.4743C59.1098 29.2132 58.9659 28.9714 58.7838 28.7598C58.5834 28.5343 58.3357 28.3559 58.0584 28.2373C57.7811 28.1188 57.481 28.0629 57.1796 28.0738C56.8095 28.0701 56.4449 28.1639 56.1226 28.3457C55.8002 28.5276 55.5314 28.7912 55.3433 29.1099C55.2875 29.1934 55.2374 29.2805 55.1932 29.3707C55.1063 29.5467 55.0657 29.742 55.0753 29.9381C55.085 30.1342 55.1444 30.3246 55.2482 30.4913C55.3519 30.658 55.4965 30.7954 55.6681 30.8907C55.8398 30.9859 56.033 31.0358 56.2293 31.0356L58.1371 31.0248Z" fill="#003D63" stroke="black" stroke-width="0.25" stroke-linecap="round" stroke-linejoin="round"/>
<path d="M50.0488 49.8027C50.7604 49.8023 51.4524 50.0356 52.0185 50.4668C52.5846 50.898 52.9934 51.5032 53.1821 52.1893L55.8294 61.8177L58.4625 52.1964C58.65 51.5084 59.0587 50.9012 59.6257 50.4686C60.1926 50.036 60.8861 49.802 61.5993 49.8027C62.4359 49.8037 63.24 50.1267 63.8447 50.7048C64.4494 51.2829 64.8083 52.0717 64.8468 52.9074L65.4828 67.3053C65.4963 67.5951 65.4509 67.8846 65.3492 68.1564C65.2476 68.4281 65.0918 68.6764 64.8914 68.8861C64.691 69.0959 64.4501 69.2628 64.1833 69.3767C63.9165 69.4907 63.6293 69.5492 63.3392 69.5489C62.7707 69.5489 62.2254 69.3231 61.8234 68.9211C61.4214 68.5191 61.1956 67.9738 61.1956 67.4053V54.4901L58.3374 65.0009C58.188 65.5504 57.8625 66.0356 57.4107 66.3822C56.959 66.7287 56.4059 66.9175 55.8366 66.9194C55.2675 66.9163 54.715 66.7271 54.2635 66.3807C53.812 66.0343 53.4861 65.5498 53.3357 65.0009L50.4775 54.4901V67.3982C50.4775 67.9667 50.2517 68.5119 49.8497 68.9139C49.4477 69.3159 48.9025 69.5418 48.3339 69.5418C48.0438 69.5421 47.7566 69.4835 47.4898 69.3696C47.223 69.2557 46.9821 69.0888 46.7817 68.879C46.5813 68.6692 46.4255 68.421 46.3239 68.1492C46.2222 67.8775 46.1768 67.5879 46.1903 67.2981L46.8263 52.9003C46.8664 52.0701 47.2225 51.2868 47.8217 50.7108C48.4209 50.1349 49.2177 49.81 50.0488 49.8027Z" fill="#422815" stroke="black" stroke-width="0.25" stroke-linecap="round" stroke-linejoin="round"/>
<path d="M77.5225 55.244H77.8047C78.3657 55.244 78.9036 55.4669 79.3003 55.8635C79.6969 56.2601 79.9197 56.7981 79.9197 57.3591V68.763V69.3954C79.9232 70.2765 79.752 71.1496 79.416 71.9642C79.1224 72.7125 78.6659 73.3861 78.0798 73.9363C77.4718 74.467 76.7433 74.8411 75.9576 75.0259C74.9949 75.2643 74.0055 75.3784 73.0138 75.3653C70.4867 75.3653 68.7515 74.9342 67.8084 74.072C67.7253 73.9937 67.6499 73.9075 67.5833 73.8148C66.44 72.2428 67.8262 70.0635 69.7519 70.3136H69.8591C70.176 70.3622 70.4798 70.4743 70.7524 70.6431C71.0249 70.8119 71.2606 71.034 71.4453 71.2961C71.5016 71.3713 71.5677 71.4386 71.6418 71.4961C72.0261 71.7847 72.4979 71.9323 72.978 71.9141C73.2689 71.9364 73.5609 71.8908 73.8312 71.7811C74.1015 71.6714 74.3426 71.5004 74.5357 71.2818C74.893 70.8602 75.0538 70.1242 75.0538 69.0739V66.9052C74.6693 67.4535 74.1844 67.9238 73.6247 68.2914C72.9018 68.7361 72.069 68.97 71.2203 68.9667C69.5387 68.9667 68.1799 68.1331 67.1438 66.4658C66.4103 65.2749 66.0435 63.7089 66.0435 61.7677C66.0435 59.5384 66.5198 57.8402 67.4725 56.6731C67.9124 56.1109 68.4781 55.6596 69.124 55.3556C69.7699 55.0516 70.4781 54.9032 71.1917 54.9225C72.0356 54.8896 72.8726 55.0859 73.614 55.4905C74.3479 55.9659 74.9599 56.6072 75.4003 57.3626C75.3998 57.084 75.4544 56.808 75.561 56.5505C75.6675 56.293 75.8238 56.0591 76.021 55.8622C76.2182 55.6654 76.4524 55.5094 76.7101 55.4033C76.9677 55.2972 77.2438 55.2431 77.5225 55.244ZM70.8844 62.1786C70.8844 63.2111 71.0774 63.9649 71.4632 64.4758C71.6391 64.7142 71.87 64.9066 72.1363 65.0366C72.4025 65.1666 72.6962 65.2304 72.9923 65.2225C73.2874 65.2231 73.5784 65.1535 73.8412 65.0193C74.104 64.8851 74.3311 64.6902 74.5036 64.4508C74.9061 63.9316 75.1085 63.1516 75.1109 62.1107C75.1109 61.0711 74.9001 60.2744 74.4714 59.7206C74.2967 59.4674 74.0636 59.2599 73.7919 59.1156C73.5202 58.9714 73.2178 58.8946 72.9101 58.8917C72.6203 58.8856 72.3335 58.952 72.0758 59.0849C71.8181 59.2178 71.5977 59.413 71.4346 59.6527C71.0523 60.1636 70.8844 61.0032 70.8844 62.1786Z" fill="#422815" stroke="black" stroke-width="0.25" stroke-linecap="round" stroke-linejoin="round"/>
<path d="M8.16964 40.6532C11.23 40.6532 13.7109 38.1724 13.7109 35.112C13.7109 32.0517 11.23 29.5708 8.16964 29.5708C5.10931 29.5708 2.62842 32.0517 2.62842 35.112C2.62842 38.1724 5.10931 40.6532 8.16964 40.6532Z" fill="white" stroke="black" stroke-width="0.25" stroke-linecap="round" stroke-linejoin="round"/>
<path d="M3.13232 37.402C3.56113 38.3592 4.25331 39.1748 5.1281 39.7535C6.00288 40.3322 7.0242 40.6502 8.0729 40.6704C9.12159 40.6907 10.1544 40.4123 11.0509 39.8677C11.9473 39.3231 12.6704 38.5349 13.1358 37.5949C11.1851 36.1087 5.50458 35.8407 3.13232 37.402Z" fill="#FF6EBA" stroke="black" stroke-width="0.25" stroke-linecap="round" stroke-linejoin="round"/>
<path d="M22.4924 28.8027C25.5527 28.8027 28.0336 26.3218 28.0336 23.2614C28.0336 20.2011 25.5527 17.7202 22.4924 17.7202C19.4321 17.7202 16.9512 20.2011 16.9512 23.2614C16.9512 26.3218 19.4321 28.8027 22.4924 28.8027Z" fill="white" stroke="black" stroke-width="0.25" stroke-linecap="round" stroke-linejoin="round"/>
<path d="M20.7349 28.5097C21.8364 28.8806 23.0267 28.8952 24.137 28.5515C25.2473 28.2078 26.2212 27.5233 26.9206 26.595C27.6199 25.6667 28.0093 24.5418 28.0334 23.3797C28.0575 22.2177 27.7152 21.0776 27.0549 20.1211C24.3826 20.8499 20.792 25.0693 20.7349 28.5097Z" fill="#FF6EBA" stroke="black" stroke-width="0.25" stroke-linecap="round" stroke-linejoin="round"/>
<path d="M32.4856 16.2233C35.5459 16.2233 38.0268 13.7424 38.0268 10.6821C38.0268 7.62176 35.5459 5.14087 32.4856 5.14087C29.4252 5.14087 26.9443 7.62176 26.9443 10.6821C26.9443 13.7424 29.4252 16.2233 32.4856 16.2233Z" fill="white" stroke="black" stroke-width="0.25" stroke-linecap="round" stroke-linejoin="round"/>
<path d="M44.9397 12.0824C48 12.0824 50.4809 9.60156 50.4809 6.54122C50.4809 3.48089 48 1 44.9397 1C41.8793 1 39.3984 3.48089 39.3984 6.54122C39.3984 9.60156 41.8793 12.0824 44.9397 12.0824Z" fill="white" stroke="black" stroke-width="0.25" stroke-linecap="round" stroke-linejoin="round"/>
<path d="M72.9958 43.1183C76.0561 43.1183 78.537 40.6374 78.537 37.5771C78.537 34.5168 76.0561 32.0359 72.9958 32.0359C69.9355 32.0359 67.4546 34.5168 67.4546 37.5771C67.4546 40.6374 69.9355 43.1183 72.9958 43.1183Z" fill="white" stroke="black" stroke-width="0.25" stroke-linecap="round" stroke-linejoin="round"/>
<path d="M78.3871 38.7954C78.6792 37.5093 78.5025 36.1612 77.8887 34.9939C77.2749 33.8266 76.2644 32.9168 75.0393 32.4286C73.8141 31.9404 72.4549 31.9057 71.2065 32.3309C69.958 32.756 68.9025 33.613 68.23 34.7475C72.8852 32.7647 78.1906 36.5625 78.3871 38.7954Z" fill="#935C2E" stroke="black" stroke-width="0.25" stroke-linecap="round" stroke-linejoin="round"/>
<path d="M10.3738 35.7335C11.6169 35.7335 12.6246 34.7258 12.6246 33.4827C12.6246 32.2396 11.6169 31.2319 10.3738 31.2319C9.13076 31.2319 8.12305 32.2396 8.12305 33.4827C8.12305 34.7258 9.13076 35.7335 10.3738 35.7335Z" fill="black"/>
<path d="M19.6522 24.4618C20.8952 24.4618 21.9029 23.4541 21.9029 22.211C21.9029 20.9679 20.8952 19.9602 19.6522 19.9602C18.4091 19.9602 17.4014 20.9679 17.4014 22.211C17.4014 23.4541 18.4091 24.4618 19.6522 24.4618Z" fill="black"/>
<path d="M26.1618 34.1331C27.7838 35.9873 28.9413 43.1505 25.6045 43.7043C24.3433 43.7543 23.3394 42.9111 22.4819 42.1144C23.3822 42.7575 24.429 43.5435 25.5723 43.4292C28.4626 42.7932 27.3586 35.9801 26.1618 34.1402V34.1331Z" fill="black"/>
<path d="M27.573 39.3242C27.7588 38.2024 29.0771 37.3414 30.1311 37.9237C30.4305 38.0592 30.6638 38.3081 30.7797 38.6156C30.8956 38.9232 30.8846 39.2641 30.7491 39.5636C30.6136 39.863 30.3647 40.0963 30.0572 40.2122C29.7497 40.3281 29.4087 40.3171 29.1093 40.1816C28.4805 40.0352 27.4766 40.9641 27.4766 40.9641C27.6023 40.427 27.6349 39.8723 27.573 39.3242Z" fill="#FF0000" stroke="black" stroke-width="0.25" stroke-linecap="round" stroke-linejoin="round"/>
<path d="M27.5694 39.8957C28.0803 39.4133 28.7376 38.9453 29.4736 39.0168C28.7591 38.9739 28.1124 39.4634 27.6337 39.96C27.5944 40.0028 27.5265 39.9385 27.5694 39.8957Z" fill="black"/>
<path d="M32.3245 12.9327C33.5676 12.9327 34.5753 11.925 34.5753 10.6819C34.5753 9.43886 33.5676 8.43115 32.3245 8.43115C31.0814 8.43115 30.0737 9.43886 30.0737 10.6819C30.0737 11.925 31.0814 12.9327 32.3245 12.9327Z" fill="black"/>
<path d="M44.9398 8.60973C46.1828 8.60973 47.1905 7.60202 47.1905 6.35894C47.1905 5.11587 46.1828 4.10815 44.9398 4.10815C43.6967 4.10815 42.689 5.11587 42.689 6.35894C42.689 7.60202 43.6967 8.60973 44.9398 8.60973Z" fill="black"/>
<path d="M45.2254 13.4866C47.3333 13.358 50.0985 12.3898 50.2057 9.93896C50.763 11.6253 50.7273 18.0061 48.3336 17.5988C47.0296 12.8614 46.3115 15.1551 42.9746 13.3116C43.6391 13.4152 44.493 13.6581 45.2254 13.4866Z" fill="black"/>
<path d="M70.7667 47.1126C71.6706 47.452 72.6388 47.2234 73.5641 47.1805C75.7541 49.4563 68.2051 51.9965 67.5298 49.0919C66.8439 47.9772 67.1368 45.3763 68.8124 45.6014C69.477 46.0765 69.8842 46.9268 70.7667 47.1126Z" fill="black" stroke="black" stroke-width="0.25" stroke-linecap="round" stroke-linejoin="round"/>
<path d="M72.5921 39.6992C73.6241 39.6992 74.4607 38.8626 74.4607 37.8307C74.4607 36.7987 73.6241 35.9622 72.5921 35.9622C71.5602 35.9622 70.7236 36.7987 70.7236 37.8307C70.7236 38.8626 71.5602 39.6992 72.5921 39.6992Z" fill="black" stroke="black" stroke-width="0.25" stroke-linecap="round" stroke-linejoin="round"/>
</svg>
