<svg width="72" height="99" viewBox="0 0 72 99" fill="none" xmlns="http://www.w3.org/2000/svg">
<path d="M64.915 2.27326H6.64839C5.91021 2.26967 5.17856 2.41151 4.4952 2.69068C3.81184 2.96985 3.19016 3.38089 2.66566 3.90033C2.14116 4.41976 1.7241 5.03742 1.43831 5.71804C1.15251 6.39865 1.00357 7.1289 1 7.86708V92.3746C1.00722 93.8663 1.60609 95.2941 2.66511 96.3446C3.72412 97.3951 5.15674 97.9824 6.64839 97.9776H64.915C66.4067 97.9824 67.8393 97.3951 68.8983 96.3446C69.9574 95.2941 70.5562 93.8663 70.5634 92.3746V7.86708C70.5599 7.1289 70.4109 6.39865 70.1251 5.71804C69.8393 5.03742 69.4223 4.41976 68.8978 3.90033C68.3733 3.38089 67.7516 2.96985 67.0682 2.69068C66.3849 2.41151 65.6532 2.26967 64.915 2.27326ZM54.0549 12.897C54.0597 13.2417 53.9964 13.5841 53.8686 13.9043C53.7408 14.2246 53.551 14.5164 53.3102 14.7632C53.0694 15.0099 52.7822 15.2067 52.4651 15.3422C52.1481 15.4777 51.8074 15.5493 51.4626 15.5529H20.1463C19.8015 15.5553 19.4597 15.4896 19.1404 15.3596C18.821 15.2296 18.5305 15.0378 18.2855 14.7953C18.0404 14.5528 17.8456 14.2643 17.7123 13.9463C17.579 13.6284 17.5098 13.2872 17.5086 12.9424V11.6236C17.5098 11.2784 17.5789 10.9368 17.7122 10.6183C17.8454 10.2999 18.04 10.0108 18.2849 9.76751C18.5299 9.52426 18.8203 9.33164 19.1397 9.20064C19.4591 9.06964 19.8011 9.00284 20.1463 9.00403H51.4626C51.8078 9.00284 52.1498 9.06964 52.4692 9.20064C52.7886 9.33164 53.0791 9.52426 53.324 9.76751C53.5689 10.0108 53.7636 10.2999 53.8968 10.6183C54.03 10.9368 54.0991 11.2784 54.1003 11.6236L54.0549 12.897Z" fill="#AA7E30" stroke="black" stroke-width="0.75" stroke-miterlimit="10"/>
<path d="M65.3879 1.00007H7.08491C6.34597 0.996475 5.61358 1.13862 4.92963 1.41836C4.24568 1.6981 3.6236 2.10995 3.09897 2.63035C2.57435 3.15075 2.15749 3.76948 1.87222 4.45115C1.58696 5.13282 1.43891 5.86404 1.43652 6.60298V91.1196C1.44374 92.6113 2.04261 94.0391 3.10163 95.0896C4.16065 96.1401 5.59326 96.7274 7.08491 96.7226H65.3879C66.8733 96.7178 68.2966 96.1262 69.3477 95.0768C70.3989 94.0273 70.9928 92.605 71 91.1196V6.62117C71 5.13194 70.409 3.70356 69.3568 2.64966C68.3046 1.59576 66.8772 1.00248 65.3879 1.00007ZM54.4732 11.6238C54.472 11.9685 54.4028 12.3097 54.2694 12.6276C54.1361 12.9456 53.9413 13.2341 53.6963 13.4766C53.4512 13.7192 53.1607 13.9109 52.8414 14.0409C52.5221 14.1709 52.1802 14.2366 51.8354 14.2342H20.5828C20.2381 14.2366 19.8962 14.1709 19.5769 14.0409C19.2576 13.9109 18.967 13.7192 18.722 13.4766C18.4769 13.2341 18.2822 12.9456 18.1488 12.6276C18.0155 12.3097 17.9463 11.9685 17.9451 11.6238V10.3049C17.9463 9.96013 18.0155 9.61899 18.1488 9.30103C18.2822 8.98307 18.4769 8.69455 18.722 8.45203C18.967 8.20951 19.2576 8.01775 19.5769 7.88775C19.8962 7.75774 20.2381 7.69206 20.5828 7.69446H51.8536C52.1984 7.69206 52.5403 7.75774 52.8596 7.88775C53.1789 8.01775 53.4694 8.20951 53.7145 8.45203C53.9595 8.69455 54.1543 8.98307 54.2876 9.30103C54.4209 9.61899 54.4902 9.96013 54.4914 10.3049L54.4732 11.6238Z" fill="#F2CE86" stroke="black" stroke-width="0.75" stroke-miterlimit="10"/>
<path d="M36.9094 77.4034C37.7371 71.4184 38.2192 63.678 32.3616 60.2217C29.0235 58.2479 24.7213 60.8402 25.8491 64.6331" stroke="black" stroke-linecap="round" stroke-linejoin="round"/>
<path d="M43.2768 78.6404C40.6572 77.7309 37.7194 77.2852 35.5728 75.3387C36.355 73.6378 37.7375 70.609 35.5728 69.4448C36.8189 68.3988 35.2999 66.1158 33.8264 66.5523C34.2266 64.1511 31.0977 63.8236 29.5242 64.6786C28.3963 63.2142 25.6858 63.1506 25.1037 65.1334C24.3851 64.9333 23.9667 65.57 23.4938 65.852C22.7354 65.8732 21.9984 66.1082 21.3677 66.5298C20.7369 66.9513 20.238 67.5424 19.9283 68.235C15.5078 68.2805 12.6518 73.6197 15.8262 77.0669C14.2253 78.9315 14.4163 82.4151 17.0268 83.2337C16.6084 85.7805 18.6822 87.5269 21.0289 87.7816C22.0021 89.0368 24.8763 89.7189 25.7404 88.1181C26.1117 88.2742 26.5156 88.337 26.9167 88.3009C27.3179 88.2648 27.704 88.1309 28.0415 87.9111C28.3789 87.6912 28.6574 87.392 28.8524 87.0396C29.0475 86.6872 29.1532 86.2924 29.1604 85.8897C30.6066 85.9806 31.2614 84.589 31.6344 83.4066C34.4313 84.0002 37.1131 85.0447 39.5749 86.4991C39.7059 86.5979 39.8655 86.6514 40.0296 86.6514C40.1938 86.6514 40.3534 86.5979 40.4844 86.4991C41.6114 85.5596 42.4652 84.3345 42.9564 82.952C43.4477 81.5695 43.5583 80.0804 43.2768 78.6404Z" fill="#3CAD00" stroke="black" stroke-width="0.75" stroke-linecap="round" stroke-linejoin="round"/>
<path d="M24.9944 69.2171C24.7292 69.3467 24.489 69.5223 24.285 69.7356C24.0921 69.9382 23.9516 70.1849 23.8757 70.4541C23.8533 70.5866 23.8533 70.7219 23.8757 70.8544C23.8892 70.957 23.8892 71.061 23.8757 71.1636C23.8625 71.2428 23.8331 71.3185 23.7892 71.3858C23.7454 71.4531 23.6881 71.5106 23.621 71.5547C23.5193 71.6192 23.4042 71.6597 23.2845 71.673H23.0662C22.9723 71.7113 22.8884 71.7704 22.8206 71.8458C22.7544 71.9255 22.7096 72.0208 22.6905 72.1227C22.6714 72.2245 22.6786 72.3296 22.7114 72.4279C22.7422 72.4979 22.7443 72.5773 22.717 72.6487C22.6898 72.7202 22.6355 72.7781 22.5659 72.8099C22.5233 72.8301 22.4767 72.8406 22.4295 72.8406C22.3823 72.8406 22.3357 72.8301 22.293 72.8099C22.1496 72.7487 21.9914 72.7307 21.8379 72.7582C21.6844 72.7857 21.5423 72.8574 21.4289 72.9645C21.148 73.2242 20.9408 73.5538 20.8286 73.9196C20.5429 74.7031 20.4861 75.5517 20.6649 76.3663C20.2916 75.5642 20.2111 74.6566 20.4375 73.8013C20.5354 73.3456 20.7592 72.9265 21.0833 72.5916C21.2104 72.4606 21.3634 72.3573 21.5325 72.2884C21.7016 72.2195 21.8831 72.1865 22.0656 72.1914C22.076 71.9231 22.1716 71.665 22.3385 71.4547C22.4695 71.2806 22.6503 71.1506 22.857 71.0817H23.1207C23.1627 71.0911 23.2061 71.0911 23.2481 71.0817C23.2526 71.0212 23.2526 70.9604 23.2481 70.8998C23.2417 70.7062 23.2662 70.5127 23.3208 70.3268C23.44 69.9795 23.6431 69.6671 23.9121 69.4172C24.4387 68.9348 25.1261 68.6656 25.8403 68.6623C26.5053 68.6527 27.1678 68.7447 27.805 68.9352C27.1583 68.9003 26.5098 68.9247 25.8676 69.0079C25.5677 69.0336 25.2734 69.1041 24.9944 69.2171Z" fill="#0E3F00"/>
<path d="M28.9692 83.6794C29.2126 83.5427 29.4212 83.3518 29.5789 83.1215C29.7366 82.8913 29.8392 82.6278 29.8788 82.3515C29.8951 82.6615 29.8317 82.9705 29.6948 83.2491C29.5579 83.5278 29.3519 83.7667 29.0966 83.9432C28.8528 84.1083 28.5756 84.2175 28.2847 84.2631C27.9938 84.3087 27.6965 84.2895 27.4139 84.207C27.3097 84.3612 27.1769 84.4939 27.0228 84.5981C26.8184 84.7341 26.59 84.8298 26.3497 84.8801C25.8777 84.9659 25.3909 84.9122 24.949 84.7254C24.5141 84.545 24.1299 84.2609 23.8302 83.8977C23.6099 83.6301 23.4459 83.3207 23.3481 82.9882C23.2183 83.0324 23.0841 83.0629 22.9479 83.0791C22.6862 83.0966 22.4235 83.0626 22.1748 82.9791C21.6911 82.8011 21.2897 82.4515 21.0469 81.9968C20.8255 81.5676 20.7219 81.0874 20.7468 80.6051C20.767 80.1487 20.856 79.698 21.0106 79.2681C20.9652 79.7096 20.9652 80.1545 21.0106 80.596C21.0522 81.0197 21.1923 81.4278 21.4199 81.7876C21.6356 82.1089 21.9576 82.344 22.3294 82.4515C22.4983 82.5147 22.68 82.5361 22.8589 82.514C23.0379 82.4918 23.2089 82.4267 23.3572 82.3242C23.3834 82.2978 23.4146 82.2768 23.449 82.2626C23.4833 82.2483 23.5201 82.2409 23.5573 82.2409C23.5945 82.2409 23.6314 82.2483 23.6657 82.2626C23.7001 82.2768 23.7312 82.2978 23.7574 82.3242C23.7858 82.3627 23.8073 82.4058 23.8211 82.4515C23.8552 82.6401 23.9133 82.8235 23.9939 82.9973C24.0767 83.1624 24.1774 83.318 24.2941 83.4612C24.5457 83.7456 24.8561 83.9721 25.2036 84.1251C25.5421 84.2683 25.9126 84.3185 26.2769 84.2707C26.444 84.2569 26.6055 84.2035 26.7478 84.115C26.8902 84.0264 27.0094 83.9052 27.0955 83.7613C27.1082 83.7334 27.1264 83.7084 27.1489 83.6877C27.1715 83.667 27.198 83.6511 27.2269 83.6409C27.2558 83.6307 27.2864 83.6264 27.317 83.6284C27.3476 83.6303 27.3774 83.6384 27.4048 83.6522C27.6433 83.7846 27.9108 83.8563 28.1836 83.8611C28.4564 83.8658 28.7262 83.8035 28.9692 83.6794Z" fill="#0E3F00"/>
<path d="M32.6803 83.5975C27.032 87.2357 19.4644 91.4015 13.3248 87.8633C12.5273 87.443 11.885 86.7789 11.4915 85.9678C11.0981 85.1568 10.974 84.2412 11.1375 83.3547C11.301 82.4682 11.7435 81.6571 12.4004 81.0397C13.0573 80.4224 13.8943 80.031 14.7892 79.9229" stroke="black" stroke-linecap="round" stroke-linejoin="round"/>
<path d="M31.7706 76.8759C34.4279 76.8759 36.5822 74.7217 36.5822 72.0643C36.5822 69.4069 34.4279 67.2527 31.7706 67.2527C29.1132 67.2527 26.959 69.4069 26.959 72.0643C26.959 74.7217 29.1132 76.8759 31.7706 76.8759Z" fill="white" stroke="black" stroke-linecap="round" stroke-linejoin="round"/>
<path d="M28.6236 84.0795C31.281 84.0795 33.4352 81.9253 33.4352 79.2679C33.4352 76.6105 31.281 74.4563 28.6236 74.4563C25.9662 74.4563 23.812 76.6105 23.812 79.2679C23.812 81.9253 25.9662 84.0795 28.6236 84.0795Z" fill="white" stroke="black" stroke-linecap="round" stroke-linejoin="round"/>
<path d="M31.4159 78.4494C31.9735 78.4494 32.4255 77.9974 32.4255 77.4398C32.4255 76.8822 31.9735 76.4302 31.4159 76.4302C30.8583 76.4302 30.4062 76.8822 30.4062 77.4398C30.4062 77.9974 30.8583 78.4494 31.4159 78.4494Z" fill="black"/>
<path d="M35.1634 72.5554C35.721 72.5554 36.173 72.1033 36.173 71.5457C36.173 70.9882 35.721 70.5361 35.1634 70.5361C34.6058 70.5361 34.1538 70.9882 34.1538 71.5457C34.1538 72.1033 34.6058 72.5554 35.1634 72.5554Z" fill="black"/>
<path d="M37.0637 83.3427C36.427 82.0238 35.8903 80.0592 36.9363 78.7403C37.1236 78.5284 37.3511 78.3558 37.6056 78.2324C37.8601 78.1091 38.1366 78.0375 38.4189 78.0217L38.4644 78.0945C37.8981 78.808 37.4357 79.598 37.091 80.4412C36.9038 81.3926 36.9255 82.3732 37.1546 83.3154H37.0637V83.3427Z" fill="black"/>
<path d="M32.2436 30.8701C33.4261 24.9489 34.3629 17.2267 28.7418 13.452C25.531 11.2781 21.0833 13.6066 21.9747 17.4632" stroke="black" stroke-linecap="round" stroke-linejoin="round"/>
<path d="M38.565 32.4526C36 31.4339 33.1076 30.7608 31.0611 28.6961C31.9707 27.0498 33.5078 24.1483 31.3976 22.8112C32.6983 21.838 31.3158 19.464 29.815 19.8188C30.3698 17.4448 27.2955 16.9536 25.631 17.6904C24.5941 16.1623 21.9018 15.9349 21.1923 17.8814C20.492 17.6358 20.0372 18.2452 19.546 18.509C18.7878 18.4847 18.038 18.675 17.3831 19.058C16.7282 19.441 16.1948 20.001 15.8441 20.6738C11.4327 20.4555 8.26742 25.6127 11.2235 29.2419C9.52262 31.0064 9.50443 34.4991 12.0603 35.4724C11.4873 37.9827 13.4519 39.8474 15.7804 40.2112C16.69 41.521 19.5096 42.3668 20.4647 40.8206C20.825 41.0008 21.2241 41.0896 21.6268 41.0792C22.0295 41.0687 22.4235 40.9594 22.774 40.7608C23.1245 40.5622 23.4207 40.2804 23.6366 39.9403C23.8525 39.6002 23.9814 39.2122 24.012 38.8105C25.4491 38.9833 26.1858 37.628 26.6224 36.4729C29.3818 37.2422 31.9987 38.4523 34.3719 40.0566C34.489 40.1589 34.6349 40.2225 34.7895 40.2388C34.9442 40.2551 35.1001 40.2232 35.236 40.1475C36.433 39.2841 37.3744 38.1132 37.9604 36.7586C38.5464 35.404 38.7553 33.9162 38.565 32.4526Z" fill="#3CAD00" stroke="black" stroke-width="0.75" stroke-linecap="round" stroke-linejoin="round"/>
<path d="M20.8371 21.9744C20.5678 22.0907 20.3215 22.254 20.1094 22.4565C19.9023 22.6452 19.746 22.8829 19.6546 23.1478C19.6114 23.2736 19.5898 23.4058 19.5909 23.5389C19.6003 23.6418 19.6003 23.7453 19.5909 23.8481C19.5704 23.928 19.534 24.0029 19.484 24.0686C19.434 24.1342 19.3714 24.1891 19.2999 24.2301C19.1931 24.2876 19.0753 24.3217 18.9543 24.3302H18.7178C18.6217 24.365 18.5346 24.421 18.4631 24.4939C18.3914 24.5669 18.3403 24.6574 18.3147 24.7564C18.2892 24.8554 18.2902 24.9594 18.3176 25.0579C18.344 25.1302 18.3406 25.2101 18.3082 25.28C18.2758 25.3499 18.217 25.4041 18.1447 25.4308C18.1044 25.4531 18.059 25.4648 18.0129 25.4648C17.9667 25.4648 17.9214 25.4531 17.881 25.4308C17.7355 25.3574 17.5715 25.3286 17.4097 25.348C17.2479 25.3675 17.0954 25.4342 16.9714 25.5399C16.6754 25.7788 16.4492 26.093 16.3165 26.4495C15.9794 27.2117 15.8719 28.0557 16.0073 28.878C15.6806 28.0558 15.6516 27.1453 15.9254 26.304C16.053 25.857 16.3016 25.4541 16.644 25.1397C16.7804 25.0172 16.9401 24.9235 17.1136 24.8641C17.287 24.8047 17.4707 24.7809 17.6536 24.7941C17.6775 24.5277 17.7858 24.276 17.9628 24.0755C18.1041 23.9123 18.291 23.7951 18.4995 23.739C18.5902 23.7299 18.6816 23.7299 18.7723 23.739H18.8997C18.9041 23.6815 18.9041 23.6237 18.8997 23.5662C18.9078 23.3738 18.9446 23.1838 19.0088 23.0022C19.1398 22.6472 19.3626 22.3334 19.6546 22.0927C20.205 21.6388 20.9073 21.4112 21.6193 21.456C22.2828 21.4917 22.938 21.6203 23.5657 21.838C22.9241 21.7834 22.2791 21.7834 21.6375 21.838C21.3662 21.8517 21.0975 21.8975 20.8371 21.9744Z" fill="#0E3F00"/>
<path d="M23.948 36.6276C24.2086 36.5115 24.4382 36.3357 24.6184 36.1145C24.7985 35.8933 24.9241 35.6329 24.9849 35.3542C24.9799 35.6686 24.8934 35.9762 24.734 36.2472C24.5746 36.5182 24.3477 36.7433 24.0754 36.9004C23.8208 37.0501 23.5363 37.1416 23.2423 37.1683C22.9482 37.1951 22.6519 37.1564 22.3745 37.0551C22.268 37.2087 22.1281 37.3362 21.9652 37.428C21.7547 37.5562 21.5188 37.6369 21.2739 37.6645C20.7978 37.7263 20.314 37.6473 19.8823 37.4371C19.4602 37.2229 19.0954 36.9111 18.8181 36.5275C18.6204 36.2523 18.4726 35.9444 18.3815 35.618C18.2557 35.6612 18.1234 35.6827 17.9904 35.6816C17.725 35.6926 17.4606 35.6428 17.2173 35.5361C16.7416 35.3334 16.3588 34.9604 16.144 34.4901C15.9522 34.0497 15.88 33.5666 15.9348 33.0894C15.981 32.6345 16.0976 32.1896 16.2804 31.7705C16.1986 32.2082 16.162 32.6532 16.1713 33.0985C16.1917 33.5218 16.3067 33.9351 16.5078 34.3082C16.7187 34.6458 17.0401 34.8998 17.4174 35.0267C17.5811 35.1 17.7601 35.1324 17.9391 35.1214C18.1181 35.1103 18.2918 35.056 18.4452 34.9631C18.4992 34.9119 18.5708 34.8834 18.6453 34.8834C18.7197 34.8834 18.7913 34.9119 18.8454 34.9631C18.8727 35.001 18.8913 35.0445 18.9 35.0904C18.9247 35.2778 18.9737 35.4613 19.0455 35.6362C19.1165 35.8074 19.2081 35.9693 19.3184 36.1182C19.539 36.4183 19.8252 36.6641 20.1552 36.8368C20.4815 37.0006 20.8461 37.0729 21.2103 37.046C21.3794 37.0422 21.5452 36.9981 21.6939 36.9174C21.8425 36.8368 21.9699 36.7218 22.0652 36.5821C22.0956 36.5305 22.1451 36.4929 22.203 36.4776C22.2609 36.4623 22.3226 36.4704 22.3745 36.5002C22.6067 36.6478 22.8713 36.7365 23.1455 36.7587C23.4197 36.7809 23.6952 36.7359 23.948 36.6276Z" fill="#0E3F00"/>
<path d="M27.6596 36.7642C21.8111 40.0568 14.0161 43.7679 8.08575 39.8749C7.31009 39.4096 6.70405 38.7078 6.35663 37.8726C6.00921 37.0374 5.9387 36.1129 6.15545 35.2347C6.3722 34.3564 6.8648 33.5709 7.56092 32.9933C8.25704 32.4156 9.12 32.0764 10.0231 32.0254" stroke="black" stroke-linecap="round" stroke-linejoin="round"/>
<path d="M27.4415 30.006C30.0988 30.006 32.2531 27.8518 32.2531 25.1944C32.2531 22.537 30.0988 20.3828 27.4415 20.3828C24.7841 20.3828 22.6299 22.537 22.6299 25.1944C22.6299 27.8518 24.7841 30.006 27.4415 30.006Z" fill="white" stroke="black" stroke-linecap="round" stroke-linejoin="round"/>
<path d="M23.8663 37.0097C26.5236 37.0097 28.6779 34.8554 28.6779 32.1981C28.6779 29.5407 26.5236 27.3865 23.8663 27.3865C21.2089 27.3865 19.0547 29.5407 19.0547 32.1981C19.0547 34.8554 21.2089 37.0097 23.8663 37.0097Z" fill="white" stroke="black" stroke-linecap="round" stroke-linejoin="round"/>
<path d="M23.0205 31.2247C24.0453 31.2247 24.8761 30.394 24.8761 29.3692C24.8761 28.3444 24.0453 27.5137 23.0205 27.5137C21.9958 27.5137 21.165 28.3444 21.165 29.3692C21.165 30.394 21.9958 31.2247 23.0205 31.2247Z" fill="black"/>
<path d="M26.5225 24.1485C27.5473 24.1485 28.378 23.3178 28.378 22.293C28.378 21.2682 27.5473 20.4375 26.5225 20.4375C25.4977 20.4375 24.667 21.2682 24.667 22.293C24.667 23.3178 25.4977 24.1485 26.5225 24.1485Z" fill="black"/>
<path d="M28.7231 35.5088C31.2335 34.7812 31.9066 32.7347 32.6979 30.5244H32.7889C33.0293 31.0997 33.0833 31.7359 32.9435 32.3435C32.6344 33.2357 32.0693 34.0169 31.3186 34.5896C30.568 35.1622 29.6652 35.501 28.7231 35.5634V35.4815V35.5088Z" fill="black"/>
<path d="M42.4672 50.6166C41.4758 44.659 40.7754 36.9732 46.5239 33.3349C49.8074 31.2611 54.1733 33.7351 53.1546 37.5553" stroke="black" stroke-linecap="round" stroke-linejoin="round"/>
<path d="M36.0998 51.9991C38.6921 51.0896 41.6118 50.4801 43.7129 48.4791C42.8852 46.8055 41.4117 43.813 43.5673 42.5942C42.3031 41.5755 43.7584 39.2561 45.2409 39.6563C44.768 37.2551 47.8605 36.8731 49.4886 37.6644C50.5801 36.1636 53.2815 36.0272 53.9182 37.9918C54.6367 37.7735 55.0642 38.3921 55.5554 38.6649C56.3147 38.6668 57.0583 38.8818 57.7015 39.2854C58.3447 39.689 58.8617 40.265 59.1936 40.9479C63.6141 40.8752 66.5975 46.1324 63.5323 49.6615C65.1786 51.4807 65.0876 54.9734 62.5045 55.8648C62.9865 58.3934 60.9673 60.1943 58.6206 60.4763C57.7111 61.7678 54.8277 62.5228 53.9273 60.9492C53.5606 61.1162 53.1587 61.1907 52.7566 61.1663C52.3545 61.1419 51.9645 61.0193 51.6208 60.8093C51.277 60.5993 50.99 60.3082 50.7848 59.9616C50.5796 59.6149 50.4624 59.2233 50.4436 58.8209C49.0065 58.9482 48.3153 57.5657 47.906 56.4014C45.1238 57.0793 42.4698 58.2035 40.0473 59.7304C39.9234 59.8387 39.7674 59.9036 39.6032 59.9151C39.439 59.9266 39.2756 59.8841 39.1378 59.7941C37.9726 58.892 37.0745 57.6902 36.5394 56.3173C36.0044 54.9443 35.8524 53.4518 36.0998 51.9991Z" fill="#3CAD00" stroke="black" stroke-width="0.75" stroke-linecap="round" stroke-linejoin="round"/>
<path d="M54.1912 42.094C54.4594 42.2193 54.7028 42.3918 54.9098 42.6034C55.1114 42.7988 55.2587 43.0433 55.3373 43.3128C55.3738 43.44 55.3922 43.5716 55.3918 43.7039C55.3785 43.8066 55.3785 43.9105 55.3918 44.0132C55.4291 44.1714 55.5271 44.3087 55.6647 44.3952C55.769 44.4598 55.8878 44.4973 56.0103 44.5043H56.2195C56.318 44.5343 56.4061 44.5909 56.4742 44.6681C56.5412 44.7456 56.588 44.8385 56.6102 44.9385C56.6324 45.0385 56.6295 45.1425 56.6016 45.2411C56.5737 45.3125 56.5742 45.3918 56.6029 45.4628C56.6317 45.5339 56.6865 45.5912 56.7562 45.6231C56.7966 45.6454 56.8419 45.6571 56.8881 45.6571C56.9342 45.6571 56.9796 45.6454 57.02 45.6231C57.1681 45.5533 57.3335 45.5291 57.4954 45.5534C57.6573 45.5777 57.8084 45.6494 57.9295 45.7595C58.2121 46.005 58.428 46.3179 58.5571 46.6691C58.8677 47.4392 58.9467 48.2833 58.7845 49.0976C59.1375 48.2881 59.1954 47.3805 58.9482 46.5327C58.8312 46.0817 58.5957 45.6703 58.2661 45.3411C58.1334 45.2169 57.9776 45.12 57.8075 45.056C57.6374 44.992 57.4563 44.9622 57.2746 44.9682C57.2527 44.7003 57.1478 44.446 56.9745 44.2406C56.8421 44.072 56.6611 43.9482 56.456 43.8858C56.3653 43.8769 56.2739 43.8769 56.1832 43.8858C56.1412 43.8952 56.0977 43.8952 56.0558 43.8858C56.0511 43.8283 56.0511 43.7705 56.0558 43.713C56.053 43.5216 56.0224 43.3317 55.9649 43.1491C55.8393 42.7983 55.6265 42.4852 55.3464 42.2395C54.8088 41.7695 54.1137 41.5194 53.3999 41.5392C52.736 41.5496 52.0772 41.6568 51.4443 41.8575C52.0859 41.8029 52.731 41.8029 53.3726 41.8575C53.6543 41.9019 53.9293 41.9813 54.1912 42.094Z" fill="#0E3F00"/>
<path d="M50.5534 56.6381C50.2953 56.5139 50.0701 56.3306 49.8963 56.103C49.7224 55.8754 49.6048 55.61 49.5529 55.3283C49.5447 55.6395 49.6165 55.9476 49.7614 56.2231C49.9063 56.4986 50.1195 56.7323 50.3806 56.9019C50.6304 57.0614 50.9125 57.1637 51.2066 57.2015C51.5006 57.2392 51.7994 57.2115 52.0815 57.1202C52.1835 57.2736 52.3168 57.4038 52.4726 57.5022C52.6819 57.6311 52.9131 57.7205 53.1547 57.766C53.6303 57.8399 54.1171 57.7735 54.5555 57.5749C54.9821 57.3808 55.3563 57.0877 55.647 56.7199C55.8546 56.4469 56.0117 56.1388 56.1108 55.8104C56.236 55.8573 56.3683 55.8819 56.5019 55.8832C56.7653 55.9033 57.0298 55.8629 57.2751 55.7649C57.7544 55.5728 58.1483 55.2144 58.3847 54.7553C58.5869 54.3175 58.6745 53.8355 58.6394 53.3546C58.6034 52.8998 58.5023 52.4526 58.3393 52.0266C58.4056 52.4659 58.4269 52.9109 58.4029 53.3546C58.3734 53.7796 58.2424 54.1913 58.0209 54.5552C57.8137 54.8902 57.4896 55.1365 57.1114 55.2465C56.9446 55.3136 56.7641 55.3395 56.5852 55.3221C56.4063 55.3047 56.2342 55.2444 56.0835 55.1464C56.0544 55.1228 56.0209 55.1051 55.9849 55.0946C55.9489 55.0841 55.9112 55.0808 55.8739 55.0851C55.8366 55.0893 55.8006 55.1009 55.7678 55.1193C55.7351 55.1376 55.7064 55.1623 55.6833 55.1919C55.656 55.2298 55.6374 55.2733 55.6288 55.3192C55.6021 55.5084 55.5469 55.6924 55.465 55.865C55.3887 56.0325 55.2942 56.1911 55.1831 56.3379C54.9513 56.6287 54.6556 56.8621 54.319 57.0201C53.9869 57.1749 53.6194 57.2377 53.2548 57.202C53.0869 57.1902 52.924 57.1397 52.7788 57.0545C52.6337 56.9693 52.5102 56.8517 52.418 56.7109C52.4037 56.6845 52.3844 56.6613 52.3611 56.6425C52.3378 56.6236 52.311 56.6096 52.2823 56.6011C52.2535 56.5927 52.2234 56.59 52.1936 56.5932C52.1639 56.5964 52.135 56.6055 52.1087 56.6199C51.8701 56.7479 51.6041 56.8163 51.3333 56.8195C51.0625 56.8227 50.795 56.7604 50.5534 56.6381Z" fill="#0E3F00"/>
<path d="M46.8604 56.6563C52.5997 60.1308 60.2855 64.0965 66.325 60.3855C67.11 59.9424 67.733 59.2601 68.1029 58.4381C68.4729 57.6161 68.5706 56.6974 68.3817 55.816C68.1928 54.9346 67.7273 54.1366 67.053 53.5383C66.3787 52.9401 65.5309 52.573 64.6332 52.4905" stroke="black" stroke-linecap="round" stroke-linejoin="round"/>
<path d="M47.4517 49.9164C50.1091 49.9164 52.2633 47.7622 52.2633 45.1048C52.2633 42.4474 50.1091 40.2932 47.4517 40.2932C44.7944 40.2932 42.6401 42.4474 42.6401 45.1048C42.6401 47.7622 44.7944 49.9164 47.4517 49.9164Z" fill="white" stroke="black" stroke-linecap="round" stroke-linejoin="round"/>
<path d="M50.7984 57.0292C53.4558 57.0292 55.61 54.875 55.61 52.2176C55.61 49.5602 53.4558 47.406 50.7984 47.406C48.141 47.406 45.9868 49.5602 45.9868 52.2176C45.9868 54.875 48.141 57.0292 50.7984 57.0292Z" fill="white" stroke="black" stroke-linecap="round" stroke-linejoin="round"/>
<path d="M51.7266 51.2716C52.7514 51.2716 53.5821 50.4408 53.5821 49.4161C53.5821 48.3913 52.7514 47.5605 51.7266 47.5605C50.7018 47.5605 49.8711 48.3913 49.8711 49.4161C49.8711 50.4408 50.7018 51.2716 51.7266 51.2716Z" fill="black"/>
<path d="M48.461 44.086C49.4857 44.086 50.3165 43.2553 50.3165 42.2305C50.3165 41.2057 49.4857 40.375 48.461 40.375C47.4362 40.375 46.6055 41.2057 46.6055 42.2305C46.6055 43.2553 47.4362 44.086 48.461 44.086Z" fill="black"/>
<path d="M45.8142 55.4554C43.4857 55.2644 40.757 52.7267 41.9304 50.2527H42.0213C42.3442 51.3077 42.7424 52.3381 43.2128 53.3361C43.8402 54.279 44.7609 54.9887 45.8324 55.3553V55.4463L45.8142 55.4554Z" fill="black"/>
</svg>
