<svg width="126" height="152" viewBox="0 0 126 152" fill="none" xmlns="http://www.w3.org/2000/svg">
<path d="M125.344 41.9442C125.739 19.3413 114.206 1 91.9143 1C85.9406 1.00913 80.0455 2.36224 74.6658 4.95909C71.0963 6.665 67.1902 7.55042 63.234 7.55042C59.2778 7.55042 55.3718 6.665 51.8022 4.95909C46.4225 2.36224 40.5274 1.00913 34.5537 1C12.2701 1 -0.355235 19.3749 1.11577 41.9442C2.67923 65.8921 13.0687 90.2267 16.9437 103.087C23.9961 126.556 31.8387 151 38.2186 151C46.2208 151 50.4657 136.895 59.2329 112.544C61.3175 106.735 65.6296 106.937 67.4117 112.838C73.4217 132.575 80.3481 151 88.2578 151C94.663 151 102.195 126.497 109.533 103.087C113.66 89.9241 124.932 65.5979 125.344 41.9442Z" fill="#B3FFFF" stroke="#201600" stroke-width="0.5" stroke-miterlimit="10"/>
<path d="M43.5391 8.10254C53.71 17.3488 71.2779 16.6175 82.9282 10.6243C72.6396 19.3662 51.8187 19.8033 43.5391 8.10254Z" fill="#201600"/>
<path d="M52.0289 55.1742C50.2806 98.4552 74.9261 92.6637 70.2862 52.5264" stroke="#201600" stroke-width="0.5" stroke-linecap="round" stroke-linejoin="round"/>
<path d="M25.6102 77.609C34.4585 77.609 41.6315 70.436 41.6315 61.5877C41.6315 52.7394 34.4585 45.5664 25.6102 45.5664C16.7618 45.5664 9.58887 52.7394 9.58887 61.5877C9.58887 70.436 16.7618 77.609 25.6102 77.609Z" fill="#FF6C7A"/>
<path d="M99.0506 77.8287C107.899 77.8287 115.072 70.6557 115.072 61.8074C115.072 52.9591 107.899 45.7861 99.0506 45.7861C90.2023 45.7861 83.0293 52.9591 83.0293 61.8074C83.0293 70.6557 90.2023 77.8287 99.0506 77.8287Z" fill="#FF6C7A"/>
<path d="M34.3687 27.7209C32.4811 27.9508 30.6573 28.5506 29.0017 29.4859C27.3461 30.4213 25.8912 31.6739 24.7201 33.1721C23.549 34.6702 22.6848 36.3846 22.1769 38.2171C21.669 40.0496 21.5274 41.9642 21.7601 43.8514C21.8675 44.7452 22.0617 45.6264 22.3401 46.4824C31.2418 45.894 37.1762 49.7523 40.1434 55.9389C43.6428 54.9318 46.633 52.6406 48.5157 49.5236C50.3984 46.4066 51.0348 42.6937 50.2976 39.1277C49.5604 35.5616 47.5039 32.4054 44.5396 30.2905C41.5753 28.1755 37.9217 27.2578 34.3098 27.7209H34.3687Z" fill="white" stroke="#201600" stroke-width="0.5" stroke-linecap="round" stroke-linejoin="round"/>
<path d="M35.9153 47.0464C38.8864 47.0464 41.295 44.6379 41.295 41.6668C41.295 38.6957 38.8864 36.2871 35.9153 36.2871C32.9442 36.2871 30.5356 38.6957 30.5356 41.6668C30.5356 44.6379 32.9442 47.0464 35.9153 47.0464Z" fill="#201600"/>
<path d="M90.3425 27.7216C94.1302 28.1723 97.5846 30.1067 99.9483 33.1006C102.312 36.0945 103.392 39.9035 102.951 43.6924C102.834 44.6495 102.623 45.5927 102.321 46.5084C93.4358 45.9284 87.5014 49.7782 84.5341 56.0152C80.9705 55.0656 77.9049 52.7894 75.9652 49.6527C74.0255 46.516 73.3586 42.7564 74.1011 39.144C74.8436 35.5315 76.9392 32.3397 79.9588 30.2223C82.9783 28.105 86.6932 27.2223 90.3425 27.7552V27.7216Z" fill="white" stroke="#201600" stroke-width="0.5" stroke-linecap="round" stroke-linejoin="round"/>
<path d="M88.8128 47.0464C91.7839 47.0464 94.1924 44.6379 94.1924 41.6668C94.1924 38.6957 91.7839 36.2871 88.8128 36.2871C85.8417 36.2871 83.4331 38.6957 83.4331 41.6668C83.4331 44.6379 85.8417 47.0464 88.8128 47.0464Z" fill="#201600"/>
</svg>
