<svg width="171" height="151" viewBox="0 0 171 151" fill="none" xmlns="http://www.w3.org/2000/svg">
<path d="M87.4352 150.388C104.847 150.413 121.871 145.25 136.335 135.558C132.485 123.958 127.335 112.558 121.115 107.968C98.2152 91.1882 41.7552 91.7782 11.6152 107.188C19.4105 120.356 30.5024 131.265 43.7979 138.84C57.0933 146.416 72.1332 150.396 87.4352 150.388Z" fill="#EFBB18"/>
<g opacity="0.21">
<path d="M48.8552 136.537C48.0352 134.747 47.5452 132.167 49.9452 131.537C51.2952 131.167 52.8052 131.477 54.1852 131.287C56.0942 131.024 57.954 130.482 59.7052 129.677C56.3452 129.377 53.1352 128.297 50.9452 125.507C49.609 123.832 48.7625 121.819 48.4995 119.693C48.2365 117.566 48.5673 115.408 49.4552 113.457C51.6352 108.667 56.1752 104.977 59.9352 101.457C62.1452 99.3974 64.4252 97.3873 66.8152 95.5273C46.7652 95.7873 26.1352 99.7673 11.6152 107.187C20.978 122.944 34.9994 135.407 51.7452 142.857C50.8152 140.737 49.8352 138.647 48.8552 136.537Z" fill="black"/>
</g>
<path d="M121.335 107.758C98.0147 90.6681 41.5947 91.6781 11.5547 106.978C11.6347 107.118 11.7147 107.258 11.8047 107.398C26.8047 99.7481 48.4047 95.6881 69.1447 95.6881C89.8847 95.6881 109.475 99.6881 121.035 108.168C127.195 112.688 132.325 124.108 136.175 135.718L136.595 135.438C132.665 123.788 127.505 112.328 121.335 107.758Z" fill="black"/>
<path d="M170.445 91.8377L170.635 88.2077C170.653 87.8794 170.593 87.5516 170.458 87.2518C170.323 86.952 170.118 86.689 169.86 86.4851C169.602 86.2811 169.299 86.1422 168.976 86.08C168.653 86.0178 168.32 86.0342 168.005 86.1277L148.335 91.8477L130.685 139.028C149.179 128.587 163.293 111.835 170.445 91.8377Z" fill="#EFBB18"/>
<g opacity="0.21">
<path d="M149.145 117.128C150.157 113.106 151.529 109.183 153.245 105.408C153.815 104.258 156.065 101.968 155.805 100.758C155.645 99.9976 154.095 99.4476 153.465 98.8476C153.415 98.7901 153.379 98.7222 153.359 98.649C153.339 98.5758 153.336 98.499 153.349 98.4242C153.363 98.3495 153.392 98.2786 153.437 98.2169C153.481 98.1552 153.539 98.1042 153.605 98.0676C157.145 96.4976 161.325 97.3376 164.685 95.4476C160.745 95.0176 153.895 93.5176 153.805 90.2676L148.335 91.8476L130.685 139.028C136.387 135.808 141.71 131.961 146.555 127.558C147.335 124.048 148.145 120.578 149.145 117.128Z" fill="black"/>
</g>
<path d="M78.5951 106.048C79.9851 121.268 71.5351 128.728 60.3651 129.748C49.1951 130.768 39.5351 124.968 38.1451 109.748C36.7551 94.5282 44.1451 75.6482 55.3351 74.6282C66.5251 73.6082 77.2051 90.8282 78.5951 106.048Z" fill="#FFE4D9"/>
<g opacity="0.21">
<path d="M52.0348 124.048C51.5108 123.025 51.3024 121.87 51.4359 120.729C51.5694 119.588 52.0389 118.512 52.7848 117.638C54.7848 115.348 58.2648 114.768 61.0448 114.088C67.4448 112.528 75.0948 111.008 78.4648 104.838C76.6348 89.9279 66.2048 73.6379 55.3348 74.6279C44.1648 75.6279 36.7548 94.5279 38.1448 109.748C39.5348 124.968 49.1448 130.748 60.3648 129.748C60.8781 129.695 61.3781 129.635 61.8648 129.568C57.8848 128.938 53.7948 127.418 52.0348 124.048Z" fill="black"/>
</g>
<path d="M57.845 130.118C46.465 130.118 39.075 122.668 37.895 109.768C37.2698 101.896 38.6135 93.9917 41.805 86.7682C45.215 79.2682 50.015 74.8782 55.305 74.3882C60.595 73.8982 66.115 77.3882 70.835 84.1182C75.2816 90.6466 78.0312 98.1803 78.835 106.038C79.495 113.318 77.995 119.158 74.375 123.398C71.135 127.178 66.295 129.468 60.375 130.008C59.5216 130.082 58.6783 130.118 57.845 130.118ZM56.335 74.8382C56.015 74.8382 55.705 74.8382 55.395 74.8382C50.285 75.3082 45.635 79.5982 42.295 86.9282C39.1362 94.076 37.8095 101.899 38.435 109.688C39.635 123.248 47.835 130.638 60.335 129.498C66.115 128.968 70.835 126.748 73.995 123.058C77.525 118.928 78.995 113.218 78.335 106.058C77.5352 98.2862 74.8134 90.8356 70.415 84.3782C66.095 78.1882 61.115 74.8382 56.335 74.8382Z" fill="black"/>
<path d="M170.745 91.0082L170.875 88.3782C170.897 87.9921 170.826 87.6064 170.668 87.2535C170.51 86.9006 170.269 86.5909 169.966 86.3507C169.663 86.1104 169.307 85.9466 168.927 85.8731C168.547 85.7995 168.156 85.8185 167.785 85.9282L148.185 91.6382L130.385 139.188L131.055 138.818L148.575 92.0182L168.035 86.3482C168.316 86.2666 168.613 86.2534 168.901 86.3098C169.189 86.3663 169.459 86.4907 169.689 86.6727C169.919 86.8547 170.102 87.089 170.223 87.3561C170.344 87.6232 170.4 87.9153 170.385 88.2082L170.155 92.6382C170.335 92.1182 170.555 91.5682 170.745 91.0082Z" fill="black"/>
<path d="M159.435 51.0783C158.435 50.5483 142.925 53.4283 143.045 56.0783L143.885 74.2783V74.9083C139.885 75.1083 131.885 69.3483 123.035 69.6083C122.248 69.5813 121.479 69.8544 120.885 70.3723C120.291 70.8902 119.916 71.6143 119.835 72.3983C119.725 74.0483 132.645 77.8283 136.965 82.2783C141.435 86.8683 147.855 92.5083 153.035 94.0983C157.245 95.3883 168.675 90.9083 168.875 88.0983C169.135 84.6483 164.405 53.7783 159.435 51.0783Z" fill="#FFE4D9"/>
<g opacity="0.21">
<path d="M162.855 91.708C160.605 90.708 159.665 88.438 159.355 86.098C158.975 83.168 159.075 80.098 158.985 77.098C158.733 74.2015 159.179 71.2868 160.285 68.598C159.038 67.9268 158.079 66.8249 157.585 65.498C156.835 63.308 158.095 61.608 158.085 59.498C156.775 59.958 155.145 60.678 154.155 59.438C153.355 58.438 153.365 56.628 153.155 55.438C152.867 54.2913 152.644 53.1295 152.485 51.958C147.995 52.958 143.025 54.518 143.095 56.018L143.935 74.218V74.848C139.935 75.048 131.935 69.288 123.085 69.548C122.297 69.5211 121.529 69.7941 120.935 70.312C120.341 70.83 119.966 71.5541 119.885 72.338C119.775 73.988 132.695 77.768 137.015 82.218C141.485 86.808 147.905 92.448 153.085 94.038C155.475 94.768 160.195 93.648 163.865 92.038C163.519 91.9571 163.182 91.8467 162.855 91.708Z" fill="black"/>
</g>
<path d="M154.905 94.5678C154.257 94.5791 153.61 94.4983 152.985 94.3278C147.265 92.5778 140.405 86.1278 136.815 82.4378C134.485 80.0378 129.565 77.8078 125.605 76.0278C121.645 74.2478 119.605 73.2478 119.605 72.3678C119.698 71.5274 120.103 70.7525 120.74 70.1968C121.377 69.6411 122.2 69.3452 123.045 69.3678C128.335 69.1878 133.335 71.1878 137.335 72.7478C139.865 73.7478 142.075 74.6378 143.645 74.6578V74.2778L142.805 56.0778C142.805 55.5678 143.165 55.0778 143.985 54.5578C147.425 52.4078 158.615 50.3478 159.565 50.8578C164.705 53.6578 169.405 84.4578 169.155 88.1078C169.105 88.8478 168.425 89.6778 167.155 90.5778C163.477 92.9271 159.261 94.3004 154.905 94.5678ZM123.655 69.8378H123.075C122.343 69.8028 121.625 70.0481 121.068 70.5238C120.511 70.9994 120.156 71.6695 120.075 72.3978C120.075 72.9678 123.075 74.3978 125.775 75.5578C129.775 77.3578 134.775 79.6078 137.135 82.0778C140.685 85.7378 147.475 92.0778 153.135 93.8378C156.135 94.7778 163.335 92.5578 166.835 90.1578C167.965 89.3778 168.615 88.6278 168.655 88.0578C168.895 84.4878 164.165 53.9278 159.315 51.2878C158.515 50.9378 147.315 52.8578 144.065 55.0878C143.545 55.4378 143.285 55.7678 143.295 56.0878L144.185 75.1678H143.935C142.225 75.2378 139.935 74.3178 137.165 73.2378C133.335 71.7078 128.655 69.8378 123.655 69.8378Z" fill="black"/>
<path d="M9.92492 72.4477C9.99492 75.8677 9.23492 79.3977 10.5549 82.5277C11.2649 84.2377 12.5549 85.6577 13.3349 87.3477C14.8149 90.5378 14.3349 94.3477 15.7749 97.5877C17.8649 102.368 23.4149 104.678 26.2649 109.048C27.2649 110.528 27.8949 112.258 29.2649 113.328C31.1849 114.798 33.6149 114.478 35.8649 114.408C37.8162 114.433 39.761 114.637 41.6749 115.018C45.8149 115.588 49.6749 112.878 53.8349 113.678C56.9449 114.278 59.4449 116.938 62.6049 117.148C65.5049 117.338 68.0649 115.428 70.8249 114.528C74.1949 113.418 78.0749 113.758 81.0349 111.808C84.7249 109.398 85.6749 104.328 88.8849 101.308C91.3449 98.9877 94.9449 98.0677 97.1649 95.5177C100.165 92.0677 99.7349 86.9077 100.945 82.5177C102.285 77.6677 105.755 73.4077 106.025 68.3877C106.215 64.6277 104.565 61.0277 104.025 57.3077C103.255 52.4277 104.275 47.1877 102.225 42.6977C100.935 39.8577 98.5549 37.6977 97.0249 34.9577C95.0249 31.3477 94.5849 27.0377 92.8649 23.2577C91.1375 19.48 88.1845 16.3967 84.4849 14.5077C82.6349 13.5677 80.5449 12.8877 79.1649 11.3377C78.2971 10.1099 77.5153 8.82346 76.8249 7.48774C75.0949 4.86774 72.1049 3.35774 69.0949 2.48774C62.1649 0.487744 55.8549 0.827746 48.7749 0.287746C43.6549 -0.112255 40.3949 2.66775 35.9149 4.88775C30.4949 7.58775 23.6449 8.49775 20.2649 13.5177C18.3249 16.4077 17.9949 20.1177 16.1649 23.0677C14.5149 25.7277 11.7449 27.6577 10.6249 30.5777C9.17492 34.3877 10.9649 38.5777 11.0749 42.6577C11.2649 49.0777 7.25492 55.1377 7.81492 61.5377C8.09492 64.7877 9.54492 67.8477 9.81492 71.0977C9.89492 71.5277 9.91492 71.9877 9.92492 72.4477Z" fill="#FFE4D9"/>
<g opacity="0.21">
<path d="M46.3347 113.328C44.9347 112.258 44.2647 110.528 43.3347 109.048C40.4847 104.678 34.9347 102.368 32.8447 97.5882C31.4347 94.3582 31.8447 90.5382 30.4047 87.3482C29.6147 85.6582 28.3347 84.2382 27.6247 82.5282C26.3047 79.3982 27.0647 75.8682 26.9947 72.4482C26.9947 71.9882 26.9947 71.5282 26.9147 71.0782C26.5947 67.8282 25.1447 64.7682 24.8647 61.5182C24.3047 55.1182 28.3147 49.0582 28.1247 42.6382C28.0147 38.5682 26.2247 34.3682 27.6747 30.5582C28.7947 27.6382 31.5647 25.7082 33.2147 23.0482C35.0447 20.0482 35.3747 16.3882 37.3147 13.4982C40.6947 8.49822 47.5447 7.56821 52.9647 4.86821C55.7747 3.47821 58.1047 1.86821 60.7047 0.958215C56.8247 0.598215 52.9547 0.578214 48.8247 0.268214C43.7047 -0.131786 40.4447 2.64821 35.9647 4.86821C30.5447 7.56821 23.6947 8.47822 20.3147 13.4982C18.3747 16.3882 18.0447 20.0982 16.2147 23.0482C14.5647 25.7082 11.7947 27.6382 10.6747 30.5582C9.22472 34.3682 11.0147 38.5582 11.1247 42.6382C11.3147 49.0582 7.30472 55.1182 7.86472 61.5182C8.14472 64.7682 9.59472 67.8282 9.86472 71.0782C9.91472 71.5282 9.93472 71.9882 9.94472 72.4482C10.0147 75.8682 9.25472 79.3982 10.5747 82.5282C11.2847 84.2382 12.5747 85.6582 13.3547 87.3482C14.8347 90.5382 14.3547 94.3482 15.7947 97.5882C17.8847 102.368 23.4347 104.678 26.2847 109.048C27.2847 110.528 27.9147 112.258 29.2847 113.328C31.2047 114.798 33.6347 114.478 35.8847 114.408C37.836 114.433 39.7808 114.638 41.6947 115.018C43.8518 115.157 46.0152 114.875 48.0647 114.188C47.4382 114.015 46.8508 113.723 46.3347 113.328Z" fill="black"/>
</g>
<path d="M63.0449 117.408H62.6149C60.8893 117.163 59.2377 116.545 57.7749 115.598C56.5512 114.843 55.2191 114.28 53.8249 113.928C51.7469 113.686 49.6413 113.901 47.6549 114.558C45.7206 115.185 43.6827 115.429 41.6549 115.278L40.2049 115.058C38.7819 114.781 37.3344 114.65 35.8849 114.668H35.0449C33.0449 114.758 30.8749 114.848 29.1249 113.508C28.1516 112.654 27.3593 111.613 26.7949 110.448C26.5449 110.018 26.2949 109.578 26.0349 109.168C24.6746 107.277 23.0477 105.593 21.2049 104.168C18.9949 102.278 16.7049 100.328 15.5249 97.6278C14.9039 95.9909 14.5004 94.2796 14.3249 92.5378C14.1678 90.7693 13.75 89.0339 13.0849 87.3877C12.708 86.6246 12.2769 85.8894 11.7949 85.1878C11.2366 84.3773 10.7481 83.5209 10.3349 82.6278C9.33491 80.3378 9.50491 77.8078 9.62491 75.3678C9.62491 74.3678 9.71491 73.3678 9.69491 72.4478C9.69491 71.9578 9.69491 71.5178 9.62491 71.0978C9.42233 69.5258 9.08782 67.9736 8.62491 66.4577C8.13983 64.8523 7.80505 63.2052 7.62491 61.5377C7.33491 58.1677 8.29491 54.8477 9.23491 51.6377C10.2527 48.7426 10.8095 45.7056 10.8849 42.6377C10.7951 41.2436 10.6114 39.8571 10.3349 38.4878C9.88491 35.8078 9.42491 33.0377 10.4049 30.4877C11.1726 28.789 12.2473 27.2465 13.5749 25.9377C14.4589 25.0132 15.2557 24.0089 15.9549 22.9377C16.7715 21.497 17.4191 19.9669 17.8849 18.3777C18.3856 16.6198 19.1223 14.9378 20.0749 13.3777C22.4749 9.79775 26.6649 8.24775 30.7149 6.75775C32.4507 6.1519 34.1531 5.45425 35.8149 4.66775C36.8149 4.16775 37.8149 3.66775 38.6949 3.12775C41.8149 1.37775 44.7749 -0.272251 48.8049 0.0377489C50.7049 0.177749 52.5649 0.257748 54.3649 0.337748C59.3649 0.557748 64.0749 0.767748 69.1749 2.23775C72.8649 3.30775 75.5149 5.02775 77.0449 7.34775C77.3683 7.85203 77.6654 8.37273 77.9349 8.90775C78.3056 9.72265 78.7759 10.4885 79.3349 11.1877C80.4528 12.2709 81.7798 13.1148 83.2349 13.6677C83.6849 13.8677 84.1349 14.0777 84.5749 14.2977C88.3368 16.2082 91.335 19.344 93.0749 23.1877C93.7992 24.8974 94.3942 26.659 94.8549 28.4577C95.393 30.6793 96.1884 32.8305 97.2249 34.8677C97.9292 36.0259 98.711 37.135 99.5649 38.1877C100.683 39.5387 101.646 41.0113 102.435 42.5777C103.755 45.4677 103.825 48.6878 103.885 51.8078C103.883 53.6308 104.007 55.4517 104.255 57.2577C104.491 58.6071 104.802 59.9425 105.185 61.2577C105.921 63.5527 106.299 65.9475 106.305 68.3577C106.145 71.3577 104.805 74.2078 103.515 76.9078C102.587 78.718 101.818 80.605 101.215 82.5478C100.855 83.9936 100.581 85.4595 100.395 86.9378C99.9449 90.0478 99.4749 93.2678 97.3949 95.6578C96.0975 96.9883 94.5824 98.0874 92.9149 98.9078C91.5449 99.6072 90.2626 100.467 89.0949 101.468C87.7496 102.889 86.6238 104.504 85.7549 106.258C84.5449 108.408 83.3049 110.628 81.2149 111.998C79.2858 113.076 77.1476 113.727 74.9449 113.908C73.5905 114.076 72.2525 114.357 70.9449 114.748C70.0556 115.067 69.1843 115.434 68.3349 115.848C66.7047 116.743 64.9001 117.275 63.0449 117.408ZM52.2749 113.278C52.8252 113.274 53.3745 113.324 53.9149 113.428C55.3618 113.787 56.7447 114.367 58.0149 115.148C59.4149 116.064 60.9988 116.661 62.6549 116.898C64.5449 117.018 66.2649 116.238 68.0949 115.398C68.9669 114.978 69.8617 114.608 70.7749 114.288C72.1099 113.893 73.4742 113.606 74.8549 113.428C76.9885 113.264 79.062 112.643 80.9349 111.608C82.9349 110.298 84.0749 108.228 85.3049 106.038C86.196 104.236 87.3559 102.581 88.7449 101.128C89.9388 100.096 91.2514 99.2094 92.6549 98.4878C94.2743 97.6934 95.7482 96.6318 97.0149 95.3478C99.0149 93.0678 99.4349 90.0677 99.9049 86.8877C100.086 85.3882 100.363 83.9017 100.735 82.4378C101.341 80.4658 102.12 78.5516 103.065 76.7178C104.335 74.0478 105.645 71.2978 105.805 68.3577C105.8 65.9809 105.426 63.6193 104.695 61.3577C104.345 60.0277 103.975 58.6577 103.755 57.2777C103.512 55.4477 103.389 53.6038 103.385 51.7577C103.325 48.6877 103.255 45.5177 101.985 42.7577C101.211 41.2218 100.265 39.7792 99.1649 38.4577C98.2926 37.3748 97.4973 36.232 96.7849 35.0377C95.7141 32.9756 94.8917 30.7937 94.3349 28.5377C93.8811 26.7635 93.2961 25.0254 92.5849 23.3377C90.8881 19.6122 87.9804 16.5705 84.3349 14.7077C83.8949 14.4877 83.4549 14.2877 83.0049 14.0777C81.4823 13.5033 80.0962 12.6178 78.9349 11.4777C78.3438 10.7548 77.8434 9.96228 77.4449 9.11775C77.1749 8.60775 76.8949 8.11775 76.5749 7.59775C75.1149 5.38775 72.5749 3.73775 68.9849 2.70775C63.9849 1.24775 59.2549 1.03775 54.2949 0.817748C52.4949 0.737748 50.6249 0.657748 48.7149 0.517748C44.8249 0.217748 42.0749 1.75775 38.8849 3.51775C37.9649 4.03775 37.0049 4.51775 35.9949 5.07775C34.3188 5.86858 32.6032 6.57284 30.8549 7.18775C26.6949 8.71775 22.7749 10.1877 20.4549 13.6177C19.5309 15.1482 18.8178 16.7964 18.3349 18.5177C17.8508 20.1464 17.1797 21.7135 16.3349 23.1877C15.6116 24.2764 14.7952 25.3003 13.8949 26.2477C12.6138 27.5166 11.5736 29.0074 10.8249 30.6477C9.88491 33.0877 10.3249 35.6477 10.8249 38.3977C11.0895 39.7981 11.2599 41.2146 11.3349 42.6377C11.2604 45.7531 10.6968 48.8373 9.66491 51.7777C8.74491 54.9377 7.78491 58.2177 8.06491 61.4977C8.25776 63.1304 8.59235 64.7431 9.06491 66.3177C9.5336 67.8627 9.86817 69.4453 10.0649 71.0478C10.1149 71.4878 10.1349 71.9378 10.1449 72.4378C10.1449 73.4378 10.1449 74.4378 10.0649 75.4378C9.94491 77.9277 9.83491 80.2878 10.7549 82.4378C11.1544 83.3193 11.633 84.1627 12.1849 84.9577C12.6893 85.6858 13.1373 86.4513 13.5249 87.2477C14.2153 88.9372 14.6501 90.7201 14.8149 92.5378C14.9744 94.2491 15.3646 95.931 15.9749 97.5378C17.1049 100.128 19.2549 101.958 21.5149 103.888C23.3909 105.339 25.0508 107.049 26.4449 108.968C26.7149 109.388 26.9749 109.838 27.2149 110.268C27.7476 111.374 28.4955 112.364 29.4149 113.178C31.0249 114.418 33.0549 114.328 35.0149 114.238H35.8549C37.3376 114.219 38.8184 114.35 40.2749 114.628L41.7149 114.848C43.6721 114.995 45.6393 114.758 47.5049 114.148C49.0523 113.66 50.6548 113.367 52.2749 113.278Z" fill="black"/>
<path d="M48.3452 34.4882C49.0686 34.4882 49.6552 33.9017 49.6552 33.1782C49.6552 32.4547 49.0686 31.8682 48.3452 31.8682C47.6217 31.8682 47.0352 32.4547 47.0352 33.1782C47.0352 33.9017 47.6217 34.4882 48.3452 34.4882Z" fill="black"/>
<path d="M72.4252 34.0477C73.1487 34.0477 73.7352 33.4612 73.7352 32.7377C73.7352 32.0142 73.1487 31.4277 72.4252 31.4277C71.7017 31.4277 71.1152 32.0142 71.1152 32.7377C71.1152 33.4612 71.7017 34.0477 72.4252 34.0477Z" fill="black"/>
<path d="M94.265 50.7881C102.895 61.6581 128.175 46.1981 133.135 54.7881C138.095 63.3781 111.475 89.5081 80.915 96.6881L94.265 50.7881Z" fill="#FFE4D9"/>
<g opacity="0.21">
<path d="M96.5552 56.9683C98.4752 58.8083 117.555 60.0983 116.865 60.3183C112.865 61.6983 95.3052 66.5383 97.5652 67.2283C100.565 68.1383 119.795 61.4983 119.565 62.0683C118.165 65.7983 116.255 70.1783 116.565 74.4383C118.825 71.8883 123.425 60.4983 123.315 59.0483C123.105 56.5483 99.9252 55.9683 96.5552 56.9683Z" fill="black"/>
</g>
<path d="M94.2653 50.7881C95.743 52.5577 97.777 53.7739 100.035 54.2381C102.148 54.6795 104.315 54.8076 106.465 54.6181C110.809 54.1922 115.126 53.5245 119.395 52.6181C121.537 52.1995 123.706 51.9288 125.885 51.8081C126.975 51.7446 128.068 51.8016 129.145 51.9781C130.289 52.1468 131.367 52.62 132.265 53.3481C132.801 53.8189 133.23 54.3988 133.523 55.0491C133.817 55.6993 133.967 56.4048 133.965 57.1181C133.935 58.628 133.595 60.1155 132.965 61.4881C131.833 63.9633 130.377 66.2769 128.635 68.3681C125.412 72.2034 121.788 75.6832 117.825 78.7481C114.086 81.6953 110.139 84.3689 106.015 86.7481C102.04 89.0334 97.9099 91.0383 93.6553 92.7481C89.5128 94.3871 85.2502 95.7043 80.9053 96.6881C85.2356 95.5934 89.4749 94.1658 93.5853 92.4181C97.8253 90.6616 101.938 88.6133 105.895 86.2881C109.986 83.9021 113.903 81.2288 117.615 78.2881C121.547 75.2106 125.14 71.7243 128.335 67.8881C130.037 65.8511 131.463 63.5983 132.575 61.1881C133.152 59.9307 133.472 58.5707 133.515 57.1881C133.52 56.5601 133.389 55.9385 133.132 55.3656C132.875 54.7927 132.498 54.2819 132.025 53.8681C131.183 53.1718 130.166 52.7188 129.085 52.5581C128.029 52.3732 126.956 52.3028 125.885 52.3481C123.717 52.4581 121.559 52.712 119.425 53.1081C115.13 53.968 110.79 54.5856 106.425 54.9581C104.257 55.0852 102.081 54.9 99.9653 54.4081C97.7164 53.8668 95.7113 52.5934 94.2653 50.7881Z" fill="black"/>
<path d="M116.625 65.578C116.213 65.5955 115.801 65.5245 115.419 65.3696C115.036 65.2148 114.691 64.9798 114.406 64.6804C114.122 64.3809 113.905 64.0241 113.771 63.6338C113.636 63.2436 113.586 62.829 113.625 62.418C113.695 60.768 121.085 57.918 121.085 57.918C121.995 55.308 125.425 45.918 126.885 44.918C130.945 42.098 144.215 46.678 150.285 48.918C151.595 49.408 147.785 56.718 146.475 56.228C138.015 53.048 132.205 50.968 130.575 51.738C126.885 62.288 127.055 63.378 116.625 65.578Z" fill="#FFE4D9"/>
<g opacity="0.21">
<path d="M126.175 45.8174C124.515 48.4474 121.865 55.6774 121.085 57.9174C121.085 57.9174 113.695 60.7674 113.625 62.4174C113.586 62.8284 113.636 63.243 113.771 63.6333C113.905 64.0235 114.122 64.3804 114.406 64.6798C114.691 64.9792 115.036 65.2142 115.419 65.3691C115.801 65.5239 116.213 65.5949 116.625 65.5774C127.055 63.3774 126.885 62.2874 130.625 51.7974C132.255 51.0274 138.065 53.1074 146.525 56.2874C147.035 56.4774 147.915 55.4974 148.725 54.2074C140.885 52.1874 133.195 49.7774 126.175 45.8174Z" fill="black"/>
</g>
<path d="M116.655 65.8275C116.216 65.8434 115.779 65.7681 115.371 65.6063C114.963 65.4445 114.593 65.1997 114.285 64.8875C113.979 64.5549 113.743 64.1638 113.591 63.7375C113.44 63.3113 113.377 62.8589 113.405 62.4075C113.475 60.7175 119.405 58.2975 120.915 57.7275C121.345 56.5275 125.125 45.8775 126.775 44.7275C130.545 42.1175 141.705 45.4675 150.405 48.7275C150.52 48.7779 150.618 48.8585 150.69 48.9607C150.763 49.0629 150.806 49.1827 150.815 49.3075C151.065 50.7975 148.815 55.0375 147.415 56.1975C147.293 56.3365 147.135 56.4391 146.959 56.4938C146.782 56.5486 146.594 56.5533 146.415 56.5075C138.345 53.5075 132.475 51.3775 130.805 51.9775L130.275 53.4875C127.115 62.4875 126.705 63.6975 116.705 65.8175L116.655 65.8275ZM130.795 44.2975C129.487 44.2039 128.179 44.496 127.035 45.1375C125.845 45.9575 122.905 53.4675 121.325 57.9975V58.1075H121.215C118.415 59.1775 113.965 61.2975 113.915 62.3775C113.89 62.7633 113.943 63.1502 114.072 63.5146C114.201 63.8791 114.403 64.2135 114.665 64.4975C114.925 64.7603 115.238 64.9656 115.582 65.1C115.927 65.2343 116.296 65.2948 116.665 65.2775C126.365 63.2775 126.665 62.2775 129.835 53.2775L130.435 51.5675H130.525C132.255 50.7575 138.015 52.8075 146.625 56.0475C146.625 56.0475 146.805 56.0475 147.135 55.8175C148.505 54.6875 150.555 50.5975 150.355 49.3875C150.355 49.2775 150.305 49.2175 150.255 49.1975C141.575 45.9675 134.925 44.2975 130.795 44.2975Z" fill="black"/>
<path d="M144.985 76.0074C144.115 76.041 143.255 75.8147 142.515 75.3574C141.792 74.8627 141.229 74.1676 140.895 73.3574C140.895 73.3574 133.685 63.0074 134.335 61.0674C134.955 59.3074 144.235 50.4574 147.155 48.1674C148.465 47.1674 153.285 50.2674 153.285 50.2674C152.587 51.2475 151.767 52.1346 150.845 52.9074C147.721 55.3382 144.433 57.5501 141.005 59.5274L145.875 69.9774C147.484 69.8916 149.07 69.5542 150.575 68.9774C150.942 68.8336 151.334 68.7635 151.728 68.7712C152.122 68.7788 152.511 68.8639 152.872 69.0218C153.233 69.1797 153.56 69.4071 153.833 69.6912C154.106 69.9753 154.321 70.3104 154.465 70.6774C154.609 71.0445 154.679 71.4363 154.671 71.8304C154.664 72.2245 154.578 72.6133 154.421 72.9745C154.263 73.3357 154.035 73.6623 153.751 73.9356C153.467 74.209 153.132 74.4236 152.765 74.5674C150.283 75.525 147.645 76.0133 144.985 76.0074Z" fill="#FFE4D9"/>
<g opacity="0.21">
<path d="M154.485 70.6479C154.195 69.9088 153.623 69.3148 152.896 68.9961C152.169 68.6774 151.345 68.6601 150.605 68.9479C149.1 69.5247 147.514 69.8621 145.905 69.9479L141.535 60.5779C139.273 60.7067 137.005 60.6398 134.755 60.3779C134.597 60.5803 134.466 60.8022 134.365 61.0379C133.685 62.9779 140.875 73.3479 140.875 73.3479C141.208 74.1581 141.772 74.8532 142.495 75.3479C143.235 75.8052 144.095 76.0315 144.965 75.9979C147.637 75.998 150.285 75.4994 152.775 74.5279C153.516 74.2398 154.112 73.6693 154.433 72.9418C154.753 72.2143 154.772 71.3892 154.485 70.6479Z" fill="black"/>
</g>
<path d="M144.985 76.2577C144.066 76.2873 143.159 76.0474 142.375 75.5677C141.615 75.0576 141.024 74.3338 140.675 73.4877C139.945 72.4877 133.445 62.9877 134.145 60.9877C134.845 58.9877 144.235 50.1877 147.035 47.9777C148.445 46.8777 152.945 49.7277 153.455 50.0577L153.675 50.1977L153.525 50.4177C152.809 51.4102 151.972 52.3104 151.035 53.0977C147.955 55.4933 144.714 57.6751 141.335 59.6277L146.045 69.7177C147.567 69.6106 149.064 69.2734 150.485 68.7177C150.889 68.4994 151.334 68.3691 151.792 68.3354C152.25 68.3017 152.71 68.3654 153.141 68.5223C153.573 68.6792 153.966 68.9257 154.295 69.2456C154.625 69.5655 154.882 69.9516 155.052 70.3783C155.221 70.805 155.298 71.2628 155.277 71.7214C155.257 72.1801 155.14 72.6292 154.933 73.0391C154.726 73.4491 154.435 73.8107 154.079 74.1C153.722 74.3893 153.309 74.5998 152.865 74.7177C150.358 75.7199 147.685 76.2423 144.985 76.2577ZM147.925 48.2577C147.72 48.2392 147.515 48.2922 147.345 48.4077C144.345 50.7177 135.175 59.5377 134.595 61.1977C134.125 62.5277 138.215 69.1977 141.085 73.2777C141.404 74.0492 141.939 74.7124 142.625 75.1877C143.329 75.6133 144.142 75.8252 144.965 75.7977C147.604 75.7998 150.219 75.3045 152.675 74.3377C153.33 74.0556 153.849 73.5303 154.124 72.8724C154.399 72.2145 154.408 71.4756 154.149 70.8114C153.889 70.1473 153.382 69.6099 152.734 69.3126C152.086 69.0152 151.348 68.9812 150.675 69.2177C149.152 69.7856 147.549 70.1129 145.925 70.1877H145.755L140.755 59.3677L140.955 59.2577C144.379 57.2906 147.66 55.0852 150.775 52.6577C151.61 51.9564 152.362 51.1612 153.015 50.2877C151.435 49.3777 149.125 48.1877 147.925 48.1877V48.2577Z" fill="black"/>
<path d="M146.465 75.8684C145.74 75.3758 145.176 74.6801 144.845 73.8684C144.845 73.8684 138.275 63.6684 138.955 61.7284C139.575 59.9584 148.235 50.9484 151.165 48.6684C152.465 47.6684 157.005 50.5584 157.005 50.5584C156.485 51.6388 155.754 52.6044 154.855 53.3984C151.731 55.8325 148.439 58.0446 145.005 60.0184L149.885 70.4684C151.491 70.3778 153.072 70.0405 154.575 69.4684C154.943 69.3249 155.336 69.2555 155.732 69.2644C156.127 69.2732 156.516 69.36 156.878 69.5199C157.239 69.6797 157.565 69.9094 157.838 70.1957C158.11 70.482 158.323 70.8194 158.465 71.1884C159.065 72.7084 147.475 76.5184 146.465 75.8684Z" fill="#FFE4D9"/>
<g opacity="0.21">
<path d="M158.465 71.1883C158.173 70.4485 157.599 69.8549 156.87 69.538C156.14 69.2211 155.315 69.2068 154.575 69.4983C153.072 70.0704 151.49 70.4077 149.885 70.4983L145.445 60.9883C143.419 61.2467 141.373 61.3136 139.335 61.1883C139.205 61.3769 139.095 61.5779 139.005 61.7883C138.325 63.7283 144.895 73.9283 144.895 73.9283C145.226 74.74 145.79 75.4357 146.515 75.9283C147.475 76.5183 159.065 72.7083 158.465 71.1883Z" fill="black"/>
</g>
<path d="M146.865 76.1886C146.684 76.2021 146.502 76.1712 146.335 76.0986C145.569 75.5883 144.974 74.8604 144.625 74.0086C143.955 73.0086 138.015 63.6686 138.715 61.6686C139.415 59.6686 148.165 50.6686 151.005 48.4986C152.415 47.3986 156.655 50.0686 157.135 50.3786L157.325 50.4986L157.235 50.6986C156.694 51.814 155.936 52.8102 155.005 53.6286C151.938 56.0373 148.707 58.2293 145.335 60.1886L150.035 70.1886C151.56 70.0816 153.061 69.7445 154.485 69.1886C155.287 68.8774 156.18 68.8962 156.969 69.2409C157.758 69.5856 158.378 70.2283 158.695 71.0286C158.895 71.5286 158.335 72.0286 158.155 72.1386C156.335 73.6986 149.045 76.1886 146.865 76.1886ZM151.925 48.7286C151.709 48.7177 151.494 48.7774 151.315 48.8986C148.315 51.2586 139.775 60.1886 139.185 61.8386C138.715 63.1786 142.445 69.7086 145.055 73.7686C145.372 74.5414 145.912 75.2027 146.605 75.6686C147.335 76.0986 155.845 73.4986 157.885 71.7586C158.185 71.4986 158.255 71.3286 158.235 71.2686C158.103 70.9314 157.907 70.6234 157.656 70.3624C157.405 70.1013 157.105 69.8923 156.774 69.7474C156.442 69.6025 156.085 69.5245 155.723 69.5178C155.361 69.5111 155.002 69.576 154.665 69.7086C153.137 70.289 151.527 70.6264 149.895 70.7086H149.725L144.725 59.8986L144.925 59.7886C148.332 57.8197 151.597 55.6143 154.695 53.1886C155.526 52.4813 156.206 51.6141 156.695 50.6386C155.265 49.7886 153.105 48.7186 151.925 48.7186V48.7286Z" fill="black"/>
<path d="M149.335 73.4789C148.405 72.7689 142.675 63.8489 143.335 61.9889C143.925 60.2989 152.485 52.4289 155.105 50.3789C156.415 49.3789 159.595 51.1689 159.595 51.1689C159.595 51.1689 161.215 56.2789 159.915 57.2989C157.155 59.4389 154.335 62.1889 151.335 63.8789L153.435 68.0089C154.841 67.8179 156.214 67.4343 157.515 66.8689C159.055 66.2589 161.245 66.6689 161.845 68.2189C162.445 69.7689 152.225 75.6689 149.335 73.4789Z" fill="#FFE4D9"/>
<g opacity="0.21">
<path d="M151.855 69.6981C150.415 67.8281 150.365 62.4281 147.855 61.7781C146.345 61.3781 144.855 61.9481 143.505 61.5781C143.415 61.7052 143.341 61.8429 143.285 61.9881C142.625 63.8481 148.355 72.7681 149.285 73.4781C151.345 75.0381 157.135 72.4781 160.085 70.3381C157.025 71.5181 153.735 72.1881 151.855 69.6981Z" fill="black"/>
</g>
<path d="M162.105 68.1184C161.924 67.7081 161.648 67.3465 161.301 67.0632C160.953 66.7799 160.543 66.5829 160.105 66.4884C159.222 66.259 158.289 66.3079 157.435 66.6284C156.205 67.1631 154.911 67.5362 153.585 67.7384L151.665 63.9784C153.402 62.8893 155.053 61.6691 156.605 60.3284C156.961 59.8945 157.266 59.4215 157.515 58.9184L157.145 59.2284C155.299 60.8755 153.315 62.3609 151.215 63.6684L151.015 63.7884L153.335 68.2684H153.495C154.929 68.0788 156.329 67.6883 157.655 67.1084C158.41 66.824 159.235 66.7821 160.015 66.9884C160.376 67.0624 160.714 67.2217 161.001 67.453C161.288 67.6844 161.516 67.9812 161.665 68.3184C161.725 68.4684 161.495 69.0184 160.205 69.9984C157.205 72.2684 151.425 74.7384 149.505 73.2884C148.705 72.6784 142.985 63.7884 143.585 62.0784C144.185 60.3684 152.585 52.6984 155.275 50.5884C155.545 50.4044 155.868 50.3132 156.195 50.3284C157.324 50.4306 158.418 50.7715 159.405 51.3284C159.405 51.3884 159.745 51.5684 159.745 51.5684C159.799 51.4129 159.836 51.2519 159.855 51.0884V50.9884H159.765C159.635 50.9184 156.425 49.1184 155.005 50.2184C152.545 52.1384 143.775 60.1484 143.145 61.9484C142.405 64.0484 148.435 73.1084 149.225 73.7184C149.816 74.1076 150.518 74.2936 151.225 74.2484C154.095 74.2484 158.375 72.0984 160.575 70.4284C161.765 69.4084 162.335 68.6484 162.105 68.1184Z" fill="black"/>
<path d="M9.44715 71.8769C13.3301 71.5221 15.9369 65.3135 15.2697 58.0096C14.6024 50.7057 10.9137 45.0723 7.03072 45.427C3.14776 45.7818 0.540937 51.9903 1.20822 59.2943C1.8755 66.5982 5.56419 72.2316 9.44715 71.8769Z" fill="#FFE4D9"/>
<g opacity="0.21">
<path d="M9.44715 71.8769C13.3301 71.5221 15.9369 65.3135 15.2697 58.0096C14.6024 50.7057 10.9137 45.0723 7.03072 45.427C3.14776 45.7818 0.540937 51.9903 1.20822 59.2943C1.8755 66.5982 5.56419 72.2316 9.44715 71.8769Z" fill="black"/>
</g>
<path d="M14.6247 64.9688C14.4355 65.8161 14.1746 66.6457 13.8447 67.4488C12.7847 69.9788 11.2147 71.4488 9.43471 71.6188C7.65471 71.7888 5.84471 70.6188 4.33471 68.3188C2.68293 65.5865 1.69959 62.5029 1.46471 59.3188C0.814707 52.1088 3.33471 46.0088 7.06471 45.6688H7.38471C9.06471 45.6688 10.7447 46.8388 12.1547 48.9988C12.6737 49.802 13.1157 50.6524 13.4747 51.5388C13.3763 50.864 13.2361 50.1961 13.0547 49.5388C12.8947 49.2688 12.7447 48.9988 12.5747 48.7388C10.9647 46.2788 8.99471 45.0388 7.01471 45.2088C3.01471 45.5788 0.284706 51.9188 1.01471 59.3488C1.26055 62.6371 2.28915 65.8189 4.01471 68.6288C5.42471 70.8888 7.25471 72.1888 9.10471 72.1888H9.47471C11.4747 72.0088 13.1647 70.4188 14.3047 67.7088C14.597 66.9724 14.7135 66.178 14.6447 65.3888L14.6247 64.9688Z" fill="black"/>
<path d="M6.55469 52.0479C6.84353 51.7574 7.23505 51.5922 7.64469 51.5879C8.07356 51.6073 8.47989 51.7855 8.78469 52.0879C9.355 52.6528 9.79523 53.3354 10.0747 54.0879C10.633 55.5635 10.97 57.1136 11.0747 58.6879C11.2145 60.2593 11.1235 61.8428 10.8047 63.3879C10.6437 64.194 10.3018 64.9531 9.80469 65.6079C9.6714 65.7788 9.50556 65.9216 9.31675 66.028C9.12794 66.1344 8.91991 66.2024 8.70469 66.2279C8.29705 66.2313 7.90224 66.0855 7.59469 65.8179C7.92668 65.9795 8.30228 66.0287 8.66469 65.9579C8.82525 65.9075 8.97377 65.8247 9.10106 65.7146C9.22834 65.6045 9.33168 65.4695 9.40469 65.3179C9.73427 64.6722 9.9379 63.9697 10.0047 63.2479C10.1497 61.7581 10.1497 60.2577 10.0047 58.7679C9.93035 57.289 9.70586 55.8214 9.33469 54.3879C9.16203 53.6692 8.85311 52.9902 8.42469 52.3879C8.23181 52.1005 7.93995 51.894 7.60469 51.8079C7.2376 51.7666 6.86738 51.8512 6.55469 52.0479Z" fill="black"/>
<path d="M9.975 57.4784C9.96259 56.996 9.76994 56.5358 9.435 56.1884C9.11068 55.7747 8.63647 55.5052 8.115 55.4384C7.83737 55.4644 7.5741 55.5738 7.35989 55.7523C7.14568 55.9308 6.99057 56.17 6.915 56.4384C6.77946 56.7055 6.66575 56.983 6.575 57.2684L6.375 58.1584L6.455 57.1884C6.50688 56.8826 6.5838 56.5816 6.685 56.2884C6.75965 55.954 6.92978 55.6484 7.17475 55.4087C7.41971 55.1691 7.72898 55.0057 8.065 54.9384C8.41414 54.9218 8.76296 54.9772 9.08981 55.101C9.41666 55.2249 9.71456 55.4146 9.965 55.6584C10.2216 55.8916 10.4469 56.1572 10.635 56.4484C10.8547 56.7914 10.9694 57.1911 10.965 57.5984L9.975 57.4784Z" fill="black"/>
<path d="M155.695 74.9177C155.265 77.6377 153.455 79.9177 153.195 82.5477C153.133 83.8114 153.391 85.0703 153.945 86.2076C154.499 87.4078 155.212 88.5279 156.065 89.5377L156.005 89.6077C154.75 88.9165 153.725 87.8737 153.055 86.6077C152.364 85.3161 152.135 83.8273 152.405 82.3876C152.704 81.0239 153.22 79.7171 153.935 78.5177C154.633 77.3653 155.191 76.1331 155.595 74.8477L155.695 74.9177Z" fill="black"/>
<path d="M95.5852 86.5986C96.5371 86.7292 97.5059 86.5579 98.3552 86.1086C99.2452 85.7286 100.095 85.2286 101.055 84.9186C101.535 84.77 102.033 84.6859 102.535 84.6686C103.023 84.6807 103.511 84.6573 103.995 84.5986C104.934 84.3627 105.778 83.8465 106.415 83.1186C107.071 82.3712 107.809 81.7003 108.615 81.1186C109.047 80.8425 109.519 80.6366 110.015 80.5086C110.484 80.4143 110.945 80.2874 111.395 80.1286C112.226 79.6688 112.987 79.093 113.655 78.4186C114.029 78.0862 114.442 77.8007 114.885 77.5686C115.334 77.3251 115.851 77.2372 116.355 77.3186V77.3686C115.88 77.4134 115.419 77.5554 115.001 77.786C114.583 78.0165 114.217 78.3305 113.925 78.7086C113.271 79.4766 112.481 80.1173 111.595 80.5986C110.657 80.825 109.74 81.1328 108.855 81.5186C108.059 82.0622 107.303 82.6638 106.595 83.3186C105.864 83.9962 104.983 84.4928 104.025 84.7686C103.535 84.8586 103.025 84.8786 102.555 84.9486C102.084 85.0083 101.623 85.1328 101.185 85.3186C100.295 85.6486 99.4352 86.1086 98.5052 86.4686C97.5849 86.891 96.5402 86.9552 95.5752 86.6486L95.5852 86.5986Z" fill="black"/>
<path d="M114.795 66.9883C113.403 68.3827 111.719 69.4516 109.865 70.1183C108.865 70.3883 107.945 70.4683 107.025 70.7583C106.105 71.0483 105.225 71.4483 104.295 71.7583C102.43 72.3537 100.492 72.6901 98.535 72.7583C96.6103 72.8197 94.7043 73.1565 92.875 73.7583C94.6255 72.8635 96.5504 72.3618 98.515 72.2883C100.438 72.2013 102.351 71.9605 104.235 71.5683C105.165 71.3183 106.075 70.9583 106.995 70.6383C107.915 70.3183 108.865 70.0983 109.765 69.7783C111.533 69.046 113.21 68.1132 114.765 66.9983L114.795 66.9883Z" fill="black"/>
<path d="M113.395 58.5477C112.115 58.8308 110.796 58.895 109.495 58.7377C108.219 58.485 106.93 58.3014 105.635 58.1877C103.045 58.0077 100.525 57.6677 97.9248 57.5977C99.2083 57.343 100.521 57.2723 101.825 57.3877C103.119 57.4921 104.406 57.6826 105.675 57.9577C106.942 58.234 108.238 58.3615 109.535 58.3377C110.815 58.3977 112.085 58.4677 113.395 58.5077V58.5477Z" fill="black"/>
<path d="M61.0551 36.7878C60.9151 45.6078 61.1884 54.4111 61.8751 63.1978C62.0751 65.3878 62.2151 67.6078 62.5451 69.7478C62.7147 70.8093 62.9791 71.8535 63.3351 72.8678C63.6449 73.8681 64.129 74.8059 64.7651 75.6378C65.0761 76.049 65.4316 76.4246 65.8251 76.7578C66.3411 77.1131 66.7439 77.6095 66.9851 78.1878C67.0894 78.5584 67.0501 78.9548 66.8751 79.2978C66.7118 79.5955 66.4826 79.8521 66.2051 80.0478C65.7111 80.3871 65.153 80.6219 64.5651 80.7378C62.4089 81.3031 60.1833 81.5589 57.9551 81.4978V81.3978C60.1218 81.1914 62.2604 80.7557 64.3351 80.0978C64.826 79.9605 65.2871 79.7333 65.6951 79.4278C66.0751 79.1278 66.2451 78.7778 66.1351 78.4278C66.0251 78.0778 65.6151 77.7978 65.1351 77.4278C64.6695 77.0672 64.2468 76.6545 63.8751 76.1978C62.5242 74.3275 61.7051 72.1262 61.5051 69.8278C61.2351 67.5978 61.1551 65.3978 61.0151 63.1978C60.5051 54.3795 60.4651 45.5403 60.8951 36.7178L61.0551 36.7878Z" fill="black"/>
<path d="M37.335 19.4879C38.7801 18.6545 40.3667 18.0952 42.015 17.8379C43.6796 17.6192 45.369 17.6766 47.015 18.0079C48.655 18.2879 50.265 18.7179 51.895 18.9079C53.5157 19.112 55.1601 19.0136 56.745 18.6179C59.935 17.8779 62.995 16.4279 66.285 15.8279C69.5515 15.1695 72.8962 14.9876 76.215 15.2879C72.8967 15.1637 69.5762 15.4662 66.335 16.1879C64.7291 16.558 63.1464 17.0221 61.595 17.5779C60.0321 18.1605 58.4399 18.6612 56.825 19.0779C55.1892 19.4763 53.4932 19.5645 51.825 19.3379C50.155 19.1179 48.545 18.6979 46.935 18.3379C43.6999 17.5691 40.2969 17.9767 37.335 19.4879Z" fill="black"/>
<path d="M43.6851 13.9379C45.5908 13.4431 47.5757 13.331 49.5251 13.6079C51.4651 13.8779 53.3651 14.6879 55.1751 14.0679C56.0865 13.7563 56.9752 13.3821 57.8351 12.9479C58.7302 12.5411 59.6565 12.2067 60.6051 11.9479C62.4972 11.4156 64.4609 11.1827 66.4251 11.2579C64.4851 11.3729 62.567 11.7289 60.7151 12.3179C59.7971 12.6148 58.8987 12.9688 58.0251 13.3779C57.1599 13.8367 56.2605 14.2278 55.3351 14.5479C54.3558 14.8157 53.3258 14.8398 52.3351 14.6179C51.3351 14.4379 50.4251 14.1679 49.4851 13.9879C47.5684 13.644 45.6074 13.6271 43.6851 13.9379Z" fill="black"/>
<path d="M36.9848 31.8682C36.872 33.279 37.1488 34.6938 37.7848 35.9582C38.4207 37.1958 39.3599 38.2521 40.5148 39.0282C41.641 39.8395 42.956 40.349 44.3348 40.5082C45.7459 40.6798 47.1706 40.3236 48.3348 39.5082C47.7952 39.9937 47.162 40.3639 46.4742 40.5961C45.7864 40.8282 45.0584 40.9174 44.3348 40.8582C42.8653 40.7499 41.4515 40.2505 40.24 39.4118C39.0285 38.5731 38.0634 37.4255 37.4448 36.0882C36.8485 34.7657 36.6874 33.2881 36.9848 31.8682Z" fill="black"/>
<path d="M32.2649 36.918C32.2642 38.632 32.7347 40.3132 33.6249 41.778C34.5417 43.1958 35.7864 44.3722 37.2536 45.2076C38.7209 46.0431 40.3677 46.5131 42.0549 46.578C43.7698 46.6379 45.4454 46.0568 46.7549 44.948C46.1468 45.581 45.417 46.0845 44.6093 46.4282C43.8016 46.7719 42.9327 46.9487 42.0549 46.948C40.2827 46.9656 38.5376 46.5119 36.9984 45.6333C35.4591 44.7548 34.181 43.4829 33.2949 41.948C32.4413 40.4176 32.0816 38.6607 32.2649 36.918Z" fill="black"/>
<path d="M30.085 46.9277C30.4857 48.5923 31.3368 50.1146 32.545 51.3277C33.7526 52.5131 35.243 53.3702 36.875 53.8177C38.4964 54.3151 40.219 54.384 41.875 54.0177C43.5566 53.6773 45.0507 52.7216 46.065 51.3377C45.6245 52.099 45.034 52.7628 44.3292 53.2888C43.6244 53.8148 42.82 54.1921 41.965 54.3977C40.248 54.8297 38.4472 54.7981 36.7465 54.3061C35.0458 53.8142 33.5062 52.8796 32.285 51.5977C31.0808 50.3098 30.3112 48.6764 30.085 46.9277Z" fill="black"/>
<path d="M28.1748 53.8574C28.5992 55.751 29.5529 57.485 30.9248 58.8574C32.298 60.1721 33.9709 61.1323 35.7987 61.655C37.6265 62.1778 39.5541 62.2472 41.4148 61.8574C43.2998 61.4761 44.9752 60.4066 46.1148 58.8574C45.6083 59.6927 44.9393 60.4178 44.1474 60.9898C43.3555 61.5618 42.4569 61.969 41.5048 62.1874C39.5803 62.6766 37.5596 62.6386 35.6548 62.0774C33.7527 61.536 32.0277 60.501 30.6548 59.0774C29.3055 57.6376 28.4387 55.8129 28.1748 53.8574Z" fill="black"/>
<path d="M26.335 62.9473C26.7872 64.9284 27.7849 66.7435 29.215 68.1873C30.6643 69.5929 32.4343 70.6244 34.3718 71.1924C36.3093 71.7604 38.356 71.8479 40.335 71.4473C42.352 71.0273 44.137 69.8635 45.335 68.1873C44.8023 69.087 44.0939 69.8704 43.2521 70.4906C42.4103 71.1108 41.4522 71.5552 40.435 71.7973C38.3961 72.3 36.2609 72.2589 34.2429 71.6781C32.2249 71.0972 30.3946 69.997 28.935 68.4873C27.5162 66.9539 26.6078 65.0184 26.335 62.9473Z" fill="black"/>
<path d="M77.5147 29.1875C77.8809 30.4233 77.9596 31.7266 77.7447 32.9975C77.5237 34.2909 76.9879 35.51 76.1847 36.5475C75.3759 37.5952 74.2498 38.3529 72.9747 38.7075C72.6486 38.794 72.312 38.8344 71.9747 38.8275C71.6375 38.8494 71.2991 38.8121 70.9747 38.7175C70.6584 38.6333 70.353 38.5125 70.0647 38.3575C69.7947 38.1875 69.5547 37.9675 69.3047 37.7775C69.8082 38.1366 70.3881 38.3741 70.9989 38.4712C71.6096 38.5684 72.2346 38.5226 72.8247 38.3375C74.0173 37.9532 75.0572 37.2004 75.7947 36.1875C76.5527 35.2192 77.0795 34.0905 77.3347 32.8875C77.6116 31.6743 77.6725 30.4218 77.5147 29.1875Z" fill="black"/>
<path d="M81.7751 33.7773C82.0936 35.2906 82.0662 36.8562 81.6951 38.3573C81.3045 39.8567 80.5408 41.2327 79.4751 42.3573C78.3944 43.5163 76.9525 44.2743 75.3851 44.5073L74.7951 44.5673L74.2051 44.5173C73.8142 44.4821 73.4303 44.3912 73.0651 44.2473C72.715 44.1002 72.3801 43.9193 72.0651 43.7073C71.7645 43.4667 71.4774 43.2096 71.2051 42.9373C71.752 43.4477 72.4087 43.8258 73.1247 44.0425C73.8407 44.2592 74.5969 44.3088 75.3351 44.1873C76.7936 43.9131 78.1237 43.1727 79.1251 42.0773C80.159 40.9969 80.917 39.6831 81.3351 38.2473C81.7528 36.7966 81.902 35.2817 81.7751 33.7773Z" fill="black"/>
<path d="M84.555 43.5479C84.5851 45.0741 84.2418 46.5845 83.555 47.9479C82.8601 49.3384 81.767 50.4907 80.415 51.2579C79.0513 52.0339 77.4527 52.2897 75.915 51.9779C75.1629 51.8153 74.4558 51.4892 73.844 51.0225C73.2322 50.5559 72.7306 49.9602 72.375 49.2778C72.7942 49.8855 73.3301 50.4036 73.9517 50.8019C74.5732 51.2003 75.2678 51.4708 75.995 51.5979C77.4355 51.8331 78.9129 51.561 80.175 50.8279C81.4394 50.1058 82.4781 49.0463 83.175 47.7679C83.9142 46.4684 84.3836 45.033 84.555 43.5479Z" fill="black"/>
<path d="M86.8153 50.2773C86.8415 51.9779 86.4645 53.6605 85.7153 55.1873C84.9345 56.7422 83.7093 58.03 82.1953 58.8873C80.6781 59.7438 78.9053 60.031 77.1953 59.6973C76.3521 59.5143 75.5582 59.1516 74.8679 58.6339C74.1776 58.1161 73.6071 57.4556 73.1953 56.6973C74.1479 58.0761 75.6076 59.0217 77.2553 59.3273C78.8819 59.5898 80.5492 59.2825 81.9753 58.4573C83.3883 57.6478 84.5509 56.4645 85.3353 55.0373C86.1463 53.5674 86.6498 51.9479 86.8153 50.2773Z" fill="black"/>
<path d="M89.2549 59.1875C89.2827 61.0019 88.8818 62.7972 88.0849 64.4275C87.2387 66.0605 85.9358 67.412 84.3349 68.3175C82.7169 69.2287 80.8273 69.5336 79.0049 69.1775C78.1085 68.9777 77.2638 68.5929 76.5249 68.0475C76.1749 67.7575 75.8649 67.4175 75.5249 67.1075L74.7549 65.9975C75.2527 66.7279 75.8912 67.3517 76.6329 67.8325C77.3747 68.3133 78.2049 68.6413 79.0749 68.7975C80.7978 69.0764 82.5641 68.7514 84.0749 67.8775C85.6262 67.0241 86.8999 65.7434 87.7449 64.1875C88.5785 62.639 89.092 60.9386 89.2549 59.1875Z" fill="black"/>
<path d="M50.0752 92.7083C51.9352 90.6083 53.8152 88.5383 55.7152 86.4783C56.6552 85.4783 57.5652 84.3683 58.5852 83.4183C59.6093 82.4475 60.7022 81.5518 61.8552 80.7383L61.9252 80.8083C61.1397 81.9703 60.2742 83.0763 59.3352 84.1183C58.3952 85.1183 57.3352 86.1183 56.3352 87.0383C54.3352 88.9683 52.2652 90.8883 50.1952 92.7783L50.0752 92.7083Z" fill="black"/>
<path d="M75.1852 88.4985C72.8852 87.3385 70.6152 86.1585 68.3452 84.9585C67.2152 84.3685 66.0452 83.8285 64.9652 83.1285C63.8725 82.4415 62.836 81.6691 61.8652 80.8185V80.7285C63.0863 81.1461 64.2732 81.6577 65.4152 82.2585C66.5652 82.8485 67.6152 83.5785 68.6952 84.2585C70.8752 85.6085 73.0352 86.9985 75.1852 88.3985V88.4985Z" fill="black"/>
</svg>
