<svg width="195" height="152" viewBox="0 0 195 152" fill="none" xmlns="http://www.w3.org/2000/svg">
<path d="M121.399 53.4458C129.573 49.4895 134.265 41.397 133.08 33.2227C132.524 29.4053 130.808 25.6779 129.712 21.885C128.617 18.0921 127.947 14.1603 129.884 10.8579" stroke="black" stroke-width="0.5" stroke-linecap="round" stroke-linejoin="round"/>
<path d="M136.775 5.47133C134.289 7.01167 131.979 8.81791 129.884 10.8582C129.663 7.5515 129.253 4.26011 128.658 1" stroke="black" stroke-width="0.5" stroke-linecap="round" stroke-linejoin="round"/>
<path d="M133.987 1.53174C130.194 8.70057 129.9 10.8586 129.9 10.8586C129.9 10.8586 127.636 8.92128 123.001 5.52895" stroke="black" stroke-width="0.5" stroke-linecap="round" stroke-linejoin="round"/>
<path d="M178.889 84.5826C187.063 80.6262 191.763 72.5337 190.57 64.3594C190.014 60.542 188.297 56.8064 187.21 53.0217C186.123 49.237 185.436 45.297 187.382 41.9946" stroke="black" stroke-width="0.5" stroke-linecap="round" stroke-linejoin="round"/>
<path d="M194.264 36.5989C191.784 38.1469 189.477 39.9555 187.381 41.9939C187.157 38.6871 186.745 35.3957 186.147 32.1357" stroke="black" stroke-width="0.5" stroke-linecap="round" stroke-linejoin="round"/>
<path d="M191.485 32.6675C187.692 39.8363 187.398 41.9943 187.398 41.9943C187.398 41.9943 185.125 40.057 180.499 36.6647" stroke="black" stroke-width="0.5" stroke-linecap="round" stroke-linejoin="round"/>
<path d="M16.3756 87.917C8.20135 83.9525 3.50114 75.8682 4.69459 67.6939C5.25044 63.8356 7.0079 60.1409 8.05421 56.3562C9.10052 52.5715 9.82803 48.6233 7.88255 45.3291" stroke="black" stroke-width="0.5" stroke-linecap="round" stroke-linejoin="round"/>
<path d="M60.4844 41.896C60.4844 39.5112 61.4317 37.2242 63.118 35.5379C64.8043 33.8516 67.0913 32.9043 69.4761 32.9043H102.116C109.516 32.9043 115.197 34.9479 119.159 39.035C121.114 41.0397 122.647 43.4159 123.668 46.0231C124.688 48.6303 125.176 51.4157 125.102 54.2146C125.221 58.9129 123.723 63.5097 120.86 67.2362C118.673 69.8595 115.813 71.8376 112.587 72.9582C118.108 74.4405 122.165 76.9799 124.759 80.5766C127.353 84.1733 128.652 88.6964 128.658 94.1459C128.723 98.3038 127.772 102.415 125.887 106.121C124.143 109.542 121.522 112.439 118.293 114.516C116.309 115.802 113.312 116.737 109.301 117.32C105.784 117.911 102.236 118.301 98.6746 118.489H69.4761C67.0913 118.489 64.8043 117.542 63.118 115.855C61.4317 114.169 60.4844 111.882 60.4844 109.497V41.896ZM81.6394 61.9393C81.6415 63.1418 82.1202 64.2945 82.9705 65.1449C83.8209 65.9952 84.9735 66.4739 86.1761 66.476H91.9553C95.661 66.476 98.2359 65.7649 99.68 64.3425C101.124 62.9202 101.841 60.8685 101.83 58.1873C101.89 57.1158 101.729 56.0433 101.354 55.0374C100.98 54.0315 100.402 53.114 99.6555 52.3427C98.2059 50.9476 95.6828 50.2474 92.0861 50.2419H86.1516C84.949 50.2441 83.7963 50.7227 82.946 51.5731C82.0957 52.4234 81.617 53.5761 81.6149 54.7786L81.6394 61.9393ZM81.6394 95.5682C81.6415 96.7708 82.1202 97.9234 82.9705 98.7738C83.8209 99.6241 84.9735 100.103 86.1761 100.105H93.7373C97.8244 100.105 100.704 99.2875 102.377 97.6527C103.231 96.7994 103.895 95.7764 104.328 94.6498C104.76 93.5232 104.95 92.3183 104.887 91.1132C104.94 89.9804 104.748 88.8495 104.325 87.7973C103.902 86.7451 103.257 85.7963 102.435 85.0153C100.8 83.4785 97.8953 82.7101 93.721 82.7101H86.2088C85.007 82.7101 83.8543 83.187 83.0037 84.036C82.1532 84.885 81.6742 86.0369 81.6721 87.2387L81.6394 95.5682Z" fill="#83C12B" stroke="black" stroke-width="0.25" stroke-miterlimit="10"/>
<path d="M51.8192 131.429L25.1138 134.886L24.3373 140.829C24.0153 143.279 22.8926 145.554 21.1437 147.3C19.3948 149.046 17.1178 150.165 14.6671 150.483C12.9039 150.712 11.1115 150.517 9.43823 149.916C7.76497 149.315 6.25893 148.324 5.04473 147.025C3.83052 145.726 2.94304 144.157 2.45571 142.447C1.96837 140.737 1.8952 138.935 2.24224 137.191L14.2911 76.5875C15.0231 72.8888 16.899 69.5138 19.6538 66.9394C22.4085 64.3651 25.9027 62.7217 29.6424 62.2416C33.3824 61.7518 37.1818 62.4505 40.5029 64.2387C43.8241 66.0269 46.4989 68.8141 48.1489 72.206L75.2385 127.734C76.019 129.332 76.4077 131.093 76.3722 132.872C76.3368 134.65 75.8782 136.394 75.0346 137.96C74.1909 139.526 72.9864 140.868 71.5208 141.876C70.0551 142.884 68.3705 143.528 66.6064 143.755L65.9361 143.845C63.4966 144.16 61.0212 143.664 58.8913 142.434C56.7613 141.203 55.095 139.307 54.1488 137.036L51.8192 131.429ZM43.792 111.884L34.3262 89.3393C34.2014 89.0332 33.9788 88.777 33.693 88.6108C33.4072 88.4446 33.0744 88.3778 32.7466 88.4208C32.4189 88.4637 32.1145 88.6141 31.8812 88.8483C31.6479 89.0825 31.4988 89.3874 31.4571 89.7153L28.1138 113.919C28.0813 114.148 28.1024 114.382 28.1754 114.601C28.2484 114.821 28.3714 115.021 28.5346 115.185C28.6978 115.349 28.8968 115.472 29.1159 115.546C29.3351 115.621 29.5685 115.643 29.7977 115.611L42.6068 113.977C42.8389 113.948 43.0611 113.866 43.2557 113.736C43.4502 113.606 43.6115 113.432 43.7268 113.229C43.842 113.025 43.908 112.798 43.9193 112.564C43.9307 112.331 43.8871 112.098 43.792 111.884Z" fill="#FF9A00" stroke="black" stroke-width="0.25" stroke-miterlimit="10"/>
<path d="M174.752 123.034L178.553 125.699C179.524 126.378 180.346 127.25 180.968 128.259C181.59 129.268 181.999 130.393 182.17 131.566C182.341 132.74 182.269 133.935 181.961 135.08C181.652 136.224 181.113 137.293 180.376 138.222C178.639 140.453 176.66 142.485 174.474 144.279C170.587 147.511 165.934 149.687 160.962 150.598C156.057 151.47 150.311 150.925 143.722 148.963C135.717 146.609 129.559 143.391 125.249 139.309C120.938 135.227 117.9 129.38 116.134 121.767C114.374 114.138 114.99 105.239 117.982 95.0698C121.982 81.4842 128.289 71.9966 136.905 66.607C145.521 61.2174 155.763 60.2638 167.632 63.746C176.896 66.4708 183.572 70.705 187.659 76.4488C190.139 80.0346 191.866 84.0863 192.735 88.3587C193.003 89.65 192.973 90.9855 192.646 92.2631C192.318 93.5406 191.703 94.7265 190.847 95.7298C189.992 96.7332 188.918 97.5276 187.708 98.0521C186.498 98.5767 185.184 98.8176 183.866 98.7564L179.689 98.5766C177.853 98.4725 176.096 97.7984 174.661 96.6482C173.227 95.498 172.187 93.929 171.687 92.1597C171.057 89.9675 169.907 87.9596 168.335 86.307C166.76 84.6935 164.786 83.5259 162.613 82.9228C157.452 81.4024 152.82 82.5523 148.717 86.3724C145.627 89.1898 143.003 94.2742 140.845 101.626C138.169 110.726 137.575 117.328 139.063 121.432C140.551 125.535 143.548 128.246 148.055 129.565C152.414 130.846 156.106 130.451 159.131 128.38C160.595 127.354 161.913 126.133 163.046 124.751C164.43 123.054 166.399 121.936 168.566 121.619C170.732 121.301 172.939 121.806 174.752 123.034Z" fill="#FFD300" stroke="black" stroke-width="0.25" stroke-miterlimit="10"/>
<path d="M103.121 43.5553C109.776 43.5553 115.17 38.1608 115.17 31.5064C115.17 24.852 109.776 19.4575 103.121 19.4575C96.4667 19.4575 91.0723 24.852 91.0723 31.5064C91.0723 38.1608 96.4667 43.5553 103.121 43.5553Z" fill="white" stroke="black" stroke-width="0.25" stroke-miterlimit="10"/>
<path d="M94.7754 40.1793C96.2524 41.6058 98.07 42.6306 100.055 43.1562C102.04 43.6817 104.127 43.6905 106.116 43.1816C108.105 42.6728 109.932 41.6633 111.421 40.2493C112.909 38.8352 114.012 37.0636 114.623 35.103C110.723 35.2257 102.116 32.9042 94.7754 40.1793Z" fill="#83C12B" stroke="black" stroke-width="0.25" stroke-miterlimit="10"/>
<path d="M79.7017 43.5553C86.3561 43.5553 91.7506 38.1608 91.7506 31.5064C91.7506 24.852 86.3561 19.4575 79.7017 19.4575C73.0473 19.4575 67.6528 24.852 67.6528 31.5064C67.6528 38.1608 73.0473 43.5553 79.7017 43.5553Z" fill="white" stroke="black" stroke-width="0.25" stroke-miterlimit="10"/>
<path d="M68.1108 34.7433C68.6207 36.5772 69.5583 38.264 70.8468 39.6651C72.1352 41.0663 73.7377 42.1417 75.5225 42.8032C77.3074 43.4646 79.2237 43.6931 81.114 43.47C83.0044 43.2469 84.8148 42.5785 86.3967 41.5198C84.9907 40.7023 77.2497 33.2556 68.1108 34.7433Z" fill="#83C12B" stroke="black" stroke-width="0.25" stroke-miterlimit="10"/>
<path d="M43.9722 85.7833C50.6266 85.7833 56.0211 80.3888 56.0211 73.7344C56.0211 67.08 50.6266 61.6855 43.9722 61.6855C37.3178 61.6855 31.9233 67.08 31.9233 73.7344C31.9233 80.3888 37.3178 85.7833 43.9722 85.7833Z" fill="white" stroke="black" stroke-width="0.25" stroke-miterlimit="10"/>
<path d="M40.9805 64.3182C47.9858 64.3182 53.9204 67.8249 55.9721 72.6559C55.7759 70.3899 54.9415 68.226 53.5657 66.4149C52.1898 64.6038 50.3288 63.2197 48.1984 62.4232C46.068 61.6266 43.7554 61.4502 41.5289 61.9144C39.3023 62.3785 37.2528 63.4642 35.6182 65.0457C37.3647 64.5629 39.1684 64.3181 40.9805 64.3182Z" fill="#FF9A00" stroke="black" stroke-width="0.25" stroke-miterlimit="10"/>
<path d="M23.8306 85.7833C30.485 85.7833 35.8795 80.3888 35.8795 73.7344C35.8795 67.08 30.485 61.6855 23.8306 61.6855C17.1762 61.6855 11.7817 67.08 11.7817 73.7344C11.7817 80.3888 17.1762 85.7833 23.8306 85.7833Z" fill="white" stroke="black" stroke-width="0.25" stroke-miterlimit="10"/>
<path d="M25.3514 65.3877C27.7776 65.0503 30.2423 65.1055 32.651 65.5512C31.0403 63.8131 28.9523 62.5893 26.6488 62.0332C24.3453 61.4772 21.9289 61.6137 19.7026 62.4256C17.4764 63.2375 15.5395 64.6887 14.1348 66.5972C12.7301 68.5056 11.9202 70.7863 11.8066 73.1533C14.2671 69.2869 19.2697 66.2297 25.3514 65.3877Z" fill="#FF9A00" stroke="black" stroke-width="0.25" stroke-miterlimit="10"/>
<path d="M151.979 75.0416C158.633 75.0416 164.027 69.6471 164.027 62.9927C164.027 56.3383 158.633 50.9438 151.979 50.9438C145.324 50.9438 139.93 56.3383 139.93 62.9927C139.93 69.6471 145.324 75.0416 151.979 75.0416Z" fill="white" stroke="black" stroke-width="0.25" stroke-miterlimit="10"/>
<path d="M171.736 79.0152C178.39 79.0152 183.785 73.6208 183.785 66.9664C183.785 60.3119 178.39 54.9175 171.736 54.9175C165.081 54.9175 159.687 60.3119 159.687 66.9664C159.687 73.6208 165.081 79.0152 171.736 79.0152Z" fill="white" stroke="black" stroke-width="0.25" stroke-miterlimit="10"/>
<path d="M172.79 82.7669C174.27 85.6687 176.935 90.8103 180.867 88.8976C184.136 86.715 184.741 82.2192 184.954 78.5244C185.379 82.4154 184.839 87.3036 181.259 89.6087C176.869 91.8648 173.747 86.2736 172.782 82.7669H172.79Z" fill="black"/>
<path d="M171.736 70.7761C173.84 70.7761 175.545 69.0707 175.545 66.9669C175.545 64.8632 173.84 63.1577 171.736 63.1577C169.632 63.1577 167.927 64.8632 167.927 66.9669C167.927 69.0707 169.632 70.7761 171.736 70.7761Z" fill="black"/>
<path d="M151.979 66.803C154.082 66.803 155.788 65.0975 155.788 62.9938C155.788 60.89 154.082 59.1846 151.979 59.1846C149.875 59.1846 148.169 60.89 148.169 62.9938C148.169 65.0975 149.875 66.803 151.979 66.803Z" fill="black"/>
<path d="M103.121 34.842C105.225 34.842 106.93 33.1366 106.93 31.0328C106.93 28.9291 105.225 27.2236 103.121 27.2236C101.017 27.2236 99.312 28.9291 99.312 31.0328C99.312 33.1366 101.017 34.842 103.121 34.842Z" fill="black"/>
<path d="M80.1842 34.842C82.288 34.842 83.9934 33.1366 83.9934 31.0328C83.9934 28.9291 82.288 27.2236 80.1842 27.2236C78.0804 27.2236 76.375 28.9291 76.375 31.0328C76.375 33.1366 78.0804 34.842 80.1842 34.842Z" fill="black"/>
<path d="M23.8307 77.5447C25.9345 77.5447 27.6399 75.8392 27.6399 73.7355C27.6399 71.6317 25.9345 69.9263 23.8307 69.9263C21.7269 69.9263 20.0215 71.6317 20.0215 73.7355C20.0215 75.8392 21.7269 77.5447 23.8307 77.5447Z" fill="black"/>
<path d="M43.9147 77.5447C46.0184 77.5447 47.7239 75.8392 47.7239 73.7355C47.7239 71.6317 46.0184 69.9263 43.9147 69.9263C41.8109 69.9263 40.1055 71.6317 40.1055 73.7355C40.1055 75.8392 41.8109 77.5447 43.9147 77.5447Z" fill="black"/>
<path d="M23.7244 88.358C21.2721 91.17 16.5392 91.5868 15.9915 86.9766C13.2368 98.4205 20.9043 97.9628 23.7244 88.358Z" fill="white" stroke="black" stroke-width="0.25" stroke-miterlimit="10"/>
<path d="M101.724 47.0216C102.173 49.1878 102.664 51.7545 104.585 53.0378C106.677 54.2068 108.754 52.0079 109.383 50.0869C109.878 48.6954 109.828 47.1683 109.244 45.8118C109.203 45.713 109.202 45.6021 109.242 45.5027C109.281 45.4034 109.359 45.3236 109.456 45.2805C109.549 45.2429 109.651 45.2395 109.746 45.271C109.84 45.3025 109.92 45.3667 109.971 45.4521C111.255 47.7327 114.255 50.0052 116.936 48.9425C119.445 47.3077 117.001 43.1061 115.931 41.1279C117.41 43.2532 120.099 47.4058 117.23 49.4575C114.198 50.8798 110.748 48.4521 109.26 45.8445L109.988 45.4848C110.484 46.636 110.641 47.9044 110.443 49.142C110.245 50.3796 109.699 51.5352 108.868 52.4738C107.813 53.749 105.786 54.5501 104.299 53.5038C102.271 52.0406 101.912 49.3022 101.724 47.0216Z" fill="black"/>
<path d="M1 39.9343C3.48172 41.4797 5.78933 43.2886 7.88273 45.3294C8.10621 42.0225 8.51832 38.7311 9.11705 35.4712" stroke="black" stroke-width="0.5" stroke-linecap="round" stroke-linejoin="round"/>
<path d="M3.7793 36.043C7.58033 43.2118 7.86643 45.3698 7.86643 45.3698C7.86643 45.3698 10.1389 43.4325 14.7655 40.032" stroke="black" stroke-width="0.5" stroke-linecap="round" stroke-linejoin="round"/>
</svg>
