<svg width="126" height="150" viewBox="0 0 126 150" fill="none" xmlns="http://www.w3.org/2000/svg">
<path d="M88.7044 97.0864C88.6186 96.2116 88.3184 95.1505 87.4748 94.9497C87.1575 94.9081 86.8349 94.9527 86.5406 95.0788C86.2464 95.2049 85.9913 95.4079 85.802 95.6667C85.4196 96.1981 84.973 96.6797 84.4723 97.1007C84.3305 97.1806 84.1755 97.2341 84.0147 97.2584C83.7293 97.2922 83.4533 97.3821 83.2025 97.5229C82.9517 97.6637 82.731 97.8527 82.5531 98.0791C82.3752 98.3055 82.2435 98.5649 82.1655 98.8423C82.0876 99.1198 82.0649 99.41 82.0988 99.6962C82.1149 99.8678 82.1533 100.037 82.2132 100.198V100.356C82.5708 101.637 83.015 102.892 83.5429 104.113C83.6691 104.429 83.8703 104.71 84.1291 104.93C84.3299 105.084 84.5649 105.187 84.814 105.229C85.0631 105.272 85.3187 105.253 85.5589 105.174C89.4622 104.127 89.0475 100.413 88.7044 97.0864Z" fill="white"/>
<path d="M85.0147 105.561C85.2003 105.575 85.3867 105.575 85.5723 105.561C89.8616 104.471 89.4041 100.442 89.0752 97.1864C88.9322 95.7524 88.4032 94.935 87.5597 94.7342C87.1805 94.684 86.7948 94.7344 86.441 94.8803C86.0873 95.0262 85.7779 95.2626 85.5437 95.5659L85.1576 96.0248C84.924 96.3597 84.6336 96.6509 84.2998 96.8852C84.1927 96.94 84.0763 96.974 83.9566 96.9856C83.558 97.0602 83.1797 97.2189 82.847 97.4513C82.5142 97.6837 82.2345 97.9844 82.0264 98.3335C81.8457 98.6487 81.7389 99.0011 81.7141 99.3638C81.6894 99.7266 81.7473 100.09 81.8835 100.427V100.556C82.2393 101.854 82.6885 103.124 83.2275 104.356C83.3525 104.725 83.569 105.056 83.8565 105.317C84.202 105.532 84.6121 105.619 85.0147 105.561ZM88.346 97.1146V97.2007C88.6749 100.47 89.0323 103.854 85.3721 104.786C85.198 104.844 85.0128 104.859 84.8315 104.832C84.6503 104.805 84.4779 104.735 84.3284 104.629C84.1515 104.422 84.0156 104.184 83.928 103.926C83.3987 102.722 82.959 101.481 82.6127 100.212V100.011C82.5182 99.7807 82.4781 99.5313 82.4955 99.2826C82.5128 99.0338 82.5872 98.7925 82.7127 98.5773C82.867 98.3211 83.0747 98.1014 83.3214 97.9331C83.5682 97.7648 83.8483 97.652 84.1425 97.6022C84.3556 97.574 84.5603 97.5007 84.743 97.3871C85.1325 97.1089 85.4752 96.77 85.7581 96.3833L86.1299 95.9531C86.3444 95.7237 86.902 95.2074 87.4596 95.3365C88.0172 95.4656 88.3603 96.5554 88.4175 97.1577L88.346 97.1146Z" fill="black"/>
<path d="M84.3259 66.9869C84.8406 67.6752 85.3267 68.636 84.8549 69.353C84.3831 70.07 82.4672 69.9123 81.8381 69.8692C81.209 69.8262 80.5227 71.3032 78.7069 71.1455C77.2771 71.0308 76.4049 66.6141 75.976 65.4095C75.8615 65.1073 75.8033 64.7865 75.8044 64.4631C75.8489 64.2294 75.947 64.0093 76.091 63.8201C76.2349 63.631 76.4207 63.478 76.6337 63.3733C80.1795 61.4087 82.3385 64.3627 84.3259 66.9869Z" fill="white"/>
<path d="M78.9352 71.5036C79.8053 71.4778 80.6353 71.1305 81.2657 70.5285C81.4184 70.3843 81.5982 70.2722 81.7947 70.1987C81.7947 70.1987 84.6543 70.3564 85.1261 69.5247C85.4693 69.0372 85.6408 68.0907 84.5971 66.7428L84.3111 66.9579L84.5399 66.6424C82.624 64.0756 80.2506 60.9064 76.4474 62.957C76.1739 63.0925 75.9388 63.2949 75.7639 63.5455C75.589 63.7962 75.4799 64.0869 75.4466 64.391C75.4148 64.7736 75.4787 65.158 75.6324 65.5095L75.9327 66.5564C76.6333 69.1089 77.3624 71.4032 78.6635 71.5036H78.9352ZM81.7947 69.5104C81.4318 69.5568 81.0947 69.7234 80.8368 69.9836C80.5554 70.2566 80.2212 70.4687 79.8547 70.6068C79.4883 70.745 79.0974 70.8061 78.7064 70.7866C77.8057 70.7866 77.005 67.7752 76.619 66.3556C76.4903 65.9111 76.3902 65.5239 76.3044 65.2658C76.1949 65.0176 76.1413 64.7484 76.1471 64.4771C76.1836 64.3 76.2607 64.1339 76.3724 63.992C76.4841 63.8501 76.6273 63.7363 76.7905 63.6597C80.0361 61.8959 82.0378 64.5631 83.9394 67.1443L84.2826 66.9865L83.9966 67.2016C84.354 67.6892 84.8974 68.6356 84.5113 69.1519C83.6585 69.492 82.7351 69.6151 81.8233 69.5104H81.7947Z" fill="black"/>
<path d="M14.0655 45.8207C14.6207 46.4285 15.2971 46.9123 16.0508 47.2409C16.8046 47.5695 17.6188 47.7354 18.4406 47.7279C20.0547 47.8144 21.6733 47.6988 23.2589 47.3838C26.4363 46.7674 29.5447 45.8355 32.5381 44.6018C35.5163 43.3796 38.3861 41.9069 41.1168 40.1995C43.8517 38.4762 46.4605 36.5594 48.9233 34.4636C53.791 30.2558 58.2438 25.5882 62.2202 20.5252C64.2525 18.0293 66.0656 15.3617 67.6391 12.5522C68.4401 11.1115 69.0551 9.5743 69.4692 7.97781C69.7088 7.14836 69.8291 6.28887 69.8266 5.42532C69.7724 4.46641 69.4504 3.54213 68.8973 2.7581C68.3138 1.97095 67.5209 1.36463 66.6096 1.00863C65.7452 0.666902 64.8341 0.458987 63.9074 0.392016C62.2064 0.26445 60.496 0.390093 58.8317 0.764856C55.6447 1.46937 52.5499 2.54248 49.6096 3.96265C43.7384 6.7143 38.2141 10.1561 33.1529 14.2157C28.0361 18.1903 23.498 22.8625 19.6702 28.0967C17.7697 30.7404 16.1319 33.5645 14.7804 36.5285C14.1197 38.0091 13.6397 39.5643 13.3506 41.1603C13.1452 41.9448 13.1027 42.7633 13.2256 43.5649C13.3486 44.3666 13.6345 45.1344 14.0655 45.8207ZM14.3228 45.6056C13.9038 44.9596 13.6327 44.2285 13.5289 43.4648C13.425 42.7012 13.4911 41.924 13.7223 41.189C14.1089 39.6717 14.721 38.2215 15.5381 36.887C17.1606 34.2168 19.0792 31.7394 21.2572 29.502C23.4305 27.2363 25.7181 25.114 28.0344 23.0203C30.3506 20.9267 32.7526 18.9191 35.1832 17.0263C40.0743 13.1567 45.3048 9.73937 50.8106 6.81628C53.5529 5.39829 56.4259 4.2505 59.3893 3.38905C60.7843 2.97655 62.2252 2.74051 63.6786 2.6864C64.3277 2.62068 64.9834 2.69409 65.6021 2.90175C66.2208 3.10942 66.7884 3.4466 67.2673 3.89095C67.6608 4.44503 67.9298 5.07812 68.0556 5.74655C68.1815 6.41499 68.1614 7.10286 67.9965 7.76271C67.7371 9.26033 67.2551 10.7105 66.5667 12.0647C65.1231 14.876 63.3365 17.4964 61.248 19.8656C57.0143 24.5394 52.2603 28.7108 47.0789 32.2982C44.5482 34.1481 41.9889 35.9549 39.3867 37.6757C36.7846 39.3965 34.1538 41.1029 31.4372 42.6516C28.7381 44.2698 25.8588 45.5645 22.8586 46.5091C21.3687 46.9808 19.817 47.2273 18.2547 47.2404C17.5143 47.2673 16.7768 47.1355 16.0913 46.8535C15.4058 46.5716 14.7883 46.1462 14.2799 45.6056H14.3228Z" fill="#FFDB2C"/>
<path d="M19.5031 48.0008C20.7885 47.9728 22.0697 47.8433 23.3349 47.6136C26.5373 46.9833 29.6662 46.0222 32.6713 44.7457C35.6723 43.5526 38.5702 42.1138 41.3357 40.4437C44.0788 38.7124 46.7014 36.796 49.1852 34.7077C54.0497 30.4914 58.5021 25.8194 62.4821 20.755C64.5286 18.2484 66.3515 15.566 67.9295 12.7391C68.7448 11.2647 69.374 9.69442 69.8025 8.06425C70.0167 7.18752 70.1034 6.28432 70.0599 5.38269C70.0188 4.35139 69.6754 3.35514 69.0726 2.51855C68.4699 1.68196 67.6347 1.04217 66.6713 0.679217C65.8021 0.334522 64.8865 0.121863 63.9547 0.0482639C62.2301 -0.0792873 60.4961 0.0463131 58.8076 0.421098C55.5738 1.11969 52.4347 2.20284 49.4568 3.64757C43.5689 6.40698 38.026 9.85323 32.943 13.9149C27.8116 17.9276 23.2681 22.6437 19.4459 27.925C17.5185 30.554 15.8656 33.3746 14.5132 36.3425C13.8523 37.8479 13.3723 39.4268 13.0834 41.046C12.6455 42.3828 12.7549 43.8393 13.3877 45.0952C14.0205 46.3511 15.1248 47.3034 16.4577 47.7427C17.1261 47.9594 17.8305 48.0422 18.5308 47.9865L19.5031 48.0008ZM62.6822 0.679217C63.0916 0.650533 63.5025 0.650533 63.9118 0.679217C64.7859 0.738423 65.645 0.936888 66.4568 1.26715C67.3213 1.60126 68.0745 2.17277 68.6301 2.91624C69.1583 3.66049 69.4611 4.5418 69.5023 5.4544C69.5308 6.26088 69.4441 7.0673 69.2449 7.84915C68.8467 9.42829 68.2409 10.9473 67.4434 12.3662C65.8878 15.1655 64.0787 17.8152 62.0388 20.2818C58.0934 25.3403 53.6586 29.9947 48.7991 34.1772C46.3377 36.2683 43.734 38.1849 41.0069 39.9131C38.274 41.5883 35.4042 43.0275 32.4282 44.2151C29.4559 45.4354 26.3721 46.3623 23.2205 46.9827C22.0961 47.1855 20.9591 47.3101 19.8176 47.3555C20.9482 47.2459 22.0645 47.02 23.149 46.6815C26.1479 45.7209 29.0264 44.4169 31.7276 42.7954C34.5872 41.1607 37.4467 39.3539 39.7058 37.8052C41.9648 36.2564 44.5956 34.4783 47.4123 32.4277C52.5985 28.8135 57.3654 24.629 61.6242 19.952C63.7171 17.5801 65.5129 14.9603 66.9716 12.1511C67.6607 10.7568 68.1424 9.26879 68.4013 7.73443C68.5834 7.0344 68.606 6.30222 68.4674 5.59224C68.3288 4.88225 68.0326 4.21269 67.6007 3.63323C67.0973 3.15899 66.4992 2.79741 65.846 2.57244C65.1928 2.34748 64.4994 2.26426 63.8118 2.3283C62.3102 2.3801 60.8211 2.62099 59.3795 3.0453C56.4153 3.91655 53.5423 5.07394 50.8008 6.50121C45.2546 9.41468 39.9896 12.8374 35.0733 16.7255C32.3425 18.8048 29.7832 21.0275 27.9245 22.7339C25.7226 24.7272 23.3635 26.9068 21.133 29.2299C18.9173 31.5104 16.9608 34.0305 15.2996 36.744C14.611 37.8956 14.0683 39.1288 13.6839 40.415C13.9996 39.1089 14.4401 37.8363 14.9993 36.6149C16.3449 33.6854 17.9731 30.895 19.8605 28.2835C23.6651 23.0652 28.1849 18.4114 33.2861 14.4598C38.3053 10.4185 43.7866 6.991 49.6141 4.24985C52.5574 2.8405 55.6515 1.77244 58.8361 1.06639C60.102 0.808492 61.3905 0.678781 62.6822 0.679217ZM63.9118 2.95926C64.5074 2.90548 65.1077 2.97721 65.674 3.16983C66.2403 3.36246 66.7602 3.67172 67.2003 4.07777C67.5737 4.59463 67.8276 5.18833 67.9439 5.81583C68.0601 6.44333 68.0356 7.0889 67.8723 7.70576C67.6048 9.20133 67.1232 10.6503 66.4425 12.0077C65.0532 14.7863 63.3137 17.3743 61.2668 19.7082C57.0524 24.3675 52.3172 28.5247 47.1549 32.0979C44.2954 34.1485 41.8361 35.9123 39.4627 37.4753C37.0893 39.0384 34.4013 40.8165 31.5275 42.4369C28.8584 44.0414 26.0133 45.331 23.0489 46.28C21.5812 46.74 20.0542 46.9815 18.5165 46.997C17.7911 47.0351 17.0659 46.9165 16.3901 46.6493C15.7142 46.3822 15.1034 45.9726 14.599 45.4483C14.2105 44.8319 13.9607 44.1379 13.8669 43.4148C13.7731 42.6917 13.8375 41.9567 14.0556 41.2611C14.4273 39.7458 15.0251 38.2954 15.8286 36.9591C17.4563 34.3057 19.3746 31.8431 21.5477 29.6171C23.7781 27.3084 26.1086 25.143 28.3105 23.1498C30.2264 21.4577 32.7714 19.235 35.4594 17.1701C40.3364 13.3147 45.5527 9.91168 51.0439 7.0031C53.7476 5.58005 56.5822 4.42269 59.5081 3.54719C60.9013 3.12674 62.3433 2.89052 63.7975 2.84454L63.9118 2.95926Z" fill="#CC781D"/>
<path d="M15.8095 77.9427C13.0643 56.3038 21.643 38.0348 43.5471 33.6325C66.4235 29.0294 78.1333 44.373 85.0105 61.3658C86.0685 64.0043 85.1249 63.904 82.4655 64.8791C78.5193 66.313 75.5168 63.8466 72.3141 64.4919C60.1324 66.944 53.7271 84.3383 56.1434 96.5559C58.5597 108.773 67.7817 108.558 79.9634 106.106C83.2519 105.432 84.8961 102.98 87.8414 101.446C88.4156 101.169 89.0526 101.051 89.6875 101.101C90.3223 101.152 90.9324 101.371 91.4555 101.735C91.9787 102.1 92.3961 102.597 92.6655 103.176C92.9348 103.754 93.0463 104.395 92.9886 105.031C91.6875 122.339 83.595 142.788 54.1274 148.724C29.3208 153.715 5.51511 139.575 1.08282 117.177C-1.86252 102.349 4.19972 87.7368 15.8095 77.9427Z" fill="#80E165"/>
<g opacity="0.21">
<path d="M15.8135 77.9425C13.0683 56.3036 21.647 38.0346 43.5511 33.6322C47.7456 32.7442 52.0643 32.613 56.3047 33.2451C55.4182 33.3741 54.5032 33.5175 53.5738 33.7039C31.6697 38.1063 23.0911 56.3753 25.8362 78.0142C14.2265 87.7509 8.10703 102.392 11.0667 117.205C14.6268 135.044 30.3829 147.62 49.1415 149.527C26.2652 151.865 5.2332 138.141 1.02967 117.205C-1.85847 102.349 4.20376 87.7366 15.8135 77.9425Z" fill="black"/>
</g>
<path d="M44.09 150C47.4509 149.996 50.8033 149.66 54.0984 148.996C84.1236 142.945 91.9302 121.75 93.1884 105.059C93.237 104.346 93.0958 103.633 92.7792 102.993C92.4627 102.353 91.9821 101.809 91.3869 101.416C90.8384 101.042 90.1987 100.824 89.5364 100.786C88.8741 100.749 88.2139 100.892 87.6266 101.201C86.5552 101.789 85.5405 102.476 84.5954 103.252C83.235 104.487 81.5964 105.372 79.82 105.833C66.6518 108.472 58.5879 107.798 56.3288 96.4977C53.8982 84.0794 60.4323 67.1584 72.3137 64.7923C73.6621 64.6194 75.0317 64.7367 76.3314 65.1364C78.3287 65.7983 80.4815 65.8234 82.4937 65.2081L83.3944 64.864C84.5096 64.4768 85.2388 64.233 85.5248 63.6021C85.8107 62.9711 85.6535 62.4549 85.1959 61.3077C76.1455 38.622 62.4768 29.5018 43.4895 33.3162C23.0008 37.4461 12.5492 54.0661 15.5088 77.7699C3.38432 88.0085 -2.1346 102.721 0.75354 117.133C4.65682 136.692 23.1009 150 44.09 150ZM89.3423 101.345C89.9743 101.344 90.5919 101.534 91.1152 101.89C91.6328 102.222 92.0526 102.687 92.3316 103.237C92.6105 103.786 92.7385 104.4 92.7023 105.016C91.4583 121.535 83.7376 142.471 54.0984 148.451C29.492 153.398 5.84353 139.331 1.39693 117.075C-1.46261 102.736 4.02772 88.2523 16.0664 78.157L16.1808 78.0567V77.8989C13.2069 54.4245 23.4869 37.9767 43.7039 33.9042C62.291 30.1328 75.7451 39.1526 84.6955 61.4798C85.0816 62.4405 85.1816 62.9998 85.0387 63.3296C84.8957 63.6594 84.2094 63.9462 83.2371 64.2904L82.3078 64.6059C80.4069 65.222 78.3609 65.222 76.46 64.6059C75.0727 64.1769 73.6083 64.0594 72.1707 64.2617C59.989 66.7138 53.2548 83.979 55.7855 96.6411C58.3877 109.633 68.6535 108.687 79.9201 106.421C81.7882 105.957 83.5125 105.036 84.9386 103.739C85.8546 102.978 86.8408 102.306 87.8839 101.732C88.3326 101.489 88.8324 101.356 89.3423 101.345Z" fill="black"/>
<path d="M67.1837 53.8223C60.1559 53.8223 54.4587 48.1084 54.4587 41.0599C54.4587 34.0113 60.1559 28.2974 67.1837 28.2974C74.2115 28.2974 79.9087 34.0113 79.9087 41.0599C79.9087 48.1084 74.2115 53.8223 67.1837 53.8223Z" fill="white"/>
<g opacity="0.21">
<path d="M67.1826 28.2974C68.1206 28.3015 69.0554 28.4073 69.9707 28.6128C67.1523 29.2461 64.6329 30.8231 62.8276 33.0843C61.0222 35.3455 60.0385 38.1559 60.0385 41.0527C60.0385 43.9495 61.0222 46.7599 62.8276 49.0211C64.6329 51.2822 67.1523 52.8593 69.9707 53.4925C66.6885 54.1984 63.2611 53.5734 60.4366 51.754C57.6122 49.9345 55.6201 47.0683 54.895 43.781C54.17 40.4938 54.771 37.0523 56.5669 34.2078C58.3627 31.3634 61.2075 29.3469 64.4804 28.5985C65.3672 28.3977 66.2735 28.2967 67.1826 28.2974Z" fill="black"/>
</g>
<path d="M67.1828 54.0952C69.7561 54.098 72.2725 53.3354 74.4137 51.9039C76.5549 50.4724 78.2247 48.4362 79.2121 46.0529C80.1995 43.6695 80.46 41.046 79.9608 38.5142C79.4615 35.9823 78.2249 33.6558 76.4073 31.8288C74.5897 30.0018 72.2727 28.7564 69.7494 28.2501C67.2261 27.7438 64.6097 27.9994 62.2312 28.9844C59.8527 29.9695 57.8188 31.6398 56.3868 33.7842C54.9548 35.9285 54.189 38.4506 54.1861 41.0315C54.1824 42.7433 54.5148 44.4391 55.1645 46.022C55.8142 47.6049 56.7683 49.044 57.9725 50.257C59.1767 51.4701 60.6074 52.4334 62.1827 53.092C63.7581 53.7505 65.4474 54.0914 67.1542 54.0952H67.1828ZM67.1828 28.5702C69.6458 28.5673 72.0544 29.2971 74.1039 30.6672C76.1534 32.0372 77.7518 33.9861 78.697 36.2672C79.6421 38.5484 79.8916 41.0594 79.4139 43.4828C78.9361 45.9062 77.7526 48.1331 76.013 49.8818C74.2734 51.6306 72.0558 52.8227 69.6406 53.3074C67.2255 53.7921 64.7212 53.5477 62.4446 52.605C60.168 51.6622 58.2212 50.0636 56.8505 48.0112C55.4797 45.9588 54.7466 43.5448 54.7437 41.0745C54.7419 39.4343 55.0621 37.8098 55.6862 36.2937C56.3103 34.7776 57.2261 33.3997 58.3811 32.2386C59.5362 31.0774 60.908 30.1558 62.4182 29.5264C63.9284 28.897 65.5474 28.5721 67.1828 28.5702Z" fill="black"/>
<path d="M47.88 58.3253C40.8522 58.3253 35.155 52.6113 35.155 45.5628C35.155 38.5143 40.8522 32.8003 47.88 32.8003C54.9078 32.8003 60.605 38.5143 60.605 45.5628C60.605 52.6113 54.9078 58.3253 47.88 58.3253Z" fill="white"/>
<g opacity="0.21">
<path d="M47.8789 32.8003C48.8169 32.8045 49.7517 32.9102 50.667 33.1158C47.8486 33.749 45.3292 35.3261 43.5239 37.5872C41.7185 39.8484 40.7348 42.6588 40.7348 45.5556C40.7348 48.4524 41.7185 51.2628 43.5239 53.524C45.3292 55.7852 47.8486 57.3622 50.667 57.9955C47.3847 58.7013 43.9574 58.0763 41.1329 56.2569C38.3085 54.4374 36.3163 51.5713 35.5913 48.284C34.8663 44.9967 35.4673 41.5552 37.2632 38.7108C39.059 35.8663 41.9038 33.8498 45.1767 33.1014C46.0635 32.9006 46.9698 32.7996 47.8789 32.8003Z" fill="black"/>
</g>
<path d="M47.8791 58.5981C50.4524 58.6009 52.9687 57.8384 55.1099 56.4069C57.2512 54.9753 58.921 52.9392 59.9084 50.5558C60.8958 48.1724 61.1563 45.5489 60.6571 43.0171C60.1578 40.4852 58.9212 38.1587 57.1036 36.3317C55.286 34.5047 52.969 33.2594 50.4457 32.7531C47.9224 32.2468 45.306 32.5023 42.9275 33.4874C40.549 34.4724 38.5151 36.1427 37.0831 38.2871C35.6511 40.4314 34.8853 42.9536 34.8824 45.5345C34.8787 47.2462 35.2111 48.942 35.8608 50.5249C36.5105 52.1078 37.4646 53.5469 38.6688 54.76C39.873 55.973 41.3036 56.9363 42.879 57.5949C44.4544 58.2534 46.1437 58.5943 47.8505 58.5981H47.8791ZM47.8791 33.0731C50.3421 33.0703 52.7507 33.8 54.8002 35.1701C56.8497 36.5402 58.4481 38.489 59.3932 40.7702C60.3384 43.0513 60.5879 45.5624 60.1102 47.9858C59.6324 50.4091 58.4489 52.636 56.7093 54.3848C54.9697 56.1335 52.7521 57.3256 50.3369 57.8104C47.9217 58.2951 45.4175 58.0506 43.1409 57.1079C40.8643 56.1652 38.9175 54.5665 37.5467 52.5141C36.176 50.4617 35.4429 48.0478 35.44 45.5775C35.4382 43.9373 35.7584 42.3127 36.3825 40.7967C37.0066 39.2806 37.9223 37.9026 39.0774 36.7415C40.2325 35.5803 41.6043 34.6588 43.1145 34.0293C44.6247 33.3999 46.2437 33.075 47.8791 33.0731Z" fill="black"/>
<path d="M47.9082 49.9939C45.4682 49.9939 43.4902 48.01 43.4902 45.5629C43.4902 43.1157 45.4682 41.1318 47.9082 41.1318C50.3482 41.1318 52.3262 43.1157 52.3262 45.5629C52.3262 48.01 50.3482 49.9939 47.9082 49.9939Z" fill="black"/>
<path d="M67.1841 45.4909C64.7441 45.4909 62.7661 43.5071 62.7661 41.0599C62.7661 38.6127 64.7441 36.6289 67.1841 36.6289C69.6241 36.6289 71.6021 38.6127 71.6021 41.0599C71.6021 43.5071 69.6241 45.4909 67.1841 45.4909Z" fill="black"/>
<path d="M75.5474 26.3043C74.5134 25.3248 73.4043 24.4282 72.2303 23.6228C70.9999 22.7346 69.6398 22.0429 68.1983 21.5722C67.8266 21.4431 67.4548 21.3284 67.0688 21.228C66.6803 21.1085 66.2837 21.0175 65.8821 20.9556C65.4742 20.8983 65.0604 20.8983 64.6525 20.9556C64.2334 20.9799 63.8197 21.0619 63.4229 21.1994C62.6279 21.4468 61.8995 21.8723 61.2926 22.4437C60.6857 23.0151 60.2163 23.7174 59.9199 24.4975L60.1344 24.7556C61.7929 24.6409 62.994 24.4975 64.1092 24.4832H64.9527L65.7963 24.3828C66.0923 24.3165 66.3939 24.2781 66.6971 24.2681C67.0062 24.2394 67.3173 24.2394 67.6264 24.2681C68.9267 24.4281 70.2064 24.7261 71.4439 25.1572C72.765 25.5647 74.0632 26.0434 75.3329 26.5911L75.5474 26.3043Z" fill="black"/>
<path d="M35.3124 36.6866C36.1274 35.5394 36.8995 34.3779 37.7859 33.3311C38.6152 32.3129 39.5445 31.3809 40.5597 30.5492C40.8073 30.3557 41.0703 30.1831 41.3461 30.0329C41.6034 29.8755 41.8766 29.7457 42.1611 29.6457L42.9331 29.2873C43.1905 29.1582 43.4192 29.0005 43.6766 28.8857C44.6489 28.2835 45.7212 27.7816 47.1938 26.9929V26.6631C46.5319 26.1596 45.7637 25.815 44.9482 25.6559C44.1327 25.4968 43.2917 25.5274 42.4899 25.7453C42.0795 25.8351 41.6845 25.9849 41.3175 26.1898C40.9431 26.3669 40.6002 26.6042 40.3023 26.8925C39.9873 27.1534 39.6955 27.4413 39.4302 27.7529C39.1585 28.0397 38.9012 28.3408 38.6581 28.642C37.7066 29.8 36.9265 31.0895 36.3419 32.4707C35.7594 33.7934 35.2813 35.1598 34.9121 36.5576L35.3124 36.6866Z" fill="black"/>
<path d="M79.765 81.3979C82.6245 80.0786 93.2907 76.4793 96.1502 75.3751C99.0185 74.1975 101.998 73.3135 105.043 72.7366C106.57 72.4648 108.113 72.2923 109.662 72.2204C111.171 72.1628 112.682 72.2348 114.18 72.4355C117.093 72.7194 119.796 74.0849 121.757 76.2642C123.633 78.5018 124.755 81.2779 124.96 84.1941C125.15 87.1847 124.701 90.1815 123.645 92.9845C122.572 95.8637 121.201 98.6224 119.556 101.216C115.445 107.83 110.065 113.559 103.727 118.069C97.3897 122.579 90.2212 125.78 82.6388 127.486C70.3353 130.24 57.4785 129.02 45.908 124.002" stroke="black" stroke-width="0.75" stroke-linecap="round" stroke-linejoin="round"/>
<path d="M93.9358 76.3223C88.0022 82.259 94.9366 85.2703 98.125 78.0717" stroke="black" stroke-width="0.75" stroke-linecap="round" stroke-linejoin="round"/>
<path d="M97.1958 74.9595C91.248 81.8856 98.9259 85.9725 102.114 77.598" stroke="black" stroke-width="0.75" stroke-linecap="round" stroke-linejoin="round"/>
</svg>
