<svg width="165" height="152" viewBox="0 0 165 152" fill="none" xmlns="http://www.w3.org/2000/svg">
<path d="M26.4837 81.996C17.0429 122.306 50.9693 153.454 84.5933 150.848C118.217 148.241 145.409 125.392 142.233 84.1066C139.057 42.8212 114.492 -3.45295 73.0908 1.34396C21.3016 7.30812 32.024 58.3472 26.4837 81.996Z" fill="#FFE800" stroke="black" stroke-width="0.5" stroke-linecap="round" stroke-linejoin="round"/>
<path d="M100.316 62.4875C88.0942 62.4875 78.1865 52.5367 78.1865 40.2618C78.1865 27.9869 88.0942 18.0361 100.316 18.0361C112.538 18.0361 122.445 27.9869 122.445 40.2618C122.445 52.5367 112.538 62.4875 100.316 62.4875Z" fill="#FFE800" stroke="black" stroke-width="0.5" stroke-linecap="round" stroke-linejoin="round"/>
<path d="M63.3887 69.3312C51.167 69.3312 41.2593 59.3805 41.2593 47.1056C41.2593 34.8307 51.167 24.8799 63.3887 24.8799C75.6104 24.8799 85.5181 34.8307 85.5181 47.1056C85.5181 59.3805 75.6104 69.3312 63.3887 69.3312Z" fill="#FFE800" stroke="black" stroke-width="0.5" stroke-linecap="round" stroke-linejoin="round"/>
<path d="M122.158 36.5283C118.52 49.472 93.183 52.0383 85.5412 45.0668C79.0616 67.1646 46.0745 62.6555 41.76 51.4627" stroke="black" stroke-width="0.5" stroke-linecap="round" stroke-linejoin="round"/>
<path d="M58.533 71.5774C67.7588 71.4335 71.7788 83.8255 79.1579 88.3666C81.2434 89.6458 83.0265 90.5972 84.4912 91.3407C73.3958 91.0612 62.6034 87.6475 53.3509 81.491C52.6583 76.2224 54.2583 71.6414 58.533 71.5774Z" fill="#FF0000" stroke="black" stroke-width="0.5" stroke-linecap="round" stroke-linejoin="round"/>
<path d="M130.739 63.001C127.127 71.8066 120.767 79.1965 112.614 84.0594C104.453 88.8736 95.1484 91.3819 85.6845 91.3187C77.499 91.2797 69.4115 89.5277 61.9378 86.1745C54.4641 82.8212 47.7683 77.9404 42.2774 71.8433" stroke="black" stroke-width="0.5" stroke-linecap="round" stroke-linejoin="round"/>
<path d="M65.3548 87.257C62.8156 83.867 61.217 79.8613 60.722 75.6484C60.9656 79.9546 62.3387 84.1195 64.7021 87.7207C64.7324 87.7637 64.7709 87.8003 64.8153 87.8285C64.8597 87.8566 64.9092 87.8756 64.9609 87.8845C65.0127 87.8934 65.0657 87.892 65.1168 87.8804C65.168 87.8687 65.2165 87.847 65.2593 87.8166C65.3022 87.7861 65.3386 87.7475 65.3666 87.7029C65.3946 87.6583 65.4136 87.6086 65.4225 87.5566C65.4313 87.5047 65.4299 87.4515 65.4183 87.4C65.4067 87.3486 65.3852 87.3 65.3548 87.257Z" fill="black"/>
<path d="M27.1695 78.0859C27.1695 78.0859 14.9426 80.5484 4.72961 94.9551C-3.66841 106.795 3.13756 119.539 14.9824 122.937C33.1078 128.134 50.6521 116.709 68.5068 117.181" stroke="black" stroke-width="0.5" stroke-linecap="round" stroke-linejoin="round"/>
<path d="M64.2953 108.771C58.2848 110.69 53.1424 114.68 49.7759 120.036C56.6056 120.804 63.3467 122.226 69.9072 124.281" stroke="black" stroke-width="0.5" stroke-linecap="round" stroke-linejoin="round"/>
<path d="M140.117 67.6445C140.117 67.6445 152.225 70.1869 158.776 78.8373C167.532 90.4219 164.881 101.543 153.801 106.987C142.012 112.775 130.358 108.49 113.267 113.679" stroke="black" stroke-width="0.5" stroke-linecap="round" stroke-linejoin="round"/>
<path d="M115.049 104.318C121.29 104.55 127.785 106.341 132.347 110.594C125.979 113.145 119.483 117.054 113.704 120.772" stroke="black" stroke-width="0.5" stroke-linecap="round" stroke-linejoin="round"/>
</svg>
