<svg width="157" height="152" viewBox="0 0 157 152" fill="none" xmlns="http://www.w3.org/2000/svg">
<path d="M76.8131 87.9069C77.4318 78.1339 72.8501 68.8361 66.1346 62.8916C59.419 56.9471 51.1702 53.4324 43.3159 49.4425C39.2095 47.3624 35.1867 45.1059 31.2476 42.6731C28.8026 41.2921 26.5658 39.5714 24.6037 37.5625C19.4483 31.9049 18.2109 23.2168 17.2426 15.0487C17.144 14.2597 15.1535 13.3631 14.5528 13.7486C13.9265 14.2249 13.4427 14.8637 13.1541 15.5956C11.2414 19.8537 10.3833 24.5101 10.6525 29.1702C10.9162 33.7593 11.7228 38.3009 13.0555 42.7C12.7727 42.2502 12.3996 41.864 11.9598 41.5658C11.52 41.2677 11.023 41.0641 10.5005 40.968C9.97789 40.8719 9.44106 40.8854 8.92396 41.0076C8.40687 41.1298 7.92078 41.3581 7.49649 41.6779C6.58175 42.4231 5.8598 43.3776 5.39163 44.4606C4.92347 45.5436 4.72283 46.7234 4.80667 47.9004C4.95722 50.229 5.82125 52.4549 7.28131 54.2752C8.68592 55.9809 10.2802 57.521 12.0333 58.8659C10.5989 58.4555 9.06272 58.5995 7.72961 59.2693C6.10675 60.1659 5.74811 62.6406 6.12469 64.5772C6.77742 67.5061 8.40939 70.1249 10.7512 72.0011C12.9922 73.7315 15.4599 75.1464 18.0854 76.2062C16.2922 75.5517 14.499 77.9367 14.221 80.0437C14.1407 81.0585 14.3181 82.0771 14.7366 83.005C15.1551 83.9329 15.8012 84.7401 16.615 85.3516C18.1795 86.4322 19.9447 87.1883 21.8063 87.5752L29.1406 89.6194C28.1721 90.0172 27.3224 90.6577 26.6734 91.4792C26.0243 92.3006 25.5976 93.2754 25.4346 94.3096C25.2715 95.3438 25.3775 96.4025 25.7424 97.3839C26.1072 98.3652 26.7187 99.236 27.5177 99.9125C29.3109 101.222 31.6152 101.105 33.794 100.809C37.1382 100.364 40.4379 99.6322 43.6566 98.6214C42.1683 100.056 41.971 103.32 43.3787 104.727C44.7864 106.135 46.8755 106.377 48.7583 106.153C52.5769 105.639 56.0803 103.76 58.621 100.863C58.352 102.728 59.3921 104.871 60.9791 105.346C62.6292 105.711 64.3502 105.583 65.9283 104.978C69.1472 104.082 76.32 95.2412 76.8131 87.9069Z" fill="#2CC9FF" stroke="black" stroke-width="0.4" stroke-linecap="round" stroke-linejoin="round"/>
<path d="M29.3635 44.4937C26.8175 41.9398 23.4232 40.4085 19.8236 40.19C19.5455 40.1685 19.2662 40.2107 19.0067 40.3132C18.7473 40.4157 18.5146 40.576 18.3263 40.7817C18.0042 41.2528 17.8467 41.8169 17.878 42.3867C18.0523 44.7557 19.1042 46.9746 20.8278 48.6091C22.1997 50.0885 24.6295 51.9804 26.2075 53.3253C26.2352 53.3467 26.2555 53.3762 26.2659 53.4097C26.2762 53.4431 26.2759 53.479 26.2651 53.5123C26.2544 53.5456 26.2336 53.5748 26.2056 53.5959C26.1776 53.617 26.1439 53.6289 26.1089 53.6301C24.3733 53.6582 22.671 54.1107 21.1506 54.9481C20.5398 55.1828 20.0016 55.5744 19.5904 56.0835C19.1792 56.5926 18.9095 57.2011 18.8086 57.8476C18.7076 58.4942 18.779 59.1559 19.0155 59.7661C19.2519 60.3763 19.6451 60.9133 20.1554 61.323C21.9943 63.2053 24.2847 64.5851 26.8082 65.3308C26.8262 65.3367 26.8418 65.3481 26.8528 65.3634C26.8639 65.3787 26.8699 65.3971 26.8699 65.416C26.8699 65.4349 26.8639 65.4533 26.8528 65.4686C26.8418 65.4839 26.8262 65.4953 26.8082 65.5012C25.1854 65.7702 24.4143 67.7517 24.746 69.2311C25.6426 73.6424 33.2548 74.79 37.0295 75.337C37.0685 75.3425 37.1051 75.3591 37.135 75.3848C37.1648 75.4105 37.1867 75.4441 37.198 75.4819C37.2093 75.5196 37.2096 75.5598 37.1988 75.5976C37.188 75.6355 37.1666 75.6695 37.1371 75.6956C36.5924 76.2637 36.2193 76.9742 36.0606 77.7451C35.902 78.516 35.9644 79.3161 36.2405 80.0531C37.4151 83.3078 41.3063 83.9354 44.3727 83.9534C46.0048 83.9577 47.6302 83.7436 49.2054 83.3168C49.2555 83.3075 49.3072 83.3149 49.3527 83.3378C49.3982 83.3607 49.4349 83.3979 49.4573 83.4436C49.4796 83.4893 49.4864 83.5411 49.4765 83.5911C49.4667 83.6411 49.4408 83.6864 49.4027 83.7202C48.1475 84.7334 48.4254 86.7866 49.4834 87.8895C51.8146 90.4 55.6431 90.1399 58.7902 89.8441C60.4524 89.6575 62.1 89.358 63.7215 88.9474C63.7345 88.9434 63.7481 88.9421 63.7616 88.9435C63.7751 88.945 63.7881 88.9492 63.7999 88.9559C63.8117 88.9627 63.822 88.9718 63.8301 88.9826C63.8382 88.9935 63.844 89.006 63.847 89.0192C63.0939 91.6193 63.5422 93.305 66.6175 93.0898C66.0912 93.2301 65.536 93.2204 65.0148 93.062C64.4936 92.9036 64.027 92.6027 63.6677 92.1932C63.0939 91.2248 63.4346 90.0323 63.6677 89.0102L63.7932 89.1447C59.3102 90.0413 52.8188 91.7359 49.1875 88.1226C47.9502 86.8584 47.6454 84.5361 49.1875 83.2988L49.3848 83.7023C44.9735 84.7693 37.9441 85.2086 35.8819 80.1159C35.5754 79.2987 35.5096 78.4109 35.6924 77.5575C35.8751 76.7041 36.2987 75.9211 36.913 75.3011L37.0206 75.6597C33.1203 75.0411 25.4633 73.7679 24.5757 69.1952C24.235 67.5992 25.0688 65.5281 26.8261 65.2501V65.4115C24.2888 64.6241 21.9769 63.2406 20.0837 61.3768C19.3696 60.8118 18.885 60.0066 18.72 59.1111C18.5551 58.2155 18.7211 57.2906 19.1871 56.5082C20.6037 54.1591 23.5984 53.3522 26.1806 53.2087L26.082 53.5136C22.5583 50.5637 17.7525 47.4256 17.6718 42.297C17.627 38.8182 21.303 39.8762 23.4818 40.5038C25.7778 41.2628 27.8381 42.6034 29.4622 44.3951L29.3635 44.4937Z" fill="black"/>
<path d="M42.1587 54.7032C38.4378 52.641 33.5602 55.1066 35.999 59.5717C38.1239 62.7816 41.8987 64.4313 45.3237 65.9197C45.3331 65.9273 45.3406 65.9368 45.3458 65.9477C45.351 65.9585 45.3537 65.9704 45.3537 65.9825C45.3537 65.9945 45.351 66.0064 45.3458 66.0172C45.3406 66.0281 45.3331 66.0377 45.3237 66.0452C44.0774 67.1839 43.0911 68.8964 43.4588 70.609C44.3554 74.4554 53.5904 76.4817 57.0692 76.6969C57.101 76.6955 57.1327 76.7009 57.1622 76.7127C57.1917 76.7245 57.2184 76.7425 57.2404 76.7654C57.2624 76.7883 57.2794 76.8156 57.2901 76.8455C57.3007 76.8754 57.3049 76.9073 57.3024 76.939C57.1446 77.3599 57.0715 77.8078 57.0872 78.257C57.0927 78.4594 57.1522 78.6567 57.2593 78.8284C57.3665 79.0002 57.5175 79.1403 57.6969 79.2343C60.2052 80.4354 63.0178 80.851 65.7663 80.4268C63.0057 81.0031 60.1334 80.6892 57.5624 79.5302C56.5582 79.055 56.612 77.737 56.9258 76.8404L57.123 77.1362C53.5698 76.8933 50.0995 75.9519 46.9107 74.3657C44.2747 73.2629 42.1587 70.9586 43.6381 68.0357C44.0354 67.2362 44.5869 66.5231 45.2609 65.9376V66.0632C41.818 64.4851 37.837 63.0864 35.6583 59.7869C34.6182 58.1192 34.7168 55.4653 36.5549 54.4073C37.4252 53.9423 38.4066 53.7256 39.3918 53.7809C40.377 53.8363 41.328 54.1615 42.1407 54.7211L42.1587 54.7032Z" fill="black"/>
<path d="M57.3209 63.357C56.1616 63.0132 54.9203 63.0701 53.7972 63.5184C51.3316 64.9081 52.542 68.1628 54.8104 69.0863C55.8942 69.6346 57.0843 69.9405 58.2982 69.9829C58.333 69.9847 58.3669 69.9953 58.3965 70.0137C58.4261 70.0321 58.4506 70.0578 58.4676 70.0882C58.4846 70.1187 58.4936 70.153 58.4938 70.1879C58.494 70.2228 58.4853 70.2571 58.4685 70.2877C57.9485 71.6147 59.2396 72.9776 60.4859 73.4528C61.7322 73.928 63.4537 74.6901 64.7448 73.9011C63.624 75.0218 61.6336 74.2776 60.3156 73.9011C58.9975 73.5245 57.3388 71.6864 58.1099 70.0636L58.2803 70.3774C55.8594 70.1263 53.1427 68.9339 52.2551 66.5041C51.3585 63.2135 54.9449 62.1107 57.3209 63.348V63.357Z" fill="black"/>
<path d="M14.0503 19.3047C15.0823 25.1724 16.6059 30.943 18.6051 36.5554C16.0328 31.1364 14.4884 25.2872 14.0503 19.3047Z" fill="black"/>
<path d="M9.44189 46.8584C11.6795 49.2267 14.2866 51.2162 17.1617 52.7491C13.9819 51.7426 11.2521 49.6597 9.44189 46.8584Z" fill="black"/>
<path d="M8.82227 63.9385C11.8834 66.2659 15.4041 67.9162 19.1512 68.7802C15.2282 68.498 11.5487 66.7732 8.82227 63.9385Z" fill="black"/>
<path d="M18.3804 81.0186C20.8626 81.501 23.3768 81.8007 25.9029 81.9152C26.7294 82.04 27.5743 81.9086 28.3237 81.5386C27.634 82.0709 26.7718 82.3296 25.9029 82.2648C23.3379 82.3725 20.7779 81.9545 18.3804 81.0365V81.0186Z" fill="black"/>
<path d="M31.085 95.8142C34.6867 94.1803 38.4099 92.8284 42.2208 91.7705C38.619 93.4044 34.8959 94.7563 31.085 95.8142Z" fill="black"/>
<path d="M47.0635 101.739C49.565 100.08 51.9231 98.3498 54.2363 96.458C52.3276 98.7936 49.8605 100.61 47.0635 101.739Z" fill="black"/>
<path d="M60.9604 102.861C62.4025 100.716 64.1971 98.8304 66.2684 97.2842C64.6298 99.2634 62.8563 101.127 60.9604 102.861Z" fill="black"/>
<path d="M53.1235 86.4361C55.2844 85.8802 56.71 83.8359 58.8977 83.4414C56.97 84.338 55.4457 86.4899 53.1235 86.4361Z" fill="black"/>
<path d="M41.6567 79.9274C42.8044 79.3357 44.1852 79.4343 45.4225 79.2371C46.6734 79.0413 47.8845 78.6446 49.0089 78.0625C47.0095 80.044 44.1852 79.6316 41.6747 79.9274H41.6567Z" fill="black"/>
<path d="M28.126 69.6602C30.9509 70.1945 33.8391 70.3093 36.6975 70.0009C33.8924 70.9219 30.8492 70.8009 28.126 69.6602Z" fill="black"/>
<path d="M24.7012 59.9512C27.8662 61.3857 31.2823 61.4485 34.6894 61.6458C31.3361 62.0761 27.5703 61.9506 24.7012 59.9512Z" fill="black"/>
<path d="M24.5137 46.123C26.9189 47.8184 29.4418 49.3405 32.0631 50.6778C29.1726 49.8897 26.5586 48.3126 24.5137 46.123Z" fill="black"/>
<path d="M38.5996 59.2129C41.5188 59.9967 44.4961 60.5454 47.5029 60.8537C44.4399 61.1555 41.3538 60.5867 38.5996 59.2129Z" fill="black"/>
<path d="M47.4033 72.0713C49.4117 72.0713 51.3394 72.1341 53.3568 72.2685C51.3919 72.7511 49.332 72.6828 47.4033 72.0713Z" fill="black"/>
<path d="M59.3022 79.0824C60.8816 78.506 62.5034 78.0534 64.1529 77.7285C62.6986 78.6339 61.0153 79.1038 59.3022 79.0824Z" fill="black"/>
<path d="M56.3784 67.2227C57.7861 67.384 60.6194 67.6441 62.027 67.7427C60.1401 68.2205 58.1464 68.037 56.3784 67.2227Z" fill="black"/>
<path d="M60.915 71.7679C61.928 71.4367 63.0156 71.4086 64.0442 71.6872C63.0313 72.0184 61.9437 72.0464 60.915 71.7679Z" fill="black"/>
<path d="M65.9541 91.4112C67.0588 90.2303 68.2388 89.1221 69.4867 88.0938C68.683 89.5401 67.4481 90.6998 65.9541 91.4112Z" fill="black"/>
<path d="M13.1535 42.5545L19.116 49.808L12.8397 42.8414C12.8092 42.7955 12.7967 42.7401 12.8045 42.6855C12.8123 42.631 12.8399 42.5813 12.882 42.5459C12.9241 42.5104 12.9778 42.4917 13.0329 42.4933C13.0879 42.4948 13.1404 42.5166 13.1804 42.5545H13.1535Z" fill="black"/>
<path d="M12.0773 58.677L20.0661 63.94L11.8442 59.0535C11.5842 58.9101 11.8442 58.5066 12.0773 58.677Z" fill="black"/>
<path d="M18.0311 75.9814L29.2118 77.0753L17.9953 76.4297C17.7083 76.4297 17.7352 75.9455 17.9953 75.9814H18.0311Z" fill="black"/>
<path d="M29.0143 89.404L40.4371 86.8486L29.1219 89.8343C28.8439 89.915 28.7274 89.4578 29.0143 89.404Z" fill="black"/>
<path d="M43.4316 98.4497L52.7384 92.8369L43.6378 98.8262C43.3957 98.9966 43.1447 98.6021 43.3957 98.4497H43.4316Z" fill="black"/>
<path d="M58.3871 100.771L62.4846 94.4951L58.7726 101.04C58.7597 101.069 58.741 101.094 58.7176 101.115C58.6941 101.136 58.6666 101.152 58.6367 101.162C58.6069 101.171 58.5753 101.174 58.5441 101.171C58.513 101.167 58.4828 101.158 58.4557 101.142C58.4286 101.126 58.4051 101.105 58.3867 101.079C58.3684 101.054 58.3555 101.025 58.3491 100.994C58.3426 100.964 58.3426 100.932 58.3492 100.901C58.3557 100.871 58.3687 100.842 58.3871 100.816V100.771Z" fill="black"/>
<path d="M63.5785 88.9367L68.2767 84.2295L63.9013 89.2415C63.713 89.4746 63.3633 89.1519 63.5785 88.9367Z" fill="black"/>
<path d="M49.1433 83.3418L55.034 79.9258L49.3764 83.7095C49.1344 83.8798 48.8743 83.4763 49.1433 83.3239V83.3418Z" fill="black"/>
<path d="M36.9138 75.3261L43.6384 73.3984L37.0214 75.7475C36.9924 75.7623 36.9606 75.7706 36.9281 75.7719C36.8956 75.7732 36.8633 75.7673 36.8332 75.7548C36.8032 75.7423 36.7763 75.7234 36.7543 75.6995C36.7323 75.6755 36.7158 75.647 36.7059 75.6161C36.696 75.5851 36.693 75.5523 36.697 75.5201C36.7011 75.4878 36.7121 75.4568 36.7293 75.4292C36.7465 75.4016 36.7696 75.3781 36.7968 75.3603C36.824 75.3425 36.8547 75.3309 36.8869 75.3261H36.9138Z" fill="black"/>
<path d="M26.7633 65.187L38.0875 64.8643L26.7813 65.6353C26.7218 65.6353 26.6648 65.6117 26.6228 65.5697C26.5807 65.5277 26.5571 65.4706 26.5571 65.4112C26.5571 65.3517 26.5807 65.2947 26.6228 65.2527C26.6648 65.2107 26.7218 65.187 26.7813 65.187H26.7633Z" fill="black"/>
<path d="M26.154 53.2437L33.9814 55.8528L26.0195 53.674C25.9913 53.6652 25.965 53.6509 25.9423 53.6319C25.9196 53.6129 25.9008 53.5897 25.8871 53.5635C25.8733 53.5372 25.8649 53.5086 25.8622 53.4791C25.8596 53.4496 25.8628 53.4199 25.8716 53.3916C25.8804 53.3633 25.8947 53.3371 25.9137 53.3144C25.9327 53.2916 25.9559 53.2729 25.9822 53.2591C26.0084 53.2454 26.0371 53.237 26.0666 53.2343C26.096 53.2317 26.1258 53.2348 26.154 53.2437Z" fill="black"/>
<path d="M45.3057 65.7685L51.4027 66.3603L45.2788 66.2168C44.983 66.2168 45.0099 65.7326 45.2788 65.7685H45.3057Z" fill="black"/>
<path d="M57.0149 76.7148L61.4979 75.083L57.2121 77.1273C56.9342 77.2618 56.7459 76.8135 57.0328 76.7148H57.0149Z" fill="black"/>
<path d="M84.183 84.9371C83.5464 75.1282 88.1281 65.8663 94.8436 59.8321C101.559 53.798 109.808 50.4178 117.662 46.4368C121.769 44.3507 125.792 42.0913 129.731 39.6585C132.175 38.2806 134.412 36.5629 136.374 34.5568C141.53 28.8992 142.767 20.2111 143.736 12.043C143.834 11.254 145.825 10.3484 146.425 10.7429C147.054 11.2172 147.538 11.8566 147.824 12.5899C149.747 16.8577 150.608 21.5275 150.335 26.2004C150.071 30.7894 149.264 35.331 147.932 39.7302C148.214 39.2804 148.588 38.8941 149.027 38.596C149.467 38.2979 149.964 38.0943 150.487 37.9982C151.009 37.9021 151.546 37.9156 152.063 38.0378C152.58 38.16 153.066 38.3882 153.491 38.7081C154.405 39.4533 155.127 40.4078 155.596 41.4908C156.064 42.5738 156.264 43.7536 156.18 44.9305C156.03 47.2592 155.166 49.4851 153.706 51.3054C152.301 53.011 150.707 54.5512 148.954 55.896C150.388 55.4873 151.922 55.628 153.258 56.2905C154.88 57.1871 155.239 59.6707 154.862 61.6074C154.236 64.5228 152.64 67.1397 150.335 69.0313C148.091 70.7584 145.624 72.173 143 73.2364C144.794 72.5819 146.587 74.9669 146.865 77.0739C146.945 78.0886 146.768 79.1072 146.349 80.0352C145.931 80.9631 145.285 81.7703 144.471 82.3818C142.905 83.4596 141.14 84.2155 139.279 84.6054L131.945 86.6496C132.915 87.0499 133.765 87.6935 134.413 88.5183C135.061 89.343 135.485 90.3211 135.645 91.3578C135.804 92.3946 135.694 93.4549 135.324 94.4364C134.954 95.4179 134.337 96.2873 133.532 96.9606C131.739 98.2697 129.435 98.1531 127.256 97.8572C123.912 97.4123 120.612 96.6803 117.393 95.6695C118.882 97.1041 119.079 100.368 117.671 101.775C116.264 103.183 114.174 103.416 112.292 103.201C108.473 102.687 104.97 100.808 102.429 97.911C102.698 99.767 101.658 101.91 100.071 102.394C98.4207 102.759 96.6997 102.631 95.1216 102.026C91.831 101.112 84.6582 92.2714 84.183 84.9371Z" fill="#2CC9FF" stroke="black" stroke-width="0.4" stroke-linecap="round" stroke-linejoin="round"/>
<path d="M131.586 41.4892C133.246 39.7355 135.308 38.4123 137.593 37.6338C139.754 36.9972 143.448 35.9123 143.403 39.427C143.323 44.5556 138.526 47.6848 134.993 50.6436L134.895 50.3387C137.477 50.4732 140.472 51.2353 141.888 53.6293C142.354 54.4116 142.52 55.3366 142.355 56.2321C142.19 57.1277 141.706 57.9328 140.992 58.4978C139.084 60.3683 136.752 61.7495 134.195 62.5236V62.3622C135.989 62.6402 136.787 64.7113 136.446 66.2983C135.549 70.871 127.892 72.1531 124.001 72.7718L124.109 72.4132C124.728 73.032 125.156 73.8157 125.342 74.671C125.528 75.5262 125.464 76.4169 125.158 77.2369C123.095 82.3027 116.075 81.8544 111.655 80.8233L111.852 80.4199C113.358 81.6392 113.053 84.0063 111.852 85.2346C108.203 88.8211 101.72 87.1892 97.2462 86.2568L97.3717 86.1312C97.5869 87.1534 97.9366 88.3369 97.3717 89.3052C97.0137 89.7164 96.5472 90.0186 96.0255 90.1771C95.5039 90.3357 94.9482 90.3443 94.4219 90.2018C96.1165 90.3632 97.811 89.7177 97.4972 87.7362C97.4311 87.2128 97.3293 86.6945 97.1924 86.185C97.1883 86.1721 97.187 86.1584 97.1885 86.1449C97.1899 86.1315 97.1941 86.1184 97.2009 86.1066C97.2076 86.0948 97.2167 86.0846 97.2276 86.0765C97.2385 86.0684 97.2509 86.0626 97.2641 86.0595C98.9056 86.4614 100.571 86.7609 102.249 86.9561C105.396 87.252 109.234 87.512 111.556 85.0015C112.614 83.8987 112.892 81.8455 111.637 80.8323C111.599 80.7985 111.573 80.7531 111.563 80.7032C111.553 80.6532 111.56 80.6014 111.582 80.5557C111.605 80.5099 111.641 80.4728 111.687 80.4499C111.732 80.4269 111.784 80.4196 111.834 80.4288C113.409 80.8557 115.035 81.0698 116.667 81.0654C119.733 81.0654 123.633 80.4109 124.799 77.1652C125.075 76.4266 125.137 75.6253 124.978 74.853C124.82 74.0808 124.447 73.3688 123.902 72.7987C123.883 72.7803 123.867 72.758 123.857 72.7334C123.846 72.7087 123.84 72.6821 123.84 72.6552C123.84 72.6284 123.846 72.6018 123.857 72.5771C123.867 72.5525 123.883 72.5302 123.902 72.5118C125.553 72.2833 127.19 71.966 128.807 71.5614C131.075 70.862 133.604 70.2434 135.262 68.4502C136.921 66.6569 136.813 63.3126 134.186 62.5146C135.874 61.9636 137.47 61.1627 138.92 60.1386C140.221 59.0986 141.834 57.9688 142.22 56.2742C142.309 55.4199 142.135 54.5589 141.721 53.806C141.308 53.053 140.675 52.444 139.907 52.0602C138.388 51.2186 136.685 50.7659 134.948 50.7422C134.913 50.741 134.88 50.729 134.852 50.708C134.824 50.6869 134.803 50.6577 134.792 50.6244C134.781 50.591 134.781 50.5552 134.791 50.5217C134.802 50.4883 134.822 50.4588 134.85 50.4373C136.401 49.0924 138.831 47.2096 140.229 45.7212C141.954 44.0839 143.006 41.8618 143.179 39.4898C143.209 38.923 143.052 38.3621 142.731 37.8938C142.545 37.6853 142.312 37.5232 142.053 37.4204C141.793 37.3177 141.512 37.2772 141.234 37.3021C140.049 37.3588 138.876 37.5698 137.746 37.9297C135.48 38.6887 133.406 39.9308 131.667 41.5699L131.586 41.4892Z" fill="black"/>
<path d="M118.792 51.6997C122.701 49.2161 127.901 52.0135 125.319 56.8014C123.14 60.1189 119.159 61.5086 115.716 63.0777V62.9432C116.39 63.5287 116.942 64.2417 117.339 65.0412C118.792 67.9552 116.685 70.2774 114.085 71.3892C110.896 72.9753 107.425 73.9168 103.872 74.1597L104.07 73.8638C104.383 74.7604 104.437 76.0784 103.433 76.5536C100.862 77.7127 97.9897 78.0266 95.229 77.4503C97.9766 77.8773 100.789 77.4648 103.298 76.2667C103.477 76.172 103.628 76.0317 103.735 75.8601C103.842 75.6885 103.902 75.4916 103.908 75.2894C103.926 74.8539 103.849 74.4197 103.684 74.0163C103.674 73.9816 103.673 73.9453 103.679 73.91C103.686 73.8746 103.701 73.8414 103.723 73.8127C103.744 73.7841 103.772 73.7608 103.805 73.7448C103.837 73.7288 103.872 73.7204 103.908 73.7204C107.369 73.5142 116.667 71.4878 117.519 67.6414C117.886 65.9289 116.9 64.2074 115.654 63.0777C115.644 63.0701 115.637 63.0605 115.632 63.0497C115.626 63.0388 115.624 63.0269 115.624 63.0149C115.624 63.0029 115.626 62.991 115.632 62.9801C115.637 62.9693 115.644 62.9597 115.654 62.9521C119.079 61.4638 122.827 59.814 124.978 56.6042C127.417 51.9777 122.495 49.7989 118.792 51.6997Z" fill="black"/>
<path d="M103.647 60.344C106.167 59.2143 109.583 60.2544 108.722 63.5449C107.826 65.9747 105.136 67.1313 102.697 67.4183L102.867 67.1044C103.638 68.7094 102.105 70.4129 100.662 70.8702C99.2181 71.3275 97.3442 72.0447 96.2324 70.924C97.5235 71.713 99.1912 70.9688 100.491 70.4757C101.791 69.9826 103.038 68.6287 102.5 67.3017C102.483 67.2704 102.474 67.2353 102.475 67.1997C102.475 67.1641 102.485 67.1292 102.503 67.0985C102.521 67.0678 102.547 67.0423 102.578 67.0245C102.608 67.0067 102.643 66.9972 102.679 66.9969C104.921 66.8982 107.897 65.9209 108.471 63.4822C108.612 62.9182 108.561 62.3236 108.327 61.7914C108.094 61.2593 107.69 60.8196 107.18 60.5413C106.158 59.9137 104.705 60.2902 103.647 60.344Z" fill="black"/>
<path d="M146.892 16.3369C146.454 22.3194 144.909 28.1686 142.337 33.5876C144.336 27.9752 145.86 22.2047 146.892 16.3369Z" fill="black"/>
<path d="M151.536 43.8906C149.726 46.6919 146.996 48.7749 143.816 49.7813C146.688 48.2428 149.294 46.2541 151.536 43.8906Z" fill="black"/>
<path d="M152.127 60.9707C149.402 63.8064 145.721 65.5287 141.798 65.8034C145.543 64.9388 149.063 63.2919 152.127 60.9707Z" fill="black"/>
<path d="M142.597 78.0511C140.206 78.9674 137.651 79.3824 135.093 79.2705C134.225 79.3387 133.363 79.0832 132.672 78.5532C133.421 78.9233 134.266 79.0547 135.093 78.9298C137.618 78.8109 140.132 78.5112 142.615 78.0332L142.597 78.0511Z" fill="black"/>
<path d="M129.937 92.8464C126.127 91.7846 122.405 90.4327 118.801 88.8027C122.613 89.8566 126.337 91.2087 129.937 92.8464Z" fill="black"/>
<path d="M113.914 98.7535C111.116 97.63 108.649 95.8163 106.741 93.4814C109.072 95.3733 111.43 97.0679 113.914 98.7535Z" fill="black"/>
<path d="M100.017 99.8843C98.1191 98.1552 96.3454 96.2947 94.709 94.3164C96.7801 95.8593 98.5748 97.7419 100.017 99.8843Z" fill="black"/>
<path d="M107.853 83.5122C105.531 83.566 104.015 81.459 102.079 80.5176C104.311 80.9121 105.665 82.9563 107.853 83.5122Z" fill="black"/>
<path d="M119.321 76.9683C116.811 76.6814 113.941 77.0848 111.987 75.1123C113.113 75.6904 114.323 76.0869 115.573 76.2869C116.811 76.4841 118.191 76.3765 119.339 76.9683H119.321Z" fill="black"/>
<path d="M132.85 66.6924C130.125 67.8245 127.085 67.9453 124.278 67.0331C127.137 67.3365 130.024 67.2217 132.85 66.6924Z" fill="black"/>
<path d="M136.275 56.9834C133.406 58.9828 129.64 59.1084 126.287 58.678C129.694 58.4718 133.11 58.418 136.275 56.9834Z" fill="black"/>
<path d="M136.464 43.1641C134.419 45.3536 131.805 46.9307 128.915 47.7188C131.536 46.3815 134.059 44.8595 136.464 43.1641Z" fill="black"/>
<path d="M122.378 56.2451C119.623 57.6148 116.538 58.1833 113.475 57.8859C116.481 57.5733 119.458 57.0247 122.378 56.2451Z" fill="black"/>
<path d="M113.574 69.0947C111.647 69.7138 109.585 69.7852 107.62 69.3009C109.637 69.1665 111.565 69.1037 113.574 69.0947Z" fill="black"/>
<path d="M101.675 76.1146C99.9626 76.1301 98.281 75.6607 96.8242 74.7607C98.4748 75.0814 100.097 75.5341 101.675 76.1146Z" fill="black"/>
<path d="M104.607 64.2549C102.838 65.0643 100.846 65.2477 98.9585 64.7749C100.366 64.6763 103.199 64.4163 104.607 64.2549Z" fill="black"/>
<path d="M100.062 68.7982C99.0331 69.0767 97.9455 69.0487 96.9326 68.7175C97.9606 68.4336 99.0498 68.4617 100.062 68.7982Z" fill="black"/>
<path d="M95.0219 88.4434C93.5279 87.732 92.293 86.5724 91.4893 85.126C92.7394 86.1519 93.9195 87.2602 95.0219 88.4434Z" fill="black"/>
<path d="M148.128 39.8735L141.852 46.8401L147.814 39.5776C148.003 39.3535 148.361 39.6583 148.155 39.8735H148.128Z" fill="black"/>
<path d="M149.132 56.0857L140.91 60.9722L148.899 55.718C148.95 55.6871 149.011 55.6778 149.069 55.6921C149.127 55.7064 149.177 55.7431 149.208 55.7943C149.239 55.8454 149.248 55.9067 149.234 55.9647C149.22 56.0227 149.183 56.0727 149.132 56.1036V56.0857Z" fill="black"/>
<path d="M142.982 73.463L131.765 74.1085L142.946 73.0146C143.005 73.0146 143.062 73.0383 143.104 73.0803C143.146 73.1223 143.17 73.1794 143.17 73.2388C143.17 73.2982 143.146 73.3553 143.104 73.3973C143.062 73.4393 143.005 73.463 142.946 73.463H142.982Z" fill="black"/>
<path d="M131.855 86.8666L120.54 83.8809L131.963 86.4272C131.992 86.4343 132.019 86.447 132.043 86.4645C132.067 86.4821 132.087 86.5042 132.102 86.5296C132.118 86.555 132.128 86.5832 132.133 86.6125C132.137 86.6419 132.136 86.6718 132.129 86.7007C132.122 86.7295 132.109 86.7567 132.091 86.7806C132.074 86.8046 132.052 86.8249 132.026 86.8403C132.001 86.8557 131.973 86.8659 131.943 86.8704C131.914 86.8749 131.884 86.8736 131.855 86.8666Z" fill="black"/>
<path d="M117.303 95.8585L108.238 89.8691L117.545 95.4819C117.796 95.6254 117.545 96.0288 117.303 95.8585Z" fill="black"/>
<path d="M102.205 98.0286L98.4927 91.4834L102.59 97.7596C102.752 98.0107 102.348 98.2617 102.205 97.9928V98.0286Z" fill="black"/>
<path d="M97.0761 86.2738L92.7007 81.2617L97.3989 85.9689C97.6141 86.1751 97.2644 86.5069 97.0761 86.2738Z" fill="black"/>
<path d="M111.6 80.7505L105.943 76.9668L111.834 80.3739C111.863 80.3865 111.89 80.4054 111.912 80.4293C111.934 80.4531 111.95 80.4815 111.96 80.5123C111.97 80.5432 111.973 80.5758 111.969 80.6079C111.965 80.64 111.954 80.6709 111.937 80.6985C111.92 80.726 111.897 80.7495 111.87 80.7674C111.843 80.7852 111.813 80.797 111.781 80.802C111.749 80.8069 111.716 80.8049 111.685 80.796C111.654 80.7871 111.625 80.7716 111.6 80.7505Z" fill="black"/>
<path d="M123.92 72.7534L117.312 70.4043L124.063 72.323C124.091 72.3325 124.117 72.3474 124.14 72.3669C124.162 72.3864 124.181 72.4101 124.194 72.4368C124.207 72.4634 124.215 72.4924 124.217 72.5221C124.22 72.5519 124.216 72.5817 124.206 72.6099C124.197 72.6382 124.182 72.6643 124.163 72.6868C124.143 72.7093 124.119 72.7278 124.093 72.7411C124.066 72.7544 124.037 72.7624 124.007 72.7645C123.978 72.7666 123.948 72.7628 123.92 72.7534Z" fill="black"/>
<path d="M134.196 62.6676L122.89 61.8965L134.214 62.2193C134.273 62.2193 134.33 62.2429 134.372 62.2849C134.414 62.327 134.438 62.384 134.438 62.4434C134.438 62.5029 134.414 62.5599 134.372 62.6019C134.33 62.6439 134.273 62.6676 134.214 62.6676H134.196Z" fill="black"/>
<path d="M134.957 50.7063L127.022 52.885L134.849 50.2759C134.906 50.2581 134.968 50.2636 135.021 50.2914C135.074 50.3191 135.114 50.3668 135.132 50.4238C135.15 50.4809 135.144 50.5427 135.116 50.5957C135.089 50.6487 135.041 50.6884 134.984 50.7063H134.957Z" fill="black"/>
<path d="M115.698 63.2501L109.574 63.3935L115.671 62.8018C115.967 62.8018 115.994 63.2411 115.671 63.2501H115.698Z" fill="black"/>
<path d="M103.782 74.1595L99.4961 72.1152L103.979 73.7471C104.266 73.8457 104.078 74.294 103.8 74.1595H103.782Z" fill="black"/>
<path d="M17.7441 133.929C19.7435 133.445 27.4633 134.046 30.18 129.016C30.2786 128.827 37.4694 126.245 37.3529 125.232C37.2453 123.618 37.8191 121.897 36.0438 119.951C35.3893 119.243 29.6062 121.619 29.6062 121.619C27.2391 123.331 20.8553 119.503 20.7388 119.449C12.2569 115.235 9.93464 110.411 9.44151 110.976C9.33027 111.096 9.24213 111.236 9.18149 111.388C8.96631 111.891 8.41041 112.832 8.75112 113.235C10.794 115.695 13.2152 117.813 15.924 119.512L15.8522 119.556C7.37931 115.486 5.03917 111.388 4.56397 111.953C4.45035 112.089 4.36225 112.244 4.30395 112.411C4.09773 112.949 3.51494 113.962 3.94531 114.32C6.80229 117.004 9.96515 119.342 13.3686 121.287L13.3148 121.341C5.24539 117.288 3.30872 113.764 2.85145 114.32C2.73783 114.456 2.64973 114.611 2.59143 114.778C2.38521 115.333 2.17899 116.571 2.59143 116.92C6.29442 120.435 7.40621 121.197 12.1762 123.824C12.2364 124.184 12.3356 124.535 12.472 124.873C4.06187 122.964 1.49757 121.475 1.18376 122.067C1.09773 122.225 1.04294 122.399 1.02237 122.578C0.971424 122.854 1.008 123.139 1.12697 123.393C1.24594 123.647 1.44135 123.857 1.68586 123.995C5.76152 125.862 10.0358 127.26 14.4266 128.164C14.6149 128.415 17.7441 129.796 17.9413 130.038C13.53 132.486 14.3101 130.244 10.5981 132.925C9.61186 133.633 9.02907 134.395 9.06493 135.005C9.15548 135.276 9.27261 135.537 9.41461 135.785C9.66566 136.502 9.74635 135.848 17.7441 133.929Z" fill="#FFD3BD" stroke="black" stroke-width="0.2" stroke-miterlimit="10"/>
<path d="M75.3595 70.5566C65.8824 85.0458 49.0621 111.2 19.2051 117.754C21.8949 134.601 20.1465 149.933 29.0677 149.933C63.363 138.206 73.5484 105.031 81.0351 77.2364C81.3937 75.9452 77.4935 71.0587 75.3595 70.5566Z" fill="white" stroke="black" stroke-width="0.2" stroke-miterlimit="10"/>
<path d="M96.126 69.2485C100.331 75.6771 111.279 90.4891 111.279 90.4891C111.279 90.4891 111.691 78.2235 112.803 58.3009C115.493 59.5203 120.523 58.4444 120.666 57.6016C125.49 61.188 130.78 71.75 134.375 77.0669C131.685 110.959 121.061 123.386 116.829 123.368C107.907 123.368 93.2031 94.2369 89.3925 80.0974C89.0338 78.7704 93.9921 69.7506 96.126 69.2485Z" fill="white" stroke="black" stroke-width="0.4" stroke-linejoin="round"/>
<path d="M59.7769 150.963H113.573C113.573 150.963 100.124 117.08 96.6722 68.0899C96.457 65.0862 75.064 68.0899 74.7323 70.6004C69.2361 112.472 59.7769 150.963 59.7769 150.963Z" fill="white"/>
<path d="M71.5314 92.2188C66.2055 124.828 59.7769 150.964 59.7769 150.964" stroke="black" stroke-width="0.4" stroke-miterlimit="10" stroke-linecap="round"/>
<path d="M113.574 150.999C113.574 150.999 104.258 127.525 99.1387 91.4102" stroke="black" stroke-width="0.4" stroke-miterlimit="10" stroke-linecap="round"/>
<path d="M92.5933 33.3849C103.613 30.973 120.962 61.6369 94.8349 72.2976C83.7797 76.7806 70.1782 75.7495 61.3018 63.0984C52.4254 50.4473 53.1427 34.6311 62.9157 27.7721C72.6887 20.9131 83.9859 24.3829 92.5933 33.3849Z" fill="#FFD3BD" stroke="black" stroke-width="0.4" stroke-miterlimit="10"/>
<path d="M73.5495 68.1162C78.9222 68.1162 83.2776 64.9932 83.2776 61.1406C83.2776 57.2881 78.9222 54.165 73.5495 54.165C68.1767 54.165 63.8213 57.2881 63.8213 61.1406C63.8213 64.9932 68.1767 68.1162 73.5495 68.1162Z" fill="#FF8AA0"/>
<path d="M99.0306 35.9029C97.5291 35.5779 95.9609 35.8029 94.6113 36.5369C93.2618 37.2709 92.2207 38.4652 91.6776 39.9022C91.1345 41.3392 91.1255 42.9235 91.6523 44.3666C92.179 45.8097 93.2065 47.0157 94.5476 47.765C95.6683 46.6174 96.269 44.869 97.1029 45.1918C97.622 45.4273 98.0529 45.8218 98.3333 46.3181C98.6137 46.8145 98.7291 47.3871 98.663 47.9533C98.663 48.0878 98.5913 48.2313 98.5554 48.3837C99.7554 48.1538 100.864 47.5849 101.751 46.7443C102.638 45.9037 103.265 44.8267 103.558 43.6406C103.772 42.8352 103.824 41.9956 103.711 41.17C103.599 40.3445 103.324 39.5493 102.904 38.8302C102.483 38.1111 101.924 37.4823 101.259 36.9799C100.595 36.4775 99.8372 36.1115 99.0306 35.9029Z" fill="#FF8AA0"/>
<path d="M49.7535 31.2761L52.3806 25.5647C54.0667 21.6081 55.4778 17.5398 56.6036 13.3888C57.4849 10.4029 58.0852 7.3411 58.3968 4.24344C58.4012 4.01508 58.3368 3.79068 58.212 3.5994C58.0872 3.40811 57.9077 3.25878 57.6969 3.17079C57.4862 3.08281 57.2538 3.06024 57.03 3.10603C56.8063 3.15181 56.6015 3.26383 56.4422 3.42753C54.3979 5.50765 51.7081 10.4928 51.1522 11.506C47.2699 18.9568 42.8765 26.3358 41.1999 34.5398C40.5453 37.7407 39.9267 42.923 41.0743 43.6134C42.8586 44.6894 48.1217 34.3963 49.7535 31.2761ZM39.6667 46.635C39.4259 46.4881 39.2206 46.2898 39.0655 46.0541C38.9105 45.8185 38.8096 45.5514 38.7701 45.2721C38.4823 43.6897 38.428 42.0736 38.6087 40.4753C39.5053 29.716 43.5041 19.5216 48.9376 10.2866C50.0268 8.41028 51.2462 6.61266 52.5868 4.90693C53.8779 3.40063 55.2766 1.67018 57.2491 1.04255C57.5381 0.982646 57.8367 0.98603 58.1242 1.05247C58.4118 1.11891 58.6816 1.24683 58.915 1.42745C59.1485 1.60806 59.34 1.83708 59.4765 2.09876C59.613 2.36044 59.6913 2.64857 59.7058 2.94336C60.1183 6.7629 58.8092 10.4838 58.0202 14.1509C56.4511 20.3286 54.8193 26.6048 51.9054 32.3341C49.9439 36.1452 47.5523 39.7191 44.7773 42.9858C43.7855 44.2634 42.6102 45.3874 41.2895 46.3212C41.061 46.4941 40.7959 46.6123 40.5146 46.6667C40.2332 46.7211 39.9432 46.7102 39.6667 46.635Z" fill="#FFE259" stroke="#D37622" stroke-width="0.5" stroke-linecap="round" stroke-linejoin="round"/>
<path d="M63.7486 20.5884C60.8347 19.898 57.2124 20.2746 55.1323 22.4354C52.5859 25.0715 51.9045 28.7924 51.2141 33.1947C50.6761 36.6825 48.2284 37.2026 46.6773 36.5929C45.9025 36.2765 45.2695 35.6888 44.8965 34.9397C44.5236 34.1905 44.4363 33.3311 44.6509 32.5223C44.4135 32.6881 44.2071 32.8945 44.0412 33.132C43.3181 34.2533 43.0276 35.5995 43.2239 36.9193C43.4202 38.2391 44.09 39.4425 45.1082 40.3048C47.1525 42.0263 50.4878 42.1518 52.9714 41.2642C54.6426 40.7323 56.1431 39.7671 57.32 38.4668C57.32 38.4668 57.4903 40.0448 54.3432 42.5643C55.7927 42.3303 57.1633 41.7468 58.3365 40.8641C59.5097 39.9814 60.4503 38.8262 61.0768 37.4984C61.7492 36.028 62.0899 34.2886 63.3541 33.2934C63.9939 32.8788 64.6554 32.4987 65.3356 32.1547C66.558 31.3079 67.4086 30.0241 67.7116 28.5682C68.5455 25.2867 67.4606 21.4671 63.7486 20.5884Z" fill="#FFE259" stroke="black" stroke-width="0.4" stroke-linecap="round" stroke-linejoin="round"/>
<path d="M87.2667 45.5588C92.4463 45.5588 96.6452 41.3599 96.6452 36.1803C96.6452 31.0007 92.4463 26.8018 87.2667 26.8018C82.0871 26.8018 77.8882 31.0007 77.8882 36.1803C77.8882 41.3599 82.0871 45.5588 87.2667 45.5588Z" fill="#FFD3BD" stroke="black" stroke-width="0.4" stroke-miterlimit="10"/>
<path d="M72.7428 57.0607C77.9224 57.0607 82.1213 52.8618 82.1213 47.6822C82.1213 42.5026 77.9224 38.3037 72.7428 38.3037C67.5632 38.3037 63.3643 42.5026 63.3643 47.6822C63.3643 52.8618 67.5632 57.0607 72.7428 57.0607Z" fill="#FFD3BD" stroke="black" stroke-width="0.4" stroke-miterlimit="10"/>
<path d="M66.1064 54.3116C75.0187 56.4096 81.017 47.6498 80.3984 42.2701C90.6824 45.1572 96.3759 32.9454 93.3902 29.0811" stroke="black" stroke-width="0.4" stroke-miterlimit="10"/>
<path d="M82.9097 48.3219C83.1876 44.7355 84.7029 43.6237 85.5009 43.1933C86.0484 42.9072 86.6628 42.7732 87.2797 42.8055C87.8967 42.8377 88.4938 43.035 89.0085 43.3766C89.5233 43.7183 89.9369 44.1918 90.2063 44.7478C90.4756 45.3038 90.5908 45.922 90.5398 46.5377" fill="#FFD3BD"/>
<path d="M82.91 48.3222C82.8871 47.1888 83.1072 46.0638 83.5556 45.0227C84.4522 42.7722 87.5365 41.7411 89.3925 43.4446C89.8281 43.8224 90.1616 44.3038 90.3621 44.8444C90.5627 45.385 90.6239 45.9674 90.5401 46.5379C90.5406 45.9939 90.4174 45.457 90.1797 44.9677C89.9421 44.4784 89.5962 44.0495 89.1683 43.7136C85.6716 41.4542 83.2328 45.0406 82.8921 48.3222H82.91Z" fill="black"/>
<path d="M91.0599 48.2928C91.4361 48.4919 91.8525 48.6034 92.2779 48.6189C92.7034 48.6344 93.1268 48.5536 93.5166 48.3824C94.9601 47.7189 95.3098 45.8899 96.574 45.0291C96.7008 44.9784 96.8381 44.9592 96.974 44.9732C97.1099 44.9873 97.2403 45.0342 97.354 45.1098C101.595 47.5845 95.5608 54.0759 93.2296 56.0574C87.9307 60.6659 80.2378 62.1453 73.5581 60.6749C82.049 62.2888 91.4902 59.2941 96.4395 51.9689C97.632 50.1757 99.739 47.0465 97.1747 45.4595C96.9775 45.3609 96.8699 45.3071 96.7174 45.3698C95.525 46.2664 95.0767 47.961 93.6062 48.5797C93.1914 48.7474 92.7413 48.809 92.2967 48.7589C91.8521 48.7088 91.4269 48.5486 91.0599 48.2928Z" fill="black"/>
<path d="M96.5386 51.8705C97.2245 51.2836 97.9697 50.7697 98.7622 50.3373C98.9131 50.2847 99.0774 50.2847 99.2284 50.3373C100.084 50.5168 100.848 50.9971 101.38 51.6912C101.396 51.7362 101.4 51.7844 101.392 51.8313C101.384 51.8783 101.365 51.9226 101.335 51.9602C100.767 52.9377 100.301 53.9713 99.9457 55.0445C99.7215 55.5556 100.188 55.9411 100.537 56.2818C100.922 56.6137 101.333 56.9136 101.766 57.1784C101.057 56.7032 100.098 56.2818 99.8022 55.3852C100.056 54.1229 100.517 52.9111 101.165 51.7988C101.219 51.7181 101.165 51.7988 101.165 51.7091C100.647 51.1617 99.9691 50.7915 99.2284 50.6511C99.1381 50.6217 99.0408 50.6217 98.9504 50.6511C98.1976 51.0821 97.4915 51.5899 96.8434 52.1664L96.5475 51.8346L96.5386 51.8705Z" fill="black"/>
<path d="M117.338 45.4704C118.234 43.9103 118.889 38.6293 118.871 37.661C117.863 35.508 116.599 33.4849 115.105 31.6358C114.711 31.2592 114.989 30.3357 115.365 29.9502C115.742 29.5646 120.521 36.0291 120.897 37.0423C121.274 38.0555 120.655 44.2959 119.517 46.2774C119.248 46.7526 117.159 45.856 117.338 45.4704Z" fill="#FFD3BD" stroke="black" stroke-width="0.4" stroke-miterlimit="10"/>
<path d="M122.78 45.6681C124.197 43.5479 125.424 41.3066 126.447 38.9705C125.365 36.486 124.094 34.0881 122.646 31.7976C122.54 31.5293 122.525 31.2336 122.605 30.9564C122.684 30.6791 122.853 30.4359 123.085 30.2644C123.506 29.9685 128.617 37.4373 128.895 38.6835C129.173 39.9298 124.537 47.1654 124.717 47.3806C125.057 47.82 122.538 45.9909 122.78 45.6681Z" fill="#FFD3BD" stroke="black" stroke-width="0.4" stroke-miterlimit="10"/>
<path d="M123.435 46.2227C124.439 44.3667 124.619 38.0456 124.251 37.158C123.883 36.2703 119.095 29.8237 118.746 30.1824C118.396 30.541 118.1 31.4197 118.459 31.7694C119.985 33.6228 121.299 35.6407 122.377 37.7856C122.449 38.6822 122.072 43.7391 121.274 45.2274C121.104 45.5771 123.193 46.662 123.435 46.2227Z" fill="#FFD3BD" stroke="black" stroke-width="0.4" stroke-miterlimit="10"/>
<path d="M124.081 43.7754C122.39 43.462 120.672 43.3089 118.952 43.3181C119.15 40.6283 119.024 37.5978 118.746 36.9971C118.244 35.9301 112.47 29.34 112.138 29.8242C111.806 30.3084 111.484 31.5098 111.932 31.8864C113.696 33.7358 115.226 35.7956 116.487 38.0192C116.531 40.8847 116.245 43.7458 115.635 46.5459C115.434 47.1246 115.185 47.6854 114.891 48.2226C112.344 48.5723 108.946 49.2178 108.525 48.9668C107.821 48.5734 107.053 48.3092 106.256 48.1867C105.1 47.9305 103.899 47.9644 102.76 48.2853C102.628 48.3153 102.507 48.3803 102.41 48.4736C102.352 48.5632 102.322 48.6675 102.322 48.774C102.322 48.8805 102.352 48.9847 102.41 49.0743C102.532 49.2482 102.691 49.3922 102.876 49.4958C103.701 50.0427 108.704 51.011 109.843 52.598C110.981 54.185 112.255 57.6549 112.82 58.3273C113.384 58.9998 120.073 59.4033 120.79 57.4307C122.167 53.7659 123.732 50.1747 125.48 46.6714C125.664 46.4252 125.797 46.1441 125.869 45.8451C125.942 45.546 125.952 45.2354 125.901 44.932C125.641 44.1789 124.807 43.9099 124.081 43.7754Z" fill="#FFD3BD" stroke="black" stroke-width="0.4" stroke-miterlimit="10"/>
<path d="M120.835 45.3093C120.835 48.573 117.007 50.0703 116.263 53.0381C115.94 53.9347 116.2 55.1092 116.092 56.0327C114.164 50.4469 120.1 49.8013 120.835 45.2734V45.3093Z" fill="black"/>
<path d="M125.23 34.3695C125.688 34.4726 126.111 34.6917 126.46 35.0057C126.808 35.3198 127.07 35.7182 127.22 36.1628C127.769 37.955 127.955 39.8388 127.767 41.7038C127.654 43.5772 127.16 45.4077 126.315 47.0834C126.098 47.5065 125.773 47.8647 125.373 48.1214C124.973 48.3781 124.512 48.5242 124.037 48.5449L100.349 49.6836C100.131 49.6857 99.9205 49.6087 99.7556 49.4668C99.5906 49.325 99.4828 49.1279 99.4524 48.9125C99.1741 45.6739 99.2102 42.416 99.56 39.1843C99.7605 35.9345 100.308 32.7153 101.192 29.5817C101.263 29.3776 101.406 29.2063 101.594 29.0992C101.782 28.9921 102.002 28.9565 102.214 28.9989L125.23 34.3695Z" fill="#C7EFFF" stroke="black" stroke-width="0.4" stroke-linecap="round" stroke-linejoin="round"/>
<path d="M122.154 35.7139C122.511 35.7951 122.841 35.9675 123.111 36.2142C123.381 36.461 123.583 36.7736 123.696 37.1215C124.117 38.5054 124.261 39.9589 124.118 41.3984C124.03 42.8381 123.648 44.2447 122.997 45.5317C122.821 45.8566 122.563 46.1296 122.248 46.3231C121.933 46.5167 121.573 46.6241 121.204 46.6345L102.904 47.5311C102.735 47.5412 102.568 47.4851 102.439 47.3747C102.311 47.2643 102.23 47.1083 102.214 46.9394C102.124 45.8545 122.154 35.7139 122.154 35.7139Z" fill="#00C3FF"/>
<path d="M111.484 90.5698C109.377 98.2178 111.278 106.467 113.555 113.882C111.117 106.422 109.072 98.1909 111.063 90.3994L111.484 90.5608V90.5698Z" fill="black"/>
</svg>
