<svg width="150" height="147" viewBox="0 0 150 147" fill="none" xmlns="http://www.w3.org/2000/svg">
<path d="M67.1104 34.9946C66.6135 34.9962 66.127 34.8516 65.7115 34.5789C65.2961 34.3062 64.9699 33.9175 64.7736 33.4609C64.5773 33.0044 64.5195 32.5002 64.6073 32.0111C64.6952 31.5219 64.925 31.0694 65.2679 30.7098L82.9645 12.3562C83.4238 11.878 84.0542 11.6018 84.7172 11.5884C85.3801 11.575 86.0212 11.8255 86.4995 12.2848C86.9777 12.7441 87.2539 13.3746 87.2673 14.0375C87.2807 14.7005 87.0302 15.3416 86.5709 15.8198L68.9101 34.2305C68.6764 34.4716 68.3967 34.6635 68.0876 34.7947C67.7785 34.9259 67.4462 34.9939 67.1104 34.9946Z" fill="#FFD100" stroke="black" stroke-width="0.25" stroke-miterlimit="10"/>
<path d="M84.763 34.9952C84.4272 34.9945 84.0949 34.9265 83.7858 34.7953C83.4768 34.6641 83.1971 34.4722 82.9634 34.2311L65.2811 15.8633C64.8954 15.3777 64.7039 14.766 64.744 14.1471C64.7841 13.5282 65.0528 12.9463 65.498 12.5145C65.9431 12.0826 66.533 11.8318 67.1528 11.8105C67.7726 11.7893 68.3782 11.9993 68.8518 12.3997L86.5127 30.7603C86.7502 30.9931 86.9389 31.2709 87.0677 31.5774C87.1965 31.884 87.2629 32.2132 87.2629 32.5457C87.2629 32.8782 87.1965 33.2074 87.0677 33.514C86.9412 33.815 86.757 34.0882 86.5256 34.3183C86.5173 34.3265 86.5061 34.3311 86.4945 34.3311C86.4832 34.3311 86.4724 34.3354 86.4641 34.3431C86.0022 34.7709 85.393 35.0046 84.763 34.9952Z" fill="#FFD100" stroke="black" stroke-width="0.25" stroke-miterlimit="10"/>
<path d="M148.508 103.511C148.508 87.0855 134.225 53.4564 114.764 47.0433C112.138 46.169 109.589 45.0773 107.144 43.7797C97.5369 38.6655 86.8199 35.9907 75.9362 35.9907C65.0524 35.9907 54.3354 38.6655 44.728 43.7797C42.2828 45.0727 39.734 46.1596 37.1081 47.0291C17.6262 53.4564 3.36475 87.0926 3.36475 103.497C3.36475 115.578 11.1035 126.263 22.9668 132.764C36.235 140.034 51.5915 143.842 66.596 145.784C69.6866 146.184 72.8094 146.375 75.9433 146.352C79.0656 146.375 82.1768 146.185 85.2562 145.789C100.284 143.851 115.669 140.044 128.951 132.751C140.787 126.252 148.508 115.578 148.508 103.511Z" fill="#63DAFF" stroke="black" stroke-width="0.25" stroke-miterlimit="10"/>
<path d="M20.4974 60.7774C19.5727 60.7761 18.6664 60.5183 17.8794 60.0327C17.0924 59.5471 16.4555 58.8527 16.0396 58.0268C15.6236 57.2008 15.4449 56.2757 15.5234 55.3543C15.6018 54.4328 15.9343 53.5512 16.4839 52.8075C17.1981 51.822 34.7803 28.7622 77.3005 29.9549C116.914 31.0832 134.489 51.6934 135.211 52.5718C135.658 53.0586 136.004 53.6292 136.229 54.2506C136.454 54.8721 136.554 55.532 136.522 56.1922C136.491 56.8524 136.329 57.4998 136.045 58.0969C135.762 58.6941 135.363 59.2291 134.871 59.671C134.38 60.1129 133.806 60.453 133.182 60.6716C132.558 60.8901 131.897 60.9828 131.237 60.9442C130.577 60.9056 129.932 60.7366 129.338 60.4468C128.744 60.1571 128.213 59.7524 127.776 59.2562L127.526 58.9563C126.919 58.2421 111.815 40.9456 77.0149 39.9529C39.6651 38.896 24.668 58.5207 24.518 58.7349C24.0548 59.3666 23.4495 59.8805 22.7511 60.2353C22.0527 60.59 21.2807 60.7757 20.4974 60.7774Z" fill="#FFD100" stroke="black" stroke-width="0.25" stroke-miterlimit="10"/>
<path d="M67.1104 19.4249C72.1983 19.4249 76.3229 15.3004 76.3229 10.2125C76.3229 5.12456 72.1983 1 67.1104 1C62.0225 1 57.8979 5.12456 57.8979 10.2125C57.8979 15.3004 62.0225 19.4249 67.1104 19.4249Z" fill="#FFD100" stroke="black" stroke-width="0.25" stroke-miterlimit="10"/>
<path d="M61.1395 11.6417C61.1367 10.5566 61.3476 9.48164 61.7603 8.47809C62.1729 7.47454 62.7792 6.56209 63.5444 5.79284C64.3097 5.0236 65.219 4.41261 66.2204 3.99478C67.2218 3.57694 68.2957 3.36044 69.3807 3.35763C70.0058 3.35788 70.3599 2.55032 69.7722 2.33757C69.7419 2.32661 69.7116 2.31583 69.6812 2.30523C68.645 1.94375 67.5472 1.79214 66.4519 1.85921C65.3565 1.92629 64.2854 2.21072 63.301 2.69592C62.3167 3.18112 61.4388 3.85739 60.7184 4.68532C59.9981 5.51324 59.4497 6.47627 59.1053 7.51826C58.7609 8.56025 58.6273 9.66038 58.7124 10.7545C58.7974 11.8486 59.0994 12.9149 59.6007 13.8912C60.102 14.8674 60.7926 15.7341 61.6323 16.4408C62.0284 16.786 62.4913 16.2075 62.2296 15.7518C62.1016 15.529 61.9839 15.2998 61.877 15.065C61.3877 13.9903 61.1362 12.8226 61.1395 11.6417Z" fill="#FFE67B"/>
<path d="M84.7647 19.4249C89.8526 19.4249 93.9772 15.3004 93.9772 10.2125C93.9772 5.12456 89.8526 1 84.7647 1C79.6768 1 75.5522 5.12456 75.5522 10.2125C75.5522 15.3004 79.6768 19.4249 84.7647 19.4249Z" fill="#FFD100" stroke="black" stroke-width="0.25" stroke-miterlimit="10"/>
<path d="M125.413 74.8076C126.798 77.8999 140.067 83.0846 139.274 86.3768C138.381 90.0975 135.389 99.517 135.532 103.345" stroke="black" stroke-miterlimit="10"/>
<path d="M106.931 77.2935C108.402 80.8642 121.863 87.1701 121.149 90.9265C120.342 95.1757 117.579 105.924 117.821 110.316" stroke="black" stroke-miterlimit="10"/>
<path d="M114.665 10.4211C118.183 10.918 120.631 14.1732 120.133 17.6908L112.111 74.3374C111.612 77.8558 108.357 80.3045 104.838 79.8075C88.8486 77.5436 78.0792 60.2042 80.793 41.008C83.5067 21.8117 98.6752 8.15727 114.665 10.4211Z" fill="#D39F42" stroke="black" stroke-width="0.25" stroke-linecap="round" stroke-linejoin="round"/>
<path d="M145.086 50.1122C147.8 30.9496 137.033 13.579 121.037 11.3139C105.042 9.0488 89.875 22.7469 87.1614 41.9095C84.4478 61.0721 95.215 78.4427 111.21 80.7078C127.206 82.9729 142.373 69.2748 145.086 50.1122Z" fill="#FFC655" stroke="black" stroke-width="0.25" stroke-linecap="round" stroke-linejoin="round"/>
<path d="M134.257 59.3112C136.791 61.7167 140.927 61.0893 142.087 57.793C142.736 55.9481 142.138 53.9244 140.722 52.5747L106.158 19.6127C104.293 17.8344 101.407 17.5524 99.4802 19.2632C97.324 21.1775 97.5586 24.4833 99.65 26.4682L134.257 59.3112Z" fill="#FFDC85"/>
<path d="M132.64 72.4844C135.274 70.0459 134.84 65.9523 132.217 63.502L99.0833 32.5428C95.9765 29.6399 90.95 30.329 89.5418 34.341C88.7463 36.6075 89.5136 39.084 91.2539 40.7397L124.172 72.0565C126.55 74.3191 130.232 74.7146 132.64 72.4844Z" fill="#FFDC85"/>
<path d="M138.951 49.2428C141.089 34.1416 132.604 20.4525 119.998 18.6674C107.392 16.8823 95.4392 27.6772 93.3007 42.7784C91.1623 57.8796 99.6478 71.5687 112.254 73.3538C124.859 75.1389 136.812 64.344 138.951 49.2428Z" fill="#FFB717" stroke="black" stroke-width="0.25" stroke-linecap="round" stroke-linejoin="round"/>
<path d="M115.271 19.2271C115.821 23.212 121.327 24.1047 122.699 20.1197" stroke="black" stroke-width="0.5" stroke-linecap="round" stroke-linejoin="round"/>
<path d="M100.217 13.2476L104.117 13.8046" stroke="black" stroke-width="0.25" stroke-linecap="round" stroke-linejoin="round"/>
<path d="M97.2114 15.1753L101.439 15.7752" stroke="black" stroke-width="0.25" stroke-linecap="round" stroke-linejoin="round"/>
<path d="M93.8965 17.6626L97.8671 18.2268" stroke="black" stroke-width="0.25" stroke-linecap="round" stroke-linejoin="round"/>
<path d="M90.9404 20.5396L95.4253 21.1751" stroke="black" stroke-width="0.25" stroke-linecap="round" stroke-linejoin="round"/>
<path d="M88.834 23.2393L92.7689 23.7963" stroke="black" stroke-width="0.25" stroke-linecap="round" stroke-linejoin="round"/>
<path d="M85.9058 26.9541L90.7548 27.6397" stroke="black" stroke-width="0.25" stroke-linecap="round" stroke-linejoin="round"/>
<path d="M84.1919 30.0801L88.7481 30.7228" stroke="black" stroke-width="0.25" stroke-linecap="round" stroke-linejoin="round"/>
<path d="M83.3921 33.0449L87.3627 33.6091" stroke="black" stroke-width="0.25" stroke-linecap="round" stroke-linejoin="round"/>
<path d="M82.377 35.9731L86.7904 36.6016" stroke="black" stroke-width="0.25" stroke-linecap="round" stroke-linejoin="round"/>
<path d="M82.0137 38.5454L86.5771 39.1953" stroke="black" stroke-width="0.25" stroke-linecap="round" stroke-linejoin="round"/>
<path d="M81.5142 42.0713L85.5562 42.6497" stroke="black" stroke-width="0.25" stroke-linecap="round" stroke-linejoin="round"/>
<path d="M81.4292 44.8442L85.1713 45.3727" stroke="black" stroke-width="0.25" stroke-linecap="round" stroke-linejoin="round"/>
<path d="M81.2505 48.1841L85.2211 48.7483" stroke="black" stroke-width="0.25" stroke-linecap="round" stroke-linejoin="round"/>
<path d="M81.2358 50.9556L85.1279 51.5055" stroke="black" stroke-width="0.25" stroke-linecap="round" stroke-linejoin="round"/>
<path d="M81.8569 54.0405L85.3705 54.5404" stroke="black" stroke-width="0.25" stroke-linecap="round" stroke-linejoin="round"/>
<path d="M82.7285 56.7959L86.0207 57.2601" stroke="black" stroke-width="0.25" stroke-linecap="round" stroke-linejoin="round"/>
<path d="M83.5005 59.8252L86.5927 60.2608" stroke="black" stroke-width="0.25" stroke-linecap="round" stroke-linejoin="round"/>
<path d="M84.9639 62.7344L87.9061 63.1557" stroke="black" stroke-width="0.25" stroke-linecap="round" stroke-linejoin="round"/>
<path d="M86.0493 65.6582L89.063 66.0867" stroke="black" stroke-width="0.25" stroke-linecap="round" stroke-linejoin="round"/>
<path d="M88.7842 68.0737L91.4979 68.4594" stroke="black" stroke-width="0.25" stroke-linecap="round" stroke-linejoin="round"/>
<path d="M90.4907 70.2739L93.0688 70.6381" stroke="black" stroke-width="0.25" stroke-linecap="round" stroke-linejoin="round"/>
<path d="M130.782 56.5831C132.789 58.488 136.064 57.9919 136.979 55.3804C137.49 53.9212 137.016 52.3219 135.896 51.255L108.511 25.1453C107.035 23.7386 104.752 23.5125 103.228 24.8666C101.525 26.3807 101.715 28.9934 103.368 30.5627L130.782 56.5831Z" fill="#FFE578"/>
<path d="M129.474 66.9847C131.569 65.0582 131.23 61.8098 129.151 59.866L102.952 35.3753C100.491 33.0753 96.5099 33.6209 95.3924 36.7981C94.7606 38.5944 95.368 40.5581 96.7476 41.8704L122.784 66.6362C124.662 68.4222 127.566 68.7386 129.474 66.9847Z" fill="#FFE578"/>
<path d="M108.874 21.5392C112.329 21.5392 115.13 18.7383 115.13 15.2833C115.13 11.8282 112.329 9.02734 108.874 9.02734C105.419 9.02734 102.618 11.8282 102.618 15.2833C102.618 18.7383 105.419 21.5392 108.874 21.5392Z" fill="white" stroke="black" stroke-width="0.25" stroke-linecap="round" stroke-linejoin="round"/>
<path d="M129.523 22.7359C132.978 22.7359 135.778 19.9351 135.778 16.48C135.778 13.025 132.978 10.2241 129.523 10.2241C126.067 10.2241 123.267 13.025 123.267 16.48C123.267 19.9351 126.067 22.7359 129.523 22.7359Z" fill="white" stroke="black" stroke-width="0.25" stroke-linecap="round" stroke-linejoin="round"/>
<path d="M129.883 18.968C130.971 18.968 131.854 18.0855 131.854 16.9969C131.854 15.9083 130.971 15.0259 129.883 15.0259C128.794 15.0259 127.912 15.9083 127.912 16.9969C127.912 18.0855 128.794 18.968 129.883 18.968Z" fill="black"/>
<path d="M108.874 17.2541C109.962 17.2541 110.845 16.3716 110.845 15.2831C110.845 14.1945 109.962 13.312 108.874 13.312C107.785 13.312 106.903 14.1945 106.903 15.2831C106.903 16.3716 107.785 17.2541 108.874 17.2541Z" fill="black"/>
<path d="M11.8426 94.4395C9.98584 97.296 9.49308 100.802 9.60735 104.188C9.72161 107.573 10.3929 110.908 10.6571 114.286C10.9415 118.109 10.7012 121.954 9.94299 125.712" stroke="black" stroke-miterlimit="10"/>
<path d="M2.61442 128.897C2.54963 129.049 2.51542 129.212 2.51374 129.377C2.51205 129.542 2.54294 129.706 2.60462 129.859C2.6663 130.013 2.75757 130.152 2.87321 130.27C2.98885 130.388 3.1266 130.482 3.27858 130.547C3.299 130.556 3.31968 130.564 3.34061 130.572C3.46598 130.619 3.59702 130.662 3.71603 130.723C4.8526 131.31 5.85357 131.27 6.70797 130.844C7.52398 130.438 10.4326 131.029 10.423 131.94C10.4185 132.368 10.8 132.783 11.1061 132.484C12.3206 131.299 10.6363 126.001 10.7542 124.332C10.7609 124.237 10.7582 124.076 10.7264 123.986C10.5547 123.498 9.84528 124.344 9.66589 124.829C7.47405 130.754 2.97932 129.406 3.76783 128.044C3.93281 127.759 3.86483 127.442 3.59051 127.624C3.13265 127.928 2.78918 128.376 2.61442 128.897Z" fill="black"/>
<path d="M28.5951 96.7173C26.7383 99.5739 26.2455 103.08 26.3669 106.458C26.4883 109.836 27.1525 113.185 27.4096 116.563C27.694 120.387 27.4537 124.231 26.6955 127.99" stroke="black" stroke-miterlimit="10"/>
<path d="M19.3757 131.175C19.3096 131.325 19.2737 131.486 19.2703 131.649C19.2668 131.813 19.2959 131.975 19.3556 132.127C19.4154 132.279 19.5048 132.418 19.6186 132.535C19.7323 132.653 19.8682 132.746 20.0184 132.811C20.0439 132.823 20.0698 132.835 20.0962 132.845C20.22 132.893 20.3508 132.933 20.4686 132.994C21.5865 133.571 22.5731 133.543 23.4183 133.139C24.2002 132.764 27.1852 133.396 27.1756 134.263C27.1711 134.667 27.5246 135.059 27.8287 134.794C29.1122 133.673 27.3962 128.296 27.5088 126.611C27.5152 126.515 27.5123 126.355 27.4808 126.264C27.3102 125.773 26.6 126.621 26.4194 127.109C24.2266 133.028 19.7312 131.681 20.5267 130.317C20.6928 130.032 20.6245 129.715 20.3501 129.898C19.8921 130.204 19.5492 130.653 19.3757 131.175Z" fill="black"/>
<path d="M19.0636 99.1688C31.9697 100.301 41.3297 89.3245 44.4631 76.7535C44.8661 75.1371 45.3877 73.7331 46.0565 72.6515C52.2553 62.6534 63.5317 62.5749 63.6674 58.847C64.1339 45.5561 59.5874 38.498 56.2207 30.3773C51.472 18.9232 42.7646 7.34321 30.3955 6.47528C19.3641 5.70121 8.87992 14.007 13.4608 24.0721C18.0961 34.2571 26.0989 41.8982 22.4826 56.5332C21.7685 59.3898 13.5344 59.7397 6.77141 69.3021C5.29353 71.3896 3.97364 74.7986 2.90039 78.6317C-0.0268382 89.0862 8.24858 98.2201 19.0636 99.1688Z" fill="#009F00" stroke="black" stroke-width="0.25" stroke-linecap="round" stroke-linejoin="round"/>
<path d="M46.8603 26.2193C44.6586 18.4521 39.1483 11.036 31.0952 10.4662C23.8972 9.95687 17.0727 15.1384 18.699 22.1688C21.5195 34.3622 30.7419 42.3032 27.011 57.4185C26.3682 59.9895 19.034 60.2751 12.9994 68.802C11.3932 71.0819 9.97719 74.6659 8.9124 78.514C8.55719 79.7978 9.76473 80.9964 11.0807 81.2021C12.037 81.3515 12.9545 81.6878 13.7807 82.1918C14.607 82.6958 15.3259 83.3576 15.8965 84.1394C16.467 84.9213 16.8779 85.8078 17.1058 86.7485C17.176 87.033 17.2285 87.3216 17.2629 87.6126C17.3072 88.0077 17.3191 88.4035 17.2997 88.7962C17.2096 90.6152 18.2569 92.81 20.0711 92.97L21.7433 93.1174C22.924 93.2215 23.8059 91.9098 23.6616 90.7334C23.4778 89.2539 23.7457 87.7535 24.4301 86.429C25.1145 85.1046 26.1834 84.0181 27.4965 83.3121C28.8096 82.6061 30.3054 82.3137 31.7877 82.4733C33.5829 82.6665 35.9399 81.5758 36.1221 79.7794C36.5693 75.3711 37.4198 71.238 38.8943 68.852C44.4218 59.9252 55.2625 60.0466 55.3839 56.7115C55.906 42.2007 49.6438 36.0388 46.8603 26.2193ZM52.4274 52.7694C52.3345 57.0543 46.9856 60.4322 40.4797 60.2894C33.9739 60.1466 28.7749 56.5473 28.8606 52.2481C28.9463 47.949 34.3095 44.5853 40.8154 44.7282C47.3212 44.871 52.5202 48.4774 52.4274 52.7694Z" fill="#17C617" stroke="black" stroke-width="0.25" stroke-linecap="round" stroke-linejoin="round"/>
<path d="M57.2551 33.209C56.6478 36.4331 60.4972 44.0623 62.5189 50.2328C64.7563 57.0612 57.1288 58.7535 50.1394 60.4211C45.1089 61.6213 39.9504 63.5109 37.3447 65.4241" stroke="black" stroke-linecap="round" stroke-linejoin="round"/>
<path d="M32.5166 70.58C32.6397 70.1301 32.8376 69.689 33.0912 69.2635C34.681 66.5957 37.4399 68.2744 38.644 71.137V71.137" stroke="black" stroke-linecap="round" stroke-linejoin="round"/>
<path d="M37.4306 65.4238C35.8664 67.6158 34.6967 70.064 33.9741 72.6581" stroke="black" stroke-linecap="round" stroke-linejoin="round"/>
<path d="M22.9759 74.4154C23.1963 73.9926 23.3528 73.5233 23.4556 73.0265C24.0827 69.9956 20.9281 69.3608 18.1055 70.6304V70.6304" stroke="black" stroke-linecap="round" stroke-linejoin="round"/>
<path d="M22.8757 67.3018C22.5394 69.9714 21.7344 72.5606 20.4976 74.9502" stroke="black" stroke-linecap="round" stroke-linejoin="round"/>
<path d="M23.4035 47.9863C22.318 55.1278 11.6344 58.9984 18.3188 62.2692C20.5969 63.3833 23.4964 64.3474 22.8751 67.2682" stroke="black" stroke-linecap="round" stroke-linejoin="round"/>
<path d="M85.7417 41.4868C83.2779 52.8203 76.6863 62.7612 70.2305 72.4022" stroke="black" stroke-linecap="round" stroke-linejoin="round"/>
<path d="M63.3677 70.4744C63.8237 70.3681 64.3085 70.3329 64.8063 70.3549C67.9095 70.4917 67.7388 73.7055 65.7886 76.1233V76.1233" stroke="black" stroke-linecap="round" stroke-linejoin="round"/>
<path d="M70.2307 72.3441C67.5597 72.0064 64.8502 72.1394 62.2251 72.7369" stroke="black" stroke-linecap="round" stroke-linejoin="round"/>
<path d="M36.3589 108.051C36.8461 115.297 39.0993 122.314 42.9219 128.49C38.6659 122.523 36.3722 115.38 36.3589 108.051Z" fill="black"/>
<path d="M110.394 107.686C110.177 115.758 107.703 123.608 103.252 130.346C107.264 123.407 109.702 115.671 110.394 107.686Z" fill="black"/>
<path d="M78.8509 11.6417C78.8481 10.5566 79.059 9.48164 79.4717 8.47809C79.8843 7.47454 80.4906 6.56209 81.2559 5.79284C82.0211 5.0236 82.9304 4.41261 83.9318 3.99478C84.9332 3.57694 86.0071 3.36044 87.0922 3.35763C87.7172 3.35788 88.0713 2.55032 87.4836 2.33756C87.4534 2.32661 87.423 2.31583 87.3926 2.30523C86.3564 1.94375 85.2587 1.79214 84.1633 1.85921C83.0679 1.92629 81.9968 2.21072 81.0125 2.69592C80.0281 3.18112 79.1502 3.85739 78.4298 4.68532C77.7095 5.51324 77.1611 6.47627 76.8167 7.51826C76.4723 8.56025 76.3387 9.66038 76.4238 10.7545C76.5089 11.8486 76.8108 12.9149 77.3121 13.8912C77.8134 14.8674 78.504 15.7341 79.3437 16.4408C79.7415 16.7874 80.2057 16.2076 79.9431 15.75C79.8153 15.5273 79.6978 15.2984 79.591 15.0638C79.1019 13.9894 78.8495 12.8223 78.8509 11.6417Z" fill="#FFE67B"/>
<path d="M24.997 19.4032C29.1502 19.4032 32.5169 16.0364 32.5169 11.8832C32.5169 7.73008 29.1502 4.36328 24.997 4.36328C20.8438 4.36328 17.4771 7.73008 17.4771 11.8832C17.4771 16.0364 20.8438 19.4032 24.997 19.4032Z" fill="white" stroke="black" stroke-width="0.25" stroke-linecap="round" stroke-linejoin="round"/>
<path d="M21.2531 12.83C19.1757 11.9914 17.3566 13.6737 18.4704 15.6175C19.1238 16.7578 20.0651 17.7066 21.2003 18.3689C22.3355 19.0312 23.6247 19.3838 24.9389 19.3915C27.043 19.4038 27.6419 16.8939 26.0016 15.576C24.4514 14.3305 22.7426 13.4313 21.2531 12.83Z" fill="#009F00" stroke="black" stroke-width="0.25" stroke-linecap="round" stroke-linejoin="round"/>
<path d="M38.0224 19.4032C42.1755 19.4032 45.5423 16.0364 45.5423 11.8832C45.5423 7.73008 42.1755 4.36328 38.0224 4.36328C33.8692 4.36328 30.5024 7.73008 30.5024 11.8832C30.5024 16.0364 33.8692 19.4032 38.0224 19.4032Z" fill="white" stroke="black" stroke-width="0.25" stroke-linecap="round" stroke-linejoin="round"/>
<path d="M37.9327 15.6702C36.6486 17.4392 37.8083 19.7 39.9229 19.1462C41.2096 18.8092 42.3842 18.1376 43.3273 17.1996C44.2703 16.2616 44.9483 15.0907 45.2922 13.8058C45.8538 11.7077 43.5247 10.4076 41.7804 11.7017C40.2108 12.8663 38.9064 14.3286 37.9327 15.6702Z" fill="#009F00" stroke="black" stroke-width="0.25" stroke-linecap="round" stroke-linejoin="round"/>
<path d="M37.374 14.6713C38.8293 14.6713 40.0092 13.4915 40.0092 12.0361C40.0092 10.5807 38.8293 9.40088 37.374 9.40088C35.9186 9.40088 34.7388 10.5807 34.7388 12.0361C34.7388 13.4915 35.9186 14.6713 37.374 14.6713Z" fill="black"/>
<path d="M24.996 14.5175C26.4514 14.5175 27.6312 13.3376 27.6312 11.8823C27.6312 10.4269 26.4514 9.24707 24.996 9.24707C23.5407 9.24707 22.3608 10.4269 22.3608 11.8823C22.3608 13.3376 23.5407 14.5175 24.996 14.5175Z" fill="black"/>
<path d="M45.5426 21.2262C48.8163 21.2262 51.47 19.3014 51.47 16.9271C51.47 14.5527 48.8163 12.6279 45.5426 12.6279C42.269 12.6279 39.6152 14.5527 39.6152 16.9271C39.6152 19.3014 42.269 21.2262 45.5426 21.2262Z" fill="#FF92C4"/>
<path d="M18.0768 22.026C21.3504 22.026 24.0042 20.1012 24.0042 17.7269C24.0042 15.3525 21.3504 13.4277 18.0768 13.4277C14.8032 13.4277 12.1494 15.3525 12.1494 17.7269C12.1494 20.1012 14.8032 22.026 18.0768 22.026Z" fill="#FF92C4"/>
<path d="M42.6114 18.8919C42.6089 18.8957 42.6092 18.9009 42.6122 18.9045C45.0817 21.8755 42.5116 26.4672 38.615 24.8044C38.5798 24.7877 38.5447 24.7707 38.5098 24.7534C38.1041 24.5528 38.3968 24.1498 38.8221 24.3045C42.3149 25.4592 44.0574 21.7475 42.6295 18.8931C42.6259 18.8859 42.6159 18.8852 42.6114 18.8919Z" fill="black"/>
<path d="M138.16 103.48C137.688 103.316 137.338 102.93 136.888 102.766C135.931 102.409 134.16 103.252 133.232 103.559C133.062 103.594 132.901 103.663 132.758 103.763C132.475 103.96 132.293 104.32 132.4 104.648C132.401 104.652 132.403 104.656 132.404 104.66C132.462 104.83 132.575 104.975 132.725 105.073C133.033 105.259 133.398 105.33 133.753 105.273C134.625 105.173 135.432 104.652 136.303 104.716C137.826 105.01 139.137 106.041 140.675 106.24C141.378 106.331 142.094 106.324 142.802 106.216C144.283 105.996 145.726 105.565 147.086 104.937C147.744 104.687 148.342 104.303 148.843 103.809C149.091 103.56 149.266 103.248 149.349 102.907C149.482 102.363 148.868 102.069 148.352 102.286C147.722 102.55 147.092 102.804 146.458 103.045C145.418 103.474 144.329 103.772 143.216 103.93C142.135 104.014 141.048 103.983 139.974 103.837C139.356 103.796 138.747 103.676 138.16 103.48Z" fill="black"/>
<path d="M119.378 111.179C119.028 110.822 118.885 110.322 118.557 109.972C117.956 109.372 116.482 109.241 115.45 109.138C115.098 109.103 114.748 108.989 114.396 109.026C114.047 109.062 113.711 109.307 113.668 109.656C113.646 109.832 113.683 110.011 113.772 110.165C113.96 110.475 114.259 110.703 114.608 110.801C114.707 110.836 114.808 110.866 114.911 110.891C116.402 111.257 117.872 111.817 118.657 113.136C119.594 114.305 120.86 115.166 122.292 115.607C123.712 116.062 125.192 116.302 126.684 116.321C127.385 116.392 128.093 116.314 128.762 116.093C129.094 115.977 129.387 115.773 129.611 115.502C129.967 115.072 129.544 114.541 128.987 114.509C128.312 114.47 127.635 114.418 126.962 114.357C125.84 114.288 124.732 114.077 123.663 113.729C122.658 113.33 121.7 112.822 120.806 112.215C120.291 111.927 119.812 111.579 119.378 111.179Z" fill="black"/>
</svg>
