<svg width="152" height="142" viewBox="0 0 152 142" fill="none" xmlns="http://www.w3.org/2000/svg">
<path d="M77.4622 135.924C106.941 135.924 130.838 112.027 130.838 82.5486C130.838 53.07 106.941 29.1729 77.4622 29.1729C47.9836 29.1729 24.0864 53.07 24.0864 82.5486C24.0864 112.027 47.9836 135.924 77.4622 135.924Z" fill="#2CC9FF" stroke="black" stroke-width="0.75" stroke-miterlimit="10"/>
<path d="M82.0889 33.9464C80.4601 35.2773 78.62 36.3262 76.6448 37.0495C73.6244 38.3256 70.3837 39.7761 67.8958 41.9978C66.9777 42.769 65.518 44.4765 66.9777 45.3854C67.8958 45.973 69.1627 45.9638 69.9338 46.7992C70.9896 47.9192 69.9338 49.3881 69.0801 50.3337C67.6295 51.9587 65.8669 53.2715 64.2878 54.7588C63.3698 55.6768 61.1113 57.5864 62.0019 59.0461C62.7271 60.2395 64.9304 59.2756 66.0321 59.0461C66.914 58.8257 67.8462 58.9402 68.6486 59.3674C69.4636 59.8116 70.3342 60.1451 71.2375 60.3589C72.027 60.515 72.8349 60.5792 73.6336 60.6894C74.9556 60.8822 76.3878 61.2035 77.1222 62.3511C77.5345 63.1757 78.0805 63.9264 78.738 64.5728C79.2857 64.9626 79.8014 65.3955 80.2803 65.8672C81.1984 66.8404 80.7853 67.9879 80.7669 69.1906C80.7212 69.5977 80.7981 70.0093 80.9879 70.3724C81.1776 70.7355 81.4715 71.0337 81.8318 71.2287C82.3746 71.349 82.9423 71.2777 83.4384 71.0267C84.4666 70.4984 85.5312 70.0443 86.6241 69.668C86.6546 69.6587 86.6874 69.6611 86.7163 69.6746C86.7451 69.6882 86.7679 69.712 86.7802 69.7414C87.1198 70.6595 87.3126 72.1467 88.3592 72.4405C89.7455 72.8353 91.1868 71.752 92.0314 70.7513C93.3594 68.9944 94.4091 67.0437 95.1437 64.9675C95.8801 63.0344 96.8252 61.1874 97.9621 59.4592C98.8801 58.1464 100.156 56.9529 101.827 56.9254C101.851 56.9251 101.875 56.9308 101.897 56.942C101.918 56.9532 101.936 56.9695 101.95 56.9895C101.964 57.0095 101.972 57.0325 101.975 57.0566C101.977 57.0806 101.974 57.1049 101.965 57.1273C101.744 57.7608 101.478 58.3759 101.194 58.9635C98.825 64.1413 92.5915 73.4687 99.1096 77.802C101.342 79.1609 103.888 79.9199 106.5 80.0053C108.336 80.0879 110.282 79.5004 112.118 79.941C113.955 80.3817 114.928 81.9791 115.726 83.4572C116.691 85.364 117.486 87.3515 118.104 89.397C118.655 91.0679 119.27 92.7387 119.729 94.4463C120.188 96.1539 120.647 98.3021 121.923 99.7159C122.201 100.106 122.612 100.381 123.078 100.491C123.544 100.601 124.034 100.538 124.457 100.313C125.332 99.6993 125.996 98.8303 126.358 97.8247C127.053 96.1249 127.588 94.3638 127.955 92.5643C128.632 90.2131 128.89 87.7613 128.717 85.3208C128.414 82.6585 126.991 80.1522 125.963 77.7285C125.045 75.5711 123.209 73.6615 122.924 71.247C122.856 70.4382 122.975 69.6244 123.273 68.8693C123.737 67.623 124.117 66.3472 124.411 65.0502C124.937 62.5911 125.244 60.0904 125.329 57.5772C125.387 56.1255 125.016 54.689 124.264 53.4459C120.318 46.8921 114.968 41.2946 108.599 37.0562C102.23 32.8177 95.0013 30.0438 87.432 28.9339C86.8538 28.8531 86.2647 28.9504 85.7431 29.2129C85.2216 29.4753 84.7923 29.8903 84.5126 30.4027C83.913 31.7137 83.0932 32.9123 82.0889 33.9464Z" fill="#20B720" stroke="black" stroke-width="0.75" stroke-miterlimit="10"/>
<path d="M35.4522 115.379C37.0267 115.892 38.7007 116.024 40.3362 115.764C41.2505 115.492 42.2339 115.573 43.0904 115.994C44.2747 116.82 43.9442 118.748 43.8432 120.006C43.739 120.921 43.739 121.845 43.8432 122.76C43.9242 123.343 44.1521 123.895 44.5054 124.366C44.8587 124.836 45.3258 125.209 45.8629 125.45C47.3602 126.08 48.8929 126.623 50.4532 127.075C51.968 127.662 53.4002 128.461 54.9333 129.012C58.0455 130.141 61.3597 129.471 64.6463 129.498C66.2315 129.531 67.8081 129.74 69.3468 130.123C71.1068 130.378 72.8486 130.745 74.5613 131.224C76.0945 131.784 77.4624 132.739 79.0782 133.06C80.6656 133.379 82.2958 133.422 83.898 133.189C85.423 132.944 86.9162 132.532 88.3505 131.959C89.5716 131.5 90.7558 130.94 92.0228 130.591C93.2897 130.242 94.6484 129.967 95.9337 129.572C97.164 129.311 98.2908 128.695 99.1744 127.8C97.9504 127.595 96.6963 127.664 95.5022 128.002C94.404 128.249 93.2908 128.424 92.1697 128.525C89.6358 128.672 86.9184 128.911 84.5498 127.91C82.4107 126.992 81.2173 125.156 80.3267 123.081C79.831 121.934 79.4087 120.749 78.8119 119.657C78.0474 118.467 77.158 117.362 76.1588 116.361C74.5307 114.37 73.2856 112.095 72.4865 109.65C72.1463 108.402 71.6914 107.188 71.1278 106.024C70.7771 105.385 70.2693 104.847 69.6524 104.46C69.0354 104.073 68.3299 103.849 67.6025 103.811C64.7657 103.618 62.2594 105.372 60.5335 107.538C59.1931 109.219 58.2383 111.165 56.8612 112.817C56.2663 113.619 55.4948 114.273 54.6064 114.728C53.718 115.183 52.7367 115.428 51.7385 115.443C50.5175 115.46 49.3078 115.206 48.1966 114.7C47.0854 114.193 46.1003 113.447 45.3121 112.514C45.2957 112.473 45.2957 112.427 45.3121 112.386C44.798 111.468 43.9993 110.118 44.4675 109.081C44.8439 108.245 45.9823 108.007 46.7626 107.786C48.4619 107.434 50.0633 106.713 51.4539 105.675C52.9092 104.375 54.1134 102.819 55.0068 101.085C56.6586 98.0786 57.7476 94.7963 58.22 91.3991C58.5028 89.6134 58.1171 87.7861 57.1367 86.2671C56.696 85.5419 56.2186 84.8441 55.7779 84.1097C55.3373 83.3753 54.97 82.5031 54.511 81.7227C53.5874 80.134 52.125 78.9289 50.3889 78.3259C49.353 77.9324 48.2793 77.6463 47.1849 77.4722C46.4995 77.417 45.81 77.4355 45.1285 77.5272C44.2437 77.5951 43.3551 77.4601 42.5304 77.1325C41.8499 76.8047 41.1093 76.6203 40.3546 76.5908C39.0785 76.6551 38.1972 77.7384 37.6004 78.7574C36.0948 81.2362 35.4981 84.1189 34.0935 86.6435C33.3131 88.0573 31.3393 90.5636 29.4297 89.7282C27.7405 88.9662 27.1989 86.3589 26.6756 84.7615C26.4265 83.5839 25.9861 82.455 25.3719 81.4198C24.9221 80.7955 24.1326 80.1621 23.3247 80.5844C23.1128 80.7056 22.9366 80.8807 22.8141 81.0919C22.6916 81.3031 22.627 81.5429 22.6269 81.787C22.3666 92.2684 25.1746 102.598 30.7058 111.504C31.7962 113.291 33.4644 114.652 35.4338 115.36L35.4522 115.379Z" fill="#20B720" stroke="black" stroke-width="0.75" stroke-miterlimit="10"/>
<path d="M43.6957 67.7036C42.6258 67.8983 41.6328 68.3916 40.8314 69.1266C39.8253 70.0366 38.6533 70.7441 37.3795 71.2106C36.4614 71.4768 35.5434 71.5778 34.6253 71.844C33.5516 72.0516 32.5803 72.6182 31.8711 73.4506C31.0724 74.7359 32.6607 75.5989 33.7073 75.9386C34.2796 76.1556 34.8932 76.2419 35.5032 76.1911C36.1132 76.1402 36.7041 75.9536 37.2326 75.6448C38.1226 75.0421 39.0734 74.5344 40.0694 74.13C40.0793 74.1063 40.0946 74.0852 40.1141 74.0684C40.1337 74.0516 40.1568 74.0396 40.1818 74.0334C40.2068 74.0271 40.2328 74.0268 40.2579 74.0324C40.2831 74.038 40.3065 74.0495 40.3264 74.0657H40.4917C40.5282 74.0511 40.569 74.0516 40.6052 74.0671C40.6413 74.0826 40.6699 74.1118 40.6845 74.1484C40.6991 74.1849 40.6986 74.2257 40.6831 74.2619C40.6676 74.298 40.6384 74.3265 40.6019 74.3412C42.5206 75.7825 45.082 74.231 47.2578 74.6717C49.2958 75.0756 51.2146 75.9478 53.2802 76.2874C54.9235 76.5537 57.3931 76.6547 57.9531 74.6441C58.3662 73.166 57.1269 71.8899 56.016 71.1647C52.9053 69.1756 49.351 67.9866 45.6695 67.7036C45.0132 67.6392 44.3521 67.6392 43.6957 67.7036Z" fill="#20B720" stroke="black" stroke-width="0.75" stroke-miterlimit="10"/>
<path d="M136.989 29.9807C138.498 27.0955 138.814 23.7334 137.871 20.6173C136.927 17.5011 134.798 14.8796 131.942 13.3163C129.086 11.753 125.731 11.3727 122.597 12.2571C119.464 13.1415 116.802 15.2201 115.185 18.046C114.751 17.9535 114.307 17.9165 113.863 17.9358C113.393 17.9675 112.93 18.0632 112.486 18.2204C111.637 15.8235 110.17 13.6932 108.234 12.0447C106.297 10.3961 103.961 9.28771 101.459 8.83134C98.9573 8.37498 96.3795 8.58685 93.986 9.44554C91.5925 10.3042 89.4679 11.7794 87.8269 13.7219C86.2402 11.3437 83.8234 9.64283 81.0492 8.95183C78.275 8.26082 75.3428 8.62938 72.8259 9.98543C71.5867 7.37595 69.6531 5.15796 67.237 3.57452C64.8208 1.99107 62.0155 1.1033 59.1282 1.00848C56.241 0.913663 53.3834 1.61546 50.8686 3.03697C48.3538 4.45847 46.2788 6.54482 44.8711 9.06737C43.7309 6.61564 41.7735 4.63684 39.3343 3.47016C36.895 2.30348 34.1259 2.02157 31.5017 2.67276C28.8774 3.32395 26.5613 4.86768 24.9504 7.03935C23.3396 9.21101 22.5343 11.8754 22.6725 14.5757C22.7476 15.8373 23.0298 17.078 23.508 18.2479C23.2968 18.2479 23.0948 18.2479 22.8837 18.2479C21.3732 18.3282 19.9172 18.8392 18.6878 19.7205C17.4585 20.6019 16.5071 21.8167 15.9462 23.2215C15.3852 24.6263 15.2381 26.1623 15.5223 27.648C15.8065 29.1337 16.51 30.507 17.5498 31.6056C16.2783 32.0994 15.1235 32.8525 14.159 33.817C13.1946 34.7816 12.4416 35.9364 11.948 37.208C11.4544 38.4796 11.231 39.84 11.2921 41.2026C11.3532 42.5653 11.6974 43.9003 12.3028 45.1226C12.9082 46.3449 13.7615 47.4277 14.8084 48.3021C15.8553 49.1765 17.0728 49.8233 18.3834 50.2013C19.694 50.5792 21.0689 50.6801 22.4207 50.4975C23.7724 50.3149 25.0713 49.8527 26.2346 49.1405C25.9022 51.7405 26.5386 54.372 28.0226 56.5327C29.5065 58.6934 31.734 60.2322 34.2801 60.8553C36.8261 61.4785 39.5125 61.1425 41.8266 59.9114C44.1407 58.6803 45.9206 56.6403 46.8266 54.1806C47.4517 54.3957 48.1129 54.4861 48.7728 54.4469C49.5304 54.4043 50.2701 54.1995 50.9416 53.8463C51.6132 53.4931 52.2011 52.9997 52.6654 52.3996C54.4629 53.5427 56.4754 54.3056 58.5789 54.6416C60.6824 54.9775 62.8324 54.8793 64.8965 54.3529C66.9606 53.8266 68.8952 52.8833 70.5809 51.5811C72.2667 50.2789 73.6681 48.6453 74.6987 46.7811C76.7415 49.9219 79.9237 52.1471 83.5748 52.988C87.2259 53.8288 91.0609 53.2197 94.2717 51.2888C96.1921 53.8472 99.0323 55.5584 102.192 56.0604C105.351 56.5624 108.582 55.8158 111.201 53.9787C111.776 54.5975 112.481 55.0827 113.264 55.3999C114.048 55.7171 114.892 55.8587 115.736 55.8148C116.279 55.7824 116.815 55.6679 117.324 55.4751C118.447 57.6767 120.349 59.3814 122.66 60.2568C124.971 61.1321 127.525 61.1154 129.825 60.2098C132.124 59.3042 134.004 57.5748 135.098 55.3586C136.191 53.1424 136.42 50.5983 135.74 48.2224C137.813 47.851 139.703 46.7987 141.111 45.2322C142.519 43.6656 143.364 41.6742 143.513 39.5733C143.661 37.4723 143.105 35.3819 141.931 33.6328C140.758 31.8837 139.035 30.5759 137.035 29.9164L136.989 29.9807Z" fill="#F97B71" stroke="black" stroke-width="0.75" stroke-linecap="round" stroke-linejoin="round"/>
<path d="M63.728 33.8733L64.2238 34.0386C64.7051 34.227 65.1411 34.5149 65.5035 34.8835C65.8659 35.2521 66.1463 35.693 66.3266 36.1774C66.5068 36.6618 66.5828 37.1788 66.5495 37.6946C66.5162 38.2103 66.3744 38.7133 66.1334 39.1705C65.9163 39.5691 65.6773 39.9553 65.4173 40.3272C64.4842 41.6728 63.2192 42.7543 61.7451 43.467C59.9901 44.2319 58.0856 44.5927 56.1725 44.5228C53.864 44.6089 51.5661 44.1694 49.4523 43.2375C47.5326 42.185 45.9673 40.5878 44.9538 38.6472C43.6249 36.0959 42.9886 33.2405 43.1085 30.3663C43.1085 25.8801 44.2041 22.4129 46.3952 19.9648C48.5863 17.5166 51.7229 16.3079 55.8052 16.3385C58.9817 16.3385 61.4788 17.027 63.2966 18.4224C63.8947 18.8703 64.4372 19.3881 64.9123 19.9648C66.5557 21.9937 65.6101 25.1977 63.1772 25.7852L62.7641 25.8771C62.1447 26.0252 61.495 25.9825 60.9003 25.7548C60.3056 25.5271 59.7936 25.1249 59.4315 24.601C59.079 24.0361 58.6318 23.5361 58.1095 23.1229C57.4629 22.7686 56.7353 22.5883 55.998 22.5996C55.1756 22.5759 54.3624 22.7782 53.647 23.1845C52.9315 23.5907 52.3412 24.1855 51.9402 24.9039C51.2241 26.0423 50.8753 27.8325 50.8753 30.2745C50.8753 33.2919 51.2976 35.3636 52.1422 36.4898C52.5576 37.0396 53.1007 37.4799 53.7246 37.7727C54.3484 38.0654 55.0342 38.2017 55.7226 38.1698C56.3517 38.2124 56.9823 38.1123 57.5673 37.877C58.1523 37.6418 58.6766 37.2774 59.101 36.8111C59.402 36.4486 59.6578 36.0509 59.863 35.6268C60.1871 34.9173 60.757 34.3489 61.4673 34.0266C62.1777 33.7043 62.9807 33.6499 63.728 33.8733Z" fill="#934744" stroke="black" stroke-width="0.5" stroke-linecap="round" stroke-linejoin="round"/>
<path d="M66.6749 30.4489C66.6749 25.9933 67.8225 22.5291 70.1176 20.0565C72.4128 17.5839 75.6045 16.3445 79.6929 16.3384C83.8915 16.3384 87.1231 17.5625 89.3876 20.0106C91.6522 22.4587 92.7875 25.8709 92.7936 30.2469C92.8912 32.9387 92.383 35.6181 91.3064 38.0871C90.3743 40.0612 88.8795 41.7157 87.0099 42.8426C84.8761 44.0435 82.4519 44.6313 80.0051 44.541C77.5675 44.6309 75.1447 44.1268 72.9452 43.0722C71.0012 42.0144 69.4209 40.3956 68.41 38.4268C67.1713 35.9553 66.5746 33.2117 66.6749 30.4489ZM74.4692 30.4489C74.4692 33.2031 74.9405 35.1799 75.883 36.3795C76.3605 36.9409 76.9542 37.3918 77.6232 37.701C78.2921 38.0102 79.0203 38.1704 79.7572 38.1704C80.4942 38.1704 81.2223 38.0102 81.8913 37.701C82.5602 37.3918 83.1539 36.9409 83.6314 36.3795C84.5495 35.2044 85.0085 33.0929 85.0085 30.0449C85.0085 27.4744 84.528 25.5985 83.5671 24.4173C83.0952 23.8508 82.4976 23.4023 81.8219 23.1074C81.1461 22.8126 80.4108 22.6795 79.6746 22.7189C78.9435 22.7015 78.2187 22.859 77.5608 23.1784C76.9029 23.4978 76.3308 23.9697 75.8922 24.555C74.9497 25.7362 74.4753 27.7131 74.4692 30.4856V30.4489Z" fill="#934744" stroke="black" stroke-width="0.5" stroke-linecap="round" stroke-linejoin="round"/>
<path d="M104.912 48.3694H97.1358C96.7038 48.3421 96.2861 48.2034 95.9236 47.9667C95.5611 47.73 95.2661 47.4035 95.0674 47.0189C94.8686 46.6343 94.7728 46.2047 94.7894 45.7721C94.806 45.3395 94.9344 44.9186 95.162 44.5503C96.3186 42.9113 97.7322 41.4698 99.3483 40.2814C100.247 39.6245 101.055 38.8529 101.754 37.9862C102.072 37.5572 102.255 37.0422 102.277 36.5082C102.282 36.0214 102.094 35.5525 101.754 35.2045C101.582 35.0282 101.378 34.8881 101.151 34.7924C100.925 34.6967 100.682 34.6474 100.436 34.6474C100.191 34.6474 99.9473 34.6967 99.721 34.7924C99.4948 34.8881 99.29 35.0282 99.1188 35.2045C98.9715 35.3631 98.8534 35.5465 98.77 35.7462C98.6147 36.1398 98.3398 36.4747 97.984 36.7037C97.6282 36.9326 97.2095 37.0441 96.787 37.0223H96.6034C96.2447 36.9756 95.9036 36.8391 95.6118 36.6255C95.3199 36.4118 95.0867 36.1279 94.9338 35.8002C94.7809 35.4724 94.7133 35.1113 94.7371 34.7504C94.7609 34.3895 94.8755 34.0405 95.0702 33.7356C95.5242 33.0062 96.1816 32.4255 96.9614 32.0648C98.0341 31.6236 99.1904 31.423 100.349 31.4772C101.544 31.4232 102.737 31.6138 103.856 32.0372C104.673 32.3866 105.362 32.9797 105.83 33.7356C106.311 34.5097 106.562 35.4042 106.555 36.3154C106.555 37.3404 106.269 38.3451 105.729 39.2164C104.938 40.3964 103.939 41.4229 102.782 42.246C101.919 42.8886 101.35 43.3385 101.056 43.5956C100.762 43.8526 100.422 44.1923 100.037 44.6054H104.958C105.429 44.629 105.872 44.8328 106.197 45.1746C106.522 45.5164 106.703 45.9701 106.702 46.4415C106.714 46.6864 106.677 46.9313 106.594 47.1618C106.51 47.3922 106.381 47.6035 106.214 47.7832C106.047 47.9629 105.846 48.1074 105.622 48.2081C105.398 48.3088 105.157 48.3636 104.912 48.3694Z" fill="#934744" stroke="black" stroke-width="0.5" stroke-linecap="round" stroke-linejoin="round"/>
<path d="M144.37 84.5959C144.15 80.8594 142.332 78.399 138.54 77.8849C137.977 77.8683 137.413 77.9176 136.86 78.0318C135.823 73.6986 133.381 71.5136 128.974 70.6874C124.568 69.8611 120.648 71.2566 118.876 75.5255C117.649 74.7423 116.268 74.232 114.827 74.0291C112.688 73.8638 110.861 75.1583 109.374 76.517C107.152 72.0369 104.187 70.3018 98.7336 70.9536C92.0226 71.7523 87.7996 76.8842 87.1661 83.8064C87.1661 83.8706 87.2212 84.0175 87.1661 83.9992C85.8074 83.4483 84.7608 82.769 83.1083 82.8332C77.1042 83.0719 73.634 86.5055 73.5146 92.684C73.3953 98.8625 76.9573 103.177 82.9522 103.857C86.0553 104.206 87.6619 103.269 89.8652 101.571C92.0961 106.436 95.8234 109.668 101.258 109.833C104.591 109.907 106.5 108.318 108.511 106.023C109.319 107.4 110.549 108.48 112.02 109.102C113.49 109.724 115.122 109.855 116.672 109.475C119.335 108.97 121.097 107.281 122.438 105.041C124.458 108.465 127.46 111.146 131.618 111.109C135.777 111.073 138.182 108.355 139.156 104.591C140.027 104.824 140.925 104.939 141.827 104.931C143.838 104.837 145.763 104.091 147.312 102.806C148.86 101.52 149.948 99.7655 150.411 97.8067C153 88.8741 146.335 85.4497 144.37 84.5959Z" fill="#F97B71" stroke="black" stroke-width="0.75" stroke-linecap="round" stroke-linejoin="round"/>
<path d="M104.802 92.0413H104.894C105.267 92.148 105.612 92.3386 105.901 92.5986C106.189 92.8586 106.415 93.181 106.56 93.5414C106.705 93.9018 106.766 94.2906 106.739 94.6782C106.711 95.0657 106.595 95.4418 106.399 95.7778C106.262 96.0073 106.115 96.2184 105.959 96.4296C105.236 97.3706 104.289 98.1156 103.205 98.5962C101.884 99.1269 100.468 99.377 99.0458 99.3306C97.329 99.3811 95.6208 99.0683 94.0332 98.4126C92.6306 97.7167 91.4624 96.6252 90.6732 95.2728C89.6698 93.5286 89.1797 91.5364 89.2594 89.5258C89.2594 86.4136 90.0948 84.0175 91.7473 82.3558C93.3998 80.6941 95.7408 79.8495 98.7704 79.8495C100.737 79.7411 102.689 80.2412 104.361 81.2817C104.692 81.532 104.999 81.8116 105.279 82.1171C105.599 82.4477 105.824 82.8572 105.933 83.3037C106.041 83.7502 106.029 84.2176 105.897 84.6578C105.765 85.098 105.519 85.4952 105.183 85.8086C104.847 86.122 104.433 86.3403 103.985 86.4411C103.511 86.5509 103.015 86.5228 102.556 86.3601C102.098 86.1974 101.695 85.907 101.396 85.5231C101.141 85.1697 100.831 84.8597 100.478 84.605C99.9872 84.3628 99.4462 84.2401 98.8989 84.247C98.2986 84.2201 97.7019 84.3529 97.1696 84.6319C96.6374 84.9109 96.1887 85.3262 95.8694 85.8352C95.2588 86.9582 94.9817 88.2323 95.0706 89.5074C95.0706 91.5914 95.392 93.0236 95.9887 93.7948C96.6565 94.4993 97.5723 94.9162 98.5422 94.9574C99.512 94.9985 100.46 94.6605 101.185 94.0151C101.42 93.7542 101.621 93.4642 101.782 93.1521C102.075 92.6419 102.538 92.251 103.09 92.0479C103.642 91.8448 104.248 91.8424 104.802 92.0413Z" fill="#934744" stroke="black" stroke-width="0.5" stroke-linecap="round" stroke-linejoin="round"/>
<path d="M111.182 80.2259C111.564 80.2247 111.942 80.2988 112.295 80.4441C112.648 80.5893 112.969 80.8028 113.24 81.0723C113.51 81.3418 113.725 81.6621 113.871 82.0146C114.017 82.3672 114.093 82.7452 114.093 83.1269V86.7992H120.446V83.1269C120.446 82.3527 120.753 81.6101 121.301 81.0626C121.848 80.5151 122.591 80.2075 123.365 80.2075C124.139 80.2075 124.882 80.5151 125.429 81.0626C125.977 81.6101 126.284 82.3527 126.284 83.1269V96.1633C126.282 96.9369 125.974 97.678 125.427 98.225C124.88 98.772 124.139 99.0803 123.365 99.0827C122.591 99.0827 121.848 98.7752 121.301 98.2277C120.753 97.6802 120.446 96.9376 120.446 96.1633V91.4721H114.093V96.1633C114.093 96.9352 113.786 97.6754 113.24 98.2212C112.694 98.7669 111.954 99.0736 111.182 99.0736C110.801 99.0724 110.424 98.9961 110.073 98.8492C109.721 98.7023 109.402 98.4876 109.134 98.2174C108.865 97.9471 108.653 97.6266 108.508 97.2742C108.363 96.9218 108.289 96.5443 108.291 96.1633V83.1269C108.289 82.7464 108.363 82.3694 108.508 82.0174C108.653 81.6655 108.866 81.3456 109.134 81.0761C109.403 80.8066 109.722 80.5928 110.074 80.4469C110.425 80.301 110.802 80.2259 111.182 80.2259Z" fill="#934744" stroke="black" stroke-width="0.5" stroke-linecap="round" stroke-linejoin="round"/>
<path d="M132.766 99.8358H129.24C128.779 99.8358 128.337 99.6533 128.01 99.3282C127.683 99.003 127.499 98.5617 127.496 98.1007C127.497 97.6875 127.643 97.2878 127.909 96.9715L132.252 91.812C132.413 91.6211 132.614 91.4679 132.841 91.3632C133.068 91.2585 133.315 91.2049 133.564 91.2061C134.02 91.2061 134.456 91.387 134.778 91.7089C135.1 92.0309 135.281 92.4675 135.281 92.9228V97.5957H136.64C136.937 97.5957 137.222 97.7137 137.432 97.9238C137.642 98.1338 137.76 98.4187 137.76 98.7158C137.76 99.0128 137.642 99.2977 137.432 99.5077C137.222 99.7178 136.937 99.8358 136.64 99.8358H135.281V101.672C135.285 101.842 135.254 102.011 135.191 102.168C135.128 102.326 135.033 102.469 134.913 102.589C134.793 102.709 134.65 102.804 134.492 102.867C134.335 102.93 134.166 102.961 133.996 102.957C133.83 102.957 133.666 102.924 133.512 102.861C133.359 102.797 133.22 102.703 133.103 102.586C132.986 102.468 132.894 102.328 132.831 102.174C132.769 102.021 132.737 101.856 132.738 101.69L132.766 99.8358ZM132.766 97.5957V94.3275L130.012 97.5957H132.766Z" fill="#934744" stroke="black" stroke-width="0.5" stroke-linecap="round" stroke-linejoin="round"/>
<path d="M63.7372 117.462C62.3411 117.466 60.975 117.867 59.7988 118.619C60.3454 116.864 60.3745 114.988 59.8825 113.216C59.3906 111.444 58.3984 109.852 57.0249 108.629C55.6514 107.407 53.9546 106.606 52.1378 106.323C50.321 106.04 48.4611 106.287 46.7807 107.033C45.9563 104.244 44.1538 101.845 41.7038 100.277C39.2538 98.7084 36.3205 98.0761 33.442 98.4956C30.5635 98.9151 27.9327 100.358 26.0322 102.561C24.1317 104.763 23.0888 107.576 23.0949 110.485C23.0949 110.843 23.0949 111.201 23.15 111.559C21.7299 111.097 20.2234 110.962 18.7437 111.165C17.264 111.369 15.8498 111.905 14.6073 112.734C13.3649 113.563 12.3265 114.663 11.5704 115.951C10.8144 117.239 10.3602 118.682 10.2421 120.171C8.9894 119.781 7.65327 119.744 6.38108 120.065C5.10889 120.386 3.95006 121.052 3.03239 121.99C2.11471 122.928 1.47383 124.101 1.18042 125.38C0.887007 126.658 0.95246 127.993 1.36956 129.237C1.78666 130.481 2.53921 131.586 3.54421 132.43C4.54922 133.273 5.76764 133.823 7.06513 134.018C8.36262 134.213 9.68877 134.046 10.8973 133.535C12.1059 133.024 13.15 132.19 13.9144 131.123C13.9643 133.692 14.9417 136.155 16.6662 138.059C18.3907 139.963 20.7458 141.179 23.2968 141.482C25.8477 141.786 28.4222 141.156 30.545 139.709C32.6678 138.262 34.1955 136.096 34.846 133.611C36.8142 134.792 39.1327 135.249 41.4018 134.904C43.671 134.559 45.7486 133.433 47.2765 131.72C47.935 132.789 48.87 133.662 49.9828 134.244C51.0957 134.826 52.3452 135.098 53.5993 135.029C54.8535 134.96 56.0659 134.554 57.1086 133.854C58.1513 133.154 58.9855 132.185 59.5233 131.05C60.482 131.711 61.5826 132.137 62.7364 132.294C63.8901 132.452 65.0647 132.336 66.1653 131.955C67.2659 131.575 68.2617 130.941 69.0722 130.105C69.8827 129.269 70.4853 128.254 70.8313 127.142C71.1773 126.03 71.257 124.853 71.064 123.704C70.871 122.556 70.4107 121.469 69.7202 120.532C69.0298 119.594 68.1285 118.832 67.0892 118.307C66.0499 117.781 64.9017 117.508 63.7372 117.508V117.462Z" fill="#F97B71" stroke="black" stroke-width="0.75" stroke-linecap="round" stroke-linejoin="round"/>
<path d="M19.8815 113.799C20.3303 113.799 20.7723 113.909 21.1691 114.118C21.5659 114.328 21.9055 114.631 22.1583 115.002L26.8128 121.869V115.938C26.8152 115.377 27.0394 114.839 27.4366 114.441C27.8338 114.044 28.3718 113.82 28.9335 113.818C29.496 113.818 30.0354 114.041 30.4331 114.439C30.8308 114.837 31.0542 115.376 31.0542 115.938V125.624C31.0542 126.354 30.7641 127.055 30.2476 127.571C29.7311 128.088 29.0305 128.378 28.3001 128.378H28.2542C27.8078 128.378 27.3681 128.269 26.9731 128.061C26.5781 127.853 26.2395 127.552 25.9866 127.185L21.3963 120.391V126.266C21.3963 126.827 21.1738 127.364 20.7778 127.76C20.3819 128.156 19.8448 128.378 19.2848 128.378C19.0067 128.379 18.7311 128.326 18.4739 128.22C18.2167 128.114 17.9828 127.959 17.7858 127.763C17.5887 127.567 17.4324 127.333 17.3257 127.077C17.219 126.82 17.1641 126.545 17.1641 126.266V116.544C17.1664 115.822 17.4526 115.129 17.9609 114.616C18.4693 114.102 19.159 113.809 19.8815 113.799Z" fill="#934744" stroke="black" stroke-width="0.5" stroke-linecap="round" stroke-linejoin="round"/>
<path d="M38.0044 130.305H34.1485C33.9433 130.307 33.7414 130.253 33.5639 130.15C33.3865 130.047 33.2399 129.898 33.1396 129.719C33.0393 129.54 32.9888 129.337 32.9935 129.132C32.9982 128.926 33.0578 128.726 33.1662 128.552C33.7493 127.791 34.4497 127.128 35.241 126.587C35.6827 126.292 36.0839 125.94 36.4345 125.541C36.5925 125.348 36.6857 125.11 36.7007 124.861C36.7015 124.749 36.6791 124.639 36.6348 124.536C36.5906 124.433 36.5255 124.341 36.4437 124.265C36.2675 124.099 36.0333 124.01 35.7919 124.017C35.6082 124.017 35.2502 124.338 35.0115 124.678C34.9126 124.827 34.775 124.947 34.6134 125.025C34.4517 125.103 34.272 125.135 34.0934 125.118H33.8548C33.6871 125.106 33.5253 125.052 33.3848 124.959C33.2444 124.867 33.13 124.74 33.0526 124.591C32.9753 124.442 32.9375 124.275 32.9429 124.107C32.9483 123.939 32.9968 123.775 33.0836 123.631C33.3095 123.291 33.6281 123.024 34.0016 122.86C34.5374 122.657 35.1093 122.566 35.6817 122.594C36.2703 122.57 36.8584 122.654 37.4168 122.842C37.8173 122.998 38.1601 123.274 38.3991 123.631C38.6378 123.98 38.7628 124.393 38.7572 124.815C38.7533 125.29 38.6096 125.753 38.344 126.147C37.9415 126.702 37.4367 127.176 36.8568 127.542C36.4345 127.836 36.1499 128.038 36.003 128.157C35.8561 128.277 35.6909 128.433 35.4981 128.625H37.9401C38.1743 128.625 38.3999 128.714 38.5705 128.875C38.7412 129.035 38.8441 129.255 38.8582 129.488C38.8348 129.703 38.7364 129.903 38.5802 130.053C38.424 130.202 38.2201 130.292 38.0044 130.305Z" fill="#934744" stroke="black" stroke-width="0.5" stroke-linecap="round" stroke-linejoin="round"/>
<path d="M40.6208 121.089C40.5215 120.077 40.6474 119.055 40.9892 118.098C41.3311 117.14 41.8806 116.27 42.5984 115.549C43.3161 114.829 44.1843 114.276 45.1407 113.931C46.0971 113.585 47.1181 113.456 48.1305 113.552C49.1474 113.485 50.1672 113.625 51.1292 113.96C52.0912 114.296 52.9759 114.822 53.7307 115.507C54.4179 116.242 54.9469 117.11 55.2849 118.057C55.6229 119.005 55.7625 120.012 55.6953 121.015C55.7514 122.46 55.4552 123.897 54.8323 125.202C54.2748 126.273 53.4122 127.155 52.3536 127.735C51.108 128.383 49.717 128.699 48.3141 128.654C46.914 128.704 45.5206 128.437 44.238 127.873C43.1382 127.326 42.227 126.463 41.6215 125.394C40.9031 124.077 40.5572 122.588 40.6208 121.089ZM45.1101 121.089C45.01 122.208 45.302 123.328 45.9364 124.256C46.2252 124.558 46.5722 124.798 46.9564 124.962C47.3406 125.126 47.754 125.211 48.1718 125.211C48.5896 125.211 49.0031 125.126 49.3873 124.962C49.7715 124.798 50.1185 124.558 50.4073 124.256C51.0358 123.244 51.3133 122.054 51.1968 120.868C51.2867 119.801 50.9938 118.737 50.3706 117.866C50.0863 117.557 49.7373 117.315 49.3485 117.156C48.9597 116.998 48.5407 116.927 48.1213 116.948C47.7118 116.929 47.3031 117.001 46.9251 117.16C46.547 117.319 46.2093 117.56 45.9364 117.866C45.2889 118.816 44.9964 119.963 45.1101 121.107V121.089Z" fill="#934744" stroke="black" stroke-width="0.5" stroke-linecap="round" stroke-linejoin="round"/>
</svg>
