<svg width="152" height="185" viewBox="0 0 152 185" fill="none" xmlns="http://www.w3.org/2000/svg">
<path d="M68.5566 31.1766C67.137 27.4631 66.0502 23.4923 65.8913 19.52C65.7005 14.7481 64.0274 8.78207 57.893 4.60781C54.4339 2.2706 50.8171 0.977928 47.2643 0.392282C38.5484 -1.04445 36.7162 15.3622 40.805 23.1924C44.4631 30.2054 52.5343 30.2615 58.3393 29.1901C61.5207 28.603 64.8396 29.6165 65.8239 32.6982C66.6341 35.2348 67.2611 38.2534 67.4899 41.0079C67.5769 42.0553 68.6192 42.7942 69.6129 42.4518C70.3293 42.205 70.7563 41.4708 70.6317 40.7235C70.0765 37.3943 69.7264 34.2366 68.5566 31.1766ZM49.1088 10.5399C47.1443 9.30962 47.3767 7.58363 49.3706 8.76567C49.7534 8.9926 50.1312 9.22882 50.5036 9.474C52.4356 10.746 51.0693 11.7676 49.1088 10.5399Z" fill="#71DB1D" stroke="#065B06" stroke-width="0.5" stroke-linecap="round" stroke-linejoin="round"/>
<path d="M69.1209 39.6938C69.0249 40.2508 69.3391 40.8005 69.8717 40.9895C70.6167 41.254 71.4047 40.7008 71.4703 39.9129C71.6496 37.7565 72.1526 35.3908 72.7978 33.4176C73.5594 31.0888 76.0642 30.3112 78.4721 30.7643C82.9811 31.6127 89.2817 31.6501 92.1183 26.247C95.2758 20.2077 93.876 7.55177 87.1505 8.65238C84.4122 9.10048 81.6237 10.0943 78.9557 11.8946C74.193 15.0697 72.918 19.6779 72.784 23.3693C72.6727 26.4387 71.8151 29.5031 70.7216 32.3732C69.8313 34.7099 69.5616 37.1351 69.1209 39.6938ZM85.5823 16.4808C84.1019 17.4239 83.0505 16.6681 84.5092 15.6917C84.7897 15.5039 85.0743 15.3227 85.3627 15.1483C86.8719 14.2359 87.0697 15.5333 85.5823 16.4808Z" fill="#065B06" stroke="#043304" stroke-width="0.5" stroke-miterlimit="10"/>
<path d="M112.971 97.4181C112.874 97.405 112.8 97.3224 112.8 97.2243C112.802 94.8415 112.173 92.5008 110.977 90.4401C109.781 88.3794 108.06 86.6721 105.99 85.492C103.92 84.3118 101.575 83.7008 99.1919 83.7211C95.4311 83.7531 91.1396 82.4247 88.5615 79.6865C87.1253 78.1612 85.4491 76.8597 83.5854 75.8401C79.6233 73.6724 75.0455 72.9055 70.5932 73.6634C66.1409 74.4213 62.0748 76.6597 59.053 80.0162C57.3701 81.8855 56.066 84.0407 55.1911 86.3621C54.2205 88.9371 51.0005 90.6605 48.2487 90.6789C46.254 90.6922 44.2975 91.2283 42.5746 92.2337C40.8517 93.2392 39.4226 94.6788 38.4297 96.409C37.4369 98.1392 36.9151 100.099 36.9164 102.094C36.9224 102.921 36.3 103.657 35.4798 103.764C32.4803 104.155 29.6819 105.545 27.5514 107.735C25.0553 110.3 23.6805 113.751 23.7293 117.33C23.7781 120.909 25.2465 124.322 27.8116 126.818C30.3767 129.314 33.8283 130.689 37.4071 130.64C38.043 130.653 38.679 130.62 39.31 130.541C39.4065 130.529 39.4925 130.604 39.4925 130.701C39.5094 132.815 40.1127 134.882 41.235 136.673C42.3573 138.465 43.9547 139.909 45.8493 140.846C47.7439 141.783 49.8614 142.176 51.9661 141.981C55.4188 141.662 59.411 142.135 62.2244 144.162C63.1039 144.796 64.0361 145.359 65.0129 145.845C67.8802 147.271 71.0476 147.989 74.2495 147.938C77.4514 147.888 80.5946 147.07 83.4155 145.555C84.5466 144.947 85.6126 144.234 86.6006 143.428C88.9069 141.545 92.5215 141.303 95.4418 141.882C97.3276 142.255 99.2818 142.061 101.058 141.325C102.833 140.589 104.351 139.343 105.419 137.745C106.488 136.146 107.058 134.267 107.059 132.345C107.059 132.167 107.222 132.034 107.397 132.065C108.423 132.25 109.464 132.343 110.507 132.345C114.982 132.377 119.3 130.698 122.577 127.65C125.855 124.603 127.844 120.418 128.137 115.952C128.43 111.487 127.005 107.078 124.154 103.628C121.34 100.223 117.345 98.0064 112.971 97.4181Z" fill="#71DB1D" stroke="#065B06" stroke-width="0.5" stroke-linecap="round" stroke-linejoin="round"/>
<path d="M146.78 123.555C146.78 123.552 146.778 123.548 146.775 123.547C145.066 122.784 143.126 122.723 141.373 123.376C139.617 124.03 138.189 125.348 137.396 127.045C124.503 154.352 100.705 177.512 72.5893 175.696C51.6618 174.348 32.1633 166.158 19.0975 150.271C17.9742 148.906 18.8773 146.896 20.6382 146.734C20.799 146.708 20.9492 146.637 21.0717 146.53C21.1943 146.422 21.2843 146.283 21.3316 146.127C21.3789 145.971 21.3815 145.805 21.3391 145.648C21.2968 145.491 21.2112 145.348 21.0921 145.237L8.40797 135.043C8.26326 134.931 8.08897 134.863 7.90632 134.848C7.72368 134.833 7.54057 134.871 7.37934 134.958C7.2181 135.045 7.08568 135.177 6.99824 135.339C6.9108 135.5 6.8721 135.683 6.88686 135.865L8.44478 152.07C8.45952 152.242 8.52578 152.406 8.63493 152.54C8.74408 152.673 8.89103 152.771 9.05661 152.82C9.22219 152.869 9.3987 152.867 9.5631 152.814C9.7275 152.761 9.87215 152.66 9.97816 152.524C11.3481 150.81 13.9793 150.887 15.3397 152.608C29.3245 170.303 51.1191 183.432 72.5893 184.492C105.808 186.099 129.852 171.587 150.166 133.436C150.625 132.572 150.901 131.623 150.978 130.647C151.055 129.672 150.931 128.691 150.614 127.765C150.296 126.839 149.792 125.989 149.133 125.266C148.475 124.544 147.676 123.965 146.786 123.564C146.783 123.562 146.78 123.559 146.78 123.555Z" fill="#71DB1D" stroke="#065B06" stroke-width="0.5" stroke-linecap="round" stroke-linejoin="round"/>
<path d="M5.19379 97.7326C5.19379 97.7513 5.2048 97.7683 5.22191 97.7758C6.92365 98.5298 8.85307 98.5896 10.5988 97.9415C12.3541 97.2899 13.7832 95.9747 14.5781 94.2795C27.4708 66.9607 51.318 43.8005 79.385 45.616C100.312 46.9643 119.81 55.1542 132.876 71.0401C134.002 72.4087 133.1 74.4226 131.336 74.5908C131.164 74.6056 131 74.6718 130.867 74.781C130.733 74.8901 130.635 75.0371 130.586 75.2027C130.537 75.3682 130.539 75.5447 130.592 75.7091C130.645 75.8735 130.746 76.0182 130.882 76.1242L143.566 86.3549C143.711 86.4674 143.885 86.5353 144.068 86.5505C144.251 86.5656 144.434 86.5272 144.595 86.4401C144.756 86.353 144.889 86.2209 144.976 86.0598C145.063 85.8987 145.102 85.7157 145.087 85.533L143.53 69.3282C143.515 69.1562 143.449 68.9926 143.339 68.8588C143.23 68.725 143.083 68.6272 142.918 68.5782C142.752 68.5291 142.576 68.5312 142.411 68.584C142.247 68.6369 142.102 68.7381 141.996 68.8744C140.626 70.5881 137.995 70.5111 136.636 68.7892C122.651 51.0757 100.856 37.8832 79.385 36.8696C46.1658 35.2258 22.1223 49.7377 1.80808 87.8883C1.35952 88.75 1.09121 89.694 1.01951 90.6628C0.947807 91.6315 1.07422 92.6048 1.39104 93.5231C1.70785 94.4414 2.20843 95.2855 2.86223 96.004C3.50917 96.7149 4.29271 97.288 5.16596 97.6893C5.18289 97.697 5.19379 97.7139 5.19379 97.7326Z" fill="#065B06" stroke="#043304" stroke-width="0.5" stroke-miterlimit="10"/>
<path d="M68.6639 118.25C68.9901 118.23 69.3171 118.276 69.6255 118.384C69.9339 118.492 70.2175 118.661 70.4598 118.88C70.7021 119.1 70.898 119.365 71.0362 119.662C71.1744 119.958 71.252 120.279 71.2645 120.605V122.408C71.334 123.463 71.1846 124.521 70.8257 125.515C70.4668 126.51 69.9062 127.419 69.1791 128.186C67.478 129.636 65.2749 130.359 63.0456 130.198C60.8172 130.351 58.6171 129.629 56.912 128.186C55.5259 126.849 55.256 124.886 54.8266 122.408C54.2133 118.802 54.3973 110.657 54.8266 106.314C55.0842 103.861 55.5259 101.886 56.912 100.536C58.6171 99.0935 60.8172 98.3718 63.0456 98.5245C65.2749 98.3639 67.478 99.0865 69.1791 100.536C69.9044 101.305 70.4638 102.214 70.8226 103.208C71.1813 104.202 71.3318 105.259 71.2645 106.314V107.026C71.2442 107.348 71.1605 107.663 71.018 107.953C70.8756 108.243 70.6773 108.502 70.4346 108.715C70.1918 108.928 69.9093 109.091 69.6033 109.195C69.2974 109.299 68.974 109.341 68.6516 109.319C68.0026 109.36 67.3642 109.141 66.8766 108.711C66.389 108.281 66.092 107.674 66.051 107.026V105.983C66.0537 105.413 65.8949 104.854 65.5929 104.37C65.2909 103.886 64.8582 103.498 64.3447 103.251C63.8313 103.003 63.2581 102.906 62.6917 102.97C62.1253 103.035 61.5887 103.258 61.1442 103.615C60.629 104.069 60.6044 104.842 60.3713 105.983C59.39 110.632 59.206 118.593 60.3713 122.703C60.678 123.782 60.629 124.604 61.1442 125.046C61.7544 125.476 62.4829 125.707 63.2296 125.707C63.5487 125.707 63.8644 125.665 64.169 125.583C64.9858 125.364 65.6914 124.762 65.9563 123.958C66.0897 123.554 66.1345 123.126 66.0878 122.703V120.581C66.1035 120.258 66.1827 119.942 66.3207 119.651C66.4587 119.359 66.653 119.097 66.8923 118.881C67.1316 118.664 67.4112 118.497 67.7152 118.389C68.0192 118.281 68.3416 118.233 68.6639 118.25Z" fill="white" stroke="#065B06" stroke-width="0.5" stroke-linecap="round" stroke-linejoin="round"/>
<path d="M73.9142 106.473C74.1596 103.639 74.6502 102.29 76.3676 100.597C78.085 98.9041 80.3054 98.6465 82.5012 98.6465C84.697 98.6465 86.9909 98.9041 88.696 100.597C90.4012 102.29 90.8673 103.651 91.039 106.473C91.3089 110.987 91.2108 117.746 90.9654 122.261C90.8182 125.07 90.3889 126.431 88.696 128.124C87.0032 129.817 84.7583 130.075 82.4889 130.087C80.2195 130.099 78.0114 129.842 76.3554 128.161C74.6993 126.48 74.1596 125.156 73.902 122.322C73.5319 117.045 73.536 111.749 73.9142 106.473ZM79.4809 121.254C79.5186 122.153 79.3912 123.089 79.6959 123.935C79.8493 124.361 80.1 124.746 80.428 125.057C80.7038 125.326 81.0373 125.527 81.4031 125.646C82.1224 125.88 82.9462 125.882 83.6634 125.642C84.0254 125.52 84.3542 125.316 84.6234 125.045C84.9401 124.728 85.1774 124.34 85.316 123.914C85.5913 123.067 85.4309 122.144 85.4492 121.254C85.5384 116.912 85.608 111.863 85.471 107.521C85.4427 106.627 85.5841 105.699 85.2963 104.852C85.1513 104.426 84.9082 104.04 84.5866 103.725C84.3136 103.453 83.9803 103.249 83.6137 103.129C82.8881 102.893 82.0622 102.895 81.3379 103.135C80.9713 103.257 80.6385 103.463 80.3667 103.737C80.0402 104.05 79.7905 104.435 79.6373 104.86C79.3327 105.707 79.4644 106.642 79.4364 107.541C79.3014 111.882 79.2978 116.896 79.4809 121.254Z" fill="white" stroke="#065B06" stroke-width="0.5" stroke-linecap="round" stroke-linejoin="round"/>
<path d="M99.9814 121.489C100.047 120.933 99.8926 120.375 99.552 119.931C99.3231 119.693 99.0266 119.532 98.7029 119.469C98.3791 119.406 98.0438 119.444 97.7424 119.578C97.441 119.712 97.1881 119.935 97.018 120.218C96.848 120.5 96.769 120.829 96.7919 121.158V121.967C96.7845 122.118 96.7463 122.266 96.6796 122.401C96.6129 122.536 96.5192 122.656 96.4042 122.754C96.2893 122.852 96.1555 122.925 96.0112 122.969C95.8669 123.013 95.7151 123.027 95.5652 123.01H95.0009C94.851 123.027 94.6992 123.013 94.5549 122.969C94.4106 122.925 94.2768 122.852 94.1619 122.754C94.0469 122.656 93.9532 122.536 93.8866 122.401C93.8199 122.266 93.7816 122.118 93.7742 121.967V121.329C93.7342 120.743 93.8159 120.155 94.0144 119.602C94.4091 118.502 95.3737 117.685 96.48 117.308C97.0784 117.104 97.7098 116.999 98.3498 116.999C98.9899 116.999 99.6213 117.104 100.22 117.308C101.326 117.685 102.291 118.502 102.685 119.602C102.884 120.155 102.966 120.743 102.925 121.329C102.939 122.201 102.772 123.065 102.435 123.869C102.119 124.611 101.706 125.308 101.208 125.942C100.734 126.55 100.213 127.12 99.6501 127.647C99.0859 128.162 98.5829 128.653 98.1413 129.131C97.7355 129.549 97.3813 130.015 97.0863 130.517C96.6287 131.264 97.4585 131.965 98.3338 131.965H101.466C101.616 131.948 101.767 131.962 101.912 132.006C102.056 132.05 102.19 132.123 102.305 132.221C102.42 132.318 102.513 132.439 102.58 132.574C102.647 132.709 102.685 132.857 102.692 133.008V133.4C102.685 133.55 102.647 133.698 102.58 133.832C102.513 133.967 102.419 134.087 102.304 134.183C102.189 134.28 102.055 134.352 101.911 134.395C101.766 134.437 101.615 134.449 101.466 134.431H95.4425C95.2346 134.444 95.0262 134.416 94.8291 134.349C94.632 134.281 94.4501 134.175 94.294 134.037C94.1379 133.9 94.0105 133.732 93.9192 133.545C93.8279 133.358 93.7744 133.154 93.762 132.946V132.321C93.7455 131.557 93.8963 130.799 94.2036 130.1C94.4992 129.464 94.8788 128.87 95.3321 128.334C95.7882 127.802 96.2801 127.302 96.8042 126.837C97.3213 126.369 97.8089 125.869 98.264 125.341C98.7186 124.824 99.0985 124.246 99.3925 123.623C99.7489 122.966 99.9503 122.236 99.9814 121.489Z" fill="white" stroke="#065B06" stroke-width="0.5" stroke-linecap="round" stroke-linejoin="round"/>
</svg>
