<svg width="50" height="50" viewBox="0 0 50 50" fill="none" xmlns="http://www.w3.org/2000/svg">
<path d="M7.32559 42.6738C-2.44131 32.9057 -2.44242 17.0953 7.32559 7.32645C17.0939 -2.44271 32.9043 -2.44159 42.6735 7.32645C52.4426 17.0942 52.4418 32.9046 42.6735 42.6738C32.9054 52.4426 17.0947 52.4415 7.32559 42.6738ZM24.9997 1.72263C12.1646 1.72263 1.72184 12.1653 1.72184 25.0001C1.72184 37.8349 12.1646 48.2776 24.9997 48.2776C37.8344 48.2776 48.2775 37.8349 48.2775 25.0001C48.2775 12.1653 37.8344 1.72263 24.9997 1.72263Z" fill="#CB6CE6"/>
<path d="M33.2499 17.6054C31.6718 17.2956 31.6772 15.0511 33.2499 14.7099C34.6841 14.4216 35.6098 16.1994 34.581 17.2C34.4952 17.2861 34.4005 17.3601 34.2963 17.4227C34.1924 17.4853 34.0823 17.5342 33.9663 17.5694C33.8501 17.6049 33.7313 17.6255 33.6104 17.6317C33.4891 17.6378 33.369 17.6289 33.2499 17.6054Z" fill="#CB6CE6"/>
<path d="M33.2463 39.8098H16.7524C16.6448 39.8095 16.5375 39.807 16.4305 39.8014C16.3232 39.7961 16.2162 39.788 16.1092 39.7774C16.0025 39.7667 15.896 39.7536 15.7899 39.7377C15.6837 39.7218 15.5778 39.7033 15.4725 39.6823C15.3674 39.6611 15.2626 39.6376 15.1584 39.6114C15.0545 39.5851 14.9508 39.5566 14.8483 39.5253C14.7454 39.494 14.6435 39.4602 14.5426 39.4241C14.4414 39.3878 14.3414 39.3492 14.2422 39.3078C14.143 39.2668 14.045 39.2232 13.948 39.1773C13.8508 39.1312 13.7549 39.0829 13.6602 39.0323C13.5658 38.9817 13.4722 38.9286 13.3803 38.8735C13.2881 38.8182 13.1975 38.7609 13.1081 38.7011C13.019 38.6416 12.9313 38.5795 12.8449 38.5155C12.7589 38.4515 12.6742 38.3856 12.5912 38.3174C12.5082 38.2495 12.4269 38.1793 12.3473 38.1072C12.268 38.0351 12.1903 37.961 12.1143 37.885C12.0383 37.8093 11.9642 37.7313 11.8922 37.6519C11.8201 37.5723 11.7499 37.491 11.6818 37.4079C11.6136 37.3252 11.5476 37.2405 11.4837 37.1542C11.4197 37.0681 11.3579 36.9803 11.2981 36.8912C11.2386 36.8018 11.1811 36.7112 11.1257 36.619C11.0707 36.527 11.0176 36.4337 10.967 36.3389C10.9162 36.2442 10.8681 36.1483 10.822 36.0514C10.7762 35.9544 10.7326 35.8563 10.6913 35.7571C10.6502 35.6579 10.6116 35.5578 10.5753 35.4569C10.539 35.3557 10.5052 35.2537 10.4739 35.1512C10.4429 35.0483 10.4141 34.9449 10.3878 34.8409C10.3616 34.7367 10.3381 34.6322 10.3171 34.5268C10.2959 34.4214 10.2775 34.3158 10.2615 34.2096C10.2459 34.1034 10.2325 33.9969 10.2219 33.8902C10.2112 33.7831 10.2031 33.6761 10.1978 33.569C10.1925 33.4617 10.1897 33.3544 10.1895 33.2471V16.7534C10.1897 16.6461 10.1925 16.5387 10.1978 16.4314C10.2031 16.3241 10.2112 16.2171 10.2219 16.1103C10.2325 16.0035 10.2459 15.8971 10.2615 15.7909C10.2775 15.6847 10.2959 15.5787 10.3171 15.4737C10.3381 15.3683 10.3616 15.2635 10.3878 15.1595C10.4141 15.0553 10.4429 14.9519 10.4739 14.8493C10.5052 14.7464 10.539 14.6447 10.5753 14.5435C10.6116 14.4424 10.6502 14.3423 10.6913 14.2431C10.7326 14.1442 10.7762 14.0461 10.822 13.9488C10.8681 13.8518 10.9162 13.756 10.967 13.6612C11.0176 13.5668 11.0707 13.4734 11.1257 13.3812C11.1811 13.2892 11.2386 13.1984 11.2981 13.1093C11.3579 13.0201 11.4197 12.9324 11.4837 12.846C11.5476 12.7599 11.6136 12.6752 11.6818 12.5922C11.7499 12.5092 11.8201 12.4279 11.8922 12.3485C11.9642 12.2689 12.0383 12.1912 12.1143 12.1152C12.1903 12.0394 12.268 11.9654 12.3473 11.8933C12.4269 11.8212 12.5082 11.751 12.5912 11.6828C12.6742 11.6149 12.7589 11.5487 12.8449 11.4847C12.9313 11.4207 13.019 11.3589 13.1081 11.2994C13.1975 11.2396 13.2881 11.182 13.3803 11.1269C13.4722 11.0716 13.5658 11.0188 13.6602 10.9679C13.7549 10.9173 13.8508 10.869 13.948 10.8231C14.045 10.777 14.143 10.7337 14.2422 10.6923C14.3414 10.6513 14.4414 10.6127 14.5426 10.5764C14.6435 10.54 14.7454 10.5065 14.8483 10.4752C14.9508 10.4439 15.0545 10.4151 15.1584 10.3888C15.2626 10.3628 15.3674 10.3391 15.4725 10.3181C15.5778 10.2972 15.6837 10.2787 15.7899 10.2628C15.896 10.2468 16.0025 10.2337 16.1092 10.2231C16.2162 10.2122 16.3232 10.2044 16.4305 10.1988C16.5375 10.1935 16.6448 10.1907 16.7524 10.1907H33.2463C33.3536 10.1907 33.4609 10.1935 33.5681 10.1988C33.6754 10.2044 33.7825 10.2122 33.8892 10.2231C33.9962 10.2337 34.1027 10.2468 34.2088 10.2628C34.315 10.2787 34.4206 10.2972 34.526 10.3181C34.6313 10.3391 34.7361 10.3628 34.8403 10.3888C34.9442 10.4151 35.0476 10.4439 35.1504 10.4752C35.2532 10.5065 35.3549 10.54 35.4561 10.5764C35.5572 10.6127 35.6573 10.6513 35.7565 10.6923C35.8556 10.7337 35.9537 10.777 36.0507 10.8231C36.1479 10.869 36.2437 10.9173 36.3382 10.9679C36.4329 11.0188 36.5262 11.0716 36.6184 11.1269C36.7103 11.182 36.8012 11.2396 36.8903 11.2994C36.9797 11.3589 37.0674 11.4207 37.1535 11.4847C37.2398 11.5487 37.3245 11.6149 37.4075 11.6828C37.4904 11.751 37.5718 11.8212 37.6511 11.8933C37.7307 11.9654 37.8084 12.0394 37.8844 12.1152C37.9604 12.1912 38.0344 12.2689 38.1065 12.3485C38.1786 12.4279 38.2488 12.5092 38.3169 12.5922C38.3848 12.6752 38.451 12.7599 38.515 12.846C38.579 12.9324 38.6408 13.0201 38.7006 13.1093C38.7601 13.1984 38.8176 13.2892 38.8729 13.3812C38.928 13.4734 38.9811 13.5668 39.0316 13.6612C39.0822 13.756 39.1306 13.8518 39.1767 13.9488C39.2225 14.0461 39.2661 14.1442 39.3071 14.2431C39.3485 14.3423 39.387 14.4424 39.4234 14.5435C39.4597 14.6447 39.4932 14.7464 39.5245 14.8493C39.5558 14.9519 39.5846 15.0553 39.6109 15.1595C39.6368 15.2635 39.6606 15.3683 39.6815 15.4737C39.7025 15.5787 39.7212 15.6847 39.7369 15.7909C39.7528 15.8971 39.7662 16.0035 39.7768 16.1103C39.7874 16.2171 39.7953 16.3241 39.8008 16.4314C39.8062 16.5387 39.809 16.6461 39.8092 16.7534V33.2471C39.809 33.3544 39.8062 33.4617 39.8008 33.569C39.7955 33.6761 39.7874 33.7831 39.7768 33.8902C39.7662 33.9969 39.7528 34.1034 39.7369 34.2096C39.7212 34.3158 39.7025 34.4214 39.6815 34.5268C39.6606 34.6322 39.6368 34.7367 39.6109 34.8409C39.5846 34.9449 39.5558 35.0483 39.5245 35.1512C39.4932 35.2537 39.4597 35.3557 39.4234 35.4569C39.387 35.5578 39.3485 35.6579 39.3071 35.7571C39.2661 35.8563 39.2225 35.9544 39.1767 36.0514C39.1306 36.1483 39.0822 36.2442 39.0316 36.3389C38.9811 36.4337 38.928 36.527 38.8729 36.619C38.8176 36.7112 38.7601 36.8018 38.7006 36.8912C38.6408 36.9803 38.579 37.0681 38.515 37.1542C38.451 37.2405 38.3848 37.3252 38.3169 37.4079C38.2488 37.491 38.1786 37.5723 38.1065 37.6519C38.0344 37.7313 37.9604 37.8093 37.8844 37.885C37.8084 37.961 37.7307 38.0351 37.6511 38.1072C37.5718 38.1793 37.4904 38.2495 37.4075 38.3174C37.3245 38.3856 37.2398 38.4515 37.1535 38.5155C37.0674 38.5795 36.9797 38.6416 36.8903 38.7011C36.8012 38.7609 36.7103 38.8182 36.6184 38.8735C36.5262 38.9286 36.4329 38.9817 36.3382 39.0323C36.2437 39.0829 36.1479 39.1312 36.0507 39.1773C35.9537 39.2232 35.8556 39.2668 35.7565 39.3078C35.6573 39.3492 35.5572 39.3878 35.4561 39.4241C35.3549 39.4602 35.2532 39.494 35.1504 39.5253C35.0476 39.5566 34.9442 39.5851 34.8403 39.6114C34.7361 39.6376 34.6313 39.6611 34.526 39.6823C34.4206 39.7033 34.315 39.7218 34.2088 39.7377C34.1027 39.7536 33.9962 39.7667 33.8892 39.7774C33.7825 39.788 33.6754 39.7961 33.5681 39.8014C33.4609 39.807 33.3536 39.8095 33.2463 39.8098ZM16.7524 11.907C16.6731 11.907 16.5937 11.9089 16.5146 11.9131C16.4353 11.917 16.3565 11.9229 16.2774 11.9307C16.1986 11.9385 16.1198 11.9483 16.0416 11.9601C15.9631 11.9718 15.8849 11.9855 15.8072 12.0009C15.7295 12.0165 15.6521 12.0338 15.5753 12.0531C15.4984 12.0724 15.4219 12.0936 15.3462 12.1168C15.2702 12.1398 15.195 12.1646 15.1204 12.1915C15.0458 12.2183 14.9718 12.2468 14.8986 12.2773C14.8253 12.3077 14.7527 12.3399 14.6812 12.3737C14.6094 12.4078 14.5387 12.4433 14.4688 12.4807C14.399 12.5182 14.33 12.5573 14.2618 12.5981C14.1939 12.6389 14.1268 12.6814 14.0609 12.7253C13.9952 12.7694 13.9304 12.815 13.8667 12.8622C13.803 12.9094 13.7404 12.9583 13.6792 13.0087C13.618 13.059 13.558 13.1107 13.499 13.164C13.4403 13.2171 13.3831 13.2719 13.3269 13.3278C13.2707 13.384 13.2163 13.4416 13.1629 13.5003C13.1098 13.5589 13.0578 13.619 13.0075 13.6802C12.9572 13.7414 12.9086 13.804 12.8611 13.8678C12.8139 13.9312 12.7684 13.9961 12.7242 14.062C12.6801 14.128 12.6379 14.195 12.5971 14.263C12.5563 14.3309 12.5172 14.3999 12.4797 14.4698C12.4423 14.5396 12.4065 14.6106 12.3727 14.6822C12.3386 14.7537 12.3065 14.8264 12.2761 14.8996C12.2459 14.9728 12.2171 15.0466 12.1906 15.1212C12.1637 15.1959 12.1389 15.2713 12.1157 15.347C12.0928 15.4231 12.0715 15.4994 12.0522 15.5762C12.0327 15.6531 12.0154 15.7305 11.9997 15.8082C11.9844 15.8859 11.9707 15.9641 11.9589 16.0424C11.9472 16.1209 11.9374 16.1995 11.9296 16.2786C11.9218 16.3574 11.9159 16.4365 11.912 16.5155C11.9081 16.5949 11.9058 16.674 11.9058 16.7534V33.2471C11.9058 33.3264 11.9081 33.4055 11.912 33.4846C11.9159 33.564 11.9218 33.6431 11.9296 33.7219C11.9374 33.8007 11.9472 33.8795 11.9589 33.9578C11.9707 34.0363 11.9844 34.1143 11.9997 34.1923C12.0154 34.27 12.0327 34.3471 12.0522 34.4242C12.0715 34.5011 12.0928 34.5774 12.1157 34.6534C12.1389 34.7292 12.1637 34.8043 12.1906 34.879C12.2171 34.9536 12.2459 35.0276 12.2761 35.1009C12.3065 35.1741 12.3386 35.2465 12.3727 35.3183C12.4065 35.3898 12.4423 35.4605 12.4797 35.5307C12.5172 35.6006 12.5563 35.6693 12.5971 35.7375C12.6379 35.8054 12.6801 35.8725 12.7242 35.9382C12.7684 36.0041 12.8139 36.069 12.8611 36.1327C12.9086 36.1964 12.9572 36.2587 13.0075 36.3202C13.0578 36.3814 13.1098 36.4415 13.1629 36.5002C13.2163 36.5589 13.2707 36.6165 13.3269 36.6724C13.3831 36.7285 13.4403 36.783 13.499 36.8364C13.558 36.8895 13.618 36.9415 13.6792 36.9918C13.7404 37.0421 13.803 37.0907 13.8667 37.138C13.9304 37.1852 13.9952 37.231 14.0609 37.2749C14.1268 37.3191 14.1939 37.3616 14.2618 37.4024C14.33 37.4432 14.399 37.4823 14.4688 37.5197C14.5387 37.5569 14.6094 37.5927 14.6812 37.6265C14.7527 37.6606 14.8253 37.6927 14.8986 37.7232C14.9718 37.7534 15.0458 37.7822 15.1204 37.8087C15.195 37.8356 15.2702 37.8604 15.3462 37.8836C15.4219 37.9065 15.4984 37.9278 15.5753 37.9471C15.6521 37.9663 15.7295 37.984 15.8072 37.9993C15.8849 38.015 15.9631 38.0287 16.0416 38.0404C16.1198 38.0519 16.1986 38.0616 16.2774 38.0698C16.3565 38.0776 16.4353 38.0834 16.5146 38.0874C16.5937 38.0913 16.6731 38.0932 16.7524 38.0935H33.2463C33.3256 38.0932 33.4047 38.0913 33.484 38.0874C33.5631 38.0834 33.6422 38.0776 33.7213 38.0698C33.8001 38.0616 33.8788 38.0519 33.9571 38.0404C34.0356 38.0287 34.1136 38.015 34.1915 37.9993C34.2692 37.984 34.3466 37.9663 34.4234 37.9471C34.5002 37.9278 34.5768 37.9065 34.6525 37.8836C34.7285 37.8604 34.8037 37.8356 34.8783 37.8087C34.9529 37.7822 35.0269 37.7534 35.1001 37.7232C35.1733 37.6927 35.2457 37.6606 35.3175 37.6265C35.389 37.5927 35.46 37.5569 35.5299 37.5197C35.5997 37.4823 35.6687 37.4432 35.7366 37.4024C35.8048 37.3616 35.8716 37.3191 35.9375 37.2749C36.0034 37.231 36.0683 37.1852 36.132 37.138C36.1957 37.0907 36.2583 37.0421 36.3195 36.9918C36.3806 36.9415 36.4407 36.8895 36.4994 36.8364C36.5583 36.783 36.6156 36.7285 36.6718 36.6724C36.7277 36.6165 36.7824 36.5589 36.8358 36.5002C36.8889 36.4415 36.9409 36.3814 36.9911 36.3202C37.0414 36.2587 37.0901 36.1964 37.1373 36.1327C37.1845 36.069 37.2303 36.0041 37.2745 35.9382C37.3183 35.8725 37.3608 35.8054 37.4016 35.7375C37.4424 35.6693 37.4815 35.6006 37.5189 35.5307C37.5564 35.4605 37.5919 35.3898 37.626 35.3183C37.6598 35.2465 37.6922 35.1741 37.7224 35.1009C37.7528 35.0276 37.7813 34.9536 37.8081 34.879C37.835 34.8043 37.8598 34.7292 37.883 34.6534C37.9059 34.5774 37.9272 34.5011 37.9464 34.4242C37.9657 34.3471 37.9833 34.27 37.9987 34.1923C38.0143 34.1143 38.028 34.0363 38.0395 33.9578C38.0512 33.8795 38.061 33.8007 38.0688 33.7219C38.0769 33.6431 38.0828 33.564 38.0867 33.4846C38.0906 33.4055 38.0926 33.3264 38.0928 33.2471V16.7534C38.0926 16.674 38.0906 16.5949 38.0867 16.5155C38.0828 16.4365 38.0769 16.3574 38.0688 16.2786C38.061 16.1995 38.0512 16.1209 38.0395 16.0424C38.028 15.9641 38.0143 15.8859 37.9987 15.8082C37.9833 15.7305 37.9657 15.6531 37.9464 15.5762C37.9272 15.4994 37.9059 15.4231 37.883 15.347C37.8598 15.2713 37.835 15.1959 37.8081 15.1212C37.7813 15.0466 37.7528 14.9728 37.7224 14.8996C37.6922 14.8264 37.6598 14.7537 37.626 14.6822C37.5919 14.6106 37.5564 14.5396 37.5189 14.4698C37.4815 14.3999 37.4424 14.3309 37.4016 14.263C37.3608 14.195 37.3183 14.128 37.2745 14.062C37.2303 13.9961 37.1845 13.9312 37.1373 13.8678C37.0901 13.804 37.0414 13.7414 36.9911 13.6802C36.9409 13.619 36.8889 13.5589 36.8358 13.5003C36.7824 13.4413 36.7277 13.384 36.6718 13.3278C36.6156 13.2719 36.5583 13.2171 36.4994 13.164C36.4407 13.1107 36.3806 13.059 36.3195 13.0087C36.2583 12.9583 36.1957 12.9094 36.132 12.8622C36.0683 12.815 36.0034 12.7694 35.9375 12.7253C35.8716 12.6811 35.8048 12.6389 35.7366 12.5981C35.6687 12.5573 35.5997 12.5182 35.5299 12.4807C35.46 12.4433 35.389 12.4078 35.3175 12.3737C35.2457 12.3399 35.1733 12.3077 35.1001 12.2773C35.0269 12.2468 34.9529 12.2183 34.8783 12.1915C34.8037 12.1646 34.7285 12.1398 34.6525 12.1168C34.5768 12.0936 34.5002 12.0724 34.4234 12.0531C34.3466 12.0338 34.2692 12.0165 34.1915 12.0009C34.1136 11.9855 34.0356 11.9718 33.9571 11.9601C33.8788 11.9483 33.8001 11.9385 33.7213 11.9307C33.6422 11.9229 33.5631 11.917 33.484 11.9131C33.4047 11.9089 33.3256 11.907 33.2463 11.907H16.7524Z" fill="#CB6CE6"/>
<path d="M25 32.921C24.8703 32.921 24.7407 32.9179 24.6113 32.9115C24.4817 32.905 24.3526 32.8955 24.2235 32.883C24.0944 32.8701 23.9659 32.8542 23.8376 32.8352C23.7094 32.8162 23.5817 32.7941 23.4546 32.7687C23.3274 32.7435 23.2012 32.715 23.0754 32.6837C22.9497 32.6521 22.8248 32.6175 22.7007 32.58C22.5767 32.5423 22.4535 32.5018 22.3314 32.4579C22.2095 32.4143 22.0886 32.3676 21.9687 32.3181C21.8491 32.2684 21.7306 32.2159 21.6133 32.1605C21.4962 32.1052 21.3803 32.0468 21.266 31.9858C21.1517 31.9246 21.0391 31.8606 20.9279 31.7941C20.8167 31.7273 20.7072 31.658 20.5993 31.5862C20.4915 31.5141 20.3856 31.4395 20.2814 31.3623C20.1774 31.2849 20.0752 31.2053 19.9749 31.1231C19.8748 31.0409 19.7768 30.9562 19.6806 30.8691C19.5845 30.7821 19.4907 30.6927 19.399 30.601C19.3074 30.5094 19.218 30.4155 19.1311 30.3196C19.0439 30.2235 18.9592 30.1254 18.8771 30.025C18.7947 29.925 18.715 29.8227 18.6379 29.7187C18.5605 29.6145 18.4859 29.5085 18.4141 29.4007C18.342 29.2931 18.2727 29.1835 18.2059 29.0723C18.1394 28.9611 18.0755 28.8484 18.0143 28.7341C17.9534 28.6198 17.895 28.5041 17.8396 28.3867C17.784 28.2696 17.7315 28.1511 17.6821 28.0315C17.6323 27.9116 17.5857 27.7906 17.5421 27.6687C17.4985 27.5466 17.4577 27.4236 17.4203 27.2996C17.3825 27.1755 17.3479 27.0505 17.3163 26.9248C17.285 26.799 17.2565 26.6727 17.2314 26.5455C17.206 26.4184 17.1839 26.2906 17.1649 26.1624C17.1459 26.0344 17.13 25.9055 17.1171 25.7767C17.1045 25.6476 17.095 25.5184 17.0886 25.3888C17.0822 25.2594 17.0791 25.13 17.0791 25.0003C17.0791 24.8706 17.0822 24.7409 17.0886 24.6115C17.095 24.4821 17.1045 24.3527 17.1171 24.2239C17.13 24.0948 17.1459 23.9662 17.1649 23.8379C17.1839 23.7097 17.206 23.5822 17.2314 23.455C17.2565 23.3279 17.285 23.2013 17.3163 23.0755C17.3479 22.95 17.3825 22.8251 17.4203 22.701C17.4577 22.5769 17.4985 22.454 17.5421 22.3318C17.5857 22.2097 17.6323 22.089 17.6821 21.9691C17.7315 21.8494 17.784 21.7309 17.8396 21.6136C17.895 21.4965 17.9534 21.3808 18.0143 21.2665C18.0755 21.1521 18.1394 21.0392 18.2059 20.9283C18.2727 20.8171 18.342 20.7075 18.4141 20.5996C18.4859 20.492 18.5605 20.3861 18.6379 20.2819C18.715 20.1776 18.7947 20.0756 18.8771 19.9753C18.9592 19.8752 19.0439 19.7771 19.1311 19.681C19.218 19.5848 19.3074 19.4912 19.399 19.3995C19.4907 19.3079 19.5845 19.2184 19.6806 19.1312C19.7768 19.0443 19.8748 18.9596 19.9749 18.8775C20.0752 18.795 20.1774 18.7154 20.2814 18.6382C20.3856 18.5611 20.4915 18.4865 20.5993 18.4144C20.7072 18.3423 20.8167 18.273 20.9279 18.2064C21.0391 18.1397 21.1517 18.0759 21.266 18.0147C21.3803 17.9535 21.4962 17.8954 21.6133 17.8401C21.7306 17.7844 21.8491 17.7319 21.9687 17.6824C22.0886 17.6327 22.2095 17.5863 22.3314 17.5424C22.4535 17.4988 22.5767 17.4583 22.7007 17.4206C22.8248 17.3828 22.9497 17.3484 23.0754 17.3169C23.2012 17.2853 23.3274 17.2571 23.4546 17.2316C23.5817 17.2065 23.7094 17.1841 23.8376 17.1651C23.9659 17.1461 24.0944 17.1305 24.2235 17.1176C24.3526 17.105 24.4817 17.0952 24.6113 17.0891C24.7407 17.0827 24.8703 17.0796 25 17.0796C25.1296 17.0796 25.2593 17.0827 25.3886 17.0891C25.518 17.0952 25.6474 17.105 25.7764 17.1176C25.9052 17.1305 26.034 17.1461 26.1623 17.1651C26.2903 17.1841 26.418 17.2065 26.5451 17.2316C26.6725 17.2571 26.7988 17.2853 26.9245 17.3169C27.0502 17.3484 27.1751 17.3828 27.2992 17.4206C27.4233 17.4583 27.5465 17.4988 27.6683 17.5424C27.7904 17.5863 27.9114 17.6327 28.0312 17.6824C28.1508 17.7319 28.2693 17.7844 28.3866 17.8401C28.5037 17.8954 28.6194 17.9535 28.7339 18.0147C28.8482 18.0759 28.9608 18.1397 29.072 18.2064C29.1832 18.273 29.2928 18.3423 29.4006 18.4144C29.5085 18.4865 29.6144 18.5611 29.7183 18.6382C29.8225 18.7154 29.9248 18.795 30.0248 18.8775C30.1251 18.9596 30.2232 19.0443 30.3193 19.1312C30.4154 19.2184 30.5093 19.3079 30.6009 19.3995C30.6926 19.4912 30.782 19.5848 30.8689 19.681C30.9561 19.7771 31.0407 19.8752 31.1229 19.9753C31.205 20.0756 31.2849 20.1776 31.362 20.2819C31.4391 20.3861 31.5137 20.492 31.5858 20.5996C31.6579 20.7075 31.7272 20.8171 31.794 20.9283C31.8605 21.0392 31.9245 21.1521 31.9854 21.2665C32.0466 21.3808 32.105 21.4965 32.1603 21.6136C32.2156 21.7309 32.2681 21.8494 32.3179 21.9691C32.3673 22.089 32.414 22.2097 32.4579 22.3318C32.5014 22.454 32.5422 22.5769 32.5797 22.701C32.6174 22.8251 32.652 22.95 32.6833 23.0755C32.7149 23.2013 32.7434 23.3279 32.7686 23.455C32.794 23.5822 32.8161 23.7097 32.8351 23.8379C32.8541 23.9662 32.87 24.0948 32.8826 24.2239C32.8954 24.3527 32.9049 24.4821 32.9113 24.6115C32.9178 24.7409 32.9208 24.8706 32.9208 25.0003C32.9206 25.1297 32.9172 25.2594 32.9108 25.3888C32.9044 25.5182 32.8946 25.6473 32.8817 25.7764C32.8689 25.9052 32.8529 26.0338 32.8339 26.1621C32.8147 26.2901 32.7923 26.4178 32.7669 26.545C32.7417 26.6718 32.7132 26.7982 32.6817 26.9239C32.6498 27.0497 32.6152 27.1743 32.5774 27.2984C32.5397 27.4225 32.4992 27.5455 32.4553 27.6673C32.4118 27.7895 32.3648 27.9102 32.3154 28.0298C32.2656 28.1494 32.2131 28.2679 32.1575 28.385C32.1022 28.5021 32.0438 28.6179 31.9826 28.7322C31.9214 28.8465 31.8577 28.9591 31.7909 29.0703C31.7244 29.1813 31.6548 29.2908 31.583 29.3984C31.511 29.5063 31.4364 29.6122 31.359 29.7162C31.2818 29.8202 31.2022 29.9225 31.1198 30.0225C31.0376 30.1226 30.953 30.2207 30.8661 30.3168C30.7789 30.4127 30.6898 30.5066 30.5981 30.5982C30.5065 30.6899 30.4126 30.7791 30.3165 30.8663C30.2207 30.9532 30.1226 31.0379 30.0223 31.12C29.9223 31.2022 29.82 31.2821 29.7161 31.3593C29.6118 31.4364 29.5059 31.511 29.3984 31.5831C29.2905 31.6552 29.181 31.7245 29.0701 31.791C28.9589 31.8578 28.8463 31.9218 28.732 31.9828C28.6177 32.044 28.502 32.1024 28.385 32.1577C28.2676 32.2133 28.1494 32.2659 28.0296 32.3154C27.91 32.3651 27.789 32.4118 27.6672 32.4556C27.5451 32.4992 27.4221 32.5401 27.2981 32.5778C27.1743 32.6155 27.0494 32.6502 26.9237 32.6817C26.7979 32.7133 26.6717 32.7418 26.5445 32.7673C26.4174 32.7927 26.29 32.8148 26.1617 32.8341C26.0335 32.8531 25.905 32.8693 25.7759 32.8819C25.6471 32.8947 25.518 32.9045 25.3883 32.9109C25.259 32.9176 25.1296 32.9207 25 32.921ZM25 18.7959C24.8983 18.7959 24.7968 18.7984 24.6954 18.8031C24.594 18.8082 24.4928 18.8157 24.3917 18.8258C24.2908 18.8356 24.19 18.8481 24.0897 18.8629C23.9891 18.8778 23.8891 18.8951 23.7896 18.9149C23.6898 18.9348 23.5909 18.9571 23.4923 18.9817C23.3939 19.0063 23.2962 19.0334 23.1989 19.063C23.1017 19.0924 23.0053 19.1243 22.9097 19.1583C22.8142 19.1927 22.7195 19.2293 22.6256 19.2682C22.5317 19.307 22.4389 19.3481 22.347 19.3914C22.2554 19.4348 22.1646 19.4806 22.0752 19.5284C21.9855 19.5762 21.8972 19.6262 21.8103 19.6785C21.7231 19.7307 21.6373 19.7849 21.5529 19.8414C21.4686 19.8978 21.3856 19.9563 21.304 20.0166C21.2224 20.0773 21.1422 20.1396 21.0637 20.2042C20.9852 20.2684 20.9084 20.335 20.8332 20.4031C20.758 20.4713 20.6846 20.5412 20.6127 20.613C20.5409 20.6849 20.4708 20.7584 20.4026 20.8335C20.3345 20.9087 20.2682 20.9856 20.2037 21.0641C20.1394 21.1426 20.0768 21.2226 20.0165 21.3042C19.9559 21.3858 19.8975 21.4688 19.841 21.5532C19.7846 21.6376 19.7304 21.7234 19.6781 21.8106C19.6259 21.8975 19.5759 21.9858 19.5281 22.0755C19.48 22.165 19.4345 22.2558 19.3912 22.3475C19.3476 22.4391 19.3065 22.5322 19.2677 22.6258C19.2288 22.7197 19.1922 22.8145 19.1582 22.9101C19.1238 23.0056 19.0919 23.1021 19.0626 23.199C19.033 23.2963 19.0059 23.3941 18.9813 23.4928C18.9567 23.5912 18.9344 23.6901 18.9145 23.7899C18.8947 23.8894 18.8774 23.9894 18.8625 24.0897C18.8477 24.1904 18.8352 24.291 18.8254 24.3921C18.8153 24.493 18.8078 24.5945 18.8028 24.6959C18.798 24.7971 18.7955 24.8986 18.7955 25.0003C18.7955 25.1017 18.798 25.2032 18.8028 25.3046C18.8078 25.4061 18.8153 25.5073 18.8254 25.6084C18.8352 25.7093 18.8477 25.8102 18.8625 25.9105C18.8774 26.0112 18.8947 26.1109 18.9145 26.2107C18.9344 26.3102 18.9567 26.4094 18.9813 26.5078C19.0059 26.6062 19.033 26.704 19.0626 26.8012C19.0919 26.8985 19.1238 26.9949 19.1582 27.0905C19.1922 27.1861 19.2288 27.2808 19.2677 27.3745C19.3065 27.4684 19.3476 27.5611 19.3912 27.6531C19.4345 27.7448 19.48 27.8353 19.5281 27.925C19.5759 28.0145 19.6259 28.1028 19.6781 28.19C19.7304 28.2772 19.7846 28.3627 19.841 28.4474C19.8975 28.5318 19.9559 28.6148 20.0165 28.6961C20.0768 28.7777 20.1394 28.8579 20.2037 28.9362C20.2682 29.0147 20.3345 29.0916 20.4026 29.1667C20.4708 29.2422 20.5409 29.3157 20.6127 29.3875C20.6846 29.4594 20.758 29.5292 20.8332 29.5974C20.9084 29.6656 20.9852 29.7319 21.0637 29.7964C21.1422 29.8607 21.2224 29.9233 21.304 29.9837C21.3856 30.0443 21.4686 30.1027 21.5529 30.1592C21.6373 30.2154 21.7231 30.2698 21.8103 30.3218C21.8972 30.3741 21.9855 30.4241 22.0752 30.4722C22.1646 30.52 22.2554 30.5655 22.347 30.6089C22.4389 30.6525 22.5317 30.6935 22.6256 30.7324C22.7195 30.7712 22.8142 30.8078 22.9097 30.8419C23.0053 30.8763 23.1017 30.9082 23.1989 30.9375C23.2962 30.9669 23.3939 30.994 23.4923 31.0189C23.5909 31.0434 23.6898 31.0655 23.7896 31.0854C23.8891 31.1052 23.9891 31.1225 24.0897 31.1376C24.19 31.1524 24.2908 31.1647 24.3917 31.1748C24.4928 31.1849 24.594 31.1921 24.6954 31.1972C24.7968 31.2022 24.8983 31.2047 25 31.2047C25.1014 31.2047 25.2028 31.2022 25.3042 31.1972C25.4057 31.1921 25.5071 31.1849 25.608 31.1748C25.7091 31.1647 25.81 31.1524 25.9103 31.1376C26.0109 31.1225 26.1109 31.1052 26.2104 31.0854C26.3101 31.0655 26.409 31.0434 26.5076 31.0189C26.606 30.994 26.7038 30.9669 26.801 30.9375C26.8982 30.9082 26.9946 30.8763 27.0902 30.8419C27.1858 30.8078 27.2805 30.7712 27.3744 30.7324C27.4682 30.6935 27.561 30.6525 27.6526 30.6089C27.7446 30.5655 27.8351 30.52 27.9248 30.4722C28.0142 30.4241 28.1025 30.3741 28.1897 30.3218C28.2768 30.2698 28.3626 30.2154 28.447 30.1592C28.5314 30.1027 28.6144 30.0443 28.6959 29.9837C28.7775 29.9233 28.8574 29.8607 28.936 29.7964C29.0145 29.7319 29.0913 29.6656 29.1667 29.5974C29.2419 29.5292 29.3154 29.4594 29.3872 29.3875C29.459 29.3157 29.5291 29.2422 29.5973 29.1667C29.6655 29.0916 29.7317 29.0147 29.7962 28.9362C29.8605 28.8579 29.9231 28.7777 29.9834 28.6961C30.0441 28.6148 30.1025 28.5318 30.1589 28.4474C30.2154 28.3627 30.2696 28.2772 30.3218 28.19C30.3741 28.1028 30.4241 28.0145 30.4718 27.925C30.5196 27.8353 30.5654 27.7448 30.6088 27.6531C30.6521 27.5611 30.6934 27.4684 30.7323 27.3745C30.7711 27.2808 30.8077 27.1861 30.8418 27.0905C30.8759 26.9949 30.9077 26.8985 30.9373 26.8012C30.9667 26.704 30.9938 26.6062 31.0186 26.5078C31.0432 26.4094 31.0653 26.3102 31.0851 26.2107C31.105 26.1109 31.1223 26.0112 31.1374 25.9105C31.1522 25.8102 31.1648 25.7093 31.1746 25.6084C31.1846 25.5073 31.1922 25.4061 31.1969 25.3046C31.2019 25.2032 31.2044 25.1017 31.2044 25.0003C31.2044 24.8988 31.2017 24.7974 31.1966 24.6959C31.1916 24.5945 31.1841 24.4933 31.174 24.3924C31.1639 24.2912 31.1514 24.1906 31.1363 24.0903C31.1215 23.9897 31.1039 23.8899 31.084 23.7904C31.0642 23.6906 31.0418 23.5917 31.017 23.4933C30.9924 23.395 30.9653 23.2971 30.9357 23.1999C30.906 23.1029 30.8742 23.0065 30.8398 22.9109C30.8057 22.8156 30.7691 22.7209 30.7303 22.627C30.6912 22.5333 30.6501 22.4405 30.6065 22.3489C30.5632 22.2572 30.5174 22.1664 30.4696 22.0769C30.4218 21.9875 30.3718 21.8992 30.3196 21.8123C30.2673 21.7251 30.2128 21.6393 30.1564 21.5549C30.1 21.4705 30.0416 21.3877 29.9812 21.3061C29.9206 21.2245 29.8583 21.1446 29.7937 21.0661C29.7295 20.9878 29.6632 20.911 29.5951 20.8358C29.5269 20.7606 29.4568 20.6871 29.385 20.6153C29.3132 20.5434 29.2397 20.4736 29.1645 20.4054C29.0893 20.3372 29.0125 20.271 28.934 20.2064C28.8555 20.1421 28.7756 20.0795 28.694 20.0191C28.6127 19.9585 28.5297 19.9001 28.4453 19.8436C28.3609 19.7872 28.2752 19.733 28.188 19.6807C28.1011 19.6284 28.0128 19.5784 27.9231 19.5306C27.8337 19.4828 27.7432 19.437 27.6515 19.3937C27.5596 19.3501 27.4668 19.309 27.3732 19.2701C27.2794 19.2313 27.1846 19.1947 27.0891 19.1603C26.9935 19.1259 26.8974 19.0941 26.8002 19.0647C26.7029 19.0351 26.6052 19.008 26.5068 18.9831C26.4085 18.9585 26.3093 18.9362 26.2098 18.9163C26.1103 18.8965 26.0103 18.8789 25.91 18.8638C25.8097 18.849 25.7088 18.8364 25.608 18.8263C25.5068 18.8163 25.4057 18.8087 25.3042 18.8037C25.2028 18.7984 25.1014 18.7959 25 18.7959Z" fill="#CB6CE6"/>
</svg>
