<svg width="23" height="23" viewBox="0 0 23 23" fill="none" xmlns="http://www.w3.org/2000/svg">
<path d="M12.9074 0.0517156C12.2234 0.623278 11.4603 0.987512 10.7869 1.45764C10.0291 1.98772 9.4397 2.63767 8.93977 3.34757C8.28737 4.27408 7.99784 5.33435 7.71368 6.37604C7.39801 7.53773 7.23494 8.72693 7.31379 9.92541C7.36649 10.6861 7.42429 11.4651 7.73473 12.175C8.0716 12.9355 8.62932 13.6085 9.13971 14.2954C10.0291 15.4939 11.3236 16.2038 12.7391 16.803C14.0178 17.3469 15.3544 17.7064 16.7383 17.96C18.2748 18.2412 19.8061 18.1904 21.3322 17.9185C21.7216 17.8494 22.1057 17.7664 22.4899 17.688C22.6846 17.6512 22.8635 17.7019 22.9582 17.8539C23.0318 17.9738 23.0109 18.1029 22.874 18.2182C21.8899 19.0663 20.9744 19.9791 19.8641 20.7027C18.0697 21.8782 16.0964 22.6895 13.8389 22.9153C12.455 23.0536 11.0867 23.0213 9.71863 22.8277C9.15031 22.7493 8.65038 22.4682 8.10834 22.2976C6.49296 21.7813 5.18788 20.8687 3.89863 19.9052C2.15692 18.6053 1.09926 16.9505 0.451957 15.0605C0.00995936 13.7699 -0.0321485 12.4423 0.0151893 11.1101C0.099405 8.74538 1.11495 6.6573 2.61997 4.7535C3.87758 3.15858 5.51415 1.8817 7.52433 1.029C8.86615 0.466607 10.2922 0.116241 11.8024 0.0471318C12.155 0.0332629 12.5023 -0.054299 12.9074 0.0517156Z" fill="black"/>
</svg>
